<?xml version="1.0" encoding="utf-8"?>
<!-- Generator: Adobe Illustrator 16.0.0, SVG Export Plug-In . SVG Version: 6.00 Build 0)  -->
<!DOCTYPE svg PUBLIC "-//W3C//DTD SVG 1.1//EN" "http://www.w3.org/Graphics/SVG/1.1/DTD/svg11.dtd">
<svg version="1.1" id="Layer_1" xmlns="http://www.w3.org/2000/svg" xmlns:xlink="http://www.w3.org/1999/xlink" x="0px" y="0px"
	 width="120px" height="120px" viewBox="0 0 120 120" enable-background="new 0 0 120 120" xml:space="preserve">
<g>
	<path fill="#2C80BB" d="M79.979,19.758c0.844-5.363-5.155-4.932-5.698-1.97c-0.646,3.527-5.448,28.42-4.651,9.9
		c0.511-11.912,0.613-17.416,0.364-19.811c-0.361-3.5-5.53-3.328-6.259,0.206c-0.537,2.6-1.808,21.443-2.729,23.401
		c-1.139,2.413-1.431-12.655-2.382-26.714c-0.504-7.479-8.202-4.854-7.908-0.998c1.407,18.475,0.024,49.45-3.727,6.933
		c-0.408-4.63-7.304-4.306-7.154,0.36c0,0,1.65,16.463,2.176,23.913l0.734,10.847c-1.896,0.005-3.505-3.846-4.154-5.563
		c-0.978-1.872-2.317-4.937-5.886-5.768c-2.223-0.519-4.764-0.361-5.54,1.808c-0.195,0.551,10.222,17.993,10.426,18.266
		c3.497,4.668,10.896,10.595,10.896,10.595V120h23.485V63.891C78.476,57.628,79.979,19.758,79.979,19.758z"/>
	<path fill="#2C80BB" d="M83.839,49.875c-0.578-3.672,3.53-3.377,3.901-1.349c0.442,2.414,3.73,19.458,3.185,6.778
		c-0.35-8.155-0.42-11.923-0.249-13.563c0.247-2.396,3.786-2.278,4.285,0.141c0.367,1.78,1.237,14.681,1.868,16.021
		c0.78,1.652,0.98-8.664,1.631-18.289c0.346-5.12,5.615-3.323,5.414-0.683c-0.963,12.648-0.017,33.854,2.552,4.746
		c0.279-3.17,5-2.948,4.898,0.246c0,0-1.13,11.272-1.49,16.372l-0.502,7.426c1.298,0.004,2.399-2.633,2.844-3.809
		c0.669-1.281,1.586-3.379,4.029-3.949c1.521-0.355,3.262-0.247,3.793,1.238c0.134,0.377-6.999,12.318-7.138,12.506
		c-2.395,3.195-7.46,7.252-7.46,7.252V120H89.32V80.09C84.869,75.803,83.839,49.875,83.839,49.875z"/>
	<path fill="#2C80BB" d="M31.672,57.99c0.506-3.216-3.091-2.958-3.417-1.181c-0.387,2.114-3.268,17.042-2.79,5.937
		c0.306-7.143,0.368-10.444,0.218-11.88c-0.216-2.098-3.316-1.996-3.753,0.124c-0.322,1.56-1.084,12.858-1.637,14.032
		c-0.683,1.447-0.858-7.588-1.428-16.019c-0.303-4.484-4.918-2.911-4.742-0.599c0.843,11.079,0.014,29.653-2.235,4.157
		c-0.245-2.776-4.38-2.582-4.29,0.216c0,0,0.99,9.874,1.304,14.34l0.441,6.504c-1.137,0.004-2.103-2.307-2.492-3.336
		c-0.586-1.123-1.389-2.959-3.529-3.459c-1.333-0.311-2.857-0.217-3.322,1.084c-0.117,0.33,6.13,10.789,6.252,10.953
		c2.097,2.799,6.534,6.354,6.534,6.354V120h14.083V84.455C30.771,80.699,31.672,57.99,31.672,57.99z"/>
</g>
</svg>
