<?xml version="1.0" encoding="utf-8"?>
<!-- Generator: Adobe Illustrator 16.0.0, SVG Export Plug-In . SVG Version: 6.00 Build 0)  -->
<!DOCTYPE svg PUBLIC "-//W3C//DTD SVG 1.1//EN" "http://www.w3.org/Graphics/SVG/1.1/DTD/svg11.dtd">
<svg version="1.1" id="Isolation_Mode" xmlns="http://www.w3.org/2000/svg" xmlns:xlink="http://www.w3.org/1999/xlink" x="0px"
	 y="0px" width="30px" height="30px" viewBox="0 0 30 30" enable-background="new 0 0 30 30" xml:space="preserve">
<g>
	<path fill="#B82025" d="M15.003,0C6.718,0,0.014,6.715,0.014,14.989C0.014,23.276,6.718,30,15.003,30s14.983-6.724,14.983-15.011
		C29.986,6.715,23.288,0,15.003,0z M15.003,3.977c0.571,0,1.035,0.455,1.035,1.03v0.65c0.675,0.112,1.335,0.329,1.935,0.655
		c1.066,0.582,1.973,1.462,2.475,2.576c0.166,0.365,0.326,0.828,0.337,1.276c0.015,0.893-0.729,1.612-1.617,1.612
		c-0.658,0-1.157-0.273-1.381-0.751c-0.297-0.618-0.3-1.331-0.703-1.902c-0.348-0.484-0.864-0.85-1.45-0.987
		c-0.979-0.228-2.014,0.218-2.614,1.002c-0.639,0.832-0.653,1.959-0.101,2.856c0.788,1.283,1.914,1.314,3.196,1.763
		c0.644,0.22,1.313,0.376,1.95,0.626c0.929,0.365,1.818,1.021,2.407,1.906c0.48,0.72,0.717,1.646,0.717,2.771
		c0,1.471-0.46,2.677-1.396,3.616c-0.997,0.998-2.345,1.537-3.755,1.7v0.615c0,0.576-0.463,1.031-1.034,1.031
		s-1.035-0.455-1.035-1.031v-0.641c-0.777-0.101-1.532-0.305-2.22-0.602c-1.065-0.455-2.054-1.487-2.6-2.619
		c-0.177-0.366-0.33-0.828-0.337-1.277c-0.014-0.892,0.72-1.617,1.613-1.617c0.657,0,1.162,0.282,1.386,0.756
		c0.481,1.027,0.76,2.283,2.292,2.774c0.9,0.286,2.224,0.362,3.313-0.795c0.3-0.278,0.602-0.881,0.602-1.59
		c0-0.676-0.197-1.179-0.573-1.525c-0.373-0.348-0.925-0.721-1.709-0.944c-2.057-0.597-4.436-1.305-5.705-3.174
		c-0.483-0.716-0.717-1.642-0.717-2.77c0-1.471,0.47-2.677,1.405-3.616c0.911-0.911,1.985-1.516,3.25-1.7V5.007
		C13.968,4.432,14.432,3.977,15.003,3.977L15.003,3.977z"/>
</g>
</svg>
