<svg id="Layer_1" data-name="Layer 1" xmlns="http://www.w3.org/2000/svg" viewBox="0 0 118.51 118.51"><defs><style>.cls-1{fill:#e42525;}.cls-2{fill:#fff;}</style></defs><circle class="cls-1" cx="59.26" cy="59.26" r="59.26"/><path class="cls-2" d="M59.77,59.34A17.31,17.31,0,0,0,77.08,42,17.31,17.31,0,0,0,59.77,24.72,17.31,17.31,0,0,0,42.46,42,17.31,17.31,0,0,0,59.77,59.34Z" transform="translate(-0.74 -0.74)"/><path class="cls-2" d="M90.06,80a40.62,40.62,0,0,0-.58-4.54,35.37,35.37,0,0,0-1.12-4.56,22,22,0,0,0-1.87-4.26,16.17,16.17,0,0,0-2.83-3.69,12.59,12.59,0,0,0-4.07-2.56,14.13,14.13,0,0,0-5.19-.94,5.31,5.31,0,0,0-2.81,1.2l-2.93,1.89a17,17,0,0,1-3.8,1.67,14.7,14.7,0,0,1-9.27,0,16.69,16.69,0,0,1-3.79-1.67l-2.94-1.89a5.23,5.23,0,0,0-2.81-1.2,14.13,14.13,0,0,0-5.19.94,12.59,12.59,0,0,0-4.07,2.56A15.86,15.86,0,0,0,34,66.62a21.43,21.43,0,0,0-1.88,4.26A35.37,35.37,0,0,0,31,75.44,43.11,43.11,0,0,0,30.39,80c-.1,1.38-.14,2.81-.14,4.25a11.94,11.94,0,0,0,3.54,9,12.76,12.76,0,0,0,9.13,3.33H77.53a12.74,12.74,0,0,0,9.13-3.33,11.91,11.91,0,0,0,3.55-9C90.21,82.78,90.16,81.35,90.06,80Z" transform="translate(-0.74 -0.74)"/></svg>