<?xml version="1.0" encoding="utf-8"?>
<!-- Generator: Adobe Illustrator 16.0.0, SVG Export Plug-In . SVG Version: 6.00 Build 0)  -->
<!DOCTYPE svg PUBLIC "-//W3C//DTD SVG 1.1//EN" "http://www.w3.org/Graphics/SVG/1.1/DTD/svg11.dtd">
<svg version="1.1" id="Layer_1" xmlns="http://www.w3.org/2000/svg" xmlns:xlink="http://www.w3.org/1999/xlink" x="0px" y="0px"
	 width="120px" height="120px" viewBox="0 0 120 120" enable-background="new 0 0 120 120" xml:space="preserve">
<path fill="#2C80BB" d="M82.105,106.464l16.769-15.902c0.231-0.221,0.602-0.211,0.82,0.021l6.871,7.244
	C114.961,87.504,120,74.342,120,60c0-33.137-26.863-60-60-60C26.863,0,0,26.863,0,60c0,33.137,26.863,60,60,60
	c9.999,0,19.418-2.459,27.709-6.785l-5.625-5.931C81.865,107.052,81.875,106.684,82.105,106.464z M81.188,52.589v9.488
	c0,1.047-0.853,1.898-1.898,1.898v0.224v0.251v9.238c0,1.047-0.853,1.897-1.897,1.897c-1.047,0-1.898-0.851-1.898-1.897
	c0,1.047-0.851,1.897-1.898,1.897c-1.045,0-1.896-0.851-1.896-1.897V64.45v-0.251v-0.224c-1.047,0-1.898-0.852-1.898-1.898v-9.488
	c0-1.047,0.852-1.897,1.898-1.897h2.618c-0.022,0.042-0.019,0.098,0.016,0.161l0.923,1.657c0.072,0.131,0.19,0.131,0.263,0
	l0.924-1.657c0.034-0.063,0.036-0.119,0.015-0.161h2.833C80.335,50.692,81.188,51.542,81.188,52.589z M75.493,42.088
	c2.227,0,4.033,1.805,4.033,4.033c0,2.227-1.807,4.033-4.033,4.033c-2.229,0-4.033-1.806-4.033-4.033
	C71.46,43.894,73.265,42.088,75.493,42.088z M68.243,35c1.688,0,3.057,1.368,3.057,3.055c0,1.687-1.368,3.055-3.057,3.055
	c-1.688,0-3.057-1.368-3.057-3.055C65.187,36.368,66.556,35,68.243,35z M57.227,61.829v-9.488c0-1.047,0.852-1.897,1.898-1.897
	h2.618c-0.022,0.042-0.019,0.098,0.016,0.161l0.923,1.657c0.071,0.13,0.19,0.13,0.263,0l0.924-1.657
	c0.033-0.063,0.037-0.119,0.015-0.161h2.833c1.046,0,1.897,0.85,1.897,1.897v9.488c0,1.047-0.852,1.898-1.897,1.898v0.223v0.252
	v9.238c0,1.047-0.852,1.898-1.898,1.898s-1.898-0.852-1.898-1.898c0,1.047-0.85,1.898-1.897,1.898c-1.044,0-1.896-0.852-1.896-1.898
	v-9.238V63.95v-0.223C58.078,63.728,57.227,62.876,57.227,61.829z M66.953,45.873c0,2.227-1.806,4.032-4.034,4.032
	c-2.228,0-4.032-1.805-4.032-4.032c0-2.228,1.805-4.033,4.032-4.033C65.147,41.84,66.953,43.646,66.953,45.873z M57.098,35
	c1.688,0,3.057,1.368,3.057,3.055c0,1.687-1.368,3.055-3.057,3.055c-1.688,0-3.056-1.368-3.056-3.055
	C54.042,36.368,55.41,35,57.098,35z M45.116,62.077v-9.488c0-1.047,0.852-1.897,1.898-1.897h2.617
	c-0.022,0.042-0.018,0.098,0.016,0.161l0.923,1.657c0.072,0.131,0.19,0.131,0.264,0l0.923-1.657
	c0.034-0.063,0.037-0.119,0.016-0.161h2.833c1.046,0,1.897,0.85,1.897,1.897v9.488c0,1.047-0.852,1.898-1.897,1.898v0.224v0.251
	v9.238c0,1.047-0.853,1.897-1.898,1.897c-1.047,0-1.898-0.851-1.898-1.897c0,1.047-0.851,1.897-1.897,1.897
	c-1.045,0-1.896-0.851-1.896-1.897V64.45v-0.251v-0.224C45.968,63.976,45.116,63.124,45.116,62.077z M54.843,46.122
	c0,2.227-1.807,4.033-4.034,4.033s-4.032-1.806-4.032-4.033c0-2.228,1.805-4.033,4.032-4.033S54.843,43.894,54.843,46.122z
	 M45.948,35c1.688,0,3.057,1.368,3.057,3.055c0,1.687-1.368,3.055-3.057,3.055c-1.688,0-3.056-1.368-3.056-3.055
	C42.892,36.368,44.261,35,45.948,35z M38.7,42.088c2.227,0,4.034,1.805,4.034,4.033c0,2.227-1.807,4.033-4.034,4.033
	c-2.229,0-4.033-1.806-4.033-4.033C34.667,43.894,36.472,42.088,38.7,42.088z M33.006,62.077v-9.488
	c0-1.047,0.852-1.897,1.899-1.897h2.618c-0.022,0.042-0.019,0.098,0.015,0.161l0.923,1.657c0.072,0.131,0.19,0.131,0.263,0
	l0.923-1.657c0.034-0.063,0.037-0.119,0.015-0.161h2.833c1.046,0,1.897,0.85,1.897,1.897v9.488c0,1.047-0.852,1.898-1.897,1.898
	v0.224v0.251v9.238c0,1.047-0.852,1.897-1.898,1.897c-1.046,0-1.897-0.851-1.897-1.897c0,1.047-0.851,1.897-1.898,1.897
	c-1.045,0-1.897-0.851-1.897-1.897V64.45v-0.251v-0.224C33.858,63.976,33.006,63.124,33.006,62.077z M79.828,102.169
	c-0.195-0.056-0.394-0.115-0.597-0.182c-1.551-0.499-3.061-0.68-5.906-0.789l-12.144-0.46c-3.178-0.165-8.845-2.902-10.474-4.168
	l-5.892-4.441l-0.999-0.772l-6.901-5.412c-1.79-1.406-2.202-3.862-0.922-5.487l0.052-0.066c1.182-1.504,3.398-1.766,5.142-0.683
	l-0.002-0.001l0.015,0.009c0.055,0.033,0.108,0.07,0.162,0.108l14.487,9.703c2.186,1.149,4.006,1.296,6.166,1.196l8.304-0.146
	c1.749-0.038,3.159-1.354,3.151-2.94l-0.002-0.065c-0.006-1.588-1.428-2.845-3.181-2.809l-2.031,0.042l-8.769,0.125
	c-2.277,0.03-4.142-1.621-4.167-3.688l-0.002-0.085c-0.027-2.067,1.795-3.767,4.07-3.799l14.433-0.186
	c6.537-0.082,7.437,1.057,12.656,5.111l7.026,5.462c0.295,0.222,0.571,0.444,0.826,0.668L79.828,102.169
	C79.829,102.168,79.829,102.169,79.828,102.169z M80.117,102.472l14.582-13.83c0.23-0.219,0.6-0.209,0.82,0.022l1.925,2.03
	c0.219,0.231,0.21,0.6-0.022,0.818l-14.582,13.83c-0.23,0.22-0.6,0.211-0.82-0.021l-1.925-2.029
	C79.875,103.06,79.886,102.691,80.117,102.472z"/>
</svg>
