<?xml version="1.0" encoding="utf-8"?>
<!-- Generator: Adobe Illustrator 16.0.0, SVG Export Plug-In . SVG Version: 6.00 Build 0)  -->
<!DOCTYPE svg PUBLIC "-//W3C//DTD SVG 1.1//EN" "http://www.w3.org/Graphics/SVG/1.1/DTD/svg11.dtd">
<svg version="1.1" id="Layer_1" xmlns="http://www.w3.org/2000/svg" xmlns:xlink="http://www.w3.org/1999/xlink" x="0px" y="0px"
	 width="268px" height="200px" viewBox="0 0 268 200" enable-background="new 0 0 268 200" xml:space="preserve">
<g>
	<path fill="#A3CB61" d="M158.745,129.849c-0.019-0.004-0.035-0.011-0.054-0.02c-0.139-0.064-0.201-0.23-0.137-0.371
		c16.991-36.627,31.331-62.149,40.379-71.867c0.201-0.214,0.346-0.371,0.405-0.452c0.09-0.125,0.264-0.152,0.389-0.063
		c0.126,0.091,0.155,0.265,0.065,0.39c-0.078,0.11-0.22,0.26-0.451,0.508c-9.008,9.675-23.314,35.146-40.278,71.72
		C159.004,129.816,158.87,129.879,158.745,129.849"/>
	<path fill="#A3CB61" d="M204.448,56.373c-1.063,1.084-5.854,2.666-6.164,2.363c-0.31-0.304,1.178-5.127,2.24-6.21
		c1.061-1.084,2.801-1.102,3.886-0.04C205.492,53.548,205.511,55.288,204.448,56.373"/>
	<path fill="#A3CB61" d="M195.282,58.817c0.231,1.538-1.427,6.425-1.865,6.491c-0.438,0.065-3.464-4.117-3.694-5.652
		c-0.231-1.536,0.826-2.968,2.362-3.199C193.618,56.225,195.052,57.282,195.282,58.817"/>
	<path fill="#A3CB61" d="M199.358,68.368c-1.547-0.121-5.938-2.838-5.903-3.279c0.033-0.442,4.791-2.447,6.338-2.327
		c1.55,0.122,2.705,1.474,2.586,3.021C202.26,67.33,200.905,68.487,199.358,68.368"/>
	<path fill="#A3CB61" d="M178.507,82.304c0.663,2.521-1.219,10.979-1.938,11.17c-0.718,0.188-6.523-6.246-7.187-8.765
		c-0.663-2.521,0.84-5.101,3.36-5.766S177.843,79.783,178.507,82.304"/>
	<path fill="#A3CB61" d="M187.036,97.503c-2.604,0.078-10.422-3.66-10.446-4.403c-0.024-0.744,7.553-4.951,10.16-5.03
		c2.605-0.079,4.78,1.969,4.859,4.573S189.641,97.424,187.036,97.503"/>
	<path fill="#A3CB61" d="M170.429,90.915c1.474,2.829,1.504,13.434,0.696,13.854c-0.808,0.421-9.471-5.697-10.941-8.526
		s-0.37-6.315,2.458-7.787C165.472,86.984,168.958,88.086,170.429,90.915"/>
	<path fill="#A3CB61" d="M182.865,110.99c-3.182-0.232-12.228-5.769-12.162-6.675c0.065-0.908,9.818-5.074,12.999-4.843
		c3.182,0.231,5.571,2.996,5.341,6.178C188.812,108.83,186.046,111.221,182.865,110.99"/>
	<path fill="#A3CB61" d="M164.493,102.802c1.471,2.829,1.501,13.435,0.693,13.854s-9.47-5.697-10.941-8.526
		c-1.471-2.831-0.369-6.316,2.461-7.789C159.534,98.87,163.02,99.972,164.493,102.802"/>
	<path fill="#A3CB61" d="M176.927,122.876c-3.181-0.231-12.227-5.767-12.162-6.675c0.065-0.908,9.818-5.075,13-4.844
		c3.181,0.232,5.571,2.999,5.34,6.179C182.873,120.717,180.108,123.108,176.927,122.876"/>
	<path fill="#A3CB61" d="M153.145,117.183c2.438,2.056,6.506,11.849,5.922,12.545c-0.588,0.696-10.928-1.661-13.366-3.717
		c-2.439-2.056-2.746-5.699-0.691-8.137C147.064,115.436,150.708,115.125,153.145,117.183"/>
	<path fill="#A3CB61" d="M171.486,134.695c-3.184,0.168-12.85-4.192-12.898-5.103c-0.049-0.909,9.105-6.263,12.292-6.43
		c3.184-0.169,5.9,2.276,6.068,5.462C177.117,131.809,174.67,134.528,171.486,134.695"/>
	<path fill="#A3CB61" d="M190.098,66.136c0.236,1.561-1.449,6.528-1.896,6.595c-0.443,0.067-3.519-4.184-3.752-5.744
		c-0.236-1.559,0.838-3.014,2.398-3.249S189.863,64.576,190.098,66.136"/>
	<path fill="#A3CB61" d="M194.023,75.904c-1.571-0.122-6.033-2.882-5.998-3.33c0.035-0.45,4.867-2.486,6.441-2.364
		c1.571,0.122,2.749,1.495,2.627,3.068C196.971,74.852,195.595,76.027,194.023,75.904"/>
	<path fill="#A3CB61" d="M184.42,72.81c0.515,2.181-1.291,9.41-1.914,9.557c-0.622,0.148-5.471-5.513-5.984-7.694
		c-0.514-2.181,0.838-4.367,3.019-4.881C181.721,69.276,183.906,70.627,184.42,72.81"/>
	<path fill="#A3CB61" d="M191,86.84c-2.232-0.174-8.572-4.095-8.523-4.731c0.052-0.64,6.917-3.532,9.151-3.358
		c2.235,0.174,3.904,2.125,3.733,4.358C195.188,85.344,193.235,87.015,191,86.84"/>
	<path fill="#A3CB61" d="M162.337,165.563c0,0-14.645-45.845,67.492-57.651C229.829,107.912,209.649,190.962,162.337,165.563"/>
	<path fill="#FFFFFF" d="M229.954,107.802l-68.436,51.75C160.73,146.779,166.049,116.989,229.954,107.802"/>
	<path fill="none" stroke="#A3CB61" stroke-miterlimit="10" d="M229.954,107.802l-68.436,51.75
		C160.73,146.779,166.049,116.989,229.954,107.802z"/>
	<path fill="#0F1139" d="M164.357,157.559c-0.041-0.011-0.079-0.035-0.109-0.073c-0.064-0.087-0.049-0.211,0.041-0.277
		l65.546-49.563c0.09-0.066,0.215-0.049,0.28,0.038c0.064,0.087,0.049,0.212-0.041,0.277l-65.546,49.564
		C164.477,157.563,164.414,157.572,164.357,157.559"/>
	<path fill="#0F1139" d="M195.688,133.868c-0.093-0.022-0.157-0.111-0.149-0.209c0.011-0.11,0.106-0.189,0.218-0.18l22.738,1.996
		c0.108,0.007,0.19,0.104,0.18,0.215c-0.009,0.108-0.106,0.188-0.215,0.178l-22.738-1.994
		C195.709,133.874,195.698,133.871,195.688,133.868"/>
	<path fill="#0F1139" d="M181.646,144.486c-0.011-0.003-0.021-0.007-0.032-0.011c-0.101-0.045-0.144-0.164-0.101-0.263l9.171-20.448
		c0.044-0.099,0.163-0.141,0.261-0.099c0.101,0.045,0.145,0.161,0.101,0.262l-9.168,20.446
		C181.837,144.464,181.739,144.509,181.646,144.486"/>
	<path fill="#FFFFFF" d="M148.462,166.597c0,0,21.689-30.099,66.677,15.378C215.139,181.975,154.425,207.562,148.462,166.597"/>
	<path fill="none" stroke="#A3CB61" stroke-miterlimit="10" d="M148.462,166.597c0,0,21.689-30.099,66.677,15.378
		C215.139,181.975,154.425,207.562,148.462,166.597z"/>
	<path fill="#A3CB61" d="M215.139,181.975l-66.677-15.378C148.462,166.597,148.139,206.486,215.139,181.975"/>
	<path fill="#0F1139" d="M194.913,183.58c0.101,0.09,0.125,0.246,0.038,0.355c-0.088,0.107-0.248,0.125-0.356,0.036l-12.273-9.931
		c-0.008-0.006-0.014-0.011-0.019-0.017c-0.093-0.09-0.102-0.235-0.02-0.338c0.087-0.107,0.245-0.124,0.356-0.037"/>
	<path fill="#5761AC" d="M170.263,183.126L170.263,183.126l-14.843-14.705c-0.101-0.098-0.101-0.257-0.003-0.356
		c0.099-0.099,0.256-0.099,0.356-0.003v0.002l14.843,14.704c0.101,0.098,0.101,0.258,0.003,0.355
		C170.521,183.223,170.36,183.224,170.263,183.126"/>
	<path fill="#A3CB61" d="M78.149,166.822c0,0,13.664-20.167-24.53-37.643C53.619,129.18,51.544,172.392,78.149,166.822"/>
	<path fill="#FFFFFF" d="M53.574,129.109l25.833,34.911C81.614,157.932,83.292,142.705,53.574,129.109"/>
	<path fill="none" stroke="#A3CB61" stroke-miterlimit="10" d="M53.574,129.109l25.833,34.911
		C81.614,157.932,83.292,142.705,53.574,129.109z"/>
	<path fill="#0F1139" d="M78.312,162.646c0.022,0.002,0.045-0.005,0.064-0.019c0.045-0.033,0.054-0.096,0.021-0.141l-24.743-33.438
		c-0.034-0.045-0.096-0.054-0.141-0.021c-0.043,0.034-0.053,0.097-0.021,0.142l24.744,33.438
		C78.253,162.632,78.282,162.646,78.312,162.646"/>
	<path fill="#0F1139" d="M66.487,146.665c0.047,0.002,0.091-0.032,0.101-0.081c0.011-0.054-0.024-0.106-0.079-0.118l-11.327-2.281
		c-0.053-0.012-0.107,0.024-0.119,0.078c-0.011,0.054,0.025,0.107,0.079,0.118l11.327,2.281
		C66.475,146.664,66.48,146.665,66.487,146.665"/>
	<path fill="#0F1139" d="M71.787,153.827h0.016c0.056-0.009,0.094-0.059,0.087-0.113l-1.529-11.24
		c-0.008-0.054-0.06-0.092-0.113-0.085c-0.057,0.007-0.094,0.057-0.087,0.112l1.529,11.24
		C71.697,153.79,71.739,153.825,71.787,153.827"/>
	<path fill="#A3CB61" d="M71.787,183.745c0,0,9.607-43.234-66.654-47.223C5.133,136.522,30.538,210.96,71.787,183.745"/>
	<path fill="#FFFFFF" d="M5.009,136.433l67.029,41.733C71.697,166.396,64.345,139.535,5.009,136.433"/>
	<path fill="none" stroke="#A3CB61" stroke-miterlimit="10" d="M5.009,136.433l67.029,41.733
		C71.697,166.396,64.345,139.535,5.009,136.433z"/>
	<path fill="#0F1139" d="M69.269,176.576c0.038-0.014,0.07-0.039,0.094-0.076c0.051-0.084,0.027-0.197-0.06-0.25L5.104,136.277
		c-0.085-0.055-0.197-0.027-0.25,0.059c-0.056,0.084-0.029,0.197,0.058,0.252l64.199,39.971
		C69.16,176.59,69.218,176.594,69.269,176.576"/>
	<path fill="#0F1139" d="M38.585,157.472c0.082-0.03,0.133-0.115,0.117-0.205c-0.018-0.098-0.113-0.165-0.212-0.147l-20.675,3.722
		c-0.098,0.016-0.165,0.112-0.146,0.212c0.018,0.099,0.113,0.166,0.212,0.146l20.675-3.721
		C38.565,157.478,38.576,157.475,38.585,157.472"/>
	<path fill="#0F1139" d="M52.336,166.033l0.03-0.012c0.085-0.051,0.117-0.16,0.068-0.247L42.33,147.795
		c-0.05-0.088-0.163-0.115-0.249-0.069c-0.088,0.051-0.12,0.16-0.069,0.249l10.105,17.976
		C52.16,166.029,52.252,166.063,52.336,166.033"/>
	<path fill="#BDBEC0" d="M267.764,193.843c0-3.399-59.737-6.157-133.428-6.157c-73.69,0-133.426,2.758-133.426,6.157
		c0,3.4,59.736,6.157,133.426,6.157C208.026,200,267.764,197.243,267.764,193.843"/>
	<path fill="#141A26" d="M208.257,190.611c-0.075,0-0.154-0.008-0.233-0.028c-0.522-0.128-0.84-0.654-0.712-1.176l3.738-15.28
		c0.128-0.521,0.652-0.842,1.177-0.713c0.522,0.127,0.841,0.654,0.713,1.176l-3.738,15.279
		C209.092,190.313,208.695,190.611,208.257,190.611"/>
	<path fill="#141A26" d="M187.218,190.611c-0.076,0-0.154-0.008-0.23-0.028c-0.522-0.128-0.843-0.654-0.716-1.176l5.425-22.169
		c0.128-0.522,0.658-0.842,1.177-0.715c0.522,0.127,0.844,0.655,0.716,1.177l-5.425,22.169
		C188.056,190.313,187.656,190.611,187.218,190.611"/>
	<path fill="#FEC151" d="M195.619,110.615c37.367,0,30.187,38.429,41.959,37.769c11.776-0.659,17.241,27.096-25.582,27.096
		C169.17,175.479,161.228,110.615,195.619,110.615"/>
	<path fill="#B3854E" d="M248.479,182.314c0,0-0.095,6.604-0.043,6.698c0.051,0.096-0.481,0.922-0.481,0.922l-2.083,0.374
		l-1.9-0.874c0,0,0.166-6.141-0.033-7.109C243.739,181.359,248.479,182.314,248.479,182.314"/>
	<path fill="#434142" d="M243.971,189.435c0,0,2.4,0.84,4.453-0.551c0,0,7.994,2.996,7.749,5.276c0,0,0.34,0.678-3.124,0.531
		s-8.847-0.301-8.991-0.381S243.236,194.596,243.971,189.435"/>
	<path fill="#B3854E" d="M228.31,182.314c0,0-0.096,6.604-0.046,6.698c0.051,0.096-0.481,0.922-0.481,0.922l-2.083,0.374l-1.9-0.874
		c0,0,0.166-6.141-0.033-7.109C223.567,181.359,228.31,182.314,228.31,182.314"/>
	<path fill="#434142" d="M223.799,189.435c0,0,2.4,0.84,4.453-0.551c0,0,7.994,2.996,7.749,5.276c0,0,0.343,0.678-3.121,0.531
		c-3.467-0.146-8.848-0.301-8.994-0.381C223.741,194.23,223.064,194.596,223.799,189.435"/>
	<path fill="#B3854E" d="M209.016,105.252c0,0,0.628-0.754,1.015-0.376c0.992,0.962-0.21,1.926-0.96,2.087L209.016,105.252z"/>
	<path fill="#B3854E" d="M209.587,102.284l-0.006,0.001c0.011-0.086,0.024-0.17,0.036-0.256c0.418-3.802-2.453-7.21-6.336-7.382
		c-3.238-0.144-6.147,2.122-6.8,5.297c-0.242,1.177-0.16,2.331,0.177,3.382c0.443,1.615,0.835,2.999,1.286,4.163
		c0.742,1.924,0.813,4.046,0.247,6.029l-0.445,1.561c3.828,2.614,5.905,0.807,5.905,0.807l0.397-2.912
		c0.051-0.381,0.386-0.654,0.769-0.637h0.006C209.902,112.565,209.337,104.556,209.587,102.284"/>
	<polygon fill="#242020" points="195.739,100.958 197.042,105.634 198.271,105.524 199.63,99.83 	"/>
	<path fill="#B3854E" d="M198.472,105.404c-0.081-0.226-0.25-0.411-0.462-0.525c-0.438-0.233-1.221-0.524-1.836-0.031
		c-0.902,0.724,0.495,3.058,2.228,2.166C198.401,107.014,198.915,106.603,198.472,105.404"/>
	<path fill="#141A26" d="M208.807,99.598c0,0,0.878,0.772,0.666,4.813c0,0,0.818-4.438,0.375-4.987
		C209.404,98.876,208.807,99.598,208.807,99.598"/>
	<path fill="#242020" d="M195.456,99.452c0.106-0.979,0.553-1.886,1.053-2.734c-0.465,0.059-0.984,0.099-1.356-0.186
		c-0.376-0.286-0.364-1.02,0.095-1.113c0.267-0.058,0.522,0.126,0.791,0.163c0.617,0.084,1.066-0.572,1.265-1.161
		c0.195-0.59,0.37-1.285,0.933-1.552c0.177-0.082,0.378-0.112,0.571-0.087c0.141,0.718,0.035,1.482-0.297,2.135
		c0.739-0.904,1.661-1.656,2.697-2.197c0.805-0.421,1.754-0.716,2.615-0.425c0.18,0.7-0.983,1.03-1.134,1.738
		c1.545-0.383,3.149-0.528,4.739-0.43c0.408,0.026,0.827,0.071,1.196,0.252c0.367,0.181,0.68,0.524,0.716,0.934
		c0.049,0.536-0.471,1.048-1.007,0.994c0.786,0.368,1.58,0.742,2.243,1.298c0.666,0.558,1.194,1.328,1.275,2.191
		c-0.579,0.006-1.158-0.14-1.664-0.423c0.349,0.325,0.647,0.817,0.468,1.259c-0.133,0.326-0.497,0.51-0.851,0.533
		c-0.352,0.021-0.696-0.09-1.033-0.198c-1.694-0.55-3.388-1.099-5.082-1.647c0.661,0.718,1.14,1.604,1.376,2.552
		c-1.542-0.184-3.021-0.832-4.201-1.839c-0.144,0.725-0.392,1.432-0.731,2.089c-0.052,0.104-0.114,0.21-0.215,0.267
		c-0.345,0.186-0.619-0.324-0.927-0.564c-0.378-0.294-0.933-0.167-1.354,0.063c-0.723,0.395-1.226,0.969-1.777,0.111
		C195.486,100.897,195.386,100.122,195.456,99.452"/>
	<path fill="#E72E2B" d="M240.077,149.494c0,0,7.735,0.627,10.218,10.481c1.441,5.728,0.875,24.374,0.875,24.374l-10.029,1.573
		c0,0,0.899-20.838-6.868-27.261c0,0,1.574,4.232-4.119,28.314h-7.442l-2.482-24.665c0,0-17.513,0.583-22.769-3.795
		c-5.253-4.378-5.78-9.619-5.78-9.619l24.756-3.762L240.077,149.494z"/>
	<path fill="#434142" d="M195.611,115.997c0,0,0.486-3.745,1.268-3.551c0.777,0.194,7.686,1.45,8.366,1.309
		c0.682-0.142,0,3.166,0,3.166s7.775,0.709,9.723,4.017c1.946,3.308,6.471,15.871,8.127,16.941c1.653,1.07,4.918,4.049,4.918,4.049
		l-13.453,7.565l-12.743-0.596c0,0-9.221,5.525-16.42,1.224c-7.2-4.302-5.936-26.876,0.875-30.864
		C193.083,115.267,195.611,115.997,195.611,115.997"/>
	<path fill="#141A26" d="M218.263,146.052c-0.014,0-0.024-0.002-0.038-0.008c-3.88-1.695-5.962-18.451-6.05-19.162
		c-0.005-0.054,0.033-0.103,0.088-0.108c0.057-0.007,0.101,0.031,0.105,0.084c0.021,0.174,2.156,17.356,5.936,19.007
		c0.049,0.022,0.07,0.08,0.049,0.129C218.336,146.03,218.301,146.052,218.263,146.052"/>
	<path fill="#141A26" d="M201.816,148.995c-0.038,0-0.074-0.021-0.09-0.059c-0.021-0.049,0-0.105,0.049-0.127l2.809-1.227
		l-0.395-4.893c-0.84-0.163-8.735-1.704-12.504-2.145c-0.049-0.005-0.085-0.046-0.087-0.095c-0.006-0.377-0.139-9.262,0.445-10.579
		c0.024-0.048,0.082-0.072,0.131-0.05s0.07,0.079,0.049,0.128c-0.538,1.213-0.443,9.479-0.433,10.412
		c4.008,0.479,12.423,2.134,12.51,2.151c0.041,0.008,0.074,0.043,0.076,0.087l0.405,5.035c0.003,0.041-0.019,0.08-0.057,0.097
		l-2.871,1.255C201.841,148.992,201.827,148.995,201.816,148.995"/>
	<path fill="#141A26" d="M234.272,158.761c-0.047,0-0.085-0.033-0.096-0.08c-0.017-0.086-1.789-8.649-15.803-9.662
		c-0.054-0.004-0.095-0.051-0.089-0.104c0.002-0.054,0.046-0.104,0.103-0.09c7.398,0.534,11.347,3.17,13.358,5.287
		c2.184,2.302,2.618,4.512,2.624,4.533c0.008,0.054-0.027,0.104-0.079,0.113C234.286,158.759,234.277,158.761,234.272,158.761"/>
	<path fill="#B3854E" d="M206.925,143.298c0,0,0.193,0.006,0.517,0.017c1.599,0.049,6.376,0.213,6.931,0.409
		c0.666,0.235-1.341,4.403-1.341,4.403s-5.742,0.315-7.591-0.918C203.595,145.978,206.925,143.298,206.925,143.298"/>
	<path fill="#B3854E" d="M212.273,148.154c0,0,3.203,1.449,3.485,1.132c0.285-0.316-2.507-1.933-2.507-1.933L212.273,148.154z"/>
	<path fill="#B3854E" d="M213.146,147.128c0,0,4.742,1.949,5.102,1.294c0.358-0.654-4.889-2.348-4.889-2.348L213.146,147.128z"/>
	<path fill="#B3854E" d="M213.776,145.978c0,0,4.895,1.529,5.193,0.844c0.302-0.684-5.073-1.911-5.073-1.911L213.776,145.978z"/>
	<path fill="#B3854E" d="M214.024,144.744c0,0,4.57,1.493,4.858,0.808c0.285-0.686-4.739-1.875-4.739-1.875L214.024,144.744z"/>
	<polygon fill="#B3854E" points="208.018,143.436 204.41,142.983 204.741,147.063 206.596,147.477 	"/>
	<polygon fill="#0F0F24" points="248.867,130.816 222.467,130.778 214.16,150.084 240.561,150.121 	"/>
	
		<rect x="201.668" y="148.91" transform="matrix(-1 -0.0014 0.0014 -1 420.7968 299.2905)" fill="#0F0F24" width="17.676" height="1.168"/>
	<path fill="#FFFFFF" d="M232.964,140.167c-0.002-0.642,0.515-1.165,1.156-1.169c0.642-0.003,1.166,0.514,1.169,1.156
		c0.003,0.642-0.514,1.165-1.155,1.168C233.492,141.326,232.967,140.809,232.964,140.167"/>
	<path fill="#242020" d="M46.57,59.275c0.699,1.81,0.462,3.869,1.122,5.695c0.633,1.755,2.035,3.124,3.536,4.234
		c1.111,0.822,2.352,1.598,2.969,2.836c1.361,2.729-0.96,6.183,0.225,8.991c0.541,1.286,1.774,2.284,1.942,3.67
		c0.129,1.061-0.439,2.126-1.276,2.791c-0.836,0.664-1.905,0.978-2.966,1.106c-0.904,0.114-1.823,0.102-2.725-0.03
		c-1.009-0.148-1.989-0.443-2.991-0.631c-2.088-0.392-4.268-0.295-6.312,0.277c-1.565,0.438-3.087,1.156-4.713,1.171
		c-1.061,0.01-2.101-0.284-3.098-0.647c-1.088-0.396-2.163-0.889-3.023-1.665c-1.233-1.116-1.918-2.722-2.319-4.337
		c-0.4-1.615-0.558-3.281-0.943-4.899c-0.498-2.08-1.376-4.067-2.576-5.836c-0.507-0.747-1.083-1.476-1.345-2.34
		c-0.179-0.592-0.201-1.22-0.152-1.835c0.212-2.634,1.81-5.117,4.118-6.402c0.572-0.319,1.187-0.57,1.698-0.982
		c0.525-0.423,0.908-0.993,1.294-1.547c0.716-1.029,1.468-2.035,2.254-3.015c0.404-0.506,0.828-1.013,1.373-1.362
		c0.643-0.409,1.411-0.572,2.164-0.68C38.796,53.272,44.958,55.107,46.57,59.275"/>
	<path fill="#F4B792" d="M26.025,178.583c0,0,0.808,7.982-0.821,8.888c-2.951,1.64-8.396,3.206-7.939,4.613
		c0.455,1.407,13.503,1.463,13.865,0.178c0.363-1.283-1.1-5.214,0.45-12.861L26.025,178.583z"/>
	<path fill="#E72E2B" d="M31,189.395c0.14,1.431,0.26,2.41,0.131,2.867c-0.362,1.285-13.41,1.229-13.865-0.178
		c-0.339-1.046,2.543-2.223,5.277-3.395C23.188,189.775,24.567,191.468,31,189.395"/>
	<path fill="#F4B792" d="M50.497,178.354c0,0,2.156,7.729,0.705,8.897c-2.628,2.118-7.726,4.589-7.037,5.896
		c0.688,1.311,13.555-0.856,13.692-2.184c0.139-1.329-1.971-4.951-1.747-12.752L50.497,178.354z"/>
	<path fill="#E72E2B" d="M57.242,188.162c0.38,1.384,0.666,2.33,0.614,2.803c-0.136,1.327-13.003,3.494-13.692,2.184
		c-0.51-0.971,2.129-2.623,4.624-4.243C49.608,189.865,51.256,191.298,57.242,188.162"/>
	<path fill="#F4B792" d="M21.036,87.078c0,0-2.741,3.671-5.024,3.671c-2.284,0-10.051-9.708-10.051-9.708l-1.829,2.94
		c0,0,6.512,14.19,12.45,14.305c5.938,0.113,10.393-6.51,10.277-6.853c-0.113-0.342-3.882-4.355-3.882-4.355H21.036z"/>
	<path fill="#434142" d="M27.546,107.822c0,0-3.544,4.293-5.143,9.318c-1.6,5.024,2.642,64.561,2.642,64.561h7.081
		c0,0,3.756-53.019,3.756-53.489c0-1.854,13.944,53.489,13.944,53.489h7.069c0,0-3.826-64.8-12.705-73.879l-8.309,0.514
		L27.546,107.822z"/>
	<path fill="#242020" d="M27.546,105.596v2.227c0,0,4.226,4.111,16.646,0l0.029-2.227l-10.907-0.686L27.546,105.596z"/>
	<path fill="#E72E2B" d="M31.768,78.735c0,0-4.4-0.163-6.634,1.378c-1.598,1.103-5.125,7.324-5.125,7.324l4.05,3.44
		c0,0-0.966,3.754,2.805,5.637l0.684,9.081c0,0,7.081,4.111,16.674,0c0,0,1.827-17.017,3.54-15.532s2.741,2.797,2.741,2.797
		l6.395-6.338c0,0-6.972-6.983-9.279-8.08c-5.413-2.569-9.791-0.098-9.791-0.098L31.768,78.735z"/>
	<path fill="#F4B792" d="M51.1,92.268c0,0,3.712,4.334,3.284,5.533c-0.428,1.198-6.983,11.074-7.859,12.946
		c-0.877,1.871-0.62,2.985-0.62,2.985l3.34,1.627c0,0,0.174-2.643,0.9-3.421c0.728-0.775,11.776-12.168,11.519-15.766
		c-0.257-3.597-5.328-9.095-5.328-9.095L51.1,92.268z"/>
	<path fill="#F4B792" d="M29.836,64.805c0,0-0.484-0.95-0.987-0.645c-1.284,0.783-0.147,2.144,0.609,2.496L29.836,64.805z"/>
	<path fill="#F4B792" d="M38.483,54.933c3.581,0.648,6.152,3.931,5.93,7.563c-0.072,1.195-0.43,2.296-0.994,3.251
		c-1.279,2.394-2.332,4.32-3.52,5.674c-1.204,1.373-1.885,3.127-1.833,4.953l0.051,1.845c-4.429,1.615-6.16,0.504-6.16,0.504
		l0.616-5.382c-4.468-1.06-2.909-9.352-2.626-11.823l0.007,0.001c0.007-0.092,0.014-0.186,0.024-0.278
		C30.452,57.104,34.319,54.181,38.483,54.933"/>
	<path fill="#242020" d="M38.218,62.28c1.096,1.641,2.274,3.263,3.023,5.081c0.083,0.2,0.662,1.701,0.429,1.839
		c1.271-0.755,2.171-1.993,2.953-3.247c1.355-2.172,1.351-4.967,0.258-7.246c-1.081-2.254-3.173-3.597-5.59-4.074
		c-2.591-0.513-5.545,0.04-7.394,2.041c-1.736,1.877-2.101,4.462-2.55,6.872c0.505-2.707,4.407-4.322,6.716-5.034
		c-0.068,0.021,1.366,2.544,1.444,2.669C37.736,61.549,37.975,61.916,38.218,62.28"/>
	<path fill="#F4B792" d="M40.993,67.514c0.143-0.22,0.366-0.373,0.619-0.444c0.521-0.143,1.422-0.262,1.956,0.409
		c0.783,0.985-1.264,3.127-2.89,1.761C40.678,69.239,40.233,68.681,40.993,67.514"/>
	<path fill="#F4B792" d="M47.74,108.801c0,0-2.9,4.069-2.605,5.017c0.295,0.943,1.538,3.605,1.634,4.074
		c0.095,0.47,0.038,2.988,0.293,3.38c0.257,0.391,0.875-2.702,0.875-2.702s-0.157,2.713,0.316,2.883s0.894-2.726,0.894-2.726
		s-0.246,2.745,0.217,2.762c0.462,0.016,0.738-2.648,0.738-2.648s-0.162,2.134,0.207,2.14c0.366,0.004,1.184-3.487,0.465-4.715
		c-1.699-2.899-1.2-4.451-1.2-4.451L47.74,108.801z"/>
	<path fill="#F4B792" d="M45.874,111.733c0,0-1.439,2.419-1.458,3.341c-0.018,0.921-0.283,2.791,0.113,2.785
		c0.394-0.006,0.933-2.594,1.218-2.704c0.284-0.108,0.29-1.28,0.29-1.28L45.874,111.733z"/>
	<path fill="#D12A27" d="M24.058,90.998c0.06,0,0.11-0.045,0.118-0.105c0.003-0.021,0.279-2.167,1.938-3.729
		c0.049-0.045,0.05-0.12,0.004-0.167c-0.043-0.05-0.118-0.051-0.168-0.006c-1.723,1.622-1.999,3.782-2.009,3.873
		c-0.008,0.065,0.038,0.124,0.104,0.132C24.049,90.998,24.053,90.998,24.058,90.998"/>
	<path fill="#E72E2B" d="M31.311,108.477c0-1.156,0.941-2.095,2.096-2.095c1.156,0,2.095,0.938,2.095,2.095
		c0,1.155-0.939,2.095-2.095,2.095C32.252,110.571,31.311,109.632,31.311,108.477 M32.264,108.477c0,0.631,0.512,1.143,1.143,1.143
		s1.144-0.512,1.144-1.143s-0.513-1.144-1.144-1.144S32.264,107.846,32.264,108.477"/>
	<path fill="#F4B792" d="M8.312,84.201c0,0-1.12-2.563-2.572-3.56c-1.452-0.996-2.572-0.602-2.572-0.602l-1.574-0.982
		c0,0-0.915,4.993,2.875,7.24C4.785,86.485,8.312,84.201,8.312,84.201"/>
	<path fill="#0F0F24" d="M6.105,73.535l-5.54,1.603c-0.055,0.017-0.086,0.073-0.069,0.13l3.241,11.204
		c0.016,0.056,0.073,0.089,0.129,0.072l5.538-1.602c0.056-0.017,0.087-0.074,0.072-0.128L6.234,73.607
		C6.219,73.552,6.161,73.521,6.105,73.535"/>
	<path fill="#F4B792" d="M0.927,80.372c-0.168,0-0.338-0.063-0.472-0.187c-0.279-0.261-0.293-0.698-0.034-0.978l1.163-1.242
		c0.26-0.281,0.697-0.294,0.978-0.035c0.278,0.26,0.293,0.697,0.033,0.978l-1.161,1.243C1.296,80.297,1.112,80.372,0.927,80.372"/>
	<path fill="#F4B792" d="M1.367,81.52c-0.168,0-0.338-0.062-0.472-0.187c-0.279-0.26-0.293-0.697-0.034-0.978l1.163-1.242
		c0.26-0.28,0.697-0.295,0.976-0.035c0.28,0.261,0.295,0.698,0.034,0.978l-1.161,1.245C1.737,81.446,1.552,81.52,1.367,81.52"/>
	<path fill="#F4B792" d="M1.832,82.577c-0.168,0-0.337-0.062-0.47-0.185c-0.28-0.262-0.295-0.699-0.034-0.978l1.161-1.244
		c0.261-0.28,0.699-0.294,0.978-0.035c0.279,0.261,0.293,0.698,0.034,0.978l-1.163,1.245C2.202,82.504,2.017,82.577,1.832,82.577"/>
	<path fill="#F4B792" d="M2.563,83.271c-0.104,0-0.21-0.035-0.296-0.109c-0.196-0.164-0.219-0.455-0.054-0.649l1.059-1.252
		c0.165-0.194,0.456-0.219,0.65-0.053c0.194,0.163,0.219,0.454,0.054,0.648l-1.059,1.252C2.825,83.215,2.695,83.271,2.563,83.271"/>
	<path fill="#939598" d="M162.987,20.505H75.003c-4.66,0-6.948,4.289-6.948,5.176v160.397l5.585,5h88.866l6.917-5.233V25.952
		C169.423,21.486,163.873,20.505,162.987,20.505"/>
	<path fill="#727576" d="M163.422,191.949H74.057c-3.79,0-6.872-3.083-6.872-6.875V26.507c0-3.79,3.082-6.873,6.872-6.873h89.365
		c3.787,0,6.873,3.083,6.873,6.873v158.567C170.295,188.866,167.209,191.949,163.422,191.949 M74.057,21.376
		c-2.829,0-5.132,2.302-5.132,5.131v158.567c0,2.831,2.303,5.132,5.132,5.132h89.365c2.828,0,5.131-2.301,5.131-5.132V26.507
		c0-2.829-2.303-5.131-5.131-5.131H74.057z"/>
	<path fill="#727576" d="M168.952,191.078H68.525c-0.26,0-0.471-0.211-0.471-0.472v-11.278h101.368v11.278
		C169.423,190.867,169.211,191.078,168.952,191.078"/>
	<path fill="#0F1139" d="M89.283,37.831H77.782c-0.481,0-0.872-0.39-0.872-0.871s0.391-0.871,0.872-0.871h11.501
		c0.481,0,0.872,0.39,0.872,0.871S89.764,37.831,89.283,37.831"/>
	<path fill="#0F1139" d="M89.283,33.492H77.782c-0.481,0-0.872-0.391-0.872-0.87c0-0.481,0.391-0.872,0.872-0.872h11.501
		c0.481,0,0.872,0.391,0.872,0.872C90.154,33.102,89.764,33.492,89.283,33.492"/>
	<path fill="#0F1139" d="M89.283,29.154H77.782c-0.481,0-0.872-0.391-0.872-0.872s0.391-0.871,0.872-0.871h11.501
		c0.481,0,0.872,0.39,0.872,0.871S89.764,29.154,89.283,29.154"/>
	<path fill="#FFFFFF" d="M167.027,141.322H70.449c-0.841,0-1.522,0.683-1.522,1.524v36.481h99.626v-36.481
		C168.553,142.005,167.867,141.322,167.027,141.322"/>
	<path fill="#E72E2B" d="M130.215,160.973c0-6.34-5.138-11.479-11.477-11.479c-6.338,0-11.477,5.139-11.477,11.479
		c0,6.338,5.139,11.477,11.477,11.477C125.078,172.449,130.215,167.311,130.215,160.973"/>
	<path fill="#FFFFFF" d="M116.484,165.516c-0.201,0-0.39-0.088-0.518-0.243l-4.73-5.685c-0.236-0.286-0.197-0.711,0.088-0.948
		c0.286-0.238,0.71-0.2,0.949,0.087l4.197,5.046l7.607-9.616c0.231-0.293,0.654-0.342,0.946-0.11
		c0.292,0.231,0.341,0.653,0.11,0.946l-8.123,10.268c-0.125,0.159-0.318,0.253-0.52,0.256H116.484z"/>
	<path fill="#FFFFFF" d="M159.667,134.834H78.198c-0.708,0-1.288-0.579-1.288-1.288V71.917c0-0.708,0.58-1.287,1.288-1.287h81.469
		c0.71,0,1.289,0.579,1.289,1.287v61.629C160.956,134.255,160.377,134.834,159.667,134.834"/>
	<path fill="#FFFFFF" d="M150.012,65.02h-62.16c-6.017,0-10.941-4.924-10.941-10.941c0-6.019,4.924-10.94,10.941-10.94h62.16
		c6.021,0,10.944,4.922,10.944,10.94C160.956,60.096,156.032,65.02,150.012,65.02"/>
	<path fill="#434142" d="M101.679,85.163c0-3.886-3.15-7.035-7.035-7.035c-3.886,0-7.034,3.149-7.034,7.035
		c0,3.885,6.46,12.161,7.034,12.161C95.122,97.324,101.679,89.048,101.679,85.163"/>
	<path fill="#FFFFFF" d="M99.456,85.442c0-2.657-2.155-4.813-4.813-4.813c-2.658,0-4.813,2.155-4.813,4.813
		c0,2.658,2.155,4.813,4.813,4.813C97.301,90.255,99.456,88.101,99.456,85.442"/>
	<rect x="106.651" y="85.32" fill="#E72E2B" width="42.956" height="3.307"/>
	<rect x="106.651" y="92.02" fill="#E72E2B" width="42.956" height="3.31"/>
	<rect x="106.651" y="110.623" fill="#E72E2B" width="42.956" height="3.308"/>
	<rect x="106.651" y="117.324" fill="#E72E2B" width="42.956" height="3.309"/>
	<path fill="#434142" d="M87.609,114.454c0-3.886,3.148-7.035,7.034-7.035c3.885,0,7.034,3.149,7.034,7.035
		c0,3.885-3.148,7.035-7.034,7.035C90.758,121.489,87.609,118.339,87.609,114.454"/>
	<rect x="94.403" y="109.34" fill="#FFFFFF" width="0.892" height="5.301"/>
	<rect x="94.404" y="114.435" fill="#FFFFFF" width="5.302" height="0.894"/>
	<rect x="81.582" y="45.003" fill="#FEC151" width="18.241" height="17.648"/>
	<path fill="#242020" d="M92.183,47.392c0.12,0.002,0.249,0.008,0.34,0.084c0.107,0.09,0.126,0.243,0.187,0.37
		c0.174,0.362,0.648,0.434,1.045,0.503s0.87,0.285,0.867,0.688c0,0.093-0.027,0.188,0.005,0.274c0.022,0.055,0.063,0.1,0.107,0.139
		c0.275,0.242,0.643,0.346,0.961,0.529c0.318,0.182,0.609,0.52,0.535,0.878c-0.034,0.169-0.145,0.316-0.167,0.488
		c-0.034,0.271,0.159,0.513,0.341,0.715c0.337,0.385,0.68,0.769,1.018,1.151c0.135,0.152,0.277,0.319,0.295,0.522
		c0.033,0.368-0.345,0.648-0.424,1.007c-0.097,0.443,0.269,0.846,0.37,1.288c0.139,0.591-0.291,1.252-0.885,1.37
		c-0.138,0.027-0.289,0.031-0.403,0.115c-0.183,0.132-0.188,0.396-0.229,0.62c-0.088,0.481-0.442,0.904-0.898,1.078
		c-0.9,0.341-1.865-0.268-2.825-0.333c-0.584-0.041-1.164,0.125-1.75,0.159c-0.683,0.039-1.376-0.109-1.985-0.42
		c-0.068-0.034-0.137-0.074-0.185-0.133c-0.12-0.146-0.079-0.362-0.106-0.552c-0.08-0.559-0.742-0.802-1.297-0.91
		c-0.556-0.11-1.218-0.284-1.384-0.825c-0.086-0.287,0-0.608-0.102-0.89c-0.126-0.34-0.492-0.531-0.676-0.844
		c-0.257-0.434-0.107-0.991,0.114-1.442c0.222-0.453,0.517-0.895,0.541-1.397c0.016-0.334-0.09-0.66-0.117-0.991
		c-0.027-0.333,0.047-0.711,0.325-0.896c0.337-0.224,0.795-0.063,1.189-0.156c0.926-0.218,1.137-1.678,2.073-1.842
		c0.184-0.032,0.373-0.007,0.559,0c0.5,0.019,0.875-0.155,1.341-0.288C91.357,47.337,91.771,47.385,92.183,47.392"/>
	<path fill="#E72E2B" d="M92.769,56.722c0,0,3.883,1.226,4.47,2.008c0.586,0.781,1.263,4.769,1.263,4.769l-13.46-0.469
		c0,0,0.704-4.144,1.838-5.044c1.132-0.898,3.869-1.094,3.869-1.094L92.769,56.722z"/>
	<path fill="#B3854E" d="M88.262,52.495c0,0-0.28-0.304-0.437-0.138c-0.398,0.426,0.129,0.806,0.447,0.859L88.262,52.495z"/>
	<path fill="#B3854E" d="M87.961,51.256h0.003c-0.007-0.035-0.015-0.07-0.021-0.105c-0.253-1.595,0.888-3.088,2.522-3.238
		c1.361-0.127,2.633,0.771,2.972,2.095c0.124,0.492,0.113,0.979-0.007,1.429c-0.193,0.864-0.362,1.575-0.591,2.144
		c-0.382,0.938-0.428,1.979-0.129,2.946l0.059,0.196c-1.486,1.063-2.342,0.289-2.342,0.289l-0.207-1.3
		c-0.026-0.17-0.166-0.298-0.337-0.307C88.042,55.281,88.105,52.164,87.961,51.256"/>
	<path fill="#242020" d="M92.627,52.191c-0.057-0.136-0.053-0.292-0.116-0.426c-0.159-0.34-0.629-0.368-0.929-0.591
		c-0.371-0.28-0.474-0.863-0.908-1.025c-0.191-0.072-0.425-0.048-0.58-0.182c-0.112-0.099-0.15-0.252-0.213-0.387
		c-0.064-0.135-0.185-0.271-0.332-0.249c-0.066,0.01-0.124,0.052-0.172,0.099c-0.329,0.309-0.366,0.872-0.75,1.106
		c-0.124,0.073-0.268,0.104-0.402,0.157c-0.373,0.151-0.657,0.502-0.729,0.897c-0.288-0.184-0.333-0.604-0.22-0.931
		c0.112-0.325,0.337-0.598,0.496-0.903c0.158-0.306,0.244-0.643,0.393-0.951c0.147-0.311,0.378-0.606,0.706-0.713
		c0.269-0.088,0.564-0.034,0.846-0.077c0.246-0.039,0.473-0.152,0.711-0.226c0.693-0.211,1.487-0.062,2.054,0.392
		c0.2,0.159,0.371,0.352,0.541,0.544c0.379,0.427,0.76,0.854,1.139,1.281c0.181,0.206,0.369,0.419,0.446,0.683
		c0.129,0.449-0.091,0.916-0.303,1.332c-0.104,0.203-0.233,0.428-0.455,0.48C93.428,52.607,92.833,52.683,92.627,52.191"/>
	<path fill="#B3854E" d="M92.708,52.348c0.03-0.098,0.098-0.178,0.185-0.229c0.179-0.108,0.504-0.246,0.771-0.052
		c0.397,0.287-0.146,1.3-0.893,0.958C92.77,53.024,92.546,52.861,92.708,52.348"/>
	<path fill="none" d="M83.341,53.738c0,4.197,3.401,7.6,7.599,7.6c4.197,0,7.6-3.402,7.6-7.6c0-4.195-3.403-7.6-7.6-7.6
		C86.742,46.139,83.341,49.543,83.341,53.738"/>
	<path fill="#E72E2B" d="M134.814,48.03h-29.882c-0.013,0-0.024-0.011-0.024-0.023v-1.12c0-0.014,0.011-0.023,0.024-0.023h29.882
		c0.011,0,0.021,0.01,0.021,0.023v1.12C134.835,48.02,134.825,48.03,134.814,48.03"/>
	<path fill="#E72E2B" d="M134.814,54.743h-29.882c-0.013,0-0.024-0.011-0.024-0.023V53.6c0-0.014,0.011-0.022,0.024-0.022h29.882
		c0.011,0,0.021,0.009,0.021,0.022v1.12C134.835,54.732,134.825,54.743,134.814,54.743"/>
	<path fill="#E72E2B" d="M127.934,51.142h-23.002c-0.013,0-0.024-0.011-0.024-0.022v-1.12c0-0.014,0.011-0.023,0.024-0.023h23.002
		c0.014,0,0.023,0.01,0.023,0.023v1.12C127.957,51.131,127.948,51.142,127.934,51.142"/>
	<path fill="#E72E2B" d="M145.352,51.142h-16.053c-0.012,0-0.023-0.011-0.023-0.022v-1.12c0-0.014,0.011-0.023,0.023-0.023h16.053
		c0.011,0,0.022,0.01,0.022,0.023v1.12C145.374,51.131,145.362,51.142,145.352,51.142"/>
	<path fill="#E72E2B" d="M113.982,59.893c0-0.773-0.627-1.4-1.4-1.4s-1.399,0.627-1.399,1.4s0.625,1.4,1.399,1.4
		S113.982,60.666,113.982,59.893"/>
	<path fill="#E72E2B" d="M121.271,61.293c0.773,0,1.4-0.627,1.4-1.4s-0.626-1.4-1.4-1.4c-0.772,0-1.399,0.627-1.399,1.4
		S120.499,61.293,121.271,61.293"/>
	<path fill="#E72E2B" d="M129.276,61.293c0.773,0,1.4-0.627,1.4-1.4s-0.627-1.4-1.4-1.4s-1.4,0.627-1.4,1.4
		S128.502,61.293,129.276,61.293"/>
	<path fill="#E72E2B" d="M215.169,0h-69.238c-3.404,0-6.163,2.76-6.163,6.162v30.614c0,3.404,2.759,6.162,6.163,6.162h6.776V54.82
		l7.321-11.882h55.141c3.404,0,6.161-2.758,6.161-6.162V6.162C221.33,2.76,218.573,0,215.169,0"/>
	<path fill="#FFFFFF" d="M160.191,17.048c0-3.901-3.162-7.063-7.061-7.063c-3.901,0-7.064,3.162-7.064,7.063
		s3.163,7.063,7.064,7.063C157.029,24.111,160.191,20.949,160.191,17.048"/>
	<path fill="#FFFFFF" d="M189.679,11.836h-21.947c-0.019,0-0.035-0.018-0.035-0.038v-1.777c0-0.021,0.017-0.036,0.035-0.036h21.947
		c0.019,0,0.035,0.016,0.035,0.036v1.777C189.714,11.819,189.697,11.836,189.679,11.836"/>
	<path fill="#FFFFFF" d="M215.139,18.395h-47.407c-0.019,0-0.035-0.016-0.035-0.036v-1.777c0-0.02,0.017-0.036,0.035-0.036h47.407
		c0.022,0,0.038,0.017,0.038,0.036v1.777C215.177,18.379,215.161,18.395,215.139,18.395"/>
	<path fill="#FFFFFF" d="M204.228,23.333h-36.496c-0.019,0-0.035-0.019-0.035-0.038v-1.777c0-0.021,0.017-0.036,0.035-0.036h36.496
		c0.02,0,0.035,0.016,0.035,0.036v1.777C204.263,23.314,204.247,23.333,204.228,23.333"/>
	<path fill="#FFFFFF" d="M161.717,35.364c0-1.227-0.995-2.221-2.221-2.221c-1.227,0-2.222,0.994-2.222,2.221
		c0,1.228,0.995,2.221,2.222,2.221C160.722,37.585,161.717,36.592,161.717,35.364"/>
	<path fill="#FFFFFF" d="M173.281,37.585c1.226,0,2.221-0.993,2.221-2.221c0-1.227-0.995-2.221-2.221-2.221
		c-1.227,0-2.222,0.994-2.222,2.221C171.06,36.592,172.055,37.585,173.281,37.585"/>
	<path fill="#FFFFFF" d="M185.979,37.585c1.229,0,2.221-0.993,2.221-2.221c0-1.227-0.992-2.221-2.221-2.221
		c-1.227,0-2.219,0.994-2.219,2.221C183.76,36.592,184.752,37.585,185.979,37.585"/>
	
		<polygon fill="none" stroke="#E72E2B" stroke-width="0.593" stroke-linecap="round" stroke-linejoin="round" stroke-miterlimit="10" points="
		157.136,12.954 147.355,16.3 152.165,17.637 153.149,22.449 	"/>
	
		<line fill="none" stroke="#E72E2B" stroke-width="0.593" stroke-linecap="round" stroke-linejoin="round" stroke-miterlimit="10" x1="152.165" y1="17.637" x2="157.136" y2="12.954"/>
</g>
</svg>
