<?xml version="1.0" encoding="utf-8"?>
<!-- Generator: Adobe Illustrator 25.2.1, SVG Export Plug-In . SVG Version: 6.00 Build 0)  -->
<svg version="1.1" id="Layer_1" xmlns="http://www.w3.org/2000/svg" xmlns:xlink="http://www.w3.org/1999/xlink" x="0px" y="0px"
	 viewBox="0 0 120 120" style="enable-background:new 0 0 120 120;" xml:space="preserve">
<style type="text/css">
	.st0{fill:#E42525;}
	.st1{fill:#FFFFFF;}
</style>
<circle class="st0" cx="60" cy="60" r="59.3"/>
<g>
	<path class="st1" d="M59.8,59.3c4.8,0,8.9-1.7,12.2-5.1c3.4-3.4,5.1-7.5,5.1-12.2c0-4.8-1.7-8.9-5.1-12.2
		c-3.4-3.4-7.5-5.1-12.2-5.1c-4.8,0-8.9,1.7-12.2,5.1c-3.4,3.4-5.1,7.5-5.1,12.2c0,4.8,1.7,8.9,5.1,12.2
		C50.9,57.6,55,59.3,59.8,59.3z"/>
	<path class="st1" d="M90.1,80c-0.1-1.4-0.3-2.9-0.6-4.5c-0.3-1.6-0.7-3.2-1.1-4.6c-0.5-1.5-1.1-2.9-1.9-4.3
		c-0.8-1.4-1.8-2.7-2.8-3.7c-1.1-1.1-2.5-1.9-4.1-2.6c-1.6-0.6-3.3-0.9-5.2-0.9c-0.7,0-1.4,0.3-2.8,1.2c-0.8,0.5-1.8,1.2-2.9,1.9
		c-0.9,0.6-2.2,1.2-3.8,1.7c-1.5,0.5-3.1,0.7-4.6,0.7s-3.1-0.3-4.6-0.7c-1.6-0.5-2.8-1.1-3.8-1.7c-1.1-0.7-2.1-1.3-2.9-1.9
		c-1.4-0.9-2.1-1.2-2.8-1.2c-1.9,0-3.6,0.3-5.2,0.9c-1.6,0.6-2.9,1.5-4.1,2.6c-1.1,1-2,2.3-2.8,3.7c-0.8,1.4-1.4,2.8-1.9,4.3
		c-0.4,1.4-0.8,2.9-1.1,4.6c-0.3,1.6-0.5,3.1-0.6,4.5c-0.1,1.4-0.1,2.8-0.1,4.2c0,3.8,1.2,6.8,3.5,9c2.3,2.2,5.4,3.3,9.1,3.3h34.6
		c3.7,0,6.8-1.1,9.1-3.3c2.4-2.2,3.5-5.3,3.5-9C90.2,82.8,90.2,81.4,90.1,80z"/>
</g>
</svg>
