<?xml version="1.0" encoding="utf-8"?>
<!-- Generator: Adobe Illustrator 16.0.0, SVG Export Plug-In . SVG Version: 6.00 Build 0)  -->
<!DOCTYPE svg PUBLIC "-//W3C//DTD SVG 1.1//EN" "http://www.w3.org/Graphics/SVG/1.1/DTD/svg11.dtd">
<svg version="1.1" id="Layer_1" xmlns="http://www.w3.org/2000/svg" xmlns:xlink="http://www.w3.org/1999/xlink" x="0px" y="0px"
	 width="60px" height="80px" viewBox="74 -15 60 80" enable-background="new 74 -15 60 80" xml:space="preserve">
<g>
	<path fill="#2D80BD" d="M104.234,65c-12.476,0-22.247-4.541-22.247-10.338c0-5.795,9.771-10.336,22.247-10.336
		c12.474,0,22.248,4.541,22.248,10.336C126.481,60.459,116.708,65,104.234,65z M104.234,46.408c-12.063,0-20.166,4.269-20.166,8.254
		c0,3.988,8.102,8.257,20.166,8.257c12.063,0,20.165-4.269,20.165-8.257C124.398,50.677,116.296,46.408,104.234,46.408z"/>
	<path fill="#2D80BD" d="M133.83,11.168c-1.336-11.171-10.141-18.323-11.653-19.51c-2.044-1.608-8.646-6.644-18.409-6.658
		C93.63-15.014,86.599-9.602,83.727-6.966c-1.797,1.651-8.402,8.12-9.556,17.902c-2.122,18.051,15.762,35.051,29.556,48.167
		c0.01,0.006,0.034,0.031,0.041,0.035c0.006-0.006,0.031-0.032,0.037-0.035C118.539,45.106,135.914,28.594,133.83,11.168z
		 M103.768,39.859c-14.158,0-25.635-11.307-25.635-25.25c0-13.944,11.479-25.249,25.635-25.249
		c14.159,0,25.633,11.305,25.633,25.249C129.401,28.553,117.927,39.859,103.768,39.859z"/>
	<path fill="#B82025" d="M118.268,22.84c-1.544,6.084-7.825,12.657-14.866,12.657C96.375,35.5,90.04,28.953,88.54,22.84
		C85.277,9.539,103.743-6.505,103.743-6.507C106.655-2.322,121.317,10.824,118.268,22.84"/>
	<path fill="none" stroke="#B82025" stroke-width="0.524" stroke-miterlimit="10" d="M118.268,22.84
		c-1.544,6.084-7.825,12.657-14.866,12.657C96.375,35.5,90.04,28.953,88.54,22.84C85.277,9.539,103.743-6.505,103.743-6.507
		C106.655-2.322,121.317,10.824,118.268,22.84z"/>
	
		<linearGradient id="SVGID_1_" gradientUnits="userSpaceOnUse" x1="-690.5986" y1="-74" x2="-690.3123" y2="-74" gradientTransform="matrix(34.5425 0 0 34.5425 23960.4531 2581.4189)">
		<stop  offset="0" style="stop-color:#B82025"/>
		<stop  offset="0.2227" style="stop-color:#B82025"/>
		<stop  offset="0.2284" style="stop-color:#BA2A28"/>
		<stop  offset="0.2598" style="stop-color:#C45440"/>
		<stop  offset="0.2951" style="stop-color:#CE755E"/>
		<stop  offset="0.3331" style="stop-color:#D7907A"/>
		<stop  offset="0.3744" style="stop-color:#E0AA97"/>
		<stop  offset="0.42" style="stop-color:#E8C2B3"/>
		<stop  offset="0.4716" style="stop-color:#EFD6CB"/>
		<stop  offset="0.5318" style="stop-color:#F5E6DF"/>
		<stop  offset="0.6062" style="stop-color:#FAF2EF"/>
		<stop  offset="0.7106" style="stop-color:#FEFBFA"/>
		<stop  offset="1" style="stop-color:#FFFFFF"/>
	</linearGradient>
	<path fill="url(#SVGID_1_)" d="M115.111,18.477c0.056,0.467,0.103,1.03,0.103,1.664c0,1.18-0.159,2.603-0.696,4.108
		c-2.119,5.901-8.057,7.639-8.81,7.851l-0.154-0.55c0.704-0.193,6.436-1.903,8.423-7.494c0.511-1.432,0.666-2.789,0.666-3.917
		c0-0.606-0.047-1.146-0.102-1.594L115.111,18.477z"/>
	<path fill="#2D80BD" d="M104.046,62.122c-10.463,0-18.354-3.213-18.354-7.476c0-4.259,7.891-7.472,18.354-7.472
		c10.461,0,18.352,3.213,18.352,7.472C122.398,58.909,114.508,62.122,104.046,62.122z M104.046,48.778
		c-9.869,0-16.749,3.094-16.749,5.868c0,2.778,6.88,5.869,16.749,5.869c9.868,0,16.746-3.091,16.746-5.869
		C120.792,51.872,113.914,48.778,104.046,48.778z"/>
</g>
</svg>
