<svg id="Layer_1" data-name="Layer 1" xmlns="http://www.w3.org/2000/svg" viewBox="0 0 117.83 117.83"><defs><style>.cls-1{fill:#e42525;}.cls-2{fill:#fff;}</style></defs><circle class="cls-1" cx="58.91" cy="58.91" r="58.91"/><path class="cls-2" d="M51,65a1.5,1.5,0,0,0-1.5-1.5H44.29a1.5,1.5,0,0,0-1.5,1.5v5.24a1.5,1.5,0,0,0,1.5,1.5h5.24a1.5,1.5,0,0,0,1.5-1.5V65Z" transform="translate(-1.09 -1.09)"/><path class="cls-2" d="M64.12,65a1.5,1.5,0,0,0-1.5-1.5H57.38a1.5,1.5,0,0,0-1.5,1.5v5.24a1.5,1.5,0,0,0,1.5,1.5h5.24a1.5,1.5,0,0,0,1.5-1.5Z" transform="translate(-1.09 -1.09)"/><path class="cls-2" d="M77.21,65a1.5,1.5,0,0,0-1.5-1.5H70.47A1.5,1.5,0,0,0,69,65v5.24a1.5,1.5,0,0,0,1.5,1.5h5.24a1.5,1.5,0,0,0,1.5-1.5Z" transform="translate(-1.09 -1.09)"/><path class="cls-2" d="M51,78.07a1.5,1.5,0,0,0-1.5-1.5H44.29a1.5,1.5,0,0,0-1.5,1.5v5.24a1.5,1.5,0,0,0,1.5,1.5h5.24a1.5,1.5,0,0,0,1.5-1.5V78.07Z" transform="translate(-1.09 -1.09)"/><path class="cls-2" d="M64.12,78.07a1.5,1.5,0,0,0-1.5-1.5H57.38a1.5,1.5,0,0,0-1.5,1.5v5.24a1.5,1.5,0,0,0,1.5,1.5h5.24a1.5,1.5,0,0,0,1.5-1.5Z" transform="translate(-1.09 -1.09)"/><path class="cls-2" d="M77.21,78.07a1.5,1.5,0,0,0-1.5-1.5H70.47a1.5,1.5,0,0,0-1.5,1.5v5.24a1.5,1.5,0,0,0,1.5,1.5h5.24a1.5,1.5,0,0,0,1.5-1.5V78.07Z" transform="translate(-1.09 -1.09)"/><path class="cls-2" d="M86.58,35.85v8A6.54,6.54,0,0,1,80,50.39H75.9a6.57,6.57,0,0,1-6.59-6.53v-8H50.69v8a6.57,6.57,0,0,1-6.59,6.53H40a6.54,6.54,0,0,1-6.55-6.53v-8a6,6,0,0,0-5.76,5.93V88.67a6,6,0,0,0,5.93,6H86.41a6,6,0,0,0,5.93-6V41.78A6,6,0,0,0,86.58,35.85Zm-1.92,49.9a2.56,2.56,0,0,1-2.56,2.56H37.79a2.57,2.57,0,0,1-2.57-2.56V61.53A2.57,2.57,0,0,1,37.79,59H82.1a2.56,2.56,0,0,1,2.56,2.57V85.75Z" transform="translate(-1.09 -1.09)"/><path class="cls-2" d="M40,46.1H44a2.25,2.25,0,0,0,2.25-2.25V30.73A2.24,2.24,0,0,0,44,28.49H40a2.24,2.24,0,0,0-2.24,2.24V43.85A2.24,2.24,0,0,0,40,46.1Z" transform="translate(-1.09 -1.09)"/><path class="cls-2" d="M75.85,46.1h4.08a2.25,2.25,0,0,0,2.25-2.25V30.73a2.24,2.24,0,0,0-2.25-2.24H75.85a2.24,2.24,0,0,0-2.25,2.24V43.85A2.25,2.25,0,0,0,75.85,46.1Z" transform="translate(-1.09 -1.09)"/></svg>