<?xml version="1.0" encoding="utf-8"?>
<!-- Generator: Adobe Illustrator 16.0.0, SVG Export Plug-In . SVG Version: 6.00 Build 0)  -->
<!DOCTYPE svg PUBLIC "-//W3C//DTD SVG 1.1//EN" "http://www.w3.org/Graphics/SVG/1.1/DTD/svg11.dtd">
<svg version="1.1" id="Layer_1" xmlns="http://www.w3.org/2000/svg" xmlns:xlink="http://www.w3.org/1999/xlink" x="0px" y="0px"
	 width="120px" height="120px" viewBox="0 0 120 120" enable-background="new 0 0 120 120" xml:space="preserve">
<path fill="#2C80BB" d="M105.664,83.541l-2.889-3.045c-0.33-0.348-0.881-0.362-1.229-0.033l-21.873,20.744
	c-0.347,0.329-0.363,0.883-0.033,1.23l2.887,3.043c0.33,0.35,0.886,0.361,1.23,0.033l21.875-20.744
	C105.979,84.441,105.993,83.889,105.664,83.541z M103.448,84.803c-0.597,0.564-1.539,0.541-2.104-0.057
	c-0.564-0.596-0.541-1.539,0.057-2.105c0.599-0.564,1.541-0.541,2.106,0.055C104.073,83.293,104.047,84.236,103.448,84.803z"/>
<path fill="#2C80BB" d="M101,80.12l-21.76,20.63c-0.29-0.08-0.59-0.17-0.891-0.27c-2.33-0.75-4.59-1.021-8.859-1.19L46.77,98.6
	C42,98.36,33.5,94.25,31.06,92.35l-8.84-6.659l-1.5-1.16l-10.35-8.12c-2.68-2.101-3.3-5.79-1.38-8.22l0.07-0.11
	c1.78-2.25,5.09-2.64,7.71-1.021l0.03,0.011c0.08,0.05,0.16,0.109,0.24,0.17l21.73,14.55c3.28,1.72,6.01,1.94,9.25,1.79l16.96-0.22
	c2.619-0.051,4.739-2.03,4.729-4.41L69.7,78.85c0-2.38-2.141-4.26-4.771-4.21L61.89,74.7L44.23,74.89
	c-3.42,0.051-6.21-2.43-6.25-5.529v-0.13c-0.05-3.101,2.69-5.65,6.1-5.69l26.16-0.28c9.8-0.12,11.149,1.58,18.979,7.67l10.54,8.19
	C100.2,79.45,100.61,79.78,101,80.12z"/>
<path fill="#2C80BB" d="M14.83,4.58c0-2.53,2.05-4.58,4.58-4.58C21.94,0,24,2.05,24,4.58c0,2.53-2.06,4.59-4.59,4.59
	C16.88,9.17,14.83,7.11,14.83,4.58z"/>
<path fill="#2C80BB" d="M17.08,25.38v14.24c0,1.57-1.28,2.84-2.85,2.84v14.57c0,1.57-1.27,2.85-2.84,2.85
	c-1.57,0-2.85-1.28-2.85-2.85c0,1.57-1.28,2.85-2.85,2.85c-1.56,0-2.84-1.28-2.84-2.85V42.46C1.28,42.46,0,41.19,0,39.62V25.38
	c0-1.57,1.28-2.84,2.85-2.84h3.92c-0.03,0.06-0.02,0.14,0.03,0.24l1.38,2.48c0.11,0.2,0.29,0.2,0.4,0l1.38-2.48
	c0.05-0.09,0.06-0.17,0.02-0.23c-0.46,0.12-0.94,0.18-1.44,0.18c-3.34,0-6.05-2.71-6.05-6.05c0-3.34,2.71-6.05,6.05-6.05
	s6.05,2.71,6.05,6.05c0,2.83-1.94,5.2-4.56,5.86h4.2C15.8,22.54,17.08,23.81,17.08,25.38z"/>
<path fill="#2C80BB" d="M35.25,25.38v14.24c0,1.57-1.29,2.84-2.85,2.84v14.57c0,1.57-1.28,2.85-2.85,2.85
	c-1.57,0-2.85-1.28-2.85-2.85c0,1.57-1.27,2.85-2.84,2.85c-1.57,0-2.85-1.28-2.85-2.85V42.46c-1.57,0-2.85-1.27-2.85-2.84V25.38
	c0-1.57,1.28-2.84,2.85-2.84h3.93c-0.04,0.06-0.03,0.14,0.02,0.24l1.38,2.48c0.11,0.2,0.29,0.2,0.4,0l1.38-2.48
	c0.05-0.1,0.06-0.17,0.03-0.23c-0.46,0.12-0.95,0.18-1.45,0.18c-3.34,0-6.05-2.71-6.05-6.05c0-3.34,2.71-6.05,6.05-6.05
	c3.34,0,6.05,2.71,6.05,6.05c0,2.83-1.94,5.2-4.56,5.86h4.21C33.96,22.54,35.24,23.81,35.25,25.38z"/>
<path fill="#2C80BB" d="M72.27,25.38v14.24c0,1.57-1.279,2.84-2.84,2.84v14.57c0,1.57-1.279,2.85-2.85,2.85s-2.85-1.28-2.85-2.85
	c0,1.57-1.28,2.85-2.851,2.85c-1.57,0-2.84-1.28-2.84-2.85V42.46c-1.57,0-2.85-1.27-2.85-2.84V25.38c0-1.57,1.28-2.84,2.85-2.84
	h3.92c-0.03,0.06-0.02,0.14,0.03,0.24l1.38,2.48c0.11,0.2,0.29,0.2,0.399,0l1.381-2.48c0.05-0.09,0.06-0.17,0.02-0.23
	c-0.46,0.12-0.939,0.18-1.439,0.18c-3.34,0-6.05-2.71-6.05-6.05c0-3.34,2.71-6.05,6.05-6.05c3.34,0,6.05,2.71,6.05,6.05
	c0,2.83-1.94,5.2-4.561,5.86h4.2C70.99,22.54,72.27,23.81,72.27,25.38z"/>
<path fill="#2C80BB" d="M53.41,25.01v14.23c0,1.57-1.28,2.85-2.85,2.85v14.57c0,1.57-1.28,2.85-2.84,2.85
	c-1.57,0-2.85-1.28-2.85-2.85c0,1.57-1.28,2.85-2.85,2.85s-2.84-1.28-2.84-2.85V42.09c-1.58,0-2.85-1.28-2.85-2.85V25.01
	c0-1.57,1.28-2.84,2.85-2.84h3.92c-0.03,0.06-0.02,0.14,0.03,0.24l1.38,2.48c0.11,0.2,0.29,0.2,0.4,0l1.38-2.48
	c0.05-0.09,0.06-0.17,0.02-0.23c-0.46,0.12-0.94,0.18-1.44,0.18c-3.34,0-6.05-2.71-6.05-6.05s2.71-6.05,6.05-6.05
	c3.34,0,6.05,2.71,6.05,6.05c0,2.83-1.94,5.2-4.56,5.86h4.2C52.13,22.17,53.41,23.44,53.41,25.01z"/>
<path fill="#2C80BB" d="M48.27,4.58c0-2.53,2.05-4.58,4.58-4.58c2.54,0,4.59,2.05,4.59,4.58c0,2.53-2.05,4.59-4.59,4.59
	C50.32,9.17,48.27,7.11,48.27,4.58z"/>
<path fill="#2C80BB" d="M36.14,9.17c-2.54,0-4.59-2.06-4.59-4.59C31.55,2.05,33.6,0,36.14,0c2.53,0,4.58,2.05,4.58,4.58
	C40.72,7.11,38.67,9.17,36.14,9.17z"/>
<path fill="#2C80BB" d="M119.762,94.678c0.33,0.346,0.315,0.9-0.031,1.23l-25.151,23.854c-0.349,0.33-0.902,0.314-1.229-0.031
	l-10.724-11.305c-0.328-0.348-0.313-0.9,0.032-1.23l25.152-23.854c0.348-0.33,0.901-0.316,1.229,0.031L119.762,94.678z"/>
</svg>
