<?xml version="1.0" encoding="utf-8"?>
<!-- Generator: Adobe Illustrator 16.0.0, SVG Export Plug-In . SVG Version: 6.00 Build 0)  -->
<!DOCTYPE svg PUBLIC "-//W3C//DTD SVG 1.1//EN" "http://www.w3.org/Graphics/SVG/1.1/DTD/svg11.dtd">
<svg version="1.1" id="Layer_1" xmlns="http://www.w3.org/2000/svg" xmlns:xlink="http://www.w3.org/1999/xlink" x="0px" y="0px"
	 width="227px" height="200px" viewBox="0 0 227 200" enable-background="new 0 0 227 200" xml:space="preserve">
<g>
	<path fill="#BDBEC0" d="M216.888,193.357c0,3.669-41.344,6.643-92.35,6.643c-51.002,0-92.351-2.974-92.351-6.643
		c0-3.668,41.349-6.642,92.351-6.642C175.544,186.716,216.888,189.689,216.888,193.357"/>
	<path fill="#A3CB61" d="M131.179,174.795c3.596-2.53,7.808-20.165,8.059-30.67c0.13-5.381,1.722-7.622,3.124-9.599
		c1.342-1.891,2.5-3.523,1.824-7.272c-1.29-7.164,2.102-10.256,2.135-10.287l-0.393-0.447c-0.15,0.132-3.681,3.321-2.328,10.84
		c0.631,3.504-0.407,4.969-1.725,6.822c-1.379,1.945-3.098,4.368-3.23,9.93c-0.271,11.273-4.577,27.923-7.808,30.197
		L131.179,174.795z"/>
	<path fill="#A3CB61" d="M123.637,169.651c-0.34-0.771-0.693-1.566-1.091-2.406c-2.055-4.339-3.876-5.054-6.892-6.237
		c-0.736-0.29-1.572-0.617-2.491-1.03c-4.32-1.94-3.483-4.803-2.745-7.328c0.104-0.354,0.206-0.705,0.295-1.054
		c0.38-1.486-0.35-2.23-1.455-3.357c-0.822-0.839-1.844-1.882-2.632-3.529c-0.863-1.805-0.423-2.771,0.098-3.264
		c1.096-1.04,3.622-0.849,6.01,0.454c0.742,0.405,1.353,1.045,1.998,1.722c1.521,1.593,3.414,3.575,8.203,3.599
		c2.732,0.012,4.227,0.389,5.002,1.26c0.879,0.987,0.714,2.466,0.483,4.513c-0.079,0.709-0.168,1.511-0.224,2.377
		c-0.324,5.173,2.729,8.903,2.759,8.94c1.824,2.172,4.07,6.679,3.101,9.452c-0.407,1.163-1.314,1.896-2.703,2.175
		c-0.551,0.112-1.058,0.165-1.521,0.165C126.481,176.102,125.258,173.324,123.637,169.651 M112.449,142.423
		c-2.131-1.164-4.416-1.398-5.315-0.545c-0.684,0.646-0.361,1.756,0.029,2.574c0.746,1.558,1.689,2.521,2.521,3.369
		c1.157,1.181,2.07,2.111,1.606,3.922c-0.09,0.354-0.194,0.713-0.301,1.072c-0.734,2.516-1.43,4.89,2.42,6.62
		c0.901,0.407,1.73,0.731,2.462,1.019c3.047,1.195,5.058,1.983,7.215,6.536c0.401,0.847,0.755,1.647,1.094,2.421
		c1.862,4.22,2.985,6.766,7.057,5.942c1.167-0.236,1.927-0.837,2.257-1.788c0.855-2.444-1.188-6.725-2.994-8.873
		c-0.133-0.159-3.236-3.943-2.895-9.359c0.053-0.882,0.145-1.692,0.224-2.407c0.213-1.894,0.366-3.261-0.336-4.051
		c-0.643-0.723-2.048-1.05-4.56-1.062c-5.04-0.023-7.032-2.107-8.631-3.781C113.662,143.361,113.108,142.784,112.449,142.423"/>
	<path fill="#A3CB61" d="M131.289,179.537l0.596-0.031c-0.03-0.559-0.778-13.719-6.063-17.571
		c-5.798-4.225-7.625-8.766-8.494-11.814c-1.029-3.592-6.249-4.551-6.471-4.591l-0.103,0.588c0.051,0.008,5.075,0.935,5.998,4.166
		c0.896,3.134,2.773,7.8,8.719,12.134C130.528,166.103,131.283,179.403,131.289,179.537"/>
	<path fill="#A3CB61" d="M130.284,182.498c-1.244-0.62-1.2-3.109-1.129-6.878c0.085-4.762,0.203-11.281-2.29-17.282
		c-2.647-6.373-0.286-8.234,1.998-10.036c2.559-2.017,4.976-3.922,0.336-12.522c-2.128-3.951-2.806-6.621-2.128-8.407
		c0.672-1.766,2.553-2.454,4.542-3.183c3.437-1.258,7.33-2.684,6.826-9.955c-0.153-2.229,0.109-3.6,0.825-4.313
		c0.778-0.776,1.928-0.692,3.254-0.595c2.011,0.146,4.283,0.313,6.264-2.272c0.206-0.646,2.102-6.413,4.368-7.398
		c0.475-0.208,0.94-0.203,1.385,0.009c1.565,0.747,2.474,1.635,2.777,2.712c0.527,1.874-0.847,3.986-2.435,6.434
		c-2.5,3.846-5.329,8.205-2.394,13.391c3.882,6.858,1.833,9.258-1.009,12.58c-1.624,1.904-3.466,4.06-4.698,7.578
		c-0.99,2.829,0.699,5.527,2.335,8.136c2.049,3.273,4.171,6.657-0.295,9.595c-7.377,4.854-14.666,20.702-14.74,20.861l-0.029,0.066
		l-0.056,0.045c-1.359,1.065-2.35,1.575-3.096,1.575C130.669,182.637,130.466,182.589,130.284,182.498 M148.49,159.59
		c3.979-2.615,2.19-5.472,0.118-8.778c-1.63-2.603-3.479-5.551-2.391-8.649c1.268-3.624,3.147-5.826,4.808-7.769
		c2.782-3.255,4.618-5.403,0.94-11.9c-3.113-5.5-0.051-10.219,2.41-14.008c1.513-2.325,2.815-4.334,2.361-5.947
		c-0.254-0.903-1.059-1.669-2.458-2.336c-0.286-0.139-0.578-0.139-0.894,0c-2.102,0.915-4.032,7.02-4.05,7.079l-0.015,0.051
		l-0.032,0.041c-2.185,2.886-4.751,2.698-6.812,2.547c-1.232-0.09-2.208-0.162-2.794,0.423c-0.578,0.574-0.79,1.835-0.651,3.851
		c0.536,7.718-3.762,9.291-7.216,10.555c-1.939,0.711-3.613,1.323-4.188,2.834c-0.613,1.614,0.054,4.128,2.096,7.916
		c4.875,9.04,2.146,11.191-0.492,13.272c-2.207,1.74-4.291,3.384-1.815,9.339c2.541,6.114,2.42,12.705,2.331,17.521
		c-0.059,3.286-0.105,5.883,0.802,6.334c0.531,0.264,1.545-0.183,3.019-1.328C134.157,179.354,141.136,164.429,148.49,159.59"/>
	<path fill="#A3CB61" d="M118.635,113.421c3.755-1.288,2.977,5.951,4.563,11.307s17.655,2.338,10.911,15.748
		c-6.746,13.413,8.53,4.486,3.968,16.189c-4.563,11.704-0.398,24.222-5.358,21.037c-4.958-3.183-2.786-17.922-7.943-19.671
		c-5.155-1.754-5.998-3.797-0.891-8.557c5.105-4.762-13.382-9.486-8.818-19.101C119.628,120.761,114.295,114.908,118.635,113.421"/>
	<path fill="#FFFFFF" d="M130.991,176.934c0.472-2.003,4.507-19.635,0.743-21.768c-3.319-1.877-3.236-9.185-2.718-16.084
		c0.457-6.107-7.387-8.964-7.72-9.08l-0.2,0.561c0.076,0.027,7.749,2.822,7.324,8.476c-0.53,7.085-0.586,14.604,3.019,16.646
		c2.858,1.618,0.227,15.788-1.029,21.113L130.991,176.934z"/>
	<g>
		<defs>
			<polygon id="SVGID_1_" points="122.452,170.656 127.813,190.998 139.797,190.998 145.163,170.656 			"/>
		</defs>
		<clipPath id="SVGID_2_">
			<use xlink:href="#SVGID_1_"  overflow="visible"/>
		</clipPath>
		
			<linearGradient id="SVGID_3_" gradientUnits="userSpaceOnUse" x1="-1480.7588" y1="737.3477" x2="-1479.25" y2="737.3477" gradientTransform="matrix(6.1211 -26.3869 -26.3869 -6.1211 28646.6875 -34346.8359)">
			<stop  offset="0" style="stop-color:#D0CBC8"/>
			<stop  offset="1" style="stop-color:#FEF7E3"/>
		</linearGradient>
		<polygon clip-path="url(#SVGID_2_)" fill="url(#SVGID_3_)" points="117.975,189.959 123.613,165.657 149.639,171.695 144,195.997 
					"/>
	</g>
	<g>
		<defs>
			<path id="SVGID_4_" d="M122.452,170.656l5.361,20.342h5.542c0-18.127,11.808-20.342,11.808-20.342H122.452z"/>
		</defs>
		<clipPath id="SVGID_5_">
			<use xlink:href="#SVGID_4_"  overflow="visible"/>
		</clipPath>
		
			<linearGradient id="SVGID_6_" gradientUnits="userSpaceOnUse" x1="-1498.2368" y1="733.5713" x2="-1496.7275" y2="733.5713" gradientTransform="matrix(15.0474 0 0 -15.0474 22667.0371 11219.1582)">
			<stop  offset="0" style="stop-color:#D0CBC8"/>
			<stop  offset="1" style="stop-color:#FEF7E3"/>
		</linearGradient>
		<rect x="122.452" y="170.656" clip-path="url(#SVGID_5_)" fill="url(#SVGID_6_)" width="22.711" height="20.342"/>
	</g>
	<path fill="#727576" d="M107.045,194.966H15.93c-3.199,0-5.818-2.619-5.818-5.818V5.818C10.112,2.619,12.731,0,15.93,0h91.115
		c3.199,0,5.818,2.619,5.818,5.818v183.329C112.864,192.347,110.245,194.966,107.045,194.966"/>
	<path fill="#939598" d="M118.293,5.258v184.449c0,2.892-2.367,5.259-5.258,5.259H20.799c-2.893,0-5.257-2.367-5.257-5.259V5.258
		C15.542,2.365,17.907,0,20.799,0h92.236C115.926,0,118.293,2.365,118.293,5.258"/>
	<path fill="#727576" d="M81.975,7.381h-26.71c-0.571,0-1.039-0.469-1.039-1.041c0-0.57,0.468-1.039,1.039-1.039h26.71
		c0.572,0,1.039,0.469,1.039,1.039C83.014,6.912,82.547,7.381,81.975,7.381"/>
	<path fill="#727576" d="M50.522,7.381L50.522,7.381c-0.572,0-1.039-0.469-1.039-1.041c0-0.57,0.467-1.039,1.039-1.039
		c0.571,0,1.037,0.469,1.037,1.039C51.559,6.912,51.093,7.381,50.522,7.381"/>
	<path fill="#BDBEC0" d="M74.893,184.192c0,1.84-0.743,3.508-1.944,4.72c-1.214,1.226-2.898,1.983-4.759,1.983
		c-3.703,0-6.704-3.002-6.704-6.703c0-2.38,1.241-4.468,3.111-5.657c1.037-0.66,2.271-1.045,3.593-1.045
		C71.892,177.49,74.893,180.491,74.893,184.192"/>
	<rect x="21.696" y="12.011" fill="#BDBEC0" width="91.116" height="162.185"/>
	<path fill="#727576" d="M72.949,188.912c-1.214,1.226-2.898,1.983-4.759,1.983c-3.702,0-6.704-3.002-6.704-6.703
		c0-2.38,1.241-4.468,3.111-5.657C65.253,181.389,67.202,186.162,72.949,188.912"/>
	<path fill="#727576" d="M111.5,31.4h-0.214H69.102H26.705c-0.721,0-1.311,0.764-1.311,1.698v54.214c0,0.933,0.59,1.696,1.311,1.696
		h42.397h42.185h0.214c0.722,0,1.312-0.764,1.312-1.696V33.099C112.812,32.164,112.222,31.4,111.5,31.4"/>
	<path fill="#F2EFED" d="M143.736,28.215v54.214c0,0.933-0.764,1.694-1.698,1.694H32.248c-0.932,0-1.695-0.762-1.695-1.694V28.215
		c0-0.935,0.764-1.698,1.695-1.698h109.79C142.972,26.517,143.736,27.28,143.736,28.215"/>
	<path fill="#E72E2B" d="M143.736,28.215v54.214c0,0.933-0.888,1.696-1.975,1.696H87.144V26.517h54.617
		C142.848,26.517,143.736,27.28,143.736,28.215"/>
	<path fill="#F2EFED" d="M113.956,47.561H94.631c-0.676,0-1.23-0.555-1.23-1.229c0-0.678,0.555-1.232,1.23-1.232h19.324
		c0.676,0,1.23,0.555,1.23,1.232C115.186,47.006,114.631,47.561,113.956,47.561"/>
	<path fill="#F2EFED" d="M109.033,51.252H94.631c-0.676,0-1.23-0.554-1.23-1.23s0.555-1.23,1.23-1.23h14.401
		c0.677,0,1.231,0.554,1.231,1.23S109.709,51.252,109.033,51.252"/>
	<path fill="#F2EFED" d="M94.885,33.772c0.463-0.61,1.074-0.916,1.815-0.916s1.345,0.306,1.806,0.906
		c0.464,0.604,0.691,1.354,0.691,2.252c0,0.899-0.228,1.649-0.691,2.252c-0.461,0.604-1.064,0.908-1.806,0.908
		s-1.353-0.305-1.815-0.908c-0.461-0.603-0.688-1.353-0.688-2.252C94.197,35.125,94.424,34.375,94.885,33.772 M98.036,34.192
		c-0.349-0.489-0.794-0.734-1.335-0.734s-0.985,0.245-1.337,0.734c-0.348,0.487-0.521,1.101-0.521,1.822
		c0,0.734,0.174,1.345,0.515,1.834c0.35,0.48,0.794,0.724,1.344,0.724c0.549,0,0.995-0.243,1.335-0.724
		c0.35-0.489,0.523-1.1,0.523-1.834C98.559,35.293,98.385,34.68,98.036,34.192"/>
	<path fill="#F2EFED" d="M104.18,33.616c0.409,0.496,0.619,1.204,0.619,2.103c0.035,1.902-0.995,3.474-2.653,3.456
		c-0.496,0-0.933-0.122-1.291-0.376v-0.617c0.384,0.261,0.795,0.391,1.24,0.391c1.448,0,2.05-1.317,2.076-2.608
		c-0.323,0.549-0.96,0.907-1.789,0.907c-0.55,0-1.021-0.184-1.404-0.542c-0.376-0.365-0.567-0.837-0.567-1.404
		c0-0.604,0.2-1.091,0.592-1.484c0.402-0.392,0.899-0.584,1.484-0.584C103.202,32.856,103.77,33.108,104.18,33.616 M101.465,33.877
		c-0.28,0.271-0.418,0.62-0.418,1.048c0,0.418,0.138,0.75,0.427,1.003c0.289,0.254,0.637,0.376,1.065,0.376
		c0.357,0,0.688-0.113,0.995-0.34c0.305-0.228,0.506-0.508,0.619-0.848c-0.104-1.047-0.681-1.658-1.632-1.658
		C102.104,33.458,101.754,33.598,101.465,33.877"/>
	<path fill="#F2EFED" d="M106.091,35.1c0.174-0.175,0.471-0.175,0.646,0c0.174,0.174,0.174,0.471,0,0.646
		c-0.175,0.174-0.472,0.174-0.646,0C105.917,35.57,105.917,35.273,106.091,35.1 M106.091,38.345c0.174-0.174,0.471-0.174,0.646,0
		c0.174,0.176,0.174,0.471,0,0.647c-0.175,0.174-0.472,0.174-0.646,0C105.917,38.815,105.917,38.521,106.091,38.345"/>
	<polygon fill="#F2EFED" points="109.11,39.07 109.11,33.658 107.741,34.444 107.741,33.825 109.18,32.962 109.748,32.962 
		109.748,39.07 	"/>
	<path fill="#F2EFED" d="M111.973,33.772c0.461-0.61,1.073-0.916,1.814-0.916s1.343,0.306,1.806,0.906
		c0.463,0.604,0.689,1.354,0.689,2.252c0,0.899-0.227,1.649-0.689,2.252c-0.463,0.604-1.064,0.908-1.806,0.908
		s-1.354-0.305-1.814-0.908c-0.463-0.603-0.689-1.353-0.689-2.252C111.284,35.125,111.51,34.375,111.973,33.772 M115.122,34.192
		c-0.347-0.489-0.793-0.734-1.334-0.734s-0.986,0.245-1.337,0.734c-0.348,0.487-0.521,1.101-0.521,1.822
		c0,0.734,0.174,1.345,0.514,1.834c0.35,0.48,0.795,0.724,1.345,0.724c0.548,0,0.994-0.243,1.334-0.724
		c0.351-0.489,0.524-1.1,0.524-1.834C115.646,35.293,115.472,34.68,115.122,34.192"/>
	<path fill="#F2EFED" d="M120.043,39.07v-6.108h2.567c1.221,0,1.954,0.681,1.954,1.691c0,1.04-0.733,1.72-1.954,1.72h-1.922v2.697
		H120.043z M120.689,35.788h1.878c0.863,0,1.361-0.41,1.361-1.117c0-0.724-0.498-1.126-1.361-1.126h-1.878V35.788z"/>
	<polygon fill="#F2EFED" points="125.847,39.07 125.847,32.962 126.484,32.962 128.692,35.919 130.899,32.962 131.53,32.962 
		131.53,39.07 130.893,39.07 130.893,33.938 128.892,36.609 128.5,36.609 126.484,33.938 126.484,39.07 	"/>
	<path fill="#DBDAD9" d="M63.135,84.123H32.248c-0.932,0-1.695-0.762-1.695-1.694V45.587C38.973,55.536,55.46,75.039,63.135,84.123"
		/>
	<path fill="#E72E2B" d="M58.639,33.652c-6.181,0-11.191,5.011-11.191,11.191c0,6.182,11.191,19.924,11.191,19.924
		s11.191-13.742,11.191-19.924C69.831,38.663,64.82,33.652,58.639,33.652 M58.639,49.963c-2.889,0-5.23-2.344-5.23-5.232
		s2.342-5.23,5.23-5.23c2.89,0,5.231,2.342,5.231,5.23S61.529,49.963,58.639,49.963"/>
	<path fill="#E72E2B" d="M57.697,74.055H38.375c-0.677,0-1.231-0.553-1.231-1.23c0-0.676,0.555-1.23,1.231-1.23h19.321
		c0.679,0,1.231,0.555,1.231,1.23C58.928,73.502,58.375,74.055,57.697,74.055"/>
	<path fill="#E72E2B" d="M52.777,77.747H38.375c-0.677,0-1.231-0.553-1.231-1.231c0-0.676,0.555-1.23,1.231-1.23h14.401
		c0.676,0,1.229,0.555,1.229,1.23C54.005,77.192,53.453,77.747,52.777,77.747"/>
	<path fill="#F4B792" d="M132.927,51.252c0,0-1.801-5.808-2.823-6.433c-1.023-0.625-5.285-2.726-5.539-2.158
		c-0.253,0.567,2.303,3.326,2.871,4.248c0.566,0.919,0.849,1.828,0.454,1.431c-0.398-0.397-2.556-1.728-2.782-1.431
		c-0.228,0.296,1.078,1.431,1.703,2.34c0.625,0.908,1.303,2.44,3.52,2.782C132.544,52.372,132.927,51.252,132.927,51.252"/>
	<path fill="#F4B792" d="M198.549,100.153c0,0-0.542,5.246-1.132,6.238c-0.592,0.993-3.115,4.163-4.188,4.787
		c-1.072,0.621,0.654-4.18,0.437-5.113s-0.884,1.704-1.355,1.766c-0.475,0.063-0.352-2.312-0.369-3.177
		c-0.018-0.864,2.303-2.998,3.122-4.839C195.879,97.975,198.549,100.153,198.549,100.153"/>
	<path fill="#242020" d="M182.097,46.325c0,0-4.362,21.41-28.37,28.406c-7.492,2.186-24.517-22.486-24.517-22.486
		s0.599-2.275,4.348-1.752c0,0,16.576,10.974,18.663,12.165c1.852,1.059,14.03-13.6,19.58-15.962
		C177.354,44.333,182.097,46.325,182.097,46.325"/>
	<path fill="#434142" d="M210.755,180.92c0,0,2.979,2.719,2.398,4.649c-0.58,1.931-3.269,3.219-3.631,5.578
		c-0.365,2.36-1.818,3.647-3.124,3.647h-6.234c0,0-0.961-1.661,1.362-2.16c2.325-0.502,3.2-3.275,3.056-5.85
		c-0.144-2.575,0.219-6.009,0.219-6.009l4.937-1.144L210.755,180.92z"/>
	<path fill="#434142" d="M174.221,187.949c0,0,0.533,6.186-0.772,6.829l-16.732-0.033c0,0,0-1.933,2.688-2.361
		c2.686-0.429,7.407-2.003,8.206-5.508C168.409,183.372,174.221,187.949,174.221,187.949"/>
	<path fill="#E72E2B" d="M160.094,100.579c0,0,0.884,10.843,1.919,23.874c1.411,17.704,3.106,39.449,3.274,43.57
		c0.289,7.153,1.453,18.595,1.453,18.595s2.759,2.72,8.279,1.573c0,0,4.922-16.335,6.325-33.618
		c0.023-0.282,0.044-0.568,0.067-0.853c1.306-17.595,3.34-54.644,3.34-54.644L160.094,100.579z"/>
	<path fill="#D12A27" d="M160.094,100.579c0,0,0.884,10.843,1.919,23.874l19.332,30.12c0.023-0.282,0.044-0.568,0.067-0.853
		c1.306-17.595,3.34-54.644,3.34-54.644L160.094,100.579z"/>
	<path fill="#E72E2B" d="M164.124,101.867c0,0,15.907,39.265,26.367,57.717c10.461,18.453,13.729,23.603,13.729,23.603
		s5.992-2.361,6.535-3.971c0,0-4-35.623-11.003-44.305c-3.959-4.909-8.607-19.635-8.825-24.783
		c-0.218-5.149-1.418-15.342-1.418-15.342L164.124,101.867z"/>
	<path fill="#F4B792" d="M185.053,41.355c0,0-10.762,5.193-16.969,3.268c0,0,1.529-1.928,4.2-3.36
		c-0.212-1.246-0.38-2.327-0.475-3.243c-0.266-2.115-0.266-3.313-0.266-3.313l4.153-3.266l3.938-3.126
		C179.326,37.103,185.053,41.355,185.053,41.355"/>
	<path fill="#434142" d="M190.724,96.796c0.026,0.66-1.383,1.412-2.005,1.692c-4.604,2.021-8.9,3.432-13.768,3.9
		c-5.753,0.588-12.556-0.704-14.893-0.655c-0.239,0-0.454-0.096-0.643-0.261c-0.168-0.117-0.286-7.049-0.168-15.768
		c0-0.351,0-0.702,0.023-1.057v-0.117c0.047-3.407,0.168-6.979,0.333-10.552c0.336-7.848,0.958-15.415,2.007-19.596
		c1.262-4.936,4.13-8.201,6.729-10.577l2.146-1.879c2.148,0.423,4.415,0.305,6.685-0.799c2.481-1.196,5.155-2.49,5.583-2.162
		c3.245,2.374,5.44,7.708,6.61,14.523c0.007,0.034,0.013,0.066,0.019,0.101c0.657,3.897,0.984,8.257,0.961,12.821
		c0,1.693-0.048,3.431-0.145,5.146c-0.478,7.772-0.156,14.69,0.156,19.484c0.062,0.946,0.123,1.81,0.18,2.582
		C190.632,94.988,190.701,96.046,190.724,96.796"/>
	<path fill="#242020" d="M190.356,91.043c-17.842-20.599-6.773-35.57-6.773-35.57l5.801-1.882c0.657,3.899,0.984,8.257,0.961,12.821
		c0,1.693-0.048,3.431-0.145,5.146C189.722,79.331,190.043,86.249,190.356,91.043"/>
	<path fill="#EBAC8C" d="M179.709,31.675c0,0-2.721,4.958-7.899,6.345c-0.266-2.115-0.266-3.313-0.266-3.313l4.153-3.266
		L179.709,31.675z"/>
	<path fill="#F4B792" d="M169.653,34.563c0,0,10.269,1.679,11.232-4.634c0.964-6.312,2.936-10.346-3.578-11.685
		c-6.514-1.34-8.158,0.881-9.002,2.91C167.462,23.185,167.005,33.964,169.653,34.563"/>
	<path fill="#242020" d="M184.617,17.488c0.092-0.105,0.307-0.192,0.787-0.221c0,0-0.383-0.237-0.896-0.249
		c-0.1-0.666-0.453-1.844-1.597-2.13c0,0,0.615,0.329,0.695,1.035c-1.326-1.362-4.168-2.353-12.037-1.731
		c-10.369,0.817-6.953,7.458-5.609,8.25c1.341,0.791,4.722-1.378,7.225-1.181c2.499,0.199,2.977,3.813,3.822,4.308
		c0.852,0.498,0.516-0.379,1.665-0.897c1.147-0.521,1.256,1.382,0.926,2.62c-0.333,1.236,1.244,2.866,1.244,2.866l1.595-1.715
		c1.595-1.717,3.098-8.988,2.372-10.539C184.744,17.768,184.682,17.629,184.617,17.488"/>
	<path fill="#434142" d="M182.751,38.915c0,0,6.496,3.076,9.608,7.805c4.834,7.337,10.434,34.071,10.537,36.548
		c0.104,2.476-4.088,19.954-4.088,19.954s-4.25-0.28-5.347-2.426c0,0,0.849-17.957,0.31-19.113
		c-0.537-1.153-17.721-24.089-15.787-28.983C179.916,47.805,182.751,38.915,182.751,38.915"/>
	<path fill="#F2EFED" d="M128.615,79.113h-25.108c-2.369,0-4.309-1.939-4.309-4.31v-0.632c0-2.372,1.939-4.312,4.309-4.312h25.108
		c2.373,0,4.313,1.939,4.313,4.312v0.632C132.927,77.174,130.988,79.113,128.615,79.113"/>
	<path fill="#E72E2B" d="M116.005,76.509c-0.18,0-0.348-0.096-0.441-0.252l-1.345-2.302c-0.143-0.243-0.062-0.558,0.183-0.7
		c0.243-0.142,0.558-0.061,0.699,0.184l0.863,1.478l1.627-3.346c0.124-0.255,0.428-0.361,0.681-0.237
		c0.257,0.122,0.363,0.429,0.239,0.683l-2.046,4.206c-0.082,0.169-0.25,0.279-0.438,0.287H116.005z"/>
	<path fill="#E72E2B" d="M116.005,77.693c-1.748,0-3.172-1.424-3.172-3.173c0-1.748,1.424-3.17,3.172-3.17s3.172,1.422,3.172,3.17
		C119.177,76.27,117.753,77.693,116.005,77.693 M116.005,71.722c-1.543,0-2.799,1.256-2.799,2.799c0,1.545,1.256,2.802,2.799,2.802
		c1.545,0,2.798-1.257,2.798-2.802C118.803,72.978,117.55,71.722,116.005,71.722"/>
</g>
</svg>
