<svg id="Ñëîé_1" data-name="Ñëîé 1" xmlns="http://www.w3.org/2000/svg" viewBox="0 0 28.59 29.24"><defs><style>.cls-1{fill:#e42525;}</style></defs><path class="cls-1" d="M10.54,16.47a.66.66,0,0,0-.66-.66H7.56a.67.67,0,0,0-.66.66v2.32a.66.66,0,0,0,.66.66H9.88a.65.65,0,0,0,.66-.66V16.47Z" transform="translate(-0.21 -0.34)"/><path class="cls-1" d="M16.33,16.47a.66.66,0,0,0-.66-.66H13.35a.67.67,0,0,0-.66.66v2.32a.66.66,0,0,0,.66.66h2.32a.65.65,0,0,0,.66-.66Z" transform="translate(-0.21 -0.34)"/><path class="cls-1" d="M22.12,16.47a.67.67,0,0,0-.66-.66H19.14a.67.67,0,0,0-.66.66v2.32a.66.66,0,0,0,.66.66h2.32a.66.66,0,0,0,.66-.66Z" transform="translate(-0.21 -0.34)"/><path class="cls-1" d="M10.54,22.26a.65.65,0,0,0-.66-.66H7.56a.66.66,0,0,0-.66.66v2.32a.67.67,0,0,0,.66.66H9.88a.66.66,0,0,0,.66-.66V22.26Z" transform="translate(-0.21 -0.34)"/><path class="cls-1" d="M16.33,22.26a.65.65,0,0,0-.66-.66H13.35a.66.66,0,0,0-.66.66v2.32a.67.67,0,0,0,.66.66h2.32a.66.66,0,0,0,.66-.66Z" transform="translate(-0.21 -0.34)"/><path class="cls-1" d="M22.12,22.26a.66.66,0,0,0-.66-.66H19.14a.66.66,0,0,0-.66.66v2.32a.67.67,0,0,0,.66.66h2.32a.67.67,0,0,0,.66-.66V22.26Z" transform="translate(-0.21 -0.34)"/><path class="cls-1" d="M26.26,3.6V7.13A2.89,2.89,0,0,1,23.37,10H21.54a2.9,2.9,0,0,1-2.91-2.89V3.58H10.39V7.13A2.9,2.9,0,0,1,7.48,10H5.66a2.89,2.89,0,0,1-2.9-2.89V3.6A2.63,2.63,0,0,0,.21,6.22V26.94a2.64,2.64,0,0,0,2.63,2.64H26.19a2.64,2.64,0,0,0,2.62-2.64V6.22A2.63,2.63,0,0,0,26.26,3.6Zm-.85,22a1.13,1.13,0,0,1-1.13,1.14H4.69a1.14,1.14,0,0,1-1.13-1.14V15a1.14,1.14,0,0,1,1.13-1.14H24.28A1.13,1.13,0,0,1,25.41,15v10.7Z" transform="translate(-0.21 -0.34)"/><path class="cls-1" d="M5.65,8.12H7.46a1,1,0,0,0,1-1V1.33a1,1,0,0,0-1-1H5.65a1,1,0,0,0-1,1v5.8A1,1,0,0,0,5.65,8.12Z" transform="translate(-0.21 -0.34)"/><path class="cls-1" d="M21.52,8.12h1.8a1,1,0,0,0,1-1V1.33a1,1,0,0,0-1-1h-1.8a1,1,0,0,0-1,1v5.8A1,1,0,0,0,21.52,8.12Z" transform="translate(-0.21 -0.34)"/></svg>