<?xml version="1.0" encoding="utf-8"?>
<!-- Generator: Adobe Illustrator 16.0.0, SVG Export Plug-In . SVG Version: 6.00 Build 0)  -->
<!DOCTYPE svg PUBLIC "-//W3C//DTD SVG 1.1//EN" "http://www.w3.org/Graphics/SVG/1.1/DTD/svg11.dtd">
<svg version="1.1" id="Ñëîé_1" xmlns="http://www.w3.org/2000/svg" xmlns:xlink="http://www.w3.org/1999/xlink" x="0px" y="0px"
	 width="29px" height="30px" viewBox="0 0 29 30" enable-background="new 0 0 29 30" xml:space="preserve">
<g>
	<path fill="#B82025" d="M27.006,2.731H25.01V3.78c0,0.99-0.807,1.796-1.797,1.796h-2.287c-0.99,0-1.797-0.806-1.797-1.796V2.731
		H9.871V3.78c0,0.99-0.806,1.796-1.796,1.796H5.788c-0.99,0-1.796-0.806-1.796-1.796V2.731H1.996c-1.045,0-1.895,0.783-1.895,1.745
		v23.778c0,0.962,0.85,1.745,1.895,1.745h25.01c1.043,0,1.893-0.783,1.893-1.745V4.477C28.898,3.515,28.049,2.731,27.006,2.731z
		 M26.826,28.025H2.175V8.712h24.651V28.025z"/>
	<path fill="#B82025" d="M5.788,4.678h2.287c0.494,0,0.897-0.404,0.897-0.897V0.898C8.973,0.404,8.569,0,8.075,0H5.788
		C5.295,0,4.89,0.404,4.89,0.898V3.78C4.89,4.273,5.295,4.678,5.788,4.678z"/>
	<path fill="#B82025" d="M20.926,4.678h2.287c0.494,0,0.896-0.404,0.896-0.897V0.898C24.109,0.404,23.707,0,23.213,0h-2.287
		c-0.494,0-0.898,0.404-0.898,0.898V3.78C20.027,4.273,20.432,4.678,20.926,4.678z"/>
	<path fill="#B82025" d="M11.947,23.284c0.224,0.223,0.521,0.346,0.836,0.346s0.612-0.123,0.836-0.346l7.898-7.899
		c0.223-0.223,0.346-0.52,0.346-0.835s-0.123-0.612-0.346-0.835l-1-1.001c-0.225-0.223-0.521-0.346-0.836-0.346
		c-0.316,0-0.613,0.123-0.836,0.346l-6.063,6.063l-2.628-2.628c-0.224-0.224-0.521-0.347-0.836-0.347s-0.612,0.123-0.836,0.347l-1,1
		c-0.461,0.461-0.461,1.21,0,1.671L11.947,23.284z"/>
</g>
</svg>
