<?xml version="1.0" encoding="utf-8"?>
<!-- Generator: Adobe Illustrator 16.0.0, SVG Export Plug-In . SVG Version: 6.00 Build 0)  -->
<!DOCTYPE svg PUBLIC "-//W3C//DTD SVG 1.1//EN" "http://www.w3.org/Graphics/SVG/1.1/DTD/svg11.dtd">
<svg version="1.1" id="Isolation_Mode" xmlns="http://www.w3.org/2000/svg" xmlns:xlink="http://www.w3.org/1999/xlink" x="0px"
	 y="0px" width="30px" height="30px" viewBox="0 0 30 30" enable-background="new 0 0 30 30" xml:space="preserve">
<g>
	<path fill-rule="evenodd" clip-rule="evenodd" fill="#B82025" d="M-0.003,9.019l8.354-2.075c0.495-0.457,0.656-0.999-0.305-1.855
		c-0.552-0.371-0.98-0.942-1.15-1.646C6.525,1.958,7.429,0.445,8.922,0.083c1.494-0.371,2.998,0.533,3.369,2.027
		c0.171,0.704,0.066,1.398-0.257,1.988c-0.456,1.209-0.048,1.608,0.599,1.789l8.355-2.074l2.064,8.345
		c0.457,0.504,1.01,0.666,1.855-0.295c0.371-0.562,0.942-0.98,1.646-1.151c1.484-0.372,2.997,0.533,3.368,2.027
		c0.362,1.494-0.542,2.997-2.036,3.368c-0.694,0.171-1.398,0.066-1.988-0.257c-1.209-0.457-1.608-0.048-1.779,0.6l2.064,8.354
		l-8.459,2.093c-0.581-0.199-0.895-0.627-0.477-1.74c0.324-0.59,0.43-1.295,0.258-1.999c-0.371-1.484-1.875-2.397-3.369-2.026
		s-2.397,1.875-2.026,3.368c0.171,0.694,0.6,1.266,1.151,1.637c0.895,0.8,0.818,1.322,0.399,1.77L5.202,30L3.1,21.54
		c0.199-0.58,0.627-0.894,1.75-0.475c0.58,0.323,1.285,0.428,1.989,0.256c1.494-0.371,2.397-1.874,2.026-3.368
		c-0.371-1.493-1.874-2.397-3.368-2.026c-0.695,0.172-1.265,0.6-1.637,1.151c-0.8,0.895-1.322,0.817-1.761,0.399L-0.003,9.019z"/>
</g>
</svg>
