<?xml version="1.0" encoding="utf-8"?>
<!-- Generator: Adobe Illustrator 16.0.0, SVG Export Plug-In . SVG Version: 6.00 Build 0)  -->
<!DOCTYPE svg PUBLIC "-//W3C//DTD SVG 1.1//EN" "http://www.w3.org/Graphics/SVG/1.1/DTD/svg11.dtd">
<svg version="1.1" id="Layer_1" xmlns="http://www.w3.org/2000/svg" xmlns:xlink="http://www.w3.org/1999/xlink" x="0px" y="0px"
	 width="121px" height="92px" viewBox="0 0 121 92" enable-background="new 0 0 121 92" xml:space="preserve">
<g enable-background="new    ">
	<g>
		<g>
			<path fill="#B82025" d="M110.366-0.085H10.634c-1.638,0-3.17,0.402-4.557,1.065l54.187,54.187l12.145-11.672
				c0,0,0.002-0.001,0.002-0.002h0.001l42.514-42.512C113.537,0.317,112.005-0.085,110.366-0.085z"/>
		</g>
	</g>
	<g>
		<g>
			<path fill="#B82025" d="M119.937,5.995L79.93,46.001l40.006,40.005c0.663-1.386,1.066-2.919,1.066-4.556v-70.9
				C121.002,8.913,120.6,7.381,119.937,5.995z"/>
		</g>
	</g>
	<g>
		<g>
			<path fill="#B82025" d="M1.064,5.993C0.4,7.38-0.002,8.913-0.002,10.55v70.9c0,1.637,0.402,3.169,1.065,4.555L41.071,46
				L1.064,5.993z"/>
		</g>
	</g>
	<g>
		<g>
			<path fill="#B82025" d="M74.917,51.014L62.771,62.687c-0.692,0.692-1.6,1.038-2.507,1.038c-0.906,0-1.813-0.346-2.506-1.038
				L46.084,51.013L6.075,91.019c1.387,0.664,2.921,1.066,4.559,1.066h99.732c1.637,0,3.17-0.402,4.557-1.065L74.917,51.014z"/>
		</g>
	</g>
</g>
</svg>
