<?xml version="1.0" encoding="utf-8"?>
<!-- Generator: Adobe Illustrator 16.0.0, SVG Export Plug-In . SVG Version: 6.00 Build 0)  -->
<!DOCTYPE svg PUBLIC "-//W3C//DTD SVG 1.1//EN" "http://www.w3.org/Graphics/SVG/1.1/DTD/svg11.dtd">
<svg version="1.1" id="Base" xmlns="http://www.w3.org/2000/svg" xmlns:xlink="http://www.w3.org/1999/xlink" x="0px" y="0px"
	 width="30px" height="30px" viewBox="0 0 30 30" enable-background="new 0 0 30 30" xml:space="preserve">
<g>
	<path fill="#B82025" d="M15,0C6.729,0,0,6.729,0,15s6.729,15,15,15s15-6.729,15-15S23.271,0,15,0z M15.949,9.768
		c1.568-0.033,3.105-0.144,4.508-0.287c0.192,1.445,0.345,3.022,0.389,4.613h-4.896V9.768z M15.949,7.868V2.801
		c1.186,0.092,2.324,0.352,3.392,0.759c0.188,0.759,0.522,2.214,0.83,4.04C18.847,7.732,17.407,7.836,15.949,7.868z M14.051,7.868
		c-1.423-0.031-2.829-0.132-4.127-0.259c0.315-1.865,0.658-3.345,0.842-4.092c1.037-0.385,2.14-0.628,3.285-0.717V7.868z
		 M14.051,9.768v4.326H9.252c0.044-1.587,0.194-3.161,0.388-4.604C11.016,9.628,12.519,9.734,14.051,9.768z M7.353,14.094H2.799
		c0.142-1.931,0.732-3.737,1.67-5.319C5.265,8.917,6.4,9.103,7.749,9.275C7.55,10.777,7.396,12.421,7.353,14.094z M7.352,15.993
		c0.044,1.677,0.198,3.318,0.398,4.813c-1.325,0.169-2.445,0.352-3.24,0.491c-0.947-1.572-1.55-3.375-1.705-5.304H7.352z
		 M9.251,15.993h4.8v4.321c-1.532,0.032-3.035,0.137-4.411,0.275C9.445,19.155,9.295,17.586,9.251,15.993z M14.051,22.212v4.987
		c-1.145-0.089-2.246-0.332-3.283-0.716c-0.183-0.726-0.524-2.174-0.839-4.012C11.225,22.342,12.629,22.244,14.051,22.212z
		 M15.949,22.212c1.455,0.032,2.895,0.137,4.219,0.27c-0.31,1.798-0.643,3.222-0.827,3.959c-1.067,0.407-2.207,0.667-3.392,0.759
		V22.212z M15.949,20.314v-4.321h4.897c-0.044,1.596-0.196,3.169-0.391,4.606C19.055,20.457,17.518,20.347,15.949,20.314z
		 M22.746,15.993h4.45c-0.156,1.929-0.759,3.731-1.706,5.304c-0.775-0.137-1.861-0.313-3.145-0.479
		C22.548,19.32,22.702,17.674,22.746,15.993z M22.746,14.094c-0.046-1.677-0.198-3.325-0.399-4.831
		c1.307-0.169,2.408-0.349,3.186-0.488c0.938,1.582,1.527,3.389,1.67,5.319H22.746z M24.299,7.056
		c-0.635,0.104-1.393,0.216-2.233,0.325c-0.173-1.035-0.354-1.956-0.518-2.714C22.58,5.324,23.508,6.131,24.299,7.056z M8.565,4.595
		C8.398,5.369,8.209,6.32,8.03,7.394C7.15,7.28,6.361,7.163,5.701,7.056C6.522,6.096,7.488,5.264,8.565,4.595z M5.762,23.014
		c0.648-0.104,1.418-0.219,2.273-0.327c0.176,1.04,0.361,1.964,0.526,2.716C7.512,24.751,6.568,23.943,5.762,23.014z M21.552,25.33
		c0.161-0.736,0.339-1.628,0.51-2.63c0.814,0.104,1.554,0.215,2.177,0.314C23.461,23.909,22.557,24.689,21.552,25.33z"/>
</g>
</svg>
