<?xml version="1.0" encoding="utf-8"?>
<!-- Generator: Adobe Illustrator 16.0.0, SVG Export Plug-In . SVG Version: 6.00 Build 0)  -->
<!DOCTYPE svg PUBLIC "-//W3C//DTD SVG 1.1//EN" "http://www.w3.org/Graphics/SVG/1.1/DTD/svg11.dtd">
<svg version="1.1" id="Layer_1" xmlns="http://www.w3.org/2000/svg" xmlns:xlink="http://www.w3.org/1999/xlink" x="0px" y="0px"
	 width="120px" height="120px" viewBox="0 0 120 120" enable-background="new 0 0 120 120" xml:space="preserve">
<path fill="#2C80BB" d="M120,60c0-33.137-26.863-60-60-60C26.863,0,0,26.863,0,60c0,21.04,10.839,39.539,27.229,50.25V99.149
	c0,0-3.08-2.466-4.536-4.41c-0.084-0.114-4.42-7.373-4.339-7.602c0.323-0.903,1.381-0.968,2.306-0.753
	c1.485,0.347,2.042,1.622,2.449,2.401c0.27,0.714,0.94,2.316,1.73,2.315l-0.307-4.515c-0.219-3.102-0.905-9.954-0.905-9.954
	c-0.063-1.942,2.808-2.077,2.978-0.149c1.561,17.697,2.136,4.805,1.551-2.885c-0.123-1.605,3.082-2.699,3.292,0.415
	c0.396,5.852,0.517,12.122,0.992,11.118c0.384-0.814,0.913-8.657,1.136-9.74c0.304-1.47,2.456-1.541,2.605-0.086
	c0.104,0.998,0.061,3.288-0.152,8.247c-0.331,7.708,1.667-2.653,1.937-4.122c0.226-1.232,2.723-1.412,2.371,0.82
	c0,0-0.625,15.763-3.333,18.37v16.805c4.726,1.964,9.759,3.33,15.004,4.028V85.229c0,0-5.136-4.113-7.563-7.354
	c-0.142-0.188-7.372-12.296-7.236-12.679c0.538-1.505,2.302-1.614,3.845-1.255c2.477,0.578,3.407,2.706,4.085,4.005
	c0.45,1.192,1.568,3.865,2.884,3.861l-0.51-7.528c-0.364-5.171-1.51-16.599-1.51-16.599c-0.104-3.239,4.683-3.464,4.966-0.25
	c2.603,29.512,3.563,8.011,2.586-4.812c-0.204-2.676,5.139-4.498,5.489,0.693c0.66,9.759,0.863,20.218,1.653,18.543
	c0.641-1.359,1.522-14.439,1.896-16.244c0.506-2.453,4.093-2.571,4.344-0.142c0.173,1.662,0.102,5.482-0.252,13.75
	c-0.555,12.854,2.78-4.423,3.228-6.871c0.377-2.058,4.54-2.356,3.955,1.366c0,0-1.043,26.286-5.558,30.635v35.065
	c4.165-0.578,8.196-1.574,12.042-2.961V95.591c-3.089-2.977-3.805-20.973-3.805-20.973c-0.4-2.549,2.45-2.344,2.708-0.936
	c0.307,1.676,2.589,13.505,2.211,4.705c-0.242-5.661-0.293-8.276-0.175-9.415c0.172-1.662,2.629-1.581,2.975,0.099
	c0.256,1.234,0.859,10.189,1.297,11.119c0.541,1.146,0.681-6.014,1.133-12.694c0.24-3.555,3.897-2.307,3.758-0.474
	c-0.67,8.779-0.011,23.498,1.771,3.294c0.194-2.2,3.47-2.047,3.399,0.171c0,0-0.783,7.824-1.033,11.363l-0.35,5.156
	c0.9,0.002,1.665-1.828,1.975-2.646c0.464-0.888,1.102-2.346,2.797-2.741c1.056-0.245,2.265-0.17,2.633,0.859
	c0.093,0.262-4.858,8.551-4.954,8.682c-1.662,2.217-5.179,5.033-5.179,5.033v14.862C108.606,100.483,120,81.575,120,60z"/>
</svg>
