<?xml version="1.0" encoding="utf-8"?>
<!-- Generator: Adobe Illustrator 16.0.0, SVG Export Plug-In . SVG Version: 6.00 Build 0)  -->
<!DOCTYPE svg PUBLIC "-//W3C//DTD SVG 1.1//EN" "http://www.w3.org/Graphics/SVG/1.1/DTD/svg11.dtd">
<svg version="1.1" id="design" xmlns="http://www.w3.org/2000/svg" xmlns:xlink="http://www.w3.org/1999/xlink" x="0px" y="0px"
	 width="30px" height="30px" viewBox="0 0 30 30" enable-background="new 0 0 30 30" xml:space="preserve">
<g>
	<path fill="#B82025" d="M27.578,17.857c-0.527,2.397-1.717,4.615-3.452,6.38c-2.417,2.452-5.625,3.809-9.036,3.809
		c-2.415,0-4.759-0.694-6.777-1.977l8.087-8.212H27.578 M29.811,15.896H15.58L5.362,26.278C8.055,28.683,11.47,30,15.089,30
		c3.94,0,7.645-1.561,10.428-4.389C28.1,22.987,29.606,19.567,29.811,15.896L29.811,15.896z"/>
	<path fill="#B82025" d="M16.048,13.621V0.064c7.28,0.468,13.063,6.184,13.723,13.557H16.048z"/>
	<path fill="#B82025" d="M11.811,2.324v11.347l-7.879,8.005c-1.161-2.006-1.784-4.306-1.784-6.66
		C2.148,9.009,6.249,3.803,11.811,2.324 M13.768,0C6.198,0.66,0.194,7.201,0.19,15.016c0,3.581,1.234,6.988,3.488,9.704l10.09-10.25
		V0L13.768,0z"/>
</g>
</svg>
