<?xml version="1.0" encoding="utf-8"?>
<!-- Generator: Adobe Illustrator 16.0.0, SVG Export Plug-In . SVG Version: 6.00 Build 0)  -->
<!DOCTYPE svg PUBLIC "-//W3C//DTD SVG 1.1//EN" "http://www.w3.org/Graphics/SVG/1.1/DTD/svg11.dtd">
<svg version="1.1" id="Layer_1" xmlns="http://www.w3.org/2000/svg" xmlns:xlink="http://www.w3.org/1999/xlink" x="0px" y="0px"
	 width="414.661px" height="393.974px" viewBox="0 0 414.661 393.974" enable-background="new 0 0 414.661 393.974"
	 xml:space="preserve">
<g>
	<defs>
		<rect id="SVGID_1_" width="414.661" height="393.974"/>
	</defs>
	<clipPath id="SVGID_2_">
		<use xlink:href="#SVGID_1_"  overflow="visible"/>
	</clipPath>
	<path clip-path="url(#SVGID_2_)" fill="#F2F2F2" d="M409.044,196.987c0,108.793-88.194,196.987-196.987,196.987
		S15.07,305.78,15.07,196.987S103.264,0,212.057,0S409.044,88.194,409.044,196.987"/>
	<path clip-path="url(#SVGID_2_)" fill="#99C457" d="M192.754,389.278c-49.539-44.172-75.012-107.609-87.657-153.049
		C91.37,186.9,89.37,147.531,89.351,147.139l-2.693-0.166c0.019,0.395,2.028,40.054,15.839,89.712
		c12.762,45.889,38.503,109.977,88.655,154.696L192.754,389.278z"/>
	<path clip-path="url(#SVGID_2_)" fill="#99C457" d="M94.994,135.719c2.441,11.358,0.398,22.087-4.808,29.834
		c-8.163-6.008-14.582-15.637-17.024-26.995c-2.441-11.358-0.397-22.087,4.809-29.835C86.134,114.732,92.553,124.361,94.994,135.719
		"/>
	<path clip-path="url(#SVGID_2_)" fill="#99C457" d="M79.799,168.062c8.535,7.941,13.524,18.372,14.491,28.415
		c-9.369,0.426-19.678-3.376-28.213-11.317c-8.535-7.941-13.524-18.371-14.491-28.415C60.956,156.318,71.265,160.121,79.799,168.062
		"/>
	<path clip-path="url(#SVGID_2_)" fill="#99C457" d="M75.794,202.043c10.607,3.328,19.306,10.715,24.454,19.688
		c-7.698,4.942-18.01,6.365-28.617,3.037c-10.607-3.328-19.306-10.714-24.454-19.687C54.875,200.138,65.188,198.715,75.794,202.043"
		/>
	<path clip-path="url(#SVGID_2_)" fill="#99C457" d="M92.13,242.922c8.402,2.649,15.119,9.428,18.925,17.987
		c-6.37,5.352-14.712,7.38-23.113,4.73c-8.402-2.65-15.12-9.428-18.926-17.988C75.387,242.301,83.729,240.273,92.13,242.922"/>
	<path clip-path="url(#SVGID_2_)" fill="#99C457" d="M106.477,184.579c6.612-6.657,15.37-9.494,23.847-8.584
		c0.469,8.972-2.624,18.065-9.237,24.722c-6.611,6.656-15.369,9.494-23.847,8.584C96.771,200.329,99.865,191.235,106.477,184.579"/>
	<path clip-path="url(#SVGID_2_)" fill="#99C457" d="M114.141,213.875c6.613-6.657,15.37-9.495,23.847-8.584
		c0.47,8.971-2.624,18.063-9.236,24.721c-6.612,6.657-15.37,9.494-23.848,8.584C104.435,229.625,107.529,220.531,114.141,213.875"/>
	<path clip-path="url(#SVGID_2_)" fill="#64B35B" d="M146.087,355.881c-38.325-5.586-71.123-28.292-91.888-46.354
		c-22.543-19.61-36.172-38.14-36.307-38.324l-1.365,0.784c0.136,0.187,13.863,18.854,36.552,38.598
		c20.967,18.245,54.105,41.18,92.904,46.836L146.087,355.881z"/>
	<path clip-path="url(#SVGID_2_)" fill="#64B35B" d="M16.969,263.827c4.84,4.747,7.294,10.629,7.249,16.075
		c-5.907-0.302-12.128-2.928-16.968-7.674c-4.84-4.747-7.294-10.629-7.249-16.075C5.907,256.455,12.129,259.08,16.969,263.827"/>
	<path clip-path="url(#SVGID_2_)" fill="#64B35B" d="M19.966,284.462c6.709,1.123,12.492,4.6,16.192,9.179
		c-4.426,3.221-10.669,4.683-17.378,3.56c-6.71-1.124-12.492-4.601-16.191-9.18C7.015,284.8,13.257,283.338,19.966,284.462"/>
	<path clip-path="url(#SVGID_2_)" fill="#64B35B" d="M28.94,302.298c6.235-1.789,12.846-0.988,18.238,1.727
		c-2.16,4.881-6.725,8.889-12.96,10.678c-6.236,1.789-12.846,0.989-18.238-1.726C18.14,308.095,22.705,304.087,28.94,302.298"/>
	<path clip-path="url(#SVGID_2_)" fill="#64B35B" d="M50.036,316.955c4.944-1.411,10.394-0.269,14.999,2.676
		c-1.382,4.654-4.792,8.323-9.735,9.734c-4.944,1.41-10.394,0.269-14.999-2.677C41.682,322.035,45.093,318.365,50.036,316.955"/>
	<path clip-path="url(#SVGID_2_)" fill="#64B35B" d="M38.268,283.93c1.08-5.367,4.433-9.564,8.854-11.847
		c3.112,4.219,4.529,9.642,3.449,15.009c-1.08,5.366-4.433,9.564-8.854,11.847C38.604,294.721,37.187,289.296,38.268,283.93"/>
	<path clip-path="url(#SVGID_2_)" fill="#64B35B" d="M51.418,295.733c1.08-5.367,4.433-9.564,8.854-11.847
		c3.112,4.219,4.529,9.642,3.449,15.008c-1.08,5.368-4.433,9.565-8.854,11.848C51.754,306.524,50.338,301.1,51.418,295.733"/>
	<path clip-path="url(#SVGID_2_)" fill="#64B35B" d="M325.226,203.626c-34.688,54.173-60.002,114.352-74.478,178.284l-2.377-0.638
		c14.413-62.593,39.56-122.667,74.188-176.781c8.048-12.577,16.738-27.496,31.808-32.401c0.29-0.095,0.4,0.347,0.123,0.451
		C340.727,177.727,332.755,191.866,325.226,203.626"/>
	<path clip-path="url(#SVGID_2_)" fill="#64B35B" d="M259.111,384.153c38.761-52.709,85.885-101.428,141.917-143.794
		c0.559-0.422,1.313,0.552,0.751,0.985c-53.144,40.85-100.159,89.088-139.722,143.6L259.111,384.153z"/>
	<path clip-path="url(#SVGID_2_)" fill="#64B35B" d="M328.396,170.03c0.893,1.313,4.311,4.738,5.314,9.238
		c1.35,4.268,0.284,9.612,0.17,9.425c-0.258,0.106,3.954-3.455,5.271-9.121c1.703-5.434,0.511-12.97-1.609-15.467
		c-3.66-5.645-10.054-6.218-11.296-3.48C324.928,163.343,326.601,167.043,328.396,170.03"/>
	<path clip-path="url(#SVGID_2_)" fill="#64B35B" d="M336.693,218.385c-1.295-0.918-4.652-4.403-9.131-5.497
		c-4.242-1.432-9.605-0.473-9.42-0.354c-0.111,0.256,3.532-3.886,9.222-5.09c5.467-1.597,12.979-0.256,15.434,1.912
		c5.571,3.771,6.018,10.177,3.257,11.363C343.311,221.983,339.645,220.24,336.693,218.385"/>
	<path clip-path="url(#SVGID_2_)" fill="#64B35B" d="M324.171,239.579c-1.295-0.919-4.652-4.403-9.131-5.496
		c-4.242-1.433-9.605-0.474-9.421-0.355c-0.111,0.256,3.532-3.887,9.223-5.09c5.467-1.597,12.978-0.256,15.433,1.912
		c5.572,3.771,6.019,10.177,3.257,11.363C330.786,243.176,327.121,241.433,324.171,239.579"/>
	<path clip-path="url(#SVGID_2_)" fill="#64B35B" d="M368.839,288.737c-1.295-0.919-4.652-4.404-9.131-5.497
		c-4.242-1.433-9.605-0.473-9.42-0.354c-0.112,0.255,3.533-3.887,9.222-5.09c5.467-1.598,12.979-0.257,15.434,1.912
		c5.571,3.771,6.018,10.176,3.256,11.363C375.455,292.334,371.79,290.591,368.839,288.737"/>
	<path clip-path="url(#SVGID_2_)" fill="#64B35B" d="M391.66,268.631c-1.295-0.918-4.652-4.403-9.132-5.496
		c-4.241-1.433-9.604-0.474-9.42-0.354c-0.11,0.255,3.533-3.887,9.224-5.092c5.466-1.596,12.978-0.255,15.433,1.913
		c5.571,3.771,6.018,10.176,3.256,11.363C398.276,272.23,394.611,270.486,391.66,268.631"/>
	<path clip-path="url(#SVGID_2_)" fill="#64B35B" d="M310.873,194.011c1.089,1.155,5.004,3.999,6.706,8.284
		c2.004,4.003,1.795,9.447,1.651,9.28c-0.236,0.146,3.362-4.036,3.769-9.837c0.825-5.634-1.54-12.89-4.026-15.021
		c-4.505-4.997-10.91-4.554-11.705-1.655C306.395,187.954,308.629,191.344,310.873,194.011"/>
	<path clip-path="url(#SVGID_2_)" fill="#64B35B" d="M292.458,218.046c1.55,0.821,6.964,2.312,9.688,6.363
		c3.082,3.605,3.474,9.772,3.269,9.647c-0.29,0.264,3.859-5.949,3.68-12.599c0.384-6.644-3.562-13.724-7.04-15.034
		c-6.438-3.641-14.675-0.394-15.351,3.184C285.925,213.211,289.229,216.034,292.458,218.046"/>
	<path clip-path="url(#SVGID_2_)" fill="#64B35B" d="M273.076,254.449c1.667,0.55,7.254,1.107,10.62,4.645
		c3.644,3.035,5.068,9.048,4.844,8.959c-0.241,0.311,2.805-6.513,1.509-13.038c-0.738-6.613-5.818-12.928-9.467-13.635
		c-6.96-2.507-14.533,2.08-14.598,5.719C265.823,250.782,269.556,253.008,273.076,254.449"/>
	<path clip-path="url(#SVGID_2_)" fill="#64B35B" d="M330.429,279.806c1.214,0.757,5.532,2.277,7.518,5.729
		c2.301,3.107,2.27,8.146,2.109,8.033c-0.251,0.198,3.478-4.62,3.71-10.039c0.69-5.382-2.115-11.365-4.87-12.629
		c-5.029-3.329-11.914-1.156-12.668,1.715C325.39,275.502,327.916,277.986,330.429,279.806"/>
	<path clip-path="url(#SVGID_2_)" fill="#64B35B" d="M360.287,178.553c-0.727-0.6-2.56-2.809-5.161-3.651
		c-2.446-1.033-5.661-0.7-5.558-0.622c-0.076,0.146,2.261-2.144,5.68-2.608c3.303-0.705,7.688,0.417,9.045,1.807
		c3.132,2.474,3.115,6.283,1.429,6.865C364.043,180.971,361.952,179.779,360.287,178.553"/>
	<path clip-path="url(#SVGID_2_)" fill="#64B35B" d="M353.333,163.083c0.031,0.941,0.662,3.741-0.26,6.316
		c-0.675,2.569-2.901,4.912-2.899,4.782c-0.163-0.029,3.078-0.481,5.532-2.906c2.574-2.186,4.363-6.344,4.092-8.268
		c-0.049-3.989-3.075-6.302-4.565-5.322C353.711,158.632,353.378,161.017,353.333,163.083"/>
	<path clip-path="url(#SVGID_2_)" fill="#64B35B" d="M408.095,248.153c-0.727-0.601-2.56-2.81-5.161-3.651
		c-2.446-1.033-5.661-0.701-5.558-0.622c-0.076,0.146,2.261-2.144,5.68-2.608c3.303-0.704,7.688,0.417,9.045,1.808
		c3.131,2.474,3.115,6.283,1.43,6.865C411.851,250.571,409.76,249.378,408.095,248.153"/>
	<path clip-path="url(#SVGID_2_)" fill="#64B35B" d="M399.705,232.55c0.109,0.936,0.966,3.675,0.259,6.315
		c-0.463,2.616-2.488,5.133-2.498,5.003c-0.165-0.015,3.028-0.731,5.275-3.349c2.388-2.389,3.83-6.68,3.401-8.574
		c-0.375-3.974-3.581-6.03-4.985-4.932C399.718,228.082,399.581,230.486,399.705,232.55"/>
	<path clip-path="url(#SVGID_2_)" fill="#633029" d="M263.926,261.916c-0.911,1.445-2.325,3.61-4.289,6.435
		c-0.104,0.149-0.196,0.285-0.304,0.438c-4.049,5.791-10.323,14.198-19.258,24.717c-0.825,0.971-1.793,2.024-2.857,3.124
		c-0.011,0.01-0.021,0.021-0.03,0.031c-0.191,0.197-0.401,0.402-0.598,0.602c-10.519,10.535-20.508,16.792-21.083,17.15
		c-0.721-0.445-16.017-9.994-28.792-25.56c-8.67-10.564-15.832-20.953-19.176-25.96l-4.597-2.239c0,0,12.024-5.939,17.438-12.854
		c6.354-9.09,7.164-19.323,7.2-26.072c1.339,1.077,2.706,2.121,4.137,3.075c2.709,1.808,5.589,3.361,8.621,4.552
		c2.702,1.062,5.516,1.827,8.382,2.282c3.493,0.554,7.102,0.662,10.618,0.307c2.829-0.286,5.629-0.858,8.338-1.729
		c2.98-0.958,5.84-2.271,8.541-3.852c2.364-1.386,4.57-3.017,6.702-4.738c0.028,6.839,0.853,17.318,7.479,26.542
		C250.398,248.165,253.224,253.199,263.926,261.916"/>
	<path clip-path="url(#SVGID_2_)" fill="#BC181C" d="M130.213,349.444c-0.029-1.294-0.058-2.599-0.091-3.969
		c-2.219-21.65-7.107-59.11-21.94-64.295c-7.431,7.879-15.653,27.81-21.337,49.693c-1.115,4.297-2.628,9.238-4.338,14.438
		c14.402,12.591,30.646,23.106,48.287,31.108L130.213,349.444z"/>
	<path clip-path="url(#SVGID_2_)" fill="#BC181C" d="M322.694,281.958c-14.834,5.182-19.064,40.181-21.284,61.832
		c0,10.146,0.113,19.688-0.383,28.932c16.677-8.462,31.984-19.209,45.511-31.858c-1.118-3.561-2.114-6.94-2.906-9.989
		c-6.275-24.16-15.639-45.89-23.622-51.697C320.714,279.947,322.281,280.854,322.694,281.958"/>
	<path clip-path="url(#SVGID_2_)" fill="#EB1A21" d="M250.398,248.165c0,0,2.825,5.034,13.526,13.751
		c-0.911,1.445-1.584,3.61-3.548,6.435c-0.104,0.149-0.634,1.298-0.741,1.449c-4.049,5.791-9.158,14.481-18.092,25
		c-0.826,0.97,0.314,0.761-0.75,1.86c-0.01,0.01-1.804,0-3.605,0c-0.275,0,1.079,1.69,0.881,1.89
		c-10.52,10.534-21.986,15.504-22.563,15.862c-0.719-0.445-16.016-9.994-28.792-25.56c-8.67-10.564-15.832-20.953-19.176-25.96
		l-4.597-2.239c0,0,12.024-5.939,17.438-12.854C180.379,247.798,204.71,258.632,250.398,248.165"/>
	<path clip-path="url(#SVGID_2_)" fill="#8E4F3A" d="M200.337,229.353c2.702,1.062,5.516,1.828,8.383,2.283
		c3.492,0.553,7.103,0.662,10.617,0.306c2.831-0.286,5.629-0.858,8.339-1.729c2.98-0.958,5.84-2.271,8.54-3.852
		c2.366-1.386,4.572-3.017,6.703-4.738c0.722-0.583,1.469-1.138,2.167-1.749c0.888-0.782,1.755-1.584,2.606-2.405
		c11.845-11.438,11.743-40.335,14.602-38.292c6.536,4.39,10.722-8.679,11.539-16.441c0.444-4.219-0.418-7.05-1.805-8.285
		c-0.103,0.224-0.205,0.341-0.309,0.32c-5.508-1.14-5.563,5.016-7.171,4.593c-5.815-1.535-18.687-12.987-33.12-24.47
		c-18.229-14.504-29.05-18.507-40.107-19.759c0,0-0.893,6.211-11.95,15.39c-11.057,9.18-12.958,28.364-15.253,26.904
		c-1.466-0.933-3.745,0.682-5.203-3.389c-1.694,0.927-2.825,3.962-2.327,8.696c0.817,7.762,5.004,20.831,11.539,16.441
		c2.859-2.043,2.757,26.854,14.603,38.292c1.546,1.495,3.172,2.908,4.85,4.257c1.339,1.078,2.706,2.123,4.136,3.077
		C194.425,226.608,197.306,228.164,200.337,229.353"/>
	<path clip-path="url(#SVGID_2_)" fill="#EB1A21" d="M275.201,266.477c1.096-1.681,1.752-2.709,1.768-2.731
		c15.959,5.203,41.42,13.33,42.87,15.262c0.041,0.054,0.12,0.114,0.172,0.17c0.702,0.769,2.271,1.676,2.684,2.78
		c-14.834,5.183-19.065,40.181-21.284,61.832c0,10.146,0.113,19.687-0.383,28.933c-26.731,13.561-56.944,21.252-88.971,21.252
		c-10.003,0-19.829-0.759-29.432-2.198c-32.087-5.272-51.83-15.355-51.83-15.355c0.111,0.051,0.22,0.1,0.331,0.15l-0.331-0.15
		c-0.029-1.294-0.638-29.574-0.672-30.944c-2.219-21.651-7.107-59.112-21.94-64.295c0.441-1.185,1.32-1.482,2.65-2.595
		c2.3-1.929,40.585-13.935,52.139-17.976c-0.01,0.014-0.02,0.029-0.03,0.042l-9.056,3.082c0,0,1.406,2.197,3.663,5.604
		c0,0,32.722,44.063,58.026,58.429C215.574,327.768,252.692,302.988,275.201,266.477"/>
	<path clip-path="url(#SVGID_2_)" fill="#4EA5B8" d="M237.188,296.66c-0.19,0.197-0.4,0.402-0.598,0.603
		C236.79,297.062,236.987,296.863,237.188,296.66"/>
	<path clip-path="url(#SVGID_2_)" fill="#4EA5B8" d="M263.926,261.916c-0.911,1.445-2.325,3.61-4.289,6.435
		c1.872-2.692,3.348-4.892,4.337-6.391C263.957,261.946,263.941,261.93,263.926,261.916"/>
	<path clip-path="url(#SVGID_2_)" fill="#EB1A21" d="M263.974,261.96c-1.542,1.313-3.226,1.646-5.097,4.339
		c-0.104,0.149-0.727,2.432-0.834,2.584c-3.79,5.436-7.799,12.618-13.816,19.969c-2.288,2.795-4.657,5.387-7.01,7.776
		c-0.01,0.01-0.02,0.021-0.029,0.031c-0.199,0.203-0.398,0.402-0.599,0.603c-10.518,10.534-20.507,16.792-21.083,17.149
		c-0.72-0.444-16.016-9.993-28.792-25.56c-8.67-10.565-18.022-24.473-21.366-29.48l-2.407,1.281l-9.056,3.082
		c0,0,1.406,2.197,3.663,5.604l3.586,5.348c4.84,7.139,11.352,16.407,17.188,23.572c12.983,15.938,34.98,29.041,37.115,29.469v0.04
		c0.013,0,0.054-0.018,0.068-0.021c0.015,0.003,0.056,0.021,0.068,0.021v-0.04c2.132-0.429,24.073-13.53,37.025-29.469
		c6.542-8.054,15.277-18.276,20.193-25.626l2.834-5.75c1.096-1.682,1.326-3.115,1.342-3.139l0.006-0.01l-4.799-1.636L263.974,261.96
		z"/>
	<path clip-path="url(#SVGID_2_)" fill="#16202E" d="M164.118,157.428c2.295,1.46,4.196-17.724,15.253-26.903
		c11.057-9.18,11.95-15.39,11.95-15.39c11.058,1.251,21.88,5.254,40.108,19.758c14.435,11.484,27.304,22.935,33.121,24.47
		c1.608,0.423,1.662-5.733,7.171-4.593c0.103,0.022,0.205-0.096,0.307-0.32c1.427-3.15,2.438-29.328-8.313-47.244
		c-13.315-22.189-39.389-31.78-62.487-24.863c-14.458,4.329-15.295,10.646-21.797,12.349c-13.52,3.543-21.907,24.823-21.907,45.478
		c0,7.463,0.565,11.567,1.391,13.869C160.373,158.11,162.653,156.495,164.118,157.428"/>
	<path clip-path="url(#SVGID_2_)" fill="#FFFFFF" d="M165.489,241.75c-5.163,3.464,32.208,37.426,32.208,37.426l16.009-26.49
		l-29.415-16.005C184.292,236.681,170.653,238.287,165.489,241.75"/>
	<path clip-path="url(#SVGID_2_)" fill="#FFFFFF" d="M261.924,241.696c-5.163-3.465-18.802-5.069-18.802-5.069l-29.415,16.004
		l17.428,25.731C231.135,278.362,267.088,245.16,261.924,241.696"/>
</g>
</svg>
