<?xml version="1.0" encoding="utf-8"?>
<!-- Generator: Adobe Illustrator 16.0.0, SVG Export Plug-In . SVG Version: 6.00 Build 0)  -->
<!DOCTYPE svg PUBLIC "-//W3C//DTD SVG 1.1//EN" "http://www.w3.org/Graphics/SVG/1.1/DTD/svg11.dtd">
<svg version="1.1" id="Layer_1" xmlns="http://www.w3.org/2000/svg" xmlns:xlink="http://www.w3.org/1999/xlink" x="0px" y="0px"
	 width="14px" height="20px" viewBox="0 0 14 20" enable-background="new 0 0 14 20" xml:space="preserve">
<path fill="#F2725C" d="M7,6.45c-3.87,0-7,3.03-7,6.78C0,16.97,3.13,20,7,20s7-3.03,7-6.78C14,9.48,10.87,6.45,7,6.45z M8.28,12.06
	c-0.03,0.101-0.09,0.19-0.17,0.311C8,12.52,7.87,12.71,7.81,12.94C7.72,13.34,7.75,13.8,7.79,14.28c0.03,0.439,0.06,0.93-0.04,1.22
	c-0.11,0.3-0.44,0.44-0.73,0.44c-0.13,0-0.55-0.04-0.69-0.44c-0.13-0.35-0.09-0.77-0.05-1.23c0.04-0.42,0.07-0.85-0.01-1.27
	c-0.07-0.3-0.22-0.53-0.35-0.71c-0.04-0.06-0.11-0.17-0.12-0.2c-0.09-0.38-0.03-0.75,0.17-1.04c0.19-0.27,0.49-0.45,0.84-0.51
	c0.08-0.021,0.17-0.021,0.26-0.021c0.39,0,0.74,0.15,0.97,0.421C8.28,11.23,8.37,11.63,8.28,12.06z"/>
<path fill="#F2725C" d="M10.051,6.309C9.997,5.156,9.873,4.091,9.616,3.676C9.049,2.754,8.105,2.221,7.031,2.209
	c-0.036,0-0.073,0-0.111,0.002C5.859,2.232,4.927,2.777,4.358,3.704c-0.235,0.387-0.353,1.464-0.41,2.604
	C3.089,6.665,2.309,7.166,1.64,7.781C1.639,6.518,1.639,4.966,1.658,4.695c0.103-1.268,0.771-2.541,1.787-3.404
	C4.471,0.419,5.69-0.014,7.074,0c0.154,0.002,0.313,0.009,0.473,0.021c2.537,0.205,4.646,2.293,4.805,4.75
	c0.021,0.295,0.006,1.755-0.012,2.991C11.677,7.156,10.902,6.66,10.051,6.309z"/>
<path fill="none" d="M12.35,4.77c-0.159-2.46-2.27-4.54-4.8-4.75C7.39,0.01,7.23,0,7.07,0c-1.38-0.01-2.6,0.42-3.63,1.29
	c-1.01,0.86-1.68,2.14-1.78,3.4C1.64,4.97,1.64,6.52,1.64,7.78c0.67-0.61,1.45-1.11,2.31-1.47C4,5.17,4.12,4.09,4.36,3.7
	c0.57-0.92,1.5-1.47,2.56-1.49h0.11C8.11,2.22,9.05,2.75,9.62,3.68C9.87,4.09,10,5.16,10.05,6.31c0.851,0.35,1.63,0.85,2.29,1.45
	C12.36,6.53,12.37,5.07,12.35,4.77z M7,6.45c-3.87,0-7,3.03-7,6.78C0,16.97,3.13,20,7,20s7-3.03,7-6.78C14,9.48,10.87,6.45,7,6.45z
	 M8.28,12.06c-0.03,0.101-0.09,0.19-0.17,0.311C8,12.52,7.87,12.71,7.81,12.94C7.72,13.34,7.75,13.8,7.79,14.28
	c0.03,0.439,0.06,0.93-0.04,1.22c-0.11,0.3-0.44,0.44-0.73,0.44c-0.13,0-0.55-0.04-0.69-0.44c-0.13-0.35-0.09-0.77-0.05-1.23
	c0.04-0.42,0.07-0.85-0.01-1.27c-0.07-0.3-0.22-0.53-0.35-0.71c-0.04-0.06-0.11-0.17-0.12-0.2c-0.09-0.38-0.03-0.75,0.17-1.04
	c0.19-0.27,0.49-0.45,0.84-0.51c0.08-0.021,0.17-0.021,0.26-0.021c0.39,0,0.74,0.15,0.97,0.421C8.28,11.23,8.37,11.63,8.28,12.06z"
	/>
</svg>
