<?xml version="1.0" encoding="utf-8"?>
<!-- Generator: Adobe Illustrator 16.0.0, SVG Export Plug-In . SVG Version: 6.00 Build 0)  -->
<!DOCTYPE svg PUBLIC "-//W3C//DTD SVG 1.1//EN" "http://www.w3.org/Graphics/SVG/1.1/DTD/svg11.dtd">
<svg version="1.1" id="Layer_1" xmlns="http://www.w3.org/2000/svg" xmlns:xlink="http://www.w3.org/1999/xlink" x="0px" y="0px"
	 width="560.801px" height="393.975px" viewBox="-73.07 0 560.801 393.975" enable-background="new -73.07 0 560.801 393.975"
	 xml:space="preserve">
<g>
	<path fill="#EDEDED" d="M487.731,363.249c0,16.97-125.541,30.726-280.401,30.726c-154.859,0-280.399-13.756-280.399-30.726
		c0-16.969,125.54-30.726,280.399-30.726C362.19,332.523,487.731,346.28,487.731,363.249"/>
	<g opacity="0.15">
		<g>
			<defs>
				<rect id="SVGID_1_" x="-8.119" y="60.248" width="399.516" height="298.166"/>
			</defs>
			<clipPath id="SVGID_2_">
				<use xlink:href="#SVGID_1_"  overflow="visible"/>
			</clipPath>
			<path clip-path="url(#SVGID_2_)" d="M52.619,328.965c-0.124-0.516-0.826-0.591-1.058-0.113l-6.028,12.408
				c-0.019-0.016-0.034-0.032-0.053-0.048c-4.605-3.81-9.284-7.369-13.543-11.593c-4.468-4.431-8.487-9.294-12.113-14.432
				c-7.112-10.081-12.512-21.298-16.304-33.021c-9.085-28.084-8.284-58.574-1.454-87.039c0.478-1.987-2.503-2.814-3.058-0.844
				c-8.181,29.089-10.088,60.324-1.65,89.581c3.569,12.381,9.073,24.256,16.149,35.015c6.959,10.584,15.994,21.298,26.685,28.319
				l-9.474,6.32c-0.434,0.289-0.28,0.959,0.235,1.03l27.985,3.858c0.395,0.056,0.721-0.306,0.627-0.692L52.619,328.965z"/>
			<path clip-path="url(#SVGID_2_)" d="M376.172,123.828c-5.714-11.547-13.241-22.254-22.119-31.584
				c-8.731-9.178-19.527-18.112-31.296-23.121l8.199-7.904c0.374-0.361,0.104-0.993-0.415-0.972l-28.226,1.18
				c-0.397,0.017-0.654,0.429-0.493,0.793l11.949,27.057c0.214,0.484,0.919,0.435,1.062-0.076l3.726-13.285
				c0.021,0.012,0.038,0.027,0.061,0.039c5.208,2.929,10.447,5.601,15.387,8.999c5.186,3.565,10.007,7.636,14.487,12.048
				c8.792,8.655,16.101,18.733,21.916,29.594c13.938,26.021,18.572,56.167,16.913,85.394c-0.116,2.039,2.965,2.323,3.157,0.286
				C393.359,182.197,389.679,151.119,376.172,123.828"/>
		</g>
	</g>
	<g opacity="0.17">
		<g>
			<defs>
				<rect id="SVGID_3_" x="45.031" y="1.263" width="219.402" height="217.176"/>
			</defs>
			<clipPath id="SVGID_4_">
				<use xlink:href="#SVGID_3_"  overflow="visible"/>
			</clipPath>
			<path clip-path="url(#SVGID_4_)" d="M264.242,106.774l-11.771-5.077c-2.336-1.007-3.944-3.109-4.306-5.626
				s0.591-4.987,2.545-6.611l9.865-8.188c0.109-0.091,0.145-0.244,0.086-0.375l-14.94-32.715c-0.06-0.129-0.196-0.204-0.34-0.181
				l-12.647,2.093c-2.693,0.448-5.433-0.682-7.04-2.879c-1.376-1.879-1.762-4.235-1.057-6.463l3.872-12.221
				c0.043-0.137-0.01-0.284-0.129-0.362L198.123,8.725c-0.12-0.077-0.277-0.064-0.383,0.031l-9.509,8.599
				c-1.358,1.229-3.03,1.878-4.836,1.878c-3.334,0-6.157-2.155-7.025-5.361l-3.352-12.375c-0.036-0.138-0.162-0.233-0.304-0.233
				h-35.966c-0.143,0-0.268,0.095-0.305,0.233l-3.351,12.375c-0.868,3.206-3.691,5.361-7.025,5.361
				c-1.806,0-3.478-0.649-4.837-1.878l-9.509-8.599c-0.104-0.095-0.262-0.108-0.382-0.031L81.083,28.169
				c-0.119,0.078-0.173,0.225-0.129,0.362l3.871,12.221c0.706,2.228,0.321,4.584-1.056,6.464c-1.607,2.195-4.341,3.328-7.039,2.878
				l-12.648-2.093c-0.139-0.023-0.279,0.051-0.34,0.181l-14.94,32.715c-0.06,0.13-0.024,0.283,0.086,0.375l9.864,8.188
				c1.956,1.624,2.907,4.094,2.546,6.611c-0.362,2.517-1.972,4.619-4.305,5.626l-11.772,5.077c-0.13,0.057-0.208,0.194-0.188,0.335
				l5.118,35.6c0.021,0.141,0.133,0.251,0.275,0.268l12.725,1.556c2.523,0.309,4.66,1.872,5.715,4.184
				c1.057,2.313,0.84,4.953-0.579,7.061l-7.158,10.636c-0.08,0.118-0.069,0.275,0.022,0.383l23.553,27.18
				c0.093,0.107,0.247,0.139,0.376,0.078l11.547-5.571c1.004-0.485,2.064-0.73,3.15-0.73c1.935,0,3.83,0.802,5.201,2.204
				c1.362,1.392,2.09,3.242,2.048,5.21l-0.271,12.817c-0.003,0.142,0.09,0.27,0.227,0.31l34.51,10.133
				c0.139,0.039,0.283-0.016,0.357-0.137l6.701-10.93c1.329-2.168,3.64-3.461,6.182-3.461s4.852,1.293,6.18,3.461l6.701,10.93
				c0.059,0.095,0.162,0.149,0.27,0.149c0.03,0,0.06-0.005,0.089-0.013l34.509-10.133c0.137-0.04,0.23-0.168,0.228-0.31
				l-0.271-12.817c-0.042-1.968,0.686-3.818,2.048-5.21c1.371-1.401,3.267-2.204,5.201-2.204c1.086,0,2.146,0.245,3.151,0.73
				l11.545,5.571c0.128,0.062,0.282,0.03,0.377-0.078l23.551-27.18c0.095-0.108,0.104-0.265,0.025-0.383l-7.158-10.636
				c-1.419-2.108-1.637-4.748-0.58-7.061c1.056-2.312,3.191-3.875,5.714-4.184l12.726-1.556c0.141-0.017,0.254-0.127,0.275-0.268
				l5.117-35.6C264.45,106.968,264.373,106.83,264.242,106.774 M154.732,161.706c-28.639,0-51.855-23.217-51.855-51.855
				c0-28.638,23.217-51.854,51.855-51.854c28.638,0,51.854,23.216,51.854,51.854C206.585,138.49,183.37,161.706,154.732,161.706"/>
		</g>
	</g>
	<path fill="#232020" d="M258.554,105.51l-11.773-5.077c-2.333-1.007-3.943-3.11-4.304-5.626c-0.362-2.516,0.591-4.987,2.545-6.61
		l9.864-8.189c0.11-0.091,0.146-0.244,0.087-0.375l-14.942-32.715c-0.059-0.128-0.194-0.204-0.339-0.18l-12.646,2.093
		c-2.693,0.447-5.433-0.683-7.042-2.879c-1.376-1.879-1.761-4.236-1.054-6.464l3.871-12.221c0.043-0.137-0.01-0.285-0.13-0.362
		L192.434,7.461c-0.119-0.077-0.276-0.064-0.383,0.032l-9.508,8.598c-1.358,1.229-3.031,1.878-4.836,1.878
		c-3.334,0-6.157-2.154-7.026-5.361l-3.351-12.375C167.293,0.095,167.168,0,167.026,0h-35.965c-0.143,0-0.268,0.096-0.305,0.233
		l-3.351,12.375c-0.868,3.207-3.692,5.361-7.026,5.361c-1.805,0-3.478-0.649-4.836-1.878l-9.509-8.598
		c-0.105-0.096-0.263-0.109-0.382-0.032L75.397,26.905c-0.12,0.077-0.174,0.225-0.13,0.362l3.87,12.221
		c0.706,2.228,0.322,4.584-1.054,6.464c-1.608,2.195-4.342,3.328-7.041,2.879l-12.647-2.093c-0.14-0.023-0.28,0.05-0.34,0.18
		l-14.94,32.715c-0.06,0.13-0.023,0.283,0.085,0.375l9.865,8.189c1.955,1.623,2.907,4.094,2.546,6.61
		c-0.362,2.517-1.972,4.619-4.306,5.626l-11.772,5.077c-0.13,0.057-0.207,0.193-0.188,0.335l5.119,35.6
		c0.021,0.141,0.133,0.251,0.274,0.269l12.726,1.555c2.523,0.308,4.659,1.872,5.715,4.184c1.056,2.313,0.84,4.953-0.58,7.061
		l-7.158,10.635c-0.079,0.119-0.069,0.276,0.024,0.384l23.552,27.181c0.093,0.107,0.246,0.139,0.375,0.078l11.548-5.571
		c1.004-0.484,2.063-0.73,3.15-0.73c1.934,0,3.829,0.803,5.2,2.204c1.363,1.392,2.09,3.242,2.049,5.21l-0.272,12.817
		c-0.003,0.144,0.091,0.271,0.228,0.311l34.509,10.133c0.139,0.039,0.284-0.018,0.359-0.139l6.7-10.93
		c1.329-2.166,3.639-3.459,6.181-3.459s4.854,1.293,6.181,3.459l6.702,10.93c0.057,0.095,0.16,0.151,0.269,0.151
		c0.029,0,0.059-0.005,0.089-0.013l34.509-10.133c0.138-0.04,0.23-0.167,0.228-0.311l-0.271-12.817
		c-0.043-1.968,0.685-3.818,2.047-5.21c1.371-1.4,3.267-2.204,5.201-2.204c1.086,0,2.146,0.246,3.151,0.73l11.547,5.571
		c0.128,0.061,0.281,0.03,0.376-0.078l23.552-27.181c0.093-0.107,0.104-0.265,0.023-0.384l-7.157-10.635
		c-1.421-2.108-1.637-4.748-0.58-7.061c1.056-2.312,3.191-3.876,5.714-4.184l12.726-1.555c0.143-0.018,0.254-0.127,0.274-0.269
		l5.118-35.6C258.761,105.703,258.683,105.567,258.554,105.51 M149.043,160.442c-28.639,0-51.855-23.216-51.855-51.854
		c0-28.639,23.217-51.855,51.855-51.855s51.854,23.216,51.854,51.855C200.898,137.226,177.682,160.442,149.043,160.442"/>
	<path fill="#232020" d="M353.595,303.754l-6.959-7.594c-1.381-1.506-1.869-3.577-1.308-5.54c0.563-1.964,2.073-3.463,4.042-4.009
		l9.925-2.759c0.11-0.03,0.187-0.131,0.185-0.246l-0.192-28.896c0-0.113-0.076-0.214-0.189-0.244l-9.96-2.624
		c-2.121-0.559-3.758-2.288-4.216-4.427c-0.39-1.83,0.104-3.685,1.354-5.086l6.857-7.686c0.076-0.086,0.087-0.212,0.023-0.308
		l-15.784-24.204c-0.063-0.097-0.182-0.14-0.291-0.104l-9.799,3.177c-1.4,0.454-2.84,0.38-4.163-0.213
		c-2.443-1.097-3.805-3.604-3.387-6.241l1.613-10.173c0.02-0.114-0.043-0.225-0.146-0.272l-26.365-11.828
		c-0.104-0.047-0.229-0.018-0.301,0.071l-6.525,7.97c-1.691,2.065-4.47,2.715-6.913,1.619c-1.324-0.593-2.337-1.62-2.928-2.967
		l-4.143-9.43c-0.047-0.105-0.157-0.166-0.271-0.149l-28.574,4.304c-0.115,0.017-0.201,0.108-0.215,0.223l-1.182,10.231
		c-0.215,1.866-1.272,3.467-2.9,4.392c-1.9,1.08-4.275,1.013-6.106-0.206l-8.585-5.693c-0.093-0.063-0.221-0.055-0.306,0.02
		l-21.713,19.069c-0.086,0.076-0.11,0.201-0.061,0.303l4.538,9.248c0.899,1.833,0.784,3.957-0.308,5.684
		c-1.093,1.726-2.965,2.737-5.006,2.708l-10.301-0.15c-0.113-0.002-0.216,0.074-0.247,0.185l-7.956,27.78
		c-0.031,0.109,0.016,0.229,0.113,0.288l8.817,5.324c1.748,1.056,2.799,2.905,2.813,4.947c0.015,2.042-1.013,3.905-2.747,4.986
		l-8.745,5.44c-0.098,0.062-0.142,0.18-0.108,0.288l8.325,27.671c0.033,0.11,0.136,0.184,0.25,0.182l10.298-0.286
		c0.896-0.025,1.753,0.143,2.55,0.5c1.418,0.636,2.543,1.849,3.087,3.327c0.541,1.468,0.466,3.063-0.211,4.492l-4.415,9.307
		c-0.05,0.104-0.023,0.228,0.064,0.302l21.966,18.777c0.087,0.074,0.212,0.081,0.308,0.017l8.506-5.809
		c1.688-1.15,3.807-1.339,5.669-0.503c1.863,0.836,3.132,2.544,3.393,4.569l1.319,10.216c0.012,0.089,0.068,0.163,0.146,0.2
		c0.022,0.009,0.046,0.015,0.071,0.018l28.63,3.923c0.113,0.016,0.224-0.047,0.268-0.152l4.017-9.485
		c0.615-1.456,1.758-2.574,3.214-3.146c1.466-0.575,3.12-0.54,4.538,0.095c0.796,0.357,1.491,0.887,2.069,1.572l6.633,7.882
		c0.072,0.087,0.197,0.115,0.3,0.066l26.205-12.18c0.104-0.047,0.162-0.159,0.143-0.272l-1.748-10.151
		c-0.348-2.013,0.36-4.019,1.896-5.366s3.615-1.792,5.567-1.188l9.84,3.045c0.108,0.033,0.229-0.011,0.288-0.107l15.46-24.413
		C353.684,303.965,353.673,303.839,353.595,303.754 M255.25,308.007c-20.994-9.419-30.378-34.072-20.96-55.066
		c9.419-20.994,34.074-30.379,55.069-20.959c20.994,9.418,30.376,34.073,20.957,55.066
		C300.898,308.042,276.245,317.426,255.25,308.007"/>
	<path fill="#F7F7F7" d="M173.898,299.17l-4.453-4.859c-0.883-0.963-1.196-2.289-0.836-3.545c0.359-1.257,1.326-2.216,2.586-2.565
		l6.351-1.766c0.07-0.019,0.119-0.084,0.119-0.157l-0.124-18.49c-0.001-0.072-0.049-0.137-0.121-0.155l-6.374-1.68
		c-1.357-0.357-2.404-1.465-2.696-2.832c-0.25-1.173,0.065-2.357,0.865-3.256l4.389-4.917c0.049-0.055,0.055-0.136,0.015-0.197
		l-10.101-15.488c-0.04-0.063-0.117-0.089-0.187-0.065l-6.27,2.031c-0.896,0.291-1.817,0.243-2.664-0.137
		c-1.563-0.701-2.435-2.307-2.167-3.993l1.032-6.51c0.012-0.073-0.027-0.145-0.094-0.175l-16.871-7.568
		c-0.066-0.03-0.146-0.011-0.192,0.046l-4.176,5.1c-1.082,1.32-2.859,1.737-4.424,1.035c-0.847-0.379-1.495-1.036-1.874-1.898
		l-2.65-6.035c-0.029-0.065-0.101-0.105-0.173-0.095l-18.285,2.754c-0.072,0.011-0.129,0.068-0.137,0.143l-0.756,6.547
		c-0.138,1.194-0.814,2.22-1.855,2.811c-1.217,0.691-2.737,0.647-3.909-0.131l-5.492-3.645c-0.06-0.039-0.142-0.034-0.197,0.015
		l-13.894,12.201c-0.056,0.05-0.071,0.128-0.038,0.194l2.903,5.917c0.576,1.172,0.503,2.532-0.196,3.637
		c-0.7,1.104-1.897,1.752-3.204,1.732l-6.59-0.095c-0.073-0.001-0.139,0.047-0.159,0.118l-5.09,17.776
		c-0.021,0.069,0.009,0.145,0.071,0.184l5.643,3.407c1.118,0.676,1.791,1.858,1.8,3.165s-0.648,2.5-1.758,3.189l-5.596,3.483
		c-0.063,0.039-0.092,0.114-0.07,0.185l5.328,17.707c0.021,0.069,0.087,0.117,0.16,0.116l6.589-0.185
		c0.572-0.016,1.122,0.092,1.632,0.32c0.906,0.407,1.627,1.184,1.976,2.129c0.346,0.939,0.298,1.96-0.137,2.874l-2.824,5.956
		c-0.032,0.066-0.015,0.146,0.041,0.192l14.056,12.016c0.057,0.049,0.137,0.054,0.197,0.012l5.443-3.717
		c1.079-0.736,2.436-0.856,3.628-0.321c1.192,0.534,2.004,1.627,2.171,2.924l0.844,6.536c0.008,0.059,0.044,0.104,0.094,0.127
		c0.015,0.007,0.029,0.011,0.045,0.013l18.32,2.51c0.073,0.011,0.144-0.03,0.172-0.098l2.569-6.069
		c0.396-0.933,1.126-1.646,2.058-2.013c0.938-0.369,1.997-0.346,2.904,0.062c0.509,0.227,0.955,0.566,1.324,1.006l4.243,5.042
		c0.047,0.056,0.126,0.074,0.193,0.044l16.768-7.794c0.066-0.03,0.104-0.103,0.093-0.176l-1.119-6.495
		c-0.223-1.288,0.231-2.572,1.213-3.434c0.982-0.863,2.313-1.147,3.562-0.76l6.297,1.948c0.069,0.021,0.146-0.007,0.185-0.069
		l9.894-15.622C173.955,299.304,173.947,299.223,173.898,299.17 M110.967,301.891c-13.435-6.028-19.439-21.805-13.412-35.237
		c6.027-13.435,21.804-19.439,35.238-13.412s19.438,21.804,13.412,35.237C140.177,301.913,124.401,307.918,110.967,301.891"/>
	<g opacity="0.07">
		<g>
			<defs>
				<rect id="SVGID_5_" x="39.343" y="67.541" width="264.565" height="290.324"/>
			</defs>
			<clipPath id="SVGID_6_">
				<use xlink:href="#SVGID_5_"  overflow="visible"/>
			</clipPath>
			<path clip-path="url(#SVGID_6_)" d="M125.229,154.646c-10.751-5.571-19.309-14.783-24.021-26.015
				c-0.026-0.03-0.054-0.059-0.079-0.088c-17.992-19.908-35.563-40.19-52.491-61.002l-5.522,12.092
				c-0.06,0.13-0.024,0.283,0.086,0.375l9.864,8.189c1.955,1.623,2.907,4.094,2.546,6.61c-0.362,2.516-1.972,4.62-4.306,5.626
				l-11.771,5.077c-0.132,0.056-0.208,0.194-0.188,0.335l5.118,35.599c0.021,0.141,0.133,0.251,0.274,0.269l12.726,1.555
				c2.522,0.309,4.659,1.872,5.715,4.185c1.056,2.312,0.84,4.952-0.58,7.061l-7.157,10.635c-0.08,0.118-0.07,0.276,0.022,0.383
				l23.552,27.181c0.094,0.107,0.248,0.139,0.376,0.078l11.547-5.571c1.005-0.484,2.065-0.731,3.151-0.731
				c1.934,0,3.829,0.804,5.201,2.205c1.362,1.391,2.09,3.242,2.047,5.21l-0.271,12.817c-0.003,0.144,0.09,0.271,0.227,0.311
				l34.509,10.133c0.14,0.039,0.284-0.018,0.358-0.139l6.701-10.93c1.328-2.166,3.639-3.459,6.181-3.459s4.854,1.293,6.182,3.459
				l6.7,10.93c0.058,0.095,0.161,0.151,0.27,0.151c0.029,0,0.06-0.005,0.089-0.013l17.356-5.097
				C161.584,192.844,143.275,173.871,125.229,154.646"/>
			<path clip-path="url(#SVGID_6_)" d="M269.241,311.552c-4.708-0.347-9.436-1.502-13.99-3.546
				c-16.108-7.227-25.368-23.422-24.558-40.052c-10.828-12.127-21.724-24.191-32.725-36.161l-4.93-0.072
				c-0.115-0.002-0.217,0.075-0.248,0.185l-7.956,27.781c-0.031,0.108,0.015,0.227,0.113,0.287l8.816,5.324
				c1.748,1.056,2.801,2.904,2.814,4.947c0.013,2.042-1.014,3.906-2.748,4.986l-8.745,5.44c-0.097,0.061-0.142,0.18-0.108,0.288
				l8.326,27.671c0.032,0.11,0.135,0.184,0.249,0.182l10.297-0.286c0.896-0.025,1.755,0.144,2.551,0.5
				c1.418,0.636,2.543,1.849,3.088,3.326c0.54,1.469,0.465,3.063-0.212,4.493l-4.415,9.307c-0.049,0.104-0.022,0.228,0.064,0.302
				l21.966,18.777c0.088,0.074,0.213,0.082,0.308,0.017l8.506-5.809c1.688-1.15,3.807-1.339,5.669-0.503
				c1.863,0.836,3.132,2.544,3.393,4.569l1.319,10.216c0.012,0.089,0.068,0.163,0.146,0.2c0.022,0.009,0.044,0.015,0.069,0.018
				l28.632,3.923c0.113,0.016,0.224-0.047,0.268-0.152l4.016-9.485c0.616-1.456,1.759-2.574,3.215-3.146
				c1.466-0.575,3.12-0.54,4.538,0.096c0.796,0.356,1.492,0.886,2.069,1.571l6.631,7.882c0.075,0.087,0.199,0.115,0.302,0.066
				l7.938-3.688C292.333,337.873,280.795,324.705,269.241,311.552"/>
			<path clip-path="url(#SVGID_6_)" d="M135.059,300.738c-7.135,4.05-16.034,4.769-24.093,1.153
				c-13.434-6.028-19.438-21.803-13.411-35.237c0.922-2.055,2.073-3.934,3.408-5.624c-6.355-7.505-12.677-15.04-18.958-22.608
				l-3.722,3.27c-0.057,0.049-0.072,0.128-0.04,0.194l2.904,5.918c0.576,1.172,0.503,2.531-0.196,3.636
				c-0.7,1.104-1.897,1.752-3.204,1.733l-6.59-0.096c-0.073-0.002-0.139,0.047-0.159,0.117l-5.091,17.776
				c-0.021,0.071,0.01,0.146,0.072,0.184l5.642,3.409c1.12,0.675,1.792,1.857,1.801,3.164c0.01,1.307-0.648,2.5-1.758,3.189
				l-5.596,3.483c-0.063,0.038-0.092,0.115-0.07,0.185l5.328,17.707c0.021,0.069,0.086,0.117,0.16,0.115l6.588-0.183
				c0.573-0.017,1.123,0.092,1.632,0.319c0.907,0.408,1.628,1.183,1.977,2.13c0.346,0.938,0.298,1.959-0.136,2.873l-2.825,5.956
				c-0.031,0.066-0.015,0.146,0.041,0.192l14.056,12.017c0.057,0.048,0.137,0.052,0.196,0.011l5.444-3.716
				c1.079-0.737,2.436-0.858,3.628-0.323s2.004,1.628,2.171,2.924l0.844,6.538c0.007,0.057,0.043,0.104,0.094,0.127
				c0.015,0.006,0.029,0.011,0.046,0.013l18.319,2.509c0.073,0.011,0.143-0.03,0.172-0.097l2.569-6.07
				c0.396-0.933,1.127-1.646,2.058-2.014c0.938-0.367,1.997-0.346,2.904,0.062c0.509,0.229,0.955,0.566,1.324,1.006l4.243,5.043
				c0.048,0.056,0.127,0.073,0.192,0.043l16.769-7.794c0.066-0.03,0.104-0.102,0.093-0.174l-0.321-1.862
				C147.381,314.884,141.211,307.819,135.059,300.738"/>
		</g>
	</g>
	<path fill="#EB1A21" d="M52.619,322.585c-0.124-0.515-0.826-0.59-1.058-0.113l-6.028,12.409c-0.019-0.016-0.034-0.033-0.053-0.049
		c-4.605-3.809-9.284-7.369-13.543-11.592c-4.468-4.431-8.487-9.294-12.113-14.432C12.711,298.727,7.312,287.51,3.52,275.788
		c-9.085-28.085-8.284-58.574-1.454-87.04c0.478-1.986-2.503-2.814-3.058-0.843c-8.181,29.088-10.088,60.325-1.65,89.583
		c3.569,12.379,9.073,24.254,16.149,35.014c6.959,10.585,15.994,21.297,26.685,28.318l-9.474,6.32
		c-0.434,0.288-0.28,0.96,0.235,1.03l27.985,3.858c0.395,0.056,0.721-0.305,0.627-0.692L52.619,322.585z"/>
	<path fill="#EB1A21" d="M376.172,117.449c-5.714-11.547-13.241-22.254-22.119-31.583c-8.731-9.178-19.527-18.112-31.296-23.121
		l8.199-7.904c0.374-0.361,0.104-0.993-0.415-0.972l-28.226,1.18c-0.397,0.017-0.654,0.429-0.493,0.793l11.949,27.056
		c0.214,0.485,0.919,0.435,1.062-0.075l3.726-13.283c0.021,0.012,0.038,0.025,0.061,0.038c5.208,2.929,10.447,5.601,15.387,8.998
		c5.186,3.565,10.007,7.637,14.487,12.048c8.792,8.655,16.101,18.732,21.916,29.594c13.938,26.021,18.572,56.167,16.913,85.393
		c-0.116,2.04,2.965,2.324,3.157,0.287C393.359,175.817,389.679,144.74,376.172,117.449"/>
	<polygon fill="#EB1A21" points="83.059,348.518 77.101,370.55 96.466,372.316 100.536,351.344 	"/>
	<path fill="#2B3940" d="M97.029,370.521c-0.006,0.073-1.091,0.048-2.836-0.096c-1.745-0.14-4.148-0.406-6.794-0.745
		c-2.55-0.343-4.856-0.652-6.769-0.909c-1.73-0.242-2.801-0.407-2.793-0.484c0.006-0.071,1.09-0.041,2.835,0.105
		c1.745,0.144,4.148,0.413,6.794,0.753c2.549,0.339,4.854,0.646,6.768,0.901C95.964,370.286,97.036,370.445,97.029,370.521"/>
	<polyline fill="#BC181C" points="77.102,370.55 96.466,372.317 96.779,370.701 77.662,368.272 77.122,370.33 	"/>
	<rect x="77.101" y="368.271" fill="none" width="19.679" height="4.045"/>
	<path fill="#2B3940" d="M86.722,369.569c-0.122-0.03,0.702-3.81,1.841-8.44c1.14-4.634,2.161-8.363,2.283-8.333
		c0.121,0.03-0.702,3.809-1.842,8.441C87.867,365.868,86.843,369.598,86.722,369.569"/>
	<path fill="#2B3940" d="M95.958,370.379c-0.119-0.005,0.616-1.581,0.044-4.095c-0.295-1.227-0.939-2.652-2.119-3.834
		c-1.162-1.189-2.905-2.018-4.819-2.214c-1.918-0.185-3.785,0.277-5.187,1.179c-1.419,0.888-2.394,2.104-3.016,3.203
		c-1.232,2.26-1.112,3.958-1.223,3.93c-0.016-0.001-0.024-0.1-0.027-0.292c-0.011-0.192,0.006-0.475,0.045-0.839
		c0.081-0.725,0.324-1.774,0.922-2.951c0.606-1.159,1.594-2.45,3.074-3.403c1.465-0.971,3.438-1.474,5.456-1.278
		c2.015,0.204,3.856,1.096,5.073,2.371c1.23,1.268,1.868,2.776,2.135,4.061c0.255,1.297,0.165,2.38,0.006,3.092
		c-0.083,0.357-0.161,0.629-0.238,0.807C96.016,370.294,95.973,370.384,95.958,370.379"/>
	<path fill="#EB1A21" d="M163.017,342.606l-1.297,19.574c0,0,19.481,6.465,19.594,10.104l-38.063,0.276l0.769-30.581
		L163.017,342.606z"/>
	<path fill="#BC181C" d="M150.007,360.176c-0.742,0.18-1.276,0.992-1.128,1.741s0.97,1.298,1.715,1.133
		c0.746-0.165,1.416-1.122,1.186-1.85c-0.231-0.728-1.231-1.32-1.915-0.98"/>
	<rect x="148.855" y="360.121" fill="none" width="2.971" height="2.959"/>
	<path fill="#BC181C" d="M143.251,372.561l0.078-3.083l36.762,1.016c0,0,1.223,0.527,1.416,2.067H143.251z"/>
	<rect x="143.251" y="369.478" fill="none" width="38.256" height="3.083"/>
	<path fill="#EB1A21" d="M162.343,362.005c-0.013,0.186-0.943,0.242-1.876,0.812c-0.947,0.547-1.442,1.336-1.611,1.257
		c-0.17-0.041,0.141-1.143,1.281-1.813C161.272,361.581,162.388,361.836,162.343,362.005"/>
	<path fill="#EB1A21" d="M166.283,363.776c0.037,0.182-0.777,0.473-1.432,1.24c-0.677,0.747-0.861,1.592-1.047,1.577
		c-0.175,0.025-0.271-1.067,0.562-2.006C165.189,363.643,166.284,363.599,166.283,363.776"/>
	<path fill="#EB1A21" d="M168.405,368.62c-0.171,0.034-0.4-0.901,0.107-1.903c0.5-1.007,1.388-1.382,1.462-1.225
		c0.101,0.156-0.48,0.684-0.884,1.514C168.667,367.826,168.589,368.607,168.405,368.62"/>
	<path fill="#2B3940" d="M162.143,357.511c-0.083,0.168-0.927-0.114-1.979-0.076c-1.053,0.02-1.88,0.347-1.972,0.186
		c-0.104-0.139,0.714-0.803,1.954-0.831C161.385,356.751,162.239,357.369,162.143,357.511"/>
	<path fill="#2B3940" d="M162.332,353.558c0,0.077-0.737,0.17-1.904-0.068c-0.581-0.118-1.263-0.329-1.975-0.672
		c-0.355-0.172-0.719-0.375-1.076-0.614c-0.172-0.118-0.377-0.237-0.562-0.466c-0.2-0.199-0.303-0.695-0.056-0.99
		c0.203-0.285,0.552-0.402,0.826-0.4c0.281-0.001,0.507,0.063,0.712,0.121c0.421,0.116,0.813,0.269,1.172,0.442
		c0.717,0.353,1.294,0.788,1.722,1.205c0.858,0.845,1.139,1.548,1.073,1.583c-0.085,0.059-0.497-0.536-1.376-1.239
		c-0.437-0.349-0.998-0.712-1.669-1.008c-0.337-0.146-0.699-0.273-1.083-0.371c-0.4-0.117-0.743-0.131-0.852,0.045
		c-0.039,0.067-0.046,0.094,0.035,0.216c0.084,0.11,0.243,0.223,0.413,0.34c0.329,0.229,0.662,0.43,0.988,0.605
		c0.654,0.348,1.281,0.593,1.82,0.761C161.623,353.385,162.338,353.457,162.332,353.558"/>
	<path fill="#2B3940" d="M162.082,353.817c-0.066,0.026-0.415-0.65-0.446-1.855c-0.014-0.598,0.07-1.319,0.323-2.078
		c0.128-0.379,0.299-0.765,0.52-1.142c0.234-0.37,0.521-0.865,1.244-0.926c0.377-0.003,0.682,0.302,0.78,0.556
		c0.117,0.261,0.137,0.482,0.174,0.704c0.058,0.447,0.036,0.882-0.037,1.283c-0.145,0.806-0.496,1.47-0.873,1.943
		c-0.773,0.964-1.556,1.162-1.569,1.099c-0.059-0.095,0.6-0.435,1.197-1.364c0.295-0.459,0.563-1.066,0.656-1.771
		c0.048-0.352,0.054-0.726-0.001-1.103c-0.047-0.406-0.189-0.736-0.342-0.699c-0.189-0.009-0.521,0.285-0.686,0.604
		c-0.205,0.335-0.372,0.68-0.503,1.018c-0.26,0.68-0.383,1.336-0.427,1.891C162.006,353.09,162.183,353.791,162.082,353.817"/>
	<polygon fill="#333132" points="163.018,172.563 105.023,172.126 76.998,356.192 101.067,359.246 131.915,207.9 141.147,359.784 
		141.17,360.236 167.201,359.782 	"/>
	<path fill="#232020" d="M136.639,187.479c-0.018-0.018,0.4-0.043,1.199-0.078c0.869-0.032,2.037-0.075,3.488-0.128
		c3.107-0.088,7.419-0.21,12.534-0.355l0.237-0.007l0.001,0.241c0.01,3.637,0.02,7.705,0.029,12.022l0.001,0.115l-0.086,0.079
		c-0.696,0.64-1.436,1.32-2.183,2.007c-2.233,2.047-4.394,4.027-6.436,5.898l-0.171,0.156l-0.172-0.153
		c-3.189-2.843-6.099-5.437-8.579-7.646l-0.071-0.063l0.002-0.091c0.044-3.657,0.081-6.659,0.108-8.821
		c0.021-0.984,0.038-1.774,0.052-2.377C136.611,187.74,136.625,187.464,136.639,187.479c0.016,0.015,0.03,0.319,0.046,0.879
		c0.014,0.615,0.03,1.421,0.052,2.422c0.027,2.131,0.063,5.091,0.108,8.696l-0.069-0.155c2.499,2.189,5.432,4.758,8.646,7.573
		l-0.342,0.003c2.037-1.876,4.193-3.86,6.421-5.912c0.749-0.688,1.489-1.366,2.186-2.005l-0.085,0.194
		c0.01-4.317,0.02-8.385,0.029-12.022l0.238,0.235c-5.055,0.048-9.316,0.088-12.388,0.117c-1.475,0.002-2.66,0.004-3.544,0.006
		c-0.378-0.005-0.69-0.008-0.952-0.011C136.766,187.495,136.649,187.488,136.639,187.479"/>
	<path fill="#232020" d="M109.345,186.682c-0.016-0.02,0.356,0,1.07,0.054c0.783,0.064,1.826,0.149,3.12,0.254
		c2.794,0.253,6.664,0.604,11.279,1.023l0.233,0.021l-0.029,0.236c-0.424,3.557-0.908,7.612-1.426,11.938l-0.012,0.105l-0.085,0.068
		c-0.799,0.637-1.645,1.313-2.501,1.996c-2.134,1.698-4.201,3.344-6.168,4.908l-0.201,0.161l-0.159-0.201
		c-2.491-3.151-4.777-6.04-6.742-8.524l-0.057-0.071l0.012-0.086c0.488-3.608,0.889-6.584,1.179-8.734
		c0.142-0.972,0.255-1.757,0.343-2.358C109.284,186.938,109.332,186.665,109.345,186.682s-0.009,0.322-0.062,0.883
		c-0.063,0.616-0.142,1.42-0.242,2.417c-0.232,2.124-0.554,5.065-0.944,8.633l-0.045-0.156c1.987,2.469,4.298,5.338,6.816,8.467
		l-0.36-0.042c1.963-1.568,4.026-3.218,6.156-4.923c0.857-0.682,1.704-1.356,2.503-1.993l-0.098,0.175
		c0.541-4.323,1.049-8.374,1.493-11.929l0.205,0.257c-4.545-0.508-8.358-0.934-11.11-1.241c-1.311-0.157-2.366-0.284-3.159-0.379
		C109.762,186.759,109.36,186.7,109.345,186.682"/>
	<path fill="#232020" d="M144.828,214.62c-0.038,0.065-1.033-0.443-2.629-1.277c-1.597-0.836-3.802-1.986-6.259-3.214
		c-2.459-1.226-4.705-2.294-6.333-3.067c-1.627-0.773-2.631-1.262-2.602-1.332c0.027-0.064,1.084,0.303,2.754,0.99
		c1.67,0.686,3.95,1.705,6.417,2.935c2.467,1.23,4.651,2.439,6.205,3.359C143.935,213.935,144.863,214.558,144.828,214.62"/>
	<path fill="#232020" d="M144.082,219.089c-0.022,0.058-0.807-0.157-1.979-0.743c-1.17-0.585-2.704-1.588-4.136-2.994
		c-1.43-1.411-2.455-2.931-3.056-4.091c-0.605-1.164-0.832-1.944-0.774-1.967c0.153-0.082,1.386,2.94,4.202,5.68
		C141.121,217.749,144.162,218.934,144.082,219.089"/>
	<path fill="#232020" d="M160.453,272.275c0.03,0.011-0.046,0.358-0.263,0.962c-0.214,0.604-0.6,1.457-1.209,2.436
		c-1.193,1.949-3.485,4.387-6.769,5.775c-3.287,1.384-6.633,1.323-8.861,0.819c-1.126-0.246-2.006-0.564-2.589-0.833
		c-0.584-0.266-0.886-0.453-0.871-0.482c0.038-0.096,1.31,0.558,3.53,0.947c2.195,0.398,5.421,0.392,8.585-0.941
		c3.161-1.336,5.416-3.643,6.66-5.492C159.938,273.604,160.357,272.236,160.453,272.275"/>
	<path fill="#232020" d="M156.64,270.707c0.026,0.055-0.785,0.519-2.216,0.979c-1.426,0.467-3.48,0.87-5.769,0.953
		c-2.289,0.096-4.354-0.119-5.829-0.344c-1.475-0.235-2.367-0.479-2.355-0.543c0.025-0.183,3.659,0.522,8.163,0.355
		c2.247-0.081,4.262-0.416,5.687-0.783C155.75,270.966,156.606,270.629,156.64,270.707"/>
	<path fill="#232020" d="M113.521,271.802c0.04,0.044-0.67,0.812-2.018,1.829c-1.343,1.016-3.36,2.231-5.779,3.134
		c-2.423,0.898-4.744,1.301-6.425,1.408c-1.684,0.113-2.723-0.004-2.721-0.063c0.001-0.086,1.036-0.105,2.685-0.311
		c1.646-0.203,3.904-0.652,6.275-1.531c2.368-0.887,4.371-2.022,5.748-2.945C112.668,272.4,113.463,271.736,113.521,271.802"/>
	<path fill="#232020" d="M108.437,271.578c0.032,0.129-2.347,0.684-5.319,0.437c-2.974-0.227-5.233-1.15-5.182-1.272
		c0.048-0.153,2.327,0.523,5.225,0.743C106.055,271.727,108.414,271.42,108.437,271.578"/>
	<path fill="#232020" d="M131.569,209.171c0.025,0.059-0.947,0.564-2.607,1.182c-1.658,0.617-4.019,1.306-6.691,1.735
		c-2.675,0.427-5.132,0.509-6.9,0.439c-1.77-0.066-2.852-0.244-2.846-0.308c0.006-0.081,1.096-0.038,2.849-0.067
		c1.754-0.027,4.174-0.168,6.813-0.587c2.638-0.426,4.98-1.048,6.654-1.568C130.516,209.475,131.537,209.094,131.569,209.171"/>
	<path fill="#232020" d="M129.987,203.228c0.146-0.001,0.271,0.454,0.278,1.017c0.008,0.563-0.104,1.02-0.252,1.021
		c-0.146,0.004-0.271-0.451-0.278-1.016C129.727,203.687,129.84,203.229,129.987,203.228"/>
	<path fill="#232020" d="M129.992,199.151c0.146,0.001,0.263,0.458,0.259,1.02c-0.004,0.563-0.125,1.02-0.271,1.02
		s-0.263-0.457-0.259-1.021C129.723,199.604,129.845,199.149,129.992,199.151"/>
	<path fill="#232020" d="M130.076,195.074c0.146,0.004,0.253,0.463,0.238,1.025c-0.014,0.563-0.145,1.015-0.291,1.012
		c-0.146-0.003-0.254-0.462-0.238-1.026C129.798,195.522,129.928,195.07,130.076,195.074"/>
	<path fill="#232020" d="M130.238,191c0.146,0.007,0.245,0.469,0.221,1.03c-0.026,0.562-0.166,1.012-0.312,1.007
		c-0.146-0.006-0.245-0.467-0.22-1.031C129.952,191.443,130.091,190.992,130.238,191"/>
	<path fill="#232020" d="M130.48,186.929c0.146,0.01,0.235,0.473,0.199,1.035c-0.036,0.56-0.184,1.008-0.33,1
		s-0.236-0.472-0.199-1.034C130.186,187.367,130.333,186.919,130.48,186.929"/>
	<path fill="#232020" d="M130.8,182.865c0.146,0.013,0.227,0.478,0.18,1.038c-0.047,0.561-0.204,1.004-0.35,0.994
		c-0.146-0.012-0.227-0.476-0.18-1.039C130.499,183.296,130.654,182.851,130.8,182.865"/>
	<path fill="#232020" d="M131.123,179.535c0.146,0.016,0.234,0.318,0.198,0.677c-0.037,0.359-0.185,0.638-0.33,0.624
		c-0.146-0.014-0.235-0.318-0.198-0.677C130.829,179.799,130.977,179.52,131.123,179.535"/>
	<path fill="#232020" d="M98.336,355.209c0.144,0.028,0.17,0.5,0.06,1.052s-0.316,0.976-0.46,0.947s-0.171-0.5-0.061-1.052
		S98.192,355.18,98.336,355.209"/>
	<path fill="#232020" d="M99.135,351.211c0.145,0.029,0.172,0.499,0.061,1.052c-0.109,0.552-0.316,0.976-0.46,0.947
		s-0.171-0.5-0.061-1.052S98.993,351.181,99.135,351.211"/>
	<path fill="#232020" d="M99.935,347.213c0.145,0.028,0.171,0.499,0.061,1.052c-0.11,0.552-0.316,0.977-0.46,0.946
		c-0.144-0.028-0.171-0.498-0.061-1.051C99.585,347.608,99.792,347.183,99.935,347.213"/>
	<path fill="#232020" d="M100.735,343.215c0.145,0.028,0.171,0.5,0.061,1.053c-0.11,0.551-0.316,0.975-0.461,0.946
		c-0.143-0.029-0.17-0.5-0.06-1.052C100.385,343.609,100.591,343.185,100.735,343.215"/>
	<path fill="#232020" d="M101.535,339.217c0.145,0.028,0.172,0.5,0.061,1.053c-0.11,0.551-0.316,0.975-0.46,0.946
		s-0.171-0.5-0.061-1.051C101.185,339.612,101.392,339.188,101.535,339.217"/>
	<path fill="#232020" d="M102.335,335.219c0.143,0.029,0.171,0.499,0.06,1.052c-0.11,0.552-0.316,0.976-0.46,0.947
		s-0.171-0.5-0.061-1.051C101.985,335.614,102.192,335.19,102.335,335.219"/>
	<path fill="#232020" d="M103.134,331.22c0.145,0.028,0.171,0.499,0.061,1.052c-0.11,0.552-0.316,0.977-0.46,0.947
		s-0.171-0.499-0.061-1.051C102.785,331.616,102.991,331.191,103.134,331.22"/>
	<path fill="#232020" d="M103.935,327.222c0.143,0.028,0.171,0.5,0.06,1.053c-0.109,0.551-0.316,0.975-0.46,0.946
		c-0.145-0.029-0.171-0.499-0.061-1.052S103.791,327.193,103.935,327.222"/>
	<path fill="#232020" d="M104.734,323.224c0.145,0.028,0.172,0.5,0.061,1.053c-0.11,0.551-0.316,0.975-0.461,0.946
		c-0.143-0.029-0.17-0.5-0.06-1.051C104.384,323.62,104.591,323.196,104.734,323.224"/>
	<path fill="#232020" d="M105.534,319.226c0.145,0.029,0.171,0.499,0.061,1.052c-0.11,0.552-0.316,0.976-0.46,0.947
		s-0.171-0.5-0.061-1.051C105.184,319.622,105.39,319.198,105.534,319.226"/>
	<path fill="#232020" d="M106.333,315.228c0.145,0.029,0.171,0.499,0.061,1.052c-0.11,0.552-0.316,0.977-0.461,0.947
		c-0.143-0.029-0.17-0.499-0.06-1.051C105.984,315.624,106.19,315.199,106.333,315.228"/>
	<path fill="#232020" d="M107.133,311.23c0.145,0.028,0.172,0.499,0.061,1.052c-0.11,0.552-0.316,0.976-0.46,0.947
		c-0.144-0.029-0.171-0.499-0.061-1.052C106.784,311.626,106.991,311.201,107.133,311.23"/>
	<path fill="#232020" d="M107.934,307.232c0.143,0.028,0.171,0.5,0.06,1.053c-0.11,0.551-0.316,0.975-0.46,0.946
		c-0.145-0.029-0.171-0.5-0.061-1.052S107.79,307.204,107.934,307.232"/>
	<path fill="#232020" d="M108.733,303.234c0.145,0.029,0.171,0.499,0.061,1.052c-0.11,0.552-0.316,0.976-0.461,0.947
		c-0.143-0.028-0.17-0.5-0.06-1.052S108.589,303.206,108.733,303.234"/>
	<path fill="#232020" d="M109.534,299.236c0.143,0.028,0.171,0.499,0.06,1.052c-0.11,0.552-0.316,0.977-0.46,0.947
		c-0.145-0.029-0.171-0.499-0.061-1.051C109.183,299.632,109.389,299.207,109.534,299.236"/>
	<path fill="#232020" d="M110.333,295.238c0.145,0.028,0.172,0.499,0.061,1.052c-0.11,0.552-0.316,0.976-0.461,0.947
		c-0.143-0.029-0.17-0.499-0.06-1.051C109.983,295.634,110.189,295.209,110.333,295.238"/>
	<path fill="#232020" d="M111.132,291.24c0.145,0.028,0.171,0.5,0.061,1.053c-0.11,0.551-0.316,0.975-0.46,0.946
		c-0.144-0.029-0.171-0.5-0.061-1.051C110.783,291.635,110.989,291.212,111.132,291.24"/>
	<path fill="#232020" d="M111.932,287.242c0.144,0.029,0.172,0.499,0.061,1.052c-0.109,0.552-0.316,0.976-0.461,0.947
		c-0.144-0.028-0.17-0.5-0.06-1.052S111.789,287.214,111.932,287.242"/>
	<path fill="#232020" d="M112.732,283.244c0.145,0.029,0.172,0.499,0.061,1.052c-0.11,0.552-0.316,0.977-0.461,0.947
		c-0.143-0.029-0.17-0.5-0.06-1.051C112.382,283.639,112.588,283.215,112.732,283.244"/>
	<path fill="#232020" d="M113.532,279.247c0.144,0.027,0.171,0.498,0.061,1.051c-0.11,0.552-0.317,0.976-0.46,0.947
		c-0.144-0.029-0.171-0.499-0.061-1.051C113.182,279.641,113.388,279.218,113.532,279.247"/>
	<path fill="#232020" d="M114.332,275.249c0.144,0.028,0.171,0.5,0.061,1.053c-0.11,0.551-0.316,0.975-0.461,0.945
		c-0.143-0.029-0.17-0.5-0.06-1.051C113.982,275.643,114.188,275.219,114.332,275.249"/>
	<path fill="#232020" d="M115.131,271.251c0.145,0.029,0.171,0.5,0.061,1.053c-0.11,0.551-0.316,0.975-0.46,0.946
		s-0.171-0.5-0.061-1.051C114.782,271.646,114.989,271.222,115.131,271.251"/>
	<path fill="#232020" d="M115.931,267.253c0.144,0.029,0.171,0.499,0.061,1.052c-0.11,0.552-0.316,0.977-0.461,0.947
		c-0.144-0.028-0.17-0.5-0.06-1.051C115.582,267.648,115.788,267.223,115.931,267.253"/>
	<path fill="#232020" d="M116.731,263.255c0.145,0.028,0.171,0.499,0.061,1.052c-0.11,0.552-0.316,0.976-0.461,0.947
		c-0.143-0.029-0.17-0.499-0.06-1.051C116.381,263.65,116.587,263.225,116.731,263.255"/>
	<path fill="#232020" d="M117.531,259.257c0.144,0.028,0.171,0.5,0.06,1.053c-0.109,0.551-0.316,0.975-0.459,0.946
		c-0.144-0.029-0.171-0.499-0.061-1.051C117.181,259.652,117.387,259.227,117.531,259.257"/>
	<path fill="#232020" d="M118.331,255.259c0.145,0.028,0.172,0.5,0.061,1.053c-0.11,0.551-0.316,0.975-0.461,0.946
		c-0.143-0.028-0.17-0.5-0.06-1.051C117.981,255.654,118.187,255.23,118.331,255.259"/>
	<path fill="#232020" d="M119.13,251.26c0.144,0.029,0.171,0.499,0.061,1.052c-0.11,0.552-0.317,0.977-0.46,0.947
		c-0.144-0.028-0.171-0.5-0.061-1.051C118.781,251.656,118.987,251.232,119.13,251.26"/>
	<path fill="#232020" d="M119.93,247.262c0.144,0.028,0.171,0.499,0.062,1.052c-0.111,0.552-0.317,0.977-0.461,0.947
		c-0.145-0.029-0.171-0.499-0.061-1.051C119.581,247.658,119.787,247.233,119.93,247.262"/>
	<path fill="#232020" d="M120.73,243.264c0.145,0.028,0.171,0.5,0.061,1.053c-0.11,0.551-0.316,0.975-0.461,0.946
		c-0.143-0.029-0.17-0.499-0.061-1.052C120.38,243.66,120.587,243.235,120.73,243.264"/>
	<path fill="#232020" d="M121.53,239.266c0.144,0.028,0.17,0.5,0.061,1.053c-0.111,0.551-0.316,0.975-0.461,0.946
		c-0.144-0.028-0.17-0.5-0.06-1.052S121.386,239.238,121.53,239.266"/>
	<path fill="#232020" d="M122.33,235.268c0.144,0.029,0.171,0.5,0.061,1.052s-0.316,0.977-0.461,0.947
		c-0.143-0.028-0.17-0.5-0.061-1.051C121.98,235.664,122.187,235.24,122.33,235.268"/>
	<path fill="#232020" d="M123.129,231.27c0.144,0.029,0.171,0.499,0.06,1.052c-0.109,0.552-0.316,0.977-0.459,0.947
		c-0.144-0.028-0.171-0.499-0.061-1.051C122.78,231.666,122.986,231.241,123.129,231.27"/>
	<path fill="#232020" d="M123.929,227.272c0.145,0.028,0.172,0.5,0.061,1.053c-0.11,0.551-0.316,0.975-0.461,0.946
		c-0.144-0.029-0.17-0.499-0.06-1.051C123.58,227.668,123.786,227.243,123.929,227.272"/>
	<path fill="#232020" d="M124.729,223.274c0.144,0.028,0.171,0.5,0.061,1.053c-0.11,0.551-0.317,0.975-0.461,0.946
		c-0.143-0.028-0.17-0.5-0.061-1.052C124.379,223.67,124.585,223.246,124.729,223.274"/>
	<path fill="#232020" d="M125.529,219.276c0.144,0.029,0.171,0.5,0.06,1.053c-0.109,0.551-0.316,0.976-0.459,0.946
		c-0.145-0.028-0.171-0.5-0.061-1.052S125.385,219.248,125.529,219.276"/>
	<path fill="#232020" d="M126.329,215.278c0.144,0.029,0.171,0.499,0.061,1.052s-0.316,0.977-0.461,0.947
		c-0.143-0.028-0.17-0.499-0.061-1.052C125.979,215.674,126.184,215.249,126.329,215.278"/>
	<path fill="#232020" d="M127.128,211.28c0.144,0.028,0.171,0.5,0.06,1.053c-0.109,0.551-0.316,0.976-0.459,0.946
		c-0.145-0.029-0.171-0.499-0.061-1.051S126.985,211.251,127.128,211.28"/>
	<path fill="#FFB885" d="M207.073,87.986c0,0,6.785-10.173,6.967-10.263c0,0,6.126-10.315,8.162-10.317
		c2.047-0.001,1.301,2.09-0.803,5.786c-1.843,3.239-2.029,5.263-2.029,5.263l5.03,3.037c0,0,3.361-1.3,3.501,1.832
		c0.047,1.048-0.229,2.344-0.579,4.254c-0.204,1.115-0.709,2.305-1.762,1.885c-0.482-0.192-0.876-0.564-0.9-1.259
		c-0.065-1.854,0.282-2.533,0.045-2.534c-0.302-0.001-3.62,9.72-3.62,9.72L207.073,87.986z"/>
	<path fill="#FFB885" d="M220.775,79.999c0.517-0.355,1.039-0.712,1.614-0.961c0.574-0.25,1.213-0.389,1.832-0.285
		c0.388,0.065,0.772,0.235,1.02,0.542c0.34,0.421,0.362,1.031,0.194,1.545c-0.169,0.514-0.5,0.955-0.826,1.386"/>
	<path fill="#FFB885" d="M218.48,77.947c0.489-0.335,0.984-0.671,1.528-0.907c0.546-0.236,1.15-0.366,1.736-0.269
		c0.367,0.061,0.731,0.221,0.968,0.511c0.319,0.397,0.34,0.971,0.181,1.455c-0.159,0.485-1.256,1.607-1.563,2.013"/>
	<path fill="#FFB885" d="M209.438,82.243l-9.807,20.971l10.811,11.048l5.633-15.629c0,0,3.02,0.601,4.25-1.401
		c1.375-2.235,3.178-8.694,3.178-8.694L209.438,82.243z"/>
	<path fill="#EDA279" d="M216.443,81.664c-0.106-0.032,0.14-1.437,1.161-2.9c0.519-0.724,1.18-1.216,1.68-1.488
		c0.504-0.274,0.847-0.366,0.879-0.306c0.093,0.157-1.175,0.784-2.132,2.108C217.092,80.413,216.608,81.734,216.443,81.664"/>
	<path fill="#EDA279" d="M227.322,81.752c-0.045,0.069-0.379-0.113-0.949-0.212c-0.561-0.101-1.393-0.086-2.143,0.328
		c-0.75,0.415-1.237,1.1-1.592,1.58c-0.352,0.49-0.583,0.8-0.649,0.762c-0.062-0.035,0.049-0.4,0.329-0.958
		c0.284-0.541,0.755-1.342,1.657-1.849c0.905-0.498,1.887-0.438,2.49-0.226C227.085,81.391,227.361,81.703,227.322,81.752"/>
	<path fill="#EDA279" d="M223.671,78.794c0.028,0.158-1.211,0.368-2.305,1.354c-1.097,0.969-1.634,2.108-1.784,2.033
		c-0.119-0.03,0.214-1.341,1.436-2.433c0.606-0.533,1.295-0.836,1.806-0.946C223.337,78.69,223.663,78.728,223.671,78.794"/>
	<path fill="#EDA279" d="M226.082,83.324c0.138-0.054,0.395,0.76-0.119,1.573c-0.508,0.818-1.354,0.94-1.366,0.792
		c-0.044-0.144,0.53-0.436,0.915-1.075C225.919,83.99,225.933,83.345,226.082,83.324"/>
	<path fill="#FFB885" d="M207.096,87.577c0,0-0.342-6.258,1.17-7.675c1.513-1.417,5.847,0.055,5.847,0.055"/>
	<path fill="#EDA279" d="M214.727,76.973c0.114,0.091-0.89,1.688-2.244,3.566c-1.353,1.88-2.551,3.337-2.673,3.256
		c-0.123-0.08,0.882-1.677,2.243-3.567C213.416,78.34,214.612,76.882,214.727,76.973"/>
	<path fill="#FFB885" d="M127.914,29.526l-0.149,48.837l20.952,0.999l0.606-11.878c0,0,7.441,1.478,9.36-5.434
		c1.227-4.416,0.92-38.535,0.92-38.535L127.914,29.526z"/>
	<path fill="#232020" d="M162.361,26.954c-3.301,0.944-4.018,6.338-4.018,6.338l-5.176,11.434c-2.637-2.065-6.178-1.947-6.848,2.687
		c-0.484,3.349,3.679,4.026,3.679,4.026c-2.424,4.125-4.067,7.461-7.596,11.384c-3.819,4.246-5.959,4.674-10.102,4.744h-4.567
		c0,0-2.236-7.258-6.376-25.408c-4.593-20.135,19.218-17.542,23.631-22.681C152.177,11.106,172.764,23.976,162.361,26.954"/>
	<path fill="#232020" d="M121.793,44.057c-3.86-2.592-4.208-9.846-1.957-14.197c2.252-4.35,6.991-7.296,11.889-7.392
		c0.654-0.013,1.331,0.018,1.941-0.218c0.906-0.35,1.492-1.208,2.085-1.979c3.449-4.485,6.839-8.891,13.269-8.89
		c1.044,0,2.198,0,4.042,1.002c0.917,0.499,2.211,2.191,2.428,3.213c1.208-0.573,2.438-1.152,3.759-1.352
		c1.323-0.201,2.774,0.031,3.772,0.92c0.999,0.89,1.369,2.525,0.594,3.614c2.167-0.137,4.221,1.657,4.562,3.8
		c0.341,2.144-2.731,3.651-3.052,3.818c0,0,1.687,3.531-2.335,5.647c-1.619,0.852-3.725-0.174-3.964-0.298"/>
	<path fill="#EB1A21" d="M105.608,83.478l-18.714,31.426c-2.094,3.665-4.032,7.574-5.881,11.625
		c-1.491,3.88-0.629,8.946,1.975,12.167l-0.528-0.761c2.076,2.567,5.2,4.059,8.5,4.059h0.484c4.351,0,8.286-2.58,10.023-6.569
		l6.012-9.123L105.608,83.478z"/>
	<path fill="#EB1A21" d="M162.07,77.473c-5.022-2.565-9.982-3.146-15.394-3.303c-6.303-0.183-15.186-1.064-21.977-0.342
		c0,0-19.348,1.432-20.692,14.69l2.643,62.278l-4.43,26.386l62.005,1.873l-0.444-31.129c0.767-16.198-0.869-39.132-0.869-39.132
		c0.954-8.708,5.719-12.627,6.396-18.289C169.906,85.5,166.559,79.766,162.07,77.473"/>
	<path fill="#A3803E" d="M144.594,151.692c0.021,0.023-0.292,0.345-0.913,0.864c-0.619,0.52-1.569,1.213-2.827,1.938
		c-2.491,1.454-6.373,2.913-10.839,2.992c-4.467,0.079-8.397-1.241-10.939-2.606c-1.282-0.679-2.256-1.339-2.894-1.836
		c-0.639-0.497-0.962-0.807-0.942-0.832c0.063-0.085,1.435,1.078,4.005,2.333c2.546,1.259,6.402,2.487,10.762,2.411
		c4.358-0.077,8.167-1.442,10.667-2.79C143.199,152.819,144.53,151.609,144.594,151.692"/>
	<path fill="#A3803E" d="M103.913,89.231c0.019-0.001,0.043,0.208,0.072,0.605c0.028,0.455,0.063,1.031,0.105,1.74
		c0.073,1.583,0.175,3.752,0.298,6.403c0.229,5.47,0.54,12.908,0.884,21.127c0.373,8.219,0.709,15.656,0.957,21.125
		c0.135,2.649,0.245,4.818,0.326,6.4c0.03,0.709,0.055,1.286,0.074,1.742c0.011,0.398,0.008,0.608-0.011,0.609
		c-0.018,0.002-0.051-0.206-0.096-0.602c-0.046-0.454-0.104-1.028-0.174-1.735c-0.146-1.507-0.307-3.691-0.494-6.393
		c-0.368-5.401-0.765-12.87-1.113-21.125c-0.35-8.251-0.591-15.726-0.729-21.137c-0.054-2.653-0.098-4.825-0.13-6.409
		c-0.002-0.71-0.004-1.287-0.005-1.744C103.882,89.441,103.894,89.232,103.913,89.231"/>
	<path fill="#A3803E" d="M100.031,92.528c0.016,0.009-0.058,0.176-0.213,0.485c-0.189,0.36-0.422,0.803-0.703,1.34
		c-0.626,1.156-1.557,2.815-2.75,4.84c-2.354,4.068-5.894,9.517-9.47,15.711c-1.788,3.094-3.304,6.156-4.617,8.955
		c-1.302,2.795-1.974,5.538-1.803,7.859c0.132,2.319,0.819,4.122,1.436,5.259c0.614,1.15,1.122,1.684,1.078,1.719
		c-0.015,0.012-0.143-0.117-0.376-0.376c-0.225-0.265-0.543-0.67-0.881-1.241c-0.685-1.127-1.446-2.954-1.632-5.336
		c-0.227-2.387,0.437-5.246,1.731-8.082c1.3-2.834,2.804-5.905,4.603-9.02c3.591-6.218,7.176-11.625,9.609-15.64
		c1.19-1.953,2.167-3.56,2.892-4.749c0.316-0.517,0.577-0.943,0.789-1.29C99.91,92.668,100.015,92.519,100.031,92.528"/>
	<path fill="#EB1A21" d="M214.086,109.625l-14.349-9.385l-9.056,15.687c0,0-12.556-17.451-18.258-27.674
		c-5.249-9.41-12.04-11.944-15.315-12.627c-0.969-0.202-1.846,0.604-1.739,1.587l4.948,33.932
		c0.624,1.767,10.98,16.78,16.768,24.334c9.659,12.61,23.891,4.541,27.8-4.285C207.987,124.19,212.815,113.549,214.086,109.625"/>
	<path fill="#A3803E" d="M194.807,130.086c-0.075,0.003-0.162-0.856-0.274-2.239c-0.119-1.38-0.261-3.292-0.692-5.343
		c-0.432-2.052-1.148-3.82-1.832-5.008c-0.675-1.194-1.248-1.84-1.182-1.898c0.04-0.043,0.722,0.521,1.502,1.703
		c0.787,1.171,1.589,2.987,2.03,5.093c0.442,2.104,0.525,4.044,0.549,5.436C194.923,129.222,194.877,130.084,194.807,130.086"/>
	<path fill="#A3803E" d="M199.007,123.075c-0.085,0.006-0.153-0.729-0.51-1.837c-0.356-1.101-1.067-2.579-2.295-3.848
		c-1.209-1.284-2.679-2.064-3.815-2.087c-1.146-0.059-1.78,0.401-1.818,0.32c-0.055-0.03,0.547-0.652,1.823-0.696
		c1.274-0.076,2.928,0.744,4.193,2.095c1.303,1.345,1.998,2.942,2.273,4.113C199.134,122.32,199.068,123.075,199.007,123.075"/>
	<path fill="#A3803E" d="M156.174,79.817c0.012,0.014-0.108,0.151-0.345,0.398c-0.132,0.135-0.278,0.284-0.44,0.452
		c-0.167,0.201-0.35,0.42-0.55,0.662c-0.797,1.008-1.842,2.602-2.484,4.824c-0.684,2.197-0.954,4.992-0.545,8.011
		c0.21,1.508,0.58,3.074,1.232,4.589c0.635,1.533,1.475,3.052,2.319,4.607c3.513,6.167,7.128,11.505,9.744,15.356
		c1.295,1.863,2.36,3.393,3.149,4.529c0.75,1.065,1.173,1.649,1.14,1.675c-0.014,0.01-0.138-0.121-0.36-0.383
		c-0.222-0.263-0.546-0.653-0.944-1.169c-0.809-1.025-1.935-2.541-3.292-4.437c-2.699-3.803-6.368-9.11-9.899-15.311
		c-0.852-1.568-1.692-3.095-2.336-4.666c-0.668-1.571-1.037-3.183-1.238-4.726c-0.393-3.093-0.074-5.951,0.672-8.187
		c0.704-2.26,1.826-3.862,2.685-4.844c0.216-0.233,0.414-0.446,0.594-0.64c0.178-0.155,0.338-0.294,0.481-0.42
		C156.019,79.913,156.162,79.802,156.174,79.817"/>
	<path fill="#A3803E" d="M156.21,169.973c0.006,0.017-0.146,0.082-0.438,0.189c-0.354,0.123-0.778,0.27-1.289,0.446
		c-0.561,0.193-1.25,0.416-2.063,0.632c-0.813,0.223-1.729,0.503-2.767,0.726c-2.06,0.507-4.544,0.97-7.324,1.344
		c-2.783,0.343-5.862,0.58-9.102,0.601c-3.239-0.002-6.32-0.222-9.106-0.548c-2.782-0.359-5.271-0.808-7.332-1.303
		c-1.038-0.218-1.958-0.492-2.771-0.709c-0.815-0.212-1.506-0.431-2.067-0.621c-0.511-0.173-0.937-0.318-1.291-0.439
		c-0.293-0.105-0.445-0.169-0.439-0.187c0.006-0.018,0.168,0.012,0.472,0.085c0.361,0.093,0.796,0.207,1.317,0.342
		c0.568,0.16,1.266,0.348,2.084,0.532c0.816,0.188,1.738,0.438,2.776,0.629c2.062,0.446,4.541,0.854,7.309,1.184
		c2.771,0.298,5.83,0.501,9.048,0.504c3.216-0.021,6.273-0.242,9.042-0.556c2.766-0.346,5.242-0.768,7.302-1.226
		c1.037-0.197,1.957-0.451,2.772-0.645c0.817-0.188,1.514-0.381,2.082-0.543c0.521-0.14,0.954-0.254,1.315-0.351
		C156.042,169.987,156.204,169.955,156.21,169.973"/>
	<g opacity="0.3">
		<g>
			<defs>
				<rect id="SVGID_7_" x="102.793" y="94.843" width="2.801" height="38.569"/>
			</defs>
			<clipPath id="SVGID_8_">
				<use xlink:href="#SVGID_7_"  overflow="visible"/>
			</clipPath>
			<polygon clip-path="url(#SVGID_8_)" points="102.793,133.411 105.594,129.066 104.133,94.843 			"/>
		</g>
	</g>
	<g opacity="0.3">
		<g>
			<defs>
				<rect id="SVGID_9_" x="151.156" y="92.528" width="12.577" height="32.419"/>
			</defs>
			<clipPath id="SVGID_10_">
				<use xlink:href="#SVGID_9_"  overflow="visible"/>
			</clipPath>
			<path clip-path="url(#SVGID_10_)" d="M151.156,92.528c0,0,0.091,12.472,2.974,17.413c2.883,4.939,9.626,15.616,9.604,14.979
				c-0.023-0.638-0.385-8.802-0.385-8.802S151.214,99.508,151.156,92.528"/>
		</g>
	</g>
	<g opacity="0.3">
		<g>
			<defs>
				<rect id="SVGID_11_" x="110.108" y="166.838" width="44.109" height="6.894"/>
			</defs>
			<clipPath id="SVGID_12_">
				<use xlink:href="#SVGID_11_"  overflow="visible"/>
			</clipPath>
			<path clip-path="url(#SVGID_12_)" d="M153.195,170.746c1.024-0.462,1.328-1.862,0.687-2.669
				c-0.644-0.809-1.793-0.989-2.826-0.969c-5.065,0.1-9.487,3.49-14.471,4.401c-3.792,0.693-7.699-0.088-11.388-1.207
				c-3.688-1.119-7.288-2.58-11.075-3.295c-0.792-0.15-1.617-0.265-2.395-0.054c-0.778,0.21-1.499,0.824-1.598,1.624
				c-0.097,0.799,0.092,1.391,1.284,1.799c0,0,12.542,3.486,21.624,3.352C142.672,173.584,153.195,170.746,153.195,170.746"/>
		</g>
	</g>
	<rect x="340.253" y="309.193" fill="#232020" width="74.2" height="10.196"/>
	<path fill="#2B3940" d="M414.581,319.515h-74.453v-10.449h74.453V319.515z M340.381,319.262h73.945v-9.941h-73.945V319.262z"/>
	<polygon fill="#232020" points="347.135,315.996 357.814,368.686 397.333,368.686 407.658,319.389 	"/>
	<polygon fill="#494949" points="347.135,363.702 352.831,371.535 400.865,371.535 407.658,363.702 	"/>
	<path fill="#232020" d="M374.568,317.535c-0.146,0-0.332-24.41-0.418-54.515c-0.084-30.115-0.035-54.521,0.112-54.521
		c0.146,0,0.332,24.404,0.416,54.521C374.764,293.123,374.714,317.534,374.568,317.535"/>
	<path fill="#232020" d="M391.097,256.449c0.016,0.009-0.054,0.204-0.2,0.568c-0.173,0.415-0.392,0.937-0.663,1.58
		c-0.146,0.348-0.308,0.726-0.482,1.137c-0.153,0.431-0.318,0.892-0.494,1.385c-0.18,0.5-0.371,1.03-0.571,1.591
		c-0.199,0.563-0.354,1.178-0.549,1.812c-0.812,2.53-1.455,5.634-2.076,9.085c-0.54,3.469-0.946,7.312-1.147,11.36
		c-0.362,8.107,0.097,15.458,0.585,20.752c0.239,2.65,0.48,4.79,0.655,6.268c0.077,0.693,0.139,1.258,0.188,1.705
		c0.038,0.392,0.048,0.598,0.029,0.6c-0.018,0.003-0.063-0.198-0.134-0.583c-0.075-0.444-0.17-1.004-0.286-1.693
		c-0.239-1.471-0.537-3.607-0.824-6.257c-0.584-5.297-1.104-12.671-0.742-20.815c0.205-4.068,0.628-7.932,1.197-11.416
		c0.65-3.469,1.337-6.582,2.197-9.115c0.208-0.633,0.377-1.248,0.589-1.811c0.217-0.559,0.421-1.087,0.612-1.585
		c0.193-0.491,0.371-0.948,0.539-1.377c0.183-0.415,0.369-0.787,0.527-1.125c0.309-0.627,0.558-1.138,0.755-1.543
		C390.979,256.621,391.081,256.44,391.097,256.449"/>
	<path fill="#232020" d="M389.2,236.706c0.016,0.008-0.065,0.284-0.235,0.806c-0.193,0.564-0.449,1.32-0.773,2.27
		c-0.172,0.496-0.36,1.041-0.566,1.635c-0.184,0.61-0.384,1.268-0.598,1.972c-0.433,1.413-0.937,3.018-1.384,4.824
		c-0.236,0.899-0.485,1.842-0.745,2.822c-0.222,0.99-0.456,2.02-0.694,3.085c-0.519,2.126-0.892,4.434-1.37,6.845
		c-0.818,4.848-1.538,10.208-2.036,15.859c-0.47,5.659-0.673,11.064-0.745,15.983c-0.015,4.919,0.049,9.352,0.249,13.066
		c0.066,1.859,0.186,3.539,0.281,5.015c0.086,1.476,0.178,2.745,0.272,3.782c0.076,1,0.137,1.795,0.183,2.391
		c0.035,0.548,0.044,0.836,0.027,0.838c-0.019,0.002-0.064-0.283-0.135-0.826c-0.069-0.593-0.162-1.387-0.28-2.383
		c-0.125-1.035-0.248-2.305-0.361-3.78c-0.124-1.476-0.27-3.155-0.359-5.017c-0.25-3.72-0.352-8.159-0.363-13.089
		c0.045-4.93,0.235-10.352,0.705-16.023c0.497-5.669,1.236-11.043,2.082-15.902c0.492-2.416,0.884-4.728,1.422-6.854
		c0.252-1.066,0.495-2.097,0.728-3.089c0.271-0.979,0.531-1.922,0.78-2.821c0.471-1.806,1.001-3.407,1.463-4.814
		c0.229-0.702,0.441-1.356,0.641-1.962c0.222-0.59,0.425-1.132,0.612-1.625c0.362-0.937,0.65-1.681,0.867-2.238
		C389.069,236.965,389.183,236.699,389.2,236.706"/>
	<path fill="#232020" d="M369.875,321.852c-0.009,0.001-0.023-0.096-0.043-0.284c-0.018-0.22-0.041-0.496-0.069-0.841
		c-0.053-0.777-0.126-1.859-0.218-3.231c-0.179-2.849-0.433-6.901-0.744-11.891c-0.645-10.038-1.577-23.905-3.265-39.154
		c-0.863-7.625-1.864-14.865-2.904-21.431c-0.554-3.278-1.055-6.397-1.625-9.298c-0.521-2.909-1.084-5.604-1.602-8.063
		c-0.487-2.468-1.03-4.675-1.468-6.624c-0.43-1.95-0.847-3.62-1.194-4.982c-0.326-1.336-0.584-2.389-0.77-3.146
		c-0.078-0.337-0.14-0.606-0.188-0.821c-0.04-0.187-0.056-0.282-0.047-0.285c0.01-0.002,0.043,0.089,0.1,0.271
		c0.063,0.211,0.141,0.477,0.237,0.809c0.209,0.75,0.499,1.795,0.867,3.121c0.378,1.356,0.824,3.02,1.282,4.966
		c0.465,1.943,1.034,4.149,1.547,6.612c0.54,2.458,1.126,5.152,1.666,8.063c0.589,2.9,1.107,6.021,1.674,9.3
		c1.068,6.569,2.086,13.817,2.95,21.45c1.691,15.266,2.563,29.146,3.111,39.191c0.273,5.023,0.464,9.091,0.577,11.901
		c0.05,1.376,0.091,2.458,0.119,3.238c0.008,0.345,0.014,0.622,0.018,0.842C369.889,321.755,369.884,321.852,369.875,321.852"/>
	<path fill="#99C457" d="M373.963,220.234c-0.322-3.459-3.817-6.067-7.291-6.104c-3.473-0.035-6.709,2.047-8.835,4.796
		c-2.122,2.747-3.294,6.103-4.252,9.44c-2.339,8.147-3.618,16.707-2.617,25.125c0.999,8.416,4.414,16.703,10.454,22.651
		c0.982,0.967,2.255,1.932,3.602,1.645c0.737-0.158,1.341-0.668,1.9-1.174c11.865-10.718,18.718-26.771,18.248-42.754
		c-0.095-3.201-0.516-6.532-2.287-9.198C381.113,221.994,376.981,219.163,373.963,220.234"/>
	<path fill="#64B35B" d="M348.03,192.535c-1.631,2.953-3.262,5.905-4.892,8.858c-0.114,0.207-0.265,0.438-0.5,0.458
		c-0.258,0.021-0.449-0.223-0.59-0.438c-4.311-6.616-8.622-13.232-12.932-19.848l2.978-1.688L348.03,192.535z"/>
	<path fill="#99C457" d="M374.262,208.498c-14.705-8.677-29.41-17.354-44.115-26.031c-0.45-0.266-0.938-0.579-1.074-1.083
		c-0.176-0.653,0.314-1.282,0.786-1.768c6.067-6.259,14.88-9.887,23.575-9.262c8.693,0.625,17.056,5.648,21.313,13.256
		C379.003,191.216,379.144,201.276,374.262,208.498"/>
	<g>
		<path fill="#FFFFFF" d="M336.504,174.157c0-0.018,0.199-0.042,0.578-0.072c0.38-0.02,0.942-0.088,1.667-0.081
			c1.449-0.035,3.558,0.06,6.122,0.486c2.563,0.421,5.572,1.246,8.717,2.648c3.143,1.396,6.394,3.416,9.357,6.07
			c2.937,2.684,5.272,5.719,6.976,8.708c1.707,2.99,2.829,5.902,3.503,8.411c0.68,2.508,0.985,4.597,1.093,6.042
			c0.08,0.721,0.067,1.286,0.088,1.667c0.008,0.38,0.003,0.58-0.015,0.58c-0.047,0.003-0.104-0.796-0.276-2.227
			c-0.173-1.43-0.53-3.49-1.249-5.961c-1.396-4.913-4.634-11.536-10.475-16.828c-5.847-5.283-12.759-7.845-17.785-8.743
			c-2.529-0.469-4.616-0.621-6.056-0.649C337.307,174.179,336.507,174.204,336.504,174.157"/>
		<path fill="#FFFFFF" d="M368.291,190.531c0.024,0.066-0.824,0.459-2.23,1.013c-1.405,0.554-3.369,1.262-5.565,1.96
			c-2.197,0.697-4.211,1.252-5.679,1.611c-1.468,0.359-2.388,0.528-2.407,0.459c-0.018-0.072,0.869-0.369,2.307-0.819
			c1.627-0.508,3.522-1.1,5.617-1.755c2.091-0.674,3.98-1.285,5.603-1.808C367.369,190.73,368.265,190.461,368.291,190.531"/>
		<path fill="#FFFFFF" d="M361.344,171.871c0.141-0.014,0.454,2.186,0.521,4.921c0.072,2.735-0.129,4.947-0.271,4.941
			c-0.15-0.004-0.186-2.211-0.258-4.928C361.27,174.09,361.195,171.884,361.344,171.871"/>
		<path fill="#FFFFFF" d="M329.761,181.973c-0.021-0.067,1.201-0.51,3.205-1.127c2.004-0.618,4.795-1.4,7.907-2.15
			c3.113-0.749,5.954-1.324,8.02-1.687c2.066-0.363,3.354-0.525,3.366-0.455c0.015,0.074-1.25,0.365-3.293,0.821
			s-4.865,1.087-7.97,1.834c-3.103,0.748-5.902,1.471-7.928,1.996C331.042,181.73,329.784,182.046,329.761,181.973"/>
	</g>
	<path fill="#99C457" d="M353.92,212.049c-3.794-2.878-7.806-3.443-12.563-3.255c-4.759,0.188-9.39,1.638-13.752,3.548
		c-7.438,3.258-14.43,8.061-18.874,14.857c-4.445,6.796-5.992,15.795-2.664,23.202c0.331,0.737,0.763,1.51,1.506,1.827
		c0.783,0.337,1.68,0.074,2.49-0.189c8.461-2.761,16.98-5.547,24.76-9.868c7.777-4.323,14.859-10.33,19.034-18.19
		c1.002-1.886,1.84-3.907,2.003-6.037C356.026,215.814,355.437,213.552,353.92,212.049"/>
	<g>
		<path fill="#FFFFFF" d="M353.996,211.155c0.005,0.018-0.204,0.104-0.609,0.248c-0.457,0.157-1.045,0.36-1.772,0.61
			c-0.391,0.131-0.819,0.272-1.283,0.427c-0.465,0.169-0.961,0.376-1.5,0.585c-1.07,0.434-2.313,0.865-3.621,1.501
			c-0.662,0.301-1.355,0.616-2.075,0.945c-0.719,0.331-1.437,0.739-2.197,1.128c-1.534,0.753-3.086,1.715-4.737,2.69
			c-3.244,2.051-6.677,4.519-10.019,7.429c-3.313,2.945-6.198,6.036-8.646,8.991c-1.179,1.517-2.33,2.933-3.273,4.357
			c-0.481,0.704-0.978,1.366-1.398,2.036c-0.417,0.672-0.818,1.319-1.201,1.938c-0.796,1.216-1.384,2.395-1.95,3.4
			c-0.275,0.507-0.545,0.973-0.77,1.413c-0.214,0.439-0.409,0.847-0.589,1.219c-0.341,0.689-0.615,1.246-0.83,1.68
			c-0.194,0.382-0.307,0.58-0.323,0.572c-0.016-0.007,0.061-0.219,0.226-0.614c0.191-0.445,0.438-1.019,0.74-1.727
			c0.17-0.377,0.352-0.793,0.549-1.242c0.214-0.448,0.472-0.922,0.735-1.438c0.543-1.023,1.111-2.22,1.891-3.455
			c0.377-0.628,0.771-1.283,1.18-1.967c0.413-0.681,0.905-1.351,1.381-2.064c0.933-1.445,2.079-2.881,3.256-4.413
			c2.441-2.994,5.338-6.117,8.675-9.083c3.365-2.931,6.832-5.406,10.111-7.447c1.671-0.971,3.239-1.924,4.791-2.665
			c0.77-0.382,1.497-0.783,2.225-1.107c0.729-0.319,1.431-0.626,2.101-0.918c1.324-0.618,2.583-1.028,3.668-1.437
			c0.544-0.195,1.048-0.391,1.521-0.544c0.471-0.141,0.905-0.269,1.303-0.387c0.741-0.211,1.339-0.383,1.806-0.516
			C353.771,211.188,353.992,211.139,353.996,211.155"/>
		<path fill="#FFFFFF" d="M324.355,227.205c0.041,0.142-4.092,1.473-9.229,2.975c-5.139,1.502-9.337,2.605-9.378,2.467
			c-0.041-0.141,4.091-1.472,9.229-2.975C320.114,228.17,324.312,227.065,324.355,227.205"/>
		<path fill="#FFFFFF" d="M323.975,247.572c-0.072,0.001-0.154-1.098-0.203-2.875c-0.049-1.778-0.056-4.236,0.02-6.949
			c0.074-2.713,0.221-5.167,0.369-6.939c0.147-1.772,0.291-2.864,0.363-2.859c0.074,0.006,0.063,1.106,0.009,2.881
			c-0.061,1.948-0.134,4.315-0.213,6.933c-0.066,2.618-0.125,4.986-0.174,6.935C324.099,246.471,324.05,247.571,323.975,247.572"/>
		<path fill="#FFFFFF" d="M341.42,238.683c-0.146,0.011-0.609-4.982-1.036-11.152s-0.653-11.181-0.508-11.189
			c0.146-0.01,0.609,4.983,1.036,11.152C341.338,233.664,341.567,238.674,341.42,238.683"/>
		<path fill="#FFFFFF" d="M319.705,215.856c0.003-0.073,1.134-0.102,2.959-0.089c1.824,0.013,4.341,0.066,7.121,0.157
			c2.779,0.092,5.297,0.205,7.117,0.313c1.821,0.107,2.947,0.211,2.947,0.285c-0.002,0.072-1.131,0.102-2.954,0.089
			c-1.824-0.014-4.344-0.067-7.128-0.158c-2.782-0.093-5.301-0.205-7.121-0.313C320.825,216.032,319.701,215.929,319.705,215.856"/>
	</g>
	<g>
		<path fill="#FFFFFF" d="M363.315,278.518c-0.02,0-0.04-0.207-0.063-0.604c-0.021-0.453-0.047-1.027-0.078-1.732
			c-0.066-1.506-0.081-3.687-0.024-6.38c0.048-2.696,0.228-5.902,0.544-9.451c0.345-3.548,0.841-7.438,1.554-11.49
			c0.731-4.051,1.607-7.874,2.511-11.323c0.928-3.44,1.866-6.513,2.753-9.058c0.877-2.548,1.644-4.589,2.226-5.979
			c0.273-0.65,0.496-1.181,0.671-1.599c0.159-0.364,0.252-0.552,0.268-0.545c0.018,0.007-0.042,0.208-0.169,0.584
			c-0.15,0.427-0.343,0.969-0.577,1.634c-0.522,1.41-1.234,3.467-2.063,6.023c-0.839,2.554-1.737,5.627-2.637,9.063
			c-0.874,3.443-1.732,7.256-2.461,11.292c-0.709,4.037-1.22,7.911-1.59,11.443c-0.343,3.536-0.56,6.73-0.654,9.416
			c-0.105,2.686-0.146,4.862-0.144,6.365c-0.009,0.707-0.016,1.281-0.021,1.732C363.347,278.309,363.333,278.518,363.315,278.518"/>
		<path fill="#FFFFFF" d="M365.642,248.419c0.049,0.051-0.618,0.795-1.761,1.933c-1.142,1.137-2.761,2.665-4.61,4.286
			s-3.576,3.029-4.855,4.011c-1.276,0.983-2.101,1.548-2.144,1.492c-0.047-0.059,0.693-0.726,1.908-1.781
			c1.355-1.178,2.964-2.574,4.742-4.118c1.764-1.562,3.359-2.974,4.703-4.163C364.832,249.012,365.589,248.366,365.642,248.419"/>
		<path fill="#FFFFFF" d="M379.605,259.667c-0.063,0.041-0.764-0.962-1.874-2.596c-1.207-1.76-2.703-3.945-4.359-6.361
			c-1.691-2.395-3.22-4.559-4.45-6.3c-1.145-1.609-1.843-2.614-1.782-2.659c0.056-0.045,0.858,0.881,2.081,2.435
			c1.224,1.555,2.86,3.744,4.586,6.223c1.724,2.478,3.207,4.773,4.239,6.46C379.077,258.555,379.666,259.63,379.605,259.667"/>
		<path fill="#FFFFFF" d="M372.292,224.293c0.077,0.123-4.561,3.246-10.36,6.974c-5.801,3.729-10.567,6.652-10.646,6.529
			c-0.079-0.122,4.559-3.244,10.36-6.974C367.444,227.094,372.211,224.17,372.292,224.293"/>
		<path fill="#FFFFFF" d="M385.37,238.409c-0.102,0.105-3.243-2.798-7.017-6.482c-3.773-3.686-6.749-6.757-6.646-6.861
			c0.102-0.104,3.243,2.797,7.017,6.483C382.495,235.232,385.471,238.304,385.37,238.409"/>
	</g>
	<path fill="#99C457" d="M388.658,238.126l3.983-0.329c2.824-0.234,5.569-1.07,8.04-2.461c1.221-0.688,2.448-1.361,3.747-1.883
		c4.924-1.977,10.415-1.623,15.713-1.89c8.648-0.433,17.204-2.62,24.997-6.391c0.452-0.219,0.85-0.551,1.091-0.989
		c0.818-1.49-0.702-2.815-2.009-3.622c-6.708-4.133-13.537-8.319-21.144-10.371c-7.608-2.053-16.243-1.705-22.734,2.763
		C392.722,218.197,389.946,228.968,388.658,238.126"/>
	<g>
		<path fill="#FFFFFF" d="M446.319,223.694c-0.011,0.017-0.241-0.093-0.676-0.313c-0.477-0.251-1.104-0.58-1.887-0.989
			c-1.637-0.86-3.994-2.131-6.972-3.559c-2.979-1.412-6.59-3.007-10.789-4.159c-4.184-1.162-9.01-1.771-13.985-1.133
			c-4.958,0.653-9.52,2.581-12.75,5.475c-3.25,2.884-5.237,6.366-6.639,9.324c-1.398,2.984-2.261,5.523-2.888,7.261
			c-0.294,0.833-0.53,1.5-0.708,2.008c-0.166,0.459-0.262,0.697-0.279,0.69c-0.017-0.005,0.044-0.254,0.178-0.723
			c0.154-0.516,0.359-1.194,0.613-2.041c0.57-1.76,1.378-4.321,2.746-7.352c1.37-3.001,3.346-6.56,6.654-9.532
			c3.291-2.984,7.96-4.972,13.003-5.635c5.061-0.648,9.965-0.013,14.184,1.188c4.238,1.19,7.854,2.831,10.824,4.293
			c2.967,1.477,5.299,2.798,6.906,3.715c0.764,0.445,1.375,0.804,1.84,1.075C446.113,223.539,446.328,223.679,446.319,223.694"/>
		<path fill="#FFFFFF" d="M436.755,228.832c-0.081,0.121-5.29-3.248-11.63-7.522c-6.345-4.277-11.418-7.843-11.337-7.964
			c0.082-0.121,5.288,3.247,11.633,7.525C431.762,225.146,436.836,228.711,436.755,228.832"/>
		<path fill="#FFFFFF" d="M431.753,212.847c0.028,0.14-1.779,0.608-4.065,0.815c-2.286,0.213-4.146,0.081-4.145-0.061
			c0-0.149,1.84-0.256,4.096-0.466C429.898,212.931,431.726,212.7,431.753,212.847"/>
		<path fill="#FFFFFF" d="M408.404,208.663c0.125,0.076-0.641,1.604-1.709,3.417c-1.07,1.813-2.039,3.223-2.164,3.147
			c-0.125-0.074,0.641-1.604,1.709-3.415C407.309,209.999,408.279,208.589,408.404,208.663"/>
		<path fill="#FFFFFF" d="M413.07,231.899c-0.035,0.06-1.001-0.445-2.507-1.358c-1.504-0.913-3.537-2.251-5.71-3.828
			c-2.171-1.579-4.087-3.069-5.463-4.16c-1.375-1.094-2.207-1.796-2.162-1.854c0.044-0.058,0.953,0.538,2.387,1.555
			c1.563,1.135,3.455,2.511,5.549,4.032c2.166,1.572,4.154,2.952,5.603,3.942S413.11,231.835,413.07,231.899"/>
	</g>
	<path fill="#99C457" d="M394.521,255.043c-3.798-1.003-8.324,2.691-9.107,6.542c-0.783,3.848,0.661,7.786,2.351,11.331
		c3.742,7.849,8.905,15.129,15.706,20.548c6.8,5.42,15.318,8.886,24.014,8.841c-1.606-7.457,0.425-15.248-0.47-22.823
		c-0.782-6.612-3.865-12.93-8.597-17.614c-4.73-4.686-11.079-7.705-17.698-8.42C398.294,253.184,395.488,252.804,394.521,255.043"/>
	<g>
		<path fill="#FFFFFF" d="M427.484,302.304c-0.009,0.017-0.193-0.07-0.541-0.252c-0.343-0.187-0.837-0.487-1.42-0.953
			c-1.192-0.904-2.559-2.649-3.751-5.016c-0.604-1.174-1.282-2.452-1.942-3.865c-0.643-1.418-1.325-2.929-2.043-4.517
			c-0.725-1.582-1.522-3.225-2.512-4.827c-0.984-1.605-2.158-3.175-3.455-4.7c-2.601-3.053-5.392-5.695-7.81-8.22
			c-2.43-2.515-4.475-4.938-5.952-7.143c-1.493-2.198-2.396-4.169-2.909-5.557c-0.245-0.701-0.421-1.248-0.508-1.629
			c-0.096-0.378-0.138-0.579-0.12-0.584c0.05-0.013,0.265,0.776,0.819,2.138c0.567,1.354,1.511,3.271,3.025,5.42
			c1.501,2.157,3.556,4.529,5.994,7.015c2.43,2.498,5.236,5.134,7.863,8.218c1.312,1.541,2.497,3.135,3.493,4.771
			c1.001,1.634,1.798,3.302,2.513,4.896c0.702,1.595,1.371,3.11,1.998,4.534c0.637,1.406,1.297,2.696,1.878,3.879
			c1.144,2.371,2.421,4.089,3.551,5.027C426.765,301.899,427.516,302.255,427.484,302.304"/>
		<path fill="#FFFFFF" d="M407.844,296.107c-0.069-0.014,0.051-0.991,0.349-2.557c0.296-1.563,0.785-3.71,1.443-6.05
			c0.659-2.339,1.364-4.426,1.927-5.915c0.563-1.489,0.972-2.386,1.037-2.362c0.071,0.027-0.213,0.969-0.683,2.484
			c-0.471,1.515-1.116,3.608-1.772,5.937c-0.655,2.327-1.198,4.45-1.587,5.988C408.168,295.171,407.918,296.123,407.844,296.107"/>
		<path fill="#FFFFFF" d="M426.764,277.802c-0.022,0.074-1.04-0.186-2.675-0.613c-1.637-0.43-3.898-1.012-6.412-1.58
			c-2.514-0.564-4.808-1.007-6.47-1.321c-1.661-0.314-2.688-0.516-2.679-0.591c0.009-0.069,1.057,0.001,2.739,0.223
			c1.683,0.221,3.998,0.605,6.527,1.174c2.527,0.568,4.782,1.215,6.398,1.734C425.807,277.35,426.785,277.735,426.764,277.802"/>
		<path fill="#FFFFFF" d="M393.75,283.12c-0.068-0.014,0.078-1.146,0.411-2.957c0.334-1.814,0.867-4.307,1.576-7.028
			c0.711-2.724,1.466-5.159,2.061-6.903c0.595-1.745,1.021-2.805,1.087-2.782c0.073,0.024-0.227,1.124-0.73,2.893
			c-0.502,1.77-1.196,4.212-1.906,6.927c-0.706,2.711-1.294,5.182-1.721,6.973C394.101,282.029,393.826,283.135,393.75,283.12"/>
		<path fill="#FFFFFF" d="M418.051,261.849c-0.017,0.145-4.758-0.237-10.588-0.856c-5.835-0.618-10.549-1.236-10.534-1.383
			c0.016-0.146,4.756,0.239,10.589,0.857C413.35,261.086,418.066,261.705,418.051,261.849"/>
	</g>
	<g>
		<path fill="#494949" d="M414.578,319.345c0,0.146-16.667,0.266-37.222,0.266c-20.561,0-37.225-0.119-37.225-0.266
			c0-0.145,16.664-0.264,37.225-0.264C397.911,319.082,414.578,319.201,414.578,319.345"/>
		<path fill="#494949" d="M402.983,340.794c0,0.146-11.229,0.265-25.079,0.265c-13.854,0-25.081-0.119-25.081-0.265
			c0-0.145,11.227-0.265,25.081-0.265C391.753,340.529,402.983,340.649,402.983,340.794"/>
		<path fill="#494949" d="M403.419,343.861c0,0.146-11.229,0.265-25.077,0.265c-13.854,0-25.082-0.119-25.082-0.265
			c0-0.146,11.228-0.265,25.082-0.265C392.191,343.596,403.419,343.715,403.419,343.861"/>
		<path fill="#494949" d="M403.419,338.266c0,0.146-11.614,0.265-25.939,0.265c-14.331,0-25.942-0.119-25.942-0.265
			s11.611-0.265,25.942-0.265C391.805,338.002,403.419,338.121,403.419,338.266"/>
	</g>
	<g>
		<path fill="#99C457" d="M11.751,154.734c0,4.872-3.949,8.822-8.822,8.822c-4.872,0-8.821-3.95-8.821-8.822
			c0-4.873,3.949-8.822,8.821-8.822C7.802,145.912,11.751,149.862,11.751,154.734"/>
		<path fill="#99C457" d="M-13.867,154.734c0,5.19-4.208,9.397-9.398,9.397c-5.189,0-9.396-4.207-9.396-9.397
			c0-5.19,4.207-9.398,9.396-9.398C-18.075,145.336-13.867,149.544-13.867,154.734"/>
		<path fill="#99C457" d="M-33.424,138.108c0,5.509-4.467,9.975-9.976,9.975c-5.51,0-9.976-4.466-9.976-9.975
			c0-5.51,4.466-9.976,9.976-9.976C-37.891,128.133-33.424,132.598-33.424,138.108"/>
		<path fill="#99C457" d="M-37.068,112.545c0,5.754-4.665,10.418-10.419,10.418s-10.419-4.664-10.419-10.418
			c0-5.754,4.665-10.419,10.419-10.419S-37.068,106.791-37.068,112.545"/>
		<path fill="#99C457" d="M-23.96,90.167c0,5.947-4.82,10.768-10.768,10.768s-10.768-4.82-10.768-10.768s4.82-10.768,10.768-10.768
			S-23.96,84.219-23.96,90.167"/>
		<path fill="#99C457" d="M1.528,81.324c0,6.481-5.253,11.735-11.734,11.735c-6.48,0-11.735-5.254-11.735-11.735
			c0-6.48,5.255-11.734,11.735-11.734C-3.725,69.59,1.528,74.844,1.528,81.324"/>
		<path fill="#99C457" d="M30.915,137.901c0,4.705-3.814,8.521-8.521,8.521c-4.706,0-8.521-3.816-8.521-8.521
			c0-4.706,3.814-8.521,8.521-8.521C27.1,129.38,30.915,133.195,30.915,137.901"/>
		<path fill="#99C457" d="M34.862,112.259c0,4.368-3.54,7.909-7.908,7.909s-7.909-3.541-7.909-7.909s3.541-7.909,7.909-7.909
			S34.862,107.891,34.862,112.259"/>
		<path fill="#99C457" d="M21.026,89.871c0,3.99-3.234,7.225-7.225,7.225s-7.226-3.235-7.226-7.225s3.235-7.224,7.226-7.224
			S21.026,85.881,21.026,89.871"/>
	</g>
</g>
</svg>
