<?xml version="1.0" encoding="utf-8"?>
<!-- Generator: Adobe Illustrator 16.0.0, SVG Export Plug-In . SVG Version: 6.00 Build 0)  -->
<!DOCTYPE svg PUBLIC "-//W3C//DTD SVG 1.1//EN" "http://www.w3.org/Graphics/SVG/1.1/DTD/svg11.dtd">
<svg version="1.1" id="Layer_1" xmlns="http://www.w3.org/2000/svg" xmlns:xlink="http://www.w3.org/1999/xlink" x="0px" y="0px"
	 width="375.257px" height="265.896px" viewBox="19.702 0 375.257 265.896" enable-background="new 19.702 0 375.257 265.896"
	 xml:space="preserve">
<g>
	<path fill="#EDEDED" d="M394.957,245.335c0,11.355-84.003,20.561-187.627,20.561c-103.622,0-187.626-9.205-187.626-20.561
		c0-11.354,84.004-20.559,187.626-20.559C310.954,224.776,394.957,233.981,394.957,245.335"/>
	<path fill="#99C457" d="M353.01,150.653c-1.084,4.607-2.229,9.14-2.451,13.867c0.125,0.234,0.102,1.09-0.037,0.857
		c-0.029,0.762-1.188,0.623-1.189-0.127c0.014-0.492,0.025-0.982,0.049-1.457c-2.709-3.365-6.643-5.496-9.824-8.419
		c-2.572-2.367-4.412-5.186-5.385-8.568c-2.639-9.092-0.166-18.725-3.338-27.792c-2.734-7.819-7.641-14.616-11.793-21.699
		c-4.381-7.492-7.615-15.364-7.938-24.138c-0.26-6.719,0.543-15.672,5.66-20.704c5.424-5.341,12.146-1.339,16.303,3.423
		c12.041,13.819,17.613,31.285,19.865,49.143c1.242,9.882,2.531,19.826,2.234,29.802
		C354.999,140.201,354.227,145.446,353.01,150.653"/>
	<path fill="#FFFFFF" d="M350.612,168.15c0.623-9.341,0.584-18.697-0.33-28c0.016-0.035,0.045-0.057,0.045-0.102
		c0.152-7.568,0.754-15.107,0.457-22.685c-0.322-8.233-1.529-16.301-3.334-24.332c-0.02-0.093-0.164-0.071-0.146,0.024
		c1.484,7.833,2.348,15.827,2.635,23.794c0.152,4.275,0.123,8.555-0.104,12.827c-0.074,1.39-0.201,2.791-0.295,4.193
		c0-0.004,0-0.01-0.002-0.014c-3.051-21.298-10.914-41.505-22.518-59.588c-0.158-0.246-0.594,0.017-0.439,0.269
		c8.355,13.645,14.518,28.632,18.328,44.183c-5.791-10.728-14.537-19.549-21.025-29.859c-0.035-0.055-0.129,0.002-0.1,0.061
		c5.83,11.477,15.461,20.526,21.6,31.834c1.064,4.608,1.938,9.26,2.586,13.94c0.891,6.428,1.309,12.893,1.396,19.367
		c-3.527-6.594-7.188-12.898-10.074-19.873c-0.076-0.186-0.344-0.059-0.281,0.127c2.455,7.242,5.756,15.045,10.375,21.223
		c0.025,4.583-0.111,9.169-0.381,13.75c-0.721,12.223-2.809,24.285-3.773,36.468c-0.029,0.367,0.486,0.41,0.559,0.061
		C348.329,193.521,349.776,180.672,350.612,168.15"/>
	<path fill="#FFFFFF" d="M337.631,73.879c-0.039-0.089-0.168-0.028-0.137,0.061c2.232,6.174,3.494,12.429,5.107,18.758
		c0.074,0.289,0.492,0.228,0.461-0.075C342.407,86.201,340.114,79.797,337.631,73.879"/>
	<path fill="#99C457" d="M394.328,99.755c-1.446,3.626-3.243,7.137-5.136,10.549c-4.02,7.301-8.213,13.991-8.973,22.493
		c-0.338,3.795-0.459,7.609-1.615,11.266c-1,3.166-2.623,6.088-4.492,8.82c-4.357,6.348-9.805,11.82-13.842,18.406
		c-4.201,6.844-7.301,14.377-9.197,22.175c-0.1,0.428-0.773,0.313-0.674-0.113c0.016-0.035,0.02-0.061,0.025-0.098
		c-0.014-0.021-0.037-0.043-0.039-0.088c-0.641-18.23,0.814-36.603,6.375-54.065c2.432-7.635,5.432-15.23,8.834-22.488
		c2.979-6.333,6.691-12.419,11.92-17.15c3.393-3.056,10.752-8.848,15.582-5.783C395.414,95.153,395.24,97.48,394.328,99.755"/>
	<path fill="#FFFFFF" d="M376.006,141.08c-3.125,5.344-6.832,10.318-10.592,15.229c-1.766,2.303-3.557,4.587-5.318,6.896
		c-0.832,1.09-1.764,2.176-2.529,3.346c0.482-1.916,0.951-3.836,1.439-5.75c2.352-9.21,4.613-18.501,8.117-27.359
		c3.424-8.655,7.979-16.786,12.656-24.813c0.123-0.211-0.217-0.364-0.342-0.159c-3.852,6.334-7.76,12.661-11,19.339
		c-1.809,3.731-3.33,7.568-4.668,11.474c1.576-8.372,3.463-16.411,6.215-24.517c0.025-0.072-0.078-0.124-0.109-0.051
		c-3.359,7.949-5.777,16.889-6.449,25.504c-0.002,0.016,0.006,0.027,0.012,0.041c-0.789,2.365-1.516,4.758-2.193,7.166
		c-2.873,10.197-5.395,20.503-7.73,30.843c0.039-6.828,0.469-13.533,1.758-20.271c0.029-0.154-0.203-0.189-0.238-0.041
		c-1.693,6.939-2.459,14.24-1.76,21.371c-0.885,3.932-1.746,7.868-2.584,11.808c-1.793,8.4-3.996,16.955-5.041,25.486
		c-0.027,0.223,0.279,0.268,0.336,0.059c1.25-4.602,2.006-9.369,3.027-14.025c1.027-4.67,2.084-9.333,3.17-13.992
		c1.584-6.778,3.242-13.544,4.932-20.302c1.129-2.477,3.313-4.676,4.947-6.754c1.795-2.281,3.59-4.56,5.336-6.878
		c3.252-4.314,6.236-8.797,8.771-13.572C376.223,141.053,376.065,140.983,376.006,141.08"/>
	<path fill="#FFFFFF" d="M376.784,133.283c-3.953,5.074-7.541,10.691-10.365,16.473c-0.037,0.074,0.078,0.152,0.125,0.08
		c3.488-5.469,6.92-10.977,10.402-16.449C377.004,133.293,376.85,133.199,376.784,133.283"/>
	<path fill="#99C457" d="M299.184,117.038c2.363,4.069,5.059,8.955,4.045,13.84c-0.643,3.093-2.906,5.603-3.314,8.757
		c-0.916,6.963,6.023,11.564,11.045,14.855c12.518,8.212,29.684,15.533,31.959,32.304c0.088,0.594,1.113,0.447,1.039-0.135
		c0-0.039-0.012-0.074-0.023-0.111c0.023-0.039,0.063-0.051,0.063-0.1c1.619-8.496,1.584-17.156-0.236-25.615
		c-1.867-8.646-5.639-16.412-10.092-24.005c-7.533-12.853-15.51-26.012-26.902-35.856c-3.154-2.722-9.609-7.62-12.121-1.473
		C292.209,105.474,296.29,112.079,299.184,117.038"/>
	<path fill="#FFFFFF" d="M310.641,144.283c8.299,8.986,21.492,14.021,28.637,24.085c-4.232-15.425-11.238-29.294-22.01-41.342
		c-0.275-0.309,0.156-0.748,0.459-0.457c7.885,7.579,13.725,16.438,17.984,26.047c-1.916-6.861-4.596-13.354-7.744-19.805
		c-0.119-0.244,0.227-0.455,0.367-0.215c4.012,6.84,6.678,14.518,8.348,22.264c9.412,22.787,10.285,49.51,8.313,73.528
		c-0.029,0.342-0.551,0.354-0.541,0c0.541-18.926,0.234-38.185-4.303-56.669c-0.094-0.387-0.199-0.768-0.297-1.152
		c-7.771-10.832-20.908-15.851-29.355-26.14C310.417,144.328,310.551,144.186,310.641,144.283"/>
	<path fill="#FFFFFF" d="M308.717,136.569c4.357,3.996,8.646,8.084,13.01,12.078c0.043,0.041-0.014,0.117-0.064,0.084
		c-4.75-3.213-9.574-7.461-13.205-11.902C308.311,136.647,308.54,136.405,308.717,136.569"/>
	<path fill="#FFFFFF" d="M308.03,119.252c3.955,6.342,8.105,12.29,13.033,17.928c0.064,0.076-0.037,0.18-0.109,0.111
		c-5.291-5.098-9.99-11.26-13.158-17.903C307.721,119.233,307.936,119.101,308.03,119.252"/>
	<polygon fill="#16202E" points="327.643,245.329 365.803,245.329 360.661,193.988 333.52,193.988 	"/>
	<polygon points="332.563,202.333 361.5,202.333 360.665,193.988 333.518,193.988 	"/>
	<rect x="328.838" y="188.3" fill="#16202E" width="35.771" height="8.197"/>
	<path fill="#0B9AA8" d="M84.366,234.399c0,0,0.181-24.262-15.117-42.453c-13.551-16.109-20.753-26.33-16.475-31.035
		c4.278-4.707,13.433-5.843,25.814,7.176c12.381,13.018,13.339,49.136,11.63,57.308L84.366,234.399z"/>
	<path fill="#99C457" d="M84.366,234.399c0,0,0.181-24.262-15.117-42.453c-13.551-16.109-20.753-26.33-16.475-31.035
		c4.278-4.707,13.433-5.843,25.814,7.176c12.381,13.018,13.339,49.136,11.63,57.308L84.366,234.399z"/>
	<path fill="#FFFFFF" d="M87.003,208.315c-0.354,0-0.671-0.248-0.747-0.605c-5.354-25.042-19.101-38.89-26.817-44.913
		c-0.333-0.258-0.394-0.74-0.133-1.074c0.259-0.332,0.738-0.391,1.073-0.133c7.882,6.154,21.918,20.286,27.372,45.8
		c0.089,0.412-0.174,0.822-0.587,0.908C87.109,208.309,87.056,208.315,87.003,208.315"/>
	<path fill="#64B35B" d="M87.844,243.427l-6.215,3.588c0,0-1.589-5.582-8.39-7.176c-6.799-1.596-13.875-1.273-18.638-7.176
		c-4.762-5.902,1.036-12.32,0-16.67c-1.035-4.348-1.728-5.6-10.257-9.939c-8.528-4.342-11.902-11.552-5.481-16.441
		c6.419-4.89,16.854-1.297,23.134,2.988c5.606,3.83,10.929,4.84,17.174,5.605c6.245,0.768,16.446,4.264,14.887,18.791
		C92.5,231.526,87.844,243.427,87.844,243.427"/>
	<path fill="#FFFFFF" d="M63.91,224.311c-0.324,0-0.625-0.205-0.729-0.529c-0.129-0.404,0.094-0.834,0.495-0.963
		c0.562-0.18,13.802-4.359,19.393,0.133c0.329,0.264,0.382,0.744,0.117,1.074c-0.263,0.33-0.745,0.383-1.075,0.117
		c-4.958-3.98-17.837,0.09-17.968,0.131C64.066,224.3,63.987,224.311,63.91,224.311"/>
	<path fill="#FFFFFF" d="M88.545,242.247c-0.386,0-0.719-0.291-0.76-0.684c-3.407-32.215-42.214-47.5-42.605-47.65
		c-0.394-0.15-0.591-0.594-0.44-0.988c0.152-0.393,0.593-0.592,0.989-0.439c0.4,0.154,40.072,15.765,43.578,48.916
		c0.045,0.42-0.261,0.797-0.68,0.842C88.6,242.247,88.573,242.247,88.545,242.247"/>
	<rect x="83.357" y="84.394" fill="#FFCD2C" width="224.284" height="162.58"/>
	<polygon fill="#FFCD2C" points="162.603,67.558 83.357,67.558 83.357,84.395 167.157,84.395 	"/>
	<rect x="83.357" y="84.394" fill="#BC181C" width="224.284" height="162.58"/>
	<polygon fill="#BC181C" points="162.603,67.558 83.357,67.558 83.357,84.395 167.157,84.395 	"/>
	<path fill="#EDEDED" d="M306.12,186.137c-43.792-12.526-86.605-24.913-128.754-37.176c10.601-49.544,40.297-98.082,42.318-148.369
		c43.753,11.8,86.535,23.624,128.656,35.484C337.596,86.428,307.932,135.449,306.12,186.137"/>
	<path fill="#DFDFDF" d="M306.12,186.137c-43.796-12.432-86.633-24.723-128.813-36.896c-0.102-0.029-0.204-0.059-0.306-0.088
		c0.02-0.094,0.04-0.188,0.06-0.279c10.557-49.56,40.198-98.113,42.116-148.418c0.006-0.152,0.012-0.304,0.016-0.456l0.51,0.138
		c43.782,11.844,86.58,23.711,128.707,35.616c0.115,0.033,0.232,0.066,0.348,0.099c-0.023,0.107-0.047,0.215-0.07,0.323
		C337.807,86.493,308.053,135.483,306.12,186.137 M306.12,186.137c1.693-50.723,31.264-99.774,41.873-150.158
		c0.092,0.14,0.186,0.281,0.277,0.421c-42.115-11.817-84.88-23.596-128.605-35.352c0.178-0.107,0.354-0.213,0.529-0.319
		c-2.127,50.269-31.878,98.791-42.523,148.32c-0.082-0.123-0.163-0.244-0.245-0.367C219.54,161.037,262.332,173.515,306.12,186.137"
		/>
	<path fill="#BC181C" d="M299.18,94.077c-6.51,17.385-26.237,27.075-44.646,21.638c-18.506-5.428-28.062-23.805-21.704-41.102
		c6.296-17.32,25.333-27.129,43.978-21.792C295.524,58.176,305.774,76.675,299.18,94.077"/>
	<path fill="#DFDFDF" d="M266.027,84.323c-7.551,8.621-15.188,17.224-22.639,25.826c-11.233-8.411-15.271-22.574-10.558-35.535
		c6.257-17.204,25.46-27.093,43.978-21.792c18.595,5.318,28.923,23.97,22.372,41.256C288.131,90.821,277.083,87.569,266.027,84.323"
		/>
	<path fill="#DFDFDF" d="M266.027,84.323c6.582,8.849,13.09,17.704,19.742,26.578c-9.131,6.142-20.68,7.929-31.236,4.815
		c-18.381-5.392-28.017-23.921-21.702-41.102c6.257-17.204,25.46-27.093,43.978-21.792c18.595,5.318,28.923,23.97,22.372,41.256
		C288.131,90.821,277.083,87.569,266.027,84.323"/>
	<path fill="#FFCD2C" d="M266.027,84.323c-11.594,1.939-23.193,3.872-34.792,5.799c-0.783-5.17-0.219-10.487,1.596-15.508
		c6.257-17.204,25.46-27.093,43.978-21.792c18.595,5.318,28.923,23.97,22.372,41.256C288.131,90.821,277.083,87.569,266.027,84.323"
		/>
	<path fill="#DFDFDF" d="M229.59,22.406c17.771,4.938,35.411,9.882,52.946,14.833c-0.307,1.284-0.623,2.568-0.951,3.852
		c-17.467-4.954-35.033-9.899-52.72-14.839C229.122,24.97,229.362,23.688,229.59,22.406"/>
	<path fill="#DFDFDF" d="M225.575,121.469c23.419,6.903,46.948,13.836,70.645,20.803c-0.357,1.279-0.703,2.561-1.039,3.842
		c-23.778-6.98-47.376-13.926-70.852-20.84C224.737,124.004,225.153,122.737,225.575,121.469"/>
	<path fill="#DFDFDF" d="M222.514,131.074c23.573,6.934,47.29,13.896,71.207,20.9c-0.301,1.283-0.592,2.566-0.869,3.852
		c-24.019-7.018-47.821-13.998-71.467-20.941C221.752,133.614,222.129,132.344,222.514,131.074"/>
	<path fill="#DFDFDF" d="M219.772,140.696c23.769,6.967,47.716,13.969,71.898,21.007c-0.238,1.287-0.463,2.574-0.674,3.863
		c-24.298-7.056-48.349-14.074-72.207-21.052C219.106,143.24,219.434,141.969,219.772,140.696"/>
	<path fill="#FFCD2C" d="M211.729,121.569c-2.842-0.835-5.684-1.67-8.521-2.504c0.424-1.266,0.854-2.53,1.292-3.795
		c2.834,0.833,5.667,1.667,8.505,2.501C212.573,119.037,212.149,120.303,211.729,121.569"/>
	<path fill="#4E656F" d="M208.698,131.164c-2.861-0.839-5.722-1.677-8.579-2.515c0.39-1.267,0.786-2.533,1.19-3.799
		c2.85,0.836,5.701,1.673,8.555,2.511C209.467,128.628,209.079,129.896,208.698,131.164"/>
	<path fill="#DFDFDF" d="M205.991,140.776c-2.886-0.844-5.769-1.686-8.648-2.527c0.342-1.27,0.694-2.537,1.058-3.807
		c2.87,0.842,5.744,1.684,8.619,2.523C206.667,138.235,206.324,139.504,205.991,140.776"/>
	<polygon fill="#EB1A21" points="307.051,246.973 82.769,246.973 65.471,97.884 289.752,97.884 	"/>
	<polygon fill="#EB1A21" points="142.924,82.444 63.679,82.444 65.471,97.884 149.27,97.884 	"/>
	<path fill="#FFCD2C" d="M192.063,29.028c-0.394-1.332-0.481-2.663-0.5-3.994c0.016-1.332,0.104-2.663,0.5-3.995
		c0.396,1.332,0.485,2.663,0.5,3.995C192.546,26.365,192.458,27.696,192.063,29.028"/>
	<path fill="#FFCD2C" d="M183.929,31.38c-1.007-0.956-1.75-2.064-2.43-3.209c-0.652-1.161-1.241-2.358-1.563-3.709
		c1.009,0.955,1.75,2.064,2.43,3.209C183.016,28.833,183.605,30.03,183.929,31.38"/>
	<path fill="#FFCD2C" d="M178.062,37.484c-1.35-0.324-2.548-0.913-3.709-1.564c-1.146-0.679-2.254-1.421-3.209-2.43
		c1.352,0.322,2.548,0.911,3.709,1.564C175.998,35.734,177.106,36.477,178.062,37.484"/>
	<path fill="#FFCD2C" d="M176.033,45.705c-1.332,0.394-2.663,0.482-3.994,0.5c-1.332-0.015-2.663-0.104-3.995-0.5
		c1.332-0.396,2.663-0.485,3.995-0.5C173.37,45.221,174.701,45.31,176.033,45.705"/>
	<path fill="#FFCD2C" d="M178.384,53.838c-0.956,1.007-2.063,1.75-3.209,2.43c-1.161,0.653-2.357,1.242-3.709,1.564
		c0.955-1.009,2.064-1.751,3.209-2.43C175.837,54.751,177.035,54.162,178.384,53.838"/>
	<path fill="#FFCD2C" d="M184.488,59.706c-0.324,1.35-0.913,2.547-1.563,3.709c-0.68,1.146-1.421,2.254-2.43,3.209
		c0.322-1.351,0.911-2.548,1.563-3.709C182.738,61.771,183.481,60.662,184.488,59.706"/>
	<path fill="#FFCD2C" d="M192.708,61.736c0.395,1.332,0.482,2.663,0.499,3.994c-0.015,1.332-0.103,2.663-0.499,3.995
		c-0.396-1.332-0.484-2.663-0.5-3.995C192.226,64.398,192.314,63.068,192.708,61.736"/>
	<path fill="#FFCD2C" d="M200.842,59.384c1.007,0.956,1.749,2.064,2.431,3.209c0.652,1.161,1.241,2.358,1.563,3.709
		c-1.009-0.955-1.752-2.064-2.43-3.209C201.755,61.93,201.167,60.733,200.842,59.384"/>
	<path fill="#FFCD2C" d="M206.709,53.28c1.352,0.324,2.549,0.913,3.709,1.564c1.146,0.679,2.256,1.421,3.211,2.43
		c-1.352-0.322-2.549-0.911-3.709-1.564C208.776,55.03,207.667,54.286,206.709,53.28"/>
	<path fill="#FFCD2C" d="M208.741,45.06c1.33-0.395,2.662-0.483,3.994-0.5c1.332,0.015,2.662,0.104,3.994,0.5
		c-1.332,0.396-2.662,0.485-3.994,0.5C211.403,45.543,210.071,45.453,208.741,45.06"/>
	<path fill="#FFCD2C" d="M206.387,36.926c0.956-1.007,2.064-1.75,3.211-2.43c1.16-0.653,2.357-1.242,3.709-1.565
		c-0.955,1.01-2.064,1.752-3.211,2.431C208.936,36.012,207.739,36.602,206.387,36.926"/>
	<path fill="#FFCD2C" d="M200.284,31.057c0.324-1.35,0.913-2.547,1.564-3.709c0.678-1.145,1.421-2.254,2.43-3.209
		c-0.322,1.351-0.911,2.548-1.563,3.709C202.033,28.993,201.291,30.102,200.284,31.057"/>
	<path fill="#FFCD2C" d="M225.127,162.734h51.388c0,0,2.545-5.25,2.545-10.228v-41.16h-51.386v41.695
		C227.674,157.209,225.127,162.734,225.127,162.734"/>
	<path fill="#FFFFFF" d="M233.965,123.49c6.042-0.496,12.085-0.61,18.128-0.636c6.043,0.023,12.086,0.137,18.129,0.636
		c-6.043,0.499-12.086,0.614-18.129,0.636C246.05,124.101,240.007,123.986,233.965,123.49"/>
	<path fill="#FFFFFF" d="M233.965,130.265c5.435-0.496,10.87-0.611,16.306-0.636c5.436,0.023,10.871,0.137,16.307,0.636
		c-5.436,0.499-10.871,0.614-16.307,0.637C244.835,130.876,239.4,130.761,233.965,130.265"/>
	<path fill="#FFFFFF" d="M233.965,137.041c4.753-0.496,9.507-0.611,14.263-0.639c4.754,0.023,9.508,0.139,14.262,0.639
		c-4.754,0.498-9.508,0.611-14.262,0.635C243.472,137.651,238.718,137.537,233.965,137.041"/>
	<path fill="#FFFFFF" d="M233.965,143.815c6.042-0.496,12.085-0.609,18.128-0.637c6.043,0.023,12.086,0.139,18.129,0.637
		c-6.043,0.5-12.086,0.613-18.129,0.637C246.05,144.426,240.007,144.311,233.965,143.815"/>
</g>
</svg>
