<?xml version="1.0" encoding="utf-8"?>
<!-- Generator: Adobe Illustrator 16.0.0, SVG Export Plug-In . SVG Version: 6.00 Build 0)  -->
<!DOCTYPE svg PUBLIC "-//W3C//DTD SVG 1.1//EN" "http://www.w3.org/Graphics/SVG/1.1/DTD/svg11.dtd">
<svg version="1.1" id="Layer_1" xmlns="http://www.w3.org/2000/svg" xmlns:xlink="http://www.w3.org/1999/xlink" x="0px" y="0px"
	 width="222.127px" height="164px" viewBox="0 0 222.127 164" enable-background="new 0 0 222.127 164" xml:space="preserve">
<g>
	<g>
		<defs>
			<rect id="SVGID_1_" width="222.127" height="164"/>
		</defs>
		<clipPath id="SVGID_2_">
			<use xlink:href="#SVGID_1_"  overflow="visible"/>
		</clipPath>
		<path clip-path="url(#SVGID_2_)" fill="#B4B6B8" d="M188.361,158.015c0,3.306-37.254,5.985-83.21,5.985s-83.21-2.68-83.21-5.985
			s37.254-5.985,83.21-5.985S188.361,154.709,188.361,158.015"/>
		<path clip-path="url(#SVGID_2_)" fill="#E3E4E5" d="M27.785,154.88c0,0-39.211-39.244-14.86-62.709
			c24.35-23.466,43.596,6.997,56.906,4.752c16.847-2.84,24.133-45.583,49.319-45.623c28.655-0.046,49.688,16.894,38.484,57.238
			c-8.263,29.755,48.537,5.389,40.194,46.921L27.785,154.88z"/>
		<path clip-path="url(#SVGID_2_)" fill="#99C457" d="M115.746,151.244c-6.595-1.062-11.574,1.248-16.361,0.585
			c-3.818-0.53-5.808-4.393-10.938-5.487c1.22-0.72,2.643-1.619,3.322-2.273c1.32-1.272,3.217-3.815,0-3.916
			c-2.314-0.071-4.117,3.784-4.946,5.952c-0.76-0.063-1.583-0.068-2.478-0.003c1.059-3.412,3.124-10.019,3.628-11.288
			c0.688-1.727-2.199-7.484-5.603-1.023c-2.387,4.533-0.766,9.771,0.415,12.494c-0.933,0.15-1.812,0.368-2.652,0.63
			c-2.813-6.415-11.758-24.706-21.456-22.434c-10.572,2.479,12.078,14.774,17.791,23.892c-4.667,2.163-8.768,4.79-15.855,2.872
			c-18.836-5.1-20.33,6.374-20.33,6.374l84.175,0.028C124.458,157.646,122.34,152.305,115.746,151.244"/>
		<path clip-path="url(#SVGID_2_)" fill="#E42525" d="M222.066,150.883c-0.467,1.574-2.625,2.624-2.917,4.55
			c-0.142,0.939-0.492,1.669-0.937,2.171h-6.719c0.067-0.37,0.361-0.769,1.235-0.959c1.866-0.408,2.57-2.67,2.454-4.771
			c-0.048-0.88-0.026-1.884,0.018-2.752c0.06-1.203,0.157-2.147,0.157-2.147l3.967-0.933l0.417,0.535l0.399,0.515
			C220.142,147.092,222.532,149.308,222.066,150.883"/>
		<path clip-path="url(#SVGID_2_)" fill="#2C3A64" d="M190.781,157.604h-13.592c0.308-0.36,0.83-0.709,1.713-0.853
			c2.092-0.34,5.715-1.554,6.522-4.228c0.026-0.086,0.05-0.174,0.069-0.264c0.641-2.857,5.308,0.875,5.308,0.875
			s0.016,0.115,0.036,0.31C190.92,154.248,191.102,156.432,190.781,157.604"/>
		<path clip-path="url(#SVGID_2_)" fill="#2D2B2C" d="M179.458,81.88c0,0,0.708,8.842,1.542,19.471
			c1.132,14.438,2.493,32.173,2.628,35.533c0.233,5.833,1.167,15.165,1.167,15.165s2.215,2.218,6.649,1.283
			c0,0,3.951-13.321,5.079-27.417c0.019-0.23,0.036-0.463,0.054-0.696c1.05-14.349,2.683-44.563,2.683-44.563L179.458,81.88z"/>
		<path clip-path="url(#SVGID_2_)" fill="#201D1D" d="M179.458,81.88c0,0,0.708,8.842,1.542,19.471l15.523,24.564
			c0.019-0.23,0.036-0.463,0.054-0.696c1.05-14.349,2.683-44.563,2.683-44.563L179.458,81.88z"/>
		<path clip-path="url(#SVGID_2_)" fill="#2D2B2C" d="M182.694,82.93c0,0,12.774,32.022,21.173,47.071
			c8.399,15.049,11.024,19.249,11.024,19.249s4.812-1.925,5.25-3.237c0,0-3.212-29.053-8.837-36.135
			c-3.179-4.002-6.912-16.012-7.087-20.211c-0.176-4.199-1.138-12.512-1.138-12.512L182.694,82.93z"/>
		<path clip-path="url(#SVGID_2_)" fill="#935C2F" d="M189.246,33.5c-0.568-3.354-0.586-5.341-0.586-5.341l6.481-5.224
			c-0.241,7.183,4.361,10.637,4.361,10.637s-8.637,4.251-13.629,2.676C185.874,36.248,187.104,34.678,189.246,33.5"/>
		<path clip-path="url(#SVGID_2_)" fill="#A16D3C" d="M187.134,28.041c0,0,8.245,1.369,9.02-3.778
			c0.773-5.147,2.359-8.438-2.873-9.53c-5.231-1.092-6.552,0.719-7.229,2.373C185.376,18.762,185.009,27.552,187.134,28.041"/>
		<path clip-path="url(#SVGID_2_)" fill="#A16D3C" d="M158.175,38.652l-1.754-1.086c0,0-2.189-3.232-5.929-1.225
			c0,0-1.48,0.945-0.486,1.735s0.727,0.343,2.104,1.489c1.376,1.145,3.158,1.554,4.307,0.922l1.474-0.139L158.175,38.652z"/>
		<path clip-path="url(#SVGID_2_)" fill="#CB2322" d="M156.092,38.991c0.451-1.415,0.666-1.54,0.666-1.54s14.196,1.678,15.534,1.777
			c1.339,0.099,19.925-3.73,19.925-3.73l8.775,10.656c0,0-25.874,0.976-29.261,0.658c-5.596-0.524-15.743-5.734-15.743-5.734
			S155.736,40.102,156.092,38.991"/>
		<path clip-path="url(#SVGID_2_)" fill="#E42525" d="M204.054,78.792c0.025,0.55-1.108,1.153-1.6,1.374
			c-3.706,1.662-7.157,2.816-11.057,3.191c-4.625,0.475-10.092-0.566-11.965-0.541c-0.201,0-0.376-0.074-0.526-0.2
			c-0.124-0.1-0.225-5.749-0.124-12.872c0-0.275,0-0.576,0.024-0.852v-0.1c0.008-0.742,0.019-1.495,0.034-2.256
			c0.047-2.082,0.126-4.22,0.216-6.344c0.136-3.131,0.322-6.209,0.579-8.935c0.27-2.848,0.611-5.313,1.047-7.063
			c0.999-4.024,3.299-6.675,5.399-8.625l1.724-1.522c1.724,0.348,3.55,0.248,5.374-0.65c1.975-0.977,4.125-2.026,4.475-1.775
			c2.665,1.991,4.459,6.514,5.379,12.26c0.494,3.094,0.735,6.541,0.723,10.141c-0.006,1.38-0.048,2.781-0.128,4.195
			c-0.445,7.59,0.012,14.172,0.273,17.996C203.978,77.314,204.037,78.189,204.054,78.792"/>
		<path clip-path="url(#SVGID_2_)" fill="#201D1D" d="M160.223,8.623l-52.144-8.281c-2.218-0.353-4.3,1.16-4.652,3.377
			l-2.309,14.533c-0.106,0.674,0.064,2.565,0.064,2.565l1.879,0.279c0.106,0.022,0.215,0.04,0.326,0.048
			c0.34,0.028,0.695-0.014,1.05-0.143c1.729-0.625,3.644-0.816,5.592-0.459c5.488,1.007,9.328,6.129,8.744,11.678
			c-0.65,6.174-6.323,10.465-12.375,9.504c-2.276-0.361-4.272-1.414-5.806-2.908c-0.297-0.29-0.655-0.443-1.017-0.48l-1.966-0.295
			L95.161,55.77c-0.348,2.187,1.144,4.24,3.33,4.588l14.896,2.365c1.378,0.219,2.044,1.812,1.231,2.947
			c-0.938,1.313-1.595,2.857-1.865,4.559c-1.063,6.694,4.3,12.925,11.528,12.406c3.639-0.261,7.748-3.313,9.067-6.715
			c0.974-2.512,0.975-5.061,0.241-7.315c-0.419-1.29,0.682-2.565,2.021-2.353l14.988,2.381c2.186,0.348,4.238-1.144,4.586-3.329
			l8.289-52.2C163.813,10.969,162.357,8.962,160.223,8.623"/>
		<path clip-path="url(#SVGID_2_)" fill="#CB2322" d="M197.845,43.729c0,0-3.997,18.652-19.003,22.809
			c0.046-2.082,0.125-4.22,0.215-6.344c0.136-3.131,0.321-6.209,0.579-8.935c0.268-0.139,0.52-0.246,0.75-0.321
			C185.478,49.258,197.845,43.729,197.845,43.729"/>
		<path clip-path="url(#SVGID_2_)" fill="#2D2B2C" d="M131.421,75.629c0.974-2.512,0.975-5.06,0.241-7.316
			c-0.419-1.289,0.681-2.564,2.021-2.352l14.988,2.381c2.186,0.348,4.238-1.144,4.586-3.328l8.29-52.201
			c0.339-2.135-1.117-4.142-3.252-4.48l-52.144-8.281c-2.218-0.352-4.3,1.16-4.652,3.377l-2.308,14.533
			c-0.298,1.881,1.528,3.398,3.318,2.75c1.729-0.625,3.645-0.815,5.593-0.459c5.488,1.007,9.328,6.129,8.744,11.678
			c-0.65,6.174-6.323,10.465-12.375,9.504c-2.277-0.361-4.271-1.413-5.806-2.908c-0.997-0.972-2.674-0.418-2.892,0.956
			l-2.541,15.997c-0.347,2.187,1.144,4.24,3.33,4.588l14.896,2.365c1.378,0.219,2.044,1.811,1.231,2.946
			c-0.938,1.313-1.595,2.857-1.865,4.56c-1.064,6.693,4.301,12.925,11.528,12.406C125.993,82.083,130.102,79.031,131.421,75.629"/>
		<path clip-path="url(#SVGID_2_)" fill="#A16D3C" d="M158.235,50.678l-2.144-0.354c0,0-2.444-3.537-6.704-1.554
			c0,0-1.689,0.945-0.572,1.83c1.117,0.884,0.819,0.397,2.367,1.675c1.548,1.279,3.562,1.79,4.871,1.165l1.672-0.087L158.235,50.678
			z"/>
		<path clip-path="url(#SVGID_2_)" fill="#E42525" d="M156.597,51.768c0.069-1.578,0.91-1.746,0.91-1.746s16.24-1.074,17.641-1.346
			c1.401-0.271,14.336-10.988,14.336-10.988s5.002-4.496,8.506-2.979c3.046,1.318,4,3.918,4.152,6.311
			c0.183,2.851-1.425,5.515-4.012,6.723c-5.81,2.714-17.427,8.04-20.072,8.5c-5.889,1.021-21.024-2.256-21.024-2.256
			S156.542,53.007,156.597,51.768"/>
		<path clip-path="url(#SVGID_2_)" fill="#201D1D" d="M186.053,17.105c0,0-3.347-2.481-1.164-6.337c0,0,2.632,0.872,6.372,0
			c3.739-0.873,7.086,0.364,7.522,1.673c0,0,1.454,0.582,1.601,2.765c0.146,2.183-4.231,9.057-4.231,9.057s-0.934-1.163-0.68-1.964
			c0.255-0.801,1.056-2.582,0.073-2.582s-1.31,1.454-1.71,0.872c-0.399-0.581,0.328-3.019-0.836-3.419
			S187.362,17.842,186.053,17.105"/>
		<path clip-path="url(#SVGID_2_)" fill="#99C457" d="M197.049,114.762c-5.456-5.238-25.097,27.809-25.097,27.809
			S202.505,119.999,197.049,114.762"/>
		<path clip-path="url(#SVGID_2_)" fill="#99C457" d="M196.395,130.038c-4.831-1.933-20.266,14.341-23.742,18.099
			c-2.66-0.354-5.577-0.583-8.774-0.641c-24.441-0.437-35.528,10.634-35.528,10.634l68.182,0.231c0,0-6.04-7.668-23.174-10.129
			c4.187-1.977,16.569-7.735,21.073-8.843C199.886,138.048,201.85,132.22,196.395,130.038"/>
		<path clip-path="url(#SVGID_2_)" fill="#CB2322" d="M156.918,96.87h-14.715c-1.904,0-3.117,2.043-2.196,3.709
			c0.889,1.608-2.239,15.555-8.832,15.919c-6.196,0.342-11.326-4.604-11.326-10.73c0-2.306,0.726-4.44,1.962-6.19
			c0.803-1.138-0.006-2.707-1.398-2.707h-16.197c-2.214,0-4.008,1.795-4.008,4.009c0,0-1.468,17.386-2.717,16.762
			c-1.286-0.643-2.72-1.034-4.236-1.112h0h-0.015c-0.181-0.01-0.362-0.015-0.545-0.015c-0.184,0-2.85-0.046-2.85-0.046
			l-0.404,21.483l2.315,0.025c2.202-0.066,4.113-0.272,5.812-1.139c1.208-0.616,2.64,0.271,2.64,1.626v15.177
			c0,2.212,1.794,4.006,4.007,4.006h52.855c2.161,0,3.914-1.752,3.914-3.914v-52.797C160.982,98.69,159.162,96.87,156.918,96.87"/>
		<path clip-path="url(#SVGID_2_)" fill="#E42525" d="M87.453,137.701c2.635,0.567,5.151,0.169,7.264-0.909
			c1.208-0.615,2.64,0.271,2.64,1.627v15.176c0,2.213,1.794,4.007,4.007,4.007h52.854c2.162,0,3.915-1.753,3.915-3.915V100.89
			c0-2.245-1.819-4.064-4.064-4.064h-14.716c-1.904,0-3.116,2.042-2.195,3.708c0.889,1.609,1.377,3.472,1.33,5.451
			c-0.133,5.579-4.589,10.175-10.161,10.468c-6.199,0.326-11.327-4.604-11.327-10.73c0-2.305,0.726-4.44,1.962-6.19
			c0.803-1.138-0.007-2.706-1.398-2.706h-16.197c-2.214,0-4.009,1.795-4.009,4.009v15.082c0,1.396-1.468,2.304-2.717,1.679
			c-1.443-0.721-3.072-1.127-4.796-1.127c-6.777,0-12.089,6.274-10.444,13.331C80.229,133.353,83.887,136.932,87.453,137.701"/>
		<path clip-path="url(#SVGID_2_)" fill="#99C457" d="M21.351,157.897l9.5,0.07c0,0-0.331-2.299-6.725-2.892
			c-2.479-6.887-9.762-25.412-16.086-24.536c-6.244,0.865,8.544,17.861,14.561,24.468c-0.852,0.002-1.645,0.071-2.377,0.188
			c-1.45-2.886-4.323-6.964-8.935-6.778c-4.908,0.198,1.779,4.68,6.383,7.433c-2.332,0.836-3.591,1.993-3.591,1.993l7.164,0.053
			c0.084,0.046,0.13,0.071,0.13,0.071S21.366,157.942,21.351,157.897"/>
		<path clip-path="url(#SVGID_2_)" fill="#EA8E50" d="M50.131,81.135l1.405,1.143c0,0,3.846-1.379,4.713,3.189
			c0,0,0.231,1.947-1.002,1.951s-0.725-0.213-2.471-0.162c-1.746,0.052-3.194-0.87-3.45-2.287l-0.836-1.201L50.131,81.135z"/>
		<path clip-path="url(#SVGID_2_)" fill="#1E3D70" d="M49.972,83.585c1.122-1.171,1.031-2.036,1.031-2.036
			S38.019,70.918,36.701,70.052c-0.897-0.591-10.46-9.068-14.93-14.237c-2.217-2.563-4.964-1.568-8.106-0.666l-2.587,0.742
			c-3.125,0.896-3.938,5.267-1.374,7.391c7.22,5.98,19.232,12.707,21.479,14.121c5.58,3.51,16.5,7.681,16.5,7.681
			S49.009,84.59,49.972,83.585"/>
		<path clip-path="url(#SVGID_2_)" fill="#2D2B2C" d="M65.168,148.791c0,0,3.151,2.36,7.98,1.113c0,0,3.893-0.888,4.747,1.055
			c0,0-5.97,3.033-7.481,3.862c-1.139,0.625-2.327,1.612-3.167,2.375c-0.665,0.604-1.7,0.522-2.267-0.175
			c-0.263-0.323-0.563-0.708-0.893-1.154c-0.92-1.247-3.065-5.277-3.065-5.277L65.168,148.791z"/>
		<path clip-path="url(#SVGID_2_)" fill="#E42525" d="M66.64,147.7c0,0-1.919,4.425-6.348,3.611c0,0-9.039-7.464-15.238-15.218
			c-2.013-2.519-3.728-5.067-4.735-7.4c-4.111-9.519-15.207-23.715-22.263-30.91l17.652-6.386c0,0,5.653,11.373,13.176,25.344
			C54.305,126.807,60.695,138.221,66.64,147.7"/>
		<path clip-path="url(#SVGID_2_)" fill="#CB2322" d="M48.884,116.741l-3.83,19.353c-2.014-2.519-3.728-5.067-4.735-7.4
			c-4.111-9.519-15.208-23.715-22.263-30.91l17.652-6.386C35.708,91.397,41.361,102.771,48.884,116.741"/>
		<path clip-path="url(#SVGID_2_)" fill="#2D2B2C" d="M34.409,151.301c0,0-0.192,3.53,4.088,4.001c0,0,2.445,0.014,2.453,2.261
			l-12.439,0.039c0,0-0.361-0.906-0.449-2.848c-0.067-1.491,1.445-5.389,1.445-5.389L34.409,151.301z"/>
		<path clip-path="url(#SVGID_2_)" fill="#E42525" d="M29.917,91.397c0,0,7.864,8.641,12.855,24.207
			c2.715,8.47-4.978,29.765-6.478,37.163c0,0-5.161,0.438-8.689-0.927c0,0-0.269-15.281,1.795-27.059
			c1.155-6.592-10.353-14.098-15.382-26.009c-3.421-8.103,0.741-7.965,5.855-8.159L29.917,91.397z"/>
		<path clip-path="url(#SVGID_2_)" fill="#FFB07B" d="M20.84,52.848C16.465,55.318,7.509,53.04,7.509,53.04
			s3.637-4.158,1.984-10.854l3.435,1.744l3.69,1.873c0,0,0.238,1.184,0.404,3.308c0.042,0.548,0.08,1.158,0.106,1.826
			C19.375,51.617,20.84,52.848,20.84,52.848"/>
		<path clip-path="url(#SVGID_2_)" fill="#2D2B2C" d="M36.883,90.951c0,0.769-0.886,1.137-1.074,1.174
			c-1.764,0.323-6.691,2.239-11.13,2.679c-3.737,0.392-7.208,0.021-11.02-0.745c-0.504-0.102-1.689-0.421-1.774-0.904
			C11.78,92.626-2.819,63.393,8.53,50.836c0.267-0.295,2.507,0.236,4.556,0.723c1.892,0.448,3.627,0.198,5.177-0.424l1.921,1.012
			c2.359,1.314,6.824,5.984,7.346,9.65c0.266,1.863,1.331,3.244,1.64,4.884c0.115,0.606,0.231,1.199,0.351,1.776
			c0.232,1.133,0.473,2.209,0.719,3.234c0.667,2.771,1.373,5.158,2.064,7.221c0.736,2.188,1.458,4.009,2.104,5.532
			c0.836,1.975,1.543,3.45,1.985,4.581C36.704,89.821,36.883,90.445,36.883,90.951"/>
		<path clip-path="url(#SVGID_2_)" fill="#201D1D" d="M36.392,89.025C15.784,79.316,8.647,60.672,8.647,60.672
			s16.744,6.177,20.873,7.785c0.232,1.133,0.473,2.21,0.719,3.234c0.667,2.771,1.372,5.158,2.064,7.22
			c0.737,2.189,1.458,4.01,2.104,5.533C35.243,86.419,35.95,87.895,36.392,89.025"/>
		<path clip-path="url(#SVGID_2_)" fill="#CB2322" d="M94.602,68.376l-4.414-13.997c-0.429-1.359-1.835-2.003-3.063-1.657
			l-0.003,0.001c-0.065,0.019-0.13,0.041-0.194,0.064l-1.548,0.518c0,0-2.423,2.495-4.163,2.999
			c-5.346,1.546-10.42-1.303-12.372-6.515c-2.169-5.799,0.348-12.166,6.176-14.004c1.994-0.628,5.918,0.544,5.918,0.544l1.576-0.524
			c0.855-0.26,1.443-1.183,1.138-2.152l-4.859-15.406c-0.664-2.105-2.909-3.273-5.015-2.609L59.431,20.16
			c-1.328,0.419-2.63-0.705-2.412-2.08c0.253-1.59,0.151-3.261-0.366-4.9C54.62,6.733,47.059,3.563,40.84,7.245
			c-3.131,1.854-5.439,6.407-5.1,10.03c0.25,2.676,1.384,4.95,3.043,6.637c0.948,0.965,0.535,2.592-0.755,2.998l-14.435,4.553
			c-2.105,0.664-3.273,2.908-2.609,5.014L36.838,86.75c0.649,2.056,2.842,3.197,4.898,2.549l50.218-15.838
			C94.09,72.789,95.275,70.512,94.602,68.376"/>
		<path clip-path="url(#SVGID_2_)" fill="#E42525" d="M34.212,17.785c0.25,2.676,1.385,4.949,3.043,6.637
			c0.948,0.964,0.535,2.591-0.755,2.998l-14.436,4.552c-2.104,0.664-3.273,2.909-2.609,5.014l15.854,50.273
			c0.648,2.057,2.841,3.197,4.897,2.549l50.219-15.837c2.135-0.674,3.32-2.95,2.646-5.086L88.66,54.889
			c-0.571-1.812-2.877-2.352-4.186-0.977c-1.264,1.328-2.888,2.352-4.786,2.9c-5.346,1.547-11.054-1.313-13.004-6.525
			c-2.17-5.798,0.98-12.154,6.809-13.992c2.193-0.691,4.441-0.642,6.477,0.009c1.322,0.423,2.572-0.817,2.154-2.142l-4.859-15.406
			c-0.664-2.105-2.909-3.274-5.015-2.61L57.904,20.67c-1.328,0.418-2.631-0.705-2.412-2.08c0.253-1.59,0.151-3.261-0.366-4.9
			c-2.034-6.447-9.595-9.617-15.813-5.936C36.181,9.607,33.873,14.162,34.212,17.785"/>
		<path clip-path="url(#SVGID_2_)" fill="#FFB07B" d="M48.449,83.398l1.78,0.653c0,0,3.566-2.521,5.786,1.579
			c0,0,0.804,1.791-0.467,2.181c-1.271,0.39-0.809,0.022-2.596,0.618c-1.787,0.595-3.547,0.166-4.222-1.11l-1.21-0.888
			L48.449,83.398z"/>
		<path clip-path="url(#SVGID_2_)" fill="#2D2B2C" d="M49.915,85.917c0.659-1.718,0.959-2.496,0.959-2.496
			S37.418,72.453,36.046,71.512c-0.934-0.641-10.235-7.594-14.771-13.012c-2.25-2.688-5.796-3.916-9.226-3.197l-2.825,0.593
			c-3.411,0.716-4.519,5.032-1.874,7.301c7.452,6.388,20.021,13.798,22.364,15.339c5.818,3.826,18.685,9.187,18.685,9.187
			S49.397,87.266,49.915,85.917"/>
		<path clip-path="url(#SVGID_2_)" fill="#EA8E50" d="M17.022,49.11c-4.302,0.241-7.1-3.311-7.1-3.311s1.945-1.077,3.006-1.87
			l3.689,1.873C16.618,45.803,16.856,46.986,17.022,49.11"/>
		<path clip-path="url(#SVGID_2_)" fill="#FFB07B" d="M18.855,44.693c0,0-6.519,4.678-9.37,0.573s-5.612-6.265-1.57-9.425
			s5.947-2.162,7.231-1.023C16.432,35.957,20.478,43.371,18.855,44.693"/>
		<path clip-path="url(#SVGID_2_)" fill="#201D1D" d="M15.835,31.111c-0.234-1.578-0.76-2.688-0.76-2.688s-0.409,1.694-3.506,1.461
			c-3.097-0.234-8.005,0.305-9.641,3.833c-0.104,0.226-0.197,0.456-0.28,0.692c-0.296-0.782-0.367-1.955-0.367-1.955
			c-0.588,1.52,0,3.42,0,3.42l0,0c-0.008,0.055-0.016,0.111-0.024,0.166C0.575,36.619,0,38.415,0,38.415
			c0.207-0.5,0.709-0.827,1.158-1.028c-0.014,2.746,1.1,5.43,3.054,6.229c2.858,1.168,2.835,0.277,5.71,2.184
			c0,0,0.771-0.956,0.245-1.599c-0.526-0.644-2.513-1.578-1.402-2.514c1.11-0.935,1.519,0.117,1.928-0.525s-1.636-2.514,0.994-4.266
			C14.316,35.144,16.069,32.689,15.835,31.111"/>
		<path clip-path="url(#SVGID_2_)" fill="#64B35B" d="M122.118,157.626c0,0-3.296-4.872-8.455-4.479
			c-1.567,0.119-4.116,0.501-7.075,0.908c-2.232-7.789-8.384-26.304-16.682-27.346c-8.475-1.064,8.109,19.525,14.891,27.588
			c-1.237,0.162-2.521,0.321-3.817,0.462c-3.59-3.833-9.847-9.513-15.072-9.076c-5.238,0.438,4.568,5.853,11.646,9.395
			c-4.342,0.325-8.46,0.289-10.976-0.684c-6.163-2.383-11.826,3.232-11.826,3.232H122.118z"/>
	</g>
</g>
</svg>
