<?xml version="1.0" encoding="utf-8"?>
<!-- Generator: Adobe Illustrator 16.0.0, SVG Export Plug-In . SVG Version: 6.00 Build 0)  -->
<!DOCTYPE svg PUBLIC "-//W3C//DTD SVG 1.1//EN" "http://www.w3.org/Graphics/SVG/1.1/DTD/svg11.dtd">
<svg version="1.1" id="Layer_1" xmlns="http://www.w3.org/2000/svg" xmlns:xlink="http://www.w3.org/1999/xlink" x="0px" y="0px"
	 width="570px" height="350px" viewBox="0 0 570 350" enable-background="new 0 0 570 350" xml:space="preserve">
<g>
	<defs>
		<rect id="SVGID_1_" x="0" y="1.75" width="570" height="348.25"/>
	</defs>
	<clipPath id="SVGID_2_">
		<use xlink:href="#SVGID_1_"  overflow="visible"/>
	</clipPath>
	<g clip-path="url(#SVGID_2_)">
		<defs>
			<rect id="SVGID_3_" x="0" y="1.75" width="570" height="348.25"/>
		</defs>
		<clipPath id="SVGID_4_">
			<use xlink:href="#SVGID_3_"  overflow="visible"/>
		</clipPath>
		<path clip-path="url(#SVGID_4_)" fill="#99C457" d="M504.333,132.916c0,0,18.874-38.48,29.429-35.065
			C544.318,101.266,504.333,132.916,504.333,132.916"/>
		<path clip-path="url(#SVGID_4_)" fill="#99C457" d="M490.76,150.326c0,0,45.211-44.314,62.78-36.233
			c17.567,8.081-10.71,16.747-21.495,19.108C521.26,135.562,490.76,150.326,490.76,150.326"/>
		<path clip-path="url(#SVGID_4_)" fill="#99C457" d="M562.606,317.372c16.15-10.61,0.808-38.704,0.808-38.704
			s-37.674-10.142-40.349-15.808c-2.677-5.666,33.902,2.381,33.902,2.381c-2.644-11.81-26.238-36.382-26.238-36.382
			s-35.58,13.708-36.779,7.56c-1.197-6.151,32.126-10.53,32.126-10.53c-6.955-9.989-23.268-16.092-23.268-16.092
			c-25.283-6.025-31.714,26.753-31.714,26.753s-12.434,4.484-29.377,1.45v-0.001c0,0-3.233-0.877-8.335-1.175l0.99,3.02
			c0.891-0.019,1.764-0.003,2.612,0.052c0.006-0.002,0.011-0.001,0.016,0.001c0.013,0.001,0.024,0.002,0.037,0.003
			c0.534,0.053,1.296,0.134,2.226,0.239c0.002,0,0.002,0,0.004,0c0.002-0.001,0.002,0.001,0.004,0.001
			c2.11,0.33,3.648,0.517,4.741,0.595c0.003,0.001,0.006,0.001,0.01,0c6.575,0.906,15.269,2.469,17.688,4.616
			c0,0,0.361-0.489,1.174-1.101c-0.374,0.351-0.765,0.717-1.174,1.101c-9.383,8.801-2.757,35.253,4.919,48.686
			c7.674,13.432,9.678,5.823,13.728-4.092c4.051-9.915-3.013-25.592-2.001-31.239s5.896,0.521,8.305,10.364
			c2.408,9.842-5.619,17.789-2.013,33.782c3.605,15.993,36.65,18.246,36.65,18.246c-6.833-9.62-7.219-30.757-3.769-32.705
			c3.45-1.949,12.401,26.604,14.961,30.671C535.051,323.133,546.456,327.982,562.606,317.372"/>
		<path clip-path="url(#SVGID_4_)" fill="#99C457" d="M93.997,176.021c0,0-23.804-48.535-37.118-44.228
			C43.565,136.102,93.997,176.021,93.997,176.021"/>
		<path clip-path="url(#SVGID_4_)" fill="#99C457" d="M111.116,197.98c0,0-57.024-55.894-79.183-45.7
			c-22.159,10.192,13.507,21.123,27.111,24.101C72.649,179.357,111.116,197.98,111.116,197.98"/>
		<path clip-path="url(#SVGID_4_)" fill="#99C457" d="M3.604,230.069c0.293-16.982,28.373-18.786,28.373-18.786
			s25.236,23.222,30.702,22.547c5.466-0.676-17.699-24.066-17.699-24.066c10.016-3.586,39.355,2.395,39.355,2.395
			s6.536,32.874,11.667,30.875c5.132-2-7.271-28.812-7.271-28.812c10.688,0.472,22.886,9.724,22.886,9.724
			c16.355,15.951-4.972,36.13-4.972,36.13s2.511,11.343,12.725,22.504h0c0,0,2.172,1.989,4.791,5.639l-2.709,0.685
			c-0.404-0.672-0.826-1.313-1.266-1.918c-0.002-0.006-0.005-0.008-0.008-0.012c-0.006-0.008-0.013-0.016-0.02-0.024
			c-0.292-0.371-0.708-0.9-1.224-1.541c0-0.001-0.001-0.002-0.002-0.003c0-0.002-0.002-0.001-0.002-0.003
			c-1.236-1.411-2.098-2.468-2.669-3.242c-0.002-0.003-0.003-0.005-0.005-0.008c-3.763-4.459-36.634,7.642-50.218,8.252
			c-13.585,0.61-8.874-4.453-3.411-12.122c5.462-7.667,20.427-9.786,24.147-13.192c3.72-3.403-3.157-4.135-11.601-1.299
			s-10.576,12.533-24.151,17.367c-13.575,4.837-30.776-18.652-30.776-18.652c10.356,0.558,26.24-9.089,26.066-12.567
			c-0.173-3.479-25.59,3.288-29.815,3.298C12.273,253.245,3.312,247.053,3.604,230.069"/>
		<path clip-path="url(#SVGID_4_)" fill="#888A8D" d="M289.094,347.418H88.582c-4.356,0-7.887-3.54-7.887-7.909V71.623
			c0-4.484,3.714-8.072,8.183-7.903l208.104,9.597v266.192C296.982,343.878,293.451,347.418,289.094,347.418"/>
		<path clip-path="url(#SVGID_4_)" fill="#888A8D" d="M304.87,347.418h200.512c4.357,0,7.888-3.54,7.888-7.909V71.623
			c0-4.484-3.714-8.072-8.183-7.903l-208.104,9.597v266.192C296.982,343.878,300.512,347.418,304.87,347.418"/>
		<path clip-path="url(#SVGID_4_)" fill="#FFFFFF" d="M95.878,75.339l-6.501,5.282c-0.918,0.746-1.454,1.881-1.454,3.081v259.711
			c0,2.173,1.722,3.935,3.846,3.935h16.187c2.215,0,3.973-1.91,3.838-4.173L95.878,75.339z"/>
		<path clip-path="url(#SVGID_4_)" fill="#FFFFFF" d="M498.482,75.339l6.502,5.282c0.919,0.746,1.454,1.881,1.454,3.081v259.711
			c0,2.173-1.722,3.935-3.846,3.935h-16.187c-2.217,0-3.973-1.91-3.838-4.173L498.482,75.339z"/>
		<path clip-path="url(#SVGID_4_)" fill="#E3E4E5" d="M289.56,347.418H100.903c-4.098,0-7.421-3.421-7.421-7.642V80.957
			c0-4.331,3.495-7.797,7.699-7.635l164.673,6.364c17.376,0.671,31.127,15.371,31.127,33.276v226.813
			C296.982,343.997,293.659,347.418,289.56,347.418"/>
		<path clip-path="url(#SVGID_4_)" fill="#E3E4E5" d="M303.792,347.418H493.67c3.762,0,6.812-3.14,6.812-7.013v-260.1
			c0-3.976-3.209-7.157-7.066-7.008l-168.801,6.523c-15.426,0.597-27.633,13.646-27.633,29.541v231.043
			C296.982,344.278,300.031,347.418,303.792,347.418"/>
		<rect x="296.47" y="124.832" clip-path="url(#SVGID_4_)" fill="#F9DEC7" width="1.022" height="168.058"/>
		<path clip-path="url(#SVGID_4_)" fill="#9C5222" d="M395.718,108.056c0.377,0.44,0.422,0.929,0.23,1.45
			c0,0.002-0.002,0.004-0.004,0.006c-0.355,0.963-1.518,2.033-2.865,3.1c-0.171,0.137-0.325,0.262-0.459,0.377
			c-0.035,0.031-0.069,0.061-0.103,0.092c-0.027,0.023-0.054,0.047-0.079,0.07c-1.258,1.144-0.79,1.41-3.052,3.732
			c-2.579,2.646-4.343,2.681-4.841,2.435c-0.424-0.21,0.448-1.616,1.415-3.198c0.046-0.075,0.092-0.152,0.141-0.23
			c0.128-0.21,0.257-0.424,0.384-0.635c1.133-1.902,0.852-2.802,0.606-5.647c-0.199-2.313-3.505-12.937-3.505-12.937l4.913-0.811
			c0,0,1.418,8.451,3.036,9.762c0.865,0.7,1.84,0.715,2.674,1.234c0.059,0.037,0.117,0.074,0.172,0.111
			C394.856,107.286,395.337,107.614,395.718,108.056"/>
		<path clip-path="url(#SVGID_4_)" fill="#2D2B2C" d="M395.718,108.056c0.377,0.44,0.422,0.929,0.23,1.45
			c0,0.002-0.002,0.004-0.004,0.006c-0.434,0.962-1.566,2.025-2.869,3.09c-0.171,0.139-0.321,0.267-0.455,0.387
			c-0.035,0.031-0.069,0.061-0.103,0.092c-0.027,0.023-0.054,0.047-0.079,0.07c-1.258,1.144-0.79,1.41-3.052,3.732
			c-2.579,2.646-4.343,2.681-4.841,2.435c-0.424-0.21,0.448-1.616,1.415-3.198c0.499-0.179,2.82-1.103,4.587-3.33
			c1.556-1.956,2.602-4.477,3.662-5.934c0.059,0.037,0.117,0.074,0.172,0.111C394.856,107.286,395.337,107.614,395.718,108.056"/>
		<path clip-path="url(#SVGID_4_)" fill="#9C5222" d="M356.179,104.712c-0.314,1.513-2.471,1.244-4.879,0.638
			c-2.408-0.605-1.84,0.099-5.269-0.305c-3.431-0.404-4.461-1.691-4.562-2.203c-0.092-0.453,1.605-0.602,3.427-0.798
			c0.229-0.024,0.458-0.051,0.688-0.077c2.057-0.243,3.571-1.559,5.442-2.635c1.775-1.018,4.441-5.199,4.441-5.199l4.706,0.406
			c0,0-2.496,3.734-3.464,5.358c-0.568,0.956-0.547,2.225-0.484,3.205C356.258,103.635,356.29,104.18,356.179,104.712"/>
		<path clip-path="url(#SVGID_4_)" fill="#2D2B2C" d="M351.3,105.35c-2.408-0.605-1.84,0.099-5.269-0.305
			c-3.431-0.404-4.461-1.691-4.562-2.203c-0.092-0.453,1.605-0.602,3.427-0.798l0.017,0.035c0,0,2.048,1.474,4.904,1.563
			c2.329,0.073,4.801-0.577,6.408-0.54c0.033,0.533,0.063,1.078-0.047,1.61C355.865,106.225,353.708,105.957,351.3,105.35"/>
		<path clip-path="url(#SVGID_4_)" fill="#201D1D" d="M390.4,100.441c0,0-0.328,0.213-0.817,0.482
			c-0.583,0.32-1.395,0.723-2.145,0.933c-0.802,0.225-1.621,0.282-2.208,0.288c-0.51,0.004-0.846-0.031-0.846-0.031l-5.637-15.502
			l-1.02-2.803l-1.083-2.982l-0.378-1.038l-1.836-5.05c0,0,4.486-11.502,9.061-6.02c0.557,0.669,1.078,1.642,1.567,2.834
			c0.335,0.814,0.65,1.73,0.953,2.725c0.227,0.746,0.446,1.533,0.657,2.355c0.569,2.232,1.074,4.699,1.515,7.176
			C389.656,92.078,390.4,100.441,390.4,100.441"/>
		<path clip-path="url(#SVGID_4_)" fill="#2D2B2C" d="M420.691,76.029l-22.857,0.963c-5.008-1.036-9.233-3.686-12.104-5.107
			c-0.238-0.119-0.46-0.23-0.67-0.332c-0.979-0.486-1.654-0.818-1.932-0.876c-1.739-0.363-2.633,2.47-4.106,5.956
			c-0.301,0.709-0.623,1.443-0.985,2.186c-0.256,0.529-0.739,1.215-1.391,2.008c-0.122,0.145-0.246,0.295-0.378,0.447
			c-5.059,5.909-18.082,16.912-18.082,16.912s-0.153,0-0.4-0.006c-0.796-0.016-2.572-0.089-3.422-0.414
			c-0.489-0.188-0.852-0.397-1.108-0.576c-0.375-0.267-0.528-0.475-0.528-0.475s15.584-30.467,23.651-38.768v-0.002
			c0.117-0.121,0.232-0.236,0.347-0.346c0.882-0.861,1.664-1.43,2.314-1.634c2.748-0.865,20.533,0.1,20.533,0.1l0.567-0.923
			l0.949-0.066l0.163-0.012l0.792-0.059h0.002l1.093-0.076l1.625-0.115l4.395-0.313l0.707-0.05l8.124-0.577
			c0,0,0.371,0.836,0.871,2.221c0.195,0.541,0.41,1.164,0.631,1.855C420.942,62.487,422.82,70.649,420.691,76.029"/>
		<path clip-path="url(#SVGID_4_)" fill="#201D1D" d="M425.89,23.586c-4.061-3.466-6.957-4.323-7.36-9.811
			c-0.219-2.979-4.218-12.833-10.983-11.972c-0.566,0.073-1.135,0.122-1.705,0.1c-0.791-0.03-2.095,0.075-3.438,0.863
			c-3.257,1.907-9.255,19.538-5.212,25.734c0.725,1.112,1.775,1.856,3.225,2.073c0.17,0.096,0.345,0.194,0.522,0.294h0.002
			c0.727,0.408,1.526,0.856,2.372,1.337c4.78,2.695,11.04,6.259,14.245,8.061h0.002c0.193,0.109,0.375,0.213,0.546,0.309
			c0.372,0.207,0.688,0.381,0.933,0.518c0.377,0.205,0.594,0.32,0.611,0.32c0,0,0.825,0.318,1.983,0.559
			c1.612,0.336,3.869,0.523,5.441-0.504c0.622-0.408,1.205-0.91,1.723-1.493C432.052,36.335,432.91,29.575,425.89,23.586"/>
		<path clip-path="url(#SVGID_4_)" fill="#9C5222" d="M405.764,27.634c-0.029,0.019,3.117,1.116,5.233,0.198
			c1.99-0.863,3.516-4.117,3.486-4.119c-0.901-0.048-1.888-0.844-2.614-6.026l-0.386,0.136l-6.478,2.278
			c0,0,0.453,2.077,0.742,4.054C405.993,25.813,406.118,27.401,405.764,27.634"/>
		<path clip-path="url(#SVGID_4_)" fill="#753E1A" d="M405.006,20.101c0,0,0.276,1.456,0.659,3.536
			c3.716-0.643,5.281-3.813,5.818-5.814L405.006,20.101z"/>
		<path clip-path="url(#SVGID_4_)" fill="#9C5222" d="M404.03,22.152c0,0,8.849-1.125,8.063-6.624
			c-0.785-5.5-0.171-9.349-5.854-8.863c-5.683,0.485-6.479,2.739-6.662,4.64C399.392,13.204,401.708,22.303,404.03,22.152"/>
		<path clip-path="url(#SVGID_4_)" fill="#201D1D" d="M399.919,8.295c0,0,5.625,4.917,9.472,5.337
			c3.846,0.421,5.313-0.805,5.313-0.805s-2.256-1.899-3.6-4.95c-0.396-0.898-1.241-1.52-2.221-1.611
			C406.137,6.01,400.927,5.865,399.919,8.295"/>
		<path clip-path="url(#SVGID_4_)" fill="#233862" d="M403.46,7.883c0,0-1.906,1.817-2.512,3.171
			c-0.586,1.306-0.779,4.438-0.331,5.687c0,0-2.909-5.756-1.218-8.531C401.19,5.266,403.46,7.883,403.46,7.883"/>
		<path clip-path="url(#SVGID_4_)" fill="#E42525" d="M398.228,40.604c0.141,17.897-0.026,14.156,1.919,15.868
			c0.469,0.413,1.792,0.665,3.536,0.793c5.485,0.403,15.139-0.433,15.512-1.444c1.29-3.5,0.405-4.597,1.499-9.961
			c0.113-0.57,0.255-1.188,0.419-1.859c0.906-3.685,1.772-4.934-1.31-10.883c-2.795-5.389-5.707-9.768-5.973-9.613
			c-7.505,4.385-8.082,0.651-8.082,0.651S398.159,31.874,398.228,40.604"/>
		<path clip-path="url(#SVGID_4_)" fill="#2D2B2C" d="M390.4,100.441c0,0-0.328,0.213-0.817,0.482
			c-0.583,0.32-1.395,0.723-2.145,0.933c-0.802,0.225-1.621,0.282-2.208,0.288c-0.51,0.004-0.846-0.031-0.846-0.031l-5.637-15.502
			l1.65-2.803l4.229-7.176l1.386-2.355c0.227,0.746,0.446,1.533,0.657,2.355c0.569,2.232,1.074,4.699,1.515,7.176
			C389.656,92.078,390.4,100.441,390.4,100.441"/>
		<path clip-path="url(#SVGID_4_)" fill="#E42525" d="M405.749,24.154c0,0-7.7,1.249-8.626,4.554
			c-0.925,3.305-6.377,22.731-6.377,22.731s3.904,0.73,5.724-1.063c1.818-1.793,6.402-16.711,6.402-16.711L405.749,24.154z"/>
		<path clip-path="url(#SVGID_4_)" fill="#CB2322" d="M403.683,57.266c5.485,0.402,15.139-0.434,15.512-1.445
			c1.29-3.5,0.405-4.597,1.499-9.961l-2.595-7.471c0,0,0.379,8.302-2.084,10.467c-2.46,2.166-10.05,4.144-11.253,5.959
			C404.182,55.686,403.798,56.561,403.683,57.266"/>
		<path clip-path="url(#SVGID_4_)" fill="#FFB27D" d="M409.996,53.818c0,0-5.404-1.244-6.282-0.769
			c-0.877,0.474-3.023,2.208-3.296,2.815c-0.271,0.606,1.948-0.449,2.67-0.637c0.466-0.121,1.689,0.313,2.296,0.521
			c2.549,0.87,4.116,0.442,4.116,0.442L409.996,53.818z"/>
		<path clip-path="url(#SVGID_4_)" fill="#E42525" d="M413.834,23.501c0,0,7.267,0.498,9.758,4.026
			c3.508,4.965,10.386,26.07,6.339,28.85c-4.558,3.131-20.646,0.682-20.646,0.682s-0.519-2.51,0.236-3.715
			c0.754-1.207,12.885-3.08,13.448-3.635s-6.914-10.955-6.902-12.633C416.08,35.398,413.834,23.501,413.834,23.501"/>
		<path clip-path="url(#SVGID_4_)" fill="#FFB27D" d="M403.441,54.555c0,0-1.145,1.455-1.518,1.627s-0.613,0.127-0.613,0.127
			l0.774-1.371L403.441,54.555z"/>
		<path clip-path="url(#SVGID_4_)" fill="#FFB27D" d="M403.713,53.05l-3.31,1.577c0,0,0.14,0.23,0.545,0.215
			c0.406-0.016,1.434-0.383,1.434-0.383L403.713,53.05z"/>
		<polygon clip-path="url(#SVGID_4_)" fill="#888A8D" points="402.629,57.727 376.542,57.543 368.833,37.973 394.879,38.156 		"/>
		<polygon clip-path="url(#SVGID_4_)" fill="#E3E4E5" points="376.242,56.78 410.689,57.023 410.683,57.783 376.542,57.543 		"/>
		<path clip-path="url(#SVGID_4_)" fill="#FFFFFF" d="M383.196,47.832c-0.192-0.688,0.209-1.24,0.895-1.236
			c0.687,0.006,1.397,0.566,1.589,1.254c0.192,0.688-0.208,1.24-0.894,1.235C384.099,49.08,383.388,48.52,383.196,47.832"/>
		<path clip-path="url(#SVGID_4_)" fill="#2D2B2C" d="M120.371,347.246h139.25c9.686,0,17.538-7.852,17.538-17.537v-0.732
			c0-9.686-7.853-17.537-17.538-17.537h-139.25c-9.686,0-17.538,7.852-17.538,17.537v0.732
			C102.833,339.395,110.685,347.246,120.371,347.246"/>
		<path clip-path="url(#SVGID_4_)" fill="#FFFFFF" d="M199.29,324.579l-0.125,7.825c-0.111,6.923,5.412,12.625,12.334,12.735
			l92.549,1.479l0.025-1.559c-5.192-2.701-8.698-8.168-8.599-14.418l0.044-2.752c0.101-6.25,3.778-11.602,9.054-14.135v-0.031
			l-92.548-1.479C205.103,312.134,199.4,317.657,199.29,324.579"/>
		<path clip-path="url(#SVGID_4_)" fill="#201D1D" d="M306.47,347.246h-97.501c-6.289,0-11.215-7.869-11.215-17.915
			s4.926-17.915,11.215-17.915h97.501c0.812,0,1.468,0.655,1.468,1.466c0,0.81-0.656,1.467-1.468,1.467h-97.501
			c-4.49,0-8.283,6.86-8.283,14.982s3.793,14.982,8.283,14.982h97.501c0.812,0,1.468,0.656,1.468,1.467
			C307.938,346.59,307.282,347.246,306.47,347.246"/>
		<rect x="213.32" y="320.955" clip-path="url(#SVGID_4_)" fill="#E8C2A3" width="83.849" height="0.23"/>
		<rect x="264.147" y="324.225" clip-path="url(#SVGID_4_)" fill="#E8C2A3" width="31.831" height="0.213"/>
		<rect x="240.45" y="335.346" clip-path="url(#SVGID_4_)" fill="#E8C2A3" width="55.528" height="0.211"/>
		<path clip-path="url(#SVGID_4_)" fill="#E42525" d="M223.734,321.07c0,0,4.303,1.801,4.814,7.878c0.511,6.076,0,9.314,0,9.314
			l-5.194-2.472l-5.243,2.472v-9.5c0,0-0.192-7.692-7.349-7.692H223.734z"/>
		<path clip-path="url(#SVGID_4_)" fill="#E42525" d="M109.207,311.439h107.139c6.34,0,11.48-5.141,11.48-11.479v-3.994
			c0-6.339-5.14-11.479-11.48-11.479H109.207c-6.34,0-11.48,5.14-11.48,11.479v3.994
			C97.727,306.299,102.867,311.439,109.207,311.439"/>
		<path clip-path="url(#SVGID_4_)" fill="#FFFFFF" d="M169.712,294.363l-0.093,5.882c-0.083,5.204,4.04,9.489,9.205,9.573
			l69.07,1.111l0.019-1.173c-3.875-2.028-6.491-6.139-6.417-10.836l0.033-2.068c0.075-4.698,2.82-8.721,6.757-10.626l0-0.023
			l-69.07-1.111C174.05,285.009,169.795,289.16,169.712,294.363"/>
		<path clip-path="url(#SVGID_4_)" fill="#CB2322" d="M249.702,311.401h-72.766c-4.693,0-8.37-5.915-8.37-13.467
			c0-7.55,3.677-13.466,8.37-13.466h72.766c0.604,0,1.094,0.493,1.094,1.102c0,0.609-0.49,1.103-1.094,1.103h-72.766
			c-3.351,0-6.181,5.157-6.181,11.262c0,6.105,2.831,11.263,6.181,11.263h72.766c0.604,0,1.094,0.494,1.094,1.102
			C250.796,310.908,250.306,311.401,249.702,311.401"/>
		<rect x="190.219" y="291.646" clip-path="url(#SVGID_4_)" fill="#E8C2A3" width="52.542" height="0.159"/>
		<rect x="218.115" y="294.098" clip-path="url(#SVGID_4_)" fill="#E8C2A3" width="23.756" height="0.159"/>
		<rect x="200.43" y="302.456" clip-path="url(#SVGID_4_)" fill="#E8C2A3" width="41.44" height="0.159"/>
		<path clip-path="url(#SVGID_4_)" fill="#EEA886" d="M476.41,262.14c0,0,1.338,4.123,1.224,5.065s-0.956,4.165-1.556,4.989
			c-0.601,0.825-0.896-3.358-1.371-3.988s-0.098,1.576-0.434,1.78c-0.335,0.203-1.033-1.622-1.333-2.266
			c-0.3-0.645,0.733-3.021,0.737-4.675C473.679,261.391,476.41,262.14,476.41,262.14"/>
		<path clip-path="url(#SVGID_4_)" fill="#201D1D" d="M444.925,229.39c-0.37-4.728,4.766-7.969,8.82-5.51
			c0.082,0.051,0.165,0.103,0.247,0.154c6.071,3.907,19.17,22.141,20.071,23.968s3.563,16.357,3.563,16.357
			s-3.288,1.203-4.826-0.046c0,0-5.334-13.78-6.121-14.47c-0.789-0.688-21.33-12.215-21.505-16.535
			C445.126,232.165,445.036,230.791,444.925,229.39"/>
		
			<rect x="403.128" y="215.159" transform="matrix(-0.3287 -0.9444 0.9444 -0.3287 323.1477 687.3247)" clip-path="url(#SVGID_4_)" fill="#E42525" width="5.431" height="27.318"/>
		<polygon clip-path="url(#SVGID_4_)" fill="#FFFFFF" points="386.945,235.398 393.836,235.874 392.049,230.746 		"/>
		<path clip-path="url(#SVGID_4_)" fill="#FFFFFF" d="M421.442,222.42l0.564,1.622c0.347,0.996-0.18,2.087-1.177,2.436l-1.194,0.414
			l-1.785-5.129l1.298-0.452C420.088,220.984,421.115,221.48,421.442,222.42"/>
		<path clip-path="url(#SVGID_4_)" fill="#2D2B2C" d="M481.583,336.114c0,0,2.447,2.232,1.97,3.82
			c-0.479,1.587-2.688,2.646-2.984,4.585c-0.299,1.939-1.493,2.997-2.567,2.997h-5.124c0,0-0.791-1.364,1.119-1.775
			c1.91-0.412,2.631-2.691,2.512-4.808s0.18-4.938,0.18-4.938l4.06-0.941L481.583,336.114z"/>
		<path clip-path="url(#SVGID_4_)" fill="#2D2B2C" d="M451.553,341.892c0,0,0.438,5.084-0.636,5.611l-13.753-0.028
			c0,0,0-1.587,2.21-1.939c2.209-0.353,6.089-1.646,6.745-4.525C446.777,338.129,451.553,341.892,451.553,341.892"/>
		<path clip-path="url(#SVGID_4_)" fill="#E42525" d="M439.942,270.079c0,0,0.726,8.912,1.578,19.624
			c1.159,14.55,2.553,32.424,2.69,35.809c0.238,5.88,1.194,15.286,1.194,15.286s2.268,2.233,6.806,1.292
			c0,0,4.044-13.426,5.199-27.631c0.019-0.233,0.036-0.468,0.054-0.702c1.074-14.461,2.746-44.912,2.746-44.912L439.942,270.079z"/>
		<path clip-path="url(#SVGID_4_)" fill="#CB2322" d="M439.942,270.079c0,0,0.726,8.912,1.578,19.624l15.89,24.756
			c0.019-0.233,0.036-0.468,0.054-0.702c1.074-14.461,2.746-44.912,2.746-44.912L439.942,270.079z"/>
		<path clip-path="url(#SVGID_4_)" fill="#E42525" d="M443.255,271.139c0,0,13.074,32.271,21.67,47.438
			c8.598,15.167,11.284,19.399,11.284,19.399s4.925-1.939,5.373-3.262c0,0-3.288-29.279-9.046-36.418
			c-3.252-4.032-7.073-16.136-7.252-20.369c-0.18-4.231-1.165-12.608-1.165-12.608L443.255,271.139z"/>
		<path clip-path="url(#SVGID_4_)" fill="#EEA886" d="M454.528,222.728c0,0-8.76,4.443-13.89,2.961c0,0,1.224-1.608,3.396-2.83
			c-0.196-1.02-0.352-1.905-0.445-2.657c-0.25-1.733-0.269-2.718-0.269-2.718l3.357-2.753l3.186-2.632
			C449.751,219.326,454.528,222.728,454.528,222.728"/>
		<path clip-path="url(#SVGID_4_)" fill="#2D2B2C" d="M463.229,267.873c-3.537,2.14-6.885,3.75-10.804,4.653
			c-4.621,1.096-10.302,0.772-12.203,1.063c-0.195,0.026-0.381-0.024-0.555-0.142c-0.148-0.076-0.986-5.713-1.827-12.83
			c-0.038-0.285-0.077-0.574-0.093-0.865l-0.013-0.095c-0.327-2.782-0.612-5.705-0.86-8.634c-0.203-2.278-0.37-4.532-0.486-6.65
			c-0.145-2.649-0.206-5.082-0.145-7.084c0.026-0.914,0.08-1.736,0.161-2.45c0.502-4.157,2.483-7.128,4.351-9.339l1.548-1.763
			c1.797,0.113,3.63-0.226,5.359-1.367c1.892-1.246,3.942-2.721,4.327-2.497c2.899,1.586,5.251,5.833,6.937,11.262
			c0.966,3.125,1.71,6.669,2.184,10.425c0.152,1.165,0.283,2.361,0.382,3.551c0.02,0.221,0.035,0.44,0.054,0.657
			c0.227,3.254,0.599,6.304,1.011,9.027c0.555,3.673,1.184,6.75,1.63,8.916c0.225,1.104,0.395,1.956,0.496,2.567
			C464.772,266.812,463.705,267.575,463.229,267.873"/>
		<path clip-path="url(#SVGID_4_)" fill="#A77860" d="M449.977,214.858c0,0-2.154,4.119-6.388,5.343
			c-0.25-1.733-0.269-2.718-0.269-2.718l3.357-2.753L449.977,214.858z"/>
		<path clip-path="url(#SVGID_4_)" fill="#EEA886" d="M441.761,217.396c0,0,8.465,1.213,9.154-3.989s2.246-8.55-3.129-9.545
			c-5.377-0.994-6.691,0.857-7.351,2.538C439.777,208.081,439.578,216.947,441.761,217.396"/>
		<path clip-path="url(#SVGID_4_)" fill="#201D1D" d="M453.78,203.122c0.074-0.09,0.249-0.164,0.642-0.193
			c0,0-0.318-0.189-0.738-0.191c-0.093-0.546-0.403-1.508-1.349-1.724c0,0,0.512,0.258,0.589,0.838
			c-1.112-1.097-3.464-1.866-9.92-1.227c-8.508,0.842-5.591,6.242-4.476,6.87c1.116,0.629,3.857-1.209,5.917-1.087
			c2.059,0.123,2.509,3.085,3.214,3.479c0.706,0.393,0.417-0.322,1.353-0.767c0.936-0.446,1.056,1.115,0.803,2.138
			c-0.252,1.021,1.071,2.337,1.071,2.337l1.282-1.438c1.281-1.437,2.397-7.436,1.776-8.698
			C453.889,203.349,453.835,203.234,453.78,203.122"/>
		<path clip-path="url(#SVGID_4_)" fill="#201D1D" d="M451.092,237.753c0,0-7.138,5.43-14.704,6.62
			c-0.145-2.649-0.206-5.082-0.145-7.084L451.092,237.753z"/>
		<path clip-path="url(#SVGID_4_)" fill="#EEA886" d="M407.261,230.746c-0.111-0.122-1.568-4.987-4.085-4.631
			c-1.642,0.23-4.325,1.182-3.612,3.345c0.279,0.851,5.283,3.78,5.283,3.78L407.261,230.746z"/>
		<path clip-path="url(#SVGID_4_)" fill="#2D2B2C" d="M451.974,227.261c4.068,2.434,3.74,8.498-0.613,10.381
			c-0.089,0.038-0.179,0.076-0.269,0.112c-6.701,2.688-26.639,2.985-31.163,2.49c-4.907-0.537-15.399-6.564-15.399-6.564
			s0.922-3.379,2.83-3.909c0,0,11.085,3.143,15.343,3.385c2.695,0.155,22.308-10.32,25.933-7.961
			C449.592,225.817,450.766,226.538,451.974,227.261"/>
		<polygon clip-path="url(#SVGID_4_)" fill="#FFFFFF" points="354.481,323.607 309.123,325.838 309.123,280.479 354.481,278.25 		
			"/>
		<polygon clip-path="url(#SVGID_4_)" fill="#E3E4E5" points="312.529,320.487 325.927,295.676 335.779,308.628 340.697,303.009 
			351.122,318.592 		"/>
		<path clip-path="url(#SVGID_4_)" fill="#E3E4E5" d="M332.311,291.894c0-1.914,1.553-3.543,3.468-3.638
			c1.914-0.094,3.466,1.384,3.466,3.298s-1.552,3.543-3.466,3.637C333.864,295.284,332.311,293.809,332.311,291.894"/>
		<polygon clip-path="url(#SVGID_4_)" fill="#FFFFFF" points="489.265,150.174 423.92,153.385 423.92,88.041 489.265,84.829 		"/>
		<polygon clip-path="url(#SVGID_4_)" fill="#E3E4E5" points="428.828,145.68 448.13,109.932 462.322,128.592 469.408,120.498 
			484.425,142.947 		"/>
		<path clip-path="url(#SVGID_4_)" fill="#E3E4E5" d="M457.328,104.485c0-2.759,2.235-5.104,4.994-5.24
			c2.76-0.136,4.995,1.991,4.995,4.75c0,2.758-2.235,5.104-4.995,5.239C459.563,109.37,457.328,107.244,457.328,104.485"/>
		<polygon clip-path="url(#SVGID_4_)" fill="#888A8D" points="373.02,199.476 309.123,202.615 309.123,198.895 373.02,195.754 		"/>
		<polygon clip-path="url(#SVGID_4_)" fill="#FFFFFF" points="343.379,208.466 309.123,210.149 309.123,208.288 343.379,206.605 		
			"/>
		<polygon clip-path="url(#SVGID_4_)" fill="#FFFFFF" points="333.337,215.151 309.123,216.342 309.123,214.48 333.337,213.291 		
			"/>
		<polygon clip-path="url(#SVGID_4_)" fill="#FFFFFF" points="362.255,213.729 338.04,214.92 338.04,213.06 362.255,211.869 		"/>
		<polygon clip-path="url(#SVGID_4_)" fill="#FFFFFF" points="395.211,212.11 365.706,213.561 365.706,211.7 395.211,210.249 		"/>
		<polygon clip-path="url(#SVGID_4_)" fill="#FFFFFF" points="330.145,221.373 309.123,222.406 309.123,220.545 330.145,219.512 		
			"/>
		<polygon clip-path="url(#SVGID_4_)" fill="#FFFFFF" points="355.25,220.139 334.227,221.172 334.227,219.312 355.25,218.278 		"/>
		<polygon clip-path="url(#SVGID_4_)" fill="#FFFFFF" points="383.861,218.732 358.245,219.991 358.245,218.132 383.861,216.872 		
			"/>
		<polygon clip-path="url(#SVGID_4_)" fill="#888A8D" points="373.02,157.475 309.123,160.615 309.123,156.893 373.02,153.753 		"/>
		<polygon clip-path="url(#SVGID_4_)" fill="#FFFFFF" points="343.379,166.466 309.123,168.149 309.123,166.289 343.379,164.604 		
			"/>
		<polygon clip-path="url(#SVGID_4_)" fill="#FFFFFF" points="384.285,164.455 350.029,166.139 350.029,164.277 384.285,162.594 		
			"/>
		<polygon clip-path="url(#SVGID_4_)" fill="#FFFFFF" points="333.337,173.15 309.123,174.342 309.123,172.48 333.337,171.289 		"/>
		<polygon clip-path="url(#SVGID_4_)" fill="#FFFFFF" points="362.255,171.729 338.04,172.92 338.04,171.059 362.255,169.869 		"/>
		<polygon clip-path="url(#SVGID_4_)" fill="#FFFFFF" points="395.211,170.109 365.706,171.561 365.706,169.699 395.211,168.248 		
			"/>
		<polygon clip-path="url(#SVGID_4_)" fill="#FFFFFF" points="330.145,179.372 309.123,180.406 309.123,178.545 330.145,177.513 		
			"/>
		<polygon clip-path="url(#SVGID_4_)" fill="#FFFFFF" points="355.25,178.139 334.227,179.172 334.227,177.312 355.25,176.278 		"/>
		<polygon clip-path="url(#SVGID_4_)" fill="#FFFFFF" points="383.861,176.732 358.245,177.991 358.245,176.131 383.861,174.871 		
			"/>
		<polygon clip-path="url(#SVGID_4_)" fill="#888A8D" points="468.502,162.654 423.552,164.863 423.552,162.246 468.502,160.037 		
			"/>
		<polygon clip-path="url(#SVGID_4_)" fill="#FFFFFF" points="447.651,168.979 423.552,170.164 423.552,168.854 447.651,167.67 		
			"/>
		<polygon clip-path="url(#SVGID_4_)" fill="#FFFFFF" points="476.426,167.564 452.33,168.75 452.33,167.44 476.426,166.256 		"/>
		<polygon clip-path="url(#SVGID_4_)" fill="#FFFFFF" points="440.587,173.682 423.552,174.52 423.552,173.21 440.587,172.373 		"/>
		<polygon clip-path="url(#SVGID_4_)" fill="#FFFFFF" points="460.929,172.682 443.896,173.52 443.896,172.211 460.929,171.373 		
			"/>
		<polygon clip-path="url(#SVGID_4_)" fill="#FFFFFF" points="484.114,171.543 463.357,172.563 463.357,171.254 484.114,170.233 		
			"/>
		<polygon clip-path="url(#SVGID_4_)" fill="#FFFFFF" points="438.341,178.059 423.552,178.786 423.552,177.477 438.341,176.75 		
			"/>
		<polygon clip-path="url(#SVGID_4_)" fill="#FFFFFF" points="456,177.19 441.212,177.918 441.212,176.607 456,175.882 		"/>
		<polygon clip-path="url(#SVGID_4_)" fill="#FFFFFF" points="476.129,176.201 458.109,177.088 458.109,175.778 476.129,174.893 		
			"/>
		<polygon clip-path="url(#SVGID_4_)" fill="#888A8D" points="373.02,243.288 309.123,246.429 309.123,242.707 373.02,239.566 		"/>
		<polygon clip-path="url(#SVGID_4_)" fill="#FFFFFF" points="343.379,252.279 309.123,253.962 309.123,252.102 343.379,250.418 		
			"/>
		<polygon clip-path="url(#SVGID_4_)" fill="#FFFFFF" points="384.285,250.268 350.029,251.952 350.029,250.091 384.285,248.408 		
			"/>
		<polygon clip-path="url(#SVGID_4_)" fill="#FFFFFF" points="333.337,258.965 309.123,260.153 309.123,258.293 333.337,257.103 		
			"/>
		<polygon clip-path="url(#SVGID_4_)" fill="#FFFFFF" points="362.255,257.543 338.04,258.733 338.04,256.872 362.255,255.682 		"/>
		<polygon clip-path="url(#SVGID_4_)" fill="#FFFFFF" points="395.211,255.923 365.706,257.374 365.706,255.513 395.211,254.062 		
			"/>
		<polygon clip-path="url(#SVGID_4_)" fill="#FFFFFF" points="330.145,265.187 309.123,266.219 309.123,264.357 330.145,263.325 		
			"/>
		<polygon clip-path="url(#SVGID_4_)" fill="#FFFFFF" points="355.25,263.952 334.227,264.985 334.227,263.123 355.25,262.092 		"/>
		<polygon clip-path="url(#SVGID_4_)" fill="#FFFFFF" points="383.861,262.545 358.245,263.805 358.245,261.943 383.861,260.686 		
			"/>
		<polygon clip-path="url(#SVGID_4_)" fill="#888A8D" points="415.533,301.65 366.177,304.076 366.177,300.354 415.533,297.928 		
			"/>
		<polygon clip-path="url(#SVGID_4_)" fill="#FFFFFF" points="392.636,310.311 366.177,311.61 366.177,309.749 392.636,308.448 		
			"/>
		<polygon clip-path="url(#SVGID_4_)" fill="#FFFFFF" points="424.233,308.756 397.774,310.057 397.774,308.195 424.233,306.896 		
			"/>
		<polygon clip-path="url(#SVGID_4_)" fill="#FFFFFF" points="384.881,316.883 366.177,317.801 366.177,315.939 384.881,315.021 		
			"/>
		<polygon clip-path="url(#SVGID_4_)" fill="#FFFFFF" points="407.217,315.784 388.513,316.705 388.513,314.843 407.217,313.924 		
			"/>
		<polygon clip-path="url(#SVGID_4_)" fill="#FFFFFF" points="432.672,314.534 409.882,315.654 409.882,313.793 432.672,312.672 		
			"/>
		<polygon clip-path="url(#SVGID_4_)" fill="#FFFFFF" points="382.416,323.068 366.177,323.867 366.177,322.005 382.416,321.207 		
			"/>
		<polygon clip-path="url(#SVGID_4_)" fill="#FFFFFF" points="401.806,322.115 385.569,322.913 385.569,321.052 401.806,320.254 		
			"/>
		<polygon clip-path="url(#SVGID_4_)" fill="#FFFFFF" points="423.906,321.028 404.12,322.002 404.12,320.141 423.906,319.168 		"/>
		<polygon clip-path="url(#SVGID_4_)" fill="#FFFFFF" points="273.56,172.515 202.353,169.93 202.353,98.723 273.56,101.309 		"/>
		<polygon clip-path="url(#SVGID_4_)" fill="#E3E4E5" points="207.701,161.988 228.735,124.832 244.2,146.488 251.922,138.327 
			268.287,164.188 		"/>
		<path clip-path="url(#SVGID_4_)" fill="#E3E4E5" d="M238.756,119.754c0-3.006,2.437-5.355,5.443-5.246
			c3.006,0.109,5.443,2.635,5.443,5.641s-2.437,5.355-5.443,5.245C241.193,125.285,238.756,122.76,238.756,119.754"/>
		<polygon clip-path="url(#SVGID_4_)" fill="#888A8D" points="265.053,200.594 201.155,198.274 201.155,194.553 265.053,196.872 		
			"/>
		<polygon clip-path="url(#SVGID_4_)" fill="#FFFFFF" points="235.411,207.052 201.155,205.808 201.155,203.948 235.411,205.19 		
			"/>
		<polygon clip-path="url(#SVGID_4_)" fill="#FFFFFF" points="225.371,212.879 201.155,212 201.155,210.139 225.371,211.019 		"/>
		<polygon clip-path="url(#SVGID_4_)" fill="#FFFFFF" points="254.288,213.929 230.072,213.05 230.072,211.188 254.288,212.067 		
			"/>
		<polygon clip-path="url(#SVGID_4_)" fill="#FFFFFF" points="287.244,215.125 257.738,214.054 257.738,212.192 287.244,213.265 		
			"/>
		<polygon clip-path="url(#SVGID_4_)" fill="#FFFFFF" points="222.178,218.828 201.155,218.065 201.155,216.204 222.178,216.968 		
			"/>
		<polygon clip-path="url(#SVGID_4_)" fill="#FFFFFF" points="247.282,219.738 226.259,218.976 226.259,217.115 247.282,217.878 		
			"/>
		<polygon clip-path="url(#SVGID_4_)" fill="#FFFFFF" points="275.894,220.778 250.277,219.848 250.277,217.986 275.894,218.918 		
			"/>
		<polygon clip-path="url(#SVGID_4_)" fill="#888A8D" points="265.053,244.406 201.155,242.087 201.155,238.365 265.053,240.686 		
			"/>
		<polygon clip-path="url(#SVGID_4_)" fill="#FFFFFF" points="235.411,250.864 201.155,249.621 201.155,247.76 235.411,249.004 		
			"/>
		<polygon clip-path="url(#SVGID_4_)" fill="#FFFFFF" points="276.317,252.351 242.063,251.106 242.063,249.245 276.317,250.488 		
			"/>
		<polygon clip-path="url(#SVGID_4_)" fill="#FFFFFF" points="225.371,256.691 201.155,255.813 201.155,253.951 225.371,254.831 		
			"/>
		<polygon clip-path="url(#SVGID_4_)" fill="#FFFFFF" points="254.288,257.741 230.072,256.862 230.072,255.002 254.288,255.88 		
			"/>
		<polygon clip-path="url(#SVGID_4_)" fill="#FFFFFF" points="287.244,258.938 257.738,257.866 257.738,256.006 287.244,257.077 		
			"/>
		<polygon clip-path="url(#SVGID_4_)" fill="#FFFFFF" points="222.178,262.642 201.155,261.877 201.155,260.017 222.178,260.779 		
			"/>
		<polygon clip-path="url(#SVGID_4_)" fill="#FFFFFF" points="247.282,263.552 226.259,262.789 226.259,260.928 247.282,261.691 		
			"/>
		<polygon clip-path="url(#SVGID_4_)" fill="#FFFFFF" points="275.894,264.592 250.277,263.66 250.277,261.799 275.894,262.729 		
			"/>
		<polygon clip-path="url(#SVGID_4_)" fill="#888A8D" points="174.261,91.826 110.364,89.507 110.364,85.785 174.261,88.105 		"/>
		<polygon clip-path="url(#SVGID_4_)" fill="#FFFFFF" points="144.619,98.284 110.364,97.041 110.364,95.18 144.619,96.423 		"/>
		<polygon clip-path="url(#SVGID_4_)" fill="#FFFFFF" points="185.526,99.77 151.271,98.525 151.271,96.665 185.526,97.908 		"/>
		<polygon clip-path="url(#SVGID_4_)" fill="#FFFFFF" points="134.579,104.111 110.364,103.232 110.364,101.371 134.579,102.25 		
			"/>
		<polygon clip-path="url(#SVGID_4_)" fill="#FFFFFF" points="163.496,105.161 139.281,104.282 139.281,102.422 163.496,103.301 		
			"/>
		<polygon clip-path="url(#SVGID_4_)" fill="#FFFFFF" points="196.453,106.357 166.947,105.287 166.947,103.426 196.453,104.496 		
			"/>
		<polygon clip-path="url(#SVGID_4_)" fill="#FFFFFF" points="131.386,110.061 110.364,109.297 110.364,107.437 131.386,108.199 		
			"/>
		<polygon clip-path="url(#SVGID_4_)" fill="#FFFFFF" points="156.491,110.972 135.468,110.208 135.468,108.348 156.491,109.111 		
			"/>
		<polygon clip-path="url(#SVGID_4_)" fill="#FFFFFF" points="185.103,112.011 159.486,111.081 159.486,109.22 185.103,110.149 		
			"/>
		<path clip-path="url(#SVGID_4_)" fill="#888A8D" d="M13.54,339.069c0,0.342,0.02,0.682,0.063,1.013
			c0.128,1.063,0.457,2.062,0.944,2.961c0.383,0.703,0.864,1.343,1.425,1.902c1.505,1.504,3.581,2.434,5.876,2.434h116.87
			c4.589,0,8.312-3.721,8.312-8.31c0-2.296-0.93-4.373-2.436-5.877c-1.503-1.505-3.581-2.437-5.876-2.437H21.849
			C17.26,330.756,13.54,334.478,13.54,339.069"/>
		<path clip-path="url(#SVGID_4_)" fill="#888A8D" d="M22.454,329.253h40.07c0.702,0,1.276-0.573,1.276-1.274
			c0-0.702-0.574-1.276-1.276-1.276h-40.07c-0.702,0-1.275,0.574-1.275,1.276C21.178,328.68,21.752,329.253,22.454,329.253"/>
		<rect x="24.667" y="329.253" clip-path="url(#SVGID_4_)" fill="#888A8D" width="4.343" height="1.504"/>
		<path clip-path="url(#SVGID_4_)" fill="#717376" d="M14.547,343.043c0.383,0.703,0.864,1.343,1.425,1.902
			c1.505,1.504,3.581,2.434,5.876,2.434h24.756v-4.336H14.547z"/>
		<path clip-path="url(#SVGID_4_)" fill="#B4B6B8" d="M162.5,336.634v4.868c0,0.533-0.072,1.052-0.205,1.541
			c-0.675,2.498-2.957,4.336-5.669,4.336H34.885c-2.712,0-4.994-1.838-5.669-4.336c-0.132-0.489-0.205-1.008-0.205-1.541v-4.868
			c0-3.246,2.629-5.878,5.874-5.878h121.741C159.871,330.756,162.5,333.388,162.5,336.634"/>
		<path clip-path="url(#SVGID_4_)" fill="#888A8D" d="M162.295,343.043c-0.675,2.498-2.957,4.336-5.669,4.336H34.886
			c-2.712,0-4.995-1.838-5.67-4.336H162.295z"/>
		<path clip-path="url(#SVGID_4_)" fill="#CDE0FB" d="M150.409,339.098c0,2.582,0.938,4.889,2.417,6.417
			c0.033,0.033,0.065,0.067,0.099,0.102c1.143,1.139,2.592,1.821,4.17,1.821c2.465,0,8.573-3.718,12.358-6.188
			c1.886-1.23,3.196-2.152,3.196-2.152s-1.31-0.92-3.196-2.151c-3.785-2.472-9.894-6.19-12.358-6.19c-0.713,0-1.4,0.142-2.046,0.396
			c-1.087,0.438-2.055,1.212-2.818,2.225c-0.842,1.111-1.441,2.512-1.692,4.067c-0.002,0.018-0.007,0.036-0.007,0.054
			C150.452,338.014,150.409,338.548,150.409,339.098"/>
		<path clip-path="url(#SVGID_4_)" fill="#A6C7ED" d="M150.409,339.098c0,2.582,0.938,4.889,2.417,6.417l18.737-6.445l-21.031-1.571
			C150.452,338.014,150.409,338.548,150.409,339.098"/>
		<path clip-path="url(#SVGID_4_)" fill="#E3F0FF" d="M152.232,333.377l18.692,5.104l-15.874-7.329
			C153.963,331.59,152.995,332.364,152.232,333.377"/>
		<path clip-path="url(#SVGID_4_)" fill="#E42525" d="M168.234,339.098c0,0.993,0.509,1.839,1.22,2.152
			c1.886-1.23,3.196-2.152,3.196-2.152s-1.31-0.92-3.196-2.151C168.743,337.258,168.234,338.104,168.234,339.098"/>
		<path clip-path="url(#SVGID_4_)" fill="#4E4F51" d="M113.948,347.927L113.948,347.927c0.836,0.005,1.713-0.605,1.96-1.362
			l50.37-154.748c0.247-0.757-0.231-1.375-1.068-1.379c-0.835-0.006-1.713,0.604-1.96,1.361l-50.37,154.748
			C112.633,347.304,113.111,347.922,113.948,347.927"/>
		<path clip-path="url(#SVGID_4_)" fill="#4E4F51" d="M73.353,347.69L73.353,347.69c0.836,0.004,1.714-0.605,1.96-1.362
			l50.37-154.749c0.246-0.757-0.232-1.375-1.068-1.38s-1.713,0.605-1.96,1.362L72.285,346.31
			C72.039,347.067,72.517,347.685,73.353,347.69"/>
		<path clip-path="url(#SVGID_4_)" fill="#4E4F51" d="M117.063,213.142l40.764,0.238c0.786,0.004,1.618-0.574,1.85-1.286
			c0.232-0.712-0.221-1.298-1.007-1.303l-40.765-0.237c-0.786-0.004-1.618,0.574-1.85,1.286
			C115.823,212.551,116.276,213.137,117.063,213.142"/>
		<path clip-path="url(#SVGID_4_)" fill="#4E4F51" d="M108.268,240.161l40.765,0.237c0.786,0.004,1.618-0.574,1.85-1.285
			c0.231-0.713-0.222-1.299-1.008-1.304l-40.764-0.237c-0.786-0.004-1.619,0.574-1.851,1.286
			C107.029,239.569,107.482,240.155,108.268,240.161"/>
		<path clip-path="url(#SVGID_4_)" fill="#4E4F51" d="M99.797,266.183l40.765,0.237c0.786,0.006,1.619-0.573,1.85-1.284
			c0.231-0.714-0.222-1.298-1.008-1.304l-40.764-0.237c-0.786-0.005-1.619,0.573-1.85,1.285
			C98.559,265.592,99.012,266.178,99.797,266.183"/>
		<path clip-path="url(#SVGID_4_)" fill="#4E4F51" d="M90.263,295.479l40.764,0.238c0.786,0.004,1.618-0.574,1.851-1.287
			c0.232-0.711-0.222-1.298-1.008-1.302l-40.765-0.238c-0.786-0.005-1.619,0.574-1.85,1.285
			C89.023,294.888,89.477,295.474,90.263,295.479"/>
		<path clip-path="url(#SVGID_4_)" fill="#4E4F51" d="M80.282,326.14l40.765,0.239c0.786,0.004,1.618-0.574,1.85-1.287
			c0.232-0.711-0.222-1.298-1.008-1.302l-40.765-0.239c-0.785-0.005-1.619,0.574-1.851,1.287
			C79.043,325.549,79.496,326.135,80.282,326.14"/>
		<path clip-path="url(#SVGID_4_)" fill="#9C5222" d="M155.676,156.777c0,0,0.482-1.084,0.794-1.598
			c0.312-0.514,1.646-2.018,1.873-1.677c0.227,0.341,1.134,2.632,0.652,3.274c-0.482,0.641,0.032,1.758-2.368,2.434L155.676,156.777
			z"/>
		<path clip-path="url(#SVGID_4_)" fill="#CB2322" d="M129.015,149.932c0,0,12.281,10.252,17.07,9.303
			c3.744-0.742,9.492-2.713,9.492-2.713l1.15,2.94c0,0-5.154,6.991-10.528,7.036c-8.399,0.072-14.605-3.635-14.605-3.635
			L129.015,149.932z"/>
		<path clip-path="url(#SVGID_4_)" fill="#E42525" d="M107.475,258.066c0,0,0.357,5.752,1.469,5.834
			c0.148,0.011,5.644,0.011,5.644,0.011l7.015-0.041c0,0-0.046-1.69-2.097-2.048c-2.05-0.356-5.482-1.798-6.725-4.509
			C111.475,254.463,107.475,258.066,107.475,258.066"/>
		<path clip-path="url(#SVGID_4_)" fill="#2D2B2C" d="M107.071,258.465c0,0,2.133,0.713,3.797,0.713
			c1.857,0,3.546-0.506,3.546-0.506s0.402-3.883,2.611-12.437c1.158-4.484,2.813-10.25,5.166-17.414
			c6.507-19.8,8.486-31.383,8.666-32.479c0.011-0.059,0.014-0.087,0.014-0.087l-0.021-0.01l-20.006-8.785
			c0,0,2.473,27.289-0.682,37.765c-0.441,1.464-0.82,3.169-1.145,5.017C107.025,241.62,107.071,258.465,107.071,258.465"/>
		<path clip-path="url(#SVGID_4_)" fill="#201D1D" d="M117.025,246.235c1.158-4.484,2.812-10.25,5.167-17.414
			c6.507-19.8,8.485-31.383,8.667-32.479c-0.002-0.033-0.005-0.064-0.008-0.097l-20.006-8.784c0,0,2.473,27.288-0.682,37.764
			C109.72,226.689,117.025,246.235,117.025,246.235"/>
		<path clip-path="url(#SVGID_4_)" fill="#E42525" d="M123.101,258.066c0,0,0.356,5.752,1.469,5.834
			c0.148,0.011,5.644,0.011,5.644,0.011l7.015-0.041c0,0-0.046-1.69-2.096-2.048c-2.05-0.356-5.483-1.798-6.725-4.509
			C127.1,254.463,123.101,258.066,123.101,258.066"/>
		<path clip-path="url(#SVGID_4_)" fill="#2D2B2C" d="M134.443,188.104c0,0,0.259,17.684-2.8,39.395
			c-3.06,21.713-2.023,30.93-2.023,30.93s-2.102,0.681-2.95,0.749c-2.162,0.178-4.378-0.506-4.378-0.506s-4.379-21.72-3.124-32.587
			c1.255-10.867-5.997-37.29-5.997-37.29L134.443,188.104z"/>
		<path clip-path="url(#SVGID_4_)" fill="#9C5222" d="M120.258,146.724l3.905,2.562l3.557-1.007c0.65-0.927,0.822-2.716,0.832-4.265
			c0.009-1.537-0.139-2.84-0.139-2.84l-5.269-2.325l-1.966-0.866c0.005,0.03,0.153,1.613,0.173,1.846
			C121.719,143.934,120.258,146.724,120.258,146.724"/>
		<path clip-path="url(#SVGID_4_)" fill="#E42525" d="M134.533,193.021c-4.86,4.693-23.256,3.903-24.39-1.268
			c-1.132-5.17,1.236-44.016,9.54-46.456c1.723-0.506,10.934,2.472,10.934,2.472s1.445,3.78,2.394,8.594
			c0.184,0.938,0.721,10.864,1.123,20.151c0.187,4.343,0.346,8.548,0.427,11.626C134.633,191.023,134.637,192.918,134.533,193.021"
			/>
		<path clip-path="url(#SVGID_4_)" fill="#753E1A" d="M121.746,139.9c1.069,1.808,4.819,3.389,6.806,4.113
			c0.009-1.537-0.139-2.84-0.139-2.84l-5.269-2.325C121.979,138.833,121.269,139.094,121.746,139.9"/>
		<path clip-path="url(#SVGID_4_)" fill="#9C5222" d="M130.399,140.854c0,0-8.488,2.648-10.056-2.664s-3.72-8.548,1.634-10.463
			c5.354-1.915,7.01-0.201,7.964,1.445C130.896,130.817,132.567,140.027,130.399,140.854"/>
		<path clip-path="url(#SVGID_4_)" fill="#201D1D" d="M129.608,128.66c0,0-0.542,6.182-1.82,5.912
			c-1.278-0.268-2.685-0.842-2.499,1.021c0.188,1.863-1.243,5.057-3.085,5.05c-3.954-0.016-8.249-10.161-7.167-12.084
			C118.16,123.009,134.122,121.889,129.608,128.66"/>
		<path clip-path="url(#SVGID_4_)" fill="#CB2322" d="M128.359,145.432c-0.109-0.045-6.319-2.832-7.045-2.591
			c-0.727,0.239-1.631,2.457-1.631,2.457l10.935,2.473C130.617,147.771,129.756,146.02,128.359,145.432"/>
		<path clip-path="url(#SVGID_4_)" fill="#585B5D" d="M167.021,175.516L132.21,208.29c-0.683,0.643-1.543,0.849-1.913,0.456
			l-1.175-1.249c-0.37-0.393-0.113-1.238,0.569-1.881l34.811-32.774c0.683-0.643,1.543-0.848,1.912-0.455l1.175,1.248
			C167.959,174.027,167.703,174.873,167.021,175.516"/>
		<path clip-path="url(#SVGID_4_)" fill="#CB2322" d="M147.485,193.908L132.21,208.29c-0.683,0.643-1.543,0.849-1.913,0.456
			l-1.175-1.249c-0.37-0.393-0.113-1.238,0.569-1.881l15.275-14.382L147.485,193.908z"/>
		<path clip-path="url(#SVGID_4_)" fill="#585B5D" d="M159.02,163.141c1.336,4.404,3.812,8.529,7.405,11.911
			c10.975,10.325,28.244,9.797,38.568-1.177c10.189-10.831,9.811-27.786-0.75-38.153c-0.139-0.14-0.282-0.277-0.428-0.413
			c-10.973-10.324-28.24-9.801-38.565,1.174C158.304,143.865,156.267,154.094,159.02,163.141 M166.818,137.959
			c6.009-6.387,14.57-8.932,22.609-7.54c4.686,0.811,9.191,2.956,12.913,6.458c10.108,9.51,10.592,25.414,1.082,35.521
			c-3.501,3.722-7.867,6.137-12.491,7.233c-7.942,1.88-16.644-0.138-23.031-6.147C157.792,163.973,157.306,148.07,166.818,137.959"
			/>
		<g opacity="0.5" clip-path="url(#SVGID_4_)">
			<g>
				<defs>
					<rect id="SVGID_5_" x="159.989" y="130.05" width="50.261" height="50.261"/>
				</defs>
				<clipPath id="SVGID_6_">
					<use xlink:href="#SVGID_5_"  overflow="visible"/>
				</clipPath>
				<path clip-path="url(#SVGID_6_)" fill="#E3E4E5" d="M203.423,172.398c-3.501,3.722-7.868,6.137-12.493,7.234
					c-7.941,1.879-16.644-0.14-23.031-6.148c-10.108-9.512-10.593-25.415-1.082-35.525c6.009-6.386,14.571-8.932,22.61-7.539
					c4.686,0.81,9.192,2.956,12.912,6.457C212.448,146.387,212.933,162.291,203.423,172.398"/>
			</g>
		</g>
		<path clip-path="url(#SVGID_4_)" fill="#CB2322" d="M134.56,188.141c-19.181-13.668-17.586-31.906-17.586-31.906
			c7.01,3.953,13.967,12.695,17.159,20.28C134.32,180.857,134.479,185.063,134.56,188.141"/>
		<path clip-path="url(#SVGID_4_)" fill="#9C5222" d="M153.491,181.916c1.353-0.313,2.261-1.335,2.45-1.513
			c0,0,0.577,0.038-0.095,1.27c-0.056,0.104-0.181,0.367-0.275,0.554c-0.038,0.077,0.015,0.165,0.101,0.172
			c0.78,0.06,1.565-0.249,3.069,0.064c0.208,0.043,0.268,0.54,0.26,0.751c-0.013,0.358,0.013,0.762-0.404,1.312
			c-0.242,0.319-0.918,0.662-2.424,1.269c-0.573,0.231-2.213,0.057-3.75-0.471l-1.228-0.568l0.38-2.282l0.308,0.064
			C152.373,182.64,152.979,182.042,153.491,181.916"/>
		<path clip-path="url(#SVGID_4_)" fill="#E42525" d="M122.926,147.771c0,0-17.234,3.281,5.071,28.239
			c3.567,3.991,22.841,9.189,22.841,9.189s1.955-1.663,0.969-3.01c0,0-13.271-9.637-16.19-11.17
			c-1.313-0.689-5.098-15.381-7.239-18.919C126.236,148.563,122.926,147.771,122.926,147.771"/>
		<path clip-path="url(#SVGID_4_)" fill="#9C5222" d="M156.144,157.08c0,0,0.563-1.078,0.674-1.646
			c0.11-0.568,0.82-2.225,1.112-2.518c0.117-0.117,0.503,0.035,0.548,0.537c0.02,0.219-0.087,0.615-0.277,1.09
			c-0.308,0.771-0.257,1.817-0.365,2.166C157.569,157.577,156.144,157.08,156.144,157.08"/>
		<path clip-path="url(#SVGID_4_)" fill="#B4B6B8" d="M548.584,350L0.935,349.763c-0.514,0-0.936-0.422-0.936-0.938l0-0.737
			c0-0.515,0.422-0.936,0.936-0.936l547.649,0.238c0.516,0,0.937,0.422,0.936,0.937v0.738C549.521,349.58,549.099,350,548.584,350"
			/>
	</g>
</g>
</svg>
