<?xml version="1.0" encoding="utf-8"?>
<!-- Generator: Adobe Illustrator 16.0.0, SVG Export Plug-In . SVG Version: 6.00 Build 0)  -->
<!DOCTYPE svg PUBLIC "-//W3C//DTD SVG 1.1//EN" "http://www.w3.org/Graphics/SVG/1.1/DTD/svg11.dtd">
<svg version="1.1" id="Layer_1" xmlns="http://www.w3.org/2000/svg" xmlns:xlink="http://www.w3.org/1999/xlink" x="0px" y="0px"
	 width="68.068px" height="98px" viewBox="0 0 68.068 98" enable-background="new 0 0 68.068 98" xml:space="preserve">
<g>
	
		<rect x="57.084" y="56.647" transform="matrix(0.9952 0.0975 -0.0975 0.9952 5.9497 -5.4298)" fill="#ED9A5B" width="2.853" height="2.984"/>
	<g>
		<defs>
			<rect id="SVGID_1_" width="68.068" height="98"/>
		</defs>
		<clipPath id="SVGID_2_">
			<use xlink:href="#SVGID_1_"  overflow="visible"/>
		</clipPath>
		<path clip-path="url(#SVGID_2_)" fill="#E93430" d="M15.52,96.733v1.252h4.209c0,0,0.291-0.876-1.168-1.126
			c-1.46-0.251-2.126-0.376-2.126-0.376L15.52,96.733z"/>
		<path clip-path="url(#SVGID_2_)" fill="#E93430" d="M3.018,96.733v1.252h4.208c0,0,0.292-0.876-1.167-1.126
			c-1.459-0.251-2.127-0.376-2.127-0.376L3.018,96.733z"/>
		<polygon clip-path="url(#SVGID_2_)" fill="#AB7945" points="20.233,85.454 17.59,96.708 15.487,97.002 16.709,85.552 		"/>
		<polygon clip-path="url(#SVGID_2_)" fill="#AB7945" points="7.755,85.454 4.966,96.659 3.01,97.002 4.085,86.823 		"/>
		<rect x="32.816" y="56.635" clip-path="url(#SVGID_2_)" fill="#ED9A5B" width="3.271" height="3.42"/>
		<path clip-path="url(#SVGID_2_)" fill="#343132" d="M39.465,96.274v1.727h5.806c0,0,0.402-1.209-1.611-1.555
			c-2.014-0.345-2.934-0.518-2.934-0.518L39.465,96.274z"/>
		<path clip-path="url(#SVGID_2_)" fill="#343132" d="M29.342,96.274v1.727h-5.805c0,0-0.403-1.209,1.611-1.555
			c2.013-0.345,2.934-0.518,2.934-0.518L29.342,96.274z"/>
		<path clip-path="url(#SVGID_2_)" fill="#FBB887" d="M41.58,44.782c0,0-0.972-1.807,0.367-2.306
			c1.338-0.498,1.958,1.896,1.958,1.896L41.58,44.782z"/>
		<path clip-path="url(#SVGID_2_)" fill="#E72E2B" d="M29.205,73.087h10.26l3.123,10.706V96.29h-3.123c0,0-1.122-3.867-1.271-8.253
			c-0.035-1.019,0.155-3.798,0.155-3.798l-3.376-6.963c-0.118-0.243-0.364-0.396-0.634-0.396H34.33
			c-0.269,0-0.516,0.153-0.634,0.396l-3.375,6.963c0,0,0.364,2.013,0.364,4.244c0,3.568-1.48,7.807-1.48,7.807h-3.123V83.793
			L29.205,73.087z"/>
		<path clip-path="url(#SVGID_2_)" fill="#343132" d="M30.989,58.742h6.802c1.616,0,2.883,1.39,2.732,2.999l-1.059,11.346H29.197
			l-0.943-11.374C28.121,60.113,29.384,58.742,30.989,58.742"/>
		<path clip-path="url(#SVGID_2_)" fill="#343132" d="M39.535,65.595c-2.46-1.592-4.956-1.359-2.995-5.178
			c1.648-3.208,4.548-6.065,4.783-6.976c0.235-0.911,0.002-8.518,0.002-8.518l2.58-0.55l1.127,8.641c0.033,0.639-0.04,1-0.166,1.389
			l-3.032,6.213L39.535,65.595z"/>
		
			<rect x="40.694" y="44.007" transform="matrix(0.9792 -0.2029 0.2029 0.9792 -8.196 9.5581)" clip-path="url(#SVGID_2_)" fill="#242020" width="3.643" height="1.487"/>
		<path clip-path="url(#SVGID_2_)" fill="#FBB887" d="M27.882,44.722c0,0,1.063-1.753-0.247-2.321
			c-1.311-0.568-2.055,1.793-2.055,1.793L27.882,44.722z"/>
		<path clip-path="url(#SVGID_2_)" fill="#343132" d="M28.838,65.611c2.54-1.46,5.02-1.098,3.262-5.013
			c-1.479-3.29-4.226-6.295-4.413-7.216c-0.188-0.923,0.442-8.507,0.442-8.507l-2.549-0.683l-1.575,8.569
			c-0.067,0.636-0.012,1.001,0.093,1.396l2.705,6.361L28.838,65.611z"/>
		
			<rect x="25.126" y="43.897" transform="matrix(-0.9673 -0.2538 0.2538 -0.9673 41.6861 94.6587)" clip-path="url(#SVGID_2_)" fill="#242020" width="3.644" height="1.487"/>
		<path clip-path="url(#SVGID_2_)" fill="#343132" d="M30.989,58.742h6.802c1.616,0,2.883,1.39,2.732,2.999l-1.059,11.346H29.197
			l-0.943-11.374C28.121,60.113,29.384,58.742,30.989,58.742"/>
	</g>
	<g>
		<defs>
			<path id="SVGID_3_" d="M30.989,58.742c-1.605,0-2.868,1.371-2.736,2.971l0.943,11.374h10.268l1.059-11.346
				c0.15-1.609-1.115-2.999-2.732-2.999H30.989z"/>
		</defs>
		<clipPath id="SVGID_4_">
			<use xlink:href="#SVGID_3_"  overflow="visible"/>
		</clipPath>
		<rect x="34.146" y="57.824" clip-path="url(#SVGID_4_)" fill="#242020" width="0.486" height="16.853"/>
	</g>
	<g>
		<defs>
			<rect id="SVGID_5_" width="68.068" height="98"/>
		</defs>
		<clipPath id="SVGID_6_">
			<use xlink:href="#SVGID_5_"  overflow="visible"/>
		</clipPath>
		<path clip-path="url(#SVGID_6_)" fill="#E72E2B" d="M33.919,59.411h1.078l0.743,9.22l-1.081,1.579
			c-0.1,0.146-0.315,0.146-0.415-0.001l-1.07-1.578L33.919,59.411z"/>
		<path clip-path="url(#SVGID_6_)" fill="#E72E2B" d="M33.38,59.854c0,0.617,0.5,1.117,1.118,1.117c0.617,0,1.118-0.5,1.118-1.117
			c0-0.619-0.501-1.119-1.118-1.119C33.88,58.735,33.38,59.235,33.38,59.854"/>
		<path clip-path="url(#SVGID_6_)" fill="#242020" d="M34.498,58.735c0,0,1.638,2.509,2.085,2.608
			c0.446,0.1,1.041-2.576,1.041-2.576L34.498,58.735z"/>
		<path clip-path="url(#SVGID_6_)" fill="#242020" d="M34.501,58.735c0,0-1.639,2.509-2.085,2.608s-1.041-2.576-1.041-2.576
			L34.501,58.735z"/>
		<path clip-path="url(#SVGID_6_)" fill="#FBB887" d="M31.434,53.53c0,1.667,1.352,4.046,3.018,4.046
			c1.667,0,3.018-2.379,3.018-4.046c0-1.666-1.351-3.017-3.018-3.017C32.785,50.514,31.434,51.864,31.434,53.53"/>
		<path clip-path="url(#SVGID_6_)" fill="#242020" d="M34.935,53.354h-3.599c-0.623,0-2.421-1.522-1.038-2.907
			c1.384-1.384,5.047-0.104,5.739,0.587C36.73,51.726,35.903,53.354,34.935,53.354"/>
	</g>
	<g>
		<defs>
			<path id="SVGID_7_" d="M31.434,53.531c0,1.666,1.351,4.045,3.018,4.045c1.667,0,3.017-2.379,3.017-4.045
				c0-1.667-1.351-3.019-3.017-3.019C32.785,50.513,31.434,51.864,31.434,53.531"/>
		</defs>
		<clipPath id="SVGID_8_">
			<use xlink:href="#SVGID_7_"  overflow="visible"/>
		</clipPath>
		<path clip-path="url(#SVGID_8_)" fill="#242020" d="M35.938,56.933v-1.636c0,0,1.189-1.19,0.793-2.032
			c-0.396-0.843-1.388,0-1.388,0l-0.743-1.091c0,0-1.19-0.347-1.389-1.141c-0.198-0.793,0.844-2.082,1.637-1.982
			s4.659,2.379,4.808,3.123c0.148,0.743-1.982,3.47-1.982,3.47L35.938,56.933z"/>
	</g>
	<g>
		<defs>
			<rect id="SVGID_9_" width="68.068" height="98"/>
		</defs>
		<clipPath id="SVGID_10_">
			<use xlink:href="#SVGID_9_"  overflow="visible"/>
		</clipPath>
		<path clip-path="url(#SVGID_10_)" fill="#AB7945" d="M3.113,76.855c0,0,0.847,1.39-0.192,1.843
			c-1.04,0.452-1.634-1.419-1.634-1.419L3.113,76.855z"/>
		<path clip-path="url(#SVGID_10_)" fill="#E72E2B" d="M3.838,60.279c2.018,1.156,3.984,0.864,2.595,3.973
			c-1.167,2.614-3.342,5.001-3.489,5.732c-0.146,0.731,0.365,6.749,0.365,6.749l-2.021,0.546l-1.264-6.797
			c-0.054-0.505-0.011-0.794,0.071-1.108l2.136-5.053L3.838,60.279z"/>
		<polygon clip-path="url(#SVGID_10_)" fill="#A4392A" points="1.124,77.862 3.779,77.154 3.48,76.013 0.825,76.72 		"/>
		<path clip-path="url(#SVGID_10_)" fill="#AB7945" d="M20.809,75.144c0,0-0.409,1.629,0.753,1.756
			c1.161,0.127,1.175-1.898,1.175-1.898L20.809,75.144z"/>
		<path clip-path="url(#SVGID_10_)" fill="#E72E2B" d="M15.024,59.034c-1.634,1.755-3.662,2.069-1.342,4.707
			c1.95,2.217,4.823,3.904,5.191,4.581c0.369,0.675,1.706,6.76,1.706,6.76l2.158-0.081l-0.834-7.083
			c-0.101-0.513-0.231-0.785-0.409-1.069l-3.65-4.324L15.024,59.034z"/>
		<polygon clip-path="url(#SVGID_10_)" fill="#A4392A" points="23.076,75.525 20.244,75.64 20.189,74.425 23.023,74.31 		"/>
		<path clip-path="url(#SVGID_10_)" fill="#E72E2B" d="M12.655,58.277L6.75,58.854c-1.403,0.139-3.398,1.085-3.131,2.47l3.72,6.198
			L6.516,71.45l8.913-0.874l-1.539-3.851l1.859-6.287C15.729,59.039,14.048,58.141,12.655,58.277"/>
	</g>
	<g>
		<defs>
			<path id="SVGID_11_" d="M12.655,58.276L6.75,58.854c-1.403,0.139-3.398,1.086-3.131,2.471l3.719,6.197l-0.823,3.926l8.915-0.872
				l-1.539-3.851l1.859-6.287c-0.019-1.305-1.483-2.176-2.812-2.176C12.843,58.263,12.749,58.267,12.655,58.276"/>
		</defs>
		<clipPath id="SVGID_12_">
			<use xlink:href="#SVGID_11_"  overflow="visible"/>
		</clipPath>
		
			<rect x="3.902" y="66.526" transform="matrix(0.0888 0.996 -0.996 0.0888 76.4197 50.0009)" clip-path="url(#SVGID_12_)" fill="#E72E2B" width="13.957" height="0.487"/>
		<path clip-path="url(#SVGID_12_)" fill="#9E6836" d="M7.38,58.945c0,1.49,1.209,2.701,2.701,2.701
			c1.491,0,2.701-1.211,2.701-2.701c0-1.491-1.209-2.702-2.701-2.702C8.589,56.243,7.38,57.454,7.38,58.945"/>
	</g>
	<g>
		<defs>
			<rect id="SVGID_13_" width="68.068" height="98"/>
		</defs>
		<clipPath id="SVGID_14_">
			<use xlink:href="#SVGID_13_"  overflow="visible"/>
		</clipPath>
		
			<rect x="8.547" y="56.647" transform="matrix(-0.9952 0.0975 -0.0975 -0.9952 25.5695 115.0278)" clip-path="url(#SVGID_14_)" fill="#9E6836" width="2.854" height="2.984"/>
		<path clip-path="url(#SVGID_14_)" fill="#AB7945" d="M12.382,53.541c0.148,1.504-0.862,3.772-2.367,3.921
			c-1.504,0.146-2.936-1.884-3.083-3.388c-0.146-1.505,0.954-2.845,2.459-2.992C10.895,50.935,12.235,52.035,12.382,53.541"/>
	</g>
	<g>
		<defs>
			<path id="SVGID_15_" d="M9.391,51.082c-1.505,0.147-2.605,1.487-2.458,2.992c0.147,1.504,1.578,3.534,3.082,3.387
				c1.506-0.147,2.515-2.416,2.367-3.92c-0.138-1.415-1.329-2.472-2.721-2.472C9.572,51.069,9.481,51.074,9.391,51.082"/>
		</defs>
		<clipPath id="SVGID_16_">
			<use xlink:href="#SVGID_15_"  overflow="visible"/>
		</clipPath>
		<path clip-path="url(#SVGID_16_)" fill="#242020" d="M7.967,58.868l0.229-3.229c0,0-1.015-0.956-0.555-1.664
			c0.424-0.653,0.979,0.163,0.979,0.163s6.478,0.114,6.851-0.751c0.293-0.681-5.656-3.613-6.364-3.454s-3.998,2.561-4.066,3.246
			c-0.068,0.684,2.097,2.957,2.097,2.957L7.967,58.868z"/>
	</g>
	<g>
		<defs>
			<rect id="SVGID_17_" width="68.068" height="98"/>
		</defs>
		<clipPath id="SVGID_18_">
			<use xlink:href="#SVGID_17_"  overflow="visible"/>
		</clipPath>
		<path clip-path="url(#SVGID_18_)" fill="#242020" d="M8.392,52.148c-0.326,0.22-4.656-1.214-4.614-1.552
			c0.042-0.338,3.869-3.213,4.319-2.755C8.377,48.125,8.771,51.892,8.392,52.148"/>
		<polygon clip-path="url(#SVGID_18_)" fill="#343132" points="6.516,71.45 15.429,70.576 20.233,85.454 4.085,86.823 		"/>
		<path clip-path="url(#SVGID_18_)" fill="#E72E2B" d="M52.965,96.733v1.252h-4.207c0,0-0.293-0.876,1.167-1.126
			c1.459-0.251,2.127-0.376,2.127-0.376L52.965,96.733z"/>
		<path clip-path="url(#SVGID_18_)" fill="#E72E2B" d="M65.467,96.733v1.252h-4.208c0,0-0.292-0.876,1.167-1.126
			c1.46-0.251,2.128-0.376,2.128-0.376L65.467,96.733z"/>
		<path clip-path="url(#SVGID_18_)" fill="#343132" d="M48.252,85.454l2.643,11.254l2.104,0.294c0,0,0.595-5.313,0.28-7.047
			c-0.522-2.87-1.503-4.403-1.503-4.403L48.252,85.454z"/>
		<path clip-path="url(#SVGID_18_)" fill="#343132" d="M59.541,87.476l3.979,9.184l1.956,0.343c0,0-0.335-5.189-0.846-6.72
			c-0.783-2.35-1.696-3.655-1.696-3.655L59.541,87.476z"/>
		<path clip-path="url(#SVGID_18_)" fill="#FBB887" d="M65.552,78.696c0,0-0.931,1.528,0.212,2.026
			c1.142,0.498,1.795-1.56,1.795-1.56L65.552,78.696z"/>
		<path clip-path="url(#SVGID_18_)" fill="#E93430" d="M64.386,60.091c-3.042-2.586-4.011,1.334-2.483,4.751
			c1.283,2.874,2.291,5.3,2.452,6.104c0.162,0.804,0.982,7.617,0.982,7.617l2.222,0.601l0.008-7.672
			c0.059-0.554,0.011-0.872-0.08-1.218C67.486,70.273,66.343,61.754,64.386,60.091"/>
		<polygon clip-path="url(#SVGID_18_)" fill="#343132" points="67.738,79.803 64.819,79.024 65.148,77.771 68.067,78.548 		"/>
		<path clip-path="url(#SVGID_18_)" fill="#FBB887" d="M47.335,76.102c0,0,0.437,1.735-0.803,1.872
			c-1.237,0.137-1.251-2.022-1.251-2.022L47.335,76.102z"/>
		<path clip-path="url(#SVGID_18_)" fill="#E93430" d="M53.499,58.936c2.109-1.444,3.901,2.205,1.431,5.017
			c-2.078,2.363-4.098,4.863-4.489,5.582c-0.394,0.721-2.86,6.502-2.86,6.502l-2.3-0.085l1.932-6.847
			c0.107-0.547,0.246-0.837,0.437-1.139C47.648,67.966,51.026,60.63,53.499,58.936"/>
		<polygon clip-path="url(#SVGID_18_)" fill="#343132" points="44.919,76.509 47.937,76.631 47.995,75.337 44.977,75.214 		"/>
		<path clip-path="url(#SVGID_18_)" fill="#E93430" d="M55.83,58.277l5.905,0.577c1.402,0.139,3.397,1.085,3.13,2.47l-3.497,14.017
			l-8.914-0.872l0.28-14.03C52.756,59.039,54.437,58.141,55.83,58.277"/>
	</g>
	<g>
		<defs>
			<path id="SVGID_19_" d="M52.734,60.438l-0.28,14.03l8.914,0.872l3.497-14.016c0.267-1.385-1.728-2.332-3.13-2.471l-5.905-0.578
				c-0.094-0.01-0.188-0.014-0.284-0.014C54.219,58.263,52.755,59.134,52.734,60.438"/>
		</defs>
		<clipPath id="SVGID_20_">
			<use xlink:href="#SVGID_19_"  overflow="visible"/>
		</clipPath>
		
			<rect x="57.279" y="54.7" transform="matrix(0.9954 0.0963 -0.0963 0.9954 6.6427 -5.233)" clip-path="url(#SVGID_20_)" fill="#343132" width="0.487" height="22.969"/>
	</g>
	<g>
		<defs>
			<rect id="SVGID_21_" width="68.068" height="98"/>
		</defs>
		<clipPath id="SVGID_22_">
			<use xlink:href="#SVGID_21_"  overflow="visible"/>
		</clipPath>
		<path clip-path="url(#SVGID_22_)" fill="#FBB887" d="M56.282,52.78c-0.456,1.523,0.129,4.07,1.653,4.526
			c1.523,0.456,3.41-1.352,3.866-2.875c0.457-1.524-0.408-3.13-1.934-3.586C58.344,50.39,56.739,51.255,56.282,52.78"/>
	</g>
	<g>
		<defs>
			<path id="SVGID_23_" d="M56.282,52.778c-0.456,1.525,0.129,4.072,1.652,4.528c1.525,0.456,3.411-1.352,3.867-2.875
				c0.457-1.524-0.408-3.13-1.934-3.586c-0.275-0.082-0.554-0.122-0.826-0.122C57.802,50.724,56.656,51.531,56.282,52.778"/>
		</defs>
		<clipPath id="SVGID_24_">
			<use xlink:href="#SVGID_23_"  overflow="visible"/>
		</clipPath>
		<path clip-path="url(#SVGID_24_)" fill="#242020" d="M59.765,59.172l0.417-3.381c0,0,1.241-0.78,0.909-1.605
			c-0.307-0.759-1.044-0.028-1.044-0.028s-6.712-1.191-6.922-2.16c-0.166-0.762,6.57-2.589,7.269-2.28
			c0.698,0.308,3.61,3.451,3.543,4.172s-2.763,2.631-2.763,2.631L59.765,59.172z"/>
	</g>
	<g>
		<defs>
			<rect id="SVGID_25_" width="68.068" height="98"/>
		</defs>
		<clipPath id="SVGID_26_">
			<use xlink:href="#SVGID_25_"  overflow="visible"/>
		</clipPath>
		<path clip-path="url(#SVGID_26_)" fill="#343132" d="M52.454,74.469l8.914,0.872l1.565,11.288l-0.896,2.479l-2.496-1.632
			c0.115,0.151-0.652-5.153-1.892-8.677c-0.253-0.72-1.762-0.392-2.153,0.392s-3.653,7.568-3.653,7.568l-3.591-1.305L52.454,74.469z
			"/>
		<path clip-path="url(#SVGID_26_)" fill="#343132" d="M58.171,58.477l-2.447-0.229c0,0,0.152,1.855,0.359,1.925
			C56.475,60.303,58.171,58.477,58.171,58.477"/>
		<path clip-path="url(#SVGID_26_)" fill="#343132" d="M58.455,58.492l2.438,0.302c0,0-0.546,1.78-0.763,1.803
			C59.72,60.641,58.455,58.492,58.455,58.492"/>
		<path clip-path="url(#SVGID_26_)" fill="#F4C31C" d="M47.888,19.394c-1.049-3.036-3.503-8.831-12.725-8.831
			c-8.948,0-12.596,5.596-13.462,8.831C18.529,31.248,28.12,38.84,28.12,38.84h0.052v4.986c0,0.85,0.688,1.537,1.538,1.537h3.252
			h3.667h3.252c0.849,0,1.538-0.688,1.538-1.537V38.84h0.052C41.47,38.84,51.792,30.688,47.888,19.394"/>
		<path clip-path="url(#SVGID_26_)" fill="#F4C31C" d="M35.847,0.887c0.015-0.475-0.357-0.871-0.832-0.886
			c-0.474-0.015-0.871,0.357-0.885,0.831c-0.016,0.475,0.703,4.973,0.703,4.973S35.832,1.361,35.847,0.887"/>
		<path clip-path="url(#SVGID_26_)" fill="#F4C31C" d="M23.778,3.735c-0.224-0.418-0.745-0.575-1.163-0.352
			s-0.576,0.745-0.352,1.163c0.225,0.418,3.095,3.954,3.095,3.954S24.002,4.153,23.778,3.735"/>
		<path clip-path="url(#SVGID_26_)" fill="#F4C31C" d="M14.751,12.236c-0.403-0.25-0.933-0.125-1.183,0.277
			c-0.25,0.403-0.126,0.934,0.277,1.184c0.403,0.25,4.658,1.876,4.658,1.876S15.154,12.486,14.751,12.236"/>
		<path clip-path="url(#SVGID_26_)" fill="#F4C31C" d="M11.184,24.113c-0.474-0.016-0.871,0.357-0.886,0.832
			c-0.014,0.474,0.358,0.869,0.833,0.885c0.474,0.015,4.971-0.703,4.971-0.703S11.658,24.127,11.184,24.113"/>
		<path clip-path="url(#SVGID_26_)" fill="#F4C31C" d="M14.033,36.182c-0.417,0.224-0.575,0.744-0.351,1.162
			c0.224,0.419,0.745,0.576,1.163,0.352s3.954-3.095,3.954-3.095S14.451,35.957,14.033,36.182"/>
		<path clip-path="url(#SVGID_26_)" fill="#F4C31C" d="M46.456,3.735C46.68,3.317,47.2,3.16,47.618,3.384s0.576,0.745,0.352,1.163
			c-0.224,0.418-3.096,3.954-3.096,3.954S46.231,4.153,46.456,3.735"/>
		<path clip-path="url(#SVGID_26_)" fill="#F4C31C" d="M55.482,12.236c0.403-0.25,0.934-0.125,1.183,0.277
			c0.25,0.403,0.126,0.934-0.277,1.184c-0.402,0.25-4.656,1.876-4.656,1.876S55.079,12.486,55.482,12.236"/>
		<path clip-path="url(#SVGID_26_)" fill="#F4C31C" d="M59.05,24.113c0.475-0.016,0.87,0.357,0.886,0.832
			c0.015,0.474-0.357,0.869-0.832,0.885c-0.475,0.015-4.971-0.703-4.971-0.703S58.575,24.127,59.05,24.113"/>
		<path clip-path="url(#SVGID_26_)" fill="#F4C31C" d="M56.2,36.182c0.419,0.224,0.576,0.744,0.353,1.162
			c-0.225,0.419-0.745,0.576-1.163,0.352c-0.419-0.225-3.955-3.095-3.955-3.095S55.782,35.957,56.2,36.182"/>
		<path clip-path="url(#SVGID_26_)" fill="#F4C31C" d="M28.292,40.472v3.354c0,0.85,0.688,1.537,1.538,1.537h3.252h3.666H40
			c0.849,0,1.536-0.688,1.536-1.537v-3.354H28.292z"/>
		<path clip-path="url(#SVGID_26_)" fill="#F4C31C" d="M47.888,19.394c-1.049-3.036-3.503-8.831-12.725-8.831
			c-8.948,0-12.596,5.596-13.462,8.831C18.529,31.248,28.12,38.84,28.12,38.84h0.052v4.986c0,0.85,0.688,1.537,1.538,1.537h3.252
			h3.667h3.252c0.849,0,1.538-0.688,1.538-1.537V38.84h0.052C41.47,38.84,51.792,30.688,47.888,19.394"/>
	</g>
	<g>
		<defs>
			<path id="SVGID_27_" d="M21.701,19.393c-3.172,11.854,6.419,19.446,6.419,19.446h0.052v4.987c0,0.849,0.688,1.537,1.537,1.537
				h3.253h3.666h3.252c0.849,0,1.538-0.688,1.538-1.537v-4.987h0.051c0,0,10.323-8.15,6.419-19.446
				c-1.049-3.035-3.503-8.83-12.724-8.83C26.215,10.563,22.568,16.158,21.701,19.393"/>
		</defs>
		<clipPath id="SVGID_28_">
			<use xlink:href="#SVGID_27_"  overflow="visible"/>
		</clipPath>
		<rect x="25.47" y="42.037" clip-path="url(#SVGID_28_)" fill="#FFFFFF" width="19.496" height="0.261"/>
		<rect x="25.47" y="43.715" clip-path="url(#SVGID_28_)" fill="#FFFFFF" width="19.496" height="0.26"/>
	</g>
	<g>
		<defs>
			<rect id="SVGID_29_" width="68.068" height="98"/>
		</defs>
		<clipPath id="SVGID_30_">
			<use xlink:href="#SVGID_29_"  overflow="visible"/>
		</clipPath>
		<path clip-path="url(#SVGID_30_)" fill="#FFFFFF" d="M34.483,23.7c0,0.212,0.172,0.384,0.385,0.384
			c0.211,0,0.383-0.172,0.383-0.384s-0.172-0.384-0.383-0.384C34.655,23.316,34.483,23.488,34.483,23.7"/>
		<path clip-path="url(#SVGID_30_)" fill="#FFFFFF" d="M30.64,24.993c0,0.212,0.172,0.384,0.384,0.384s0.385-0.172,0.385-0.384
			s-0.172-0.384-0.385-0.384S30.64,24.781,30.64,24.993"/>
		<path clip-path="url(#SVGID_30_)" fill="#FFFFFF" d="M38.012,24.993c0,0.212,0.172,0.384,0.385,0.384
			c0.212,0,0.384-0.172,0.384-0.384s-0.172-0.384-0.384-0.384C38.184,24.609,38.012,24.781,38.012,24.993"/>
		<polygon clip-path="url(#SVGID_30_)" fill="#FFFFFF" points="34.819,28.987 30.916,25.156 31.098,24.97 34.812,28.615 
			38.459,24.764 38.648,24.943 		"/>
		<rect x="34.72" y="23.77" clip-path="url(#SVGID_30_)" fill="#FFFFFF" width="0.26" height="17.191"/>
	</g>
</g>
</svg>
