<?xml version="1.0" encoding="utf-8"?>
<!-- Generator: Adobe Illustrator 16.0.0, SVG Export Plug-In . SVG Version: 6.00 Build 0)  -->
<!DOCTYPE svg PUBLIC "-//W3C//DTD SVG 1.1//EN" "http://www.w3.org/Graphics/SVG/1.1/DTD/svg11.dtd">
<svg version="1.1" id="Layer_1" xmlns="http://www.w3.org/2000/svg" xmlns:xlink="http://www.w3.org/1999/xlink" x="0px" y="0px"
	 width="121.488px" height="98px" viewBox="0 0 121.488 98" enable-background="new 0 0 121.488 98" xml:space="preserve">
<g>
	<g>
		<defs>
			<rect id="SVGID_1_" width="121.488" height="98"/>
		</defs>
		<clipPath id="SVGID_2_">
			<use xlink:href="#SVGID_1_"  overflow="visible"/>
		</clipPath>
		<path clip-path="url(#SVGID_2_)" fill="#242020" d="M89.582,54.979c0,0-1.769-4.229,0.227-5.98
			c1.994-1.751,4.077-1.271,5.663,0.315c1.087,1.09,1.919,3.263,1.919,3.263L89.582,54.979z"/>
		<path clip-path="url(#SVGID_2_)" fill="#F4B792" d="M33.836,56.662c0,0,2.219-0.748,2.523,0.854
			c0.307,1.602-2.51,1.843-2.51,1.843L33.836,56.662z"/>
		<path clip-path="url(#SVGID_2_)" fill="#242020" d="M10.805,50.386c-2.102-2.604,2.477-5.317,6.398-2.383
			c3.296,2.468,6.765,4.846,7.745,5.283c0.979,0.438,8.777,3.062,8.777,3.062l0.125,3.011l-9.131-1.816
			c-0.726-0.084-1.117-0.237-1.532-0.451C23.188,57.091,13.269,53.436,10.805,50.386"/>
		<polygon clip-path="url(#SVGID_2_)" fill="#E5ACCE" points="34.616,59.772 34.465,55.821 32.769,55.879 32.92,59.83 		"/>
		<path clip-path="url(#SVGID_2_)" fill="#E72E2B" d="M50.573,42.187L75.905,25.97c0.56,0.873-4.114-14.141-25.332-13.865
			C31.905,12.345,20.49,25.572,20.49,42.187c0,16.615,13.467,30.085,30.083,30.085c13.082,0,24.205-8.353,28.35-20.011
			L50.573,42.187z"/>
		
			<rect x="7.249" y="43.873" transform="matrix(-0.9952 0.0975 -0.0975 -0.9952 22.6586 90.5437)" clip-path="url(#SVGID_2_)" fill="#8F6A3D" width="3.735" height="3.905"/>
		<path clip-path="url(#SVGID_2_)" fill="#E72E2B" d="M16.374,96.336v1.638h5.508c0,0,0.382-1.146-1.529-1.475
			c-1.91-0.325-2.784-0.489-2.784-0.489L16.374,96.336z"/>
		<path clip-path="url(#SVGID_2_)" fill="#E72E2B" d="M0.012,96.336v1.638H5.52c0,0,0.382-1.146-1.529-1.475
			c-1.909-0.325-2.783-0.489-2.783-0.489L0.012,96.336z"/>
		<path clip-path="url(#SVGID_2_)" fill="#434142" d="M22.542,81.573l-3.458,14.729l-2.755,0.383c0,0-0.777-6.95-0.365-9.22
			c0.684-3.758,1.968-5.766,1.968-5.766L22.542,81.573z"/>
		<path clip-path="url(#SVGID_2_)" fill="#434142" d="M7.767,84.221L2.562,96.238L0,96.686c0,0,0.438-6.79,1.106-8.794
			c1.025-3.073,2.221-4.781,2.221-4.781L7.767,84.221z"/>
		<path clip-path="url(#SVGID_2_)" fill="#3B393A" d="M12.624,46.006l-7.729,0.756c-1.837,0.18-4.446,1.421-4.097,3.231
			l4.577,18.346l11.665-1.142l-0.365-18.363C16.648,47.003,14.447,45.828,12.624,46.006"/>
	</g>
	<g>
		<defs>
			<path id="SVGID_3_" d="M12.624,46.006l-7.728,0.756c-1.837,0.18-4.447,1.421-4.098,3.231l4.577,18.346l11.665-1.142
				l-0.365-18.363c-0.025-1.708-1.942-2.846-3.68-2.846C12.871,45.988,12.746,45.993,12.624,46.006"/>
		</defs>
		<clipPath id="SVGID_4_">
			<use xlink:href="#SVGID_3_"  overflow="visible"/>
		</clipPath>
		
			<rect x="-4.621" y="56.16" transform="matrix(0.0991 0.9951 -0.9951 0.0991 65.4565 40.4162)" clip-path="url(#SVGID_4_)" fill="#E72E2B" width="30.06" height="0.392"/>
	</g>
	<g>
		<defs>
			<rect id="SVGID_5_" width="121.488" height="98"/>
		</defs>
		<clipPath id="SVGID_6_">
			<use xlink:href="#SVGID_5_"  overflow="visible"/>
		</clipPath>
		<path clip-path="url(#SVGID_6_)" fill="#AB7945" d="M12.031,38.811c0.597,1.996-0.168,5.328-2.164,5.925
			c-1.993,0.598-4.463-1.768-5.06-3.762c-0.598-1.995,0.535-4.098,2.531-4.693C9.333,35.685,11.435,36.817,12.031,38.811"/>
	</g>
	<g>
		<defs>
			<path id="SVGID_7_" d="M7.339,36.28c-1.995,0.598-3.129,2.698-2.531,4.693c0.597,1.994,3.066,4.359,5.06,3.762
				c1.996-0.597,2.761-3.929,2.164-5.925c-0.488-1.633-1.987-2.69-3.61-2.69C8.063,36.12,7.699,36.172,7.339,36.28"/>
		</defs>
		<clipPath id="SVGID_8_">
			<use xlink:href="#SVGID_7_"  overflow="visible"/>
		</clipPath>
		<path clip-path="url(#SVGID_8_)" fill="#242020" d="M7.474,47.177l-0.545-4.423c0,0-1.625-1.023-1.189-2.104
			c0.401-0.991,1.366-0.036,1.366-0.036s8.784-1.559,9.06-2.825c0.216-0.999-8.6-3.39-9.514-2.985
			c-0.914,0.402-4.726,4.516-4.637,5.458c0.088,0.945,3.616,3.444,3.616,3.444L7.474,47.177z"/>
	</g>
	<g>
		<defs>
			<rect id="SVGID_9_" width="121.488" height="98"/>
		</defs>
		<clipPath id="SVGID_10_">
			<use xlink:href="#SVGID_9_"  overflow="visible"/>
		</clipPath>
		<path clip-path="url(#SVGID_10_)" fill="#434142" d="M17.041,67.197L5.376,68.339L3.327,83.11l1.174,3.245l3.266-2.135
			c-0.149,0.197,0.854-6.747,2.477-11.356c0.332-0.943,2.305-0.513,2.817,0.512c0.513,1.025,4.782,9.905,4.782,9.905l4.699-1.708
			L17.041,67.197z"/>
		<path clip-path="url(#SVGID_10_)" fill="#E72E2B" d="M9.56,46.268l3.202-0.3c0,0-0.198,2.428-0.47,2.519
			C11.78,48.656,9.56,46.268,9.56,46.268"/>
		<path clip-path="url(#SVGID_10_)" fill="#E72E2B" d="M9.188,46.286l-3.191,0.396c0,0,0.715,2.33,0.999,2.36
			C7.532,49.1,9.188,46.286,9.188,46.286"/>
		<path clip-path="url(#SVGID_10_)" fill="#AB7945" d="M26.368,61.044c0,0,2.228-0.721,2.513,0.885s-2.532,1.812-2.532,1.812
			L26.368,61.044z"/>
		<path clip-path="url(#SVGID_10_)" fill="#242020" d="M2.426,53.061c-2.215-4.731,1.069-5.704,4.955-2.719
			c3.264,2.51,8.511,6.363,9.485,6.815c0.976,0.449,9.396,3.57,9.396,3.57l0.087,3.013l-9.766-2.331
			c-0.724-0.094-1.112-0.251-1.525-0.472C15.058,60.938,3.755,55.9,2.426,53.061"/>
		<polygon clip-path="url(#SVGID_10_)" fill="#E72E2B" points="27.108,64.163 27.008,60.212 25.312,60.247 25.412,64.2 		"/>
		<path clip-path="url(#SVGID_10_)" fill="#F4B792" d="M92.267,82.38l3.652-9.826l5.208-1.497l0.488-4.868
			c1.168,0.666,2.888,3.547,3.064,3.723l4.601,9.384c0.426-0.385,1.224-1.866,3.118-2.9c2.887-1.579,4.187-2.526,4.187-2.526
			l1.47,1.677c0,0-7.702,7.314-9.099,7.161c-1.206-0.133-6.262-5.168-7.709-6.625c-0.387-0.389-1.071,0.024-1.164,0.257
			l-5.145,7.519c0,0,1.513,2.934,1.678,4.982c0.266,3.277,0.605,5.763,0.605,5.763l-2.233,1.192l-2.854-10.778
			C91.914,84.143,91.96,83.226,92.267,82.38"/>
		<path clip-path="url(#SVGID_10_)" fill="#E72E2B" d="M97.146,94.384l0.642,1.455L92.896,98c0,0-0.79-0.87,0.779-1.91
			C95.245,95.049,97.146,94.384,97.146,94.384"/>
		<path clip-path="url(#SVGID_10_)" fill="#E72E2B" d="M116.176,74.129l1.291-1.297l4.021,3.528c0,0-0.457,1.082-2.061,0.096
			C117.822,75.473,116.176,74.129,116.176,74.129"/>
		<path clip-path="url(#SVGID_10_)" fill="#343132" d="M101.227,55.839c-2.698,0.11-3.437,4.187-3.987,0.272
			c-0.464-3.291-0.519-8-0.825-8.811c-0.305-0.811-6.082-5.715-6.082-5.715l1.65-1.785l6.999,5.21
			c0.364,0.462,0.5,0.771,0.613,1.133l1.522,7.094L101.227,55.839z"/>
		<path clip-path="url(#SVGID_10_)" fill="#F4B792" d="M80.362,47.475c0,0-0.138-1.884-1.424-1.612
			c-1.288,0.272-0.589,2.444-0.589,2.444L80.362,47.475z"/>
		<path clip-path="url(#SVGID_10_)" fill="#343132" d="M92.219,62.663c1.13-2.454,3.187-3.504-0.223-5.508
			c-2.863-1.684-6.532-2.476-7.163-3.069c-0.633-0.593-4.202-6.627-4.202-6.627l-2.28,0.848l3.385,7.278
			c0.29,0.514,0.526,0.758,0.814,0.998l5.424,3.338L92.219,62.663z"/>
		
			<rect x="77.939" y="47.227" transform="matrix(-0.9357 0.3529 -0.3529 -0.9357 171.0202 64.6439)" clip-path="url(#SVGID_10_)" fill="#242020" width="3.357" height="1.37"/>
		<path clip-path="url(#SVGID_10_)" fill="#E72E2B" d="M94.642,69.438l8.939-3.087l5.699,12.944c0,0-3.519,3.385-8.227,4.532
			c-4.705,1.146-8.993,0.68-8.993,0.68s-0.516-0.628,0.102-2.056C92.777,81.024,94.642,69.438,94.642,69.438"/>
		<path clip-path="url(#SVGID_10_)" fill="#343132" d="M91.264,56.552l5.82-2.326c1.382-0.555,3.714-0.635,4.134,0.793l-0.474,7.621
			l2.837,3.711l-8.939,3.087l-0.431-4.361l-4.8-4.991C88.751,58.762,89.893,57.103,91.264,56.552"/>
	</g>
	<g>
		<defs>
			<path id="SVGID_11_" d="M97.084,54.226l-5.82,2.326c-1.373,0.551-2.513,2.21-1.853,3.533l4.8,4.991l0.431,4.361l8.939-3.087
				l-2.836-3.711l0.475-7.621c-0.251-0.849-1.179-1.165-2.177-1.165C98.361,53.854,97.644,54,97.084,54.226"/>
		</defs>
		<clipPath id="SVGID_12_">
			<use xlink:href="#SVGID_11_"  overflow="visible"/>
		</clipPath>
		
			<rect x="89.686" y="63.458" transform="matrix(0.3795 0.9252 -0.9252 0.3795 119.1112 -50.2992)" clip-path="url(#SVGID_12_)" fill="#E72E2B" width="14.741" height="0.394"/>
		<path clip-path="url(#SVGID_12_)" fill="#EBAC8C" d="M96.672,54.582c0.728,1.4,0.18,3.122-1.218,3.846
			c-1.399,0.725-3.121,0.181-3.845-1.221c-0.726-1.397-0.18-3.119,1.218-3.845C94.228,52.64,95.949,53.185,96.672,54.582"/>
	</g>
	<g>
		<defs>
			<rect id="SVGID_13_" width="121.488" height="98"/>
		</defs>
		<clipPath id="SVGID_14_">
			<use xlink:href="#SVGID_13_"  overflow="visible"/>
		</clipPath>
		
			<rect x="92.374" y="53.456" transform="matrix(0.9284 -0.3716 0.3716 0.9284 -13.7263 38.8221)" clip-path="url(#SVGID_14_)" fill="#EBAC8C" width="3.015" height="3.151"/>
		<path clip-path="url(#SVGID_14_)" fill="#F4B792" d="M89.652,51.945c0.569,1.426,2.541,3,3.967,2.43
			c1.426-0.571,1.767-3.069,1.195-4.495s-2.188-2.117-3.615-1.548C89.774,48.902,89.082,50.52,89.652,51.945"/>
	</g>
	<g>
		<defs>
			<path id="SVGID_15_" d="M91.199,48.332c-1.425,0.572-2.117,2.188-1.547,3.613c0.569,1.426,2.506,2.905,3.967,2.43
				c1.521-0.498,1.826-3.023,1.195-4.495c-0.462-1.078-1.497-1.746-2.596-1.746C91.883,48.134,91.536,48.198,91.199,48.332"/>
		</defs>
		<clipPath id="SVGID_16_">
			<use xlink:href="#SVGID_15_"  overflow="visible"/>
		</clipPath>
		<path clip-path="url(#SVGID_16_)" fill="#242020" d="M95.199,53.981L93.344,50.1c0,0-5.361,2.339-6.103,1.734
			c-0.584-0.476,3.083-4.7,3.796-4.889c0.713-0.185,4.802,0.44,5.182,1.026c0.384,0.586-0.507,3.646-0.507,3.646L95.199,53.981z"/>
	</g>
	<g>
		<defs>
			<rect id="SVGID_17_" width="121.488" height="98"/>
		</defs>
		<clipPath id="SVGID_18_">
			<use xlink:href="#SVGID_17_"  overflow="visible"/>
		</clipPath>
		<path clip-path="url(#SVGID_18_)" fill="#434142" d="M58.728,41.462l28.351,10.074c1.118-3.149,1.733-6.54,1.733-10.074
			c0-5.973-1.748-11.534-4.751-16.216L58.728,41.462z"/>
		<path clip-path="url(#SVGID_18_)" fill="#F4B792" d="M90.072,41.385c0,0-1.876-0.229-1.539-1.504
			c0.338-1.271,2.468-0.463,2.468-0.463L90.072,41.385z"/>
		
			<rect x="89.16" y="40.09" transform="matrix(0.5219 -0.853 0.853 0.5219 8.6474 96.9776)" clip-path="url(#SVGID_18_)" fill="#242020" width="3.357" height="1.369"/>
		<path clip-path="url(#SVGID_18_)" fill="#F4C31C" d="M53.008,1.275c0.044-0.66-0.455-1.229-1.114-1.271
			c-0.658-0.044-1.228,0.454-1.271,1.113s0.739,6.945,0.739,6.945S52.965,1.933,53.008,1.275"/>
		<path clip-path="url(#SVGID_18_)" fill="#F4C31C" d="M32.226,5.537c-0.292-0.591-1.009-0.835-1.6-0.544
			c-0.593,0.293-0.836,1.01-0.545,1.602c0.292,0.593,4.115,5.647,4.115,5.647S32.517,6.13,32.226,5.537"/>
		<path clip-path="url(#SVGID_18_)" fill="#F4C31C" d="M16.359,19.622c-0.549-0.366-1.292-0.22-1.658,0.329s-0.22,1.291,0.329,1.659
			c0.548,0.366,6.386,2.832,6.386,2.832S16.908,19.989,16.359,19.622"/>
		<path clip-path="url(#SVGID_18_)" fill="#F4C31C" d="M28.008,76.4c-0.367,0.549-0.221,1.293,0.329,1.659
			c0.548,0.366,1.291,0.22,1.657-0.329c0.367-0.55,2.833-6.385,2.833-6.385S28.375,75.853,28.008,76.4"/>
		<path clip-path="url(#SVGID_18_)" fill="#F4C31C" d="M45.625,82.755c-0.116,0.65,0.316,1.271,0.967,1.388
			c0.649,0.114,1.271-0.317,1.387-0.968c0.116-0.65,0.031-6.985,0.031-6.985S45.741,82.104,45.625,82.755"/>
		<path clip-path="url(#SVGID_18_)" fill="#F4C31C" d="M75.561,5.597c0.389-0.535,1.135-0.657,1.67-0.269
			c0.533,0.385,0.653,1.133,0.269,1.668c-0.389,0.535-4.999,4.88-4.999,4.88S75.174,6.132,75.561,5.597"/>
		<path clip-path="url(#SVGID_18_)" fill="#F4C31C" d="M100.955,33.548c0.656-0.053,1.233,0.438,1.286,1.096
			c0.052,0.659-0.439,1.234-1.095,1.288c-0.659,0.053-6.958-0.643-6.958-0.643S100.296,33.602,100.955,33.548"/>
		<path clip-path="url(#SVGID_18_)" fill="#F4C31C" d="M82.468,71.605c0.367,0.549,0.222,1.293-0.328,1.659
			c-0.549,0.366-1.291,0.218-1.657-0.329c-0.367-0.549-2.832-6.387-2.832-6.387S82.102,71.057,82.468,71.605"/>
		<path clip-path="url(#SVGID_18_)" fill="#F4C31C" d="M67.971,81.392c0.256,0.61-0.032,1.31-0.64,1.565s-1.308-0.029-1.563-0.64
			c-0.257-0.608-1.565-6.808-1.565-6.808S67.714,80.783,67.971,81.392"/>
		<rect x="34.667" y="24.782" clip-path="url(#SVGID_18_)" fill="#FFFFFF" width="0.395" height="3.942"/>
		<rect x="28.098" y="40.025" clip-path="url(#SVGID_18_)" fill="#FFFFFF" width="0.394" height="3.942"/>
		<rect x="48.597" y="16.373" clip-path="url(#SVGID_18_)" fill="#FFFFFF" width="0.394" height="3.942"/>
		<rect x="44.654" y="35.296" clip-path="url(#SVGID_18_)" fill="#FFFFFF" width="0.395" height="3.942"/>
		<rect x="61.475" y="23.731" clip-path="url(#SVGID_18_)" fill="#FFFFFF" width="0.394" height="3.942"/>
		<rect x="56.744" y="50.537" clip-path="url(#SVGID_18_)" fill="#FFFFFF" width="0.395" height="3.942"/>
		<rect x="70.674" y="55.53" clip-path="url(#SVGID_18_)" fill="#FFFFFF" width="0.394" height="3.942"/>
		<rect x="48.859" y="64.469" clip-path="url(#SVGID_18_)" fill="#FFFFFF" width="0.395" height="3.94"/>
		<rect x="38.084" y="52.378" clip-path="url(#SVGID_18_)" fill="#FFFFFF" width="0.395" height="3.94"/>
	</g>
</g>
</svg>
