<?xml version="1.0" encoding="utf-8"?>
<!-- Generator: Adobe Illustrator 16.0.0, SVG Export Plug-In . SVG Version: 6.00 Build 0)  -->
<!DOCTYPE svg PUBLIC "-//W3C//DTD SVG 1.1//EN" "http://www.w3.org/Graphics/SVG/1.1/DTD/svg11.dtd">
<svg version="1.1" id="Layer_1" xmlns="http://www.w3.org/2000/svg" xmlns:xlink="http://www.w3.org/1999/xlink" x="0px" y="0px"
	 width="176.708px" height="164px" viewBox="0 0 176.708 164" enable-background="new 0 0 176.708 164" xml:space="preserve">
<g>
	<g>
		<defs>
			<rect id="SVGID_1_" x="0" width="176.707" height="164"/>
		</defs>
		<clipPath id="SVGID_2_">
			<use xlink:href="#SVGID_1_"  overflow="visible"/>
		</clipPath>
		<path clip-path="url(#SVGID_2_)" fill="#9C5222" d="M112.188,46.188c1.5-0.467,5.254-2.734,5.877-3.289s3.256-4.493,2.742-4.563
			c-0.516-0.07-1.605,1.184-1.605,1.184s1.369-2.404,0.967-2.854s-1.695,2.634-1.695,2.634s0.52-2.519,0.18-2.9
			c-0.34-0.381-1.01,0.809-0.979,2.305c0.031,1.497-2.268,2.707-2.926,2.984c-0.658,0.275-2.082-0.008-1.467-0.869
			s-0.09-2.846-0.564-2.422s-0.461,2.465-1.172,3.1s-2.498,1.855-2.461,3.565c0.021,1.071,0.289,8.403-0.773,13.175
			c1.436,0.698,3.67,0.497,5.174,0.94C112.801,52.821,111.315,46.46,112.188,46.188"/>
		<path clip-path="url(#SVGID_2_)" fill="#99C457" d="M80.816,111.738c0.821,0.857,2.313,1.402,4.001,1.342
			c1.688-0.062,3.137-0.712,3.895-1.627c-0.821-0.857-2.313-1.402-4.001-1.342C83.022,110.173,81.573,110.823,80.816,111.738"/>
		<path clip-path="url(#SVGID_2_)" fill="#99C457" d="M12.382,75.988c3.355,1.85,6.501,4.033,9.553,6.334
			c3.047,2.31,5.956,4.802,8.74,7.425c2.782,2.626,5.429,5.396,7.934,8.293c2.495,2.905,4.831,5.946,7.017,9.094
			c4.376,6.296,8.022,13.094,10.958,20.188c2.867,7.123,4.995,14.548,6.341,22.118l-1.624,0.271
			c-1.211-7.478-3.195-14.831-5.917-21.91c-2.791-7.052-6.293-13.833-10.533-20.141c-2.12-3.152-4.39-6.206-6.822-9.13
			c-2.443-2.914-5.031-5.708-7.758-8.363c-2.729-2.651-5.585-5.177-8.584-7.523c-3.002-2.338-6.111-4.566-9.413-6.453L12.382,75.988
			z"/>
		<path clip-path="url(#SVGID_2_)" fill="#99C457" d="M0,67.346c0.179,2.549,1.875,5.373,4.698,7.36
			c2.824,1.987,6.055,2.629,8.515,1.937c-0.179-2.549-1.875-5.373-4.698-7.359C5.691,67.297,2.46,66.654,0,67.346"/>
		<path clip-path="url(#SVGID_2_)" fill="#99C457" d="M19.014,65.186c-1.886,1.725-3.045,4.809-2.847,8.254
			c0.197,3.447,1.702,6.379,3.773,7.875c1.885-1.724,3.044-4.808,2.847-8.254C22.589,69.613,21.085,66.683,19.014,65.186"/>
		<path clip-path="url(#SVGID_2_)" fill="#99C457" d="M47.555,40.324c2.188,1.318,3.931,4.113,4.417,7.531
			c0.485,3.419-0.413,6.588-2.148,8.464c-2.188-1.319-3.932-4.114-4.417-7.532S45.82,42.199,47.555,40.324"/>
		<path clip-path="url(#SVGID_2_)" fill="#99C457" d="M60.448,52.104c0.267,1.979-0.581,4.408-2.425,6.377
			c-1.844,1.968-4.213,2.973-6.205,2.834c-0.268-1.979,0.581-4.408,2.425-6.376C56.087,52.971,58.457,51.966,60.448,52.104"/>
		<path clip-path="url(#SVGID_2_)" fill="#99C457" d="M51.645,61.605c-1.675,1.084-4.235,1.351-6.801,0.52
			c-2.566-0.83-4.484-2.547-5.206-4.408c1.676-1.084,4.236-1.351,6.802-0.52S50.922,59.744,51.645,61.605"/>
		<path clip-path="url(#SVGID_2_)" fill="#99C457" d="M53.953,69.474c-1.675,1.085-4.235,1.351-6.801,0.521
			c-2.565-0.831-4.483-2.547-5.206-4.408c1.676-1.084,4.236-1.352,6.802-0.52C51.313,65.896,53.231,67.613,53.953,69.474"/>
		<path clip-path="url(#SVGID_2_)" fill="#99C457" d="M56.574,78.385c-1.676,1.084-4.235,1.351-6.801,0.52
			c-2.566-0.83-4.483-2.547-5.206-4.408c1.676-1.084,4.236-1.35,6.802-0.52S55.851,76.523,56.574,78.385"/>
		<path clip-path="url(#SVGID_2_)" fill="#99C457" d="M58.332,86.477c-1.676,1.084-4.236,1.352-6.801,0.521
			c-2.566-0.831-4.484-2.547-5.207-4.408c1.676-1.084,4.236-1.351,6.802-0.52C55.691,82.899,57.609,84.616,58.332,86.477"/>
		<path clip-path="url(#SVGID_2_)" fill="#99C457" d="M58.772,86.539c1.897,0.619,4.44,0.222,6.708-1.237
			c2.268-1.46,3.683-3.609,3.905-5.593c-1.897-0.619-4.44-0.223-6.708,1.237C60.409,82.405,58.994,84.555,58.772,86.539"/>
		<path clip-path="url(#SVGID_2_)" fill="#99C457" d="M62.8,59.804c0.268,1.978-0.581,4.407-2.424,6.376
			c-1.844,1.968-4.214,2.973-6.206,2.833c-0.267-1.978,0.581-4.407,2.426-6.376C58.439,60.67,60.809,59.665,62.8,59.804"/>
		<path clip-path="url(#SVGID_2_)" fill="#99C457" d="M65.369,68.884c0.267,1.978-0.581,4.407-2.425,6.376s-4.213,2.973-6.205,2.834
			c-0.268-1.979,0.581-4.408,2.425-6.377C61.008,69.75,63.377,68.745,65.369,68.884"/>
		<path clip-path="url(#SVGID_2_)" fill="#99C457" d="M30.238,70.82c-2.277,1.16-4.215,3.824-4.942,7.199s-0.057,6.6,1.54,8.594
			c2.277-1.159,4.215-3.823,4.942-7.198C32.505,76.04,31.835,72.814,30.238,70.82"/>
		<path clip-path="url(#SVGID_2_)" fill="#99C457" d="M37.809,77.785c-2.276,1.16-4.215,3.824-4.942,7.199s-0.057,6.601,1.541,8.595
			c2.276-1.16,4.214-3.823,4.941-7.198C40.076,83.005,39.406,79.779,37.809,77.785"/>
		<path clip-path="url(#SVGID_2_)" fill="#99C457" d="M46.525,84.945c-2.498,0.538-5.053,2.617-6.619,5.694
			c-1.566,3.076-1.744,6.366-0.71,8.702c2.498-0.538,5.053-2.617,6.619-5.694C47.381,90.57,47.559,87.281,46.525,84.945"/>
		<path clip-path="url(#SVGID_2_)" fill="#99C457" d="M52.663,93.908c-2.28-0.097-4.957,1.124-7.003,3.431
			c-2.046,2.306-2.941,5.109-2.574,7.361c2.28,0.097,4.957-1.124,7.003-3.431S53.03,96.16,52.663,93.908"/>
		<path clip-path="url(#SVGID_2_)" fill="#99C457" d="M57.117,99.544c-2.28-0.098-4.957,1.124-7.003,3.43
			c-2.047,2.307-2.941,5.11-2.574,7.362c2.28,0.097,4.957-1.125,7.003-3.431C56.589,104.599,57.483,101.796,57.117,99.544"/>
		<path clip-path="url(#SVGID_2_)" fill="#99C457" d="M59.66,107.855c-1.954-0.083-4.248,0.964-6.003,2.94
			c-1.754,1.977-2.521,4.379-2.206,6.31c1.954,0.084,4.249-0.963,6.002-2.94C59.208,112.188,59.975,109.786,59.66,107.855"/>
		<path clip-path="url(#SVGID_2_)" fill="#99C457" d="M62.128,116.522c-1.422-0.804-3.536-0.898-5.608-0.1
			c-2.073,0.8-3.575,2.289-4.089,3.84c1.422,0.804,3.536,0.898,5.608,0.1C60.111,119.563,61.614,118.073,62.128,116.522"/>
		<path clip-path="url(#SVGID_2_)" fill="#99C457" d="M63.125,123.667c-0.875-0.974-2.456-1.587-4.233-1.51
			c-1.778,0.077-3.3,0.824-4.087,1.87c0.875,0.974,2.456,1.586,4.233,1.51C60.816,125.46,62.338,124.713,63.125,123.667"/>
		<path clip-path="url(#SVGID_2_)" fill="#99C457" d="M4.694,86.326c2.172,1.346,5.455,1.621,8.718,0.492
			c3.263-1.128,5.674-3.373,6.55-5.773c-2.172-1.346-5.455-1.621-8.718-0.492C7.981,81.682,5.571,83.927,4.694,86.326"/>
		<path clip-path="url(#SVGID_2_)" fill="#99C457" d="M11.586,91.998c2.172,1.345,5.455,1.621,8.717,0.492
			c3.263-1.129,5.674-3.374,6.551-5.773c-2.172-1.346-5.455-1.621-8.718-0.492C14.873,87.353,12.463,89.598,11.586,91.998"/>
		<path clip-path="url(#SVGID_2_)" fill="#99C457" d="M18.932,98.99c2.172,1.345,5.456,1.621,8.718,0.493
			c3.263-1.129,5.673-3.374,6.55-5.774c-2.172-1.345-5.456-1.621-8.718-0.492S19.809,96.591,18.932,98.99"/>
		<path clip-path="url(#SVGID_2_)" fill="#99C457" d="M27.224,103.643c1.767,1.094,4.437,1.318,7.09,0.4s4.614-2.744,5.327-4.696
			c-1.767-1.094-4.436-1.318-7.09-0.4C29.897,99.864,27.937,101.69,27.224,103.643"/>
		<path clip-path="url(#SVGID_2_)" fill="#99C457" d="M33.432,108.085c1.445,0.934,3.613,1.148,5.757,0.407
			c2.143-0.741,3.715-2.25,4.274-3.877c-1.444-0.934-3.613-1.148-5.757-0.407S33.991,106.459,33.432,108.085"/>
		<path clip-path="url(#SVGID_2_)" fill="#99C457" d="M37.142,113.798c1.444,0.934,3.613,1.148,5.757,0.407
			c2.143-0.741,3.715-2.25,4.274-3.877c-1.445-0.934-3.613-1.148-5.756-0.407C39.273,110.662,37.701,112.171,37.142,113.798"/>
		<path clip-path="url(#SVGID_2_)" fill="#99C457" d="M41.208,118.968c1.17,0.997,3.132,1.479,5.236,1.138s3.813-1.417,4.609-2.732
			c-1.17-0.997-3.132-1.478-5.237-1.137C43.713,116.577,42.004,117.653,41.208,118.968"/>
		<path clip-path="url(#SVGID_2_)" fill="#99C457" d="M45.137,125.479c1.319,0.375,3.071,0.037,4.623-1.022
			c1.551-1.059,2.503-2.568,2.635-3.933c-1.319-0.375-3.072-0.037-4.623,1.022C46.221,122.605,45.268,124.115,45.137,125.479"/>
		<path clip-path="url(#SVGID_2_)" fill="#99C457" d="M49.514,129.366c1.043,0.095,2.313-0.408,3.328-1.425
			c1.016-1.016,1.517-2.286,1.422-3.33c-1.044-0.095-2.314,0.409-3.329,1.425C49.92,127.053,49.418,128.322,49.514,129.366"/>
		<path clip-path="url(#SVGID_2_)" fill="#99C457" d="M52.416,130.385c0.686,0.105,1.495-0.17,2.115-0.791
			c0.621-0.622,0.896-1.431,0.79-2.116c-0.687-0.105-1.494,0.171-2.115,0.792C52.585,128.891,52.31,129.699,52.416,130.385"/>
		<path clip-path="url(#SVGID_2_)" fill="#99C457" d="M53.352,132.308c0.686,0.104,1.494-0.171,2.115-0.792s0.896-1.43,0.79-2.115
			c-0.686-0.105-1.495,0.17-2.115,0.791C53.521,130.813,53.246,131.621,53.352,132.308"/>
		<path clip-path="url(#SVGID_2_)" fill="#99C457" d="M61.789,146.834c1.123-7.682,1.641-15.444,1.51-23.19
			c-0.032-3.873-0.244-7.741-0.552-11.599c-0.294-3.859-0.765-7.702-1.302-11.531c-1.097-7.657-2.648-15.242-4.57-22.727
			c-0.965-3.741-2.031-7.456-3.198-11.139c-1.171-3.683-2.423-7.334-3.867-10.929l-0.455,0.187
			c1.388,3.582,2.594,7.248,3.715,10.931c1.117,3.685,2.134,7.401,3.049,11.142c1.821,7.48,3.272,15.052,4.268,22.681
			c0.486,3.815,0.907,7.64,1.151,11.477c0.257,3.835,0.42,7.677,0.404,11.518c0.034,7.682-0.576,15.355-1.779,22.923L61.789,146.834
			z"/>
		<path clip-path="url(#SVGID_2_)" fill="#99C457" d="M71.719,123.287c3.608-5.286,7.409-10.449,11.463-15.407l-0.066-0.057
			c-4.159,4.88-8.066,9.969-11.788,15.192c-3.712,5.229-7.216,10.617-10.367,16.22c-0.76,1.359-1.499,2.731-2.214,4.117
			c0.28,0.156,0.56,0.313,0.837,0.475c0.688-1.404,1.403-2.796,2.138-4.175C64.739,134.021,68.122,128.58,71.719,123.287"/>
		<path clip-path="url(#SVGID_2_)" fill="#99C457" d="M87.078,101.139c-1.33,0.122-2.711,1.009-3.582,2.457
			c-0.87,1.447-1.004,3.083-0.488,4.315c1.331-0.122,2.711-1.009,3.582-2.457C87.459,104.006,87.595,102.371,87.078,101.139"/>
		<path clip-path="url(#SVGID_2_)" fill="#99C457" d="M77.271,104.226c-0.542,1.057-0.57,2.645,0.038,4.221
			c0.609,1.575,1.697,2.732,2.809,3.149c0.543-1.057,0.571-2.645-0.038-4.221C79.472,105.8,78.383,104.643,77.271,104.226"/>
		<path clip-path="url(#SVGID_2_)" fill="#99C457" d="M76.937,115.855c0.904,0.771,2.443,1.162,4.117,0.932
			c1.673-0.23,3.049-1.024,3.71-2.011c-0.904-0.771-2.443-1.162-4.116-0.932C78.974,114.075,77.598,114.869,76.937,115.855"/>
		<path clip-path="url(#SVGID_2_)" fill="#99C457" d="M72.945,121.009c0.904,0.771,2.443,1.162,4.117,0.932
			c1.673-0.23,3.049-1.023,3.71-2.011c-0.904-0.771-2.443-1.162-4.116-0.932C74.982,119.229,73.606,120.021,72.945,121.009"/>
		<path clip-path="url(#SVGID_2_)" fill="#99C457" d="M70.234,125.112c0.903,0.771,2.442,1.163,4.116,0.933
			c1.673-0.23,3.049-1.024,3.71-2.011c-0.904-0.771-2.443-1.162-4.116-0.932S70.895,124.126,70.234,125.112"/>
		<path clip-path="url(#SVGID_2_)" fill="#99C457" d="M67.227,129.644c0.904,0.771,2.443,1.163,4.117,0.933
			c1.673-0.23,3.049-1.024,3.71-2.011c-0.904-0.771-2.443-1.163-4.116-0.933C69.264,127.863,67.889,128.657,67.227,129.644"/>
		<path clip-path="url(#SVGID_2_)" fill="#99C457" d="M73.796,108.646c-0.542,1.058-0.57,2.646,0.039,4.221
			c0.609,1.575,1.697,2.732,2.81,3.149c0.542-1.057,0.57-2.645-0.039-4.22C75.996,110.221,74.908,109.064,73.796,108.646"/>
		<path clip-path="url(#SVGID_2_)" fill="#99C457" d="M70.475,113.197c-0.542,1.058-0.57,2.645,0.039,4.221
			c0.609,1.575,1.697,2.732,2.81,3.149c0.542-1.057,0.57-2.645-0.039-4.221C72.675,114.771,71.587,113.614,70.475,113.197"/>
		<path clip-path="url(#SVGID_2_)" fill="#99C457" d="M67.314,117.785c-0.543,1.057-0.57,2.645,0.038,4.22
			c0.609,1.576,1.697,2.733,2.81,3.15c0.542-1.058,0.57-2.646-0.038-4.221C69.515,119.359,68.426,118.202,67.314,117.785"/>
		<path clip-path="url(#SVGID_2_)" fill="#99C457" d="M64.251,122.279c-0.542,1.057-0.57,2.645,0.039,4.22
			c0.609,1.576,1.697,2.732,2.809,3.149c0.543-1.056,0.57-2.644-0.038-4.22C66.452,123.854,65.364,122.696,64.251,122.279"/>
		<rect x="55.01" y="138.662" clip-path="url(#SVGID_2_)" fill="#2D2B2C" width="17.133" height="15.98"/>
		<rect x="51.054" y="135.512" clip-path="url(#SVGID_2_)" fill="#757779" width="25.046" height="1.307"/>
		<rect x="52.59" y="136.818" clip-path="url(#SVGID_2_)" fill="#888A8D" width="21.973" height="2.843"/>
		<path clip-path="url(#SVGID_2_)" fill="#B4B6B8" d="M176.708,158.798c0,2.873-32.379,5.202-72.318,5.202
			c-39.941,0-72.319-2.329-72.319-5.202c0-2.872,32.378-5.201,72.319-5.201C144.329,153.597,176.708,155.926,176.708,158.798"/>
		<path clip-path="url(#SVGID_2_)" fill="#888A8D" d="M135.948,78.006c-0.643,0-1.164-0.502-1.164-1.123V64.164l25.438-38.369
			l-40.162-15.664c-0.596-0.232-0.883-0.887-0.643-1.463c0.242-0.574,0.92-0.851,1.516-0.619l42.762,16.678L137.112,64.82v12.063
			C137.112,77.504,136.59,78.006,135.948,78.006"/>
		<path clip-path="url(#SVGID_2_)" fill="#757779" d="M135.346,14.162c0,1.364-1.148,2.471-2.563,2.471
			c-1.416,0-2.563-1.106-2.563-2.471c0-1.365,1.146-2.471,2.563-2.471C134.198,11.691,135.346,12.797,135.346,14.162"/>
		<path clip-path="url(#SVGID_2_)" fill="#888A8D" d="M132.784,15.76c-0.914,0-1.658-0.717-1.658-1.598c0-0.882,0.744-1.6,1.658-1.6
			s1.658,0.718,1.658,1.6C134.442,15.043,133.698,15.76,132.784,15.76"/>
		<path clip-path="url(#SVGID_2_)" fill="#757779" d="M164.684,24.662c0,1.865-1.568,3.379-3.504,3.379
			c-1.934,0-3.502-1.514-3.502-3.379c0-1.866,1.568-3.379,3.502-3.379C163.116,21.283,164.684,22.796,164.684,24.662"/>
		<path clip-path="url(#SVGID_2_)" fill="#888A8D" d="M161.182,26.974c-1.322,0-2.398-1.037-2.398-2.312
			c0-1.275,1.076-2.312,2.398-2.312c1.32,0,2.396,1.036,2.396,2.312C163.579,25.937,162.502,26.974,161.182,26.974"/>
		<path clip-path="url(#SVGID_2_)" fill="#757779" d="M139.325,63.594c0,1.799-1.512,3.256-3.377,3.256s-3.377-1.457-3.377-3.256
			s1.512-3.256,3.377-3.256S139.325,61.795,139.325,63.594"/>
		<path clip-path="url(#SVGID_2_)" fill="#888A8D" d="M135.948,65.912c-1.326,0-2.404-1.04-2.404-2.318
			c0-1.279,1.078-2.318,2.404-2.318s2.404,1.039,2.404,2.318C138.352,64.872,137.274,65.912,135.948,65.912"/>
		<path clip-path="url(#SVGID_2_)" fill="#2D2B2C" d="M142.481,80.836h-13.482V78.29c0-1.844,1.496-3.339,3.34-3.339h6.805
			c1.844,0,3.338,1.495,3.338,3.339V80.836z"/>
		<path clip-path="url(#SVGID_2_)" fill="#888A8D" d="M119.084,19.279l-10.512-1.874l2.816-13.062
			c0.619-2.869,3.473-4.776,6.377-4.259c2.902,0.517,4.754,3.263,4.135,6.132L119.084,19.279z"/>
		<path clip-path="url(#SVGID_2_)" fill="#757779" d="M115.077,5.012c0.48-2.234,2.316-3.883,4.477-4.262
			c-0.533-0.318-1.133-0.549-1.787-0.665c-2.904-0.518-5.758,1.39-6.377,4.259l-2.818,13.062l3.689,0.657L115.077,5.012z"/>
		<polygon clip-path="url(#SVGID_2_)" fill="#757779" points="118.116,78.114 118.116,80.307 137.399,80.307 137.399,154.643 
			139.915,154.643 139.915,78.114 		"/>
		<path clip-path="url(#SVGID_2_)" fill="#757779" d="M143.036,154.848h-37.986c0-1.382,1.121-2.503,2.504-2.503h35.482V154.848z"/>
		<polygon clip-path="url(#SVGID_2_)" fill="#888A8D" points="111.805,81.217 112.188,83.85 150.223,83.85 150.223,158.811 
			153.684,158.811 153.684,81.639 		"/>
		<polygon clip-path="url(#SVGID_2_)" fill="#757779" points="111.805,81.217 112.018,82.685 152.735,83.095 152.735,158.811 
			153.684,158.811 153.684,81.639 		"/>
		<polygon clip-path="url(#SVGID_2_)" fill="#888A8D" points="138.688,77.773 102.764,78.114 112.188,81.348 153.684,81.639 		"/>
		<polygon clip-path="url(#SVGID_2_)" fill="#757779" points="112.188,83.85 112.188,81.348 102.764,78.114 102.764,79.705 		"/>
		<path clip-path="url(#SVGID_2_)" fill="#FCC400" d="M127.083,64.408c-1.898-0.886,1.934-5.797,1.934-5.797s2.918-6.422,0-3.504
			c-0.826,0.825-1.752,1.184-2.656,1.273l-3.766,7.898c1.889,2.027,3.945,1.83,4.689,1.215l0.289-0.503
			C127.573,64.777,127.422,64.567,127.083,64.408"/>
		<path clip-path="url(#SVGID_2_)" fill="#757779" d="M123.292,80.18l8.971,0.217l10.773-18.783l-6.508-9.521l-2.895,7.896
			c3.119,0.807,4.564,4.404,2.873,7.146l-7.49,12.132C129.016,79.266,123.194,78.734,123.292,80.18"/>
		<polygon clip-path="url(#SVGID_2_)" fill="#2D2B2C" points="112.188,76.44 105.118,78.922 112.188,81.348 120.276,78.137 		"/>
		<polygon clip-path="url(#SVGID_2_)" fill="#2D2B2C" points="120.276,80.905 120.276,78.138 111.805,81.217 		"/>
		<polygon clip-path="url(#SVGID_2_)" fill="#757779" points="150.823,28.324 123.292,74.926 117.028,73.155 139.27,29.303 		"/>
		<polygon clip-path="url(#SVGID_2_)" fill="#2D2B2C" points="139.915,30.22 147.989,29.303 123.292,72.475 118.977,71.865 		"/>
		<path clip-path="url(#SVGID_2_)" fill="#E42525" d="M141.778,40.159c-1.979-0.322-3.113-1.129-1.863-3.026
			c2.477-3.76,4.279-4.775,2.645-7.214l-2.645,0.301l-6.754,13.434c0.021,4.24,1.137,1.417,2.02,4.669
			c0.213,0.788,0.102,2.127-0.191,3.705L141.778,40.159z"/>
		<polygon clip-path="url(#SVGID_2_)" fill="#888A8D" points="152.452,31.962 150.823,28.324 123.292,74.926 126.459,75.859 		"/>
		<path clip-path="url(#SVGID_2_)" fill="#FD5E5A" d="M136.133,73.078l0.707,0.26l1.439-3.918c-0.25-0.106-0.457-0.256-0.646-0.424
			L136.133,73.078z"/>
		<rect x="134.911" y="64.439" clip-path="url(#SVGID_2_)" fill="#8DFDB0" width="1.693" height="8.444"/>
		<rect x="134.911" y="64.438" clip-path="url(#SVGID_2_)" fill="#13447A" width="1.693" height="4.401"/>
		<polygon clip-path="url(#SVGID_2_)" fill="#BE1E2D" points="135.319,72.93 134.209,73.133 132.534,63.993 132.534,61.611 
			133.641,63.789 		"/>
		<rect x="133.483" y="71.808" clip-path="url(#SVGID_2_)" fill="#F7931E" width="5.066" height="9.175"/>
		<rect x="135.647" y="66.148" clip-path="url(#SVGID_2_)" fill="#13447A" width="0.441" height="4.759"/>
		<path clip-path="url(#SVGID_2_)" fill="#5B1432" d="M138.903,65.546l-0.086,0.231c-1.49-0.628-0.729,1.996-0.98,2.139
			c-0.137,0.146-0.166,0.061-0.133,0.107c-0.152-0.169-0.406,0.061-0.254,0.229c0.102,0.105,0.252,0.151,0.428,0.082l-0.244,0.662
			c0.189,0.168,0.396,0.318,0.646,0.424l1.33-3.614L138.903,65.546z M138.612,65.842c0.064-0.007,0.123-0.004,0.18,0.008
			l-0.512,1.392C138.237,66.595,138.104,65.895,138.612,65.842"/>
		<path clip-path="url(#SVGID_2_)" fill="#66696A" d="M81.401,105.576c0,0-6.249,5.066-6.73,6.956
			c-0.48,1.889,0.041,6.557,0.955,7.471c0.915,0.914,19.33,1.351,23.273,0c3.941-1.352,4.998-5.485,4.422-8.754
			C102.743,107.98,84.67,103.847,81.401,105.576"/>
		<polygon clip-path="url(#SVGID_2_)" fill="#66696A" points="66.115,101.347 67.381,116.151 67.509,118.171 77.171,118.171 
			80.055,116.536 80.055,113.845 76.69,115.959 69.769,115.383 68.519,101.347 		"/>
		<path clip-path="url(#SVGID_2_)" fill="#888A8D" d="M66.332,116.031c0,0,3.461-3.93,3.641-3.461c0.181,0.469,0,1.226,0,1.226
			s0.037-0.035,0.613-0.035s0,1.55,0,1.55s0.649-0.721,1.226-0.721c0.577,0,0.457,1.001,0.457,1.001s-3.305,4.587-3.81,4.406
			c-0.504-0.181-0.18-1.081-0.18-1.081s-1.911,1.009-1.911,0c0-1.01,0.252-1.19,0.252-1.19S65.515,117.966,66.332,116.031"/>
		<rect x="85.006" y="118.651" clip-path="url(#SVGID_2_)" fill="#757779" width="3.926" height="39.224"/>
		<rect x="80.125" y="154.968" clip-path="url(#SVGID_2_)" fill="#757779" width="11.729" height="1.249"/>
		<rect x="70.184" y="156.135" clip-path="url(#SVGID_2_)" fill="#888A8D" width="32.94" height="2.663"/>
		<path clip-path="url(#SVGID_2_)" fill="#201D1D" d="M128.555,106.874c0-1.586-31.58-18.891-31.58-18.891l-9.341,10.96
			l31.693,10.815c0,0-12.656,8.026-16.744,21.632c1.422,1.297,4.547,3.57,5.99,4.868
			C116.133,125.622,128.555,107.979,128.555,106.874"/>
		<path clip-path="url(#SVGID_2_)" fill="#CB2322" d="M105.483,155.183l-2.596-10.959c0,0,0.609-0.847,1.635-2.283
			c-1.916-0.748-3.807-1.637-5.775-2.128c-0.801,0.994-1.375,1.6-1.627,1.672c-1.918,0.54-1.73,2.019-1.73,2.019l4.615,6.922
			l3.652,6.894c0,0,3.291,0.388,4.229-0.549C108.823,155.832,105.483,155.183,105.483,155.183"/>
		<path clip-path="url(#SVGID_2_)" fill="#753E1A" d="M108.573,136.259c-1.443-1.298-3.047-2.479-4.469-3.776
			c-2.143,3.071-4.053,5.715-5.357,7.33c1.969,0.491,3.859,1.38,5.775,2.128C105.528,140.533,106.936,138.562,108.573,136.259"/>
		<path clip-path="url(#SVGID_2_)" fill="#E42525" d="M104.829,144.719c-1.975-0.771-3.82-1.7-5.303-3.334
			c-1.441,2.05-2.744,3.385-3.416,3.704c-3.027,1.442-0.793,3.245,1.441,5.479c2.236,2.235,1.982,8.471,1.982,8.471
			s7.104,1.047,7.104-0.395c0-1.442-1.734-1.01-2.672-1.946c-0.938-0.938-0.498-5.906-0.498-9.655
			C103.467,146.543,103.973,145.775,104.829,144.719"/>
		<path clip-path="url(#SVGID_2_)" fill="#9C5222" d="M104.829,144.719c1.498-1.852,4.082-4.598,6.977-8.404
			c-2.021-2.655-4.146-5.18-6.668-7.297c-1.186,5.012-3.541,9.427-5.611,12.367C101.008,143.019,102.854,143.947,104.829,144.719"/>
		<path clip-path="url(#SVGID_2_)" fill="#753E1A" d="M110.665,137.781c0.375-0.471,0.754-0.959,1.141-1.467
			c-2.021-2.655-4.146-5.18-6.668-7.297c-0.213,0.9-0.465,1.781-0.744,2.638C106.141,133.098,109.356,135.457,110.665,137.781"/>
		<path clip-path="url(#SVGID_2_)" fill="#2D2B2C" d="M111.805,136.314c7.852-10.323,18.385-23.499,17.473-25.69
			c-1.443-3.461-36.34-21.487-36.34-21.487l-7.932,17.449l29.85,9.085c-2.855,0.996-8.084,6.922-11.389,13.261
			C105.989,131.048,109.784,133.659,111.805,136.314"/>
		<path clip-path="url(#SVGID_2_)" fill="#888A8D" d="M66.788,72.217c0,0-4.038,1.73-4.038,10.672c0,8.94,0.962,17.688,1.538,19.227
			c0.577,1.539,7.979,0.982,7.979,0.982l-2.403-20.017l1.73-11.97L66.788,72.217z"/>
		<path clip-path="url(#SVGID_2_)" fill="#888A8D" d="M75.626,120.003c0.914,0.914,19.33,1.351,23.273,0
			c3.941-1.352,4.998-5.485,4.422-8.754c-3.846,6.825-28.649,1.283-28.649,1.283C74.191,114.421,74.712,119.089,75.626,120.003"/>
		<path clip-path="url(#SVGID_2_)" fill="#CB2322" d="M107.477,53.951c-1.135,2.623-2.514,9.84-3.094,9.84
			c-2.047,0-13.869-13.328-20.135-8.962c0,0-1.404-1.106,9.62,10.826c4.213,4.56,10.32,9.22,13.609,7.833
			c4.363-1.841,5.33-10.575,6.564-17.254C112.12,55.973,109.399,54.268,107.477,53.951"/>
		<path clip-path="url(#SVGID_2_)" fill="#E42525" d="M90.774,52.328c0,0-3.564-1.729-6.674-0.207
			c-1.125,0.55-2.218,1.405-3.023,3.092c-3.028,6.346-7.03,33.491-4.867,44.884s6.915,7.066,9.73,8.652
			c2.816,1.587,8.873-16.295,13.486-17.737c4.615-1.441,0.434-4.037-1.152-7.354c-1.588-3.316-3.029-2.498-2.164-5.792
			C96.975,74.572,95.877,57.754,90.774,52.328"/>
		<path clip-path="url(#SVGID_2_)" fill="#66696A" d="M71.595,71.111c0,0-2.019-0.216-3.028,4.831
			c-1.01,5.048-2.776,22.243,1.874,26.895c0,0,2.137,1.003,3.63-0.926c0.833-1.075,1.01-2.518,0.576-3.806
			c-0.769-2.283-2.162-7.059-1.898-11.002C73.109,81.711,75.056,70.606,71.595,71.111"/>
		<path clip-path="url(#SVGID_2_)" fill="#201D1D" d="M81.896,37.215c-0.392-5.579-5.576-4.367-5.768-2.35
			c-0.098,1.494,1.716,2.188,2.534,1.002c0.379-0.529,0.117-1.283-0.371-1.414c-0.603-0.166-0.329,0.549-0.722,0.512
			c-0.126-0.012-0.219-0.123-0.207-0.248c0.093-1.006,1.576-0.967,1.843,0.225c0.397,1.594-2.127,2.764-3.128,0.983
			c-1.448-2.509,3.848-4.824,5.472-0.755c0.24,0.615,0.524,2.068,0.381,2.076C81.913,37.246,81.897,37.232,81.896,37.215"/>
		<path clip-path="url(#SVGID_2_)" fill="#201D1D" d="M82.874,36.035c0,0-4.474,0.815-4.474,3.988c0,3.174,0.687,1.74,1.406,4.007
			c0.719,2.267,0.051,4.203,3.068,4.203c3.017,0,2.494,0.196,3.998,1.112c1.504,0.915,4.473-0.621,4.795-3.893
			c0.32-3.27-5.197-3.043-5.197-5.43C86.47,37.638,82.874,36.035,82.874,36.035"/>
		<path clip-path="url(#SVGID_2_)" fill="#9C5222" d="M91.667,43.586c0,0-1.529,2.238-1.34,4.804
			c0.102,1.388,0.365,3.131,0.781,4.146c0.436,1.064,1.613,1.96,0.559,2.389c-0.646,0.262-7.567-2.803-7.567-2.803
			c0.12-0.736,3.219-11.906,3.219-11.906L91.667,43.586z"/>
		<path clip-path="url(#SVGID_2_)" fill="#753E1A" d="M91.667,43.586l-4.449-3.635c0,0-0.229,1.693-0.771,3.422
			c1.021,1.543,2.279,2.892,3.96,3.471C90.713,44.988,91.667,43.586,91.667,43.586"/>
		<path clip-path="url(#SVGID_2_)" fill="#9C5222" d="M94.727,28.88c0,0,1.404,0.95,1.84,2.834s-0.67,4.116-0.553,5.721
			c0.115,1.604-2.285,9.479-6.09,7.956c-3.803-1.523-4.688-7.486-4.783-8.79c-0.094-1.304,2.131-5.835,4.24-7.057
			C91.491,28.322,94.727,28.88,94.727,28.88"/>
		<path clip-path="url(#SVGID_2_)" fill="#201D1D" d="M91.141,26.256c-2.793-0.243-5.834-0.369-7.891,1.385
			c-0.925,0.788-1.807,1.693-1.929,2.861c-0.227,2.178,0.775,4.459,0.033,6.575c-0.786,2.242,0.265,4.708,2.451,5.638
			c1.256,0.533,2.282,0.709,2.964-0.421c-0.099-1.16-2.956-4.651-0.08-7.376c0.184,0.134-0.175,0.832,0.255,0.844
			c1.042,0.029,1.72-2.234,1.841-3.178c0.525-2.311,3.453-3.963,5.723-3.639c0.262,0.049,0.42,0.111,0.477,0.105
			C95.004,28.967,94.284,26.452,91.141,26.256"/>
		<path clip-path="url(#SVGID_2_)" fill="#201D1D" d="M93.807,27.51c0,0,2.068-0.15,3.701,1.27c1.635,1.422,1.396,6.533,0.395,7.516
			c-1.002,0.984,3.066,2.705,0.797,2.711C95.481,39.016,91.799,27.879,93.807,27.51"/>
		<path clip-path="url(#SVGID_2_)" fill="#201D1D" d="M94.375,28.271c3.039,0.145,4.74,2.77,3.729,5.266
			c-0.174,0.422-0.438,0.84-0.867,0.963l-0.125-0.631c0.166-0.006,0.408-0.411,0.484-0.563
			C98.674,31.152,97.249,28.631,94.375,28.271"/>
		<path clip-path="url(#SVGID_2_)" fill="#201D1D" d="M86.958,35.314c0,0-0.179-1.617-1.465-1.165c-1.288,0.452-0.749,4.386,0.387,4
			C87.016,37.765,86.958,35.314,86.958,35.314"/>
		<path clip-path="url(#SVGID_2_)" fill="#301A23" d="M80.082,38.756c-0.251,0.273-0.467,0.584-0.612,0.926
			c-0.739,1.701,1.36,1.932,1.777,2.181c0.998,0.608-0.222,3.052,0.525,4.292c0.358,0.598,1.09,0.994,1.757,0.849
			c0.668-0.131,1.164-0.843,0.995-1.485c-0.122-0.644-0.882-1.106-1.466-0.905c-0.863,0.275-0.267,1.172-0.073,1.008l0.007-0.005
			c0.096-0.082,0.241-0.07,0.322,0.026c0.206,0.244-0.183,0.515-0.462,0.448c-0.77-0.166-1.058-1.498,0.083-1.858
			c1.35-0.384,2.524,1.229,1.664,2.403c-0.762,1.068-2.353,0.807-3.023-0.365c-0.756-1.293,0.495-3.751-0.392-4.313
			c-0.369-0.238-2.543-0.555-1.741-2.287C79.598,39.328,79.823,39.023,80.082,38.756"/>
		<path clip-path="url(#SVGID_2_)" fill="#CB2322" d="M98.274,83.657c-1.588-3.316-3.029-2.498-2.164-5.791
			c0.314-1.2,0.371-4.192,0.066-7.776c-3.98-8.208-9.338-17.875-13.904-11.311c0,0-4.949,19.773,11.818,27.992
			c4.615,2.262,7.416,2.585,7.416,2.585s0.006-0.002,0.016-0.008C101.694,87.889,99.368,85.944,98.274,83.657"/>
		<path clip-path="url(#SVGID_2_)" fill="#753E1A" d="M117.692,62.554l0.279-0.425c0,0,2.875-1.193,3.561-0.51
			c0.684,0.684-1.92,1.316-1.92,1.316L117.692,62.554z"/>
		<path clip-path="url(#SVGID_2_)" d="M117.354,57.215l6.465,13.131c0.061,0.123,0.211,0.174,0.334,0.113
			c0.119-0.059,0.172-0.199,0.121-0.32L118.59,56.65c-0.146-0.346-0.545-0.508-0.891-0.363c-0.346,0.146-0.508,0.545-0.363,0.892
			C117.342,57.189,117.348,57.203,117.354,57.215"/>
		<path clip-path="url(#SVGID_2_)" fill="#9C5222" d="M111.94,68.797c0,0,2.676-2.676,3.102-3.949
			c0.424-1.275,2.25-2.422,2.93-2.719s5.48,1.02,5.141,2.251c-0.34,1.232-0.383,1.104-0.17,2.124s0,0.553,0,1.613
			c0,1.063-0.85,0.766-1.486,0.766c-0.639,0-3.908,0.254-5.352,1.188c-1.445,0.935-2.379,2.511-2.379,2.511L111.94,68.797z"/>
		<path clip-path="url(#SVGID_2_)" fill="#E42525" d="M112.985,67.646c-2.141,2.251-9.271,7.282-10.439,7.282
			c-2.279,0-11.17-25.7-18.291-20.855c-1.017,0.691-1.653,1.814-1.815,3.032c-0.586,4.415-1.188,18.272,12.793,25.126
			c4.615,2.262,7.414,2.586,7.414,2.586s9.332-5.177,13.598-11.451C115.327,71.904,114.28,68.818,112.985,67.646"/>
		<path clip-path="url(#SVGID_2_)" fill="#888A8D" d="M156.469,159.039H106.67l0,0c0-1.813,1.469-3.281,3.281-3.281h46.518V159.039z
			"/>
	</g>
</g>
</svg>
