<?xml version="1.0" encoding="utf-8"?>
<!-- Generator: Adobe Illustrator 16.0.0, SVG Export Plug-In . SVG Version: 6.00 Build 0)  -->
<!DOCTYPE svg PUBLIC "-//W3C//DTD SVG 1.1//EN" "http://www.w3.org/Graphics/SVG/1.1/DTD/svg11.dtd">
<svg version="1.1" id="Layer_1" xmlns="http://www.w3.org/2000/svg" xmlns:xlink="http://www.w3.org/1999/xlink" x="0px" y="0px"
	 width="235.772px" height="164px" viewBox="0 0 235.772 164" enable-background="new 0 0 235.772 164" xml:space="preserve">
<g>
	<g>
		<defs>
			<rect id="SVGID_1_" width="235.772" height="164"/>
		</defs>
		<clipPath id="SVGID_2_">
			<use xlink:href="#SVGID_1_"  overflow="visible"/>
		</clipPath>
		<g clip-path="url(#SVGID_2_)">
			<defs>
				<rect id="SVGID_3_" width="235.772" height="164"/>
			</defs>
			<clipPath id="SVGID_4_">
				<use xlink:href="#SVGID_3_"  overflow="visible"/>
			</clipPath>
			<path clip-path="url(#SVGID_4_)" fill="#E3E4E5" d="M90.839,73.852H45.173c-3.608,0-6.533-2.925-6.533-6.533V21.652
				c0-3.607,2.925-6.533,6.533-6.533h45.666c3.608,0,6.533,2.926,6.533,6.533v45.666C97.372,70.927,94.448,73.852,90.839,73.852"/>
			<rect x="54.411" y="60.48" clip-path="url(#SVGID_4_)" fill="#888A8D" width="27.191" height="1.343"/>
			<rect x="58.262" y="64.713" clip-path="url(#SVGID_4_)" fill="#888A8D" width="19.489" height="1.344"/>
			<path clip-path="url(#SVGID_4_)" fill="#E3E4E5" d="M228.077,120.257h-64.989c-4.251,0-7.696-3.445-7.696-7.695V33.604
				c0-4.25,3.445-7.695,7.696-7.695h64.989c4.25,0,7.695,3.445,7.695,7.695v78.958C235.772,116.812,232.327,120.257,228.077,120.257
				"/>
			<rect x="189.59" y="81.568" clip-path="url(#SVGID_4_)" fill="#2D2B2C" width="6.376" height="1.181"/>
			<rect x="165.387" y="92.387" clip-path="url(#SVGID_4_)" fill="#888A8D" width="37.097" height="2.286"/>
			<rect x="165.387" y="103.362" clip-path="url(#SVGID_4_)" fill="#888A8D" width="29.998" height="2.286"/>
			<rect x="165.387" y="97.875" clip-path="url(#SVGID_4_)" fill="#888A8D" width="17.587" height="2.285"/>
			<path clip-path="url(#SVGID_4_)" fill="#2D2B2C" d="M212.189,35.316v1.154h6.798v6.381h1.155v-7.535H212.189z M166.026,42.852
				h1.154v-6.381h6.798v-1.154h-7.952V42.852z M218.987,75.771v6.383h-6.798v1.154h7.953v-7.537H218.987z M167.18,75.771h-1.154
				v7.537h7.952v-1.154h-6.798V75.771z"/>
			<path clip-path="url(#SVGID_4_)" fill="#E42525" d="M216.542,105.816c-3.748,0-6.798-3.05-6.798-6.798
				c0-3.75,3.05-6.799,6.798-6.799c3.749,0,6.799,3.049,6.799,6.799C223.341,102.767,220.292,105.816,216.542,105.816
				 M216.542,93.535c-3.023,0-5.482,2.459-5.482,5.483c0,3.022,2.459,5.481,5.482,5.481s5.482-2.459,5.482-5.481
				C222.025,95.994,219.566,93.535,216.542,93.535"/>
			<polygon clip-path="url(#SVGID_4_)" fill="#E42525" points="216.109,101.693 213.02,98.605 213.951,97.675 216.109,99.833 
				219.134,96.807 220.065,97.737 			"/>
			<path clip-path="url(#SVGID_4_)" fill="#B4B6B8" d="M220.631,158.837c0,2.853-49.391,5.164-110.315,5.164
				C49.39,164.001,0,161.689,0,158.837c0-2.852,49.39-5.163,110.315-5.163C171.241,153.674,220.631,155.985,220.631,158.837"/>
			<rect x="50.458" y="17.315" clip-path="url(#SVGID_4_)" fill="#E3E4E5" width="39.587" height="33.966"/>
			<path clip-path="url(#SVGID_4_)" fill="#E42525" d="M83.127,37.992c-1.303-3.448-4.436-5.032-5.915-5.525
				c-0.526-0.175-1.467-0.482-2.458-0.803c-1.786-0.576-3.737-1.205-3.737-1.205h-6.161c0,0-2.133,0.716-4.401,1.51
				c0,0.002-0.002,0.002-0.002,0.002c-2.088,0.733-4.288,1.531-5.03,1.904c-1.549,0.773-4.154,6.302-4.681,6.936
				c-0.272,0.326-1.48,2.479-2.67,4.885h6.638c0.701-1.205,1.241-2.139,1.241-2.139s0.42,0.92,0.929,2.139h21.265
				c0.336-1.414,0.546-3.196,0.546-3.196s1.139,1.548,2.382,3.196h6.128C85.711,43.194,83.862,39.939,83.127,37.992"/>
			<path clip-path="url(#SVGID_4_)" fill="#EEA886" d="M68.672,13.529c0,0,4.817,0.758,4.084,8.296
				c-0.734,7.538-4.985,6.92-5.27,6.912c-0.284-0.007-4.269,0.138-4.58-9.065C62.907,19.672,62.771,12.867,68.672,13.529"/>
			<path clip-path="url(#SVGID_4_)" fill="#EEA886" d="M72.83,19.696c0,0,0.528-0.563,0.721,0.007
				c0.194,0.57-0.72,3.115-0.752,3.234c0,0-0.096,0.221-0.223,0.099S72.83,19.696,72.83,19.696"/>
			<path clip-path="url(#SVGID_4_)" fill="#EEA886" d="M63.037,19.601c0,0-0.516-0.573-0.721-0.007
				c-0.205,0.566,0.651,3.127,0.69,3.248c0,0,0.092,0.223,0.221,0.104S63.037,19.601,63.037,19.601"/>
			<path clip-path="url(#SVGID_4_)" fill="#201D1D" d="M72.828,20.852l-0.689,0.923c0,0,0.019-2.022-0.091-2.339
				c-0.111-0.316-0.28-1.285-0.373-1.514c-0.092-0.229-4.137-1.361-7.709,0.331c0,0,0.157,1.454-0.185,1.583
				c-0.342,0.13-0.175,2.367-0.175,2.367l-0.567-0.639c0,0-0.868-5.8-0.654-6.404c0.214-0.604,0.898-4.238,8.227-2.081
				c0,0,2.285-0.483,2.744,1.094C73.813,15.75,72.828,20.852,72.828,20.852"/>
			<path clip-path="url(#SVGID_4_)" fill="#EEA886" d="M71.616,30.324c-0.002-0.008-0.618-0.305-0.618-0.305
				c-0.3-0.67-0.077-3.502-0.077-3.502s-6.136-1.562-5.961-0.368c0.175,1.194-0.528,3.969-0.528,3.969l-3.148,1.563
				c0,0,3.354,9.005,7.208,7.844c3.855-1.162,5.31-8.168,5.31-8.168L71.616,30.324z"/>
			<path clip-path="url(#SVGID_4_)" fill="#A77860" d="M65.048,27.477c0,0,0.989,1.275,2.705,1.275c1.129,0,1.939-0.316,3.063-1.412
				c0,0-0.487,2.082-3.056,2.275C67.76,29.615,65.897,29.852,65.048,27.477"/>
			<path clip-path="url(#SVGID_4_)" fill="#201D1D" d="M93.446,48.133c0,0,3.54,1.73,2.665,6.441
				c-0.875,4.712-1.263,5.346-0.283,7.188c0.979,1.84,2.134,9.693,1.253,11.181c-0.881,1.488-10.907-6.54-12.297-13.276
				c-1.39-6.736,0.881-9.732,1.684-10.848C87.27,47.701,90.32,46.547,93.446,48.133"/>
			<path clip-path="url(#SVGID_4_)" fill="#E42525" d="M92.11,157.461h0.802v-3.784c0,0,1.574,1.049,2.562,2.5
				c0.987,1.45,2.345,1.326,4.413,1.234c2.067-0.093,1.975-0.926,1.79-2.099c-0.185-1.173-2.284-1.543-2.963-1.729
				c-0.679-0.185-2.22-2.84-2.715-3.486c-0.676-0.882-1.034-1.729-1.034-1.729s-0.386-1.573-2.299,0
				c-1.913,1.574-1.357,4.599-1.142,4.876S92.11,157.461,92.11,157.461"/>
			<path clip-path="url(#SVGID_4_)" fill="#9C5222" d="M96.152,153.584c0.709,0.463,2.562,0,2.562,0
				c-0.525-0.679-3.75-5.215-3.75-5.215c-1.959-1.142-2.734,0.43-2.734,0.43C93.03,149.043,95.442,153.121,96.152,153.584"/>
			<path clip-path="url(#SVGID_4_)" fill="#9C5222" d="M116.785,83.778c0,0,1.285,0.246,1.723-0.357
				c0.373-0.514,1.227-0.907,1.489-1.029c0.351-0.163,1.242-1.064,1.452-0.623c0.209,0.44-1.398,1.556-1.688,1.857
				c-0.29,0.301,1.576,0.435,1.898,0.728s-0.074,3.372-1.345,3.132c-1.271-0.239-2.469-1.334-2.701-1.332
				c-0.231,0.002-0.931-0.138-0.931-0.138L116.785,83.778z"/>
			<path clip-path="url(#SVGID_4_)" fill="#9C5222" d="M121.376,84.228c0,0,3.84,0.992,4.041,1.272s0.135,0.485-0.229,0.407
				c-0.363-0.077-3.738-0.851-3.738-0.851s4.348,1.938,4.563,2.132c0.126,0.113,0.021,0.518-0.177,0.494
				c-0.198-0.023-4.617-1.698-4.617-1.698s4.056,1.816,4.187,2.032c0.115,0.189-0.073,0.536-0.384,0.422
				c-0.31-0.114-4.171-1.588-4.171-1.588s2.87,1.508,2.873,1.756c0.002,0.151-0.071,0.506-0.8,0.093
				c-0.729-0.412-2.548-1.204-2.548-1.204L121.376,84.228z"/>
			<path clip-path="url(#SVGID_4_)" fill="#E42525" d="M81.714,157.719h0.494v-2.777c0,0,0.878,0.904,1.279,2.23
				c0.401,1.328,1.837,1.721,4.028,1.659s2.222-0.927,2.037-2.223s-2.037-1.975-2.037-1.975c-0.833-0.741-2.901-3.812-2.901-3.812
				s-1.327-0.354-2.368,0.486c-1.041,0.841-0.717,2.738-0.687,3.232C81.59,155.034,81.714,157.719,81.714,157.719"/>
			<path clip-path="url(#SVGID_4_)" fill="#2D2B2C" d="M83.226,91.56c0,0-2.61,3.395-3.319,7.421
				c-0.708,4.027,0.418,17.543,0.388,19.533c-0.031,1.99-1.882,6.943-1.512,10.693c0.371,3.749,1.832,22.409,1.832,22.409l4-0.794
				c0,0-0.231-19.024,0-20.598c0.232-1.574,0.696-7.311,0.789-7.958c0.093-0.648,5.877-17.665,5.877-20.567
				C91.28,98.795,89.521,86.822,83.226,91.56"/>
			<path clip-path="url(#SVGID_4_)" fill="#2D2B2C" d="M96.34,92.886c0,0,4.29,16.37,4.799,18.639
				c0.509,2.268,1.247,4.139,1.247,5.102c0,2.234-0.831,5.822-0.831,5.822l-5.447,26.051h-5.188c0,0,2.89-15.629,2.968-18.685
				c0.078-3.063,2.435-7.413,1.973-8.708c-0.463-1.297-7.453-16.247-7.453-16.247S83.118,88.134,96.34,92.886"/>
			<path clip-path="url(#SVGID_4_)" fill="#9C5222" d="M87.515,154.633l-2.901-3.811l-2.368,0.486c0,0,0.637,1.705,1.788,2.988
				C85.398,155.817,87.515,154.633,87.515,154.633"/>
			<path clip-path="url(#SVGID_4_)" fill="#E42525" d="M94.569,65.066c0,0,1.769,0.167,3.105,1.599
				c1.336,1.433,2.59,3.715,2.94,4.479c0.351,0.764,5.256,7.84,5.51,7.999c0.255,0.158,2.721,0.982,4.354,1.533
				c2.521,0.848,7.576,2.685,7.576,2.685l-1.004,3.179c0,0-9.504-3.11-11.884-3.697c-2.91-0.716-9.611-9.313-9.611-9.313
				S90.56,67.676,94.569,65.066"/>
			<path clip-path="url(#SVGID_4_)" fill="#2D2B2C" d="M91.483,63.826c0,0,2.291,1.082,3.086,1.24
				c0.796,0.159,3.881,4.168,4.422,5.631c0.541,1.465,0,3.659-1.113,6.236s-0.064,3.437-0.573,6.013
				c-0.509,2.577-0.345,12.218-0.25,13.65c0.095,1.431-14.892,3.602-17.851,0.993c0,0,2.003-8.689,4.375-11.169
				c0.513-0.536,0.458-4.11,0.108-5.001c-0.35-0.891-4.295-7.541-4.295-7.541s-0.29-6.744,1.432-8.08
				c1.496-1.162,5.571-1.576,6.303-1.83C87.859,63.715,89.988,63.604,91.483,63.826"/>
			<path clip-path="url(#SVGID_4_)" fill="#9C5222" d="M92.577,61.183c0,0-0.068,0.631-0.147,1.483
				c-0.03,0.337-0.063,0.709-0.094,1.09c-0.091,1.143-0.165,2.369-0.12,2.998c0,0-2.381,2.385-5.088-2.784
				c0,0,1.139-2.132,0.281-5.034C86.552,56.031,92.577,61.183,92.577,61.183"/>
			<path clip-path="url(#SVGID_4_)" fill="#CB2322" d="M99.239,77.885c0,0,0.573-3.813-0.037-6.129c0,0,0,1.992-1.092,4.822
				L99.239,77.885z"/>
			<path clip-path="url(#SVGID_4_)" fill="#9C5222" d="M85.298,64.336c0,0,1.638,4.836,6.133,4.48
				c4.495-0.355,2.131-4.084,2.131-4.084s-1.121-0.643-1.436-0.703c-0.315-0.061-4.97-0.119-4.97-0.119L85.298,64.336z"/>
			<path clip-path="url(#SVGID_4_)" fill="#E42525" d="M93.563,64.732c0,0,2.355,6.514,2.355,13.152
				c0,6.638,0.189,17.451,1.011,20.865c0.822,3.415,3.162,13.976,3.162,13.976l1.833-0.948c0,0-4.41-16.854-4.742-18.07
				c-0.333-1.215,0.253-14.054,0.569-15.129c0.316-1.075,1.661-5.86,1.452-7.188c-0.264-1.673-1.829-4.149-4.359-6.278
				L93.563,64.732z"/>
			<path clip-path="url(#SVGID_4_)" fill="#E42525" d="M86.187,64.133c0,0,1.463,4.686,2.205,10.688
				c0.741,6.001-2.276,33.858-4.3,40.182l-7.841-1.265c0,0,1.688-19.69,3.979-23.274c2.292-3.583,3.02-6.754,0.547-14.232
				c-2.474-7.48,1.084-11.184,1.084-11.184S85.5,64.21,86.187,64.133"/>
			<polygon clip-path="url(#SVGID_4_)" fill="#616161" points="94.646,84.004 85.139,100.472 74.569,94.369 83.664,77.663 			"/>
			<polygon clip-path="url(#SVGID_4_)" fill="#E0CEC7" points="93.5,84.57 85.057,99.196 75.669,93.776 83.747,78.939 			"/>
			<polygon clip-path="url(#SVGID_4_)" fill="#616161" points="90.385,83.257 90.978,82.23 87.183,80.039 86.442,80.98 			"/>
			<path clip-path="url(#SVGID_4_)" fill="#9C5222" d="M89.932,94.941c0,0-0.432,0.002-0.622-0.09c0,0-0.332-0.193-0.577-0.315
				c-0.077-0.039-0.146-0.07-0.192-0.086c-0.194-0.067-0.64-0.157-1.06-0.449c-0.42-0.291-1.909-2.015-1.909-2.015l0.703-1.069
				l0.516-1.095c0,0,3.126,0.201,3.549,0.428c0.042,0.022,0.081,0.046,0.117,0.071c0.339,0.227,0.497,0.538,0.662,0.676
				c0.061,0.052,0.624,0.604,0.604,0.839c-0.027,0.325-0.178,0.541-0.375,0.648c0,0-0.081,0.636-0.394,0.933
				c0,0-0.056,0.589-0.551,0.847C90.403,94.264,90.28,94.855,89.932,94.941"/>
			<path clip-path="url(#SVGID_4_)" fill="#E42525" d="M83.489,65.066c0,0-2.887-0.826-4.542,2.354
				c-1.654,3.182-1.646,4.539-1.867,6.093c-0.208,1.467-1.151,5.472-1.247,5.885c-0.095,0.414-2.23,5.347-1.251,7.07
				c0.984,1.732,10.978,6.832,10.914,7.215c-0.064,0.382,1.73-3.856,1.73-3.856s-4.044-2.254-4.706-2.947
				c-1.076-1.128-3.345-2.342-2.878-3.741c0.547-1.642,2.193-7.184,2.574-7.995C82.599,74.332,85.923,66.101,83.489,65.066"/>
			<path clip-path="url(#SVGID_4_)" fill="#9C5222" d="M92.932,48.654c0,0,5.14,1.615,2.35,10.486
				c-2.791,8.871-9.811-1.027-9.076-6.433C86.94,47.304,92.932,48.654,92.932,48.654"/>
			<path clip-path="url(#SVGID_4_)" fill="#201D1D" d="M95.808,53.83c0,0-2.555,2.507-6.829,2.82c0,0-1.642,1.926-1.769,2.682
				c0,0-3.813-6.5,0.875-10.396S97.531,52.225,95.808,53.83"/>
			<path clip-path="url(#SVGID_4_)" fill="#9C5222" d="M89.03,56.827c-0.033-0.646-0.431-2.115-1.39-1.704
				c-0.959,0.412,0.059,3.403,0.695,3.219C88.335,58.342,89.109,58.354,89.03,56.827"/>
			<path clip-path="url(#SVGID_4_)" fill="#753E1A" d="M92.429,62.666c-0.03,0.337-0.063,0.709-0.094,1.09
				c0,0-2.269-0.135-3.785-3.51C88.649,60.395,90.311,62.836,92.429,62.666"/>
			<path clip-path="url(#SVGID_4_)" fill="#99C457" d="M36.144,143.786c3.296-2.318,7.153-18.471,7.383-28.093
				c0.118-4.929,1.575-6.981,2.86-8.793c1.229-1.731,2.29-3.228,1.672-6.661c-1.181-6.562,1.924-9.395,1.956-9.422l-0.36-0.41
				c-0.138,0.121-3.373,3.042-2.133,9.929c0.578,3.208-0.375,4.551-1.58,6.249c-1.265,1.782-2.838,4.001-2.96,9.096
				c-0.247,10.325-4.19,25.576-7.152,27.659L36.144,143.786z"/>
			<path clip-path="url(#SVGID_4_)" fill="#99C457" d="M29.235,139.074c-0.311-0.705-0.633-1.435-0.997-2.204
				c-1.883-3.974-3.551-4.629-6.314-5.713c-0.676-0.265-1.44-0.566-2.281-0.942c-3.958-1.779-3.192-4.401-2.515-6.714
				c0.094-0.324,0.189-0.646,0.271-0.966c0.348-1.36-0.321-2.042-1.333-3.075c-0.752-0.768-1.689-1.724-2.411-3.232
				c-0.79-1.652-0.387-2.537,0.09-2.989c1.004-0.952,3.319-0.776,5.505,0.417c0.679,0.371,1.238,0.956,1.831,1.576
				c1.393,1.459,3.127,3.275,7.514,3.296c2.501,0.012,3.871,0.357,4.581,1.154c0.805,0.905,0.654,2.259,0.443,4.134
				c-0.073,0.648-0.155,1.383-0.205,2.178c-0.298,4.737,2.498,8.155,2.526,8.188c1.671,1.99,3.729,6.117,2.841,8.658
				c-0.372,1.064-1.206,1.735-2.475,1.992c-0.506,0.103-0.969,0.151-1.394,0.151C31.842,144.983,30.719,142.438,29.235,139.074
				 M18.988,114.134c-1.952-1.066-4.045-1.281-4.869-0.5c-0.626,0.594-0.331,1.61,0.027,2.358c0.683,1.427,1.546,2.309,2.308,3.086
				c1.06,1.081,1.896,1.935,1.472,3.593c-0.083,0.325-0.179,0.653-0.275,0.982c-0.673,2.304-1.31,4.479,2.215,6.063
				c0.828,0.372,1.586,0.67,2.256,0.933c2.79,1.095,4.632,1.818,6.607,5.987c0.368,0.776,0.691,1.509,1.004,2.218
				c1.705,3.864,2.734,6.197,6.462,5.443c1.068-0.217,1.765-0.767,2.069-1.638c0.783-2.239-1.091-6.159-2.745-8.128
				c-0.121-0.146-2.964-3.612-2.652-8.573c0.051-0.808,0.134-1.549,0.207-2.204c0.194-1.734,0.335-2.988-0.309-3.711
				c-0.588-0.661-1.876-0.961-4.176-0.972c-4.618-0.021-6.441-1.931-7.906-3.464C20.099,114.994,19.593,114.464,18.988,114.134"/>
			<path clip-path="url(#SVGID_4_)" fill="#99C457" d="M36.245,148.13l0.544-0.028c-0.026-0.512-0.713-12.566-5.554-16.094
				c-5.31-3.871-6.984-8.031-7.781-10.823c-0.939-3.29-5.722-4.169-5.925-4.205l-0.095,0.537c0.046,0.008,4.649,0.856,5.496,3.818
				c0.819,2.869,2.539,7.143,7.984,11.112C35.547,135.824,36.239,148.007,36.245,148.13"/>
			<path clip-path="url(#SVGID_4_)" fill="#99C457" d="M35.324,150.841c-1.139-0.566-1.098-2.848-1.036-6.299
				c0.079-4.362,0.188-10.336-2.096-15.83c-2.426-5.837-0.262-7.543,1.83-9.193c2.343-1.847,4.557-3.593,0.309-11.47
				c-1.951-3.618-2.57-6.065-1.949-7.702c0.614-1.617,2.335-2.247,4.159-2.914c3.147-1.152,6.714-2.458,6.254-9.118
				c-0.142-2.042,0.099-3.298,0.755-3.951c0.714-0.711,1.765-0.634,2.982-0.545c1.839,0.135,3.922,0.287,5.737-2.081
				c0.189-0.592,1.924-5.872,4-6.777c0.436-0.189,0.863-0.187,1.27,0.007c1.433,0.686,2.265,1.498,2.542,2.485
				c0.483,1.716-0.774,3.651-2.229,5.894c-2.288,3.522-4.88,7.515-2.191,12.266c3.555,6.281,1.677,8.479-0.922,11.522
				c-1.489,1.743-3.177,3.719-4.306,6.941c-0.907,2.592,0.641,5.063,2.138,7.452c1.878,2.998,3.82,6.098-0.269,8.787
				c-6.759,4.447-13.435,18.964-13.501,19.11l-0.028,0.06l-0.052,0.041c-1.245,0.977-2.151,1.442-2.834,1.442
				C35.678,150.968,35.492,150.925,35.324,150.841 M52.001,129.859c3.644-2.397,2.004-5.014,0.107-8.043
				c-1.493-2.383-3.185-5.082-2.19-7.922c1.162-3.318,2.885-5.335,4.405-7.115c2.547-2.98,4.229-4.95,0.862-10.899
				c-2.853-5.039-0.046-9.359,2.208-12.832c1.384-2.13,2.579-3.97,2.163-5.448c-0.233-0.826-0.97-1.527-2.252-2.141
				c-0.261-0.125-0.528-0.125-0.817,0.001c-1.926,0.839-3.694,6.43-3.711,6.486l-0.014,0.045l-0.029,0.038
				c-2,2.643-4.351,2.471-6.24,2.333c-1.129-0.083-2.02-0.148-2.558,0.387c-0.529,0.527-0.724,1.682-0.596,3.527
				c0.489,7.07-3.447,8.511-6.61,9.668c-1.777,0.65-3.312,1.212-3.837,2.597c-0.561,1.477,0.049,3.78,1.92,7.249
				c4.464,8.281,1.965,10.252-0.451,12.157c-2.021,1.595-3.932,3.101-1.664,8.555c2.327,5.601,2.218,11.64,2.138,16.05
				c-0.055,3.011-0.098,5.388,0.733,5.801c0.486,0.242,1.417-0.166,2.765-1.216C38.872,147.963,45.265,134.291,52.001,129.859"/>
			<path clip-path="url(#SVGID_4_)" fill="#99C457" d="M24.654,87.568c3.44-1.18,2.725,5.451,4.179,10.357
				c1.453,4.905,16.171,2.14,9.993,14.425c-6.178,12.285,7.813,4.108,3.634,14.829s-0.364,22.187-4.906,19.27
				c-4.543-2.917-2.552-16.416-7.277-18.021c-4.724-1.604-5.495-3.475-0.817-7.836c4.677-4.36-12.256-8.689-8.077-17.496
				C25.563,94.292,20.68,88.932,24.654,87.568"/>
			<path clip-path="url(#SVGID_4_)" fill="#FFFFFF" d="M35.971,145.745c0.433-1.836,4.127-17.986,0.68-19.938
				c-3.038-1.721-2.963-8.413-2.49-14.732c0.42-5.595-6.765-8.209-7.071-8.318l-0.182,0.514c0.071,0.026,7.099,2.586,6.71,7.765
				c-0.487,6.489-0.539,13.376,2.764,15.247c2.618,1.482,0.208,14.462-0.942,19.339L35.971,145.745z"/>
		</g>
		<g clip-path="url(#SVGID_2_)">
			<defs>
				<polygon id="SVGID_5_" points="28.151,139.994 33.063,158.629 44.04,158.629 48.951,139.994 				"/>
			</defs>
			<clipPath id="SVGID_6_">
				<use xlink:href="#SVGID_5_"  overflow="visible"/>
			</clipPath>
			
				<linearGradient id="SVGID_7_" gradientUnits="userSpaceOnUse" x1="-178.5562" y1="162.6465" x2="-178.1593" y2="162.6465" gradientTransform="matrix(21.3154 -91.8867 -91.8867 -21.3154 18782.8418 -12761.874)">
				<stop  offset="0" style="stop-color:#C9C4C1"/>
				<stop  offset="1" style="stop-color:#FFF6DE"/>
			</linearGradient>
			<polygon clip-path="url(#SVGID_6_)" fill="url(#SVGID_7_)" points="24.049,157.677 29.213,135.415 53.053,140.945 
				47.889,163.208 			"/>
		</g>
		<g clip-path="url(#SVGID_2_)">
			<defs>
				<path id="SVGID_8_" d="M28.151,139.994l4.912,18.635h5.075c0-16.604,10.813-18.635,10.813-18.635H28.151z"/>
			</defs>
			<clipPath id="SVGID_9_">
				<use xlink:href="#SVGID_8_"  overflow="visible"/>
			</clipPath>
			
				<linearGradient id="SVGID_10_" gradientUnits="userSpaceOnUse" x1="-176.4917" y1="163.5742" x2="-176.0947" y2="163.5742" gradientTransform="matrix(52.3994 0 0 -52.3994 9276.1855 8720.4961)">
				<stop  offset="0" style="stop-color:#C9C4C1"/>
				<stop  offset="1" style="stop-color:#FFF6DE"/>
			</linearGradient>
			<rect x="28.151" y="139.994" clip-path="url(#SVGID_9_)" fill="url(#SVGID_10_)" width="20.8" height="18.635"/>
		</g>
		<g clip-path="url(#SVGID_2_)">
			<defs>
				<rect id="SVGID_11_" width="235.772" height="164"/>
			</defs>
			<clipPath id="SVGID_12_">
				<use xlink:href="#SVGID_11_"  overflow="visible"/>
			</clipPath>
			<path clip-path="url(#SVGID_12_)" fill="#E3E4E5" d="M145.862,43.012h-32.409c-2.966,0-5.371-2.404-5.371-5.371V9.52
				c0-2.966,2.404-5.37,5.371-5.37h32.409c2.966,0,5.37,2.404,5.37,5.37v28.121C151.232,40.607,148.828,43.012,145.862,43.012"/>
			<rect x="125.537" y="35.662" clip-path="url(#SVGID_12_)" fill="#2D2B2C" width="3.423" height="0.634"/>
			<path clip-path="url(#SVGID_12_)" fill="#201D1D" d="M130.342,0.746c0,0,2.758,1.514,1.882,5.236
				c-0.875,3.724-1.208,4.215-0.497,5.72c0.712,1.505,1.337,7.81,0.578,8.962c-0.759,1.154-8.45-5.625-9.305-11.049
				c-0.854-5.423,1.069-7.727,1.752-8.586C125.434,0.17,127.911-0.637,130.342,0.746"/>
			<path clip-path="url(#SVGID_12_)" fill="#EEA886" d="M135.52,31.518h-2.952c-0.143-1.456-0.274-2.471-0.248-2.62
				c0.044-0.247-2.938-8.067-3.216-8.714c-0.28-0.645-1.373-2.379-1.516-4.012c-0.145-1.633,1.985-2.293,1.985-2.293
				c2.875,0.515,3.849,4.491,3.849,4.491s1.207,8.063,1.817,10.333C135.397,29.285,135.482,30.313,135.52,31.518"/>
			<path clip-path="url(#SVGID_12_)" fill="#EB4747" d="M134.034,20.313l-4.396,1.854c0,0-4.041-10.027-0.653-8.908
				C132.361,14.374,133.879,16.473,134.034,20.313"/>
			<path clip-path="url(#SVGID_12_)" fill="#E42525" d="M133.055,25.033c-0.128,0.996-0.654,4.522-0.536,5.475
				c0.02,0.157,0.085,0.519,0.183,1.01h-10.601c0.282-1.006,0.538-1.896,0.693-2.416c0.516-1.707,0.022-2.164-0.238-3.529
				c-0.101-0.535-0.457-1.551-0.845-2.697c-0.131-0.384-0.265-0.783-0.393-1.184c-0.466-1.446-0.683-2.924-0.816-3.783
				c-0.64-4.078,2.497-4.471,2.497-4.471c1.165-0.215,3.201-0.844,3.201-0.844l3.188,0.663c0,0,0.304,0.114,0.747,0.44
				c0,0,0.001,0,0.001,0.002c0.214,0.158,0.459,0.363,0.718,0.629c0.349,0.358,1.042,1.383,1.734,2.508
				c0.211,0.346,0.425,0.699,0.625,1.048c0.648,1.122,1.109,2.028,1.095,3.048C134.296,21.937,133.183,24.037,133.055,25.033"/>
			<path clip-path="url(#SVGID_12_)" fill="#EEA886" d="M129.389,13.258c0,0,1.998,3.415,1.255,3.67
				c-0.742,0.254-4.658-0.607-6.188-3.833C124.457,13.095,127.027,11.926,129.389,13.258"/>
			<path clip-path="url(#SVGID_12_)" fill="#EEA886" d="M129.104,14.817c0,0-1.774,0.751-3.382-1.722c0,0,0.432-2.807-0.481-4.43
				c-0.912-1.624,3.99,1.945,3.99,1.945s-0.079,0.336-0.161,0.829c-0.042,0.253-0.086,0.548-0.118,0.859
				c-0.028,0.26-0.049,0.534-0.059,0.806C128.873,13.736,128.917,14.363,129.104,14.817"/>
			<path clip-path="url(#SVGID_12_)" fill="#393D63" d="M124.697,18.642c-0.364,1.879-2.986,4.233-2.986,4.233
				c-0.13-0.385-0.264-0.783-0.392-1.184C123.127,20.537,124.697,18.642,124.697,18.642"/>
			<path clip-path="url(#SVGID_12_)" fill="#EEA886" d="M124.04,20.137c-0.166,0.686-0.93,7.621-0.848,7.857
				c0.049,0.137,0.42,1.74,0.79,3.523h-3.422c-0.351-1.149-0.558-2.104-0.508-2.643c0.219-2.34-0.575-9.799-0.575-9.799
				s-0.709-4.511,3.034-5.074c0,0,2.212,0.29,2.346,1.924C124.991,17.561,124.206,19.454,124.04,20.137"/>
			<path clip-path="url(#SVGID_12_)" fill="#E42525" d="M119.202,21.096l4.646,1.085c0,0,3.686-7.155,0.366-8.462
				C120.715,12.342,118.363,17.191,119.202,21.096"/>
			<path clip-path="url(#SVGID_12_)" fill="#EEA987" d="M129.914,1.143c0,0,4.037,1.482,1.479,8.449
				c-2.56,6.968-7.784-1.189-6.994-5.471C125.186-0.16,129.914,1.143,129.914,1.143"/>
			<path clip-path="url(#SVGID_12_)" fill="#201D1D" d="M132.011,5.378c0,0-2.131,1.902-5.552,1.991c0,0-0.799,1.948-0.928,2.547
				c0,0-3.379-5.802,0.506-8.732C129.922-1.746,133.445,4.162,132.011,5.378"/>
			<path clip-path="url(#SVGID_12_)" fill="#EEA987" d="M126.922,7.787c-0.002-0.517-0.265-1.702-1.045-1.411
				c-0.78,0.292-0.081,2.716,0.433,2.593C126.31,8.969,126.926,9.008,126.922,7.787"/>
			<path clip-path="url(#SVGID_12_)" fill="#A77860" d="M128.898,12.986c-1.897-0.525-2.631-2.333-2.653-2.394
				c1.543,1.993,2.707,1.708,2.707,1.708C128.923,12.561,128.921,12.723,128.898,12.986"/>
			<path clip-path="url(#SVGID_12_)" fill="#2D2B2C" d="M137.667,11.182v0.621h3.649v3.424h0.62v-4.045H137.667z M112.886,15.227
				h0.62v-3.424h3.649v-0.621h-4.269V15.227z M141.317,32.9v3.426h-3.649v0.619h4.27V32.9H141.317z M113.506,32.9h-0.62v4.045h4.269
				v-0.619h-3.649V32.9z"/>
			<rect x="65.721" y="53.918" clip-path="url(#SVGID_12_)" fill="#2D2B2C" width="4.571" height="0.846"/>
			<path clip-path="url(#SVGID_12_)" fill="#2D2B2C" d="M81.706,21.221v0.828h4.875v4.574h0.828v-5.402H81.706z M48.605,26.623
				h0.828v-4.574h4.875v-0.828h-5.702V26.623z M86.58,50.229v4.576h-4.875v0.828h5.702v-5.404H86.58z M49.433,50.229h-0.828v5.404
				h5.702v-0.828h-4.875V50.229z"/>
			<path clip-path="url(#SVGID_12_)" fill="#DECBC4" d="M216.229,75.243h-3.866c-0.071-0.155-0.128-0.289-0.176-0.397
				c-1.147-2.709-7.06-8.921-7.06-8.921v0.015c0,0-0.004,0.002-0.004,0.006v0.007c-0.003,0.01-0.007,0.017-0.01,0.026
				c-0.004,0.014-0.007,0.03-0.014,0.051c-0.003,0.01-0.007,0.023-0.007,0.033c-0.003,0.01-0.007,0.018-0.01,0.027
				c-0.242,0.905-1.434,5.414-2.029,9.153H176.89c-0.061-0.347-0.131-0.677-0.212-0.983c-0.239-0.928-0.4-1.847-0.505-2.705
				c-0.003-0.043-0.01-0.084-0.014-0.127c-0.021-0.158-0.037-0.316-0.051-0.473c-0.225-2.348-0.057-4.148-0.044-4.33
				c-0.073,0.158-0.602,2.096-1.295,4.489c-0.381,1.312-0.811,2.763-1.238,4.129h-6.179l7.753-22.368
				c0.172-0.135,2.185-1.107,3.652-1.807c1.497-0.714,3.304-1.761,4.936-2.656c0.835-0.457,1.623-0.871,2.306-1.184l0.104-0.047
				v-0.004c1.127-0.515,1.878-0.854,1.878-0.854h0.003c0.027-0.003,0.205-0.021,0.488-0.048c1.574-0.15,6.461-0.608,8.097-0.703
				c0.135-0.01,0.249-0.014,0.336-0.017c0.074-0.003,0.132-0.003,0.165,0c0.205,0.014,1.215,0.364,2.537,0.868
				c0.051,0.017,0.102,0.037,0.151,0.057c0.064,0.024,0.125,0.048,0.189,0.071c0.114,0.044,0.231,0.087,0.35,0.135
				c0.235,0.095,0.481,0.188,0.727,0.286c0.085,0.033,0.172,0.066,0.259,0.101c2.648,1.05,5.685,2.353,6.404,2.87
				c0.479,0.34,1.962,3.137,3.682,6.596C213.22,62.469,215.485,71.023,216.229,75.243"/>
			<path clip-path="url(#SVGID_12_)" fill="#A16D3C" d="M197.029,44.795c-0.07,3.518-6.88,5.441-6.88,5.441
				s-2.848-3.571-2.168-3.913c0.268-0.134,0.376-0.667,0.409-1.265c0.03-0.569-0.005-1.197-0.039-1.596
				c-0.021-0.248-0.039-0.408-0.039-0.408s0.973-1.027,2.211-2.25c2.163-2.139,5.136-4.879,5.142-3.789
				c0,0.059-0.009,0.127-0.025,0.207C195.116,39.676,197.029,44.795,197.029,44.795"/>
			<path clip-path="url(#SVGID_12_)" fill="#935C2F" d="M194.406,39.643L194.406,39.643c-0.014,0.021-0.303,0.453-0.796,1.073
				c-1.045,1.315-3.01,3.475-5.22,4.343c0.03-0.569-0.005-1.197-0.039-1.596c-0.226-0.006-0.452-0.031-0.676-0.081
				c0.605-1.058,1.48-2.168,1.48-2.168l1.367-0.409L194.406,39.643z"/>
			<path clip-path="url(#SVGID_12_)" fill="#A16D3C" d="M195.713,37.064c-0.589,1.281-1.148,2.209-1.308,2.578l0,0
				c-0.104,0.24-0.385,0.631-0.796,1.072c-1.122,1.21-3.208,2.805-5.259,2.748c-0.226-0.006-0.452-0.031-0.676-0.081
				c-0.828-0.181-1.806-0.566-2.344-1.619c-4.248-8.317-1.173-15.12-1.173-15.12s11.616-3.284,13.434,0.213
				C198.868,29.309,197.097,34.053,195.713,37.064"/>
			<path clip-path="url(#SVGID_12_)" fill="#201D1D" d="M184.159,26.643c0,0-1.079-0.059-1.346-2.104
				c-0.264-2.021,0.27-2.581,0.27-2.581s4.796-2.008,6.518-2.269c1.723-0.261,5.957-0.512,6.95,0.624c0,0,2.411-0.561,3.068,3.443
				c1.042,6.352-3.552,12.519-3.552,12.519s0.039-4.149-0.876-4.7c-0.915-0.549-1.705,0.758-1.705,0.758l-1.872,0.336
				c0,0,2.843-6.139-0.567-6.366S186.111,26.999,184.159,26.643"/>
			<path clip-path="url(#SVGID_12_)" fill="#A16D3C" d="M193.538,30.679c0.178-1.828,3.483-2.526,3.263-0.61
				c-0.222,1.916-1.85,3.758-2.602,3.692C193.447,33.696,193.402,32.072,193.538,30.679"/>
			<path clip-path="url(#SVGID_12_)" fill="#2D2B2C" d="M212.887,56.711c-1.077-3.449-2.009-6.178-2.423-6.475
				c-0.724-0.518-6.458-2.096-9.18-3.163c-0.088-0.034-0.175-0.067-0.26-0.101c-0.245-0.098-0.491-0.192-0.727-0.286
				c-0.118-0.048-0.235-0.091-0.35-0.136c-0.064-0.022-0.125-0.046-0.189-0.069c-0.05-0.021-0.101-0.04-0.151-0.058
				c-0.003,0.004-0.006,0.01-0.013,0.014c-0.243,0.272-1.501,1.703-3.006,3.843c-2.813,3.998-6.478,10.476-5.915,16.456
				c0.181,1.918,0.403,4.674,0.776,7.766c0.027,0.246,0.058,0.492,0.092,0.742h12.692c0.155-3.238,0.432-7.502,0.849-9.154
				c0.004-0.01,0.007-0.017,0.01-0.027c0-0.01,0.004-0.023,0.007-0.033c0.004-0.017,0.01-0.033,0.014-0.051
				c0.003-0.01,0.007-0.016,0.01-0.026v-0.007c0-0.004,0.004-0.007,0.004-0.007s3.072,4.802,3.23,9.306h7.988
				C215.957,71.061,214.735,62.631,212.887,56.711"/>
			<path clip-path="url(#SVGID_12_)" fill="#2D2B2C" d="M186.053,47.269c0,0-0.959,3.19-2.197,11.155v0.004
				c-0.044,0.266-0.084,0.538-0.128,0.817c-0.003,0.03-0.01,0.063-0.014,0.098c-0.03,0.182-0.057,0.37-0.084,0.559
				c-0.003,0.023-0.007,0.044-0.01,0.067c-0.021,0.125-0.041,0.252-0.058,0.383c-0.047,0.314-0.095,0.637-0.141,0.963
				c-0.465,3.251-1.084,8.417-1.713,13.93h-5.018c-0.272-1.532-0.528-2.926-0.508-3.881c-0.011,0.02-0.018,0.044-0.024,0.064
				c-0.4,1.109-0.841,2.318-1.288,3.492c-0.041,0.107-0.081,0.216-0.122,0.324h-8.648l8.615-22.537
				c0.172-0.135,2.39-1.33,3.856-2.026c1.531-0.729,3.466-1.629,5.183-2.419c0.82-0.381,1.592-0.734,2.244-1.033L186.053,47.269z"/>
			<path clip-path="url(#SVGID_12_)" fill="#201D1D" d="M197.72,55.15l-3.314,1.871l1.417,1.443l-3.109,16.778h-1.171
				c-0.431-3.393-0.677-6.438-0.868-8.507c-0.865-9.248,8.362-19.677,8.934-20.313c0.444,0.168,0.922,0.354,1.417,0.549
				L197.72,55.15z"/>
			<path clip-path="url(#SVGID_12_)" fill="#201D1D" d="M186.104,47.182c0,0-1.238,4.041-2.679,14.133
				c-0.465,3.248-1.087,8.417-1.717,13.929h-0.487l-0.643-15.853l1.578-1.711l-1.403-1.752l3.002-7.666
				c0.821-0.381,1.591-0.734,2.244-1.033L186.104,47.182z"/>
			<path clip-path="url(#SVGID_12_)" fill="#F5E2D9" d="M199.776,46.463l-2.747-1.668c0,0-0.077,1.507-6.88,5.441l1.932,5.441
				L199.776,46.463z"/>
			<path clip-path="url(#SVGID_12_)" fill="#F5E2D9" d="M188.34,45.555c0,0,0.106,1.625,1.809,4.682l-3.77,4.915l-0.275-7.972
				L188.34,45.555z"/>
			<path clip-path="url(#SVGID_12_)" fill="#E42525" d="M190.16,50.236c0,0,0.73,2.922,0.468,3.741c0,0-1.607,0.584-2.762-0.146
				C187.866,53.831,188.684,51.785,190.16,50.236"/>
			<path clip-path="url(#SVGID_12_)" fill="#E42525" d="M189.274,60.174c-0.771,5.25-0.771,10.561-0.484,15.069h-3.221
				c-0.044-0.636-0.084-1.3-0.124-1.992c-0.6-10.396,3.076-19.683,3.076-19.683l1.638-0.411
				C190.159,53.157,189.63,57.751,189.274,60.174"/>
			<path clip-path="url(#SVGID_12_)" fill="#201D1D" d="M176.288,66.651c-0.123,2.494-0.105,4.71-0.105,4.71v0.001
				c0,0.013-0.003,0.079-0.008,0.19c-0.005-0.042-0.011-0.083-0.016-0.125c-0.399,1.11-0.842,2.318-1.287,3.492
				c-0.104-1.361-0.131-2.631-0.1-3.806c0.178-6.993,2.378-10.661,2.378-10.661C176.645,61.673,176.404,64.288,176.288,66.651"/>
			<polygon clip-path="url(#SVGID_12_)" fill="#292C47" points="146.186,75.273 135.896,80.93 125.563,64.668 138.061,60.327 			"/>
			<polygon clip-path="url(#SVGID_12_)" fill="#FFFFFF" points="145.534,74.785 135.911,80.074 126.248,64.867 137.935,60.807 			
				"/>
			<path clip-path="url(#SVGID_12_)" fill="#EEA886" d="M149.057,71.941c0,0-1.791-0.857-2.577-1.305
				c-0.785-0.447-2.808-1.063-2.971-1.209c-0.163-0.146-5.995-0.506-6.349-0.811s-0.697,0.715,0.814,1.047
				c1.511,0.33,3.614,1.14,3.729,1.73c0.115,0.591-1.552,0.73-1.721,1.217c-0.169,0.487,0.047,0.378,0.286,0.482
				s1.983-0.861,2.75-0.588s1.939-0.105,2.527,0.096s3.446,1.163,3.446,1.163L149.057,71.941z"/>
			<path clip-path="url(#SVGID_12_)" fill="#EEA886" d="M135.395,78.889c0,0-1.505-1.354-2.233-1.92
				c-0.728-0.566-2.094-2.233-2.296-2.33c-0.201-0.098-2.81-5.452-3.235-5.666c-0.425-0.215,0.402-0.937,1.303,0.358
				c0.9,1.296,2.482,2.962,3.084,2.841c0.601-0.122,0.084-1.748,0.477-2.096c0.393-0.349,0.374-0.103,0.565,0.082
				s-0.039,2.205,0.518,2.82c0.557,0.616,0.655,1.869,1.074,2.344c0.419,0.477,2.438,2.795,2.438,2.795L135.395,78.889z"/>
			<path clip-path="url(#SVGID_12_)" fill="#2D2B2C" d="M167.797,151.268c0,0,0.325,2.259,0.366,2.598
				c0.041,0.34,3.62-0.199,3.62-0.199l0.29-2.689C172.074,150.977,168.245,150.948,167.797,151.268"/>
			<path clip-path="url(#SVGID_12_)" fill="#2D2B2C" d="M168.125,153.578c0,0-1.134,1.362-2.231,1.955
				c-1.097,0.593-2.82,0.828-3.47,1.442c-0.468,0.444-1.705,2.352,2.851,2.314c4.557-0.039,6.753,0.269,7.241-0.463
				c0.488-0.732-0.706-5.401-0.706-5.401S170.731,153.814,168.125,153.578"/>
			<path clip-path="url(#SVGID_12_)" fill="#2D2B2C" d="M142.148,151.268c0,0,0.325,2.259,0.365,2.598
				c0.041,0.34,3.621-0.199,3.621-0.199l0.289-2.689C146.423,150.977,142.595,150.948,142.148,151.268"/>
			<path clip-path="url(#SVGID_12_)" fill="#2D2B2C" d="M142.475,153.578c0,0-1.134,1.362-2.231,1.955
				c-1.097,0.593-5.134,1.08-5.782,1.695c-0.469,0.443-1.247,2.228,5.164,2.062c4.554-0.119,6.753,0.269,7.241-0.463
				c0.487-0.732-0.707-5.401-0.707-5.401S145.143,153.841,142.475,153.578"/>
			<path clip-path="url(#SVGID_12_)" fill="#E42525" d="M164.833,93.22c0,0,3.364,5.345,3.113,10.176s1.22,10.104,1.725,15.151
				c0.563,5.626,2.869,18.944,2.953,21.953c0.083,3.01-0.358,12.619-0.358,12.619l-4.614,0.105c0,0-3.876-23.284-4.88-25.66
				c-1.004-2.375-5.982-19.313-6.149-21.214S164.833,93.22,164.833,93.22"/>
			<path clip-path="url(#SVGID_12_)" fill="#E42525" d="M147.125,93.944c0,0-2.535,13.24-2.869,16.197
				c-0.335,2.956-0.558,14.309-0.725,16.156s-1.116,24.182-2.008,26.928h5.899c0,0,4.529-16.236,4.529-23.919
				c0-7.682,3.499-16.699,5.757-21.768c2.259-5.068,7.428-5.188,8.816-14.593C166.526,92.946,149.005,90.961,147.125,93.944"/>
			<path clip-path="url(#SVGID_12_)" fill="#EEA886" d="M159.22,48.289c0,0-4.516-1.687-6.597,1.75
				c-2.082,3.438-1.881,10.317,0.395,11.164c2.275,0.846,5.694,0.403,6.859-1.747c1.165-2.151,2.217-5.26,2.166-7.338
				C161.994,50.041,160.405,48.889,159.22,48.289"/>
			<path clip-path="url(#SVGID_12_)" fill="#EEA886" d="M153.508,61.359c0,0,0.188,1.219-0.123,1.82
				c-0.311,0.601,5.85,0.616,5.85,0.616s0.5-3.267,1.448-6.026C161.63,55.01,153.508,61.359,153.508,61.359"/>
			<path clip-path="url(#SVGID_12_)" fill="#201D1D" d="M160.683,57.77c0,0-0.426,0.702-2.161,0.43s-3.853-2.582-4.577-2.834
				c-0.725-0.254-0.731-0.68-0.731-0.68l-0.453,0.662l-0.77,0.049c0,0,0.702-2.064-0.357-2.908c-1.06-0.842,1.099-6.684,6.664-4.738
				c0,0,4.275,1.178,4.119,3.609C162.262,53.79,161.639,56.559,160.683,57.77"/>
			<path clip-path="url(#SVGID_12_)" fill="#E2D2CA" d="M153.02,63.107c0,0,0.02-1.147,0.539-1.258
				c0.521-0.109,5.74-0.611,6.379-0.36v1.336C159.938,62.825,158.708,63.582,153.02,63.107"/>
			<path clip-path="url(#SVGID_12_)" fill="#EEA886" d="M153.329,53.801c0.098-0.407,1.134-1.572,1.531-0.325
				c0.397,1.248-0.6,2.927-1.156,2.782C153.148,56.114,153.082,54.835,153.329,53.801"/>
			<path clip-path="url(#SVGID_12_)" fill="#323657" d="M132.302,76.663c0.002-0.001,0.005-0.001,0.008-0.001
				C132.275,76.678,132.269,76.68,132.302,76.663"/>
			<path clip-path="url(#SVGID_12_)" fill="#2D2B2C" d="M168.627,105.951c0,0-2.769,0.815-7.49,1.336s-16.519-0.188-16.594-0.746
				c-0.074-0.558,2.538-20.771,2.39-21.812s-0.229-4.75-0.229-4.75c-0.058,1.017-1.093,5.168-2.343,7.431
				c-0.452,0.817-1.967,3.38-2.697,2.797c-3.534-2.821-9.007-13.455-9.354-13.545c0.291-0.126,2.594-1.187,2.917-1.294
				c0.282-0.095,2.832,2.604,4.377,4.278c0.688,0.746,1.178,1.288,1.178,1.288c0.446-1.004,2.071-7.327,2.576-9.516
				c1.139-4.935,0.964-5.14,0.964-5.14c3.454-1.045,8.697-3.172,8.697-3.172l6.918-0.282c0,0,6.35,1.397,8.85,2.527
				c0.237,0.106,0.238,5.664,0.89,7.122l-2.073,4.373c0,0-1.197,8.664-1.446,12.518C166.043,91.134,168.627,105.951,168.627,105.951
				"/>
			<path clip-path="url(#SVGID_12_)" fill="#2D2B2C" d="M169.964,79.689c-0.181,0.582-1.001,1.075-1.534,1.291
				c-0.341,0.138-0.723,0.182-1.107,0.111l-0.271-0.051l-4.741-0.879c0,0-1.037-11.947,6.477-14.81
				C168.987,65.418,171.624,74.34,169.964,79.689"/>
			<path clip-path="url(#SVGID_12_)" fill="#201D1D" d="M168.431,80.979L168.431,80.979c-0.342,0.139-0.724,0.183-1.108,0.112
				l-0.271-0.051l0.468-6.105L168.431,80.979z"/>
			<path clip-path="url(#SVGID_12_)" fill="#201D1D" d="M140.783,80.934l-0.579,2.455c0,0-0.629-2.463-0.599-3.742
				C140.293,80.393,140.783,80.934,140.783,80.934"/>
			<path clip-path="url(#SVGID_12_)" fill="#201D1D" d="M160.505,48.694c0,0,5.917-0.741,0.101,9.143L160.505,48.694z"/>
			<polygon clip-path="url(#SVGID_12_)" fill="#292C47" points="130.32,63.796 129.718,62.762 134.456,61.128 135.057,62.155 			"/>
			<g opacity="0.95" clip-path="url(#SVGID_12_)">
				<g>
					<defs>
						<rect id="SVGID_13_" x="207.062" y="15.91" width="16.974" height="3.604"/>
					</defs>
					<clipPath id="SVGID_14_">
						<use xlink:href="#SVGID_13_"  overflow="visible"/>
					</clipPath>
					<g clip-path="url(#SVGID_14_)">
						<defs>
							<polygon id="SVGID_15_" points="220.678,19.514 224.035,19.514 223.008,17.383 219.651,17.383 							"/>
						</defs>
						<clipPath id="SVGID_16_">
							<use xlink:href="#SVGID_15_"  overflow="visible"/>
						</clipPath>
						
							<linearGradient id="SVGID_17_" gradientUnits="userSpaceOnUse" x1="-193.0933" y1="143.9756" x2="-192.6963" y2="143.9756" gradientTransform="matrix(11.0431 0 0 -11.0431 2351.9893 1608.3832)">
							<stop  offset="0" style="stop-color:#D1D7E0"/>
							<stop  offset="1" style="stop-color:#EBEBFF"/>
						</linearGradient>
						<rect x="219.651" y="17.383" clip-path="url(#SVGID_16_)" fill="url(#SVGID_17_)" width="4.384" height="2.131"/>
					</g>
					<g clip-path="url(#SVGID_14_)">
						<defs>
							<polygon id="SVGID_18_" points="219.108,19.514 219.909,19.514 218.881,17.383 218.081,17.383 							"/>
						</defs>
						<clipPath id="SVGID_19_">
							<use xlink:href="#SVGID_18_"  overflow="visible"/>
						</clipPath>
						
							<linearGradient id="SVGID_20_" gradientUnits="userSpaceOnUse" x1="-212.1655" y1="115.9561" x2="-211.7681" y2="115.9561" gradientTransform="matrix(4.6026 0 0 -4.6026 1194.5977 552.1557)">
							<stop  offset="0" style="stop-color:#D1D7E0"/>
							<stop  offset="1" style="stop-color:#EBEBFF"/>
						</linearGradient>
						<rect x="218.081" y="17.383" clip-path="url(#SVGID_19_)" fill="url(#SVGID_20_)" width="1.828" height="2.131"/>
					</g>
					<g clip-path="url(#SVGID_14_)">
						<defs>
							<polygon id="SVGID_21_" points="207.512,16.977 221.103,16.977 220.652,15.91 207.061,15.91 							"/>
						</defs>
						<clipPath id="SVGID_22_">
							<use xlink:href="#SVGID_21_"  overflow="visible"/>
						</clipPath>
						
							<linearGradient id="SVGID_23_" gradientUnits="userSpaceOnUse" x1="-182.9233" y1="157.6621" x2="-182.5264" y2="157.6621" gradientTransform="matrix(35.3731 0 0 -35.3731 6677.6094 5593.4639)">
							<stop  offset="0" style="stop-color:#D1D7E0"/>
							<stop  offset="1" style="stop-color:#EBEBFF"/>
						</linearGradient>
						<rect x="207.061" y="15.91" clip-path="url(#SVGID_22_)" fill="url(#SVGID_23_)" width="14.042" height="1.066"/>
					</g>
				</g>
			</g>
		</g>
		<g clip-path="url(#SVGID_2_)">
			<defs>
				<path id="SVGID_24_" d="M85.979,1.629c-0.174,0-0.314,0.141-0.314,0.314v1.107c0,0.174,0.14,0.314,0.314,0.314h5.131
					c0.174,0,0.314-0.141,0.314-0.314V1.943c0-0.174-0.14-0.314-0.314-0.314H85.979z"/>
			</defs>
			<clipPath id="SVGID_25_">
				<use xlink:href="#SVGID_24_"  overflow="visible"/>
			</clipPath>
			
				<linearGradient id="SVGID_26_" gradientUnits="userSpaceOnUse" x1="-175.7192" y1="147.0879" x2="-175.3223" y2="147.0879" gradientTransform="matrix(14.5081 0 0 -14.5081 2635.0085 2136.4639)">
				<stop  offset="0" style="stop-color:#D1D7E0"/>
				<stop  offset="1" style="stop-color:#EBEBFF"/>
			</linearGradient>
			<rect x="85.665" y="1.629" clip-path="url(#SVGID_25_)" fill="url(#SVGID_26_)" width="5.759" height="1.736"/>
		</g>
		<g clip-path="url(#SVGID_2_)">
			<defs>
				<path id="SVGID_27_" d="M85.979,5.791c-0.174,0-0.314,0.141-0.314,0.314v1.107c0,0.174,0.14,0.314,0.314,0.314h5.131
					c0.174,0,0.314-0.141,0.314-0.314V6.105c0-0.174-0.14-0.314-0.314-0.314H85.979z"/>
			</defs>
			<clipPath id="SVGID_28_">
				<use xlink:href="#SVGID_27_"  overflow="visible"/>
			</clipPath>
			
				<linearGradient id="SVGID_29_" gradientUnits="userSpaceOnUse" x1="-175.7192" y1="147.5234" x2="-175.3223" y2="147.5234" gradientTransform="matrix(14.5081 0 0 -14.5081 2635.0085 2146.9482)">
				<stop  offset="0" style="stop-color:#D1D7E0"/>
				<stop  offset="1" style="stop-color:#EBEBFF"/>
			</linearGradient>
			<rect x="85.665" y="5.791" clip-path="url(#SVGID_28_)" fill="url(#SVGID_29_)" width="5.759" height="1.736"/>
		</g>
		<g clip-path="url(#SVGID_2_)">
			<defs>
				<path id="SVGID_30_" d="M85.979,9.953c-0.174,0-0.314,0.14-0.314,0.313v1.108c0,0.174,0.14,0.314,0.314,0.314h5.131
					c0.174,0,0.314-0.141,0.314-0.314v-1.108c0-0.174-0.14-0.313-0.314-0.313H85.979z"/>
			</defs>
			<clipPath id="SVGID_31_">
				<use xlink:href="#SVGID_30_"  overflow="visible"/>
			</clipPath>
			
				<linearGradient id="SVGID_32_" gradientUnits="userSpaceOnUse" x1="-175.7192" y1="147.96" x2="-175.3223" y2="147.96" gradientTransform="matrix(14.5081 0 0 -14.5081 2635.0085 2157.4326)">
				<stop  offset="0" style="stop-color:#D1D7E0"/>
				<stop  offset="1" style="stop-color:#EBEBFF"/>
			</linearGradient>
			<rect x="85.665" y="9.953" clip-path="url(#SVGID_31_)" fill="url(#SVGID_32_)" width="5.759" height="1.736"/>
		</g>
		<g clip-path="url(#SVGID_2_)">
			<defs>
				<path id="SVGID_33_" d="M94.116,1.629c-0.173,0-0.314,0.141-0.314,0.314v1.107c0,0.174,0.141,0.314,0.314,0.314h1.011
					c0.173,0,0.313-0.141,0.313-0.314V1.943c0-0.174-0.141-0.314-0.313-0.314H94.116z"/>
			</defs>
			<clipPath id="SVGID_34_">
				<use xlink:href="#SVGID_33_"  overflow="visible"/>
			</clipPath>
			
				<linearGradient id="SVGID_35_" gradientUnits="userSpaceOnUse" x1="-170.229" y1="104.5615" x2="-169.832" y2="104.5615" gradientTransform="matrix(4.1279 0 0 -4.1279 796.4923 434.1161)">
				<stop  offset="0" style="stop-color:#D1D7E0"/>
				<stop  offset="1" style="stop-color:#EBEBFF"/>
			</linearGradient>
			<rect x="93.802" y="1.629" clip-path="url(#SVGID_34_)" fill="url(#SVGID_35_)" width="1.639" height="1.736"/>
		</g>
		<g clip-path="url(#SVGID_2_)">
			<defs>
				<path id="SVGID_36_" d="M94.116,5.791c-0.173,0-0.314,0.141-0.314,0.314v1.107c0,0.174,0.141,0.314,0.314,0.314h1.011
					c0.173,0,0.313-0.141,0.313-0.314V6.105c0-0.174-0.141-0.314-0.313-0.314H94.116z"/>
			</defs>
			<clipPath id="SVGID_37_">
				<use xlink:href="#SVGID_36_"  overflow="visible"/>
			</clipPath>
			
				<linearGradient id="SVGID_38_" gradientUnits="userSpaceOnUse" x1="-170.229" y1="106.0938" x2="-169.832" y2="106.0938" gradientTransform="matrix(4.1279 0 0 -4.1279 796.4923 444.6005)">
				<stop  offset="0" style="stop-color:#D1D7E0"/>
				<stop  offset="1" style="stop-color:#EBEBFF"/>
			</linearGradient>
			<rect x="93.802" y="5.791" clip-path="url(#SVGID_37_)" fill="url(#SVGID_38_)" width="1.639" height="1.736"/>
		</g>
		<g clip-path="url(#SVGID_2_)">
			<defs>
				<path id="SVGID_39_" d="M94.116,9.953c-0.173,0-0.314,0.14-0.314,0.313v1.108c0,0.174,0.141,0.314,0.314,0.314h1.011
					c0.173,0,0.313-0.141,0.313-0.314v-1.108c0-0.174-0.141-0.313-0.313-0.313H94.116z"/>
			</defs>
			<clipPath id="SVGID_40_">
				<use xlink:href="#SVGID_39_"  overflow="visible"/>
			</clipPath>
			
				<linearGradient id="SVGID_41_" gradientUnits="userSpaceOnUse" x1="-170.229" y1="107.625" x2="-169.832" y2="107.625" gradientTransform="matrix(4.1279 0 0 -4.1279 796.4923 455.0848)">
				<stop  offset="0" style="stop-color:#D1D7E0"/>
				<stop  offset="1" style="stop-color:#EBEBFF"/>
			</linearGradient>
			<rect x="93.802" y="9.953" clip-path="url(#SVGID_40_)" fill="url(#SVGID_41_)" width="1.639" height="1.736"/>
		</g>
		<g clip-path="url(#SVGID_2_)">
			<defs>
				<polygon id="SVGID_42_" points="114.402,72.907 116.246,76.732 122.271,76.732 120.426,72.907 				"/>
			</defs>
			<clipPath id="SVGID_43_">
				<use xlink:href="#SVGID_42_"  overflow="visible"/>
			</clipPath>
			
				<linearGradient id="SVGID_44_" gradientUnits="userSpaceOnUse" x1="-178.8262" y1="157.166" x2="-178.4292" y2="157.166" gradientTransform="matrix(19.8224 0 0 -19.8224 3659.1638 3190.2134)">
				<stop  offset="0" style="stop-color:#D1D7E0"/>
				<stop  offset="1" style="stop-color:#EBEBFF"/>
			</linearGradient>
			<rect x="114.402" y="72.907" clip-path="url(#SVGID_43_)" fill="url(#SVGID_44_)" width="7.869" height="3.825"/>
		</g>
		<g clip-path="url(#SVGID_2_)">
			<defs>
				<polygon id="SVGID_45_" points="111.583,72.907 113.427,76.732 114.863,76.732 113.019,72.907 				"/>
			</defs>
			<clipPath id="SVGID_46_">
				<use xlink:href="#SVGID_45_"  overflow="visible"/>
			</clipPath>
			
				<linearGradient id="SVGID_47_" gradientUnits="userSpaceOnUse" x1="-177.9341" y1="147.6016" x2="-177.5376" y2="147.6016" gradientTransform="matrix(8.2618 0 0 -8.2618 1581.6462 1294.276)">
				<stop  offset="0" style="stop-color:#D1D7E0"/>
				<stop  offset="1" style="stop-color:#EBEBFF"/>
			</linearGradient>
			<rect x="111.583" y="72.907" clip-path="url(#SVGID_46_)" fill="url(#SVGID_47_)" width="3.279" height="3.825"/>
		</g>
	</g>
</g>
</svg>
