<?xml version="1.0" encoding="utf-8"?>
<!-- Generator: Adobe Illustrator 16.0.0, SVG Export Plug-In . SVG Version: 6.00 Build 0)  -->
<!DOCTYPE svg PUBLIC "-//W3C//DTD SVG 1.1//EN" "http://www.w3.org/Graphics/SVG/1.1/DTD/svg11.dtd">
<svg version="1.1" id="Layer_1" xmlns="http://www.w3.org/2000/svg" xmlns:xlink="http://www.w3.org/1999/xlink" x="0px" y="0px"
	 width="78px" height="105px" viewBox="0 0 78 105" enable-background="new 0 0 78 105" xml:space="preserve">
<g>
	<rect x="15.884" y="81.723" fill-rule="evenodd" clip-rule="evenodd" fill="#2D2B2C" width="46.175" height="6.447"/>
	<g>
		<defs>
			<rect id="SVGID_1_" x="0.492" width="77.016" height="105"/>
		</defs>
		<clipPath id="SVGID_2_">
			<use xlink:href="#SVGID_1_"  overflow="visible"/>
		</clipPath>
		<path clip-path="url(#SVGID_2_)" fill-rule="evenodd" clip-rule="evenodd" fill="#2D2B2C" d="M30.981,98.354
			c1.934,9.01,14.463,8.71,16.039,0h8.051c0.274,0,0.5-0.226,0.502-0.495c0.013-1.511,0.062-5.948,0.062-5.948H21.559
			c0,0-0.065,4.415-0.084,5.937c-0.002,0.134,0.046,0.257,0.146,0.356c0.096,0.101,0.218,0.15,0.356,0.15H30.981z"/>
		<path clip-path="url(#SVGID_2_)" fill-rule="evenodd" clip-rule="evenodd" fill="#E42525" d="M31.944,57.717
			c-1.101-0.403-2.163-0.903-3.176-1.487c-4.535-2.618-8.072-6.968-9.534-12.425c-1.464-5.46-0.574-10.992,2.043-15.53
			c1.664-2.882,4.027-5.359,6.927-7.157c1.165-0.723,2.415-1.336,3.743-1.822c0.572-0.209,1.156-0.394,1.755-0.555
			c0.6-0.16,1.198-0.292,1.797-0.397c1.393-0.243,2.783-0.339,4.153-0.296c3.411,0.109,6.696,1.074,9.578,2.739
			c4.536,2.616,8.072,6.966,9.534,12.426c1.464,5.458,0.574,10.992-2.044,15.525c-1.663,2.882-4.026,5.361-6.927,7.162l-1.219-4.549
			c1.76-1.311,3.214-2.966,4.296-4.836c2.048-3.548,2.743-7.882,1.601-12.154c-1.146-4.271-3.914-7.677-7.464-9.724
			c-0.677-0.391-1.38-0.73-2.105-1.02c-4.978-1.979-11.19-1.156-15.48,2.045c-1.76,1.314-3.216,2.966-4.295,4.837
			c-2.048,3.55-2.746,7.882-1.601,12.152c0.97,3.623,3.11,6.622,5.899,8.699c0.503,0.372,1.024,0.716,1.564,1.03
			c0.676,0.387,1.381,0.729,2.111,1.017l1.066-3.979c-0.388-0.174-0.766-0.365-1.134-0.579c-0.885-0.509-1.705-1.133-2.436-1.856
			c-1.452-1.438-2.555-3.271-3.123-5.388c-0.853-3.181-0.335-6.409,1.191-9.052c0.528-0.914,1.175-1.76,1.928-2.507
			c1.015-1.009,2.219-1.843,3.577-2.442c0.556-0.246,1.136-0.449,1.739-0.61c0.017-0.004,0.035-0.01,0.051-0.015
			c0.586-0.154,1.176-0.262,1.762-0.326c0.858-0.094,1.712-0.092,2.547-0.001c0.601,0.063,1.193,0.173,1.771,0.327
			c0.614,0.162,1.216,0.374,1.794,0.631c0.386,0.172,0.763,0.363,1.128,0.575c2.646,1.524,4.706,4.061,5.56,7.243
			c0.853,3.185,0.334,6.411-1.191,9.055c-0.528,0.912-1.176,1.758-1.929,2.506c-1.014,1.006-2.219,1.842-3.577,2.441l1.068,3.982
			l1.156,4.316l1.062,3.959c1.323-0.461,2.585-1.026,3.778-1.687c3.967-2.19,7.173-5.41,9.369-9.21
			c3.141-5.439,4.207-12.08,2.452-18.629c-1.754-6.549-5.997-11.766-11.438-14.905c-3.802-2.195-8.188-3.377-12.719-3.292
			c-1.364,0.027-2.739,0.164-4.117,0.427c-0.597,0.115-1.196,0.251-1.794,0.411c-0.598,0.161-1.182,0.342-1.758,0.541
			c-1.324,0.463-2.586,1.029-3.778,1.689c-3.967,2.191-7.176,5.407-9.37,9.209c-3.143,5.442-4.207,12.081-2.453,18.629
			c1.753,6.549,5.998,11.764,11.438,14.907c0.129,0.074,0.26,0.147,0.39,0.219l-0.843,3.145c-0.378-0.196-0.755-0.403-1.131-0.621
			l-0.008,0.005c-1.04-0.602-2.044-1.271-3.008-2.01L20.7,59.415l-4.582,4.58l-2.609-2.611l4.58-4.578l-1.087-1.418
			c-0.73-0.948-1.406-1.955-2.017-3.016c-0.611-1.057-1.149-2.144-1.606-3.255l-0.684-1.656l-6.248,1.672l-0.951-3.554l6.246-1.671
			l-0.236-1.781c-0.16-1.191-0.236-2.4-0.236-3.621c0-1.226,0.081-2.432,0.236-3.619l0.236-1.771l-6.255-1.674l0.953-3.566
			l6.251,1.675l0.688-1.652c0.442-1.067,0.983-2.155,1.616-3.25l-0.006-0.002c0.619-1.071,1.293-2.084,2.014-3.022l1.087-1.419
			l-4.578-4.577l2.611-2.609l4.58,4.576l1.416-1.086c0.947-0.729,1.954-1.402,3.014-2.014c0.373-0.217,0.753-0.422,1.133-0.621
			c0.695-0.359,1.404-0.691,2.123-0.986l1.66-0.684l-1.673-6.247l3.552-0.954L33.6,11.25l1.781-0.234
			c0.77-0.104,1.548-0.173,2.332-0.207c0.428-0.02,0.858-0.031,1.291-0.031c1.224,0,2.432,0.08,3.617,0.236l1.769,0.234l1.678-6.255
			l3.565,0.954l-1.675,6.252l1.652,0.688c1.093,0.453,2.18,0.991,3.252,1.61l-0.002,0.005c1.095,0.633,2.105,1.303,3.023,2.004
			l1.42,1.09l4.576-4.578l2.611,2.611l-4.579,4.58L61,21.623c0.729,0.949,1.402,1.957,2.014,3.017
			c0.61,1.059,1.148,2.144,1.607,3.255l0.684,1.66l6.247-1.674l0.952,3.552l-6.246,1.675l0.236,1.779
			c0.159,1.191,0.236,2.401,0.236,3.619c0,1.226-0.081,2.436-0.236,3.623l-0.234,1.768l6.255,1.678l-0.956,3.566l-6.258-1.678
			l-0.688,1.656c-0.464,1.121-0.999,2.203-1.6,3.245h-0.008c-0.617,1.068-1.288,2.079-2.01,3.021l-1.089,1.421l4.581,4.58
			l-2.61,2.612l-4.58-4.579l-1.415,1.087c-0.948,0.729-1.955,1.402-3.015,2.014c-0.373,0.215-0.753,0.423-1.134,0.62
			c-0.696,0.359-1.404,0.689-2.123,0.985l-1.66,0.686l1.674,6.248l-3.552,0.951L44.4,65.762l-1.781,0.239
			c-0.771,0.101-1.548,0.17-2.332,0.207c-0.429,0.019-0.859,0.028-1.291,0.028c-1.224,0.002-2.432-0.079-3.618-0.235l-1.769-0.235
			l-1.677,6.255l-1.053,3.931l3.931,1.053l1.815-6.773c0.788,0.058,1.58,0.088,2.373,0.088c0.778-0.002,1.567-0.03,2.366-0.092
			l1.819,6.789l3.948-1.057l3.552-0.953l3.947-1.058l-1.818-6.791c0.721-0.347,1.419-0.715,2.094-1.104
			c0.688-0.396,1.358-0.818,2.009-1.26l4.963,4.958l8.37-8.37l-4.967-4.968c0.45-0.659,0.873-1.329,1.263-2.006l-0.004-0.004
			c0.396-0.684,0.765-1.383,1.108-2.092l6.785,1.819l3.064-11.437l-6.775-1.814c0.06-0.788,0.088-1.582,0.088-2.377
			c0-0.775-0.031-1.563-0.092-2.361l6.789-1.82l-3.066-11.445l-6.791,1.818c-0.344-0.723-0.712-1.42-1.101-2.092
			c-0.397-0.688-0.818-1.36-1.264-2.014l4.958-4.961l-8.37-8.371l-4.971,4.971c-0.666-0.458-1.332-0.879-1.999-1.265l-0.01,0.001
			c-0.674-0.387-1.371-0.756-2.091-1.102l1.82-6.789L43.189,0.008l-1.815,6.777c-0.787-0.059-1.579-0.088-2.372-0.088
			c-0.778,0-1.568,0.031-2.367,0.092L34.815,0l-3.948,1.057l-3.552,0.951l-3.948,1.059l1.821,6.789
			c-0.723,0.346-1.421,0.714-2.094,1.103c-0.69,0.396-1.36,0.817-2.013,1.264l-4.96-4.96l-8.37,8.37l4.97,4.972
			c-0.45,0.659-0.868,1.326-1.259,2l-0.007,0.002c-0.386,0.666-0.755,1.365-1.101,2.096l-6.79-1.817L0.502,34.318l6.775,1.813
			c-0.059,0.789-0.087,1.583-0.087,2.376c0,0.777,0.03,1.566,0.092,2.364l-6.79,1.818l3.066,11.447l6.789-1.819
			c0.346,0.723,0.715,1.418,1.103,2.092c0.396,0.69,0.818,1.362,1.264,2.014l-4.96,4.96l8.372,8.37l4.968-4.968
			c0.65,0.445,1.32,0.864,2.006,1.261l-0.004,0.003c0.678,0.393,1.378,0.761,2.098,1.107l-1.817,6.785l3.938,1.052l1.053-3.929
			l1.677-6.259l0.839-3.129L31.944,57.717z"/>
	</g>
</g>
</svg>
