<?xml version="1.0" encoding="utf-8"?>
<!-- Generator: Adobe Illustrator 16.0.0, SVG Export Plug-In . SVG Version: 6.00 Build 0)  -->
<!DOCTYPE svg PUBLIC "-//W3C//DTD SVG 1.1//EN" "http://www.w3.org/Graphics/SVG/1.1/DTD/svg11.dtd">
<svg version="1.1" id="Layer_1" xmlns="http://www.w3.org/2000/svg" xmlns:xlink="http://www.w3.org/1999/xlink" x="0px" y="0px"
	 width="463px" height="318px" viewBox="0 0 463 318" enable-background="new 0 0 463 318" xml:space="preserve">
<g>
	<g>
		<defs>
			<rect id="SVGID_1_" x="-0.064" width="463.129" height="318"/>
		</defs>
		<clipPath id="SVGID_2_">
			<use xlink:href="#SVGID_1_"  overflow="visible"/>
		</clipPath>
		<path clip-path="url(#SVGID_2_)" fill="#99C457" d="M411.145,91.043c0,0-6.971,15.174-11.66,21.583
			c-4.691,6.409-9.158,12.539-12.9,30.329s-3.102,19.578-4.125,24.173c-1.025,4.595-7.691,23.211-7.729,26.625
			c-0.039,3.414-13.473,22.848-16.914,31.943c-3.439,9.095-9.535,22.088-9.193,28.703l1.531-0.389c0,0,1.248-15.425,11.867-31.012
			c10.619-15.588,9.102-18.531,21.16-26.539s19.848-30.128,19.848-30.128s12.268-24.026,11.695-36.517
			C414.154,117.324,417.41,106.061,411.145,91.043"/>
		<path clip-path="url(#SVGID_2_)" fill="#99C457" d="M394.822,67.705c0,0-0.406,9.967-3.621,15.889
			c-3.215,5.921-5.984,9.518-6.568,15.924s-2.604,22.922-11.568,30.986c-8.965,8.063-10.111,32.223-16.936,39.531
			s-7.715,12.562-6.455,25.097s5.541,29.906-4.359,52.581l-2.236-5.64c0,0,7.082-18.654,5.367-29.577s-7.68-27.427-5.498-35.343
			c2.186-7.915-5.936-9.461-1.045-21.434c4.889-11.972,2.881-16.132,9.537-26.483c0,0,0.682-0.484,2.432-9.242
			c1.752-8.758,15.859-24.811,22.361-30.288S392.104,75.449,394.822,67.705"/>
		<path clip-path="url(#SVGID_2_)" fill="#99C457" d="M368.34,117.057c0,0-7.785,13.33-7.896,21.909
			c-0.111,8.58,0.818,15.559-3.121,27.308c-3.939,11.75,3.879,19.177,1.627,25.664c-2.254,6.486-2.428,14.167-2.359,19.991
			s-8.918,25.099-10.287,34.858c-1.367,9.76,0.381,9.792,0.381,9.792s1.49-12.886,3.557-17.146
			c2.068-4.26,8.355-18.949,9.824-24.633s5.451-9.331,8.885-18.956c3.436-9.625,8.316-17.731,7.945-31.389
			C376.521,150.797,382.018,136.382,368.34,117.057"/>
		<path clip-path="url(#SVGID_2_)" fill="#99C457" d="M351.855,247.636c0,0,3.631-16.918,18.941-18.607s24.305,1.338,35.119-11.021
			c10.816-12.359,17.1-31.974,20.555-35.351c0,0-5.436-2.795-14.469,5.651c-9.035,8.446-15.381,14.854-20.613,19.771
			c-5.23,4.918-9.477,1.711-15,4.953c-4.627,2.718-10.611,10.57-13.248,14.684c-0.855,1.336-1.871,2.563-3.037,3.639
			c-1.061,0.979-2.324,2.179-3.135,3.062c-1.621,1.767-6.297,13.28-6.297,13.28L351.855,247.636z"/>
		<path clip-path="url(#SVGID_2_)" fill="#99C457" d="M346.461,244.65c0,0,5.395-20.689,1.781-30.813
			c-3.615-10.124-14.93-17.616-14.475-23.977c0.455-6.359,7.719-23.549,1.797-36.347c0,0-2.25,11.415-4.471,13.955
			c-2.219,2.539-17.455,12.779-14.754,26.304s17.512,16.686,21.16,20.668c3.646,3.98,8.572,3.976,8.604,6.623
			s0.992,12.273-0.645,21.771L346.461,244.65z"/>
		<path clip-path="url(#SVGID_2_)" fill="#99C457" d="M352.359,230.805l7.58-21.835c0,0,4.453-17.563,7.035-32.208
			c2.58-14.646,1.365-59.705,1.365-59.705s-7.787,13.33-7.896,21.909c-0.111,8.58,0.818,15.56-3.121,27.308
			c-3.939,11.749,3.881,19.177,1.627,25.664c-2.254,6.486-2.428,14.167-2.359,19.991s-8.918,25.099-10.287,34.858
			c-0.748,5.347-0.563,7.771-0.242,8.872C344.846,247.123,352.359,230.805,352.359,230.805"/>
		<path clip-path="url(#SVGID_2_)" fill="#99C457" d="M389.697,217.798c-6.762,1.351-12.809,0.89-20.836,6.864
			c-8.027,5.976-12.748,12.356-12.748,12.356s-3.607,6.448-5.1,9.848c-0.215,0.52-0.342,0.83-0.342,0.83l1.184-0.061
			c0,0,3.631-16.918,18.941-18.607s24.305,1.338,35.119-11.021c10.816-12.359,17.1-31.974,20.555-35.351
			c0,0-11.504,8.949-18.613,16.87C400.75,207.447,396.461,216.447,389.697,217.798"/>
		<path clip-path="url(#SVGID_2_)" fill="#99C457" d="M331.094,167.469c-2.219,2.539-17.455,12.779-14.754,26.304
			s17.512,16.686,21.16,20.668c3.646,3.98,8.572,3.976,8.604,6.624c0.031,2.646,0.992,12.272-0.645,21.771l0.438,0.793
			c0.799-3.707,1.908-9.352,2.271-13.639c0.588-6.961-0.541-9.843-2.777-15.482c-2.238-5.64-16.141-17.126-19.625-23.165
			s6.717-16.134,8.982-21.007c2.264-4.874,0.816-16.821,0.816-16.821S333.314,164.929,331.094,167.469"/>
		<path clip-path="url(#SVGID_2_)" fill="#64B35B" d="M367.236,234.655l2.381-5.752c1.846-4.23,6.572-6.251,10.555-4.512
			c10.035,4.381,14.398,16.574,9.744,27.234l-3.402,7.794c-1.49,3.415-0.973,7.171,1.039,9.819c1.824,2.405,2.123,5.75,0.857,8.649
			l-1.795,4.109c-1.941,4.448-5.719,7.743-10.201,9.102c-2.621,0.795-4.936,2.762-6.158,5.566l-2.541,5.817
			c-2.807,6.433-9.992,9.504-16.047,6.861l-3.455-1.509c-6.055-2.643-8.688-10-5.879-16.432c4.539-7.691,4.178-13.432,2.568-17.325
			c-2.365-5.724-2.338-12.311,0.221-18.174l0.359-0.822c2.701-6.188,7.918-10.808,14.129-12.786
			C362.354,241.424,365.213,239.291,367.236,234.655"/>
		<path clip-path="url(#SVGID_2_)" fill="#99C457" d="M324.385,315.883c4.869-6.314,31.574-40.143,48.988-45.78
			c19.221-6.222,1.105,18.492,1.105,18.492s34.098-37.285,46.609-33.924c11.471,3.081,0,26.192,0,26.192s12.92-12.798,28.586-12.798
			c15.246,0-10.652,45.388-12.049,47.817H324.385z"/>
		<path clip-path="url(#SVGID_2_)" fill="#64B35B" d="M427.143,242.704c-13.932,21.758-24.1,45.928-29.912,71.605l-0.955-0.256
			c5.789-25.14,15.889-49.268,29.797-71.002c3.232-5.051,6.723-11.043,12.775-13.014c0.117-0.038,0.16,0.139,0.049,0.182
			C433.369,232.302,430.168,237.98,427.143,242.704"/>
		<path clip-path="url(#SVGID_2_)" fill="#64B35B" d="M400.59,315.21c15.566-21.17,34.494-40.736,56.998-57.752
			c0.225-0.17,0.527,0.222,0.303,0.396c-21.346,16.406-40.229,35.78-56.117,57.675L400.59,315.21z"/>
		<path clip-path="url(#SVGID_2_)" fill="#64B35B" d="M428.416,229.211c0.359,0.527,1.732,1.903,2.135,3.71
			c0.541,1.715,0.113,3.86,0.068,3.785c-0.104,0.043,1.588-1.388,2.117-3.663c0.684-2.183,0.205-5.209-0.646-6.212
			c-1.471-2.268-4.039-2.497-4.537-1.397C427.023,226.525,427.695,228.011,428.416,229.211"/>
		<path clip-path="url(#SVGID_2_)" fill="#64B35B" d="M431.748,248.632c-0.52-0.369-1.867-1.769-3.666-2.207
			c-1.703-0.576-3.857-0.19-3.783-0.143c-0.045,0.103,1.418-1.562,3.703-2.045c2.195-0.641,5.213-0.103,6.199,0.769
			c2.236,1.515,2.416,4.087,1.307,4.563C434.406,250.077,432.934,249.377,431.748,248.632"/>
		<path clip-path="url(#SVGID_2_)" fill="#64B35B" d="M426.719,257.144c-0.52-0.368-1.867-1.768-3.666-2.207
			c-1.705-0.575-3.859-0.19-3.783-0.143c-0.045,0.103,1.418-1.561,3.703-2.045c2.195-0.641,5.213-0.103,6.199,0.769
			c2.236,1.515,2.416,4.087,1.307,4.564C429.377,258.589,427.904,257.889,426.719,257.144"/>
		<path clip-path="url(#SVGID_2_)" fill="#64B35B" d="M444.66,276.888c-0.521-0.369-1.869-1.769-3.668-2.207
			c-1.703-0.576-3.857-0.19-3.783-0.143c-0.045,0.102,1.418-1.562,3.705-2.045c2.195-0.642,5.211-0.103,6.197,0.769
			c2.238,1.514,2.418,4.087,1.309,4.563C447.316,278.333,445.846,277.632,444.66,276.888"/>
		<path clip-path="url(#SVGID_2_)" fill="#64B35B" d="M453.826,268.813c-0.521-0.368-1.869-1.769-3.668-2.207
			c-1.703-0.575-3.857-0.19-3.783-0.143c-0.045,0.103,1.418-1.562,3.703-2.045c2.195-0.641,5.213-0.103,6.199,0.769
			c2.238,1.515,2.416,4.087,1.309,4.564C456.482,270.258,455.012,269.558,453.826,268.813"/>
		<path clip-path="url(#SVGID_2_)" fill="#64B35B" d="M421.379,238.843c0.438,0.464,2.01,1.605,2.693,3.327
			c0.805,1.607,0.721,3.794,0.664,3.728c-0.096,0.058,1.35-1.621,1.512-3.951c0.332-2.264-0.617-5.177-1.617-6.033
			c-1.809-2.007-4.381-1.829-4.701-0.665C419.58,236.41,420.477,237.771,421.379,238.843"/>
		<path clip-path="url(#SVGID_2_)" fill="#64B35B" d="M413.982,248.495c0.623,0.331,2.797,0.93,3.891,2.557
			c1.238,1.448,1.395,3.925,1.313,3.874c-0.115,0.106,1.551-2.389,1.479-5.06c0.154-2.668-1.43-5.512-2.828-6.038
			c-2.586-1.462-5.893-0.158-6.164,1.278C411.359,246.554,412.686,247.688,413.982,248.495"/>
		<path clip-path="url(#SVGID_2_)" fill="#64B35B" d="M406.197,263.116c0.67,0.221,2.914,0.445,4.266,1.865
			c1.465,1.22,2.035,3.635,1.945,3.599c-0.096,0.125,1.127-2.616,0.607-5.236c-0.297-2.656-2.338-5.192-3.803-5.477
			c-2.795-1.007-5.838,0.836-5.863,2.297C403.285,261.644,404.783,262.538,406.197,263.116"/>
		<path clip-path="url(#SVGID_2_)" fill="#64B35B" d="M429.232,273.301c0.488,0.304,2.223,0.915,3.02,2.301
			c0.924,1.248,0.912,3.272,0.848,3.227c-0.102,0.08,1.396-1.855,1.49-4.032c0.277-2.161-0.85-4.564-1.957-5.072
			c-2.02-1.337-4.785-0.464-5.088,0.689C427.209,271.572,428.225,272.569,429.232,273.301"/>
		<path clip-path="url(#SVGID_2_)" fill="#64B35B" d="M441.225,232.634c-0.291-0.241-1.027-1.128-2.072-1.467
			c-0.982-0.414-2.273-0.28-2.232-0.249c-0.031,0.059,0.908-0.861,2.281-1.048c1.326-0.283,3.088,0.168,3.633,0.726
			c1.258,0.994,1.252,2.523,0.574,2.758C442.734,233.605,441.893,233.126,441.225,232.634"/>
		<path clip-path="url(#SVGID_2_)" fill="#64B35B" d="M438.432,226.421c0.014,0.378,0.266,1.503-0.104,2.537
			c-0.271,1.031-1.166,1.972-1.164,1.92c-0.066-0.012,1.234-0.193,2.221-1.167c1.035-0.878,1.754-2.548,1.645-3.32
			c-0.021-1.603-1.236-2.531-1.834-2.138C438.584,224.633,438.451,225.591,438.432,226.421"/>
		<path clip-path="url(#SVGID_2_)" fill="#64B35B" d="M460.426,260.588c-0.291-0.241-1.027-1.128-2.072-1.467
			c-0.982-0.415-2.273-0.281-2.232-0.25c-0.031,0.059,0.908-0.861,2.281-1.047c1.326-0.283,3.088,0.167,3.633,0.726
			c1.258,0.994,1.252,2.523,0.574,2.757C461.936,261.559,461.096,261.08,460.426,260.588"/>
		<path clip-path="url(#SVGID_2_)" fill="#64B35B" d="M457.057,254.321c0.043,0.375,0.389,1.476,0.104,2.537
			c-0.186,1.05-1,2.062-1.002,2.009c-0.066-0.006,1.215-0.294,2.117-1.345c0.959-0.96,1.539-2.684,1.367-3.444
			c-0.15-1.596-1.438-2.422-2.002-1.98C457.063,252.526,457.008,253.492,457.057,254.321"/>
		<path clip-path="url(#SVGID_2_)" fill="#64B35B" d="M454.711,294.816c-14.225,1.56-27.473,7.839-40.229,13.962
			c-8.6,4.129-8.166,5.306-9.918,5.921c-0.283,0.099-0.568-0.209-0.43-0.482c0.674-1.335,2.441-2.238,3.67-3.006
			c1.432-0.894,2.928-1.684,4.443-2.421c3.248-1.576,6.578-2.994,9.887-4.432c6.732-2.925,13.574-5.677,20.686-7.539
			c3.898-1.021,7.867-1.757,11.883-2.119C454.777,294.694,454.785,294.808,454.711,294.816"/>
		<path clip-path="url(#SVGID_2_)" fill="#64B35B" d="M441.891,290.406c0.092,0.583,0.701,2.278,0.326,3.952
			c-0.223,1.65-1.428,3.28-1.438,3.199c-0.104-0.005,1.879-0.536,3.221-2.235c1.434-1.559,2.227-4.285,1.908-5.462
			c-0.336-2.479-2.398-3.686-3.25-2.961C441.783,287.605,441.76,289.116,441.891,290.406"/>
		<path clip-path="url(#SVGID_2_)" fill="#64B35B" d="M429.359,294.894c0.092,0.583,0.699,2.277,0.324,3.951
			c-0.223,1.651-1.428,3.281-1.436,3.2c-0.104-0.005,1.879-0.537,3.219-2.235c1.436-1.559,2.229-4.285,1.91-5.462
			c-0.338-2.479-2.4-3.686-3.252-2.961C429.25,292.093,429.227,293.604,429.359,294.894"/>
		<path clip-path="url(#SVGID_2_)" fill="#64B35B" d="M416.625,300.569c0.092,0.583,0.699,2.278,0.324,3.952
			c-0.221,1.65-1.428,3.28-1.436,3.199c-0.104-0.005,1.879-0.536,3.219-2.235c1.436-1.559,2.229-4.285,1.91-5.462
			c-0.338-2.479-2.4-3.686-3.252-2.961C416.518,297.769,416.494,299.279,416.625,300.569"/>
		<path clip-path="url(#SVGID_2_)" fill="#64B35B" d="M445.633,302.115c-0.258-0.482-0.756-2.07-1.967-3.095
			c-1.084-1.092-2.883-1.621-2.844-1.556c-0.074,0.062,1.684-0.653,3.619-0.15c1.928,0.349,4.033,1.915,4.457,2.96
			c1.135,2.016,0.287,4.056-0.744,3.996C447.115,304.238,446.256,303.139,445.633,302.115"/>
		<path clip-path="url(#SVGID_2_)" fill="#64B35B" d="M432.596,306.729c-0.256-0.481-0.754-2.069-1.965-3.094
			c-1.086-1.093-2.883-1.621-2.844-1.556c-0.074,0.062,1.684-0.653,3.619-0.15c1.928,0.349,4.033,1.915,4.455,2.959
			c1.137,2.017,0.289,4.056-0.742,3.997C434.08,308.853,433.219,307.753,432.596,306.729"/>
		<path clip-path="url(#SVGID_2_)" fill="#64B35B" d="M455.561,297.365c-0.227-0.269-0.748-1.2-1.645-1.683
			c-0.826-0.543-2.023-0.638-1.99-0.602c-0.039,0.048,0.971-0.633,2.252-0.572c1.256-0.036,2.785,0.669,3.189,1.27
			c0.979,1.115,0.717,2.508,0.061,2.607C456.771,298.503,456.086,297.926,455.561,297.365"/>
		<path clip-path="url(#SVGID_2_)" fill="#64B35B" d="M454.055,291.237c-0.051,0.346-0.01,1.413-0.52,2.294
			c-0.42,0.894-1.393,1.602-1.383,1.554c-0.057-0.021,1.16,0.031,2.221-0.69c1.09-0.627,2.023-2.028,2.053-2.751
			c0.25-1.463-0.701-2.513-1.313-2.254C454.492,289.633,454.211,290.483,454.055,291.237"/>
		<path clip-path="url(#SVGID_2_)" fill="#99C457" d="M87.677,207.841c-16.716-14.904-25.311-36.31-29.577-51.642
			c-4.632-16.645-5.307-29.93-5.313-30.062l-0.908-0.056c0.006,0.133,0.684,13.515,5.344,30.271
			c4.307,15.483,12.992,37.107,29.915,52.197L87.677,207.841z"/>
		<path clip-path="url(#SVGID_2_)" fill="#99C457" d="M54.691,122.285c0.824,3.832,0.134,7.452-1.623,10.066
			c-2.754-2.027-4.92-5.276-5.744-9.109c-0.824-3.832-0.134-7.453,1.623-10.066C51.701,115.203,53.867,118.452,54.691,122.285"/>
		<path clip-path="url(#SVGID_2_)" fill="#99C457" d="M49.564,133.197c2.88,2.68,4.563,6.199,4.889,9.588
			c-3.161,0.145-6.64-1.139-9.52-3.818s-4.563-6.199-4.89-9.588C43.206,129.235,46.684,130.518,49.564,133.197"/>
		<path clip-path="url(#SVGID_2_)" fill="#99C457" d="M48.212,144.664c3.579,1.123,6.514,3.615,8.251,6.643
			c-2.598,1.668-6.077,2.148-9.656,1.025s-6.514-3.615-8.251-6.644C41.154,144.021,44.633,143.541,48.212,144.664"/>
		<path clip-path="url(#SVGID_2_)" fill="#99C457" d="M53.724,158.457c2.835,0.895,5.102,3.182,6.386,6.069
			c-2.149,1.806-4.964,2.49-7.799,1.597c-2.835-0.895-5.102-3.182-6.386-6.069C48.075,158.248,50.889,157.563,53.724,158.457"/>
		<path clip-path="url(#SVGID_2_)" fill="#99C457" d="M58.565,138.771c2.231-2.246,5.187-3.204,8.047-2.896
			c0.158,3.027-0.886,6.095-3.117,8.341s-5.186,3.204-8.046,2.896C55.29,144.086,56.334,141.017,58.565,138.771"/>
		<path clip-path="url(#SVGID_2_)" fill="#99C457" d="M61.151,148.656c2.231-2.246,5.186-3.203,8.046-2.896
			c0.159,3.027-0.885,6.096-3.116,8.342c-2.231,2.246-5.187,3.203-8.047,2.896C57.876,153.971,58.92,150.902,61.151,148.656"/>
		<path clip-path="url(#SVGID_2_)" fill="#64B35B" d="M77.603,228.055c-15.436-2.25-28.646-11.395-37.009-18.671
			c-9.08-7.897-14.569-15.361-14.624-15.436l-0.55,0.316c0.055,0.075,5.583,7.594,14.722,15.546
			c8.445,7.349,21.792,16.586,37.419,18.864L77.603,228.055z"/>
		<path clip-path="url(#SVGID_2_)" fill="#64B35B" d="M25.598,190.978c1.949,1.912,2.938,4.281,2.92,6.475
			c-2.379-0.121-4.885-1.179-6.834-3.091c-1.95-1.911-2.938-4.28-2.92-6.475C21.143,188.009,23.648,189.066,25.598,190.978"/>
		<path clip-path="url(#SVGID_2_)" fill="#64B35B" d="M26.806,199.289c2.702,0.452,5.031,1.853,6.521,3.697
			c-1.783,1.297-4.297,1.886-7,1.434c-2.702-0.453-5.031-1.853-6.521-3.697C21.589,199.426,24.103,198.837,26.806,199.289"/>
		<path clip-path="url(#SVGID_2_)" fill="#64B35B" d="M30.42,206.473c2.511-0.72,5.174-0.397,7.345,0.696
			c-0.87,1.966-2.708,3.58-5.22,4.301c-2.511,0.721-5.174,0.397-7.345-0.695C26.07,208.808,27.908,207.193,30.42,206.473"/>
		<path clip-path="url(#SVGID_2_)" fill="#64B35B" d="M38.917,212.376c1.991-0.568,4.187-0.108,6.041,1.078
			c-0.556,1.874-1.93,3.353-3.921,3.92c-1.991,0.568-4.187,0.108-6.041-1.077C35.552,214.422,36.926,212.944,38.917,212.376"/>
		<path clip-path="url(#SVGID_2_)" fill="#64B35B" d="M34.177,199.075c0.435-2.162,1.785-3.853,3.566-4.771
			c1.254,1.699,1.824,3.883,1.389,6.045c-0.435,2.161-1.785,3.852-3.566,4.771C34.312,203.421,33.742,201.236,34.177,199.075"/>
		<path clip-path="url(#SVGID_2_)" fill="#64B35B" d="M39.473,203.829c0.436-2.162,1.786-3.853,3.566-4.771
			c1.253,1.698,1.824,3.883,1.389,6.045c-0.435,2.161-1.785,3.852-3.566,4.771C39.609,208.175,39.038,205.99,39.473,203.829"/>
		<path clip-path="url(#SVGID_2_)" fill="#99C457" d="M86.898,274.255c-17.806,6.759-37.406,3.188-50.714-0.997
			c-14.446-4.544-24.805-10.773-24.908-10.836l-0.395,0.754c0.104,0.063,10.538,6.341,25.08,10.917
			c13.438,4.229,33.24,7.834,51.267,0.991L86.898,274.255z"/>
		<path clip-path="url(#SVGID_2_)" fill="#99C457" d="M9.084,258.806c3.232,1.255,5.717,3.706,7.023,6.56
			c-2.608,1.334-5.917,1.534-9.149,0.278s-5.717-3.706-7.023-6.56C2.544,257.751,5.853,257.55,9.084,258.806"/>
		<path clip-path="url(#SVGID_2_)" fill="#99C457" d="M15.394,268.818c3.152-1.107,6.48-0.753,9.182,0.704
			c-1.116,2.798-3.438,5.137-6.591,6.243c-3.152,1.108-6.48,0.754-9.182-0.703C9.918,272.266,12.241,269.926,15.394,268.818"/>
		<path clip-path="url(#SVGID_2_)" fill="#99C457" d="M23.585,275.862c2.24-2.508,5.272-3.759,8.247-3.703
			c0.261,3.093-0.722,6.337-2.962,8.845c-2.24,2.509-5.272,3.759-8.247,3.703C20.361,281.614,21.345,278.37,23.585,275.862"/>
		<path clip-path="url(#SVGID_2_)" fill="#99C457" d="M35.046,279.499c2.24-2.508,5.272-3.759,8.247-3.703
			c0.261,3.094-0.722,6.337-2.962,8.846c-2.24,2.508-5.272,3.758-8.247,3.702C31.823,285.251,32.806,282.007,35.046,279.499"/>
		<path clip-path="url(#SVGID_2_)" fill="#99C457" d="M24.263,267.749c-1.972-2.566-2.85-5.66-2.641-8.467
			c2.596,0.303,5.251,1.811,7.222,4.378c1.972,2.567,2.85,5.66,2.641,8.467C28.889,271.824,26.234,270.316,24.263,267.749"/>
		<path clip-path="url(#SVGID_2_)" fill="#99C457" d="M36.169,271.476c-2.008-2.537-2.935-5.62-2.772-8.437
			c2.596,0.258,5.269,1.722,7.278,4.259c2.008,2.538,2.935,5.621,2.771,8.437C40.851,275.477,38.178,274.013,36.169,271.476"/>
		<path clip-path="url(#SVGID_2_)" fill="#99C457" d="M50.109,280.495c0.527-1.337,1.573-2.266,2.798-2.648
			c0.588,1.235,0.69,2.703,0.164,4.04c-0.527,1.337-1.573,2.265-2.799,2.648C49.685,283.3,49.583,281.832,50.109,280.495"/>
		<path clip-path="url(#SVGID_2_)" fill="#99C457" d="M125.114,314.577c0,0,22.687-89.723,15.164-98.738
			c-10.397-12.459-18.973,28.873-19.814,25.362c-7.947-33.154-10.064-75.574-35.701-80.064c-14.573-2.552,3.366,31.545,2.287,40.767
			c-1.08,9.222-27.342-21.396-43.301-37.437c-15.959-16.041-24.202-5.885-14.118,14.286c9.75,19.504,41.294,40.817,34.792,43.347
			c-6.502,2.528-45.977-22.659-50.811-11.892c-5.927,13.201,53.287,31.168,47.711,34.134c-5.576,2.966-33.876-6.802-33.103,3.294
			c0.773,10.096,38.817,9.72,38.167,14.16c-1.053,7.19-26.215-9.085-27.321,0.864c-1.131,10.177,33.104,8.319,32.51,16.256
			c-0.341,4.562-7.687-2.318-8.769,3.999c-2.468,14.406,42.661,31.954,42.661,31.954L125.114,314.577z"/>
		<path clip-path="url(#SVGID_2_)" fill="#99C457" d="M142.412,315.126c0,0-21.59-33.103-31.979-39.354
			c-11.07-6.66-2.643,13.278-2.643,13.278s-22.622-26.919-28.911-21.449c-6.288,5.47-0.581,11.804-0.581,11.804
			s-20.309-6.019-23.959,1.436c-5.609,11.455,27.827,20.954,27.827,20.954s-14.354-0.151-11.713,7.582
			C74.436,321.04,142.412,315.126,142.412,315.126"/>
		<path clip-path="url(#SVGID_2_)" fill="#64B35B" d="M54.339,280.841c3.65-7.454,23.959-1.436,23.959-1.436
			s-5.708-6.334,0.581-11.804c6.289-5.47,24.385,10.902,24.385,10.902s-1.897-13.501,11.73-1.607
			c9.734,8.495,27.417,38.229,27.417,38.229L54.339,280.841z"/>
		<path clip-path="url(#SVGID_2_)" fill="#64B35B" d="M116.205,232.01l0.969-0.661c-17.578-26.623-22.944-58.23-24.35-80.058
			c-1.526-23.688,1.152-41.292,1.18-41.467l-1.201-0.35c-0.027,0.177-2.726,17.9-1.194,41.729
			C93.022,173.216,98.438,205.104,116.205,232.01"/>
		<path clip-path="url(#SVGID_2_)" fill="#64B35B" d="M97.463,105.677c0.038,5.349-1.817,9.77-4.779,12.422
			c-3.008-3.824-4.932-8.988-4.971-14.336c-0.038-5.349,1.817-9.771,4.779-12.423C95.501,95.165,97.425,100.328,97.463,105.677"/>
		<path clip-path="url(#SVGID_2_)" fill="#64B35B" d="M87.942,117.697c2.996,4.729,4.226,10.037,3.742,14.594
			c-4.113-1.17-8.253-4.335-11.25-9.063c-2.996-4.729-4.226-10.038-3.742-14.595C80.805,109.804,84.946,112.969,87.942,117.697"/>
		<path clip-path="url(#SVGID_2_)" fill="#64B35B" d="M83.139,132.06c4.313,2.999,7.43,7.508,8.86,12.199
			c-3.793,1.059-8.406,0.19-12.719-2.81c-4.313-3-7.43-7.508-8.86-12.199C74.213,128.191,78.826,129.06,83.139,132.06"/>
		<path clip-path="url(#SVGID_2_)" fill="#64B35B" d="M88.763,157.133c1.881,1.122,3.31,2.922,4.044,4.856
			c-1.544,0.574-3.486,0.363-5.367-0.76c-1.881-1.122-3.31-2.922-4.044-4.855C84.94,155.799,86.882,156.011,88.763,157.133"/>
		<path clip-path="url(#SVGID_2_)" fill="#64B35B" d="M90.292,166.421c1.881,1.122,3.31,2.922,4.043,4.856
			c-1.544,0.575-3.486,0.363-5.367-0.759s-3.31-2.922-4.043-4.856C86.469,165.087,88.412,165.299,90.292,166.421"/>
		<path clip-path="url(#SVGID_2_)" fill="#64B35B" d="M98.055,128.824c3.475-1.969,7.54-1.947,11.144-0.32
			c-0.604,4.014-2.769,7.564-6.244,9.533s-7.539,1.948-11.144,0.32C92.415,134.344,94.58,130.794,98.055,128.824"/>
		<path clip-path="url(#SVGID_2_)" fill="#64B35B" d="M98.749,142.816c3.475-1.969,7.539-1.947,11.144-0.32
			c-0.604,4.014-2.769,7.564-6.244,9.533s-7.54,1.948-11.144,0.32C93.109,148.336,95.273,144.786,98.749,142.816"/>
		<path clip-path="url(#SVGID_2_)" fill="#64B35B" d="M98.059,162.843c2.262-1.281,4.907-1.268,7.253-0.208
			c-0.393,2.611-1.802,4.923-4.064,6.204c-2.262,1.282-4.907,1.269-7.253,0.209C94.388,166.436,95.797,164.125,98.059,162.843"/>
		<path clip-path="url(#SVGID_2_)" fill="#FFB07B" d="M346.105,241.79c2.043,0.331,1.922,0.665,2.186,0.699
			c0.311,0.042,3.996-1.81,3.996-1.81s10.904-5.382,11.482-5.693l7.871-9.902l6.064,2.798c0,0-8.852,10.527-9.412,10.991
			c-0.559,0.464-16.193,5.946-17.553,6.475c0,0-1.371,1.253-2.258,2.01s-2.074,1.058-2.357,1.229
			c-0.041,0.025-1.02,0.542-2.402,0.843c-1.191,0.259-0.197-0.55-0.197-0.55s2.107-0.891,2.004-1.051
			c-0.08-0.124-1.201,0.432-2.516,0.733c-0.338,0.077-0.672,0.152-0.979,0.219c-0.809,0.174-1.162-0.287-0.352-0.609
			c0.287-0.113,0.768-0.29,1.129-0.365c0.391-0.082,0.719-0.287,1.035-0.407c0.629-0.239,1.09-0.405,1.064-0.427
			c-0.031-0.028,0.057-0.167-0.305-0.097c-0.436,0.085-1.313,0.477-1.963,0.551c-0.369,0.041-1.133,0.177-1.133,0.177
			s-1.354,0.13-1.363-0.061c-0.02-0.414,0.813-0.646,1.324-0.635c0.322-0.164,1.131-0.283,1.131-0.283s1.57-0.619,1.479-0.852
			c-0.037-0.093-0.986,0.05-1.994,0.118c-1.064,0.073-1.838,0.073-1.895-0.133c-0.09-0.327,0.758-0.451,0.758-0.451
			s0.748-0.109,0.992-0.165c0.287-0.065,1.131-0.33,1.131-0.33s2.885-1.06,2.781-1.272s-0.58-0.659-0.785-0.657
			c-0.203,0.001-0.566,0.204-0.77,0.205s-0.643-0.038-0.672-0.294c-0.031-0.256,1.1-0.787,1.1-0.787S345.516,241.694,346.105,241.79
			"/>
		<path clip-path="url(#SVGID_2_)" fill="#201D1D" d="M366.162,231.217c0,0,1.965,1.784,2.781,2.371
			c0.68,0.488,3.986,2.082,3.986,2.082s3.293-5.041,4.732-7.568c1.746-3.066,2.955-7.626,2.541-7.75
			c-1.158-0.347-2.752-0.56-4.223,0.116C370.887,222.806,366.162,231.217,366.162,231.217"/>
		<path clip-path="url(#SVGID_2_)" fill="#FE875E" d="M348.014,244.424c-0.875,0.138-1.768-0.027-2.154-0.828
			C345.771,244.545,347.209,245.016,348.014,244.424"/>
		<path clip-path="url(#SVGID_2_)" fill="#201D1D" d="M103.964,209.067c0.122-2.936-0.309-5.834-1.617-8.566
			c-1.125-2.352-3.909-3.686-6.448-3.688c-8.061-0.011-9.086,10.686-14.218,14.812c-1.568,1.261-3.321,2.288-4.804,3.647
			c-5.479,5.021-3.011,14.314,2.02,18.716c3.491,3.054,8.978,4.789,13.28,2.401c2.246-1.246,3.951-3.317,5.166-5.588
			c1.724-3.222,2.835-6.938,4.062-10.372C102.709,216.774,103.803,212.969,103.964,209.067"/>
		<path clip-path="url(#SVGID_2_)" fill="#E42525" d="M105.281,223.281c-2.518-7.638-5.842-7.519-5.842-7.519l2.686,16.265
			c1.555-0.426,3.58-1.372,5.133-1.811C106.742,227.803,105.901,225.163,105.281,223.281"/>
		<path clip-path="url(#SVGID_2_)" fill="#F48C7F" d="M118.006,249.332l-9.206-7.022c0,0-0.926-6.551-2.166-12.364
			c-1.553,0.438-2.955,1.656-4.51,2.082l2.341,13.019l12.065,6.225l3.408,4.38l0.775-4.496L118.006,249.332z"/>
		<path clip-path="url(#SVGID_2_)" fill="#E42525" d="M201.917,238.364c2.859,0,5.541,0.753,7.86,2.071
			c0.293,0.166,0.611,0.318,0.95,0.457c7.074,2.905,14.814-2.475,14.814-10.122v-37.609h-37.609c-7.647,0-13.027-7.74-10.123-14.814
			c0.139-0.338,0.292-0.656,0.458-0.949c1.318-2.319,2.071-5.001,2.071-7.859c0-9.059-7.553-16.353-16.704-15.929
			c-8.281,0.383-14.95,7.186-15.181,15.473c-0.083,2.948,0.636,5.72,1.954,8.117c0.164,0.299,0.314,0.622,0.453,0.967
			c2.882,7.189-2.585,14.995-10.331,14.995h-37.285v85.695c0,20.215,16.387,36.603,36.602,36.603h85.695v-37.484
			c0-7.685-7.765-13.099-14.884-10.203c-0.34,0.139-0.659,0.29-0.954,0.455c-2.535,1.424-5.5,2.173-8.651,2.007
			c-8.12-0.43-14.679-7.028-15.062-15.15C185.558,245.925,192.855,238.364,201.917,238.364"/>
		<path clip-path="url(#SVGID_2_)" fill="#2D2B2C" d="M283.43,217.502c0.133-2.854,1.01-5.499,2.436-7.754
			c0.18-0.285,0.348-0.596,0.502-0.928c3.232-6.931-1.781-14.913-9.42-15.271l-37.568-1.756l-1.756,37.568
			c-0.357,7.639-8.34,12.651-15.271,9.419c-0.332-0.154-0.643-0.321-0.928-0.502c-2.255-1.425-4.898-2.302-7.754-2.436
			c-9.048-0.423-16.687,6.781-16.691,15.942c-0.004,8.29,6.48,15.27,14.747,15.888c2.941,0.22,5.744-0.369,8.199-1.573
			c0.306-0.15,0.636-0.285,0.987-0.407c7.316-2.543,14.859,3.282,14.498,11.02l-1.742,37.245l85.602,4.002
			c20.193,0.943,37.328-14.66,38.271-34.854l4.002-85.602l-37.443-1.751c-7.676-0.358-13.447,7.146-10.887,14.392
			c0.123,0.346,0.258,0.672,0.41,0.974c1.303,2.6,1.914,5.595,1.6,8.736c-0.807,8.091-7.705,14.334-15.836,14.338
			C290.219,234.197,283.006,226.556,283.43,217.502"/>
		<path clip-path="url(#SVGID_2_)" fill="#2D2B2C" d="M178.748,158.35c0.144,2.855-0.474,5.571-1.674,7.954
			c-0.152,0.301-0.288,0.627-0.41,0.972c-2.546,7.211,3.216,14.671,10.854,14.287l37.562-1.889l-1.889-37.563
			c-0.384-7.637,7.076-13.399,14.287-10.854c0.346,0.122,0.67,0.258,0.973,0.41c2.381,1.199,5.098,1.816,7.953,1.674
			c9.047-0.455,15.951-8.365,15.068-17.483c-0.799-8.251-7.928-14.57-16.215-14.386c-2.949,0.066-5.682,0.924-8.01,2.359
			c-0.289,0.18-0.605,0.346-0.941,0.501c-7.036,3.239-15.107-1.828-15.496-9.564l-1.873-37.238l-85.587,4.304
			c-20.189,1.016-35.733,18.205-34.718,38.395l4.304,85.587l37.437-1.883c7.675-0.386,12.692-8.413,9.443-15.377
			c-0.155-0.332-0.322-0.645-0.502-0.93c-1.549-2.461-2.447-5.384-2.438-8.54c0.021-8.131,6.282-15.014,14.375-15.805
			C170.375,142.391,178.292,149.299,178.748,158.35"/>
		<path clip-path="url(#SVGID_2_)" fill="#E42525" d="M255.629,137.619c-2.859,0-5.541-0.753-7.861-2.07
			c-0.293-0.167-0.611-0.319-0.949-0.458c-7.074-2.905-14.814,2.476-14.814,10.122v37.609h37.609c7.646,0,13.027,7.74,10.123,14.814
			c-0.139,0.339-0.291,0.656-0.459,0.949c-1.318,2.319-2.07,5.001-2.07,7.86c0,9.058,7.553,16.352,16.703,15.928
			c8.281-0.383,14.951-7.186,15.182-15.473c0.084-2.947-0.637-5.72-1.953-8.117c-0.164-0.298-0.314-0.622-0.453-0.966
			c-2.881-7.189,2.586-14.996,10.33-14.996h37.285V97.127c0-20.215-16.387-36.602-36.602-36.602h-85.695v37.483
			c0,7.685,7.766,13.099,14.883,10.203c0.342-0.138,0.66-0.29,0.955-0.454c2.535-1.424,5.5-2.174,8.652-2.008
			c8.119,0.43,14.678,7.029,15.061,15.15C271.988,130.059,264.691,137.619,255.629,137.619"/>
		<path clip-path="url(#SVGID_2_)" fill="#FFB07B" d="M78.765,303.567c0,0-0.568,3.949-1.545,5.223
			c-0.328,0.428-0.927,0.969-1.32,1.742c-0.612,1.203-0.273,2.994,0.178,3.98c0.231,0.506-0.017,0.505,0.511,0.668
			c1.563,0.482,3.225-0.331,3.891-1.831c0.372-0.838,0.698-1.956,0.764-3.364c0.167-3.585,1.279-5.408,1.279-5.408L78.765,303.567z"
			/>
		<path clip-path="url(#SVGID_2_)" fill="#FFB07B" d="M95.859,305.374c0,0,0.351,4.452,0.066,5.898
			c-0.152,0.775-1.001,2.37-0.612,3.099c0.389,0.729,0.834,0.912,0.834,0.912l10.091,0.163c0.549,0.009,0.186-0.346-0.257-0.673
			c-0.726-0.534-1.311-0.888-3.628-2.011c-0.151-0.073-0.702-0.425-0.9-0.546c-0.503-0.308-1.008-0.792-1.443-1.277
			c-0.725-0.809-0.788-4.729-0.788-4.729L95.859,305.374z"/>
		<path clip-path="url(#SVGID_2_)" fill="#201D1D" d="M103.745,246.193c0,0,1.271,7.229,0.436,11.968
			c-0.834,4.738-4.838,48.666-4.838,48.666l-4.45,0.252c0,0-0.933-18.35-0.766-20.901c0.167-2.552,1.488-6.822,1.488-6.822
			l-0.443-14.815l5.616-19.463L103.745,246.193z"/>
		<path clip-path="url(#SVGID_2_)" fill="#2D2B2C" d="M90.667,244.673c0,0-3.504,5.285-4.338,9.66s0.612,17.818-0.993,23.551
			c-0.869,3.104-4.161,7.896-4.662,11.906c-0.501,4.01-2.464,14.514-2.464,14.514l4.448,0.884l10.337-26.233l8.108-23.711
			l2.077-12.211L90.667,244.673z"/>
		<path clip-path="url(#SVGID_2_)" fill="#CB2322" d="M93.503,214.598c0,0-4.639-0.296-6.474,1.709
			c-1.835,2.005,4.071,17.865,4.405,20.417s-1.701,9.337-1.701,9.337s10.898,2.198,14.013,0.133c0,0,0.333-18.351,0-20.173
			c-0.333-1.823-3.115-9.236-3.782-9.965C99.295,215.326,93.503,214.598,93.503,214.598"/>
		<path clip-path="url(#SVGID_2_)" fill="#FFB07B" d="M95.047,208.385c0,0-0.024,0.137-0.067,0.37
			c-0.207,1.117-1.003,4.826-1.542,5.846c-0.65,1.231,2.227,5.161,4.995,4.682c0.824-0.143-0.696-3.61-0.624-3.978
			c0.14-0.703,0.33-1.663,0.524-2.646c0.109-0.555,0.221-1.117,0.325-1.646c0.296-1.503,0.538-2.732,0.538-2.732L95.047,208.385z"/>
		<path clip-path="url(#SVGID_2_)" fill="#EA8E50" d="M94.98,208.754c0.043-0.232,0.067-0.369,0.067-0.369l4.149-0.104
			c0,0-0.242,1.229-0.538,2.732c-0.104,0.525-0.214,1.085-0.323,1.637c-0.641-0.095-1.31-0.407-1.981-0.996
			c-0.731-0.642-1.211-1.413-1.5-2.236C94.906,209.154,94.948,208.928,94.98,208.754"/>
		<path clip-path="url(#SVGID_2_)" fill="#FFB07B" d="M97.84,198.933c0,0-1.956-0.227-3.181,1.362s-2.547,6.503,0.498,9.175
			c3.045,2.671,6.053-0.353,6.5-3.56C102.103,202.704,102.276,198.817,97.84,198.933"/>
		<path clip-path="url(#SVGID_2_)" fill="#F7A491" d="M102.557,205.863c-0.363,0.708-0.974,1.101-1.363,0.876
			s-0.41-0.98-0.046-1.688s0.974-1.101,1.362-0.876C102.9,204.399,102.92,205.155,102.557,205.863"/>
		<path clip-path="url(#SVGID_2_)" fill="#201D1D" d="M98.059,198.407c0,0-2.613,4.673-4.481,4.889s-2.114,2.699-2.114,2.699
			s0.668-5.722,2.518-6.825C95.832,198.067,98.059,198.407,98.059,198.407"/>
		<path clip-path="url(#SVGID_2_)" fill="#E42525" d="M80.783,312.561c-2.424,0.443-4.037-0.978-4.876-2.042
			c-0.616,1.205-0.917,3.004-0.464,3.994c0.399,0.872,1.566,0.847,2.484,0.881c0.971,0.036,1.722-0.505,2.204-1.352
			C80.356,313.646,80.588,313.153,80.783,312.561"/>
		<path clip-path="url(#SVGID_2_)" fill="#E42525" d="M101.452,312.216c-2.668,0.687-4.641,0.22-5.745-0.226
			c-0.285,0.808-0.662,1.822-0.461,2.407c0.245,0.716,0.594,0.877,0.901,0.886c2.438,0.063,8.929,0.151,10.787,0.176
			c0.26,0.003,0.403-0.301,0.236-0.501C106.709,314.407,101.651,312.338,101.452,312.216"/>
		<path clip-path="url(#SVGID_2_)" fill="#F7A491" d="M94.067,204.47c0.152,0.83-0.154,1.591-0.683,1.7
			c-0.529,0.108-1.081-0.476-1.233-1.306c-0.152-0.829,0.154-1.59,0.683-1.699S93.916,203.641,94.067,204.47"/>
		<path clip-path="url(#SVGID_2_)" fill="#CB2322" d="M298.27,19.25c0.293,0.012,1.098,0.281,2.275,2.506
			c1.502,2.841,3.699,11.423,3.699,11.423l-6.557,2.442l-0.844-1.791l-1.387-13.79C295.457,20.04,298.188,19.247,298.27,19.25"/>
		<path clip-path="url(#SVGID_2_)" fill="#E42525" d="M289.6,18.014c1.875,0.002,6.516,0.549,8.668,1.237
			c0,0,1.582,13.597-1.424,23.93c-0.672,2.313,0.557,9.587,0.557,9.587l-19.432-0.256c0,0,2.303-17.588,1.436-20.428
			c-0.867-2.842-0.887-12.742-0.887-12.742s0.133-0.02,4.365-0.752C284.855,18.249,287.598,18.011,289.6,18.014"/>
		<path clip-path="url(#SVGID_2_)" fill="#FFB07B" d="M287.336,78.006c0,0,0.43,4.961,1.221,6.335
			c0.789,1.374-0.043,3.71-0.084,4.03s-1.664,0.778-4.242,0.504c-2.58-0.275-2.539-0.87-2.33-1.832
			c0.207-0.962,1.58-2.198,1.664-3.114s-0.791-4.214-0.791-4.214L287.336,78.006z"/>
		<path clip-path="url(#SVGID_2_)" fill="#201D1D" d="M295.209,48.673c0,0,13.414-0.745,16.408,1.069
			c2.996,1.814-2.127,10.717-2.127,10.717s-9.334-0.43-27.617,0.625c-4.328,0.25-4.701-11.288-3.893-12.242
			C278.791,47.887,295.209,48.673,295.209,48.673"/>
		<path clip-path="url(#SVGID_2_)" fill="#2D2B2C" d="M283.908,89.26c-2.656-0.283-2.328-1.588-2.113-2.578
			c0.135-0.62,0.896-1.351,1.35-2.043c0.238,0.189,0.623,0.523,1.777,0.864c1.197,0.354,2.84-0.347,3.885-0.785
			c0.373,1.388,0.391,3.157,0.355,3.426C289.119,88.475,286.564,89.543,283.908,89.26"/>
		<path clip-path="url(#SVGID_2_)" fill="#2D2B2C" d="M285.373,58.269c0.537,4.056,3.189,24.243,3.189,24.243l-6.156,0.764
			c0,0-7.57-26.35-7.182-30.38c0.387-4.03,3.221-4.37,3.221-4.37S283.955,47.534,285.373,58.269"/>
		<path clip-path="url(#SVGID_2_)" fill="#FFB07B" d="M278.305,20.854c1.816-0.682,2.705,15.688,2.951,22.426
			c3.217,0.311,8.824,0.003,10.221-0.102c0.656-0.05,2.172-0.604,2.824-0.689c0.67-0.088,1.275-0.134,1.605-0.076
			c0.121,0.021,3.475,1.393,3.762,1.693c0.355,0.373,1.316,1.313,1.154,1.721c-0.162,0.406-1.85-1.135-1.85-1.135l-0.824-0.462
			c1.025,1.003,2.984,2.323,2.703,2.805c-0.275,0.47-2.043-0.872-3.301-1.785c1.08,0.976,2.42,2.721,2.111,2.993
			c-0.277,0.244-1.803-1.776-3.434-2.358c-0.605-0.216-1.207,0.382-1.684,0.454c-0.348,0.053-0.889,0.166-1.23,0.068l-1.766-0.501
			c-0.602,0.055-0.617,0.41-1.225,0.54c-0.705,0.15-1.861,0.309-2.76,0.527c-5.172,1.264-6.896,1.85-8.479,1.85
			C274.289,48.818,274.012,22.465,278.305,20.854"/>
		<path clip-path="url(#SVGID_2_)" fill="#CB2322" d="M274.857,36.223c-0.34-6.902-0.291-15.409,3.578-16.86
			c1.527-0.573,4.217,2.87,3.734,17C280.104,36.533,277.072,36.67,274.857,36.223"/>
		<path clip-path="url(#SVGID_2_)" fill="#FFB07B" d="M305.34,82.249c0,0-0.537,1.723,0.424,2.862
			c0.963,1.139,4.959,2.256,5.484,2.873c0.523,0.617,0.484,1.143,0.484,1.143l-11.219-0.309l0.123-3.389l0.516-2.436L305.34,82.249z
			"/>
		<path clip-path="url(#SVGID_2_)" fill="#2D2B2C" d="M306.461,85.679c0,0-2.883,1.166-4.273,0.476
			c-1.393-0.69-1.352-0.882-1.754-0.624c-0.402,0.257-0.547,3.434-0.547,3.434l12.615,0.37c0.877-0.02,1.32-0.666,0.607-1.22
			c-0.488-0.38-1.055-0.634-1.375-0.817C310.748,86.73,306.461,85.679,306.461,85.679"/>
		<path clip-path="url(#SVGID_2_)" fill="#2D2B2C" d="M304.914,51.853c0.867-1.825,2.84-4.2,6.309-2.771
			c3.309,1.365,4.197,4.719,3.154,8.154c-1.045,3.434-7.918,23.624-8.158,26.4l-5.488,0.036c0,0,0.998-15.987,1.242-19.851
			C302.207,60.104,303.414,55.01,304.914,51.853"/>
		<path clip-path="url(#SVGID_2_)" fill="#888A8D" d="M313.824,33.257h-18.348c-0.484,0-0.922,0.294-1.105,0.745l-5.648,13.824
			h-10.115c-0.283,0-0.512,0.229-0.512,0.514c0,0.283,0.229,0.514,0.512,0.514h28.787c0.791,0,1.508-0.467,1.832-1.191l5.689-12.713
			C315.27,34.154,314.691,33.257,313.824,33.257"/>
		<path clip-path="url(#SVGID_2_)" fill="#FFFFFF" d="M303.945,41.307c-0.123,0.621-0.662,1.036-1.205,0.928
			c-0.541-0.109-0.881-0.701-0.756-1.321c0.123-0.621,0.662-1.036,1.205-0.928C303.73,40.094,304.07,40.686,303.945,41.307"/>
		<path clip-path="url(#SVGID_2_)" fill="#0E2E35" d="M293.959,1.406c-0.553-0.187-1.096-0.396-1.621-0.65
			c-0.596-0.286-1.365-0.622-1.852-0.697c-1.023-0.158-2.783-0.053-3.754,1.002c-1.211,1.313-3.361,0.236-2.928,7.111
			c0.49,7.783,4.818,6.928,4.924,6.797c0.104-0.132,3.857-4.979,3.857-4.979s1.313,2.871,1.313,2.766
			C293.898,12.654,300.602,3.643,293.959,1.406"/>
		<path clip-path="url(#SVGID_2_)" fill="#FFB07B" d="M290.676,15.543l0.373,2.781c0,0,0.836,4.006-0.24,4.778
			s-4.578-4.893-4.578-4.893l0.369-7.046L290.676,15.543z"/>
		<path clip-path="url(#SVGID_2_)" fill="#EA8E50" d="M286.48,13.447c0.891,2.403,3.008,3.881,4.512,4.453l-0.316-2.357
			l-4.074-4.379L286.48,13.447z"/>
		<path clip-path="url(#SVGID_2_)" fill="#FFB07B" d="M290.453,3.496c2.281-0.368,4.328,1.467,4.271,3.75
			c-0.025,0.992-0.107,2.232-0.313,3.566c-0.496,3.21-2.686,6.037-4.135,5.784c-1.447-0.252-5.092-3.021-4.451-7.589
			C286.223,6.188,288.061,3.883,290.453,3.496"/>
		<path clip-path="url(#SVGID_2_)" fill="#FFB07B" d="M286.832,9.553c-0.121,0.705-0.688,1.197-1.264,1.096
			c-0.574-0.1-0.941-0.754-0.82-1.459c0.123-0.706,0.688-1.197,1.264-1.097S286.955,8.847,286.832,9.553"/>
		<path clip-path="url(#SVGID_2_)" fill="#201D1D" d="M286.012,8.093c0,0,1.75,0.435,2.4-0.69c0.65-1.127,2.973-3.557,5.928-2.549
			c2.953,1.008-2.6-2.45-2.836-2.45s-3.072-0.021-3.072-0.021s-2.186,1.799-2.264,1.996s-0.709,2.352-0.709,2.352L286.012,8.093z"/>
		<path clip-path="url(#SVGID_2_)" fill="#A16D3C" d="M235.324,234.602c0.121,0.42,0.191,0.559,0.346,0.841
			c1,1.818,3.316,4.413,3.316,4.413l1.793-4.04c0,0-0.291-1.268-0.799-3.081C238.25,233.187,236.6,233.448,235.324,234.602"/>
		<path clip-path="url(#SVGID_2_)" fill="#CB2322" d="M245.604,231.098c0,0-10,4.307-10.324,4.225
			c-0.209-0.054-4.102-6.571-4.145-12.701c-0.018-2.83,2.922-6.235,6.201-5.563c1.652,0.34,1.627,0.799,4.07,4.349
			C243.85,224.958,245.604,231.098,245.604,231.098"/>
		<path clip-path="url(#SVGID_2_)" fill="#A16D3C" d="M254.141,308.313c0,0-0.236,3.929-0.238,3.937
			c-0.088,0.498-0.432,1.73-0.432,2.184c0,1.703,8.088-1.445,6.275-2.2c-0.164-0.068-1.023-0.585-1.078-1.165
			c-0.082-0.893-0.293-2.699-0.293-2.699L254.141,308.313z"/>
		<path clip-path="url(#SVGID_2_)" fill="#E42525" d="M259.727,312.216c0,0-1.898,0.521-2.871,0.651
			c-0.973,0.131-2.256-0.967-2.943-0.67c-0.756,0.326-0.727,3.261-0.727,3.261s10.182,0.836,13.045-0.028
			C267.365,315.087,263.607,313.43,259.727,312.216"/>
		<path clip-path="url(#SVGID_2_)" fill="#A16D3C" d="M237.598,308.313c0,0-0.238,3.929-0.238,3.937
			c-0.088,0.498-0.432,1.73-0.432,2.184c0,1.703,8.088-1.445,6.275-2.2c-0.164-0.068-1.279-0.971-1.332-1.551
			c-0.084-0.893-0.039-2.313-0.039-2.313L237.598,308.313z"/>
		<path clip-path="url(#SVGID_2_)" fill="#E42525" d="M243.184,312.216c0,0-1.898,0.521-2.871,0.651
			c-0.973,0.131-2.256-0.967-2.943-0.67c-0.756,0.326-0.787,3.261-0.787,3.261s10.229,0.975,13.105-0.028
			C250.805,315.04,247.064,313.43,243.184,312.216"/>
		<path clip-path="url(#SVGID_2_)" fill="#A16D3C" d="M240.068,236.778l7.123-9.979c0.031-0.087,0.096-0.266,0.193-0.539
			c0.359-0.99,1.105-3.05,1.756-5.1l0.008-0.021c0.203-0.717,0.637-1.967,1.055-3.176c0.467-1.344,1.045-3.011,1.064-3.295
			c-0.018-0.049-0.051-0.137-0.096-0.252c-0.262-0.678-0.615-2.293-0.74-2.994c-0.078-0.447-0.158-1.534,0.373-1.534
			c0.836,0,0.438,1.086,0.822,1.764c0.143-0.453,0.428-1.353,0.58-2.262l0.139-2.121c0.027-0.16-0.143-1.33,0.443-1.33l0.027,0.001
			c0.527,0.038,0.516,1.282,0.734,3.387c0.068-0.242,0.139-0.534,0.189-0.803c-0.006-0.144,0.1-0.776,0.178-1.11
			c-0.105-0.586-0.043-1.511,0.582-1.424c0.313,0.044,0.287,1.334,0.287,1.334c-0.004,0.178-0.023,1.542-0.014,1.812
			c0.064-0.458,0.314-2.41,0.805-2.41c0.406,0,0.439,0.525,0.432,0.941c-0.006,0.246-0.262,2.361-0.275,2.607
			c0.191-0.32,0.418-2.186,0.607-2.186c0.793,0,0.506,2.651,0.215,3.342c-0.027,0.071-0.057,0.21-0.09,0.37
			c-0.1,0.473-0.266,1.263-0.68,1.973c-0.498,0.851-1.184,2.203-1.287,2.411c-0.078,0.423-0.316,1.942-0.615,3.854
			c-0.129,0.818-0.27,1.716-0.416,2.645l-0.008-0.001c-0.027,0.201-0.176,0.841-0.738,3.239c-0.771,3.282-0.852,3.424-0.885,3.484
			c-0.336,0.593-8.016,11.021-8.342,11.466l-0.193,0.262L240.068,236.778z"/>
		<path clip-path="url(#SVGID_2_)" fill="#935C2F" d="M253.316,213.507c0,0-0.578-1.479-1.607-1.481c0,0,0.576-0.207,1.068,0.184
			C253.271,212.599,253.316,213.507,253.316,213.507"/>
		<path clip-path="url(#SVGID_2_)" fill="#A16D3C" d="M238.348,210.65l-0.916,5.799c0,0,3.494,2.805,5.529,2.213
			c1.709-0.496,0.537-2.73,0.537-2.73s-0.91-3.095-0.631-4.718S238.348,210.65,238.348,210.65"/>
		<path clip-path="url(#SVGID_2_)" fill="#935C2F" d="M239.006,212.403c0.877,0.414,2.607,0.978,3.955,1.114
			c-0.129-0.812-0.203-1.67-0.094-2.304c0.129-0.749-0.824-0.926-1.887-0.9c-1.393,0.119-2.633,0.337-2.633,0.337l-0.176,1.114
			C238.438,212.044,238.715,212.266,239.006,212.403"/>
		<path clip-path="url(#SVGID_2_)" fill="#A16D3C" d="M233.939,203.962c-0.145,0,1.381,6.479,3.742,7.593
			c2.359,1.114,5.879,0.533,6.539-1.212c0.732-1.93-1.934-8.538-5.254-9.377C235.648,200.126,233.939,203.962,233.939,203.962"/>
		<path clip-path="url(#SVGID_2_)" fill="#201D1D" d="M236.67,198.01c-1.885,1.088-2.75,2.7-3.041,3.361
			c-0.885,0.42-1.955,1.328-2.469,3.775c-0.633,3.009,1.613,5.328,3.996,6.026c2.383,0.697,2.75,2.273,2.75,2.273l0.27-1.696
			c0,0-0.529-1.477-1.326-2.216s0.377-1.816,0.48-2.695c0.08-0.677-0.418-1.99-0.311-3.101c0,0,1.324-2.006,2.629-2.502
			C241.873,200.392,239.09,196.614,236.67,198.01"/>
		<path clip-path="url(#SVGID_2_)" fill="#A16D3C" d="M237.674,207.967c0.309,0.748,0.182,1.491-0.281,1.659
			c-0.465,0.168-1.09-0.303-1.398-1.051s-0.184-1.491,0.281-1.659C236.738,206.748,237.365,207.219,237.674,207.967"/>
		<path clip-path="url(#SVGID_2_)" fill="#935C2F" d="M246.467,236.938l13.738-2.24c0,0-1.563-3.936-2.121-3.936
			s-10.389,4.292-10.389,4.292l-0.783,1.569L246.467,236.938z"/>
		<path clip-path="url(#SVGID_2_)" fill="#CBCDCE" d="M239.43,246.358c0,0-1.371,6.625-0.813,11.649s0.602,22.871,0.602,22.871
			l-2.131,28.555l5.057,0.109c0,0,5.998-28.54,5.885-27.808c-0.111,0.732,2.012-20.096,2.012-20.096l-7.15-15.909L239.43,246.358z"
			/>
		<path clip-path="url(#SVGID_2_)" fill="#E3E4E5" d="M240.77,246.044c0,0-0.895,5.966,0.223,8.583
			c1.117,2.616,9.582,28.29,9.693,30.384c0.111,2.093,2.926,25.23,2.926,25.23l5.881-0.165l1.271-25.725l-2.664-32.331l-2.586-8.174
			L240.77,246.044z"/>
		<path clip-path="url(#SVGID_2_)" fill="#A16D3C" d="M237.432,216.449c0,0,1.449,0.951,2.803,0.841
			c1.352-0.11,3.264-1.358,3.264-1.358l-0.266-0.9c0,0-3.498-0.51-3.586-0.454C239.557,214.632,237.432,216.449,237.432,216.449"/>
		<path clip-path="url(#SVGID_2_)" fill="#A16D3C" d="M252.887,230.569c0,0,5.197,4.904,7.543,4.066
			c2.346-0.837,3.316-3.699-2.408-7.887C252.898,223.001,252.887,230.569,252.887,230.569"/>
		<path clip-path="url(#SVGID_2_)" fill="#E42525" d="M256.408,236.624c-0.773-4.199-6.367-17.27-6.814-19.677
			c-0.217-1.171-3.234-1.196-6.109-1.044c-3.037,0.162-6.053,0.546-6.053,0.546s-2.688,0.441-3.871,1.55
			c-1.182,1.107-1.496,4.172,0.203,9.99c1.342,4.592,3.006,7.114,3.83,10.459c0.166,1.122,0.309,2.229,0.498,3.522
			c0.303,5.002-0.004,11.609-0.004,11.609s14.633,3.035,20.107-1.57C258.195,252.01,257.199,240.928,256.408,236.624"/>
		<path clip-path="url(#SVGID_2_)" fill="#CB2322" d="M260.139,227.594c0,0-5.742,4.739-6.076,4.739
			c-0.217,0-8.195-5.869-10.035-10.69c-1.02-2.665,1.117-5.647,3.557-5.637c1.689,0.007,2.441,0.442,5.793,3.268
			C256.727,222.1,260.139,227.594,260.139,227.594"/>
		<path clip-path="url(#SVGID_2_)" fill="#201D1D" d="M159.133,16.031c0.94-2.265,1.897-4.533,4.339-5.681
			c1.976-0.928,4.04-0.579,5.795,0.741c4.974,3.74,0.64,7.861,6.302,14.955c1.759,2.203,3.889,3.982,4.942,6.565
			c1.476,3.615-0.281,5.351-3.098,7.083c-13.478,8.283-20.542-8.725-20.289-12.616C157.314,24.185,158.527,17.488,159.133,16.031"/>
		<path clip-path="url(#SVGID_2_)" fill="#A16D3C" d="M145.146,60.116c0.568-0.09,1.948-1.079,2.436-1.169
			c0.377-0.069,1.194-0.193,1.542-0.245c0.426-1.591,2.591-10.269,2.833-12.813c0.263-2.755,2.211-14.677,2.211-14.677l5.046,0.917
			c0,0-2.096,9.171-2.675,13.618c-0.498,3.819-4.688,12.407-5.221,13.313c0,0.022-0.001,0.043-0.002,0.065
			c-0.081,1.349-0.73,0.899-0.73,0.899l-1.055,0.27c0,0-3.734,0.359-3.978,0.449C145.309,60.835,144.578,60.206,145.146,60.116"/>
		<path clip-path="url(#SVGID_2_)" fill="#201D1D" d="M158.568,24.244c-3.567,1.209-5.595,10.906-5.595,10.906
			s5.596,1.563,7.03,0.743c0,0,1.627-7.214,2.21-6.962L158.568,24.244z"/>
		<path clip-path="url(#SVGID_2_)" fill="#A16D3C" d="M130.976,76.871c-1.092,2.878-1.658,5.65-1.709,5.986
			c-0.024,0.161,0.203,0.943,0.182,1.111c-2.191,2.988-5.34,3.643-8.039,3.832c1.376-1.342,3.396-2.615,3.493-3.04
			c0.155-0.677,0.986-3.692,1.394-7.87C127.976,77.668,129.115,77.053,130.976,76.871"/>
		<path clip-path="url(#SVGID_2_)" fill="#CB2322" d="M162.02,44.667l4.821,13.577c0,0-7.747,1.458-10.643,1.989
			c-2.896,0.531-19.078,1.238-19.488,1.525c-0.304,0.213-3.647,11.024-5.14,16.985c-1.694,0.373-4.594-0.074-6.136-0.606
			c0.833-8.529,3.843-22.042,4.808-23.514C131.811,52.229,162.02,44.667,162.02,44.667"/>
		<path clip-path="url(#SVGID_2_)" fill="#A16D3C" d="M143.188,82.822c-0.533,3.032-0.569,5.861-0.557,6.201
			c0.006,0.162,0.376,0.889,0.387,1.057c-1.592,3.347-4.563,4.578-7.178,5.271c1.1-1.576,2.845-3.205,2.861-3.641
			c0.025-0.694,0.276-3.812-0.105-7.992C140.39,84.168,141.394,83.35,143.188,82.822"/>
		<path clip-path="url(#SVGID_2_)" fill="#E42525" d="M167.647,45.372l1.87,3.193c2.847,4.862,0.665,11.118-4.588,13.155
			c-0.028,0.012-0.057,0.022-0.084,0.033c-2.745,1.064-18.507,4.791-18.856,5.15c-0.259,0.266-1.517,11.512-1.866,17.647
			c-1.594,0.683-4.526,0.787-6.141,0.554c-0.78-8.535-0.355-22.373,0.315-23.998C139.391,58.459,167.647,45.372,167.647,45.372"/>
		<path clip-path="url(#SVGID_2_)" fill="#E42525" d="M142.389,89.117c0.42-0.463,1.96,2.088,2.346,2.632
			c0.433,0.612,0.31,1.073,0.258,1.17c-0.137,0.253-8.262,5.032-10.243,5.373c-0.187,0.032-0.511-0.087-0.593-0.159
			c-0.774-0.686,2.79-5.746,4.391-6.412C139.582,91.291,140.501,91.203,142.389,89.117"/>
		<path clip-path="url(#SVGID_2_)" fill="#E42525" d="M129.007,82.949c0.499-0.377,1.535,2.418,1.811,3.024
			c0.311,0.683,0.104,1.112,0.035,1.197c-0.182,0.223-9.058,3.396-11.068,3.358c-0.19-0.004-0.486-0.181-0.553-0.268
			c-0.633-0.818,3.817-5.121,5.514-5.475C125.842,84.559,126.762,84.644,129.007,82.949"/>
		<path clip-path="url(#SVGID_2_)" fill="#2D2B2C" d="M161.951,24.216L161.951,24.216L161.951,24.216
			c-0.092,0.001-0.225-0.032-0.36-0.074c-0.662-0.118-2.11-0.292-3.238,0.184c-1.371,0.578-3.495,5.981-3.368,11.528
			c0.051,0.848,0.102,1.606,0.146,2.136c0.346,4.189,1.548,12.051,1.613,12.093c1.635,1.053,11.5-3.027,12.178-3.924
			S170,34.373,170.33,33.83l0.648-9.471C169.833,24.018,163.705,24.203,161.951,24.216"/>
		<path clip-path="url(#SVGID_2_)" fill="#A16D3C" d="M165.949,20.729c0,0-0.635,3.285-0.508,4.581s-0.484,5.473-3.228,5.486
			s-0.521-5.31-0.263-6.58c0.259-1.271,0.32-5.201,0.32-5.201L165.949,20.729z"/>
		<path clip-path="url(#SVGID_2_)" fill="#935C2F" d="M162.214,20.986c0.042-1.074,0.057-1.972,0.057-1.972l3.678,1.714
			c0,0-0.13,0.672-0.26,1.527C164.079,22.58,162.912,21.983,162.214,20.986"/>
		<path clip-path="url(#SVGID_2_)" fill="#A16D3C" d="M167.293,11.661c0,0,1.417,0.786,1.936,2.49s-0.071,6.103-3.733,7.164
			c-3.661,1.062-5.248-2.421-4.493-5.144C161.756,13.448,163.397,10,167.293,11.661"/>
		<path clip-path="url(#SVGID_2_)" fill="#A16D3C" d="M160.544,15.116c0.071,0.731,0.475,1.29,0.901,1.248
			c0.426-0.042,0.713-0.669,0.641-1.399c-0.072-0.731-0.475-1.291-0.901-1.248C160.76,13.758,160.473,14.385,160.544,15.116"/>
		<path clip-path="url(#SVGID_2_)" fill="#201D1D" d="M166.864,11.438c0,0,0.664,4.906,2.25,5.792
			c1.586,0.885,0.922,3.062,0.922,3.062s1.439-5.054,0.185-6.677C168.967,11.992,166.864,11.438,166.864,11.438"/>
		<path clip-path="url(#SVGID_2_)" fill="#A16D3C" d="M168.175,17.934c-0.43,0.641-0.429,1.395,0.003,1.685
			c0.432,0.291,1.131,0.009,1.561-0.631s0.429-1.394-0.003-1.685C169.304,17.013,168.605,17.295,168.175,17.934"/>
		<path clip-path="url(#SVGID_2_)" fill="#201D1D" d="M175.652,59.707c0.124-0.006,11.125-0.56,11.125-0.56s-4.565,3.28-4.658,3.28
			c-0.093,0-3.636-1.398-3.791-1.398S175.652,59.707,175.652,59.707"/>
		<path clip-path="url(#SVGID_2_)" fill="#FFB07B" d="M398.393,308.474c0,0,0.217,3.859,0.219,3.867
			c0.08,0.489,0.395,1.7,0.395,2.146c0,1.673-7.424-1.421-5.76-2.162c0.15-0.067,0.939-0.575,0.99-1.144
			c0.076-0.878,0.27-2.653,0.27-2.653L398.393,308.474z"/>
		<path clip-path="url(#SVGID_2_)" fill="#2D2B2C" d="M393.176,312.341c0,0,1.742,0.512,2.635,0.64s2.07-0.949,2.701-0.658
			c0.695,0.32,0.668,3.204,0.668,3.204s-9.346,0.82-11.975-0.028C386.164,315.161,389.611,313.533,393.176,312.341"/>
		<path clip-path="url(#SVGID_2_)" fill="#FFB07B" d="M410.754,308.273c0,0,0.217,3.859,0.219,3.867
			c0.08,0.489,0.396,1.7,0.396,2.146c0,1.673-7.424-1.421-5.76-2.162c0.15-0.066,1.172-0.953,1.223-1.523
			c0.076-0.877,0.035-2.273,0.035-2.273L410.754,308.273z"/>
		<path clip-path="url(#SVGID_2_)" fill="#2D2B2C" d="M405.627,312.108c0,0,1.742,0.512,2.635,0.64s2.07-0.949,2.701-0.658
			c0.695,0.32,0.723,3.203,0.723,3.203s-9.279,0.382-12.029-0.028C398.574,315.104,402.064,313.301,405.627,312.108"/>
		<path clip-path="url(#SVGID_2_)" fill="#CB2322" d="M408.553,246.981c0,0,1.258,6.509,0.744,11.445
			c-0.512,4.936-0.553,22.47-0.553,22.47l2.365,28.045l-5.051,0.117c0,0-5.504-28.04-5.402-27.321
			c0.104,0.721-1.846-19.743-1.846-19.743l6.563-15.63L408.553,246.981z"/>
		<path clip-path="url(#SVGID_2_)" fill="#E42525" d="M406.793,242.777c0,0,5.699,6.003,3.578,12.56
			c-0.852,2.634-8.795,27.795-8.896,29.852c-0.104,2.057-2.686,24.788-2.686,24.788l-5.398-0.162l-1.168-25.273l1.543-34.053
			l3.275-5.743L406.793,242.777z"/>
		<path clip-path="url(#SVGID_2_)" fill="#2D2B2C" d="M372.189,223.238c1.867-2.082,5.928-5.045,5.928-5.045s2.42-2.067,3.408-2.407
			c1.451-0.501,3.938-1.836,7.535,3.615c2.574,3.901,18.816,24.102,21.484,24.781l-17.412,8.33
			c-0.477-3.979-9.084-11.495-10.322-12.897C380.043,236.48,370.424,225.21,372.189,223.238"/>
		<path clip-path="url(#SVGID_2_)" fill="#FFB07B" d="M373.002,214.774l5.424,3.176c0,0,0.152,4.63-1.621,5.832
			c-1.486,1.01-2.619-1.412-2.619-1.412s-2.018-2.795-3.549-3.666C369.104,217.833,373.002,214.774,373.002,214.774"/>
		<path clip-path="url(#SVGID_2_)" fill="#EA8E50" d="M373.912,216.813c-0.205,0.966-0.676,2.362-1.408,3.513
			c-0.598-0.646-1.27-1.281-1.867-1.621c-0.707-0.401-0.258-1.27,0.432-2.088c0.973-1.013,1.934-1.842,1.934-1.842l1.041,0.61
			C374.111,215.78,373.98,216.491,373.912,216.813"/>
		<path clip-path="url(#SVGID_2_)" fill="#FFB07B" d="M370.178,206.816c0.09-0.112,4.549,5.438,3.998,8.041
			c-0.549,2.604-3.244,4.979-5.117,4.325c-2.072-0.722-5.926-7.256-4.543-10.429C365.896,205.582,370.178,206.816,370.178,206.816"
			/>
		<path clip-path="url(#SVGID_2_)" fill="#201D1D" d="M365.295,205.066c1.943-1.081,5.113-1.392,7.482-0.151
			c2.912,1.525,3.576,5.361,2.664,7.702s0.133,3.663,0.133,3.663l-1.545-0.902c0,0-0.902-1.408-1.02-2.531
			c-0.119-1.122-1.756-0.924-2.557-1.433c-0.615-0.393-1.4-1.666-2.396-2.327c0,0-2.508-0.308-3.742,0.385
			C362.211,210.651,362.51,206.614,365.295,205.066"/>
		<path clip-path="url(#SVGID_2_)" fill="#FFB07B" d="M371.707,212.35c-0.014,0.832,0.379,1.515,0.879,1.522s0.916-0.66,0.932-1.493
			c0.014-0.832-0.381-1.514-0.879-1.522C372.139,210.849,371.721,211.517,371.707,212.35"/>
		<path clip-path="url(#SVGID_2_)" fill="#FFB07B" d="M361.211,251.88c0.592-0.863,0.85-2.11,1.668-3.062
			c0.273-0.319,0.711-0.679,1.209-1.038c3.932-2.301,14.178-8.231,14.576-8.692c0.473-0.546,7.465-12.163,7.465-12.163l-6.281-1.423
			l-6.137,10.837c-0.512,0.407-10.254,7.607-10.254,7.607s-1.938,1.514-2.996,2.222c-0.535,0.313-1.053,0.515-1.508,0.673
			c-0.572,0.198-1.66,0.741-1.881,0.935c-0.256,0.226-0.768,0.707-1.072,1.001s-0.674,0.626-0.816,0.801
			c-0.086,0.105-0.355,0.253-0.553,0.352c-0.295,0.146-0.256,0.582,0.059,0.672c0.299,0.084,0.701-0.103,0.951-0.22
			c0.705-0.332,1.568-1.227,1.613-1.117s-0.83,2.026-0.916,2.253c-0.086,0.226-1.09,2.459-1.141,2.957
			c-0.053,0.498,0.248,0.613,0.471,0.432c0.193-0.157,1.809-3.14,1.809-3.14s0.207-0.381,0.287-0.163s-1.381,2.929-1.523,3.374
			c-0.143,0.444-0.029,0.81,0.381,0.653c0.502-0.189,1.883-3.18,1.883-3.18s0.18-0.372,0.303-0.242
			c0.123,0.129-1.158,2.415-1.174,2.679c-0.014,0.264,0.225,0.522,0.57,0.303c0.406-0.259,1.617-2.939,1.617-2.939
			s0.15-0.177,0.197-0.053c0.047,0.125-0.906,2.152-0.836,2.448c0.061,0.249,0.283,0.199,0.283,0.199
			C359.965,254.843,360.619,252.743,361.211,251.88"/>
		<path clip-path="url(#SVGID_2_)" fill="#2D2B2C" d="M384.408,233.062c0,0-2.045-0.65-3.355-1.251
			c-0.879-0.402-4.711-2.31-4.711-2.31s1.652-6.97,2.768-9.476c4.1-9.197,8.758-2.854,9.391-1.376
			C389.912,221.957,384.408,233.062,384.408,233.062"/>
		<path clip-path="url(#SVGID_2_)" fill="#B4B6B8" d="M455.08,315.319H30.953c-0.565,0-1.023,0.585-1.023,1.307
			s0.458,1.307,1.023,1.307H455.08c0.564,0,1.023-0.585,1.023-1.307S455.645,315.319,455.08,315.319"/>
		<path clip-path="url(#SVGID_2_)" fill="#A16D3C" d="M187.029,59.137c-0.046-0.117-0.149-0.119-0.254-0.123
			c-1.021-0.031-2.042-0.076-3.054-0.229c-0.169-0.025-0.335-0.063-0.491-0.125c-0.282-0.112-0.56-0.109-0.844-0.031
			c-0.154,0.043-0.31,0.051-0.469,0.051c-0.513-0.003-1.978-0.501-2.73-0.633c-0.172-0.029-0.309-0.16-0.351-0.329
			c-0.74-2.928-2.328-9.496-2.534-11.656c-0.264-2.763-2.171-15.216-2.171-15.216l-5.104,1.424c0,0,2.101,9.192,2.681,13.65
			c0.448,3.441,3.888,10.745,4.966,12.846c0.527,1.563,1.709,1.606,1.983,1.64c0.157,0.02,0.302,0.097,0.404,0.217
			c0.187,0.217,0.4,0.405,0.644,0.56c0.181,0.114,0.32,0.264,0.44,0.438c0.216,0.316,0.41,0.647,0.602,0.979
			c0.127,0.221,0.26,0.29,0.45,0.238c0.202-0.056,0.299-0.205,0.295-0.451c-0.006-0.365-0.122-0.695-0.305-1.006
			c-0.171-0.291-0.159-0.461,0.041-0.729c0.115-0.154,0.232-0.304,0.383-0.426c0.153-0.125,0.314-0.22,0.521-0.19
			c0.367,0.092,0.737,0.166,1.113,0.208l0.309,0.063c0.011,0.002,0.168,0.035,0.168,0.035c0.026,0.008,0.569,0.066,0.755,0.066
			c0.149,0,0.392,0.011,0.597,0.021c0.187,0.009,0.58-0.089,0.594-0.089c0.181-0.004,0.341-0.069,0.477-0.191
			c0.056-0.049,0.108-0.105,0.081-0.189c-0.026-0.077-0.087-0.11-0.166-0.125c-0.123-0.021-0.757-0.099-0.75-0.125
			c0.188,0,0.778-0.015,0.966-0.02c0.254-0.007,0.474-0.098,0.648-0.285C186.996,59.328,187.076,59.255,187.029,59.137"/>
		<path clip-path="url(#SVGID_2_)" fill="#2D2B2C" d="M171.04,24.339c2.519-0.458,4.597,10.812,4.597,10.812
			s-5.597,1.563-7.03,0.743c0,0-1.627-7.214-2.21-6.962L171.04,24.339z"/>
		<path clip-path="url(#SVGID_2_)" fill="#FFB07B" d="M110.135,226.908c0.167-0.479-2.156-0.864-2.28-1.347
			c-0.124-0.483,2.933-0.521,3.042-0.945c0.202-0.782-3.35-0.165-3.281-0.53c0.07-0.366,3.702-1.183,3.31-1.811
			s-3.678,1.24-3.777,0.814s3.21-1.462,3.151-2.396c-0.032-0.499-5.433,2.488-6.059,2.217c-0.627-0.271,0.674-2.616,0.175-2.964
			c-0.499-0.349-1.93,4.766-2.274,4.937c-0.343,0.17-7.641,4.335-10.237,4.997c-0.315-0.87-0.997-2.042-1.275-2.865
			c-1.457,1.037-2.539,1.558-4.042,2.503c1.089,2.729,2.64,5.719,3.398,6.062c2.311,1.044,11.248-6.368,13.032-7.637
			c1.785-1.27,2.807-0.858,4.014-1.259C108.239,226.283,109.968,227.386,110.135,226.908"/>
		<path clip-path="url(#SVGID_2_)" fill="#E42525" d="M86.275,230.828c0,0-2-8.834-1.653-11.396s3.393-4.951,5.503-4.065
			c2.11,0.887,3.067,13.219,3.067,13.219L86.275,230.828z"/>
	</g>
</g>
</svg>
