<?xml version="1.0" encoding="utf-8"?>
<!-- Generator: Adobe Illustrator 16.0.0, SVG Export Plug-In . SVG Version: 6.00 Build 0)  -->
<!DOCTYPE svg PUBLIC "-//W3C//DTD SVG 1.1//EN" "http://www.w3.org/Graphics/SVG/1.1/DTD/svg11.dtd">
<svg version="1.1" id="Layer_1" xmlns="http://www.w3.org/2000/svg" xmlns:xlink="http://www.w3.org/1999/xlink" x="0px" y="0px"
	 width="800px" height="413px" viewBox="0 0 800 413" enable-background="new 0 0 800 413" xml:space="preserve">
<g>
	<g>
		<defs>
			<rect id="SVGID_1_" y="-0.252" width="800" height="413.505"/>
		</defs>
		<clipPath id="SVGID_2_">
			<use xlink:href="#SVGID_1_"  overflow="visible"/>
		</clipPath>
		<path clip-path="url(#SVGID_2_)" fill="#E3E4E5" d="M768.779,392.476c0,11.475-160.783,20.776-359.119,20.776
			c-198.335,0-359.118-9.302-359.118-20.776c0-11.474,160.783-20.775,359.118-20.775
			C607.996,371.701,768.779,381.002,768.779,392.476"/>
		<path clip-path="url(#SVGID_2_)" fill="#E3E4E5" d="M702.433,72.54c0.565-1.249,0.889-2.632,0.889-4.093
			c0-5.49-4.45-9.94-9.94-9.94c-1.123,0-2.199,0.195-3.206,0.539c-1.39-7.299-7.801-12.817-15.504-12.817
			c-1.872,0-3.669,0.328-5.335,0.927c-3.805-6.499-10.855-10.866-18.93-10.866c-10.631,0-19.492,7.565-21.498,17.606
			c-2.305-1.519-5.063-2.405-8.029-2.405c-7.447,0-13.59,5.571-14.497,12.772c-1.251-0.687-2.687-1.078-4.213-1.078
			c-1.746,0-3.369,0.517-4.736,1.396c-0.625-7.009-6.51-12.505-13.682-12.505c-6.804,0-12.448,4.946-13.544,11.438
			c-0.712-0.211-1.464-0.328-2.242-0.328c-4.361,0-7.895,3.534-7.895,7.894c0,0.5,0.052,0.987,0.141,1.462H702.433z"/>
		<path clip-path="url(#SVGID_2_)" fill="#E3E4E5" d="M182.549,98.102c0.449-0.992,0.706-2.091,0.706-3.252
			c0-4.362-3.536-7.898-7.898-7.898c-0.893,0-1.747,0.154-2.548,0.428c-1.104-5.8-6.199-10.185-12.32-10.185
			c-1.488,0-2.915,0.261-4.239,0.735c-3.023-5.164-8.627-8.634-15.042-8.634c-8.448,0-15.489,6.012-17.084,13.99
			c-1.831-1.206-4.023-1.911-6.38-1.911c-5.919,0-10.799,4.428-11.521,10.149c-0.993-0.545-2.134-0.856-3.348-0.856
			c-1.388,0-2.677,0.41-3.763,1.109c-0.497-5.57-5.174-9.937-10.873-9.937c-5.406,0-9.893,3.93-10.763,9.088
			c-0.565-0.168-1.163-0.261-1.782-0.261c-3.464,0-6.272,2.809-6.272,6.272c0,0.397,0.041,0.784,0.112,1.161H182.549z"/>
		<path clip-path="url(#SVGID_2_)" fill="#E3E4E5" d="M352.975,218.004c0.45-0.993,0.707-2.092,0.707-3.253
			c0-4.362-3.537-7.898-7.899-7.898c-0.893,0-1.747,0.155-2.547,0.429c-1.105-5.801-6.199-10.186-12.321-10.186
			c-1.488,0-2.915,0.261-4.239,0.736c-3.023-5.165-8.626-8.635-15.042-8.635c-8.447,0-15.489,6.012-17.084,13.99
			c-1.831-1.206-4.023-1.911-6.38-1.911c-5.918,0-10.799,4.428-11.52,10.15c-0.994-0.546-2.135-0.856-3.349-0.856
			c-1.387,0-2.677,0.41-3.763,1.108c-0.496-5.57-5.174-9.937-10.873-9.937c-5.406,0-9.892,3.93-10.763,9.088
			c-0.565-0.167-1.162-0.26-1.782-0.26c-3.464,0-6.272,2.808-6.272,6.272c0,0.396,0.042,0.784,0.112,1.161H352.975z"/>
		<path clip-path="url(#SVGID_2_)" fill="#242638" d="M644.836,369.841c0.072,0.001,0.145-0.003,0.219-0.014
			c0.746-0.106,1.258-0.801,1.148-1.55c-9.485-63.401,21.241-128.39,21.554-129.038c0.326-0.682,0.038-1.501-0.643-1.834
			c-0.675-0.332-1.496-0.053-1.823,0.627c-0.313,0.657-31.402,66.379-21.792,130.631
			C643.603,369.34,644.176,369.831,644.836,369.841"/>
		<path clip-path="url(#SVGID_2_)" fill="#242638" d="M665.034,226.135c1.04-2.9,4.234-4.388,7.134-3.322
			c2.9,1.065,4.408,4.281,3.367,7.183c-1.04,2.901-6.847,11.679-9.747,10.613C662.887,239.542,663.994,229.038,665.034,226.135"/>
		<path clip-path="url(#SVGID_2_)" fill="#242638" d="M654.458,234.318c2.941-0.894,6.067,0.78,6.981,3.739
			c0.587,1.9,1.06,6.934,0.546,10.529c2.341-2.758,6.402-5.713,8.206-6.52c2.807-1.254,6.111,0.021,7.383,2.845
			c1.272,2.825,0.028,6.132-2.777,7.386c-2.807,1.254-13.164,3.131-14.436,0.307c-0.037-0.083-0.039-0.179-0.061-0.267
			c-0.08,0.042-0.153,0.104-0.239,0.129c-2.941,0.895-8.363-8.214-9.278-11.173C649.871,238.334,651.515,235.211,654.458,234.318"/>
		<path clip-path="url(#SVGID_2_)" fill="#242638" d="M646.952,254.155c2.847-1.16,6.108,0.223,7.286,3.088
			c0.758,1.841,1.686,6.813,1.5,10.444c2.079-2.964,5.853-6.278,7.574-7.247c2.68-1.506,6.085-0.539,7.606,2.16
			s0.583,6.107-2.096,7.613c-2.679,1.507-12.814,4.323-14.337,1.625c-0.044-0.079-0.055-0.175-0.085-0.261
			c-0.075,0.05-0.142,0.117-0.226,0.15c-2.847,1.159-9.068-7.422-10.246-10.287C642.752,258.577,644.105,255.314,646.952,254.155"/>
		<path clip-path="url(#SVGID_2_)" fill="#242638" d="M641.318,272.733c2.847-1.159,6.108,0.224,7.287,3.089
			c0.757,1.841,1.685,6.813,1.499,10.443c2.079-2.964,5.853-6.278,7.574-7.247c2.68-1.506,6.085-0.538,7.606,2.16
			c1.521,2.699,0.583,6.108-2.096,7.614s-12.814,4.323-14.337,1.624c-0.044-0.079-0.056-0.174-0.085-0.261
			c-0.075,0.05-0.143,0.117-0.227,0.151c-2.846,1.159-9.067-7.422-10.246-10.287C637.118,277.155,638.471,273.893,641.318,272.733"
			/>
		<path clip-path="url(#SVGID_2_)" fill="#242638" d="M637.396,290.827c2.847-1.159,6.109,0.223,7.287,3.088
			c0.758,1.841,1.685,6.813,1.499,10.444c2.079-2.964,5.853-6.279,7.575-7.247c2.679-1.506,6.084-0.539,7.605,2.16
			s0.584,6.107-2.095,7.613c-2.679,1.507-12.815,4.323-14.338,1.625c-0.044-0.079-0.055-0.175-0.085-0.261
			c-0.075,0.05-0.142,0.117-0.225,0.15c-2.848,1.16-9.069-7.422-10.247-10.286C633.196,295.249,634.55,291.986,637.396,290.827"/>
		<path clip-path="url(#SVGID_2_)" fill="#242638" d="M633.035,311.519c2.656-1.545,6.075-0.628,7.636,2.049
			c1.003,1.722,2.606,6.521,2.925,10.146c1.647-3.227,4.923-7.037,6.493-8.236c2.442-1.865,5.944-1.379,7.822,1.086
			c1.879,2.465,1.421,5.974-1.021,7.839s-12.081,6.066-13.96,3.601c-0.055-0.071-0.078-0.164-0.12-0.245
			c-0.067,0.06-0.124,0.136-0.201,0.181c-2.657,1.545-9.997-6.099-11.557-8.776C629.49,316.486,630.379,313.064,633.035,311.519"/>
		<path clip-path="url(#SVGID_2_)" fill="#242638" d="M631.807,331.497c2.522-1.756,6.002-1.117,7.771,1.427
			c1.137,1.635,3.12,6.293,3.728,9.883c1.383-3.352,4.34-7.417,5.808-8.739c2.283-2.058,5.81-1.856,7.879,0.449
			c2.068,2.307,1.895,5.845-0.389,7.902c-2.283,2.057-11.547,7.026-13.616,4.72c-0.061-0.067-0.092-0.157-0.139-0.235
			c-0.063,0.064-0.114,0.145-0.188,0.196c-2.522,1.756-10.447-5.274-12.217-7.818C628.676,336.737,629.284,333.251,631.807,331.497"
			/>
		<path clip-path="url(#SVGID_2_)" fill="#E3E4E5" d="M672.678,370.645c0.047,0.054,0.098,0.104,0.156,0.152
			c0.583,0.478,1.441,0.388,1.919-0.199c40.358-49.81,109.041-71.032,109.73-71.238c0.723-0.22,1.133-0.986,0.919-1.713
			c-0.212-0.721-0.973-1.14-1.694-0.92c-0.696,0.213-70.165,21.661-111.065,72.137C672.213,369.396,672.24,370.152,672.678,370.645"
			/>
		<path clip-path="url(#SVGID_2_)" fill="#E3E4E5" d="M792.31,288.503c2.842-1.192,6.097,0.159,7.269,3.018
			s-0.182,6.143-3.024,7.334c-2.842,1.192-13.238,2.836-14.411-0.023C780.971,295.973,789.467,289.695,792.31,288.503"/>
		<path clip-path="url(#SVGID_2_)" fill="#E3E4E5" d="M779.133,286.227c2.646,1.566,3.521,5.002,1.956,7.674
			c-1.006,1.718-4.397,5.465-7.397,7.514c3.615-0.137,8.537,0.864,10.35,1.65c2.82,1.223,4.112,4.521,2.888,7.366
			c-1.226,2.846-4.504,4.161-7.323,2.938c-2.82-1.224-11.198-7.595-9.974-10.44c0.036-0.083,0.104-0.149,0.155-0.225
			c-0.085-0.03-0.179-0.043-0.257-0.089c-2.646-1.566,0.411-11.716,1.977-14.388C773.072,285.557,776.486,284.661,779.133,286.227"
			/>
		<path clip-path="url(#SVGID_2_)" fill="#E3E4E5" d="M759.434,294.086c2.776,1.316,3.961,4.656,2.643,7.46
			c-0.848,1.802-3.888,5.843-6.691,8.158c3.591-0.468,8.584,0.077,10.461,0.693c2.92,0.959,4.505,4.124,3.542,7.068
			c-0.963,2.945-4.11,4.555-7.03,3.596c-2.92-0.958-11.842-6.532-10.879-9.478c0.028-0.086,0.09-0.158,0.134-0.238
			c-0.087-0.022-0.182-0.026-0.263-0.064c-2.778-1.316-0.649-11.701,0.668-14.504C753.336,293.974,756.655,292.77,759.434,294.086"
			/>
		<path clip-path="url(#SVGID_2_)" fill="#E3E4E5" d="M741.926,302.476c2.777,1.317,3.961,4.657,2.644,7.46
			c-0.848,1.803-3.889,5.844-6.691,8.158c3.59-0.467,8.583,0.077,10.46,0.693c2.92,0.96,4.506,4.124,3.543,7.069
			c-0.964,2.944-4.111,4.555-7.031,3.596c-2.919-0.959-11.842-6.533-10.879-9.479c0.028-0.086,0.091-0.157,0.135-0.237
			c-0.088-0.022-0.182-0.026-0.264-0.065c-2.778-1.316-0.649-11.7,0.669-14.503C735.828,302.365,739.148,301.16,741.926,302.476"/>
		<path clip-path="url(#SVGID_2_)" fill="#E3E4E5" d="M725.933,311.801c2.777,1.317,3.961,4.657,2.644,7.461
			c-0.848,1.801-3.889,5.843-6.692,8.158c3.591-0.468,8.584,0.077,10.46,0.693c2.92,0.959,4.507,4.123,3.543,7.068
			c-0.963,2.945-4.11,4.555-7.03,3.596c-2.919-0.958-11.842-6.533-10.878-9.478c0.027-0.086,0.09-0.158,0.134-0.238
			c-0.088-0.022-0.183-0.026-0.264-0.065c-2.778-1.316-0.649-11.7,0.669-14.503C719.835,311.69,723.155,310.485,725.933,311.801"/>
		<path clip-path="url(#SVGID_2_)" fill="#E3E4E5" d="M707.726,322.558c2.934,0.916,4.565,4.058,3.645,7.016
			c-0.593,1.901-3.05,6.326-5.509,9.009c3.492-0.964,8.515-1.12,10.46-0.773c3.024,0.543,5.03,3.454,4.481,6.504
			c-0.55,3.049-3.447,5.082-6.473,4.539c-3.024-0.541-12.632-4.814-12.082-7.864c0.017-0.089,0.068-0.169,0.101-0.254
			c-0.09-0.01-0.185-0.001-0.271-0.027c-2.933-0.916-2.252-11.491-1.33-14.45C701.668,323.297,704.792,321.642,707.726,322.558"/>
		<path clip-path="url(#SVGID_2_)" fill="#E3E4E5" d="M692.162,335.143c2.997,0.674,4.875,3.672,4.194,6.694
			c-0.438,1.943-2.535,6.551-4.772,9.424c3.405-1.244,8.401-1.809,10.367-1.619c3.06,0.295,5.293,3.032,4.989,6.115
			c-0.304,3.084-3.032,5.344-6.091,5.05c-3.059-0.295-12.979-3.772-12.676-6.855c0.01-0.09,0.055-0.175,0.08-0.262
			c-0.09-0.003-0.184,0.014-0.271-0.006c-2.998-0.675-3.164-11.268-2.482-14.29C686.181,336.371,689.164,334.467,692.162,335.143"/>
		<path clip-path="url(#SVGID_2_)" fill="#28846E" d="M652.645,367.675c0.09,0.041,0.184,0.076,0.283,0.104
			c1.001,0.277,2.033-0.314,2.307-1.322c23.092-85.327,97.85-150.417,98.603-151.063c0.79-0.68,0.878-1.875,0.204-2.671
			c-0.67-0.792-1.861-0.896-2.65-0.216c-0.759,0.657-76.383,66.471-99.784,152.94C651.362,366.36,651.817,367.296,652.645,367.675"
			/>
		<path clip-path="url(#SVGID_2_)" fill="#28846E" d="M757.646,197.337c2.919-3.09,7.776-3.201,10.85-0.251
			c3.072,2.95,3.198,7.846,0.28,10.936c-2.919,3.089-15.11,10.963-18.184,8.013S754.728,200.426,757.646,197.337"/>
		<path clip-path="url(#SVGID_2_)" fill="#28846E" d="M739.762,201.822c4.211,0.498,7.233,4.342,6.75,8.584
			c-0.31,2.727-2.496,9.345-5.135,13.603c4.483-2.189,11.247-3.675,13.971-3.695c4.238-0.031,7.709,3.405,7.753,7.677
			s-3.357,7.76-7.596,7.792c-4.237,0.031-18.358-3.326-18.401-7.598c-0.001-0.125,0.049-0.248,0.071-0.371
			c-0.125,0.009-0.251,0.047-0.374,0.031c-4.211-0.497-6.02-15.001-5.537-19.244C731.746,204.358,735.551,201.323,739.762,201.822"
			/>
		<path clip-path="url(#SVGID_2_)" fill="#28846E" d="M719.309,222.725c4.237,0.11,7.594,3.661,7.496,7.931
			c-0.062,2.745-1.641,9.537-3.883,14.021c4.266-2.594,10.865-4.693,13.575-4.963c4.217-0.421,7.982,2.685,8.412,6.936
			c0.429,4.25-2.642,8.037-6.858,8.458c-4.216,0.42-18.577-1.629-19.007-5.88c-0.013-0.124,0.026-0.25,0.038-0.376
			c-0.123,0.021-0.245,0.069-0.37,0.066c-4.236-0.11-7.349-14.392-7.251-18.661C711.558,225.987,715.071,222.615,719.309,222.725"/>
		<path clip-path="url(#SVGID_2_)" fill="#28846E" d="M701.916,243.075c4.237,0.11,7.594,3.661,7.496,7.932
			c-0.063,2.744-1.641,9.537-3.883,14.021c4.266-2.593,10.865-4.693,13.575-4.963c4.216-0.421,7.981,2.685,8.412,6.936
			c0.429,4.251-2.642,8.038-6.858,8.458c-4.216,0.42-18.577-1.629-19.006-5.88c-0.013-0.124,0.024-0.251,0.037-0.376
			c-0.124,0.021-0.246,0.069-0.37,0.066c-4.236-0.11-7.349-14.392-7.251-18.661C694.166,246.336,697.679,242.963,701.916,243.075"/>
		<path clip-path="url(#SVGID_2_)" fill="#28846E" d="M686.955,263.758c4.236,0.11,7.593,3.661,7.495,7.932
			c-0.062,2.745-1.641,9.537-3.883,14.021c4.266-2.593,10.865-4.692,13.575-4.963c4.216-0.42,7.982,2.686,8.412,6.936
			c0.429,4.251-2.642,8.038-6.857,8.458c-4.217,0.42-18.578-1.629-19.007-5.879c-0.013-0.125,0.025-0.251,0.036-0.376
			c-0.122,0.021-0.244,0.068-0.369,0.065c-4.236-0.11-7.349-14.391-7.251-18.661S682.717,263.648,686.955,263.758"/>
		<path clip-path="url(#SVGID_2_)" fill="#28846E" d="M670,287.482c4.21-0.481,8.021,2.568,8.511,6.813
			c0.315,2.729-0.314,9.679-1.919,14.434c3.867-3.165,10.112-6.166,12.758-6.812c4.117-1.005,8.271,1.547,9.28,5.697
			c1.009,4.152-1.511,8.332-5.627,9.337s-18.615,0.979-19.624-3.173c-0.029-0.121-0.009-0.252-0.016-0.377
			c-0.118,0.037-0.232,0.102-0.355,0.116c-4.21,0.482-9.252-13.232-9.742-17.478C662.775,291.795,665.79,287.964,670,287.482"/>
		<path clip-path="url(#SVGID_2_)" fill="#28846E" d="M657.398,312.036c4.156-0.822,8.197,1.909,9.025,6.101
			c0.532,2.694,0.461,9.675-0.759,14.546c3.601-3.469,9.585-6.969,12.169-7.827c4.021-1.336,8.367,0.87,9.703,4.927
			c1.338,4.058-0.839,8.43-4.86,9.766c-4.022,1.336-18.472,2.487-19.809-1.57c-0.039-0.118-0.029-0.249-0.045-0.374
			c-0.116,0.047-0.224,0.12-0.346,0.145c-4.157,0.822-10.278-12.441-11.106-16.633C650.544,316.922,653.241,312.858,657.398,312.036
			"/>
		<path clip-path="url(#SVGID_2_)" fill="#606060" d="M721.343,387.004H554.12c0,0-0.626-58.872,43.215-54.487
			c43.842,4.384,21.921,30.062,56.367,32.567C688.148,367.589,718.211,366.963,721.343,387.004"/>
		<path clip-path="url(#SVGID_2_)" fill="#28846E" d="M92.631,344.165c-0.712,0.109-1.452-0.213-1.842-0.87
			c-0.285-0.484-29.044-48.763-61.075-89.05c-0.629-0.787-0.498-1.933,0.289-2.56c0.793-0.616,1.938-0.498,2.559,0.293
			c32.195,40.486,61.072,88.972,61.357,89.458c0.513,0.864,0.229,1.982-0.633,2.493C93.079,344.053,92.855,344.129,92.631,344.165"
			/>
		<path clip-path="url(#SVGID_2_)" fill="#28846E" d="M72.883,311.583c-0.229,0.035-0.467,0.025-0.7-0.029l-25.074-5.97
			c-0.976-0.231-1.583-1.213-1.35-2.192c0.234-0.976,1.211-1.58,2.196-1.35l22.709,5.405l-1.105-21.539
			c-0.054-1.002,0.703-1.853,1.726-1.911c1.005-0.051,1.857,0.722,1.911,1.726l1.229,23.968c0.031,0.571-0.21,1.124-0.652,1.491
			C73.512,311.398,73.206,311.534,72.883,311.583"/>
		<path clip-path="url(#SVGID_2_)" fill="#28846E" d="M49.736,279.524c-0.229,0.035-0.466,0.026-0.7-0.028l-25.074-5.971
			c-0.977-0.231-1.583-1.213-1.35-2.191c0.238-0.979,1.205-1.586,2.196-1.35l22.709,5.405l-1.105-21.539
			c-0.054-1.003,0.728-1.856,1.726-1.912c1.005-0.051,1.857,0.722,1.912,1.727l1.228,23.968c0.031,0.57-0.21,1.123-0.652,1.491
			C50.365,279.338,50.06,279.474,49.736,279.524"/>
		<path clip-path="url(#SVGID_2_)" fill="#28846E" d="M81.389,327.024c-0.122,0.019-0.25,0.026-0.381,0.019
			c-16.45-0.959-33.001-3.008-49.2-6.085c-3.589-0.682-7.04-1.477-9.812-3.711c-3.051-2.462-4.906-7.229-2.733-10.943
			c1.319-2.249,3.601-3.354,5.615-4.325c1.625-0.785,3.162-1.524,3.986-2.719c0.592-0.858,0.777-1.899,0.555-3.096
			c-0.354-1.903-1.724-3.914-3.492-5.122c-1.909-1.307-4.15-2.087-6.523-2.917c-1.606-0.562-3.22-1.129-4.752-1.855
			c-11.422-5.42-17.43-20.276-13.396-33.116c3.657-11.629,14.938-20.984,28.07-23.284l0.73-0.119
			c9.271-1.426,18.139,0.897,23.729,6.215c6.145,5.854,8.096,14.646,9.11,21.65c0.36,2.47,1.284,4.639,2.303,5.393
			c0.329,0.242,0.629,0.321,1.009,0.263c0.699-0.131,1.327-0.731,2.055-1.427c0.573-0.546,1.222-1.164,2.002-1.648
			c3.311-2.054,8.333-0.754,11.031,2.691c2.31,2.95,2.978,6.734,3.426,10.05c2.391,17.578,1.776,35.297-1.825,52.657
			C82.738,326.351,82.129,326.91,81.389,327.024 M30.608,233.349l-0.655,0.108c-11.829,2.07-21.963,10.425-25.22,20.787
			c-3.512,11.174,1.637,24.063,11.476,28.734c1.417,0.672,2.907,1.188,4.397,1.708c2.49,0.869,5.066,1.771,7.371,3.348
			c2.567,1.752,4.495,4.612,5.024,7.463c0.398,2.152,0.003,4.168-1.143,5.829c-1.369,1.988-3.509,3.021-5.397,3.932
			c-1.697,0.82-3.301,1.592-4.058,2.884c-1.165,1.995,0.067,4.807,1.881,6.27c2.119,1.706,4.968,2.354,8.2,2.968
			c15.527,2.95,31.384,4.945,47.156,5.932c3.24-16.463,3.731-33.237,1.47-49.888c-0.4-2.973-0.938-6.062-2.686-8.292
			c-1.559-1.989-4.517-2.916-6.247-1.838c-0.455,0.282-0.916,0.721-1.4,1.184c-1,0.955-2.134,2.036-3.826,2.36
			c-0.004,0.001-0.01,0.002-0.019,0.003c-1.519,0.233-2.802-0.092-3.9-0.906c-2.637-1.953-3.495-6.103-3.742-7.797
			c-0.931-6.427-2.683-14.452-8.017-19.534C46.497,234.058,38.772,232.093,30.608,233.349"/>
		<path clip-path="url(#SVGID_2_)" fill="#E3E4E5" d="M178.243,312.823c2.572-3.49,4.478-7.689,4.261-12.021
			s-2.98-8.703-7.168-9.829c-4.188-1.125-9.998,0.438-11.952-3.434c-1.273-2.523,0.497-5.698,2.966-7.074
			c2.469-1.377,5.411-1.495,8.216-1.852c7.493-0.953,14.932-4.008,19.994-9.614s7.34-13.984,4.603-21.025
			c-3.572-9.188-14.938-13.755-24.547-11.552c-9.609,2.202-17.262,9.861-21.73,18.647c-1.397,2.746-2.585,5.692-4.777,7.856
			c-2.191,2.163-5.783,3.312-8.394,1.677c-1.845-1.155-2.74-3.356-4.324-4.849c-3.54-3.332-9.69-2.082-13.069,1.412
			c-3.38,3.493-4.634,8.484-5.504,13.268c-3.484,19.155-2.892,39.042,1.729,57.957c1.082-5.691,7.544-8.83,13.337-8.903
			c5.793-0.075,11.404,1.972,17.175,2.487C160.165,326.966,171.627,321.801,178.243,312.823"/>
		<path clip-path="url(#SVGID_2_)" fill="#B7B8BA" d="M112.092,355.676c-0.026-0.003-0.059-0.006-0.091-0.01
			c-0.958-0.132-1.624-1.015-1.492-1.974c0.075-0.567,8.342-57.284,55.551-96.009c0.748-0.616,1.851-0.504,2.464,0.241
			c0.614,0.748,0.506,1.853-0.241,2.465c-46.161,37.864-54.23,93.225-54.31,93.78C113.848,355.098,113.015,355.754,112.092,355.676"
			/>
		<path clip-path="url(#SVGID_2_)" fill="#B7B8BA" d="M126.821,311.05c-0.313-0.026-0.62-0.138-0.879-0.326
			c-0.409-0.298-0.672-0.758-0.716-1.263c-0.612-6.789,1.635-26.695,1.73-27.54c0.107-0.942,0.948-1.626,1.889-1.546
			c0.013,0,0.031,0.002,0.049,0.004c0.961,0.109,1.651,0.978,1.542,1.938c-0.02,0.184-1.914,16.962-1.813,24.812l24.641-5.655
			c0.942-0.213,1.876,0.37,2.099,1.313c0.212,0.942-0.376,1.884-1.318,2.098l-26.686,6.127
			C127.182,311.053,126.998,311.065,126.821,311.05"/>
		<path clip-path="url(#SVGID_2_)" fill="#B7B8BA" d="M142.829,285.859c-0.791-0.067-1.449-0.663-1.582-1.466l-1.793-11.084
			c-0.152-0.953,0.495-1.852,1.451-2.006c0.947-0.16,1.853,0.495,2.01,1.449l1.543,9.553l10.982-0.434
			c1.069-0.033,1.783,0.717,1.82,1.681c0.036,0.967-0.715,1.778-1.679,1.818l-12.534,0.493
			C142.975,285.867,142.901,285.866,142.829,285.859"/>
		<polygon clip-path="url(#SVGID_2_)" fill="#3A3839" points="139.975,338.503 73.276,338.503 79.629,391.439 133.622,391.439 		"/>
		<polygon clip-path="url(#SVGID_2_)" fill="#FAC5C2" points="244.772,384.092 246.367,341.766 258.999,343.655 257.003,385.144 		
			"/>
		<path clip-path="url(#SVGID_2_)" fill="#201D1D" d="M244.718,379.939c0,0-3.901,10.519-2.18,18.646l45.455,0.821
			c0,0,2.96-8.667-7.275-11.031c-10.234-2.365-23.313-10.427-23.313-10.427S250.849,385.344,244.718,379.939"/>
		<path clip-path="url(#SVGID_2_)" fill="#201D1D" d="M242.525,398.585l45.455,0.821c0,0,0.724-2.129,0.212-4.564l-46.102-0.832
			C242.091,395.562,242.213,397.114,242.525,398.585"/>
		
			<path clip-path="url(#SVGID_2_)" fill="none" stroke="#333333" stroke-width="1.182" stroke-linecap="round" stroke-linejoin="round" stroke-miterlimit="10" d="
			M256.188,381.272c0.398-0.755,0.854-1.503,1.52-2.038c0.953-0.767,2.217-1.007,3.432-1.141c1.058-0.117,2.122-0.173,3.187-0.168
			c1.388,0.008,2.852,0.146,3.983,0.948c0.345,0.244,0.676,0.63,0.583,1.041c-0.069,0.308-0.356,0.516-0.646,0.643
			c-0.918,0.402-1.974,0.256-2.962,0.085c-2.387-0.417-4.756-0.942-7.095-1.576c0.301,1.275,0.429,2.591,0.379,3.9
			c-0.046,1.23-0.257,2.482-0.856,3.558c-0.258,0.461-0.596,0.896-1.056,1.157c-0.459,0.261-1.056,0.322-1.513,0.058
			c-0.454-0.263-0.697-0.8-0.731-1.323c-0.035-0.523,0.108-1.042,0.267-1.542C255.073,383.631,255.579,382.425,256.188,381.272z"/>
		
			<line clip-path="url(#SVGID_2_)" fill="none" stroke="#333333" stroke-width="1.182" stroke-linecap="round" stroke-linejoin="round" stroke-miterlimit="10" x1="288.192" y1="394.842" x2="242.091" y2="394.01"/>
		
			<path clip-path="url(#SVGID_2_)" fill="none" stroke="#333333" stroke-width="1.182" stroke-linecap="round" stroke-linejoin="round" stroke-miterlimit="10" d="
			M244.354,381.241c0,0,8.913,2.674,10.398,12.923"/>
		
			<path clip-path="url(#SVGID_2_)" fill="none" stroke="#333333" stroke-width="1.182" stroke-linecap="round" stroke-linejoin="round" stroke-miterlimit="10" d="
			M285.501,390.598l-11.512,0.046c-4.725,0.02-9.366,1.246-13.483,3.564l-0.183,0.104"/>
		
			<polyline clip-path="url(#SVGID_2_)" fill="none" stroke="#333333" stroke-width="1.182" stroke-linecap="round" stroke-linejoin="round" stroke-miterlimit="10" points="
			253.861,380.721 269.903,388.593 272.132,385.549 		"/>
		<polygon clip-path="url(#SVGID_2_)" fill="#FAC5C2" points="165.078,373.153 180.549,333.722 191.85,339.672 176.277,378.18 		"/>
		<path clip-path="url(#SVGID_2_)" fill="#201D1D" d="M166.397,369.213c0,0-7.153,8.643-8.21,16.884l42.64,15.772
			c0,0,5.653-7.205-3.229-12.814c-8.881-5.609-18.566-17.534-18.566-17.534S170.402,376.338,166.397,369.213"/>
		<path clip-path="url(#SVGID_2_)" fill="#201D1D" d="M158.175,386.093l42.64,15.771c0,0,1.385-1.771,1.705-4.238l-43.244-15.996
			C158.763,383.095,158.367,384.6,158.175,386.093"/>
		
			<path clip-path="url(#SVGID_2_)" fill="none" stroke="#333333" stroke-width="1.182" stroke-linecap="round" stroke-linejoin="round" stroke-miterlimit="10" d="
			M176.785,374.256c0.625-0.581,1.303-1.137,2.106-1.423c1.152-0.409,2.425-0.218,3.616,0.056c1.037,0.238,2.061,0.537,3.063,0.893
			c1.307,0.465,2.644,1.079,3.447,2.21c0.244,0.344,0.431,0.817,0.207,1.175c-0.167,0.268-0.507,0.369-0.821,0.393
			c-1,0.078-1.948-0.408-2.823-0.896c-2.117-1.18-4.18-2.458-6.179-3.828c-0.137,1.303-0.45,2.588-0.929,3.808
			c-0.449,1.146-1.063,2.257-1.982,3.074c-0.396,0.352-0.857,0.649-1.378,0.745c-0.52,0.095-1.104-0.044-1.448-0.444
			c-0.342-0.398-0.394-0.985-0.253-1.491c0.14-0.506,0.445-0.948,0.761-1.367C174.955,376.117,175.831,375.144,176.785,374.256z"/>
		
			<line clip-path="url(#SVGID_2_)" fill="none" stroke="#333333" stroke-width="1.182" stroke-linecap="round" stroke-linejoin="round" stroke-miterlimit="10" x1="202.52" y1="397.626" x2="159.274" y2="381.63"/>
		
			<path clip-path="url(#SVGID_2_)" fill="none" stroke="#333333" stroke-width="1.182" stroke-linecap="round" stroke-linejoin="round" stroke-miterlimit="10" d="
			M165.625,370.323c0,0,7.531,5.465,5.552,15.63"/>
		
			<path clip-path="url(#SVGID_2_)" fill="none" stroke="#333333" stroke-width="1.182" stroke-linecap="round" stroke-linejoin="round" stroke-miterlimit="10" d="
			M201.38,392.732l-10.883-3.755c-4.466-1.541-9.252-1.914-13.903-1.083l-0.208,0.036"/>
		
			<polyline clip-path="url(#SVGID_2_)" fill="none" stroke="#333333" stroke-width="1.182" stroke-linecap="round" stroke-linejoin="round" stroke-miterlimit="10" points="
			174.771,372.968 187.318,385.694 190.426,383.553 		"/>
		<polygon clip-path="url(#SVGID_2_)" fill="#28846E" points="262.849,194.079 272.949,295.68 267.007,374.111 237.299,374.111 
			242.052,296.869 229.575,232.699 218.285,296.869 192.737,370.545 161.84,360.445 190.359,284.986 198.084,195.861 		"/>
		<path clip-path="url(#SVGID_2_)" fill="#FAC5C2" d="M360.886,70.492l12.478-7.724l6.301-14.895l8.643-10.782l-1.205,3.626
			l2.791-1.235l-1.144,3.396l3.327-2.326c0,0,0.356,4.131-4.108,10.532l-2.329,8.229c0,0,6.788-6.096,8.753-6.069
			c1.966,0.026,1.431,1.117,1.431,1.117l-8.44,8.617l-8.292,6.191l-12.228,10.821L360.886,70.492z"/>
		<polygon clip-path="url(#SVGID_2_)" fill="#1C6755" points="167.76,362.785 167.209,362.561 197.493,287.742 202.243,204.013 
			202.837,204.047 198.081,287.874 198.063,287.919 		"/>
		<path clip-path="url(#SVGID_2_)" fill="#1C6755" d="M201.398,227.055c-0.026,0-0.044,0-0.056,0l0.018-0.595
			c0.001,0,0.005,0.001,0.007,0.001c0.304,0,9.342-0.207,12.913-18.922l0.583,0.111
			C211.251,226.585,202.268,227.055,201.398,227.055"/>
		<path clip-path="url(#SVGID_2_)" fill="#1C6755" d="M230.243,232.703l-0.593-0.007l0.299-28.496l8.178,1.363l-0.984,23.495
			l-6.883,2.142L230.243,232.703z M230.537,204.9l-0.271,25.675l6.299-1.96l0.946-22.552L230.537,204.9z"/>
		<path clip-path="url(#SVGID_2_)" fill="#1C6755" d="M265.545,223.633c-6.517-1.137-9.404-16.732-9.525-17.396l0.586-0.105
			c0.028,0.158,2.932,15.852,9.041,16.917L265.545,223.633z"/>
		<path clip-path="url(#SVGID_2_)" fill="#1C6755" d="M244.727,373.735l-0.594-0.041c0.05-0.719,4.944-71.936,4.555-77.398
			c-0.39-5.462-12.155-63.153-12.274-63.735l0.584-0.119c0.484,2.379,11.891,58.312,12.284,63.813
			C249.674,301.757,244.928,370.798,244.727,373.735"/>
		<path clip-path="url(#SVGID_2_)" fill="#1C6755" d="M263.618,198.829l-60.186-3.107l-5.052,0.14l-0.797,9.2
			c27.795,15.909,59.473,6.53,67.041,3.898L263.618,198.829z"/>
		<path clip-path="url(#SVGID_2_)" fill="#1C6755" d="M229.724,233.59l21.984-1.04l-10.547-0.594l5.348-1.485
			c0,0-27.629,1.485-36.244,0L229.724,233.59z"/>
		<path clip-path="url(#SVGID_2_)" fill="#39383A" d="M268.592,92.476l50.702,4.357l48.326-34.858l9.11,12.676l-52.287,43.177
			l-30.846,4.317c-5.44,0.762-10.085,4.315-12.243,9.367l-16.328,38.205v36.442c0,0-57.832,11.883-68.923-7.526l1.585-30.896
			l-15.053-24.955l27.033-40.079c5.55-9.713,15.989-15.589,27.173-15.294l14.717,0.388L268.592,92.476z"/>
		<path clip-path="url(#SVGID_2_)" fill="#FAC5C2" d="M279.304,36.451c5.553,1.378,9.092,7.563,9.446,13.272
			c0.157,2.521-0.306,5.039-0.294,7.564c0.007,1.552,0.882,13.042-0.977,18.085c-2.843,7.712-3.306,8.19-18.978,3.922
			C245.845,73.124,237.51,26.085,279.304,36.451"/>
		<path clip-path="url(#SVGID_2_)" fill="#FAC5C2" d="M273.878,78.943c0,0-3.348,13.45-2.926,14.03
			c0.436,0.598,2.996,1.767,2.996,1.767s-21.64,0.79-27.135-6.66c0,0,4.805-0.63,5.686-1.72c0.88-1.09,6.694-14.426,6.694-14.426
			L273.878,78.943z"/>
		<path clip-path="url(#SVGID_2_)" fill="#D88080" d="M268.753,64.847l-5.014,5.496l8.727,14.186c0.418-1.51,0.67-2.929,0.95-3.935
			c4.67,1.18,7.453,1.633,9.314,1.233C281.374,81.585,265.559,78.476,268.753,64.847"/>
		<path clip-path="url(#SVGID_2_)" fill="#FAC5C2" d="M288.313,56.153l0.491,2.935l3.303,7.018c0,0-2.569,1.968-4.377,1.944
			l-0.351-10.765L288.313,56.153z"/>
		<path clip-path="url(#SVGID_2_)" fill="#201D1D" d="M254.235,33.067c-0.654,1.354-1.113,2.802-1.356,4.285
			c-0.99,0.027-1.977,0.188-2.924,0.475c0.83,0.422,1.659,0.844,2.488,1.265c-2.939-1.487-5.007,10.864-5.045,12.138
			c-0.241,8.273,3.87,14.326,8.734,20.567c0.698,0.896,1.881,2.313,1.59,3.411c4.256-1.532,7.572-4.808,10.075-8.575
			c0.92-1.386,1.674-2.873,2.466-4.335c0.458-0.845,0.976-1.728,1.83-2.166c0.855-0.438,2.272,0.978,2.563,1.894
			c0.74-4.636,1.562-10.394,2.74-14.938c0.311-1.198,0.749-2.531,1.864-3.068c0.622-0.3,1.344-0.286,2.035-0.27
			c3.752,0.091,7.613,0.064,11.101-1.322c0.632-0.252,1.365-0.887,1.01-1.466l-7.899-3.235c1.684-0.208,3.303-0.92,4.595-2.02
			c-0.349-0.424-0.929-0.56-1.465-0.671c-5.548-1.15-11.134-2.306-16.798-2.427c-5.665-0.121-11.475,0.853-16.368,3.708
			c0.081-1.1,0.162-2.198,0.243-3.298c0.016-0.2,0.026-0.417-0.085-0.584C255.286,31.914,254.508,32.504,254.235,33.067"/>
		<path clip-path="url(#SVGID_2_)" fill="#FAC5C2" d="M267.107,62.19c0.134,0.502,0.391,0.964,0.69,1.389
			c0.779,1.099,2.081,2.022,3.396,1.728c0.832-0.188,1.502-0.84,1.901-1.595c0.398-0.755,0.563-1.608,0.693-2.452
			c0.033-0.21,0.064-0.429,0-0.632c-0.059-0.187-0.191-0.34-0.323-0.486c-0.644-0.719-1.356-1.431-2.269-1.748
			c-1.078-0.374-2.352-0.106-3.187,0.669S266.814,61.088,267.107,62.19"/>
		<path clip-path="url(#SVGID_2_)" fill="#201D1D" d="M208.846,184.833l-11.403-16.929c-0.092-0.137-0.056-0.322,0.08-0.413
			c0.134-0.093,0.318-0.056,0.412,0.079l11.075,16.441l16.905-11.124l-18.085-32.909l0.123-0.155l17.825-22.431
			c0.101-0.125,0.289-0.148,0.416-0.046c0.129,0.103,0.149,0.288,0.048,0.418L208.54,140.04l18.159,33.043L208.846,184.833z"/>
		<path clip-path="url(#SVGID_2_)" fill="#FAC5C2" d="M222.147,176.105l3.17,3.317c0,0,1.447-0.298,6.275,1.003
			c3.025,0.814,10.063,3.973,10.063,3.973s-1.538,0.535-5.125,0.223l-4.493-0.371l5.311,7.502l5.348,3.714
			c0,0-1.04,1.039-4.604-0.595c0,0,2.376,2.674,1.931,3.268s-4.011-0.594-4.011-0.594s1.782,2.079,1.485,3.119
			c-0.298,1.04-6.238-2.971-8.764-5.05l2.574,3.961c0,0-0.644,1.386-1.534,0.792c-0.892-0.595-10.102-13.221-10.102-13.221
			l-5.645-5.198L222.147,176.105z"/>
		<path clip-path="url(#SVGID_2_)" fill="#FAC5C2" d="M417.526,76.026l-7.441-9.249l0.193-16.029l-4.046-11.367l-0.043,3.337
			l-1.95-1.817l-0.027,3.128l-2.079-2.869c0,0-1.477,3.306,0.377,9.863l-0.434,7.454c0,0-3.855-6.97-5.484-7.51
			c-1.629-0.541-1.499,0.513-1.499,0.513l4.498,9.522l5.07,7.479l6.992,12.425L417.526,76.026z"/>
		<path clip-path="url(#SVGID_2_)" fill="#FAC5C2" d="M584.657,197.234l7.646,9.08l15.768,2.892l10.378,6.154l-3.282-0.598
			l1.407,2.262l-3.075-0.574l2.417,2.592c0,0-3.528,0.813-9.607-2.266l-7.398-1.008c0,0,6.099,5.124,6.316,6.826
			c0.217,1.702-0.792,1.373-0.792,1.373l-8.48-6.244l-6.364-6.413l-10.85-9.251L584.657,197.234z"/>
		<path clip-path="url(#SVGID_2_)" fill="#FAC5C2" d="M497.856,367.317l-2.217,12.76c0,0,4.859,8.746,4.13,12.147
			c0,0-5.588,1.943-7.531,4.373s-3.887,7.531-11.176,8.018c-7.288,0.485-9.231-0.486-9.231-0.486l-0.851-0.121
			c0.679-2.849,3.629-5.02,6.403-5.955c1.345-0.452,2.622-1.085,3.193-1.941c1.457-2.186,7.288-15.791,7.288-15.791l4.616-25.509
			L497.856,367.317z"/>
		<polygon clip-path="url(#SVGID_2_)" fill="#28846E" points="493.939,394.654 493.777,404.047 497.664,404.047 499.77,392.224 		
			"/>
		
			<path clip-path="url(#SVGID_2_)" fill="none" stroke="#28846E" stroke-width="1.933" stroke-linecap="round" stroke-linejoin="round" stroke-miterlimit="10" d="
			M500.256,392.062c0,0-5.669,1.215-8.018,4.536c-2.349,3.319-5.021,8.179-12.552,8.179c-7.532,0-8.989-0.648-8.989-0.648"/>
		<path clip-path="url(#SVGID_2_)" fill="#28846E" d="M477.742,397.812l1.296,6.803c0,0,4.131-0.243,5.831-0.891
			c1.7-0.648,3.968-2.511,3.968-2.511l-6.408-8.838C482.429,392.375,479.524,397.569,477.742,397.812"/>
		<path clip-path="url(#SVGID_2_)" fill="#FAC5C2" d="M578.425,347.704l6.557,11.169c0,0,9.36,3.532,11.004,6.599
			c0,0-3.008,5.095-2.92,8.205c0.088,3.109,1.902,8.259-3.344,13.341c-5.247,5.082-7.358,5.597-7.358,5.597l-0.728,0.457
			c-1.323-2.611-0.476-6.176,1.037-8.683c0.733-1.215,1.299-2.523,1.182-3.545c-0.302-2.61-4.647-16.76-4.647-16.76l-12.968-22.447
			L578.425,347.704z"/>
		<polygon clip-path="url(#SVGID_2_)" fill="#28846E" points="593.106,371.093 599.056,378.366 602.021,375.853 595.985,365.471 		
			"/>
		
			<path clip-path="url(#SVGID_2_)" fill="none" stroke="#28846E" stroke-width="1.933" stroke-linecap="round" stroke-linejoin="round" stroke-miterlimit="10" d="
			M596.251,365.034c0,0-3.54,4.591-3.186,8.643c0.354,4.051,1.457,9.486-4.29,14.354c-5.746,4.868-7.277,5.315-7.277,5.315"/>
		<path clip-path="url(#SVGID_2_)" fill="#28846E" d="M582.791,383.973l5.385,4.353c0,0,2.995-2.854,3.874-4.448
			c0.879-1.595,1.404-4.48,1.404-4.48l-10.602-2.601C582.853,376.796,583.993,382.636,582.791,383.973"/>
		<path clip-path="url(#SVGID_2_)" fill="#242638" d="M486.365,148.728c-4.034-3.349-7.631-7.373-9.725-12.181
			c-3.476-7.977-2.473-17.194-0.238-25.604s5.635-16.544,6.853-25.159c1.164-8.228,0.503-17.301,5.396-24.018
			c4.771-6.551,13.98-9.728,21.84-8.076c16.152,3.394,15.539,24.063,19.93,36.36c6.073,17.007,28.131,18.822,35.665,34.717
			c3.013,6.354,3.003,14.341-1.02,20.108c-2.232,3.202-5.496,5.535-8.857,7.519c-10.696,6.313-23.17,9.707-35.581,9.212
			C508.218,161.112,495.924,156.659,486.365,148.728"/>
		<path clip-path="url(#SVGID_2_)" fill="#39383A" d="M540.916,194.559c0,0,5.619,13.943,9.365,23.933s2.913,74.503,2.913,74.503
			s13.319,7.7,33.089,59.728l-13.526,8.323l-42.038-62.224l-10.405-64.098l-6.659,67.844c0,0,4.994,33.297-14.567,73.254
			l-11.862-1.457l6.867-173.563L540.916,194.559z"/>
		<path clip-path="url(#SVGID_2_)" fill="#1A1A1A" d="M544.426,203.365c-1.985-5.023-3.51-8.806-3.51-8.806l-42.664,5.689
			c-1.423,0.449-2.821,0.96-4.198,1.522l-0.396,10.005C501.03,212.152,530.719,211.729,544.426,203.365"/>
		<path clip-path="url(#SVGID_2_)" fill="#FFFFFF" d="M536.13,197.68c0,0-25.806,11.239-44.951,4.579l0.686-84.881l14.506-2.524
			l14.775,2.497L536.13,197.68z"/>
		<path clip-path="url(#SVGID_2_)" fill="#FAC5C2" d="M511.033,93.042c0,0,1.13,17.241,1.764,18.556
			c0.635,1.313,9.024,3.773,9.024,3.773s-15.596,9.543-29.17,2.254c0,0,5.672-3.595,6.05-4.65s-0.209-12.313-0.209-12.313
			L511.033,93.042z"/>
		<path clip-path="url(#SVGID_2_)" fill="#D88080" d="M511.254,96.238c-0.004-0.063-0.01-0.134-0.014-0.196l-6.947,1.097
			l-5.801,3.524c0,0,0.082,1.572,0.164,3.598C500.373,104.317,505.817,103.817,511.254,96.238"/>
		<path clip-path="url(#SVGID_2_)" fill="#FAC5C2" d="M487.198,76.821c-1.231,17.426,7.592,24.614,11.548,24.852
			c5.104,0.308,13.909-3.816,15.772-11.574c0,0,6.275-0.238,6.632-3.69c0.655-6.358-4.219-2.895-4.219-2.895
			s7.982-22.109-9.41-26.321C496.161,54.441,488.38,60.115,487.198,76.821"/>
		<path clip-path="url(#SVGID_2_)" fill="#242638" d="M516.932,83.513c0,0-1.024,0.833-1.153,0.827
			c-0.13-0.006-10.232-12.784-13.833-19.393L486.294,77.86c0,0-0.159-12.709,4.291-16.185c4.45-3.475,6.741-7.814,16.023-5.317
			c9.284,2.496,13.618,10.083,12.697,17.709C518.386,81.693,516.932,83.513,516.932,83.513"/>
		
			<path clip-path="url(#SVGID_2_)" fill="none" stroke="#1A1A1A" stroke-width="0.519" stroke-linecap="round" stroke-linejoin="round" stroke-miterlimit="10" d="
			M539.459,203.715c0,0,6.035,9.781,7.492,16.025c1.457,6.243,2.705,75.335,2.705,75.335s18.938,16.024,33.298,59.312"/>
		
			<polygon clip-path="url(#SVGID_2_)" fill="none" stroke="#1A1A1A" stroke-width="0.519" stroke-linecap="round" stroke-linejoin="round" stroke-miterlimit="10" points="
			520.313,234.724 515.475,209.075 508.764,209.075 513.289,227.493 		"/>
		<path clip-path="url(#SVGID_2_)" fill="#28846E" d="M515.007,111.836c0,0,9.989,45.263,9.989,53.067
			c0,7.804,1.249,41.83,1.249,41.83l23.724-7.492l-9.677-44.952l13.11,27.471l31.528,32.777l10.613-10.302l-29.967-31.841
			c0,0-19.666-52.131-22.163-52.755C540.916,119.016,515.007,111.836,515.007,111.836"/>
		<path clip-path="url(#SVGID_2_)" fill="#28846E" d="M497.422,113.189l2.913,93.649c0,0-7.7,3.121-20.395-4.371l-1.301-55.825
			l-41.985-23.724l-31.529-47.293l11.134-6.348l32.258,38.916l34.024,9.261L497.422,113.189z"/>
		<polygon clip-path="url(#SVGID_2_)" fill="#1C6755" points="525.46,170.419 524.844,170.313 531.185,133.352 523.973,132.881 
			528.558,115.58 529.161,115.74 524.771,132.307 531.917,132.774 531.858,133.117 		"/>
		
			<rect x="537.118" y="185.818" transform="matrix(0.2922 0.9564 -0.9564 0.2922 569.4849 -374.0208)" clip-path="url(#SVGID_2_)" fill="#1C6755" width="0.625" height="23.83"/>
		<polygon clip-path="url(#SVGID_2_)" fill="#1C6755" points="498.686,169.892 487.244,135.25 493.686,133.307 482.288,117.638 
			482.794,117.271 494.707,133.651 488.037,135.663 499.279,169.696 		"/>
		<path clip-path="url(#SVGID_2_)" fill="#1C6755" d="M539.987,154.358c-4.552-20.377,3.074-34.725,3.152-34.867l0.548,0.299
			c-0.076,0.14-7.589,14.296-3.091,34.433L539.987,154.358z"/>
		<path clip-path="url(#SVGID_2_)" fill="#1C6755" d="M500.011,204.083c-1.337,0-9.969-0.237-20.506-5.972l0.298-0.548
			c11.257,6.126,20.267,5.894,20.366,5.894l0.021,0.623C500.184,204.081,500.122,204.083,500.011,204.083"/>
		<path clip-path="url(#SVGID_2_)" fill="#1C6755" d="M478.915,146.789l-0.551-0.293c5.281-9.949,3.804-28.903,3.788-29.093
			l0.623-0.052C482.791,117.543,484.282,136.679,478.915,146.789"/>
		<path clip-path="url(#SVGID_2_)" fill="#1C6755" d="M530.719,175.83c0-0.92-0.745-1.665-1.665-1.665s-1.664,0.745-1.664,1.665
			c0,0.919,0.744,1.665,1.664,1.665S530.719,176.749,530.719,175.83"/>
		<path clip-path="url(#SVGID_2_)" fill="#1C6755" d="M531.655,185.194c0-0.919-0.745-1.665-1.665-1.665s-1.665,0.746-1.665,1.665
			c0,0.92,0.745,1.665,1.665,1.665S531.655,186.114,531.655,185.194"/>
		<path clip-path="url(#SVGID_2_)" fill="#1C6755" d="M531.812,194.403c0-0.919-0.745-1.665-1.665-1.665s-1.665,0.746-1.665,1.665
			c0,0.92,0.745,1.665,1.665,1.665S531.812,195.323,531.812,194.403"/>
		<path clip-path="url(#SVGID_2_)" fill="#1C6755" d="M543.621,179.784c-0.045,0-0.092-0.01-0.135-0.03l-10.925-5.203
			c-0.091-0.044-0.155-0.127-0.173-0.227l-0.624-3.434c-0.021-0.113,0.023-0.23,0.116-0.302c0.092-0.071,0.217-0.085,0.321-0.037
			l11.029,5.099c0.097,0.045,0.163,0.134,0.179,0.238l0.506,3.444c0.021,0.042,0.034,0.089,0.034,0.139
			c0,0.173-0.142,0.313-0.313,0.313H543.621z M532.975,174.055l10.254,4.883l-0.411-2.792l-10.331-4.775L532.975,174.055z"/>
		<path clip-path="url(#SVGID_2_)" fill="#1C6755" d="M481.813,186.027c-0.051,0-0.102-0.013-0.149-0.038
			c-0.098-0.053-0.16-0.154-0.163-0.266l-0.104-3.954c-0.004-0.111,0.053-0.215,0.146-0.272l13.318-8.325
			c0.093-0.058,0.208-0.063,0.307-0.014c0.097,0.049,0.162,0.145,0.17,0.254l0.313,3.954c0.01,0.116-0.047,0.229-0.147,0.29
			l-13.527,8.325C481.927,186.011,481.87,186.027,481.813,186.027 M482.026,181.931l0.085,3.233l12.903-7.939l-0.258-3.252
			L482.026,181.931z"/>
		
			<path clip-path="url(#SVGID_2_)" fill="none" stroke="#39383A" stroke-width="1.038" stroke-linecap="round" stroke-linejoin="round" stroke-miterlimit="10" d="
			M511.205,55.411c4.376,1.764,7.662,5.597,9.737,9.835c4.204,8.585,4.648,18.361,8.037,27.225
			c3.345,8.75,9.78,13.673,17.395,18.641c6.034,3.938,12.324,8.55,14.523,15.412c2.086,6.504-0.035,14.001-4.447,19.068"/>
		
			<path clip-path="url(#SVGID_2_)" fill="none" stroke="#39383A" stroke-width="1.038" stroke-linecap="round" stroke-linejoin="round" stroke-miterlimit="10" d="
			M520.184,88.585c0.392,1.454,0.785,2.908,1.277,4.331c3.684,10.661,12.56,18.688,21.905,25.004
			c1.469,0.992,2.972,1.967,4.191,3.251c2.733,2.878,3.755,7.271,2.572,11.059"/>
		
			<path clip-path="url(#SVGID_2_)" fill="none" stroke="#39383A" stroke-width="1.038" stroke-linecap="round" stroke-linejoin="round" stroke-miterlimit="10" d="
			M507.827,57.441c5.919,2.828,9.668,8.872,11.894,15.043c2.225,6.172,3.253,12.728,5.551,18.872
			c3.33,8.901,9.356,16.775,17.079,22.316c4.209,3.021,9.036,5.49,11.973,9.758c3.569,5.188,3.472,12.627-0.232,17.719"/>
		
			<path clip-path="url(#SVGID_2_)" fill="none" stroke="#39383A" stroke-width="1.038" stroke-linecap="round" stroke-linejoin="round" stroke-miterlimit="10" d="
			M518.026,89.589c0.885,7.164,3.962,14.042,8.713,19.476c1.874,2.144,4.073,4.19,4.863,6.926"/>
		
			<path clip-path="url(#SVGID_2_)" fill="none" stroke="#39383A" stroke-width="1.038" stroke-linecap="round" stroke-linejoin="round" stroke-miterlimit="10" d="
			M505.021,59.368c3.227,0.851,5.427,3.757,7.21,6.382c3.372,4.967,5.003,10.858,6.89,16.488"/>
		
			<path clip-path="url(#SVGID_2_)" fill="none" stroke="#39383A" stroke-width="1.038" stroke-linecap="round" stroke-linejoin="round" stroke-miterlimit="10" d="
			M503.418,62.533c2.708,2.018,4.609,4.908,6.454,7.737c2.622,4.023,5.268,8.1,6.829,12.641"/>
		<path clip-path="url(#SVGID_2_)" fill="#E3E4E5" d="M188.651,19.865L188.651,19.865c-1.2,0-2.182,0.981-2.182,2.182v34.901
			c0,1.199,0.981,2.181,2.182,2.181c1.199,0,2.181-0.981,2.181-2.181V22.046C190.832,20.846,189.851,19.865,188.651,19.865"/>
		<path clip-path="url(#SVGID_2_)" fill="#E3E4E5" d="M208.283,39.497L208.283,39.497c0-1.2-0.981-2.182-2.182-2.182H171.2
			c-1.2,0-2.182,0.981-2.182,2.182s0.981,2.182,2.182,2.182h34.901C207.302,41.678,208.283,40.697,208.283,39.497"/>
		<path clip-path="url(#SVGID_2_)" fill="#E3E4E5" d="M150.113-0.252L150.113-0.252c-0.695,0-1.266,0.569-1.266,1.266v20.251
			c0,0.696,0.57,1.267,1.266,1.267c0.696,0,1.266-0.57,1.266-1.267V1.013C151.379,0.317,150.81-0.252,150.113-0.252"/>
		<path clip-path="url(#SVGID_2_)" fill="#E3E4E5" d="M161.505,11.139L161.505,11.139c0-0.696-0.569-1.267-1.266-1.267h-20.252
			c-0.695,0-1.265,0.57-1.265,1.267s0.569,1.266,1.265,1.266h20.252C160.936,12.405,161.505,11.835,161.505,11.139"/>
		<path clip-path="url(#SVGID_2_)" fill="#3ECEC0" d="M416.699,157.696c0,19.725-15.989,35.715-35.714,35.715
			s-35.714-15.99-35.714-35.715c0-19.724,15.989-35.714,35.714-35.714S416.699,137.972,416.699,157.696"/>
		<path clip-path="url(#SVGID_2_)" fill="#28846E" d="M416.699,157.696c0,19.725-15.989,35.715-35.714,35.715
			s-35.714-15.99-35.714-35.715c0-19.724,15.989-35.714,35.714-35.714S416.699,137.972,416.699,157.696"/>
		<path clip-path="url(#SVGID_2_)" fill="#1C6755" d="M380.986,194.362c-20.219,0-36.667-16.448-36.667-36.666
			s16.448-36.667,36.667-36.667c20.218,0,36.666,16.449,36.666,36.667S401.204,194.362,380.986,194.362 M380.986,122.934
			c-19.169,0-34.763,15.594-34.763,34.762s15.594,34.762,34.763,34.762s34.762-15.594,34.762-34.762
			S400.155,122.934,380.986,122.934"/>
		<path clip-path="url(#SVGID_2_)" fill="#1C6755" d="M380.398,174.545c-1.354,0-2.705-0.524-3.726-1.566l-14.609-14.933
			c-2.015-2.058-1.978-5.358,0.079-7.371c2.06-2.015,5.359-1.979,7.372,0.081l11.031,11.273l37.637-35.487
			c2.093-1.976,5.394-1.88,7.369,0.217c1.975,2.095,1.878,5.394-0.218,7.367l-41.36,38.999
			C382.97,174.075,381.685,174.545,380.398,174.545"/>
		<path clip-path="url(#SVGID_2_)" fill="#F3BA18" d="M379.056,172.083c-1.354,0-2.705-0.524-3.726-1.567l-14.609-14.932
			c-2.015-2.059-1.978-5.358,0.079-7.372c2.059-2.015,5.359-1.979,7.371,0.081l11.031,11.274l37.637-35.487
			c2.094-1.976,5.395-1.88,7.369,0.216c1.976,2.095,1.879,5.394-0.218,7.367l-41.359,38.999
			C381.626,171.613,380.341,172.083,379.056,172.083"/>
	</g>
</g>
</svg>
