<?xml version="1.0" encoding="utf-8"?>
<!-- Generator: Adobe Illustrator 16.0.0, SVG Export Plug-In . SVG Version: 6.00 Build 0)  -->
<!DOCTYPE svg PUBLIC "-//W3C//DTD SVG 1.1//EN" "http://www.w3.org/Graphics/SVG/1.1/DTD/svg11.dtd">
<svg version="1.1" id="Layer_1" xmlns="http://www.w3.org/2000/svg" xmlns:xlink="http://www.w3.org/1999/xlink" x="0px" y="0px"
	 width="111.45px" height="98px" viewBox="0 0 111.45 98" enable-background="new 0 0 111.45 98" xml:space="preserve">
<g>
	<g>
		<defs>
			<rect id="SVGID_1_" x="0" width="111.45" height="98"/>
		</defs>
		<clipPath id="SVGID_2_">
			<use xlink:href="#SVGID_1_"  overflow="visible"/>
		</clipPath>
		<path clip-path="url(#SVGID_2_)" fill="#3B393A" d="M86.759,96.204v1.693h-5.697c0,0-0.395-1.186,1.581-1.524
			c1.977-0.339,2.88-0.508,2.88-0.508L86.759,96.204z"/>
		<path clip-path="url(#SVGID_2_)" fill="#3B393A" d="M94.983,96.204v1.693h-5.697c0,0-0.396-1.186,1.581-1.524
			s2.88-0.508,2.88-0.508L94.983,96.204z"/>
		<polygon clip-path="url(#SVGID_2_)" fill="#FBB887" points="80.378,80.931 83.956,96.168 86.805,96.565 85.148,81.063 		"/>
		<polygon clip-path="url(#SVGID_2_)" fill="#FBB887" points="88.569,80.931 92.345,96.103 94.996,96.565 93.093,79.179 		"/>
		<path clip-path="url(#SVGID_2_)" fill="#FBB887" d="M99.813,69.291c0,0-1.146,1.882,0.26,2.495
			c1.407,0.611,2.212-1.922,2.212-1.922L99.813,69.291z"/>
		<path clip-path="url(#SVGID_2_)" fill="#343132" d="M98.832,46.848c-2.731,1.564-5.396,1.17-3.515,5.38
			c1.581,3.538,4.526,6.77,4.725,7.76c0.199,0.99-0.494,9.138-0.494,9.138l2.737,0.739l1.712-9.203
			c0.072-0.683,0.014-1.073-0.099-1.5l-2.891-6.84L98.832,46.848z"/>
		<polygon clip-path="url(#SVGID_2_)" fill="#242020" points="102.506,70.653 98.911,69.695 99.316,68.149 102.912,69.107 		"/>
		<path clip-path="url(#SVGID_2_)" fill="#FBB887" d="M66.276,55.69c0,0-2.183-0.633-2.414,0.933
			c-0.229,1.565,2.512,1.684,2.512,1.684L66.276,55.69z"/>
		<path clip-path="url(#SVGID_2_)" fill="#343132" d="M88.356,48.654c-2.295-2.298-1.8-5.879-5.482-2.87
			c-3.097,2.529-6.341,7.155-7.273,7.623c-0.932,0.464-9.23,1.975-9.23,1.975l0.003,2.925l9.625-0.781
			c0.699-0.111,1.074-0.275,1.467-0.502l6.029-4.727L88.356,48.654z"/>
		<polygon clip-path="url(#SVGID_2_)" fill="#242020" points="65.647,58.739 65.631,54.901 67.279,54.889 67.295,58.727 		"/>
		<path clip-path="url(#SVGID_2_)" fill="#343132" d="M86.894,44.137l7.995,0.782c1.899,0.187,4.6,1.47,4.238,3.344l-5.034,8.392
			l1.112,5.318L83.138,60.79l2.083-5.215l-2.518-8.512C82.732,45.168,85.007,43.952,86.894,44.137"/>
	</g>
	<g>
		<defs>
			<path id="SVGID_3_" d="M82.704,47.063l2.518,8.512l-2.083,5.215l12.067,1.181l-1.113-5.316l5.035-8.392
				c0.361-1.874-2.339-3.157-4.238-3.344l-7.995-0.782c-0.126-0.012-0.255-0.019-0.384-0.019
				C84.712,44.118,82.73,45.297,82.704,47.063"/>
		</defs>
		<clipPath id="SVGID_4_">
			<use xlink:href="#SVGID_3_"  overflow="visible"/>
		</clipPath>
		
			<rect x="89.072" y="46.187" transform="matrix(0.9958 0.0913 -0.0913 0.9958 5.4537 -7.9221)" clip-path="url(#SVGID_4_)" fill="#E72E2B" width="0.449" height="18.896"/>
		<path clip-path="url(#SVGID_4_)" fill="#ED9A5B" d="M94.036,45.041c0,2.02-1.637,3.657-3.656,3.657s-3.657-1.638-3.657-3.657
			c0-2.019,1.638-3.655,3.657-3.655S94.036,43.022,94.036,45.041"/>
	</g>
	<g>
		<defs>
			<rect id="SVGID_5_" x="0" width="111.45" height="98"/>
		</defs>
		<clipPath id="SVGID_6_">
			<use xlink:href="#SVGID_5_"  overflow="visible"/>
		</clipPath>
		
			<rect x="88.591" y="41.93" transform="matrix(0.9952 0.0976 -0.0976 0.9952 4.7204 -8.6232)" clip-path="url(#SVGID_6_)" fill="#ED9A5B" width="3.863" height="4.04"/>
		<path clip-path="url(#SVGID_6_)" fill="#FBB887" d="M87.264,37.724c-0.199,2.037,1.167,5.109,3.205,5.309
			c2.037,0.199,3.974-2.548,4.173-4.586c0.2-2.037-1.29-3.851-3.328-4.05C89.277,34.197,87.463,35.687,87.264,37.724"/>
	</g>
	<g>
		<defs>
			<path id="SVGID_7_" d="M87.264,37.725c-0.199,2.037,1.167,5.109,3.204,5.308c2.038,0.2,3.975-2.548,4.174-4.586
				c0.199-2.037-1.291-3.851-3.327-4.05c-0.123-0.013-0.245-0.018-0.366-0.018C89.063,34.379,87.452,35.81,87.264,37.725"/>
		</defs>
		<clipPath id="SVGID_8_">
			<use xlink:href="#SVGID_7_"  overflow="visible"/>
		</clipPath>
		<path clip-path="url(#SVGID_8_)" fill="#242020" d="M93.241,44.937l-0.31-4.372c0,0,1.374-1.293,0.751-2.253
			c-0.574-0.883-1.325,0.221-1.325,0.221s-8.77,0.155-9.274-1.015c-0.397-0.924,7.658-4.895,8.615-4.678
			c0.959,0.216,5.412,3.467,5.506,4.393c0.093,0.928-2.84,4.006-2.84,4.006L93.241,44.937z"/>
	</g>
	<g>
		<defs>
			<rect id="SVGID_9_" x="0" width="111.45" height="98"/>
		</defs>
		<clipPath id="SVGID_10_">
			<use xlink:href="#SVGID_9_"  overflow="visible"/>
		</clipPath>
		<polygon clip-path="url(#SVGID_10_)" fill="#E72E2B" points="95.206,61.971 83.138,60.79 76.634,80.931 98.497,82.787 		"/>
		<path clip-path="url(#SVGID_10_)" fill="#F4C31C" d="M67.971,83.205c0,8.116-6.577,14.694-14.693,14.694
			c-8.114,0-14.692-6.578-14.692-14.694c0-8.115,6.578-14.693,14.692-14.693C61.394,68.512,67.971,75.09,67.971,83.205"/>
		
			<rect x="35.912" y="26.923" transform="matrix(0.7071 -0.7071 0.7071 0.7071 -15.7117 50.6438)" clip-path="url(#SVGID_10_)" fill="#E72E2B" width="34.732" height="34.731"/>
		<rect x="27.096" y="9.455" clip-path="url(#SVGID_10_)" fill="#343132" width="52.364" height="10.698"/>
		
			<rect x="17.378" y="33.751" transform="matrix(-0.9485 -0.3168 0.3168 -0.9485 26.3802 75.9446)" clip-path="url(#SVGID_10_)" fill="#AB7945" width="3.973" height="4.154"/>
		<path clip-path="url(#SVGID_10_)" fill="#3B393A" d="M7.019,82.78l0.029,2.095L0.05,84.976c0,0-0.507-1.459,1.915-1.914
			c2.422-0.453,3.529-0.679,3.529-0.679L7.019,82.78z"/>
		<path clip-path="url(#SVGID_10_)" fill="#3B393A" d="M19.47,82.547l0.03,2.096l6.89-0.044c0,0,0.468-1.474-1.983-1.857
			c-2.451-0.386-3.572-0.578-3.572-0.578L19.47,82.547z"/>
		<path clip-path="url(#SVGID_10_)" fill="#AB7945" d="M26.134,17.431c0,0,2.462-0.377,1.968-2.04
			c-0.493-1.663-3.271-0.516-3.271-0.516L26.134,17.431z"/>
		<path clip-path="url(#SVGID_10_)" fill="#E72E2B" d="M19.075,54.445L6.965,52.468L3.01,67.678l0.218,15.175l3.791-0.054
			c0,0,1.296-4.714,1.4-10.044c0.024-1.237-0.255-4.608-0.255-4.608l3.978-8.513c0.139-0.298,0.436-0.49,0.764-0.494h0.011
			c0.328-0.006,0.63,0.179,0.777,0.471l8.682,7.687c0,0-1.906,1.893-2.467,6.266c-0.552,4.3-0.432,9.058-0.432,9.058l3.792-0.054
			l4.37-16.995L19.075,54.445z"/>
		<path clip-path="url(#SVGID_10_)" fill="#3B393A" d="M22.593,37.718l-7.836-2.617c-1.861-0.621-3.854,0.492-4.301,2.403
			L7.311,50.98l11.826,3.949L24.6,42.192C25.369,40.401,24.441,38.336,22.593,37.718"/>
		<path clip-path="url(#SVGID_10_)" fill="#3B393A" d="M9.406,41.736c3.342,1.225,3.441-2.023,4.352-3.744
			c2.05-3.871,3.452-13.094,4.164-13.988c0.712-0.892,8.262-6.224,8.262-6.224l-1.352-2.904l-9.206,5.219
			c-0.644,0.434-0.939,0.77-1.227,1.176c0,0-3.229,5.463-3.812,7.48C9.683,31.883,9.406,41.736,9.406,41.736"/>
		
			<rect x="23.269" y="15.596" transform="matrix(-0.4269 -0.9043 0.9043 -0.4269 21.4381 46.5848)" clip-path="url(#SVGID_10_)" fill="#242020" width="4.424" height="1.805"/>
		<path clip-path="url(#SVGID_10_)" fill="#AB7945" d="M32.905,22.614c0,0-1.112-2.229,0.53-2.784
			c1.644-0.558,2.309,2.373,2.309,2.373L32.905,22.614z"/>
		<path clip-path="url(#SVGID_10_)" fill="#3B393A" d="M21.805,45.829c-1.675-3.14-4.462-4.364-0.129-7.263
			c3.641-2.436,7.79-4.147,8.576-4.977c0.786-0.828,2.93-10.387,2.93-10.387l3.302-0.441l-1.477,11.967
			c-0.341,0.697-0.632,1.038-0.994,1.377l-6.834,5.793L21.805,45.829z"/>
		
			<rect x="32.234" y="21.996" transform="matrix(0.977 -0.2134 0.2134 0.977 -4.094 7.8802)" clip-path="url(#SVGID_10_)" fill="#242020" width="4.424" height="1.806"/>
		<path clip-path="url(#SVGID_10_)" fill="#3B393A" d="M22.593,37.718l-7.836-2.617c-1.861-0.621-3.854,0.492-4.301,2.403
			L6.781,52.717l12.667,2.179L24.6,42.192C25.369,40.401,24.441,38.336,22.593,37.718"/>
	</g>
	<g>
		<defs>
			<path id="SVGID_11_" d="M10.457,37.504L6.781,52.717l12.668,2.179L24.6,42.191c0.768-1.79-0.159-3.855-2.008-4.474l-7.835-2.617
				c-0.351-0.117-0.707-0.173-1.057-0.173C12.198,34.928,10.818,35.954,10.457,37.504"/>
		</defs>
		<clipPath id="SVGID_12_">
			<use xlink:href="#SVGID_11_"  overflow="visible"/>
		</clipPath>
		
			<rect x="15.561" y="34.827" transform="matrix(0.948 0.3182 -0.3182 0.948 15.1572 -2.6811)" clip-path="url(#SVGID_12_)" fill="#242020" width="0.451" height="20.465"/>
	</g>
	<g>
		<defs>
			<rect id="SVGID_13_" x="0" width="111.45" height="98"/>
		</defs>
		<clipPath id="SVGID_14_">
			<use xlink:href="#SVGID_13_"  overflow="visible"/>
		</clipPath>
		<path clip-path="url(#SVGID_14_)" fill="#E72E2B" d="M19.366,37.361l-1.242-0.414L13.72,47.281l0.637,2.234
			c0.06,0.206,0.308,0.288,0.479,0.158l1.839-1.406L19.366,37.361z"/>
		<path clip-path="url(#SVGID_14_)" fill="#E72E2B" d="M19.816,38.08c-0.237,0.711-1.007,1.095-1.718,0.857
			c-0.712-0.238-1.096-1.007-0.858-1.718c0.237-0.713,1.007-1.097,1.719-0.859C19.67,36.599,20.054,37.368,19.816,38.08"/>
		<path clip-path="url(#SVGID_14_)" fill="#242020" d="M18.958,36.36c0,0-2.854,2.26-3.405,2.204
			c-0.552-0.059-0.207-3.371-0.207-3.371L18.958,36.36z"/>
		<path clip-path="url(#SVGID_14_)" fill="#242020" d="M18.955,36.359c0,0,0.923,3.521,1.398,3.807
			c0.476,0.286,2.19-2.568,2.19-2.568L18.955,36.359z"/>
		<path clip-path="url(#SVGID_14_)" fill="#EBAC8C" d="M24.692,31.444c-0.641,1.919-3.112,4.14-5.032,3.499
			c-1.919-0.642-2.561-3.902-1.919-5.821c0.642-1.92,2.717-2.957,4.637-2.315S25.333,29.523,24.692,31.444"/>
		<path clip-path="url(#SVGID_14_)" fill="#242020" d="M20.728,29.893c1.753,0.587,3.428,1.146,4.145,1.385
			c0.718,0.239,3.376-0.822,2.314-2.949c-1.063-2.126-5.773-2.063-6.837-1.532C19.287,27.327,19.612,29.521,20.728,29.893"/>
		<path clip-path="url(#SVGID_14_)" fill="#AB7945" d="M24.692,31.444c-0.641,1.919-3.112,4.14-5.032,3.499
			c-1.919-0.642-2.561-3.902-1.919-5.821c0.642-1.92,2.717-2.957,4.637-2.315S25.333,29.523,24.692,31.444"/>
	</g>
	<g>
		<defs>
			<path id="SVGID_15_" d="M17.741,29.122c-0.641,1.919-0.001,5.18,1.919,5.821c1.92,0.641,4.391-1.58,5.033-3.499
				c0.64-1.921-0.396-3.996-2.315-4.638c-0.386-0.129-0.776-0.189-1.161-0.189C19.682,26.617,18.253,27.587,17.741,29.122"/>
		</defs>
		<clipPath id="SVGID_16_">
			<use xlink:href="#SVGID_15_"  overflow="visible"/>
		</clipPath>
		<path clip-path="url(#SVGID_16_)" fill="#242020" d="M18.195,33.629l0.63-1.885c0,0-0.913-1.827-0.132-2.646
			c0.78-0.817,1.599,0.533,1.599,0.533l1.275-0.97c0,0,1.504,0.058,2.038-0.778c0.533-0.838-0.171-2.723-1.122-2.913
			c-0.951-0.191-6.282,0.948-6.739,1.747c-0.457,0.798,0.949,4.759,0.949,4.759L18.195,33.629z"/>
	</g>
	<g>
		<defs>
			<rect id="SVGID_17_" x="0" width="111.45" height="98"/>
		</defs>
		<clipPath id="SVGID_18_">
			<use xlink:href="#SVGID_17_"  overflow="visible"/>
		</clipPath>
		<rect x="0" y="84.575" clip-path="url(#SVGID_18_)" fill="#939598" width="26.407" height="1.38"/>
		<rect x="0.002" y="84.976" clip-path="url(#SVGID_18_)" fill="#939598" width="0.597" height="13.024"/>
		<rect x="25.807" y="84.976" clip-path="url(#SVGID_18_)" fill="#939598" width="0.597" height="13.024"/>
		<path clip-path="url(#SVGID_18_)" fill="#242020" d="M91.666,34.208c-0.563-1.652,0.152-5.009,3.693-5.262
			c4.244-0.303,3.998,2.53,6.072,3.947c1.163,0.794,5.97-0.962,9.107,3.086c2.682,3.461-0.863,9.658-6.577,7.488
			c-5.465-2.073-2.43-5.667-5.465-6.526C96.646,36.417,93.183,38.661,91.666,34.208"/>
		<path clip-path="url(#SVGID_18_)" fill="#D12A27" d="M84.798,3.519c0.468-0.391,1.164-0.328,1.555,0.14
			c0.392,0.469,0.328,1.163-0.14,1.555s-5.587,3.227-5.587,3.227S84.332,3.909,84.798,3.519"/>
		<path clip-path="url(#SVGID_18_)" fill="#D12A27" d="M53.546,1.031c0.04-0.608,0.564-1.068,1.174-1.028
			c0.607,0.04,1.068,0.565,1.028,1.173c-0.039,0.609-1.519,6.271-1.519,6.271S53.506,1.64,53.546,1.031"/>
		<path clip-path="url(#SVGID_18_)" fill="#D12A27" d="M86.332,24.65c0.472,0.386,0.54,1.082,0.154,1.554
			c-0.387,0.472-1.083,0.54-1.554,0.154c-0.472-0.388-4.216-4.884-4.216-4.884S85.86,24.265,86.332,24.65"/>
		<path clip-path="url(#SVGID_18_)" fill="#D12A27" d="M21.324,3.643c-0.468-0.391-1.164-0.329-1.555,0.14
			c-0.391,0.468-0.328,1.164,0.141,1.554c0.468,0.392,5.586,3.227,5.586,3.227S21.792,4.032,21.324,3.643"/>
		<path clip-path="url(#SVGID_18_)" fill="#D12A27" d="M19.471,24.093c-0.472,0.386-0.541,1.082-0.154,1.554s1.083,0.54,1.554,0.153
			c0.472-0.387,4.216-4.883,4.216-4.883S19.943,23.706,19.471,24.093"/>
	</g>
</g>
</svg>
