<?xml version="1.0" encoding="utf-8"?>
<!-- Generator: Adobe Illustrator 16.0.0, SVG Export Plug-In . SVG Version: 6.00 Build 0)  -->
<!DOCTYPE svg PUBLIC "-//W3C//DTD SVG 1.1//EN" "http://www.w3.org/Graphics/SVG/1.1/DTD/svg11.dtd">
<svg version="1.1" id="Layer_1" xmlns="http://www.w3.org/2000/svg" xmlns:xlink="http://www.w3.org/1999/xlink" x="0px" y="0px"
	 width="107px" height="105px" viewBox="0 0 107 105" enable-background="new 0 0 107 105" xml:space="preserve">
<g>
	<defs>
		<rect id="SVGID_1_" x="8.969" y="17" width="89.063" height="88"/>
	</defs>
	<clipPath id="SVGID_2_">
		<use xlink:href="#SVGID_1_"  overflow="visible"/>
	</clipPath>
	<path clip-path="url(#SVGID_2_)" fill="#2D2B2C" d="M26.509,76.834c0,0-8.194-5.975-9.048-6.913
		c-0.853-0.939-3.67-2.305-3.84,0.427c-0.171,2.731,4.95,5.633,6.444,8.193c1.493,2.561,4.651,8.535,10.029,10.157
		c0,0-6.003-1.85-9.189-6.459c-3.187-4.608-3.414-5.035-6.003-7.481c-2.589-2.447-3.13-4.297-2.447-5.662
		c0.683-1.366,2.241-1.331,2.241-1.331s-0.306-9.992-0.933-12.383c-0.625-2.39-3.186-4.097-3.641-1.535
		c-0.455,2.561-1.423,17.241-1.081,18.605c0.341,1.366,4.381,8.309,4.95,10.414c0.569,2.104,2.162,3.982,6.999,5.832
		c4.837,1.849,13.6,8.904,15.477,11.978c1.878,3.072,2.276,4.324,2.276,4.324h12.006c0,0-0.057-16.159-6.088-20.086
		S34.173,82.577,26.509,76.834"/>
	<path clip-path="url(#SVGID_2_)" fill="#2D2B2C" d="M15.072,59.373v8.371c0,0,1.686,0.277,2.475,1.26c0,0,0.717-8.341-1.964-9.931
		C15.357,58.94,15.072,59.111,15.072,59.373"/>
	<path clip-path="url(#SVGID_2_)" fill="#2D2B2C" d="M18.017,62.722v6.67c0,0,0.928,0.924,1.942,1.809c0,0,0.601-7.449-1.535-8.716
		C18.244,62.378,18.017,62.514,18.017,62.722"/>
	<path clip-path="url(#SVGID_2_)" fill="#2D2B2C" d="M20.428,66.419v5.069c0,0,0.543,0.577,1.637,1.55c0,0,0.527-5.744-1.291-6.822
		C20.622,66.126,20.428,66.242,20.428,66.419"/>
	<path clip-path="url(#SVGID_2_)" fill="#2D2B2C" d="M80.491,76.834c0,0,8.193-5.975,9.047-6.913
		c0.854-0.939,3.67-2.305,3.841,0.427s-4.95,5.633-6.443,8.193c-1.494,2.561-4.652,8.535-10.029,10.157c0,0,6.003-1.85,9.189-6.459
		c3.187-4.608,3.414-5.035,6.003-7.481c2.589-2.447,3.13-4.297,2.446-5.662c-0.682-1.366-2.241-1.331-2.241-1.331
		s0.307-9.992,0.933-12.383c0.627-2.39,3.187-4.097,3.643-1.535c0.454,2.561,1.422,17.241,1.08,18.605
		c-0.341,1.366-4.381,8.309-4.95,10.414c-0.568,2.104-2.162,3.982-6.999,5.832c-4.836,1.849-13.599,8.904-15.477,11.978
		c-1.878,3.072-2.275,4.324-2.275,4.324H56.251c0,0,0.058-16.159,6.089-20.086S72.827,82.577,80.491,76.834"/>
	<path clip-path="url(#SVGID_2_)" fill="#2D2B2C" d="M91.928,59.373v8.371c0,0-1.686,0.277-2.475,1.26c0,0-0.717-8.341,1.964-9.931
		C91.643,58.94,91.928,59.111,91.928,59.373"/>
	<path clip-path="url(#SVGID_2_)" fill="#2D2B2C" d="M88.983,62.722v6.67c0,0-0.929,0.924-1.941,1.809c0,0-0.602-7.449,1.534-8.716
		C88.756,62.378,88.983,62.514,88.983,62.722"/>
	<path clip-path="url(#SVGID_2_)" fill="#2D2B2C" d="M86.572,66.419v5.069c0,0-0.544,0.577-1.637,1.55c0,0-0.527-5.744,1.29-6.822
		C86.378,66.126,86.572,66.242,86.572,66.419"/>
	<path clip-path="url(#SVGID_2_)" fill="#E42525" d="M88.238,53.316c3.643-9.552-1.148-20.249-10.701-23.891
		c-6.202-2.365-12.886-1.174-17.809,2.566c-1.182-6.067-5.376-11.407-11.578-13.772c-9.552-3.643-20.249,1.148-23.891,10.701
		c-0.953,2.497-1.324,5.073-1.188,7.581h-0.004c0,0,0.326,18.249,19.777,39.481l-0.038,0.099c0.039-0.005,0.077-0.009,0.115-0.013
		c0.027,0.028,0.052,0.058,0.079,0.086l0.038-0.099C71.686,73.166,84.08,59.768,84.08,59.768l-0.003-0.004
		C85.848,57.983,87.286,55.814,88.238,53.316"/>
</g>
</svg>
