<?xml version="1.0" standalone="no"?>
<!DOCTYPE svg PUBLIC "-//W3C//DTD SVG 1.1//EN" "http://www.w3.org/Graphics/SVG/1.1/DTD/svg11.dtd" >
<svg xmlns="http://www.w3.org/2000/svg" xmlns:xlink="http://www.w3.org/1999/xlink" version="1.1">
<metadata>
Created by FontForge 20170731 at Sat Apr  3 22:41:28 2021
 By Aleksey,,,
Copyright (c) 2014, Cooper Hewitt Smithsonian Design Museum (cooperhewitt.org)
</metadata>
<defs>
<font id="CooperHewitt-Medium" horiz-adv-x="614" >
  <font-face 
    font-family="Cooper Hewitt"
    font-weight="707"
    font-stretch="normal"
    units-per-em="2048"
    panose-1="0 0 0 0 0 0 0 0 0 0"
    ascent="1638"
    descent="-410"
    x-height="1085"
    cap-height="1597"
    bbox="-492 -449 2828 1974"
    underline-thickness="40"
    underline-position="-224"
    unicode-range="U+0020-F222"
  />
<missing-glyph horiz-adv-x="1978" 
d="M190 0v1597h1598v-1597h-1598zM989 707l-571 -572h1143zM418 1462l571 -571l572 571h-1143zM897 799l-563 563v-1126zM1081 799l564 -563v1126z" />
    <glyph glyph-name=".notdef" horiz-adv-x="1978" 
d="M190 0v1597h1598v-1597h-1598zM989 707l-571 -572h1143zM418 1462l571 -571l572 571h-1143zM897 799l-563 563v-1126zM1081 799l564 -563v1126z" />
    <glyph glyph-name=".null" horiz-adv-x="0" 
 />
    <glyph glyph-name="nonmarkingreturn" horiz-adv-x="682" 
 />
    <glyph glyph-name="space" unicode=" " horiz-adv-x="409" 
 />
    <glyph glyph-name="exclam" unicode="!" horiz-adv-x="479" 
d="M113 1597h254l-56 -1181h-143zM356 233v-233h-233v233h233z" />
    <glyph glyph-name="quotedbl" unicode="&#x22;" horiz-adv-x="772" 
d="M125 1597h211l-19 -589h-155zM434 1597h213l-39 -589h-153z" />
    <glyph glyph-name="numbersign" unicode="#" horiz-adv-x="1228" 
d="M170 961v186h203l94 450h186l-94 -450h256l94 450h187l-95 -450h166v-186h-204l-68 -324h164v-186h-203l-94 -451h-187l95 451h-256l-95 -451h-186l94 451h-166v186h205l68 324h-164zM520 961l-67 -324h256l67 324h-256z" />
    <glyph glyph-name="dollar" unicode="$" horiz-adv-x="1228" 
d="M918 1720l-64 -266q248 -93 248 -410v-30h-209q0 169 -86 243l-90 -374q202 -32 300.5 -117t98.5 -244v-16q0 -187 -128.5 -293.5t-360.5 -106.5q-17 0 -95 5l-55 -234h-170l66 273q-127 52 -192.5 155.5t-65.5 247.5v12h209q0 -149 94 -221l94 395q-200 33 -291.5 118.5
t-91.5 232.5v16q0 180 132.5 283.5t352.5 103.5q28 0 78 -4l56 231h170zM631 283q122 0 196 56.5t74 156.5v10q0 87 -53.5 136.5t-171.5 72.5l-103 -430q16 -2 50 -2h8zM342 1108q0 -81 48 -129.5t163 -71.5l96 406q-10 2 -33 2h-8q-116 0 -191 -53t-75 -144v-10z" />
    <glyph glyph-name="percent" unicode="%" horiz-adv-x="1931" 
d="M1143 362q0 173 100 268t258 95t258.5 -95t100.5 -268v-22q0 -174 -100.5 -269.5t-258.5 -95.5t-258 95.5t-100 269.5v22zM627 1264q0 90 -54.5 142t-136.5 52h-12q-84 0 -137.5 -52t-53.5 -142v-33q0 -90 53.5 -142.5t137.5 -52.5h12q82 0 136.5 52.5t54.5 142.5v33z
M1305 334q0 -90 54 -142.5t136 -52.5h12q82 0 136.5 52.5t54.5 142.5v33q0 90 -54.5 142t-136.5 52h-12q-82 0 -136 -52t-54 -142v-33zM727 0h-188l577 1389q-3 0 -24 -4.5t-44.5 -9t-61 -8t-73.5 -3.5q-67 0 -139 10q14 -61 14 -117v-22q0 -173 -100 -268t-258 -95t-259 95
t-101 268v22q0 174 100.5 269.5t259.5 95.5q81 0 162 -33q76 -31 158 -42t194 -11q109 0 229 22t170 44v-117z" />
    <glyph glyph-name="ampersand" unicode="&#x26;" horiz-adv-x="1374" 
d="M532 -25q-217 0 -339.5 119.5t-122.5 327.5v20q0 74 19 138t55.5 116t77 91.5t95.5 78.5q-96 109 -138 192.5t-42 196.5v23q0 150 104 247t300 97q194 0 297.5 -97t103.5 -247v-23q0 -44 -10.5 -84.5t-26 -72.5t-44.5 -65t-52.5 -55.5t-64.5 -51.5t-67.5 -45.5
t-72.5 -44.5l371 -414q78 156 78 379v8h217v-4q0 -323 -154 -541l236 -264h-258l-111 123q-183 -148 -451 -148zM557 162h10q166 0 289 102l-416 463q-76 -58 -117.5 -123.5t-41.5 -150.5v-17q0 -128 69.5 -201t206.5 -73zM350 1272v-17q0 -76 34 -143t95 -139
q63 38 98.5 62.5t76 61t59 75t18.5 83.5v17q0 73 -48.5 121.5t-135.5 48.5h-15q-86 0 -134 -48.5t-48 -121.5z" />
    <glyph glyph-name="quotesingle" unicode="'" horiz-adv-x="479" 
d="M125 1597h229l-37 -589h-155z" />
    <glyph glyph-name="parenleft" unicode="(" horiz-adv-x="684" 
d="M94 717v41q0 138 17 259.5t43 213t69.5 183.5t83.5 157.5t99 148.5h219q-76 -110 -127.5 -203t-99.5 -211.5t-71.5 -255t-23.5 -292.5v-41q0 -156 23.5 -293t71 -255.5t99.5 -211.5t128 -203h-219q-58 83 -98.5 148.5t-84 158t-69.5 184t-43 213t-17 259.5z" />
    <glyph glyph-name="parenright" unicode=")" horiz-adv-x="684" 
d="M590 758v-41q0 -171 -23 -312.5t-70.5 -259t-95.5 -202t-122 -189.5h-220q76 110 128 203t99.5 211.5t71 255.5t23.5 293v41q0 156 -23.5 292.5t-71.5 255t-99.5 211.5t-127.5 203h220q58 -83 98.5 -148.5t83.5 -157.5t69 -183.5t43 -213t17 -259.5z" />
    <glyph glyph-name="asterisk" unicode="*" horiz-adv-x="813" 
d="M340 1638h133l-10 -288h-113zM16 1307l43 129l273 -101l-35 -108zM233 897l-108 80l178 227l92 -65zM754 1436l43 -129l-281 -80l-35 108zM688 977l-108 -80l-162 242l92 65z" />
    <glyph glyph-name="plus" unicode="+" horiz-adv-x="1228" 
d="M520 1319h189v-426h426v-188h-426v-426h-189v426h-426v188h426v426z" />
    <glyph glyph-name="comma" unicode="," horiz-adv-x="479" 
d="M356 233v-184q0 -309 -270 -309v115q71 0 109 34.5t47 110.5h-119v233h233z" />
    <glyph glyph-name="hyphen" unicode="-" horiz-adv-x="690" 
d="M82 625v184h526v-184h-526z" />
    <glyph glyph-name="period" unicode="." horiz-adv-x="479" 
d="M356 233v-233h-233v233h233z" />
    <glyph glyph-name="slash" unicode="/" horiz-adv-x="737" 
d="M707 1720l-471 -1966h-205l471 1966h205z" />
    <glyph glyph-name="zero" unicode="0" horiz-adv-x="1228" 
d="M1114 457q0 -218 -125 -350t-375 -132q-127 0 -224 36t-156.5 101.5t-89 152t-29.5 192.5v684q0 218 124.5 349.5t374.5 131.5t375 -131.5t125 -349.5v-684zM903 1128q0 308 -282 308h-13q-282 0 -282 -308v-659q0 -307 282 -307h13q282 0 282 307v659z" />
    <glyph glyph-name="one" unicode="1" horiz-adv-x="1228" 
d="M1133 0h-996v188h393v1145l-331 -225l-105 156l500 340h145v-1416h394v-188z" />
    <glyph glyph-name="two" unicode="2" horiz-adv-x="1228" 
d="M563 188h559v-188h-1016v131l664 715q79 84 110 146.5t31 140.5v20q0 133 -78.5 208t-209.5 75h-17q-146 0 -218.5 -88t-72.5 -283h-209v45q0 512 508 512q126 0 224.5 -34t159.5 -93.5t92.5 -137t31.5 -167.5v-29q0 -128 -39.5 -215t-142.5 -196l-524 -564z" />
    <glyph glyph-name="three" unicode="3" horiz-adv-x="1228" 
d="M305 512q0 -180 78.5 -265t220.5 -85h21q126 0 211.5 69t85.5 201v27q0 128 -77.5 196t-205.5 68h-229v184h221q127 0 203.5 63t76.5 187v17q0 120 -78.5 191t-207.5 71h-21q-146 0 -217.5 -88t-71.5 -283h-209v45q0 512 508 512q126 0 225 -34t159.5 -93t92 -134.5
t31.5 -162.5v-35q0 -129 -59.5 -215.5t-161.5 -132.5q106 -45 169 -137t63 -227v-35q0 -89 -35.5 -168.5t-100 -140.5t-164 -96.5t-219.5 -35.5q-259 0 -388.5 133.5t-129.5 378.5v25h209z" />
    <glyph glyph-name="four" unicode="4" horiz-adv-x="1228" 
d="M932 0h-209v397h-660v144l670 1056h199v-1011h233v-189h-233v-397zM727 1257l-432 -675l151 4h277v493z" />
    <glyph glyph-name="five" unicode="5" horiz-adv-x="1228" 
d="M96 512h209q0 -180 78.5 -265t220.5 -85h21q127 0 212 80.5t85 240.5v31q0 161 -86.5 241.5t-219.5 80.5h-16q-99 0 -187.5 -48.5t-127.5 -138.5l-176 60l36 888h967v-188h-786l-23 -481q136 92 320 92q232 0 371 -134t139 -372v-31q0 -240 -140.5 -374t-378.5 -134
q-259 0 -388.5 133.5t-129.5 378.5v25z" />
    <glyph glyph-name="six" unicode="6" horiz-adv-x="1228" 
d="M1063 1622v-190q-176 0 -323.5 -60.5t-247.5 -189.5q-98 -127 -144 -301q132 125 322 125q212 0 340.5 -131.5t128.5 -372.5v-21q0 -244 -137 -375t-381 -131q-237 0 -379 153t-142 419v22q0 432 226 734q125 167 317 243t420 76zM625 817q-102 0 -187 -51.5t-129 -140.5
v-93q0 -171 87 -269.5t218 -98.5h13q138 0 219.5 81.5t81.5 229.5v35q0 150 -78.5 228.5t-214.5 78.5h-10z" />
    <glyph glyph-name="seven" unicode="7" horiz-adv-x="1228" 
d="M102 1024v573h1037v-129l-598 -1468h-224l584 1413l-217 -4h-393v-385h-189z" />
    <glyph glyph-name="eight" unicode="8" horiz-adv-x="1228" 
d="M614 -25q-120 0 -219.5 35t-164 95t-99.5 139t-35 168v34q0 136 63.5 229t170.5 140q-103 46 -163.5 134t-60.5 218v35q0 87 31.5 162t92.5 133t159.5 91.5t224.5 33.5t224.5 -33.5t159.5 -91.5t92.5 -133t31.5 -162v-35q0 -130 -60 -218.5t-163 -133.5q106 -47 170 -140
t64 -229v-34q0 -89 -35 -168t-100 -139t-164.5 -95t-219.5 -35zM590 723q-127 0 -205 -69t-78 -199v-27q0 -89 42.5 -150.5t108 -88.5t146.5 -27h21q81 0 146.5 27t108 88.5t42.5 150.5v27q0 130 -78 199t-205 69h-49zM625 1436h-21q-130 0 -208.5 -70t-78.5 -188v-19
q0 -123 77 -187.5t204 -64.5h33q127 0 203.5 64.5t76.5 187.5v19q0 118 -78 188t-208 70z" />
    <glyph glyph-name="nine" unicode="9" horiz-adv-x="1228" 
d="M166 -25v191q176 0 323.5 60.5t247.5 189.5q97 122 144 299q-133 -123 -322 -123q-212 0 -340.5 131.5t-128.5 372.5v20q0 244 137 375t381 131q237 0 378.5 -152.5t141.5 -418.5v-23q0 -433 -225 -733q-125 -167 -317 -243.5t-420 -76.5zM604 780q100 0 185 51.5
t129 139.5q2 25 2 73v21q0 171 -87.5 270t-218.5 99h-12q-138 0 -219.5 -82t-81.5 -230v-35q0 -150 78.5 -228.5t214.5 -78.5h10z" />
    <glyph glyph-name="colon" unicode=":" horiz-adv-x="479" 
d="M356 233v-233h-233v233h233zM356 915v-233h-233v233h233z" />
    <glyph glyph-name="semicolon" unicode=";" horiz-adv-x="479" 
d="M356 233v-184q0 -309 -270 -309v115q71 0 109 34.5t47 110.5h-119v233h233zM356 915v-233h-233v233h233z" />
    <glyph glyph-name="less" unicode="&#x3c;" horiz-adv-x="1228" 
d="M94 901l1041 461v-209l-828 -354l828 -355v-208l-1041 460v205z" />
    <glyph glyph-name="equal" unicode="=" horiz-adv-x="1228" 
d="M94 918v190h1041v-190h-1041zM94 489v191h1041v-191h-1041z" />
    <glyph glyph-name="greater" unicode="&#x3e;" horiz-adv-x="1228" 
d="M1135 901v-205l-1041 -460v208l828 355l-828 354v209z" />
    <glyph glyph-name="question" unicode="?" horiz-adv-x="962" 
d="M489 1436q-53 0 -92.5 -17.5t-65.5 -49t-42 -81t-22.5 -109t-6.5 -137.5h-209v27q0 129 21 225.5t70 172.5t136 115.5t211 39.5q113 0 196.5 -32t131.5 -90.5t71 -132.5t23 -167q0 -83 -19 -150.5t-49.5 -114.5t-67.5 -88.5t-75 -83t-70.5 -87.5t-55 -112.5t-27.5 -147.5
h-141q-5 95 14.5 179.5t52.5 143t72.5 118.5t74 107t57.5 106t23 118q0 119 -48 183.5t-163 64.5zM594 233v-233h-234v233h234z" />
    <glyph glyph-name="at" unicode="@" horiz-adv-x="1988" 
d="M1036 -287h13q376 0 673 217l86 -114q-315 -250 -766 -250q-215 0 -395.5 66.5t-310 191t-201.5 311.5t-72 418v82q0 231 71.5 418t199.5 311.5t306.5 191t391.5 66.5q147 0 278.5 -30.5t245 -95.5t195.5 -160t129 -231.5t47 -301.5v-62q0 -121 -18.5 -216.5
t-54.5 -162.5t-84 -114t-112 -74t-132.5 -39t-151.5 -12h-135l-22 139q-102 -164 -306 -164q-100 0 -176.5 38t-123 105t-70 152t-23.5 185v53q0 100 23.5 185t70 151.5t123 104.5t176.5 38q203 0 306 -166l22 141h162l-17 -292v-525q79 3 136 15.5t106.5 44t79 84
t46.5 134.5t17 195v62q0 145 -40.5 260.5t-109 191.5t-163.5 126.5t-198.5 72t-219.5 21.5h-12q-179 0 -328 -56t-256.5 -161.5t-167 -264.5t-59.5 -358v-82q0 -203 60 -363t169.5 -264t259.5 -158.5t332 -54.5zM1198 801q-35 56 -95 98.5t-140 42.5q-124 0 -186 -84
t-62 -227v-53q0 -143 62 -227.5t186 -84.5q80 0 140 43t95 99v393z" />
    <glyph glyph-name="A" unicode="A" horiz-adv-x="1271" 
d="M487 1610h297l441 -1610h-230l-100 385h-516l-100 -385h-232zM637 1370l-209 -797h418z" />
    <glyph glyph-name="B" unicode="B" horiz-adv-x="1232" 
d="M137 1597h449q82 0 151.5 -12t134.5 -41.5t110 -76t72 -119t27 -166.5v-41q0 -229 -204 -318q245 -89 245 -346v-41q0 -97 -28 -173t-74.5 -125t-113 -80.5t-138 -44.5t-154.5 -13h-477v1597zM625 725h-275v-537h275q58 0 106.5 14t88.5 43t62.5 80t22.5 119v25
q0 89 -40.5 148.5t-101 83.5t-138.5 24zM590 1409h-240v-496h240q121 0 197.5 55.5t76.5 178.5v29q0 64 -22 110.5t-61 72.5t-86.5 38t-104.5 12z" />
    <glyph glyph-name="C" unicode="C" horiz-adv-x="1290" 
d="M322 758q0 -310 79.5 -452t264.5 -142h14q299 0 299 366h215v-20q0 -535 -528 -535q-290 0 -427 186t-137 597v82q0 411 137 596.5t427 185.5q267 0 397.5 -135.5t130.5 -417.5v-63h-215q0 222 -69.5 325t-229.5 103h-14q-184 0 -264 -142.5t-80 -451.5v-82z" />
    <glyph glyph-name="D" unicode="D" horiz-adv-x="1325" 
d="M1223 758q0 -206 -40 -351.5t-121.5 -235t-198 -130.5t-277.5 -41h-449v1597h449q161 0 277.5 -41t198 -130t121.5 -234.5t40 -351.5v-82zM350 188h221q224 0 328.5 134.5t104.5 435.5v82q0 301 -104.5 435t-328.5 134h-221v-1221z" />
    <glyph glyph-name="E" unicode="E" horiz-adv-x="1140" 
d="M137 1597h922v-188h-709v-500h606v-188h-606v-533h709v-188h-922v1597z" />
    <glyph glyph-name="F" unicode="F" horiz-adv-x="1077" 
d="M137 1597h899v-188h-686v-500h584v-188h-584v-721h-213v1597z" />
    <glyph glyph-name="G" unicode="G" horiz-adv-x="1341" 
d="M702 -25q-306 0 -453 186.5t-147 596.5v82q0 408 143.5 595t436.5 187q267 0 399.5 -136t132.5 -417v-63h-215q0 222 -70 325t-233 103h-16q-188 0 -274.5 -144t-86.5 -450v-82q0 -309 88 -451.5t289 -142.5h17q180 0 288 100v363h-251v188h464v-653q-195 -187 -512 -187
z" />
    <glyph glyph-name="H" unicode="H" horiz-adv-x="1325" 
d="M975 1597h213v-1597h-213v721h-625v-721h-213v1597h213v-688h625v688z" />
    <glyph glyph-name="I" unicode="I" horiz-adv-x="507" 
d="M360 1597v-1597h-213v1597h213z" />
    <glyph glyph-name="J" unicode="J" horiz-adv-x="1044" 
d="M705 1597h213v-1108q0 -251 -103.5 -382.5t-329.5 -131.5q-232 0 -331 129.5t-99 387.5v38h201q0 -192 51 -279t172 -87q122 0 174 85.5t52 270.5v1077z" />
    <glyph glyph-name="K" unicode="K" horiz-adv-x="1198" 
d="M350 1597v-788l529 788h258l-465 -661l465 -936h-238l-360 748l-189 -269v-479h-213v1597h213z" />
    <glyph glyph-name="L" unicode="L" horiz-adv-x="1026" 
d="M995 0h-858v1597h213v-1409h645v-188z" />
    <glyph glyph-name="M" unicode="M" horiz-adv-x="1693" 
d="M1352 1227l-402 -1227h-207l-401 1227l8 -342v-885h-213v1597h309l400 -1228l401 1228h309v-1597h-213v885z" />
    <glyph glyph-name="N" unicode="N" horiz-adv-x="1366" 
d="M1229 1597v-1597h-228l-669 1221l8 -355v-866h-203v1597h228l669 -1220l-8 354v866h203z" />
    <glyph glyph-name="O" unicode="O" horiz-adv-x="1345" 
d="M674 -25q-292 0 -432 186.5t-140 596.5v82q0 410 139.5 596t432.5 186q291 0 430 -186t139 -596v-82q0 -410 -139 -596.5t-430 -186.5zM666 164h14q182 0 263 143t81 451v82q0 308 -81 451t-263 143h-14q-182 0 -263 -143t-81 -451v-82q0 -308 81 -451t263 -143z" />
    <glyph glyph-name="P" unicode="P" horiz-adv-x="1200" 
d="M350 623v-623h-213v1597h473q79 0 146.5 -11t137 -42.5t118 -81.5t79.5 -135t31 -197v-40q0 -467 -512 -467h-260zM350 809h266q53 0 98.5 11.5t91 40.5t72.5 89t27 146v26q0 86 -27 146t-72.5 89t-91 40.5t-98.5 11.5h-266v-600z" />
    <glyph glyph-name="Q" unicode="Q" horiz-adv-x="1345" 
d="M674 -25q-292 0 -432 186.5t-140 596.5v82q0 410 139.5 596t432.5 186q291 0 430 -186t139 -596v-82q0 -306 -76.5 -486t-234.5 -249l88 -228h-178l-72 187q-54 -7 -96 -7zM750 489l108 -278q87 59 126.5 193t39.5 354v82q0 308 -81 451t-263 143h-14q-182 0 -263 -143
t-81 -451v-82q0 -308 81 -451t263 -143h36l-122 325h170z" />
    <glyph glyph-name="R" unicode="R" horiz-adv-x="1224" 
d="M350 623v-623h-213v1597h473q79 0 146.5 -11t137 -42.5t118 -81.5t79.5 -135t31 -197v-40q0 -335 -266 -431l266 -659h-231l-242 623h-299zM350 809h266q53 0 98.5 11.5t91 40.5t72.5 89t27 146v26q0 86 -27 146t-72.5 89t-91 40.5t-98.5 11.5h-266v-600z" />
    <glyph glyph-name="S" unicode="S" horiz-adv-x="1251" 
d="M592 725q-256 35 -374 141.5t-118 288.5v23q0 204 141.5 324t385.5 120q271 0 397.5 -131t126.5 -395v-49h-213q0 203 -72.5 295t-236.5 92h-15q-131 0 -213 -66t-82 -174v-16q0 -79 29.5 -131t106.5 -89t209 -55q262 -35 382.5 -140.5t120.5 -301.5v-23
q0 -218 -143 -340.5t-397 -122.5q-266 0 -404.5 136.5t-138.5 398.5v20h213q0 -184 85.5 -275t235.5 -91h17q145 0 229 71t84 193v16q0 123 -81 189t-275 92z" />
    <glyph glyph-name="T" unicode="T" horiz-adv-x="1085" 
d="M649 1409v-1409h-213v1409h-393v188h999v-188h-393z" />
    <glyph glyph-name="U" unicode="U" horiz-adv-x="1325" 
d="M664 -25q-282 0 -409.5 123t-127.5 400v1099h213v-1089q0 -188 76 -266t248 -78q170 0 245.5 78t75.5 266v1089h213v-1099q0 -277 -126.5 -400t-407.5 -123z" />
    <glyph glyph-name="V" unicode="V" horiz-adv-x="1271" 
d="M784 -12h-297l-440 1609h229l361 -1370l358 1370h230z" />
    <glyph glyph-name="W" unicode="W" horiz-adv-x="1863" 
d="M1229 -12l-297 1372l-297 -1372h-281l-286 1609h223l215 -1331l289 1331h274l289 -1331l215 1331h223l-287 -1609h-280z" />
    <glyph glyph-name="X" unicode="X" horiz-adv-x="1282" 
d="M53 0l436 823l-436 774h250l338 -622l338 622h248l-436 -776l436 -821h-240l-346 674l-346 -674h-242z" />
    <glyph glyph-name="Y" unicode="Y" horiz-adv-x="1216" 
d="M715 485v-485h-213v485l-469 1112h231l344 -847l344 847h232z" />
    <glyph glyph-name="Z" unicode="Z" horiz-adv-x="1177" 
d="M82 147l733 1268l-270 -6h-443v188h973v-147l-733 -1268l270 6h484v-188h-1014v147z" />
    <glyph glyph-name="bracketleft" unicode="[" horiz-adv-x="684" 
d="M131 1720h475v-186h-268v-1593h268v-187h-475v1966z" />
    <glyph glyph-name="backslash" unicode="\" horiz-adv-x="735" 
d="M502 -246l-471 1966h205l471 -1966h-205z" />
    <glyph glyph-name="bracketright" unicode="]" horiz-adv-x="684" 
d="M555 -246h-475v187h266v1593h-266v186h475v-1966z" />
    <glyph glyph-name="asciicircum" unicode="^" horiz-adv-x="1228" 
d="M717 1597l461 -1042h-209l-355 829l-354 -829h-209l461 1042h205z" />
    <glyph glyph-name="underscore" unicode="_" horiz-adv-x="655" 
d="M94 -313v184h467v-184h-467z" />
    <glyph glyph-name="grave" unicode="`" horiz-adv-x="1024" 
d="M205 1597h225l186 -354h-208z" />
    <glyph glyph-name="a" unicode="a" horiz-adv-x="1075" 
d="M791 0l-21 139q-132 -164 -369 -164q-155 0 -237 85.5t-82 222.5v20q0 69 20 123t52.5 89t81.5 61t99.5 40t113.5 23l301 47v16q0 126 -48.5 185t-169.5 59q-120 0 -167.5 -59.5t-47.5 -159.5h-194v18q0 55 11 104t40 98t74 84t119.5 57t171.5 22q116 0 198 -28.5
t129 -84t67.5 -127.5t20.5 -168v-395l15 -307h-178zM467 147q187 0 283 142v264l-271 -45q-194 -31 -194 -184v-17q0 -68 45.5 -114t136.5 -46z" />
    <glyph glyph-name="b" unicode="b" horiz-adv-x="1126" 
d="M330 1638v-667q103 139 299 139q87 0 156.5 -27t116.5 -74.5t78.5 -116t45.5 -148t14 -173.5v-57q0 -94 -14 -173.5t-45.5 -148t-78.5 -116t-116.5 -74.5t-156.5 -27q-219 0 -320 166l-20 -141h-178l14 307v1331h205zM330 784v-483q96 -145 245 -145q130 0 194.5 93.5
t64.5 264.5v57q0 171 -64.5 265t-194.5 94q-148 0 -245 -146z" />
    <glyph glyph-name="c" unicode="c" horiz-adv-x="1071" 
d="M293 514q0 -169 65 -263.5t199 -94.5q119 0 176.5 64.5t57.5 164.5h196v-37q0 -73 -26 -138.5t-77 -119t-136 -84.5t-195 -31q-119 0 -210 41t-146.5 114.5t-83 170t-27.5 213.5v57q0 117 27.5 213.5t83 170t146.5 114.5t210 41q110 0 195 -32t136 -87t77 -123t26 -145
v-43h-196q0 115 -58 182.5t-176 67.5q-134 0 -199 -95t-65 -264v-57z" />
    <glyph glyph-name="d" unicode="d" horiz-adv-x="1134" 
d="M506 1110q193 0 297 -137v665h207v-1331l14 -307h-178l-23 141q-104 -166 -317 -166q-87 0 -156.5 27t-117 74.5t-79 116t-45.5 148t-14 173.5v57q0 94 14 173.5t45.5 148t79 116t117 74.5t156.5 27zM803 301v483q-92 146 -244 146q-130 0 -194 -94t-64 -265v-57
q0 -171 64 -264.5t194 -93.5q153 0 244 145z" />
    <glyph glyph-name="e" unicode="e" horiz-adv-x="1122" 
d="M1036 465h-743q12 -326 285 -326q126 0 194 63.5t68 145.5h196v-8q0 -70 -29.5 -134t-84.5 -116.5t-145 -83.5t-202 -31q-124 0 -219 41.5t-153.5 116t-87.5 171.5t-29 214v49q0 93 18 174t56.5 149t94 117t135 76t175.5 27q119 0 210.5 -41.5t147.5 -116t84.5 -171.5
t28.5 -214v-102zM561 946q-130 0 -196.5 -84t-71.5 -241h536q-13 325 -268 325z" />
    <glyph glyph-name="f" unicode="f" horiz-adv-x="800" 
d="M430 1288v-203h283v-182h-283v-903h-205v903h-170v182h170v226q0 352 348 352q110 0 160 -25v-172q-45 17 -112 17q-99 0 -145 -41t-46 -154z" />
    <glyph glyph-name="g" unicode="g" horiz-adv-x="1126" 
d="M797 6v178q-102 -135 -299 -135q-107 0 -187.5 38t-129 107t-72 159.5t-23.5 201.5v49q0 108 23.5 197.5t72 159.5t129 109.5t187.5 39.5q217 0 319 -164l21 139h178l-15 -307v-778q0 -205 -110.5 -319.5t-341.5 -114.5q-120 0 -208 31t-138 87t-73.5 126.5t-23.5 156.5
v33h197q0 -132 56.5 -197t187.5 -65q132 0 191 65.5t59 202.5zM797 784q-97 146 -246 146q-126 0 -192 -88t-66 -238v-49q0 -155 65.5 -240.5t192.5 -85.5q153 0 246 146v409z" />
    <glyph glyph-name="h" unicode="h" horiz-adv-x="1116" 
d="M332 1638v-673q117 145 338 145q163 0 247 -99.5t84 -258.5v-752h-202v719q0 102 -53 156.5t-152 54.5q-170 0 -262 -146v-784h-205v1638h205z" />
    <glyph glyph-name="i" unicode="i" horiz-adv-x="479" 
d="M137 0v1085h205v-1085h-205zM356 1544v-233h-233v233h233z" />
    <glyph glyph-name="j" unicode="j" horiz-adv-x="479" 
d="M137 -59v1144h205v-1167q0 -184 -92.5 -268t-255.5 -84q-112 0 -160 24v172q12 -5 46.5 -10.5t64.5 -5.5q99 0 145.5 41.5t46.5 153.5zM356 1544v-233h-233v233h233z" />
    <glyph glyph-name="k" unicode="k" horiz-adv-x="1069" 
d="M123 0v1638h205v-1058l442 505h250l-369 -409l369 -676h-238l-272 518l-182 -205v-313h-205z" />
    <glyph glyph-name="l" unicode="l" horiz-adv-x="479" 
d="M137 0v1638h205v-1638h-205z" />
    <glyph glyph-name="m" unicode="m" horiz-adv-x="1689" 
d="M1573 0h-203v741q0 100 -46.5 144.5t-135.5 44.5q-145 0 -236 -142v-788h-204v741q0 100 -46.5 144.5t-134.5 44.5q-149 0 -235 -142v-788h-205v778l-14 307h176l22 -141q110 166 332 166q106 0 177 -45.5t104 -130.5q110 176 340 176q152 0 230.5 -90t78.5 -248v-772z
" />
    <glyph glyph-name="n" unicode="n" horiz-adv-x="1116" 
d="M1001 0h-202v719q0 102 -53 156.5t-152 54.5q-170 0 -262 -146v-784h-205v778l-14 307h176l22 -149q117 174 359 174q163 0 247 -99.5t84 -258.5v-752z" />
    <glyph glyph-name="o" unicode="o" horiz-adv-x="1122" 
d="M561 -25q-121 0 -213 41t-148.5 114.5t-85 170t-28.5 213.5v57q0 117 28.5 213.5t85 170t148.5 114.5t213 41t213 -41t148.5 -114.5t85 -170t28.5 -213.5v-57q0 -117 -28.5 -213.5t-85 -170t-148.5 -114.5t-213 -41zM561 156q134 0 201 95t67 263v57q0 168 -67 263.5
t-201 95.5t-201 -95.5t-67 -263.5v-57q0 -168 67 -263t201 -95z" />
    <glyph glyph-name="p" unicode="p" horiz-adv-x="1126" 
d="M629 -25q-196 0 -299 140v-525h-205v1188l-14 307h178l20 -143q102 168 320 168q87 0 156.5 -27t116.5 -74.5t78.5 -116t45.5 -148t14 -173.5v-57q0 -94 -14 -173.5t-45.5 -148t-78.5 -116t-116.5 -74.5t-156.5 -27zM330 784v-483q96 -145 245 -145q130 0 194.5 93.5
t64.5 264.5v57q0 171 -64.5 265t-194.5 94q-148 0 -245 -146z" />
    <glyph glyph-name="q" unicode="q" horiz-adv-x="1132" 
d="M799 -410v521q-106 -136 -297 -136q-87 0 -156.5 27t-117 74.5t-79 116t-45.5 148t-14 173.5v57q0 94 14 173.5t45.5 148t79 116t117 74.5t156.5 27q212 0 315 -166l23 141h178l-14 -307v-1188h-205zM799 301v483q-97 146 -246 146q-129 0 -192.5 -94t-63.5 -265v-57
q0 -171 63.5 -264.5t192.5 -93.5q150 0 246 145z" />
    <glyph glyph-name="r" unicode="r" horiz-adv-x="716" 
d="M608 1110q7 0 18.5 -1t12.5 -1v-197h-37q-178 0 -270 -139v-772h-205v778l-14 307h176l20 -139q109 164 299 164z" />
    <glyph glyph-name="s" unicode="s" horiz-adv-x="1073" 
d="M537 139q111 0 169 45.5t58 122.5q0 87 -55.5 122t-196.5 46q-218 20 -307.5 89.5t-89.5 205.5v14q0 155 113.5 240.5t308.5 85.5q219 0 321.5 -98t102.5 -271v-8h-203q0 104 -51 158.5t-170 54.5q-103 0 -160.5 -41.5t-57.5 -116.5q0 -52 19 -83t72.5 -51.5t150.5 -28.5
q213 -16 312.5 -83t99.5 -218v-13q0 -154 -113.5 -245t-322.5 -91q-112 0 -198 29t-136.5 79.5t-75.5 112t-25 132.5v8h203q0 -86 54 -141.5t178 -55.5z" />
    <glyph glyph-name="t" unicode="t" horiz-adv-x="841" 
d="M430 1085h324v-182h-324v-553q0 -112 46 -153t145 -41q69 0 112 16v-172q-50 -25 -160 -25q-163 0 -255.5 84t-92.5 269v575h-170v182h170v308h205v-308z" />
    <glyph glyph-name="u" unicode="u" horiz-adv-x="1116" 
d="M115 1085h204v-718q0 -101 52.5 -156t150.5 -55q168 0 264 145v784h205v-778l15 -307h-179l-22 150q-118 -175 -359 -175q-162 0 -246.5 100t-84.5 259v751z" />
    <glyph glyph-name="v" unicode="v" horiz-adv-x="1075" 
d="M397 0l-356 1085h215l283 -907l280 907h215l-356 -1085h-281z" />
    <glyph glyph-name="w" unicode="w" horiz-adv-x="1501" 
d="M752 864l-215 -864h-265l-217 1085h203l152 -866l217 866h247l218 -866l153 866h203l-219 -1085h-262z" />
    <glyph glyph-name="x" unicode="x" horiz-adv-x="1044" 
d="M43 1085h240l239 -417l240 417h239l-317 -532l317 -553h-235l-244 438l-243 -438h-236l315 553z" />
    <glyph glyph-name="y" unicode="y" horiz-adv-x="1038" 
d="M530 266l275 819h221l-387 -1038l-150 -457h-239l170 457l-385 1038h221z" />
    <glyph glyph-name="z" unicode="z" horiz-adv-x="972" 
d="M66 141l557 766l-238 -4h-299v182h801v-141l-557 -766l237 4h340v-182h-841v141z" />
    <glyph glyph-name="braceleft" unicode="{" horiz-adv-x="684" 
d="M606 1720v-186q-92 0 -136 -44t-44 -155v-379q0 -160 -115 -219q115 -62 115 -219v-379q0 -111 44 -154.5t136 -43.5v-187h-45q-74 0 -133 16t-108 50.5t-76 97.5t-27 150v401q0 99 -39 136.5t-127 37.5v188q88 0 127 38t39 137v401q0 87 27 149.5t76 97.5t108 50.5
t133 15.5h45z" />
    <glyph glyph-name="bar" unicode="|" horiz-adv-x="456" 
d="M125 -246v1966h205v-1966h-205z" />
    <glyph glyph-name="braceright" unicode="}" horiz-adv-x="684" 
d="M80 -246v187q91 0 134.5 43.5t43.5 154.5v379q0 157 115 219q-115 59 -115 219v379q0 111 -43.5 155t-134.5 44v186h43q74 0 133 -15.5t108 -50.5t76 -97.5t27 -149.5v-401q0 -99 39 -137t129 -38v-188q-90 0 -129 -37.5t-39 -136.5v-401q0 -87 -27 -150t-76 -97.5
t-108 -50.5t-133 -16h-43z" />
    <glyph glyph-name="asciitilde" unicode="~" horiz-adv-x="1228" 
d="M367 946q73 0 144.5 -22t119 -48.5t109.5 -48.5t118 -22q59 0 110 33t85 75l106 -106q-49 -71 -124 -119.5t-173 -48.5q-73 0 -144.5 22t-119 48.5t-109.5 48.5t-118 22q-59 0 -110.5 -33.5t-84.5 -76.5l-106 108q50 70 125 119t172 49z" />
    <glyph glyph-name="nbspace" unicode="&#xa0;" horiz-adv-x="409" 
 />
    <glyph glyph-name="exclamdown" unicode="&#xa1;" horiz-adv-x="479" 
d="M367 -410h-254l55 1080h143zM356 1085v-233h-233v233h233z" />
    <glyph glyph-name="cent" unicode="&#xa2;" horiz-adv-x="1228" 
d="M909 1720l-61 -260q135 -46 202.5 -159t67.5 -279v-53h-207q0 225 -110 297l-232 -963q30 -6 68 -6h8q137 0 201.5 77t64.5 214h207v-31q0 -212 -120 -330t-361 -118q-64 0 -111 8l-57 -240h-168l70 291q-260 136 -260 600v63q0 326 131 494t395 168q33 0 49 -2l55 229
h168zM324 768q0 -267 98 -383l219 920h-4q-313 0 -313 -474v-63z" />
    <glyph glyph-name="sterling" unicode="&#xa3;" horiz-adv-x="1228" 
d="M668 1436q-119 0 -177.5 -71.5t-58.5 -197.5q0 -116 47 -301h393v-186h-344q79 -288 90 -492h506v-188h-1020v188h330q-3 37 -8 73t-14.5 78.5t-14.5 66t-20 74.5t-19 63.5t-23 72.5t-20 64h-211v186h158q-41 161 -41 320q0 93 26.5 170.5t79 138t140 94t201.5 33.5
q125 0 215 -40t143 -116.5t77.5 -178t24.5 -234.5v-29h-208q0 412 -252 412z" />
    <glyph glyph-name="yen" unicode="&#xa5;" horiz-adv-x="1228" 
d="M88 797v186h217l-278 614h235l352 -827l353 827h235l-280 -614h219v-186h-303l-103 -224h406v-186h-420v-387h-213v387h-420v186h404l-101 224h-303z" />
    <glyph glyph-name="brokenbar" unicode="&#xa6;" horiz-adv-x="456" 
d="M125 801v919h205v-919h-205zM125 -246v920h205v-920h-205z" />
    <glyph glyph-name="section" unicode="&#xa7;" horiz-adv-x="1077" 
d="M999 801q0 -188 -165 -262q102 -75 102 -224v-14q0 -155 -113.5 -240.5t-308.5 -85.5q-220 0 -322 97.5t-102 271.5v8h203q0 -103 51 -157t170 -54q101 0 158 41.5t57 116.5q0 76 -51 117.5t-189 52.5q-213 16 -312 86t-99 229v13q0 184 166 262q-105 72 -105 223v14
q0 155 114.5 240.5t309.5 85.5q220 0 322 -97.5t102 -271.5v-8h-205q0 103 -50 157t-169 54q-103 0 -160 -41.5t-57 -116.5q0 -38 10.5 -64.5t36.5 -49t74.5 -36.5t120.5 -20q213 -16 312 -86t99 -229v-12zM788 799q0 89 -52.5 128t-176.5 50h-33q-116 0 -177.5 -48
t-61.5 -130q0 -89 52.5 -128t178.5 -50h33q115 0 176 48t61 130z" />
    <glyph glyph-name="dieresis" unicode="&#xa8;" horiz-adv-x="1024" 
d="M442 1544v-235h-237v235h237zM819 1544v-235h-237v235h237z" />
    <glyph glyph-name="copyright" unicode="&#xa9;" horiz-adv-x="1884" 
d="M119 799q0 168 65 320t175.5 262.5t262.5 175.5t320 65t320 -65t262.5 -175.5t175.5 -262.5t65 -320t-65 -320.5t-175.5 -262.5t-262.5 -175.5t-320 -65.5t-320 65.5t-262.5 175.5t-175.5 262.5t-65 320.5zM217 799q0 -197 97 -364t264 -264t364 -97t364 97t264 264
t97 364t-97 364t-264 264t-364 97t-364 -97t-264 -264t-97 -364zM946 463q112 0 163.5 55t51.5 131h182v-33q0 -47 -13.5 -91.5t-44.5 -87t-76.5 -74t-114 -51t-152.5 -19.5q-90 0 -164 26.5t-123 71.5t-82 107t-48 130.5t-15 143.5v53q0 75 15 143.5t48 130.5t82 107.5
t123 72t164 26.5q104 0 184 -30t125.5 -80t68.5 -108t23 -120v-37h-182q0 89 -51.5 147t-163.5 58q-64 0 -112.5 -25.5t-76.5 -70t-41.5 -98t-13.5 -116.5v-53q0 -63 13.5 -116.5t41.5 -97.5t76.5 -69.5t112.5 -25.5z" />
    <glyph glyph-name="ordfeminine" unicode="&#xaa;" horiz-adv-x="825" 
d="M598 795l-16 98q-94 -119 -269 -119q-119 0 -180 65.5t-61 168.5v16q0 64 21 110t61.5 74t87 44t110.5 26l211 31v8q0 84 -31.5 124t-111.5 40q-82 0 -114 -39.5t-32 -106.5h-172v15q0 54 15.5 99.5t50 86t100 63.5t156.5 23q176 0 248.5 -77.5t72.5 -227.5v-295l13 -227
h-160zM754 414h-662v157h662v-157zM375 924q117 0 188 90v184l-180 -31q-131 -22 -131 -125v-10q0 -46 30.5 -77t92.5 -31z" />
    <glyph glyph-name="guillemotleft" unicode="&#xab;" horiz-adv-x="1093" 
d="M530 1102v-193l-278 -213l278 -213v-192l-428 309v193zM991 1102v-193l-276 -213l276 -213v-192l-426 309v193z" />
    <glyph glyph-name="logicalnot" unicode="&#xac;" horiz-adv-x="1228" 
d="M94 965v190h1041v-733h-191v543h-850z" />
    <glyph glyph-name="uni00AD" unicode="&#xad;" horiz-adv-x="690" 
d="M82 625v184h526v-184h-526z" />
    <glyph glyph-name="registered" unicode="&#xae;" horiz-adv-x="675" 
d="M37 1362q0 124 88.5 212.5t212.5 88.5t212.5 -88.5t88.5 -212.5t-88.5 -212.5t-212.5 -88.5t-212.5 88.5t-88.5 212.5zM86 1362q0 -104 74 -178t178 -74t178 74t74 178t-74 178t-178 74t-178 -74t-74 -178zM479 1415q0 -75 -61 -98l61 -131h-90l-51 121h-53v-121h-88v352
h163q52 0 85.5 -26.5t33.5 -81.5v-15zM391 1425q0 43 -49 43h-57v-92h57q49 0 49 43v6z" />
    <glyph glyph-name="macron" unicode="&#xaf;" horiz-adv-x="1024" 
d="M250 1327v186h524v-186h-524z" />
    <glyph glyph-name="degree" unicode="&#xb0;" horiz-adv-x="819" 
d="M590 1292v15q0 80 -50 127t-124 47h-13q-74 0 -124 -47t-50 -127v-15q0 -78 50 -126t124 -48h13q74 0 124 48t50 126zM729 1305v-11q0 -144 -90 -229.5t-229 -85.5t-229.5 86t-90.5 229v11q0 145 90 231t230 86q139 0 229 -86t90 -231z" />
    <glyph glyph-name="plusminus" unicode="&#xb1;" horiz-adv-x="1228" 
d="M520 1346h189v-263h426v-190h-426v-260h-189v260h-426v190h426v263zM94 311v191h1041v-191h-1041z" />
    <glyph glyph-name="twosuperior" unicode="&#xb2;" 
d="M571 948v-149h-528v108l305 336q27 29 39 51t12 54v10q0 51 -24 76.5t-64 25.5h-10q-86 0 -86 -129h-172v21q0 130 65 194t199 64q71 0 124 -20t82.5 -53t43.5 -70t14 -78v-21q0 -66 -21 -109t-69 -96l-196 -215h286z" />
    <glyph glyph-name="threesuperior" unicode="&#xb3;" 
d="M209 1055q0 -121 92 -121h10q40 0 67.5 25t27.5 73v10q0 42 -25.5 65t-67.5 23h-108v152h106q88 0 88 84v12q0 36 -24.5 59t-63.5 23h-10q-86 0 -86 -129h-172v21q0 130 65 194t199 64q70 0 123.5 -19.5t83 -52t43.5 -68t14 -73.5v-19q0 -116 -92 -172q96 -60 96 -174
v-18q0 -39 -15 -77.5t-45 -73.5t-84 -57t-124 -22q-134 0 -202 66t-68 190v15h172z" />
    <glyph glyph-name="acute" unicode="&#xb4;" horiz-adv-x="1024" 
d="M594 1597h225l-203 -354h-208z" />
    <glyph glyph-name="paragraph" unicode="&#xb6;" horiz-adv-x="1077" 
d="M737 0v1409h-94v-1409h-131v625q-71 5 -132 19.5t-121 48.5t-102 84t-68 130t-26 183v40q0 112 31 197t80.5 135t119.5 81.5t137.5 42.5t146.5 11h372v-1597h-213zM281 1096q0 -252 231 -285v594q-46 -6 -84.5 -22.5t-73 -47.5t-54 -85.5t-19.5 -127.5v-26z" />
    <glyph glyph-name="periodcentered" unicode="&#xb7;" horiz-adv-x="479" 
d="M356 834v-234h-233v234h233z" />
    <glyph glyph-name="cedilla" unicode="&#xb8;" horiz-adv-x="1232" 
d="M319 -391l37 106q59 -32 144 -32q58 0 84 13.5t26 45.5q0 55 -116 55l-66 -6l-35 51l60 158h118l-39 -102q90 -2 149.5 -43t59.5 -123q0 -84 -58 -126t-165 -42q-129 0 -199 45z" />
    <glyph glyph-name="onesuperior" unicode="&#xb9;" 
d="M586 799h-518v149h174v438l-121 -81l-86 125l250 167h129v-649h172v-149z" />
    <glyph glyph-name="ordmasculine" unicode="&#xba;" horiz-adv-x="874" 
d="M799 1176q0 -182 -91.5 -292t-271.5 -110t-270 110t-90 292v47q0 181 90 290t270 109t271.5 -109.5t91.5 -289.5v-47zM258 1176q0 -116 44 -179t134 -63q180 0 180 242v47q0 114 -44.5 177.5t-135.5 63.5q-90 0 -134 -63.5t-44 -177.5v-47zM92 414v157h690v-157h-690z
" />
    <glyph glyph-name="guillemotright" unicode="&#xbb;" horiz-adv-x="1093" 
d="M102 909v193l428 -309v-193l-428 -309v192l275 213zM565 909v193l426 -309v-193l-426 -309v192l275 213z" />
    <glyph glyph-name="onequarter" unicode="&#xbc;" horiz-adv-x="1638" 
d="M336 0h-213l1180 1597h213zM1528 0h-172v170h-305v121l315 508h162v-477h82v-152h-82v-170zM586 799h-518v149h174v438l-121 -81l-86 125l250 167h129v-649h172v-149zM1358 524l-129 -207l49 5h78v149z" />
    <glyph glyph-name="onehalf" unicode="&#xbd;" horiz-adv-x="1638" 
d="M336 0h-213l1180 1597h213zM1595 150v-150h-528v109l305 335q27 29 39 51t12 54v10q0 51 -24 77t-64 26h-10q-86 0 -86 -130h-172v21q0 130 65 194t199 64q71 0 124 -20t82.5 -53t43.5 -70t14 -78v-21q0 -65 -21 -108t-69 -96l-196 -215h286zM586 799h-518v149h174v438
l-121 -81l-86 125l250 167h129v-649h172v-149z" />
    <glyph glyph-name="threequarters" unicode="&#xbe;" horiz-adv-x="1638" 
d="M336 0h-213l1180 1597h213zM209 1055q0 -121 92 -121h10q40 0 67.5 25t27.5 73v10q0 42 -25.5 65t-67.5 23h-108v152h106q88 0 88 84v12q0 36 -24.5 59t-63.5 23h-10q-86 0 -86 -129h-172v21q0 130 65 194t199 64q70 0 123.5 -19.5t83 -52t43.5 -68t14 -73.5v-19
q0 -116 -92 -172q96 -60 96 -174v-18q0 -39 -15 -77.5t-45 -73.5t-84 -57t-124 -22q-134 0 -202 66t-68 190v15h172zM1528 0h-172v170h-305v121l315 508h162v-477h82v-152h-82v-170zM1358 524l-129 -207l49 5h78v149z" />
    <glyph glyph-name="questiondown" unicode="&#xbf;" horiz-adv-x="962" 
d="M473 -248q128 0 178.5 90.5t50.5 280.5h209v-29q0 -98 -12.5 -176t-43.5 -145.5t-80.5 -112t-125.5 -69.5t-176 -25q-109 0 -192 29.5t-132.5 83t-73.5 120.5t-24 148t19 147.5t50 111.5t68 84.5t75.5 77t70.5 78t54 98t26 126.5h143q5 -95 -23.5 -180.5t-73 -148.5
t-89.5 -121t-77 -123.5t-32 -131.5q0 -213 211 -213zM369 852v233h233v-233h-233z" />
    <glyph glyph-name="Agrave" unicode="&#xc0;" horiz-adv-x="1271" 
d="M487 1610h297l441 -1610h-230l-100 385h-516l-100 -385h-232zM637 1370l-209 -797h418zM403 1946h220l118 -226h-209z" />
    <glyph glyph-name="Aacute" unicode="&#xc1;" horiz-adv-x="1271" 
d="M487 1610h297l441 -1610h-230l-100 385h-516l-100 -385h-232zM637 1370l-209 -797h418zM651 1946h219l-129 -226h-209z" />
    <glyph glyph-name="Acircumflex" unicode="&#xc2;" horiz-adv-x="1271" 
d="M487 1610h297l441 -1610h-230l-100 385h-516l-100 -385h-232zM637 1370l-209 -797h418zM502 1720h-197l232 226h200l232 -226h-197l-135 117z" />
    <glyph glyph-name="Atilde" unicode="&#xc3;" horiz-adv-x="1271" 
d="M487 1610h297l441 -1610h-230l-100 385h-516l-100 -385h-232zM637 1370l-209 -797h418zM844 1925h127q0 -108 -48.5 -158.5t-129.5 -50.5q-44 0 -88.5 16.5t-75.5 36t-66 36t-61 16.5q-72 0 -72 -80h-127q0 108 48.5 158.5t129.5 50.5q44 0 88.5 -16.5t75.5 -36t66 -36
t61 -16.5q72 0 72 80z" />
    <glyph glyph-name="Adieresis" unicode="&#xc4;" horiz-adv-x="1271" 
d="M487 1610h297l441 -1610h-230l-100 385h-516l-100 -385h-232zM637 1370l-209 -797h418zM571 1917v-168h-202v168h202zM905 1917v-168h-203v168h203z" />
    <glyph glyph-name="Aring" unicode="&#xc5;" horiz-adv-x="1271" 
d="M436 1769q0 83 59 142t142 59t142 -59t59 -142q0 -98 -78 -159h24l441 -1610h-230l-100 385h-516l-100 -385h-232l440 1610h25q-76 60 -76 159zM637 1370l-209 -797h418zM526 1769q0 -46 32.5 -79t78.5 -33t78.5 33t32.5 79q0 45 -33 78t-78 33t-78 -33t-33 -78z" />
    <glyph glyph-name="AE" unicode="&#xc6;" horiz-adv-x="1748" 
d="M612 1597h1055v-188h-733l72 -500h559v-188h-533l76 -533h559v-188h-758l-51 397h-461l-137 -397h-229zM733 1360l-270 -774h371z" />
    <glyph glyph-name="Ccedilla" unicode="&#xc7;" horiz-adv-x="1290" 
d="M489 -391l37 106q59 -32 144 -32q58 0 84 13.5t26 45.5q0 55 -116 55l-66 -6l-35 51l51 135q-263 15 -387.5 201.5t-124.5 579.5v82q0 411 137 596.5t427 185.5q267 0 397.5 -135.5t130.5 -417.5v-63h-215q0 222 -69.5 325t-229.5 103h-14q-184 0 -264 -142.5t-80 -451.5
v-82q0 -310 79.5 -452t264.5 -142h14q299 0 299 366h215v-20q0 -252 -114.5 -384t-346.5 -149l-31 -79q90 -2 149.5 -43t59.5 -123q0 -84 -58 -126t-165 -42q-129 0 -199 45z" />
    <glyph glyph-name="Egrave" unicode="&#xc8;" horiz-adv-x="1140" 
d="M137 1597h922v-188h-709v-500h606v-188h-606v-533h709v-188h-922v1597zM377 1946h219l119 -226h-209z" />
    <glyph glyph-name="Eacute" unicode="&#xc9;" horiz-adv-x="1140" 
d="M137 1597h922v-188h-709v-500h606v-188h-606v-533h709v-188h-922v1597zM625 1946h219l-129 -226h-209z" />
    <glyph glyph-name="Ecircumflex" unicode="&#xca;" horiz-adv-x="1140" 
d="M137 1597h922v-188h-709v-500h606v-188h-606v-533h709v-188h-922v1597zM475 1720h-196l231 226h201l231 -226h-197l-135 117z" />
    <glyph glyph-name="Edieresis" unicode="&#xcb;" horiz-adv-x="1140" 
d="M137 1597h922v-188h-709v-500h606v-188h-606v-533h709v-188h-922v1597zM545 1917v-168h-203v168h203zM879 1917v-168h-203v168h203z" />
    <glyph glyph-name="Igrave" unicode="&#xcc;" horiz-adv-x="507" 
d="M360 1597v-1597h-213v1597h213zM20 1946h220l118 -226h-208z" />
    <glyph glyph-name="Iacute" unicode="&#xcd;" horiz-adv-x="507" 
d="M360 1597v-1597h-213v1597h213zM268 1946h219l-129 -226h-208z" />
    <glyph glyph-name="Icircumflex" unicode="&#xce;" horiz-adv-x="507" 
d="M360 1597v-1597h-213v1597h213zM119 1720h-197l232 226h200l232 -226h-197l-135 117z" />
    <glyph glyph-name="Idieresis" unicode="&#xcf;" horiz-adv-x="507" 
d="M360 1597v-1597h-213v1597h213zM522 1917v-168h-203v168h203zM188 1917v-168h-202v168h202z" />
    <glyph glyph-name="Eth" unicode="&#xd0;" horiz-adv-x="1447" 
d="M33 721v188h227v688h449q161 0 277.5 -41t198 -130t121.5 -234.5t40 -351.5v-82q0 -206 -40 -351.5t-121.5 -235t-198 -130.5t-277.5 -41h-449v721h-227zM473 1409v-500h401v-188h-401v-533h221q224 0 328 134.5t104 435.5v82q0 301 -104 435t-328 134h-221z" />
    <glyph glyph-name="Ntilde" unicode="&#xd1;" horiz-adv-x="1366" 
d="M1229 1597v-1597h-228l-669 1221l8 -355v-866h-203v1597h228l669 -1220l-8 354v866h203zM891 1925h127q0 -108 -48.5 -158.5t-129.5 -50.5q-44 0 -88.5 16.5t-75.5 36t-66 36t-61 16.5q-72 0 -72 -80h-127q0 108 48.5 158.5t129.5 50.5q44 0 88.5 -16.5t75.5 -36t66 -36
t61 -16.5q72 0 72 80z" />
    <glyph glyph-name="Ograve" unicode="&#xd2;" horiz-adv-x="1345" 
d="M674 -25q-292 0 -432 186.5t-140 596.5v82q0 410 139.5 596t432.5 186q291 0 430 -186t139 -596v-82q0 -410 -139 -596.5t-430 -186.5zM666 164h14q182 0 263 143t81 451v82q0 308 -81 451t-263 143h-14q-182 0 -263 -143t-81 -451v-82q0 -308 81 -451t263 -143z
M440 1946h219l119 -226h-209z" />
    <glyph glyph-name="Oacute" unicode="&#xd3;" horiz-adv-x="1345" 
d="M674 -25q-292 0 -432 186.5t-140 596.5v82q0 410 139.5 596t432.5 186q291 0 430 -186t139 -596v-82q0 -410 -139 -596.5t-430 -186.5zM666 164h14q182 0 263 143t81 451v82q0 308 -81 451t-263 143h-14q-182 0 -263 -143t-81 -451v-82q0 -308 81 -451t263 -143z
M688 1946h219l-129 -226h-209z" />
    <glyph glyph-name="Ocircumflex" unicode="&#xd4;" horiz-adv-x="1345" 
d="M674 -25q-292 0 -432 186.5t-140 596.5v82q0 410 139.5 596t432.5 186q291 0 430 -186t139 -596v-82q0 -410 -139 -596.5t-430 -186.5zM666 164h14q182 0 263 143t81 451v82q0 308 -81 451t-263 143h-14q-182 0 -263 -143t-81 -451v-82q0 -308 81 -451t263 -143z
M539 1720h-197l231 226h201l232 -226h-197l-135 117z" />
    <glyph glyph-name="Otilde" unicode="&#xd5;" horiz-adv-x="1345" 
d="M674 -25q-292 0 -432 186.5t-140 596.5v82q0 410 139.5 596t432.5 186q291 0 430 -186t139 -596v-82q0 -410 -139 -596.5t-430 -186.5zM666 164h14q182 0 263 143t81 451v82q0 308 -81 451t-263 143h-14q-182 0 -263 -143t-81 -451v-82q0 -308 81 -451t263 -143z
M881 1925h127q0 -108 -49 -158.5t-130 -50.5q-44 0 -88.5 16.5t-75 36t-65.5 36t-61 16.5q-72 0 -72 -80h-127q0 108 48.5 158.5t129.5 50.5q44 0 88.5 -16.5t75.5 -36t66 -36t61 -16.5q72 0 72 80z" />
    <glyph glyph-name="Odieresis" unicode="&#xd6;" horiz-adv-x="1345" 
d="M674 -25q-292 0 -432 186.5t-140 596.5v82q0 410 139.5 596t432.5 186q291 0 430 -186t139 -596v-82q0 -410 -139 -596.5t-430 -186.5zM666 164h14q182 0 263 143t81 451v82q0 308 -81 451t-263 143h-14q-182 0 -263 -143t-81 -451v-82q0 -308 81 -451t263 -143z
M608 1917v-168h-202v168h202zM942 1917v-168h-203v168h203z" />
    <glyph glyph-name="multiply" unicode="&#xd7;" horiz-adv-x="1228" 
d="M203 252l-135 135l411 412l-411 411l135 136l411 -412l412 412l135 -136l-411 -411l411 -412l-135 -135l-412 412z" />
    <glyph glyph-name="Oslash" unicode="&#xd8;" horiz-adv-x="1329" 
d="M102 840q0 410 139.5 596t432.5 186q230 0 360 -113l53 88h148l-115 -186q123 -191 123 -571v-82q0 -410 -139 -596.5t-430 -186.5q-237 0 -369 117l-57 -92h-150l121 195q-117 191 -117 563v82zM1024 840q0 222 -41 352l-563 -913q81 -115 246 -115h14q182 0 263 143
t81 451v82zM322 758q0 -218 34 -340l564 907q-81 109 -240 109h-14q-182 0 -263 -143t-81 -451v-82z" />
    <glyph glyph-name="Ugrave" unicode="&#xd9;" horiz-adv-x="1325" 
d="M664 -25q-282 0 -409.5 123t-127.5 400v1099h213v-1089q0 -188 76 -266t248 -78q170 0 245.5 78t75.5 266v1089h213v-1099q0 -277 -126.5 -400t-407.5 -123zM430 1946h219l119 -226h-209z" />
    <glyph glyph-name="Uacute" unicode="&#xda;" horiz-adv-x="1325" 
d="M664 -25q-282 0 -409.5 123t-127.5 400v1099h213v-1089q0 -188 76 -266t248 -78q170 0 245.5 78t75.5 266v1089h213v-1099q0 -277 -126.5 -400t-407.5 -123zM678 1946h219l-129 -226h-209z" />
    <glyph glyph-name="Ucircumflex" unicode="&#xdb;" horiz-adv-x="1325" 
d="M664 -25q-282 0 -409.5 123t-127.5 400v1099h213v-1089q0 -188 76 -266t248 -78q170 0 245.5 78t75.5 266v1089h213v-1099q0 -277 -126.5 -400t-407.5 -123zM528 1720h-196l231 226h201l231 -226h-196l-135 117z" />
    <glyph glyph-name="Udieresis" unicode="&#xdc;" horiz-adv-x="1325" 
d="M664 -25q-282 0 -409.5 123t-127.5 400v1099h213v-1089q0 -188 76 -266t248 -78q170 0 245.5 78t75.5 266v1089h213v-1099q0 -277 -126.5 -400t-407.5 -123zM598 1917v-168h-203v168h203zM932 1917v-168h-203v168h203z" />
    <glyph glyph-name="Yacute" unicode="&#xdd;" horiz-adv-x="1216" 
d="M715 485v-485h-213v485l-469 1112h231l344 -847l344 847h232zM623 1946h219l-129 -226h-209z" />
    <glyph glyph-name="Thorn" unicode="&#xde;" horiz-adv-x="1200" 
d="M350 1597v-311h260q512 0 512 -467v-41q0 -467 -512 -467h-260v-311h-213v1597h213zM350 500h266q41 0 77.5 6t77 25t69 49.5t47 83t18.5 122.5v25q0 86 -27 146t-72.5 89t-91 40.5t-98.5 11.5h-266v-598z" />
    <glyph glyph-name="germandbls" unicode="&#xdf;" horiz-adv-x="1212" 
d="M553 733v131q138 76 202 157.5t64 192.5q0 124 -61 194.5t-185 70.5t-185.5 -71t-61.5 -185v-1223h-205v1237q0 95 26 171t79 134t141 89.5t206 31.5q222 0 336.5 -118t114.5 -308v-16q0 -131 -60.5 -226.5t-187.5 -181.5l82 -55q155 -102 229 -198.5t74 -217.5v-12
q0 -67 -19.5 -127.5t-61 -113t-116 -83.5t-173.5 -31q-355 0 -355 349v12h180q0 -197 170 -197q51 0 86.5 15.5t52.5 44.5t24 60t7 71q0 76 -55 142.5t-180 148.5z" />
    <glyph glyph-name="agrave" unicode="&#xe0;" horiz-adv-x="1075" 
d="M791 0l-21 139q-132 -164 -369 -164q-155 0 -237 85.5t-82 222.5v20q0 69 20 123t52.5 89t81.5 61t99.5 40t113.5 23l301 47v16q0 126 -48.5 185t-169.5 59q-120 0 -167.5 -59.5t-47.5 -159.5h-194v18q0 55 11 104t40 98t74 84t119.5 57t171.5 22q116 0 198 -28.5
t129 -84t67.5 -127.5t20.5 -168v-395l15 -307h-178zM467 147q187 0 283 142v264l-271 -45q-194 -31 -194 -184v-17q0 -68 45.5 -114t136.5 -46zM231 1597h226l186 -354h-209z" />
    <glyph glyph-name="aacute" unicode="&#xe1;" horiz-adv-x="1075" 
d="M791 0l-21 139q-132 -164 -369 -164q-155 0 -237 85.5t-82 222.5v20q0 69 20 123t52.5 89t81.5 61t99.5 40t113.5 23l301 47v16q0 126 -48.5 185t-169.5 59q-120 0 -167.5 -59.5t-47.5 -159.5h-194v18q0 55 11 104t40 98t74 84t119.5 57t171.5 22q116 0 198 -28.5
t129 -84t67.5 -127.5t20.5 -168v-395l15 -307h-178zM467 147q187 0 283 142v264l-271 -45q-194 -31 -194 -184v-17q0 -68 45.5 -114t136.5 -46zM621 1597h225l-203 -354h-209z" />
    <glyph glyph-name="acircumflex" unicode="&#xe2;" horiz-adv-x="1075" 
d="M791 0l-21 139q-132 -164 -369 -164q-155 0 -237 85.5t-82 222.5v20q0 69 20 123t52.5 89t81.5 61t99.5 40t113.5 23l301 47v16q0 126 -48.5 185t-169.5 59q-120 0 -167.5 -59.5t-47.5 -159.5h-194v18q0 55 11 104t40 98t74 84t119.5 57t171.5 22q116 0 198 -28.5
t129 -84t67.5 -127.5t20.5 -168v-395l15 -307h-178zM467 147q187 0 283 142v264l-271 -45q-194 -31 -194 -184v-17q0 -68 45.5 -114t136.5 -46zM365 1243h-193l270 354h193l270 -354h-192l-174 209z" />
    <glyph glyph-name="atilde" unicode="&#xe3;" horiz-adv-x="1075" 
d="M791 0l-21 139q-132 -164 -369 -164q-155 0 -237 85.5t-82 222.5v20q0 69 20 123t52.5 89t81.5 61t99.5 40t113.5 23l301 47v16q0 126 -48.5 185t-169.5 59q-120 0 -167.5 -59.5t-47.5 -159.5h-194v18q0 55 11 104t40 98t74 84t119.5 57t171.5 22q116 0 198 -28.5
t129 -84t67.5 -127.5t20.5 -168v-395l15 -307h-178zM467 147q187 0 283 142v264l-271 -45q-194 -31 -194 -184v-17q0 -68 45.5 -114t136.5 -46zM741 1546h150q0 -126 -51 -189t-135 -63q-56 0 -113.5 28t-105 55.5t-80.5 27.5q-70 0 -70 -84h-150q0 126 51.5 189t135.5 63
q44 0 90 -17.5t78 -38t68 -38t63 -17.5q69 0 69 84z" />
    <glyph glyph-name="adieresis" unicode="&#xe4;" horiz-adv-x="1075" 
d="M791 0l-21 139q-132 -164 -369 -164q-155 0 -237 85.5t-82 222.5v20q0 69 20 123t52.5 89t81.5 61t99.5 40t113.5 23l301 47v16q0 126 -48.5 185t-169.5 59q-120 0 -167.5 -59.5t-47.5 -159.5h-194v18q0 55 11 104t40 98t74 84t119.5 57t171.5 22q116 0 198 -28.5
t129 -84t67.5 -127.5t20.5 -168v-395l15 -307h-178zM467 147q187 0 283 142v264l-271 -45q-194 -31 -194 -184v-17q0 -68 45.5 -114t136.5 -46zM846 1544v-235h-238v235h238zM469 1544v-235h-238v235h238z" />
    <glyph glyph-name="aring" unicode="&#xe5;" horiz-adv-x="1075" 
d="M791 0l-21 139q-132 -164 -369 -164q-155 0 -237 85.5t-82 222.5v20q0 69 20 123t52.5 89t81.5 61t99.5 40t113.5 23l301 47v16q0 126 -48.5 185t-169.5 59q-120 0 -167.5 -59.5t-47.5 -159.5h-194v18q0 55 11 104t40 98t74 84t119.5 57t171.5 22q116 0 198 -28.5
t129 -84t67.5 -127.5t20.5 -168v-395l15 -307h-178zM467 147q187 0 283 142v264l-271 -45q-194 -31 -194 -184v-17q0 -68 45.5 -114t136.5 -46zM338 1421q0 83 59 142t142 59t141.5 -59t58.5 -142q0 -85 -58.5 -143.5t-141.5 -58.5t-142 58.5t-59 143.5zM428 1421
q0 -46 32.5 -79t78.5 -33t78 33t32 79q0 45 -32.5 78t-77.5 33t-78 -33t-33 -78z" />
    <glyph glyph-name="ae" unicode="&#xe6;" horiz-adv-x="1775" 
d="M1698 465h-742q9 -326 283 -326q126 0 195 63.5t69 145.5h195v-8q0 -70 -29 -134t-84.5 -116.5t-145 -83.5t-200.5 -31q-268 0 -395 187q-73 -83 -184 -135t-246 -52q-161 0 -246.5 85.5t-85.5 222.5v20q0 85 29 147t83.5 99t115 57.5t141.5 32.5l299 47v16
q0 126 -48.5 185t-169.5 59q-120 0 -167.5 -59.5t-47.5 -159.5h-194v18q0 55 11 104t40 98t74 84t119.5 57t171.5 22q260 0 340 -170q114 170 348 170q120 0 211.5 -41.5t147.5 -116t84 -171.5t28 -214v-102zM760 301l14 16q-24 91 -24 201v31l-271 -45q-94 -15 -144 -62
t-50 -123v-16q0 -68 45.5 -114t136.5 -46q63 0 115.5 16.5t87 43.5t55.5 50t35 48zM1223 946q-128 0 -195 -84t-72 -241h535q-13 325 -268 325z" />
    <glyph glyph-name="ccedilla" unicode="&#xe7;" horiz-adv-x="1071" 
d="M369 -391l37 106q59 -32 143 -32q58 0 84 13.5t26 45.5q0 55 -116 55l-66 -6l-35 51l52 138q-138 12 -231.5 86t-135 187t-41.5 261v57q0 117 27.5 213.5t83 170t146.5 114.5t210 41q110 0 195 -32t136 -87t77 -123t26 -145v-43h-196q0 115 -58 182.5t-176 67.5
q-134 0 -199 -95t-65 -264v-57q0 -169 65 -263.5t199 -94.5q119 0 176.5 64.5t57.5 164.5h196v-37q0 -68 -22.5 -130t-67 -113.5t-118 -85.5t-167.5 -42l-30 -79q90 -2 149.5 -43t59.5 -123q0 -84 -58.5 -126t-165.5 -42q-128 0 -198 45z" />
    <glyph glyph-name="egrave" unicode="&#xe8;" horiz-adv-x="1122" 
d="M1036 465h-743q12 -326 285 -326q126 0 194 63.5t68 145.5h196v-8q0 -70 -29.5 -134t-84.5 -116.5t-145 -83.5t-202 -31q-124 0 -219 41.5t-153.5 116t-87.5 171.5t-29 214v49q0 93 18 174t56.5 149t94 117t135 76t175.5 27q119 0 210.5 -41.5t147.5 -116t84.5 -171.5
t28.5 -214v-102zM561 946q-130 0 -196.5 -84t-71.5 -241h536q-13 325 -268 325zM258 1597h225l187 -354h-209z" />
    <glyph glyph-name="eacute" unicode="&#xe9;" horiz-adv-x="1122" 
d="M1036 465h-743q12 -326 285 -326q126 0 194 63.5t68 145.5h196v-8q0 -70 -29.5 -134t-84.5 -116.5t-145 -83.5t-202 -31q-124 0 -219 41.5t-153.5 116t-87.5 171.5t-29 214v49q0 93 18 174t56.5 149t94 117t135 76t175.5 27q119 0 210.5 -41.5t147.5 -116t84.5 -171.5
t28.5 -214v-102zM561 946q-130 0 -196.5 -84t-71.5 -241h536q-13 325 -268 325zM647 1597h225l-202 -354h-209z" />
    <glyph glyph-name="ecircumflex" unicode="&#xea;" horiz-adv-x="1122" 
d="M1036 465h-743q12 -326 285 -326q126 0 194 63.5t68 145.5h196v-8q0 -70 -29.5 -134t-84.5 -116.5t-145 -83.5t-202 -31q-124 0 -219 41.5t-153.5 116t-87.5 171.5t-29 214v49q0 93 18 174t56.5 149t94 117t135 76t175.5 27q119 0 210.5 -41.5t147.5 -116t84.5 -171.5
t28.5 -214v-102zM561 946q-130 0 -196.5 -84t-71.5 -241h536q-13 325 -268 325zM391 1243h-192l270 354h193l270 -354h-193l-174 209z" />
    <glyph glyph-name="edieresis" unicode="&#xeb;" horiz-adv-x="1122" 
d="M1036 465h-743q12 -326 285 -326q126 0 194 63.5t68 145.5h196v-8q0 -70 -29.5 -134t-84.5 -116.5t-145 -83.5t-202 -31q-124 0 -219 41.5t-153.5 116t-87.5 171.5t-29 214v49q0 93 18 174t56.5 149t94 117t135 76t175.5 27q119 0 210.5 -41.5t147.5 -116t84.5 -171.5
t28.5 -214v-102zM561 946q-130 0 -196.5 -84t-71.5 -241h536q-13 325 -268 325zM872 1544v-235h-237v235h237zM496 1544v-235h-238v235h238z" />
    <glyph glyph-name="igrave" unicode="&#xec;" horiz-adv-x="479" 
d="M135 0v1085h209v-1085h-209zM-68 1597h226l186 -354h-209z" />
    <glyph glyph-name="iacute" unicode="&#xed;" horiz-adv-x="479" 
d="M135 0v1085h209v-1085h-209zM322 1597h225l-203 -354h-209z" />
    <glyph glyph-name="icircumflex" unicode="&#xee;" horiz-adv-x="479" 
d="M135 0v1085h209v-1085h-209zM66 1243h-193l270 354h193l270 -354h-192l-174 209z" />
    <glyph glyph-name="idieresis" unicode="&#xef;" horiz-adv-x="479" 
d="M135 0v1085h209v-1085h-209zM170 1544v-235h-238v235h238zM547 1544v-235h-238v235h238z" />
    <glyph glyph-name="eth" unicode="&#xf0;" horiz-adv-x="1122" 
d="M86 1477v186q310 -24 508 -137l244 137v-137l-133 -76q61 -54 102 -100q66 -76 113 -175.5t71 -205t34.5 -202.5t10.5 -196v-57q0 -117 -28.5 -213.5t-85 -170t-148.5 -114.5t-213 -41t-213 41t-148.5 114.5t-85 170t-28.5 213.5v57q0 156 48 275.5t151.5 191.5t251.5 72
q131 0 223 -59q-44 103 -115 180q-57 60 -133 110l-354 -200v135l229 131q-124 50 -301 70zM561 156q134 0 201 95t67 263v57q0 168 -67 263.5t-201 95.5t-201 -95.5t-67 -263.5v-57q0 -168 67 -263t201 -95z" />
    <glyph glyph-name="ntilde" unicode="&#xf1;" horiz-adv-x="1116" 
d="M1001 0h-202v719q0 102 -53 156.5t-152 54.5q-170 0 -262 -146v-784h-205v778l-14 307h176l22 -149q117 174 359 174q163 0 247 -99.5t84 -258.5v-752zM768 1546h150q0 -126 -51.5 -189t-135.5 -63q-56 0 -113.5 28t-105 55.5t-80.5 27.5q-70 0 -70 -84h-149
q0 126 51 189t135 63q44 0 90 -17.5t78 -38t68 -38t63 -17.5q70 0 70 84z" />
    <glyph glyph-name="ograve" unicode="&#xf2;" horiz-adv-x="1122" 
d="M561 -25q-121 0 -213 41t-148.5 114.5t-85 170t-28.5 213.5v57q0 117 28.5 213.5t85 170t148.5 114.5t213 41t213 -41t148.5 -114.5t85 -170t28.5 -213.5v-57q0 -117 -28.5 -213.5t-85 -170t-148.5 -114.5t-213 -41zM561 156q134 0 201 95t67 263v57q0 168 -67 263.5
t-201 95.5t-201 -95.5t-67 -263.5v-57q0 -168 67 -263t201 -95zM254 1597h225l187 -354h-209z" />
    <glyph glyph-name="oacute" unicode="&#xf3;" horiz-adv-x="1122" 
d="M561 -25q-121 0 -213 41t-148.5 114.5t-85 170t-28.5 213.5v57q0 117 28.5 213.5t85 170t148.5 114.5t213 41t213 -41t148.5 -114.5t85 -170t28.5 -213.5v-57q0 -117 -28.5 -213.5t-85 -170t-148.5 -114.5t-213 -41zM561 156q134 0 201 95t67 263v57q0 168 -67 263.5
t-201 95.5t-201 -95.5t-67 -263.5v-57q0 -168 67 -263t201 -95zM643 1597h225l-202 -354h-209z" />
    <glyph glyph-name="ocircumflex" unicode="&#xf4;" horiz-adv-x="1122" 
d="M561 -25q-121 0 -213 41t-148.5 114.5t-85 170t-28.5 213.5v57q0 117 28.5 213.5t85 170t148.5 114.5t213 41t213 -41t148.5 -114.5t85 -170t28.5 -213.5v-57q0 -117 -28.5 -213.5t-85 -170t-148.5 -114.5t-213 -41zM561 156q134 0 201 95t67 263v57q0 168 -67 263.5
t-201 95.5t-201 -95.5t-67 -263.5v-57q0 -168 67 -263t201 -95zM387 1243h-192l270 354h192l271 -354h-193l-174 209z" />
    <glyph glyph-name="otilde" unicode="&#xf5;" horiz-adv-x="1122" 
d="M561 -25q-121 0 -213 41t-148.5 114.5t-85 170t-28.5 213.5v57q0 117 28.5 213.5t85 170t148.5 114.5t213 41t213 -41t148.5 -114.5t85 -170t28.5 -213.5v-57q0 -117 -28.5 -213.5t-85 -170t-148.5 -114.5t-213 -41zM561 156q134 0 201 95t67 263v57q0 168 -67 263.5
t-201 95.5t-201 -95.5t-67 -263.5v-57q0 -168 67 -263t201 -95zM764 1546h149q0 -126 -51 -189t-135 -63q-56 0 -113.5 28t-105 55.5t-80.5 27.5q-70 0 -70 -84h-149q0 126 51 189t135 63q44 0 90 -17.5t78 -38t68 -38t63 -17.5q70 0 70 84z" />
    <glyph glyph-name="odieresis" unicode="&#xf6;" horiz-adv-x="1122" 
d="M561 -25q-121 0 -213 41t-148.5 114.5t-85 170t-28.5 213.5v57q0 117 28.5 213.5t85 170t148.5 114.5t213 41t213 -41t148.5 -114.5t85 -170t28.5 -213.5v-57q0 -117 -28.5 -213.5t-85 -170t-148.5 -114.5t-213 -41zM561 156q134 0 201 95t67 263v57q0 168 -67 263.5
t-201 95.5t-201 -95.5t-67 -263.5v-57q0 -168 67 -263t201 -95zM492 1544v-235h-238v235h238zM868 1544v-235h-237v235h237z" />
    <glyph glyph-name="divide" unicode="&#xf7;" horiz-adv-x="1228" 
d="M94 705v188h1041v-188h-1041zM733 479v-235h-237v235h237zM733 1354v-236h-237v236h237z" />
    <glyph glyph-name="oslash" unicode="&#xf8;" horiz-adv-x="1122" 
d="M1036 1085l-106 -141q106 -141 106 -373v-57q0 -117 -28.5 -213.5t-85 -170t-148.5 -114.5t-213 -41q-179 0 -297 91l-49 -66h-129l107 139q-107 139 -107 375v57q0 117 28.5 213.5t85 170t148.5 114.5t213 41q176 0 295 -92l51 67h129zM829 571q0 122 -32 199l-414 -547
q67 -67 178 -67q134 0 201 95t67 263v57zM293 514q0 -117 31 -199l413 547q-68 68 -176 68q-134 0 -201 -95.5t-67 -263.5v-57z" />
    <glyph glyph-name="ugrave" unicode="&#xf9;" horiz-adv-x="1116" 
d="M115 1085h204v-718q0 -101 52.5 -156t150.5 -55q168 0 264 145v784h205v-778l15 -307h-179l-22 150q-118 -175 -359 -175q-162 0 -246.5 100t-84.5 259v751zM246 1597h225l186 -354h-208z" />
    <glyph glyph-name="uacute" unicode="&#xfa;" horiz-adv-x="1116" 
d="M115 1085h204v-718q0 -101 52.5 -156t150.5 -55q168 0 264 145v784h205v-778l15 -307h-179l-22 150q-118 -175 -359 -175q-162 0 -246.5 100t-84.5 259v751zM635 1597h225l-203 -354h-208z" />
    <glyph glyph-name="ucircumflex" unicode="&#xfb;" horiz-adv-x="1116" 
d="M115 1085h204v-718q0 -101 52.5 -156t150.5 -55q168 0 264 145v784h205v-778l15 -307h-179l-22 150q-118 -175 -359 -175q-162 0 -246.5 100t-84.5 259v751zM379 1243h-193l271 354h192l271 -354h-193l-174 209z" />
    <glyph glyph-name="udieresis" unicode="&#xfc;" horiz-adv-x="1116" 
d="M115 1085h204v-718q0 -101 52.5 -156t150.5 -55q168 0 264 145v784h205v-778l15 -307h-179l-22 150q-118 -175 -359 -175q-162 0 -246.5 100t-84.5 259v751zM860 1544v-235h-237v235h237zM483 1544v-235h-237v235h237z" />
    <glyph glyph-name="yacute" unicode="&#xfd;" horiz-adv-x="1038" 
d="M530 266l275 819h221l-387 -1038l-150 -457h-239l170 457l-385 1038h221zM612 1597h226l-203 -354h-209z" />
    <glyph glyph-name="thorn" unicode="&#xfe;" horiz-adv-x="1126" 
d="M125 1638h205v-667q103 139 299 139q87 0 156.5 -27t116.5 -74.5t78.5 -116t45.5 -148t14 -173.5v-57q0 -94 -14 -173.5t-45.5 -148t-78.5 -116t-116.5 -74.5t-156.5 -27q-196 0 -299 140v-525h-205v2048zM330 784v-483q96 -145 245 -145q130 0 194.5 93.5t64.5 264.5v57
q0 171 -64.5 265t-194.5 94q-148 0 -245 -146z" />
    <glyph glyph-name="ydieresis" unicode="&#xff;" horiz-adv-x="1038" 
d="M530 266l275 819h221l-387 -1038l-150 -457h-239l170 457l-385 1038h221zM838 1544v-235h-238v235h238zM461 1544v-235h-238v235h238z" />
    <glyph glyph-name="Amacron" unicode="&#x100;" horiz-adv-x="1271" 
d="M487 1610h297l441 -1610h-230l-100 385h-516l-100 -385h-232zM637 1370l-209 -797h418zM379 1761v144h516v-144h-516z" />
    <glyph glyph-name="amacron" unicode="&#x101;" horiz-adv-x="1075" 
d="M791 0l-21 139q-132 -164 -369 -164q-155 0 -237 85.5t-82 222.5v20q0 69 20 123t52.5 89t81.5 61t99.5 40t113.5 23l301 47v16q0 126 -48.5 185t-169.5 59q-120 0 -167.5 -59.5t-47.5 -159.5h-194v18q0 55 11 104t40 98t74 84t119.5 57t171.5 22q116 0 198 -28.5
t129 -84t67.5 -127.5t20.5 -168v-395l15 -307h-178zM467 147q187 0 283 142v264l-271 -45q-194 -31 -194 -184v-17q0 -68 45.5 -114t136.5 -46zM276 1327v186h525v-186h-525z" />
    <glyph glyph-name="Abreve" unicode="&#x102;" horiz-adv-x="1271" 
d="M487 1610h297l441 -1610h-230l-100 385h-516l-100 -385h-232zM637 1370l-209 -797h418zM637 1694q-326 0 -326 252h154q0 -123 172 -123t172 123h154q0 -252 -326 -252z" />
    <glyph glyph-name="abreve" unicode="&#x103;" horiz-adv-x="1075" 
d="M791 0l-21 139q-132 -164 -369 -164q-155 0 -237 85.5t-82 222.5v20q0 69 20 123t52.5 89t81.5 61t99.5 40t113.5 23l301 47v16q0 126 -48.5 185t-169.5 59q-120 0 -167.5 -59.5t-47.5 -159.5h-194v18q0 55 11 104t40 98t74 84t119.5 57t171.5 22q116 0 198 -28.5
t129 -84t67.5 -127.5t20.5 -168v-395l15 -307h-178zM539 1219q-181 0 -266.5 102t-82.5 276h158q0 -103 48 -158t143 -55t142.5 55t47.5 158h158q3 -174 -82 -276t-266 -102zM467 147q187 0 283 142v264l-271 -45q-194 -31 -194 -184v-17q0 -68 45.5 -114t136.5 -46z" />
    <glyph glyph-name="Aogonek" unicode="&#x104;" horiz-adv-x="1271" 
d="M1071 -186q0 -41 27.5 -67t77.5 -26q64 0 112 27l51 -139q-72 -45 -190 -45q-113 0 -178.5 52.5t-65.5 156.5q0 125 92 217l-102 395h-516l-100 -385h-232l440 1610h297l441 -1610q-154 -66 -154 -186zM637 1370l-209 -797h418z" />
    <glyph glyph-name="aogonek" unicode="&#x105;" horiz-adv-x="1075" 
d="M809 -186q0 -41 27.5 -67t76.5 -26q65 0 113 27l51 -139q-72 -45 -190 -45q-113 0 -178.5 52.5t-65.5 156.5q0 159 141 260l-14 106q-132 -164 -369 -164q-155 0 -237 85.5t-82 222.5v20q0 69 20 123t52.5 89t81.5 61t99.5 40t113.5 23l301 47v16q0 126 -48.5 185
t-169.5 59q-120 0 -167.5 -59.5t-47.5 -159.5h-194v18q0 55 11 104t40 98t74 84t119.5 57t171.5 22q116 0 198 -28.5t129 -84t67.5 -127.5t20.5 -168v-395l15 -307h-6q-154 -66 -154 -186zM467 147q187 0 283 142v264l-271 -45q-194 -31 -194 -184v-17q0 -68 45.5 -114
t136.5 -46z" />
    <glyph glyph-name="Cacute" unicode="&#x106;" horiz-adv-x="1290" 
d="M322 758q0 -310 79.5 -452t264.5 -142h14q299 0 299 366h215v-20q0 -535 -528 -535q-290 0 -427 186t-137 597v82q0 411 137 596.5t427 185.5q267 0 397.5 -135.5t130.5 -417.5v-63h-215q0 222 -69.5 325t-229.5 103h-14q-184 0 -264 -142.5t-80 -451.5v-82zM680 1946
h219l-129 -226h-209z" />
    <glyph glyph-name="cacute" unicode="&#x107;" horiz-adv-x="1071" 
d="M293 514q0 -169 65 -263.5t199 -94.5q119 0 176.5 64.5t57.5 164.5h196v-37q0 -73 -26 -138.5t-77 -119t-136 -84.5t-195 -31q-119 0 -210 41t-146.5 114.5t-83 170t-27.5 213.5v57q0 117 27.5 213.5t83 170t146.5 114.5t210 41q110 0 195 -32t136 -87t77 -123t26 -145
v-43h-196q0 115 -58 182.5t-176 67.5q-134 0 -199 -95t-65 -264v-57zM635 1597h225l-203 -354h-208z" />
    <glyph glyph-name="Ccircumflex" unicode="&#x108;" horiz-adv-x="1290" 
d="M322 758q0 -310 79.5 -452t264.5 -142h14q299 0 299 366h215v-20q0 -535 -528 -535q-290 0 -427 186t-137 597v82q0 411 137 596.5t427 185.5q267 0 397.5 -135.5t130.5 -417.5v-63h-215q0 222 -69.5 325t-229.5 103h-14q-184 0 -264 -142.5t-80 -451.5v-82zM530 1720
h-196l231 226h201l231 -226h-196l-135 117z" />
    <glyph glyph-name="ccircumflex" unicode="&#x109;" horiz-adv-x="1071" 
d="M293 514q0 -169 65 -263.5t199 -94.5q119 0 176.5 64.5t57.5 164.5h196v-37q0 -73 -26 -138.5t-77 -119t-136 -84.5t-195 -31q-119 0 -210 41t-146.5 114.5t-83 170t-27.5 213.5v57q0 117 27.5 213.5t83 170t146.5 114.5t210 41q110 0 195 -32t136 -87t77 -123t26 -145
v-43h-196q0 115 -58 182.5t-176 67.5q-134 0 -199 -95t-65 -264v-57zM379 1243h-193l271 354h192l271 -354h-193l-174 209z" />
    <glyph glyph-name="Cdotaccent" unicode="&#x10a;" horiz-adv-x="1290" 
d="M322 758q0 -310 79.5 -452t264.5 -142h14q299 0 299 366h215v-20q0 -535 -528 -535q-290 0 -427 186t-137 597v82q0 411 137 596.5t427 185.5q267 0 397.5 -135.5t130.5 -417.5v-63h-215q0 222 -69.5 325t-229.5 103h-14q-184 0 -264 -142.5t-80 -451.5v-82zM766 1917
v-168h-201v168h201z" />
    <glyph glyph-name="cdotaccent" unicode="&#x10b;" horiz-adv-x="1071" 
d="M293 514q0 -169 65 -263.5t199 -94.5q119 0 176.5 64.5t57.5 164.5h196v-37q0 -73 -26 -138.5t-77 -119t-136 -84.5t-195 -31q-119 0 -210 41t-146.5 114.5t-83 170t-27.5 213.5v57q0 117 27.5 213.5t83 170t146.5 114.5t210 41q110 0 195 -32t136 -87t77 -123t26 -145
v-43h-196q0 115 -58 182.5t-176 67.5q-134 0 -199 -95t-65 -264v-57zM672 1544v-235h-238v235h238z" />
    <glyph glyph-name="Ccaron" unicode="&#x10c;" horiz-adv-x="1290" 
d="M322 758q0 -310 79.5 -452t264.5 -142h14q299 0 299 366h215v-20q0 -535 -528 -535q-290 0 -427 186t-137 597v82q0 411 137 596.5t427 185.5q267 0 397.5 -135.5t130.5 -417.5v-63h-215q0 222 -69.5 325t-229.5 103h-14q-184 0 -264 -142.5t-80 -451.5v-82zM334 1946
h196l136 -119l135 119h196l-231 -226h-201z" />
    <glyph glyph-name="ccaron" unicode="&#x10d;" horiz-adv-x="1071" 
d="M293 514q0 -169 65 -263.5t199 -94.5q119 0 176.5 64.5t57.5 164.5h196v-37q0 -73 -26 -138.5t-77 -119t-136 -84.5t-195 -31q-119 0 -210 41t-146.5 114.5t-83 170t-27.5 213.5v57q0 117 27.5 213.5t83 170t146.5 114.5t210 41q110 0 195 -32t136 -87t77 -123t26 -145
v-43h-196q0 115 -58 182.5t-176 67.5q-134 0 -199 -95t-65 -264v-57zM186 1597h193l174 -208l174 208h193l-271 -354h-192z" />
    <glyph glyph-name="Dcaron" unicode="&#x10e;" horiz-adv-x="1325" 
d="M1223 758q0 -206 -40 -351.5t-121.5 -235t-198 -130.5t-277.5 -41h-449v1597h449q161 0 277.5 -41t198 -130t121.5 -234.5t40 -351.5v-82zM350 188h221q224 0 328.5 134.5t104.5 435.5v82q0 301 -104.5 435t-328.5 134h-221v-1221zM283 1946h196l135 -119l136 119h196
l-231 -226h-201z" />
    <glyph glyph-name="dcaron" unicode="&#x10f;" horiz-adv-x="1134" 
d="M506 1110q193 0 297 -137v665h207v-1331l14 -307h-178l-23 141q-104 -166 -317 -166q-87 0 -156.5 27t-117 74.5t-79 116t-45.5 148t-14 173.5v57q0 94 14 173.5t45.5 148t79 116t117 74.5t156.5 27zM803 301v483q-92 146 -244 146q-130 0 -194 -94t-64 -265v-57
q0 -171 64 -264.5t194 -93.5q153 0 244 145zM1147 1638h149l-43 -395h-106v395z" />
    <glyph glyph-name="Dcroat" unicode="&#x110;" horiz-adv-x="1447" 
d="M33 721v188h227v688h449q161 0 277.5 -41t198 -130t121.5 -234.5t40 -351.5v-82q0 -206 -40 -351.5t-121.5 -235t-198 -130.5t-277.5 -41h-449v721h-227zM473 1409v-500h401v-188h-401v-533h221q224 0 328 134.5t104 435.5v82q0 301 -104 435t-328 134h-221z" />
    <glyph glyph-name="dcroat" unicode="&#x111;" horiz-adv-x="1134" 
d="M1180 1440v-156h-170v-977l14 -307h-178l-23 141q-104 -166 -317 -166q-87 0 -156.5 27t-117 74.5t-79 116t-45.5 148t-14 173.5v57q0 94 14 173.5t45.5 148t79 116t117 74.5t156.5 27q193 0 297 -137v311h-258v156h258v198h207v-198h170zM803 784q-92 146 -244 146
q-130 0 -194 -94t-64 -265v-57q0 -171 64 -264.5t194 -93.5q153 0 244 145v483z" />
    <glyph glyph-name="Emacron" unicode="&#x112;" horiz-adv-x="1140" 
d="M137 1597h922v-188h-709v-500h606v-188h-606v-533h709v-188h-922v1597zM352 1761v144h516v-144h-516z" />
    <glyph glyph-name="emacron" unicode="&#x113;" horiz-adv-x="1122" 
d="M1036 465h-743q12 -326 285 -326q126 0 194 63.5t68 145.5h196v-8q0 -70 -29.5 -134t-84.5 -116.5t-145 -83.5t-202 -31q-124 0 -219 41.5t-153.5 116t-87.5 171.5t-29 214v49q0 93 18 174t56.5 149t94 117t135 76t175.5 27q119 0 210.5 -41.5t147.5 -116t84.5 -171.5
t28.5 -214v-102zM561 946q-130 0 -196.5 -84t-71.5 -241h536q-13 325 -268 325zM303 1327v186h524v-186h-524z" />
    <glyph glyph-name="Ebreve" unicode="&#x114;" horiz-adv-x="1140" 
d="M610 1694q-325 0 -325 252h153q0 -123 172 -123t172 123h154q0 -252 -326 -252zM137 1597h922v-188h-709v-500h606v-188h-606v-533h709v-188h-922v1597z" />
    <glyph glyph-name="ebreve" unicode="&#x115;" horiz-adv-x="1122" 
d="M1036 465h-743q12 -326 285 -326q126 0 194 63.5t68 145.5h196v-8q0 -70 -29.5 -134t-84.5 -116.5t-145 -83.5t-202 -31q-124 0 -219 41.5t-153.5 116t-87.5 171.5t-29 214v49q0 93 18 174t56.5 149t94 117t135 76t175.5 27q119 0 210.5 -41.5t147.5 -116t84.5 -171.5
t28.5 -214v-102zM565 1219q-181 0 -266 102t-82 276h158q0 -103 47.5 -158t142.5 -55t143 55t48 158h157q3 -174 -82 -276t-266 -102zM561 946q-130 0 -196.5 -84t-71.5 -241h536q-13 325 -268 325z" />
    <glyph glyph-name="Edotaccent" unicode="&#x116;" horiz-adv-x="1140" 
d="M137 1597h922v-188h-709v-500h606v-188h-606v-533h709v-188h-922v1597zM711 1917v-168h-201v168h201z" />
    <glyph glyph-name="edotaccent" unicode="&#x117;" horiz-adv-x="1122" 
d="M1036 465h-743q12 -326 285 -326q126 0 194 63.5t68 145.5h196v-8q0 -70 -29.5 -134t-84.5 -116.5t-145 -83.5t-202 -31q-124 0 -219 41.5t-153.5 116t-87.5 171.5t-29 214v49q0 93 18 174t56.5 149t94 117t135 76t175.5 27q119 0 210.5 -41.5t147.5 -116t84.5 -171.5
t28.5 -214v-102zM561 946q-130 0 -196.5 -84t-71.5 -241h536q-13 325 -268 325zM684 1544v-235h-238v235h238z" />
    <glyph glyph-name="Eogonek" unicode="&#x118;" horiz-adv-x="1140" 
d="M137 1597h922v-188h-709v-500h606v-188h-606v-533h709v-188q-154 -66 -154 -186q0 -41 27.5 -67t77.5 -26q64 0 112 27l52 -139q-72 -45 -191 -45q-113 0 -178.5 52.5t-65.5 156.5q0 131 103 227h-705v1597z" />
    <glyph glyph-name="eogonek" unicode="&#x119;" horiz-adv-x="1122" 
d="M1036 465h-743q12 -326 285 -326q126 0 194 63.5t68 145.5h196v-8q0 -113 -72.5 -206.5t-207.5 -133.5q-69 -21 -111.5 -70.5t-42.5 -115.5q0 -41 27.5 -67t77.5 -26q64 0 112 27l51 -139q-72 -45 -190 -45q-113 0 -178.5 52.5t-65.5 156.5q0 117 80 207
q-145 12 -243.5 87t-142.5 189t-44 262v49q0 93 18 174t56.5 149t94 117t135 76t175.5 27q119 0 210.5 -41.5t147.5 -116t84.5 -171.5t28.5 -214v-102zM561 946q-130 0 -196.5 -84t-71.5 -241h536q-13 325 -268 325z" />
    <glyph glyph-name="Ecaron" unicode="&#x11a;" horiz-adv-x="1140" 
d="M137 1597h922v-188h-709v-500h606v-188h-606v-533h709v-188h-922v1597zM279 1946h196l135 -119l135 119h197l-231 -226h-201z" />
    <glyph glyph-name="ecaron" unicode="&#x11b;" horiz-adv-x="1122" 
d="M1036 465h-743q12 -326 285 -326q126 0 194 63.5t68 145.5h196v-8q0 -70 -29.5 -134t-84.5 -116.5t-145 -83.5t-202 -31q-124 0 -219 41.5t-153.5 116t-87.5 171.5t-29 214v49q0 93 18 174t56.5 149t94 117t135 76t175.5 27q119 0 210.5 -41.5t147.5 -116t84.5 -171.5
t28.5 -214v-102zM561 946q-130 0 -196.5 -84t-71.5 -241h536q-13 325 -268 325zM199 1597h192l174 -208l174 208h193l-270 -354h-193z" />
    <glyph glyph-name="Gcircumflex" unicode="&#x11c;" horiz-adv-x="1341" 
d="M702 -25q-306 0 -453 186.5t-147 596.5v82q0 408 143.5 595t436.5 187q267 0 399.5 -136t132.5 -417v-63h-215q0 222 -70 325t-233 103h-16q-188 0 -274.5 -144t-86.5 -450v-82q0 -309 88 -451.5t289 -142.5h17q180 0 288 100v363h-251v188h464v-653q-195 -187 -512 -187
zM547 1720h-197l232 226h200l232 -226h-197l-135 117z" />
    <glyph glyph-name="gcircumflex" unicode="&#x11d;" horiz-adv-x="1126" 
d="M797 6v178q-102 -135 -299 -135q-107 0 -187.5 38t-129 107t-72 159.5t-23.5 201.5v49q0 108 23.5 197.5t72 159.5t129 109.5t187.5 39.5q217 0 319 -164l21 139h178l-15 -307v-778q0 -205 -110.5 -319.5t-341.5 -114.5q-120 0 -208 31t-138 87t-73.5 126.5t-23.5 156.5
v33h197q0 -132 56.5 -197t187.5 -65q132 0 191 65.5t59 202.5zM797 784q-97 146 -246 146q-126 0 -192 -88t-66 -238v-49q0 -155 65.5 -240.5t192.5 -85.5q153 0 246 146v409zM379 1243h-193l271 354h192l271 -354h-193l-174 209z" />
    <glyph glyph-name="Gbreve" unicode="&#x11e;" horiz-adv-x="1341" 
d="M702 -25q-306 0 -453 186.5t-147 596.5v82q0 408 143.5 595t436.5 187q267 0 399.5 -136t132.5 -417v-63h-215q0 222 -70 325t-233 103h-16q-188 0 -274.5 -144t-86.5 -450v-82q0 -309 88 -451.5t289 -142.5h17q180 0 288 100v363h-251v188h464v-653q-195 -187 -512 -187
zM682 1694q-326 0 -326 252h154q0 -123 172 -123t172 123h154q0 -252 -326 -252z" />
    <glyph glyph-name="gbreve" unicode="&#x11f;" horiz-adv-x="1126" 
d="M797 6v178q-102 -135 -299 -135q-107 0 -187.5 38t-129 107t-72 159.5t-23.5 201.5v49q0 108 23.5 197.5t72 159.5t129 109.5t187.5 39.5q217 0 319 -164l21 139h178l-15 -307v-778q0 -205 -110.5 -319.5t-341.5 -114.5q-120 0 -208 31t-138 87t-73.5 126.5t-23.5 156.5
v33h197q0 -132 56.5 -197t187.5 -65q132 0 191 65.5t59 202.5zM551 229q153 0 246 146v409q-97 146 -246 146q-126 0 -192 -88t-66 -238v-49q0 -155 65.5 -240.5t192.5 -85.5zM553 1219q-181 0 -266 102t-82 276h157q0 -103 48 -158t143 -55t142.5 55t47.5 158h158
q3 -174 -82 -276t-266 -102z" />
    <glyph glyph-name="Gdotaccent" unicode="&#x120;" horiz-adv-x="1341" 
d="M702 -25q-306 0 -453 186.5t-147 596.5v82q0 408 143.5 595t436.5 187q267 0 399.5 -136t132.5 -417v-63h-215q0 222 -70 325t-233 103h-16q-188 0 -274.5 -144t-86.5 -450v-82q0 -309 88 -451.5t289 -142.5h17q180 0 288 100v363h-251v188h464v-653q-195 -187 -512 -187
zM782 1917v-168h-200v168h200z" />
    <glyph glyph-name="gdotaccent" unicode="&#x121;" horiz-adv-x="1126" 
d="M797 6v178q-102 -135 -299 -135q-107 0 -187.5 38t-129 107t-72 159.5t-23.5 201.5v49q0 108 23.5 197.5t72 159.5t129 109.5t187.5 39.5q217 0 319 -164l21 139h178l-15 -307v-778q0 -205 -110.5 -319.5t-341.5 -114.5q-120 0 -208 31t-138 87t-73.5 126.5t-23.5 156.5
v33h197q0 -132 56.5 -197t187.5 -65q132 0 191 65.5t59 202.5zM797 784q-97 146 -246 146q-126 0 -192 -88t-66 -238v-49q0 -155 65.5 -240.5t192.5 -85.5q153 0 246 146v409zM668 1544v-235h-238v235h238z" />
    <glyph glyph-name="Gcommaaccent" unicode="&#x122;" horiz-adv-x="1341" 
d="M702 -25q-306 0 -453 186.5t-147 596.5v82q0 408 143.5 595t436.5 187q267 0 399.5 -136t132.5 -417v-63h-215q0 222 -70 325t-233 103h-16q-188 0 -274.5 -144t-86.5 -450v-82q0 -309 88 -451.5t289 -142.5h17q180 0 288 100v363h-251v188h464v-653q-195 -187 -512 -187
zM807 -104v-111q0 -234 -246 -234v89q130 0 154 96h-117v160h209z" />
    <glyph glyph-name="gcommaaccent" unicode="&#x123;" horiz-adv-x="1126" 
d="M797 6v178q-102 -135 -299 -135q-107 0 -187.5 38t-129 107t-72 159.5t-23.5 201.5v49q0 108 23.5 197.5t72 159.5t129 109.5t187.5 39.5q217 0 319 -164l21 139h178l-15 -307v-778q0 -205 -110.5 -319.5t-341.5 -114.5q-120 0 -208 31t-138 87t-73.5 126.5t-23.5 156.5
v33h197q0 -132 56.5 -197t187.5 -65q132 0 191 65.5t59 202.5zM551 229q153 0 246 146v409q-97 146 -246 146q-126 0 -192 -88t-66 -238v-49q0 -155 65.5 -240.5t192.5 -85.5zM444 1243v119q0 133 60.5 196.5t185.5 63.5v-88q-71 0 -108 -28t-47 -97h118v-166h-209z" />
    <glyph glyph-name="Hcircumflex" unicode="&#x124;" horiz-adv-x="1325" 
d="M975 1597h213v-1597h-213v721h-625v-721h-213v1597h213v-688h625v688zM528 1720h-196l231 226h201l231 -226h-196l-135 117z" />
    <glyph glyph-name="hcircumflex" unicode="&#x125;" horiz-adv-x="1116" 
d="M332 1638v-673q117 145 338 145q163 0 247 -99.5t84 -258.5v-752h-202v719q0 102 -53 156.5t-152 54.5q-170 0 -262 -146v-784h-205v1638h205zM94 1720h-196l231 226h201l231 -226h-196l-136 117z" />
    <glyph glyph-name="Hbar" unicode="&#x126;" horiz-adv-x="1325" 
d="M975 1597h213v-1597h-213v721h-625v-721h-213v1597h213v-256h625v256zM350 909h625v260h-625v-260z" />
    <glyph glyph-name="hbar" unicode="&#x127;" horiz-adv-x="1116" 
d="M332 1638v-198h258v-156h-258v-319q117 145 338 145q163 0 247 -99.5t84 -258.5v-752h-202v719q0 102 -53 156.5t-152 54.5q-170 0 -262 -146v-784h-205v1284h-172v156h172v198h205z" />
    <glyph glyph-name="Itilde" unicode="&#x128;" horiz-adv-x="507" 
d="M360 1597v-1597h-213v1597h213zM461 1925h127q0 -108 -48.5 -158.5t-129.5 -50.5q-44 0 -88.5 16.5t-75.5 36t-66 36t-61 16.5q-72 0 -72 -80h-127q0 108 48.5 158.5t129.5 50.5q44 0 88.5 -16.5t75.5 -36t66 -36t61 -16.5q72 0 72 80z" />
    <glyph glyph-name="itilde" unicode="&#x129;" horiz-adv-x="479" 
d="M135 0v1085h209v-1085h-209zM442 1546h150q0 -126 -51 -189t-135 -63q-56 0 -113.5 28t-105.5 55.5t-81 27.5q-69 0 -69 -84h-150q0 126 51.5 189t135.5 63q44 0 90 -17.5t78 -38t68 -38t63 -17.5q69 0 69 84z" />
    <glyph glyph-name="Imacron" unicode="&#x12a;" horiz-adv-x="507" 
d="M360 1597v-1597h-213v1597h213zM-4 1761v144h516v-144h-516z" />
    <glyph glyph-name="imacron" unicode="&#x12b;" horiz-adv-x="479" 
d="M135 0v1085h209v-1085h-209zM-23 1327v186h525v-186h-525z" />
    <glyph glyph-name="Ibreve" unicode="&#x12c;" horiz-adv-x="507" 
d="M360 1597v-1597h-213v1597h213zM254 1694q-326 0 -326 252h154q0 -123 172 -123t172 123h154q0 -252 -326 -252z" />
    <glyph glyph-name="ibreve" unicode="&#x12d;" horiz-adv-x="479" 
d="M135 0v1085h209v-1085h-209zM240 1219q-181 0 -266.5 102t-82.5 276h158q0 -103 48 -158t143 -55t142.5 55t47.5 158h158q3 -174 -82 -276t-266 -102z" />
    <glyph glyph-name="Iogonek" unicode="&#x12e;" horiz-adv-x="507" 
d="M207 -186q0 -41 27.5 -67t76.5 -26q65 0 113 27l51 -139q-72 -45 -190 -45q-113 0 -178.5 52.5t-65.5 156.5q0 136 106 229v1595h213v-1597q-153 -66 -153 -186z" />
    <glyph glyph-name="iogonek" unicode="&#x12f;" horiz-adv-x="479" 
d="M186 -186q0 -41 27.5 -67t77.5 -26q64 0 112 27l52 -139q-72 -45 -191 -45q-113 0 -178.5 52.5t-65.5 156.5q0 144 117 239v1073h205v-1085h-2q-154 -66 -154 -186zM356 1544v-233h-233v233h233z" />
    <glyph glyph-name="Idotaccent" unicode="&#x130;" horiz-adv-x="507" 
d="M360 1597v-1597h-213v1597h213zM354 1917v-168h-200v168h200z" />
    <glyph glyph-name="dotlessi" unicode="&#x131;" horiz-adv-x="479" 
d="M135 0v1085h209v-1085h-209z" />
    <glyph glyph-name="IJ" unicode="&#x132;" horiz-adv-x="1099" 
d="M760 371v1226h213v-1251q0 -192 -90.5 -281.5t-247.5 -89.5q-63 0 -107.5 9.5t-60.5 19.5v180q15 -7 50.5 -13.5t62.5 -6.5q94 0 137 45.5t43 161.5zM360 1597v-1597h-213v1597h213z" />
    <glyph glyph-name="ij" unicode="&#x133;" horiz-adv-x="854" 
d="M512 -59v1144h205v-1167q0 -184 -92.5 -268t-255.5 -84q-112 0 -160 24v172q37 -16 110 -16q99 0 146 41.5t47 153.5zM137 0v1085h205v-1085h-205zM356 1544v-233h-233v233h233zM731 1544v-233h-233v233h233z" />
    <glyph glyph-name="Jcircumflex" unicode="&#x134;" horiz-adv-x="1044" 
d="M705 1597h213v-1108q0 -251 -103.5 -382.5t-329.5 -131.5q-232 0 -331 129.5t-99 387.5v38h201q0 -192 51 -279t172 -87q122 0 174 85.5t52 270.5v1077zM676 1720h-197l232 226h200l232 -226h-197l-135 117z" />
    <glyph glyph-name="jcircumflex" unicode="&#x135;" horiz-adv-x="479" 
d="M135 -57v1142h209v-1165q0 -354 -350 -354q-112 0 -160 24v174q12 -5 46.5 -10.5t64.5 -5.5q99 0 144.5 41t45.5 154zM66 1243h-193l270 354h193l270 -354h-192l-174 209z" />
    <glyph glyph-name="Kcommaaccent" unicode="&#x136;" horiz-adv-x="1198" 
d="M350 1597v-788l529 788h258l-465 -661l465 -936h-238l-360 748l-189 -269v-479h-213v1597h213zM700 -104v-111q0 -234 -245 -234v89q129 0 153 96h-116v160h208z" />
    <glyph glyph-name="kcommaaccent" unicode="&#x137;" horiz-adv-x="1069" 
d="M123 0v1638h205v-1058l442 505h250l-369 -409l369 -676h-238l-272 518l-182 -205v-313h-205zM643 -104v-111q0 -234 -246 -234v89q130 0 154 96h-117v160h209z" />
    <glyph glyph-name="kgreenlandic" unicode="&#x138;" horiz-adv-x="1069" 
d="M123 0v1085h205v-505l442 505h250l-369 -409l369 -676h-238l-272 518l-182 -205v-313h-205z" />
    <glyph glyph-name="Lacute" unicode="&#x139;" horiz-adv-x="1026" 
d="M995 0h-858v1597h213v-1409h645v-188zM258 1946h219l-129 -226h-209z" />
    <glyph glyph-name="lacute" unicode="&#x13a;" horiz-adv-x="479" 
d="M137 0v1638h205v-1638h-205zM254 1946h219l-129 -226h-209z" />
    <glyph glyph-name="Lcommaaccent" unicode="&#x13b;" horiz-adv-x="1026" 
d="M995 0h-858v1597h213v-1409h645v-188zM674 -104v-111q0 -234 -246 -234v89q130 0 154 96h-117v160h209z" />
    <glyph glyph-name="lcommaaccent" unicode="&#x13c;" horiz-adv-x="479" 
d="M137 0v1638h205v-1638h-205zM344 -104v-111q0 -234 -246 -234v89q130 0 154 96h-117v160h209z" />
    <glyph glyph-name="Lcaron" unicode="&#x13d;" horiz-adv-x="1026" 
d="M995 0h-858v1597h213v-1409h645v-188zM627 1638h149l-43 -395h-106v395z" />
    <glyph glyph-name="lcaron" unicode="&#x13e;" horiz-adv-x="479" 
d="M137 0v1638h205v-1638h-205zM479 1638h150l-43 -395h-107v395z" />
    <glyph glyph-name="Ldot" unicode="&#x13f;" horiz-adv-x="1026" 
d="M995 0h-858v1597h213v-1409h645v-188zM866 934v-238h-235v238h235z" />
    <glyph glyph-name="ldot" unicode="&#x140;" horiz-adv-x="759" 
d="M137 0v1638h205v-1638h-205zM737 836v-238h-237v238h237z" />
    <glyph glyph-name="Lslash" unicode="&#x141;" horiz-adv-x="1148" 
d="M33 487v187l227 114v809h213v-700l420 213v-186l-420 -213v-523h645v-188h-858v602z" />
    <glyph glyph-name="lslash" unicode="&#x142;" horiz-adv-x="712" 
d="M59 487v187l189 133v831h205v-686l221 158v-186l-221 -158v-766h-205v621z" />
    <glyph glyph-name="Nacute" unicode="&#x143;" horiz-adv-x="1366" 
d="M1229 1597v-1597h-228l-669 1221l8 -355v-866h-203v1597h228l669 -1220l-8 354v866h203zM698 1946h220l-130 -226h-208z" />
    <glyph glyph-name="nacute" unicode="&#x144;" horiz-adv-x="1116" 
d="M1001 0h-202v719q0 102 -53 156.5t-152 54.5q-170 0 -262 -146v-784h-205v778l-14 307h176l22 -149q117 174 359 174q163 0 247 -99.5t84 -258.5v-752zM647 1597h225l-202 -354h-209z" />
    <glyph glyph-name="Ncommaaccent" unicode="&#x145;" horiz-adv-x="1366" 
d="M1229 1597v-1597h-228l-669 1221l8 -355v-866h-203v1597h228l669 -1220l-8 354v866h203zM788 -104v-111q0 -234 -245 -234v89q129 0 153 96h-116v160h208z" />
    <glyph glyph-name="ncommaaccent" unicode="&#x146;" horiz-adv-x="1116" 
d="M1001 0h-202v719q0 102 -53 156.5t-152 54.5q-170 0 -262 -146v-784h-205v778l-14 307h176l22 -149q117 174 359 174q163 0 247 -99.5t84 -258.5v-752zM670 -104v-111q0 -234 -246 -234v89q130 0 154 96h-117v160h209z" />
    <glyph glyph-name="Ncaron" unicode="&#x147;" horiz-adv-x="1366" 
d="M1229 1597v-1597h-228l-669 1221l8 -355v-866h-203v1597h228l669 -1220l-8 354v866h203zM352 1946h197l135 -119l135 119h197l-232 -226h-200z" />
    <glyph glyph-name="ncaron" unicode="&#x148;" horiz-adv-x="1116" 
d="M1001 0h-202v719q0 102 -53 156.5t-152 54.5q-170 0 -262 -146v-784h-205v778l-14 307h176l22 -149q117 174 359 174q163 0 247 -99.5t84 -258.5v-752zM199 1597h192l174 -208l174 208h193l-270 -354h-193z" />
    <glyph glyph-name="Eng" unicode="&#x14a;" horiz-adv-x="1366" 
d="M1020 -57v18l-688 1260l8 -355v-866h-203v1597h228l669 -1220l-8 354v866h203v-1677q0 -354 -350 -354q-112 0 -160 24v174q37 -16 110 -16q99 0 145 41t46 154z" />
    <glyph glyph-name="eng" unicode="&#x14b;" horiz-adv-x="1116" 
d="M797 -59v778q0 102 -52 156.5t-151 54.5q-170 0 -262 -146v-784h-205v778l-14 307h176l22 -149q117 174 359 174q163 0 247 -99.5t84 -258.5v-834q0 -352 -348 -352q-111 0 -159 24v172q43 -16 110 -16q99 0 146 41.5t47 153.5z" />
    <glyph glyph-name="Omacron" unicode="&#x14c;" horiz-adv-x="1345" 
d="M674 -25q-292 0 -432 186.5t-140 596.5v82q0 410 139.5 596t432.5 186q291 0 430 -186t139 -596v-82q0 -410 -139 -596.5t-430 -186.5zM666 164h14q182 0 263 143t81 451v82q0 308 -81 451t-263 143h-14q-182 0 -263 -143t-81 -451v-82q0 -308 81 -451t263 -143z
M416 1761v144h516v-144h-516z" />
    <glyph glyph-name="omacron" unicode="&#x14d;" horiz-adv-x="1122" 
d="M561 -25q-121 0 -213 41t-148.5 114.5t-85 170t-28.5 213.5v57q0 117 28.5 213.5t85 170t148.5 114.5t213 41t213 -41t148.5 -114.5t85 -170t28.5 -213.5v-57q0 -117 -28.5 -213.5t-85 -170t-148.5 -114.5t-213 -41zM561 156q134 0 201 95t67 263v57q0 168 -67 263.5
t-201 95.5t-201 -95.5t-67 -263.5v-57q0 -168 67 -263t201 -95zM299 1327v186h524v-186h-524z" />
    <glyph glyph-name="Obreve" unicode="&#x14e;" horiz-adv-x="1345" 
d="M674 -25q-292 0 -432 186.5t-140 596.5v82q0 410 139.5 596t432.5 186q291 0 430 -186t139 -596v-82q0 -410 -139 -596.5t-430 -186.5zM666 164h14q182 0 263 143t81 451v82q0 308 -81 451t-263 143h-14q-182 0 -263 -143t-81 -451v-82q0 -308 81 -451t263 -143z
M674 1694q-326 0 -326 252h154q0 -123 172 -123t172 123h153q0 -252 -325 -252z" />
    <glyph glyph-name="obreve" unicode="&#x14f;" horiz-adv-x="1122" 
d="M561 -25q-121 0 -213 41t-148.5 114.5t-85 170t-28.5 213.5v57q0 117 28.5 213.5t85 170t148.5 114.5t213 41t213 -41t148.5 -114.5t85 -170t28.5 -213.5v-57q0 -117 -28.5 -213.5t-85 -170t-148.5 -114.5t-213 -41zM561 156q134 0 201 95t67 263v57q0 168 -67 263.5
t-201 95.5t-201 -95.5t-67 -263.5v-57q0 -168 67 -263t201 -95zM561 1219q-181 0 -266 102t-82 276h158q0 -103 47.5 -158t142.5 -55t143 55t48 158h157q3 -174 -82 -276t-266 -102z" />
    <glyph glyph-name="Ohungarumlaut" unicode="&#x150;" horiz-adv-x="1345" 
d="M674 -25q-292 0 -432 186.5t-140 596.5v82q0 410 139.5 596t432.5 186q291 0 430 -186t139 -596v-82q0 -410 -139 -596.5t-430 -186.5zM666 164h14q182 0 263 143t81 451v82q0 308 -81 451t-263 143h-14q-182 0 -263 -143t-81 -451v-82q0 -308 81 -451t263 -143z
M545 1946h200l-118 -226h-193zM840 1946h200l-127 -226h-192z" />
    <glyph glyph-name="ohungarumlaut" unicode="&#x151;" horiz-adv-x="1122" 
d="M561 -25q-121 0 -213 41t-148.5 114.5t-85 170t-28.5 213.5v57q0 117 28.5 213.5t85 170t148.5 114.5t213 41t213 -41t148.5 -114.5t85 -170t28.5 -213.5v-57q0 -117 -28.5 -213.5t-85 -170t-148.5 -114.5t-213 -41zM561 156q134 0 201 95t67 263v57q0 168 -67 263.5
t-201 95.5t-201 -95.5t-67 -263.5v-57q0 -168 67 -263t201 -95zM494 1597h192l-178 -354h-174zM799 1597h190l-203 -354h-174z" />
    <glyph glyph-name="OE" unicode="&#x152;" horiz-adv-x="1925" 
d="M102 840q0 206 40 351.5t122 234.5t198.5 130t276.5 41h1104v-188h-708v-500h606v-188h-606v-533h708v-188h-1104q-160 0 -276.5 41t-198.5 130.5t-122 235t-40 351.5v82zM922 1409h-166q-225 0 -329.5 -134t-104.5 -435v-82q0 -301 104.5 -435.5t329.5 -134.5h166v1221z
" />
    <glyph glyph-name="oe" unicode="&#x153;" horiz-adv-x="1865" 
d="M1778 465h-742q12 -326 283 -326q127 0 195.5 63.5t68.5 145.5h195v-8q0 -70 -29 -134t-84.5 -116.5t-145 -83.5t-200.5 -31q-265 0 -385 201q-116 -201 -373 -201q-121 0 -213 41t-148.5 114.5t-85 170t-28.5 213.5v57q0 117 28.5 213.5t85 170t148.5 114.5t213 41
q257 0 373 -201q122 201 373 201q120 0 211.5 -41.5t147.5 -116t84 -171.5t28 -214v-102zM293 514q0 -168 67 -263t201 -95t201 95t67 263v57q0 168 -67 263.5t-201 95.5t-201 -95.5t-67 -263.5v-57zM1305 946q-130 0 -197 -84t-72 -241h537q-13 325 -268 325z" />
    <glyph glyph-name="Racute" unicode="&#x154;" horiz-adv-x="1224" 
d="M350 623v-623h-213v1597h473q79 0 146.5 -11t137 -42.5t118 -81.5t79.5 -135t31 -197v-40q0 -335 -266 -431l266 -659h-231l-242 623h-299zM350 809h266q53 0 98.5 11.5t91 40.5t72.5 89t27 146v26q0 86 -27 146t-72.5 89t-91 40.5t-98.5 11.5h-266v-600zM592 1946h219
l-129 -226h-209z" />
    <glyph glyph-name="racute" unicode="&#x155;" horiz-adv-x="716" 
d="M608 1110q7 0 18.5 -1t12.5 -1v-197h-37q-178 0 -270 -139v-772h-205v778l-14 307h176l20 -139q109 164 299 164zM465 1597h225l-203 -354h-208z" />
    <glyph glyph-name="Rcommaaccent" unicode="&#x156;" horiz-adv-x="1224" 
d="M350 623v-623h-213v1597h473q79 0 146.5 -11t137 -42.5t118 -81.5t79.5 -135t31 -197v-40q0 -335 -266 -431l266 -659h-231l-242 623h-299zM350 809h266q53 0 98.5 11.5t91 40.5t72.5 89t27 146v26q0 86 -27 146t-72.5 89t-91 40.5t-98.5 11.5h-266v-600zM702 -104v-111
q0 -234 -245 -234v89q129 0 153 96h-116v160h208z" />
    <glyph glyph-name="rcommaaccent" unicode="&#x157;" horiz-adv-x="716" 
d="M608 1110q7 0 18.5 -1t12.5 -1v-197h-37q-178 0 -270 -139v-772h-205v778l-14 307h176l20 -139q109 164 299 164zM334 -104v-111q0 -234 -246 -234v89q130 0 154 96h-117v160h209z" />
    <glyph glyph-name="Rcaron" unicode="&#x158;" horiz-adv-x="1224" 
d="M350 623v-623h-213v1597h473q79 0 146.5 -11t137 -42.5t118 -81.5t79.5 -135t31 -197v-40q0 -335 -266 -431l266 -659h-231l-242 623h-299zM350 809h266q53 0 98.5 11.5t91 40.5t72.5 89t27 146v26q0 86 -27 146t-72.5 89t-91 40.5t-98.5 11.5h-266v-600zM246 1946h196
l136 -119l135 119h196l-231 -226h-201z" />
    <glyph glyph-name="rcaron" unicode="&#x159;" horiz-adv-x="716" 
d="M608 1110q7 0 18.5 -1t12.5 -1v-197h-37q-178 0 -270 -139v-772h-205v778l-14 307h176l20 -139q109 164 299 164zM16 1597h193l174 -208l174 208h193l-271 -354h-192z" />
    <glyph glyph-name="Sacute" unicode="&#x15a;" horiz-adv-x="1251" 
d="M592 725q-256 35 -374 141.5t-118 288.5v23q0 204 141.5 324t385.5 120q271 0 397.5 -131t126.5 -395v-49h-213q0 203 -72.5 295t-236.5 92h-15q-131 0 -213 -66t-82 -174v-16q0 -79 29.5 -131t106.5 -89t209 -55q262 -35 382.5 -140.5t120.5 -301.5v-23
q0 -218 -143 -340.5t-397 -122.5q-266 0 -404.5 136.5t-138.5 398.5v20h213q0 -184 85.5 -275t235.5 -91h17q145 0 229 71t84 193v16q0 123 -81 189t-275 92zM641 1946h219l-129 -226h-209z" />
    <glyph glyph-name="sacute" unicode="&#x15b;" horiz-adv-x="1073" 
d="M537 139q111 0 169 45.5t58 122.5q0 87 -55.5 122t-196.5 46q-218 20 -307.5 89.5t-89.5 205.5v14q0 155 113.5 240.5t308.5 85.5q219 0 321.5 -98t102.5 -271v-8h-203q0 104 -51 158.5t-170 54.5q-103 0 -160.5 -41.5t-57.5 -116.5q0 -52 19 -83t72.5 -51.5t150.5 -28.5
q213 -16 312.5 -83t99.5 -218v-13q0 -154 -113.5 -245t-322.5 -91q-112 0 -198 29t-136.5 79.5t-75.5 112t-25 132.5v8h203q0 -86 54 -141.5t178 -55.5zM618 1597h226l-203 -354h-209z" />
    <glyph glyph-name="Scircumflex" unicode="&#x15c;" horiz-adv-x="1251" 
d="M592 725q-256 35 -374 141.5t-118 288.5v23q0 204 141.5 324t385.5 120q271 0 397.5 -131t126.5 -395v-49h-213q0 203 -72.5 295t-236.5 92h-15q-131 0 -213 -66t-82 -174v-16q0 -79 29.5 -131t106.5 -89t209 -55q262 -35 382.5 -140.5t120.5 -301.5v-23
q0 -218 -143 -340.5t-397 -122.5q-266 0 -404.5 136.5t-138.5 398.5v20h213q0 -184 85.5 -275t235.5 -91h17q145 0 229 71t84 193v16q0 123 -81 189t-275 92zM492 1720h-197l231 226h201l231 -226h-196l-135 117z" />
    <glyph glyph-name="scircumflex" unicode="&#x15d;" horiz-adv-x="1073" 
d="M537 139q111 0 169 45.5t58 122.5q0 87 -55.5 122t-196.5 46q-218 20 -307.5 89.5t-89.5 205.5v14q0 155 113.5 240.5t308.5 85.5q219 0 321.5 -98t102.5 -271v-8h-203q0 104 -51 158.5t-170 54.5q-103 0 -160.5 -41.5t-57.5 -116.5q0 -52 19 -83t72.5 -51.5t150.5 -28.5
q213 -16 312.5 -83t99.5 -218v-13q0 -154 -113.5 -245t-322.5 -91q-112 0 -198 29t-136.5 79.5t-75.5 112t-25 132.5v8h203q0 -86 54 -141.5t178 -55.5zM362 1243h-192l270 354h193l270 -354h-192l-174 209z" />
    <glyph glyph-name="Scedilla" unicode="&#x15e;" horiz-adv-x="1251" 
d="M434 -391l37 106q59 -32 143 -32q58 0 84.5 13.5t26.5 45.5q0 55 -117 55l-65 -6l-35 51l51 135q-234 17 -354.5 152t-120.5 381v20h213q0 -184 85.5 -275t235.5 -91h17q145 0 229 71t84 193v16q0 123 -81 189t-275 92q-256 35 -374 141.5t-118 288.5v23q0 204 141.5 324
t385.5 120q271 0 397.5 -131t126.5 -395v-49h-213q0 203 -72.5 295t-236.5 92h-15q-131 0 -213 -66t-82 -174v-16q0 -79 29.5 -131t106.5 -89t209 -55q262 -35 382.5 -140.5t120.5 -301.5v-23q0 -207 -129.5 -328t-361.5 -133l-29 -79q90 -2 149.5 -43t59.5 -123
q0 -84 -58 -126t-165 -42q-129 0 -199 45z" />
    <glyph glyph-name="scedilla" unicode="&#x15f;" horiz-adv-x="1073" 
d="M344 -391l37 106q59 -32 143 -32q58 0 84.5 13.5t26.5 45.5q0 55 -117 55l-65 -6l-35 51l51 138q-95 8 -167.5 40t-115 80t-63.5 105.5t-21 122.5v8h203q0 -86 54 -141.5t178 -55.5q111 0 169 45.5t58 122.5q0 87 -55.5 122t-196.5 46q-218 20 -307.5 89.5t-89.5 205.5
v14q0 155 113.5 240.5t308.5 85.5q219 0 321.5 -98t102.5 -271v-8h-203q0 104 -51 158.5t-170 54.5q-103 0 -160.5 -41.5t-57.5 -116.5q0 -52 19 -83t72.5 -51.5t150.5 -28.5q213 -16 312.5 -83t99.5 -218v-13q0 -144 -100.5 -234t-286.5 -100l-29 -79q90 -2 149.5 -43
t59.5 -123q0 -84 -58 -126t-165 -42q-129 0 -199 45z" />
    <glyph glyph-name="Scaron" unicode="&#x160;" horiz-adv-x="1251" 
d="M592 725q-256 35 -374 141.5t-118 288.5v23q0 204 141.5 324t385.5 120q271 0 397.5 -131t126.5 -395v-49h-213q0 203 -72.5 295t-236.5 92h-15q-131 0 -213 -66t-82 -174v-16q0 -79 29.5 -131t106.5 -89t209 -55q262 -35 382.5 -140.5t120.5 -301.5v-23
q0 -218 -143 -340.5t-397 -122.5q-266 0 -404.5 136.5t-138.5 398.5v20h213q0 -184 85.5 -275t235.5 -91h17q145 0 229 71t84 193v16q0 123 -81 189t-275 92zM295 1946h197l135 -119l135 119h196l-231 -226h-201z" />
    <glyph glyph-name="scaron" unicode="&#x161;" horiz-adv-x="1073" 
d="M537 139q111 0 169 45.5t58 122.5q0 87 -55.5 122t-196.5 46q-218 20 -307.5 89.5t-89.5 205.5v14q0 155 113.5 240.5t308.5 85.5q219 0 321.5 -98t102.5 -271v-8h-203q0 104 -51 158.5t-170 54.5q-103 0 -160.5 -41.5t-57.5 -116.5q0 -52 19 -83t72.5 -51.5t150.5 -28.5
q213 -16 312.5 -83t99.5 -218v-13q0 -154 -113.5 -245t-322.5 -91q-112 0 -198 29t-136.5 79.5t-75.5 112t-25 132.5v8h203q0 -86 54 -141.5t178 -55.5zM170 1597h192l175 -208l174 208h192l-270 -354h-193z" />
    <glyph glyph-name="Tcommaaccent" unicode="&#x162;" horiz-adv-x="1085" 
d="M649 1409v-1409h-213v1409h-393v188h999v-188h-393zM647 -104v-111q0 -234 -246 -234v89q130 0 154 96h-117v160h209z" />
    <glyph glyph-name="tcommaaccent" unicode="&#x163;" horiz-adv-x="841" 
d="M430 1085h324v-182h-324v-553q0 -112 46 -153t145 -41q69 0 112 16v-172q-50 -25 -160 -25q-163 0 -255.5 84t-92.5 269v575h-170v182h170v308h205v-308zM584 -104v-111q0 -234 -246 -234v89q130 0 154 96h-117v160h209z" />
    <glyph glyph-name="Tcaron" unicode="&#x164;" horiz-adv-x="1085" 
d="M649 1409v-1409h-213v1409h-393v188h999v-188h-393zM211 1946h197l135 -119l135 119h196l-231 -226h-201z" />
    <glyph glyph-name="tcaron" unicode="&#x165;" horiz-adv-x="841" 
d="M430 1085h324v-182h-324v-553q0 -112 46 -153t145 -41q69 0 112 16v-172q-50 -25 -160 -25q-163 0 -255.5 84t-92.5 269v575h-170v182h170v308h205v-308zM567 1638h150l-43 -395h-107v395z" />
    <glyph glyph-name="Tbar" unicode="&#x166;" horiz-adv-x="1085" 
d="M649 1409v-500h248v-188h-248v-721h-213v721h-250v188h250v500h-393v188h999v-188h-393z" />
    <glyph glyph-name="tbar" unicode="&#x167;" horiz-adv-x="841" 
d="M430 1085h324v-182h-324v-282h242v-156h-242v-115q0 -112 46 -153t145 -41q69 0 112 16v-172q-50 -25 -160 -25q-163 0 -255.5 84t-92.5 269v137h-153v156h153v282h-170v182h170v308h205v-308z" />
    <glyph glyph-name="Utilde" unicode="&#x168;" horiz-adv-x="1325" 
d="M870 1925h127q0 -108 -48.5 -158.5t-129.5 -50.5q-44 0 -88.5 16.5t-75.5 36t-66 36t-61 16.5q-71 0 -71 -80h-127q0 108 48.5 158.5t129.5 50.5q44 0 88.5 -16.5t75.5 -36t66 -36t61 -16.5q71 0 71 80zM664 -25q-282 0 -409.5 123t-127.5 400v1099h213v-1089
q0 -188 76 -266t248 -78q170 0 245.5 78t75.5 266v1089h213v-1099q0 -277 -126.5 -400t-407.5 -123z" />
    <glyph glyph-name="utilde" unicode="&#x169;" horiz-adv-x="1116" 
d="M115 1085h204v-718q0 -101 52.5 -156t150.5 -55q168 0 264 145v784h205v-778l15 -307h-179l-22 150q-118 -175 -359 -175q-162 0 -246.5 100t-84.5 259v751zM756 1546h149q0 -126 -51 -189t-135 -63q-56 0 -113.5 28t-105 55.5t-80.5 27.5q-70 0 -70 -84h-149
q0 126 51 189t135 63q44 0 90 -17.5t78 -38t68 -38t63 -17.5q70 0 70 84z" />
    <glyph glyph-name="Umacron" unicode="&#x16a;" horiz-adv-x="1325" 
d="M664 -25q-282 0 -409.5 123t-127.5 400v1099h213v-1089q0 -188 76 -266t248 -78q170 0 245.5 78t75.5 266v1089h213v-1099q0 -277 -126.5 -400t-407.5 -123zM406 1761v144h516v-144h-516z" />
    <glyph glyph-name="umacron" unicode="&#x16b;" horiz-adv-x="1116" 
d="M115 1085h204v-718q0 -101 52.5 -156t150.5 -55q168 0 264 145v784h205v-778l15 -307h-179l-22 150q-118 -175 -359 -175q-162 0 -246.5 100t-84.5 259v751zM291 1327v186h524v-186h-524z" />
    <glyph glyph-name="Ubreve" unicode="&#x16c;" horiz-adv-x="1325" 
d="M664 1694q-326 0 -326 252h154q0 -123 172 -123t172 123h153q0 -252 -325 -252zM664 -25q-282 0 -409.5 123t-127.5 400v1099h213v-1089q0 -188 76 -266t248 -78q170 0 245.5 78t75.5 266v1089h213v-1099q0 -277 -126.5 -400t-407.5 -123z" />
    <glyph glyph-name="ubreve" unicode="&#x16d;" horiz-adv-x="1116" 
d="M115 1085h204v-718q0 -101 52.5 -156t150.5 -55q168 0 264 145v784h205v-778l15 -307h-179l-22 150q-118 -175 -359 -175q-162 0 -246.5 100t-84.5 259v751zM553 1219q-181 0 -266 102t-82 276h157q0 -103 48 -158t143 -55t142.5 55t47.5 158h158q3 -174 -82 -276
t-266 -102z" />
    <glyph glyph-name="Uring" unicode="&#x16e;" horiz-adv-x="1325" 
d="M664 -25q-282 0 -409.5 123t-127.5 400v1099h213v-1089q0 -188 76 -266t248 -78q170 0 245.5 78t75.5 266v1089h213v-1099q0 -277 -126.5 -400t-407.5 -123zM463 1769q0 83 59 142t142 59t141.5 -59t58.5 -142q0 -85 -58.5 -143.5t-141.5 -58.5q-84 0 -142.5 58.5
t-58.5 143.5zM553 1769q0 -46 32.5 -79t78.5 -33t78 33t32 79q0 45 -32.5 78t-77.5 33t-78 -33t-33 -78z" />
    <glyph glyph-name="uring" unicode="&#x16f;" horiz-adv-x="1116" 
d="M115 1085h204v-718q0 -101 52.5 -156t150.5 -55q168 0 264 145v784h205v-778l15 -307h-179l-22 150q-118 -175 -359 -175q-162 0 -246.5 100t-84.5 259v751zM352 1421q0 83 59 142t142 59t142 -59t59 -142q0 -85 -59 -143.5t-142 -58.5t-142 58.5t-59 143.5zM442 1421
q0 -46 32.5 -79t78.5 -33t78.5 33t32.5 79q0 45 -33 78t-78 33t-78 -33t-33 -78z" />
    <glyph glyph-name="Uhungarumlaut" unicode="&#x170;" horiz-adv-x="1325" 
d="M664 -25q-282 0 -409.5 123t-127.5 400v1099h213v-1089q0 -188 76 -266t248 -78q170 0 245.5 78t75.5 266v1089h213v-1099q0 -277 -126.5 -400t-407.5 -123zM829 1946h201l-127 -226h-192zM535 1946h200l-119 -226h-192z" />
    <glyph glyph-name="uhungarumlaut" unicode="&#x171;" horiz-adv-x="1116" 
d="M115 1085h204v-718q0 -101 52.5 -156t150.5 -55q168 0 264 145v784h205v-778l15 -307h-179l-22 150q-118 -175 -359 -175q-162 0 -246.5 100t-84.5 259v751zM485 1597h193l-178 -354h-174zM791 1597h190l-203 -354h-174z" />
    <glyph glyph-name="Uogonek" unicode="&#x172;" horiz-adv-x="1325" 
d="M729 -186q0 -41 27.5 -67t77.5 -26q64 0 112 27l51 -139q-72 -45 -190 -45q-113 0 -178.5 52.5t-65.5 156.5q0 114 78 202q-270 5 -392 128t-122 395v1099h213v-1089q0 -188 76 -266t248 -78q170 0 245.5 78t75.5 266v1089h213v-1099q0 -217 -75.5 -336t-237.5 -162
q-66 -18 -111 -69.5t-45 -116.5z" />
    <glyph glyph-name="uogonek" unicode="&#x173;" horiz-adv-x="1116" 
d="M115 1085h204v-718q0 -101 52.5 -156t150.5 -55q168 0 264 145v784h205v-778l15 -307q-154 -66 -154 -186q0 -41 27.5 -67t76.5 -26q65 0 113 27l51 -139q-72 -45 -190 -45q-113 0 -178.5 52.5t-65.5 156.5q0 155 137 256l-18 121q-118 -175 -359 -175q-162 0 -246.5 100
t-84.5 259v751z" />
    <glyph glyph-name="Wcircumflex" unicode="&#x174;" horiz-adv-x="1863" 
d="M1229 -12l-297 1372l-297 -1372h-281l-286 1609h223l215 -1331l289 1331h274l289 -1331l215 1331h223l-287 -1609h-280zM797 1720h-197l231 226h201l232 -226h-197l-135 117z" />
    <glyph glyph-name="wcircumflex" unicode="&#x175;" horiz-adv-x="1501" 
d="M752 864l-215 -864h-265l-217 1085h203l152 -866l217 866h247l218 -866l153 866h203l-219 -1085h-262zM578 1243h-193l270 354h193l270 -354h-192l-174 209z" />
    <glyph glyph-name="Ycircumflex" unicode="&#x176;" horiz-adv-x="1216" 
d="M715 485v-485h-213v485l-469 1112h231l344 -847l344 847h232zM473 1720h-197l232 226h201l231 -226h-197l-135 117z" />
    <glyph glyph-name="ycircumflex" unicode="&#x177;" horiz-adv-x="1038" 
d="M530 266l275 819h221l-387 -1038l-150 -457h-239l170 457l-385 1038h221zM356 1243h-192l270 354h193l270 -354h-192l-175 209z" />
    <glyph glyph-name="Ydieresis" unicode="&#x178;" horiz-adv-x="1216" 
d="M715 485v-485h-213v485l-469 1112h231l344 -847l344 847h232zM877 1917v-168h-203v168h203zM543 1917v-168h-203v168h203z" />
    <glyph glyph-name="Zacute" unicode="&#x179;" horiz-adv-x="1177" 
d="M600 1946h219l-129 -226h-209zM82 147l733 1268l-270 -6h-443v188h973v-147l-733 -1268l270 6h484v-188h-1014v147z" />
    <glyph glyph-name="zacute" unicode="&#x17a;" horiz-adv-x="972" 
d="M565 1597h226l-203 -354h-209zM66 141l557 766l-238 -4h-299v182h801v-141l-557 -766l237 4h340v-182h-841v141z" />
    <glyph glyph-name="Zdotaccent" unicode="&#x17b;" horiz-adv-x="1177" 
d="M686 1917v-168h-201v168h201zM82 147l733 1268l-270 -6h-443v188h973v-147l-733 -1268l270 6h484v-188h-1014v147z" />
    <glyph glyph-name="zdotaccent" unicode="&#x17c;" horiz-adv-x="972" 
d="M602 1544v-235h-237v235h237zM66 141l557 766l-238 -4h-299v182h801v-141l-557 -766l237 4h340v-182h-841v141z" />
    <glyph glyph-name="Zcaron" unicode="&#x17d;" horiz-adv-x="1177" 
d="M254 1946h197l135 -119l135 119h197l-232 -226h-201zM82 147l733 1268l-270 -6h-443v188h973v-147l-733 -1268l270 6h484v-188h-1014v147z" />
    <glyph glyph-name="zcaron" unicode="&#x17e;" horiz-adv-x="972" 
d="M117 1597h192l174 -208l174 208h193l-270 -354h-193zM66 141l557 766l-238 -4h-299v182h801v-141l-557 -766l237 4h340v-182h-841v141z" />
    <glyph glyph-name="Scommaaccent" unicode="&#x218;" horiz-adv-x="1251" 
d="M592 725q-256 35 -374 141.5t-118 288.5v23q0 204 141.5 324t385.5 120q271 0 397.5 -131t126.5 -395v-49h-213q0 203 -72.5 295t-236.5 92h-15q-131 0 -213 -66t-82 -174v-16q0 -79 29.5 -131t106.5 -89t209 -55q262 -35 382.5 -140.5t120.5 -301.5v-23
q0 -218 -143 -340.5t-397 -122.5q-266 0 -404.5 136.5t-138.5 398.5v20h213q0 -184 85.5 -275t235.5 -91h17q145 0 229 71t84 193v16q0 123 -81 189t-275 92zM731 -104v-111q0 -234 -246 -234v89q130 0 154 96h-117v160h209z" />
    <glyph glyph-name="scommaaccent" unicode="&#x219;" horiz-adv-x="1073" 
d="M537 139q111 0 169 45.5t58 122.5q0 87 -55.5 122t-196.5 46q-218 20 -307.5 89.5t-89.5 205.5v14q0 155 113.5 240.5t308.5 85.5q219 0 321.5 -98t102.5 -271v-8h-203q0 104 -51 158.5t-170 54.5q-103 0 -160.5 -41.5t-57.5 -116.5q0 -52 19 -83t72.5 -51.5t150.5 -28.5
q213 -16 312.5 -83t99.5 -218v-13q0 -154 -113.5 -245t-322.5 -91q-112 0 -198 29t-136.5 79.5t-75.5 112t-25 132.5v8h203q0 -86 54 -141.5t178 -55.5zM641 -104v-111q0 -234 -246 -234v89q130 0 154 96h-117v160h209z" />
    <glyph glyph-name="Ymacron" unicode="&#x232;" horiz-adv-x="1216" 
d="M715 485v-485h-213v485l-469 1112h231l344 -847l344 847h232zM350 1761v144h516v-144h-516z" />
    <glyph glyph-name="ymacron" unicode="&#x233;" horiz-adv-x="1038" 
d="M530 266l275 819h221l-387 -1038l-150 -457h-239l170 457l-385 1038h221zM268 1327v186h525v-186h-525z" />
    <glyph glyph-name="dotlessj" unicode="&#x237;" horiz-adv-x="479" 
d="M135 -57v1142h209v-1165q0 -354 -350 -354q-112 0 -160 24v174q12 -5 46.5 -10.5t64.5 -5.5q99 0 144.5 41t45.5 154z" />
    <glyph glyph-name="circumflex" unicode="&#x2c6;" horiz-adv-x="1024" 
d="M338 1243h-193l271 354h192l271 -354h-193l-174 209z" />
    <glyph glyph-name="caron" unicode="&#x2c7;" horiz-adv-x="1024" 
d="M145 1597h193l174 -208l174 208h193l-271 -354h-192z" />
    <glyph glyph-name="breve" unicode="&#x2d8;" horiz-adv-x="1024" 
d="M512 1219q-181 0 -266 102t-82 276h158q0 -103 47.5 -158t142.5 -55t142.5 55t47.5 158h158q3 -174 -82 -276t-266 -102z" />
    <glyph glyph-name="dotaccent" unicode="&#x2d9;" horiz-adv-x="1024" 
d="M631 1544v-235h-238v235h238z" />
    <glyph glyph-name="ring" unicode="&#x2da;" horiz-adv-x="1024" 
d="M311 1421q0 83 59 142t142 59t142 -59t59 -142q0 -85 -58.5 -143.5t-142.5 -58.5t-142.5 58.5t-58.5 143.5zM401 1421q0 -46 32.5 -79t78.5 -33t78.5 33t32.5 79q0 45 -33 78t-78 33t-78 -33t-33 -78z" />
    <glyph glyph-name="ogonek" unicode="&#x2db;" horiz-adv-x="1232" 
d="M432 -186q0 -41 27.5 -67t77.5 -26q64 0 112 27l51 -139q-72 -45 -190 -45q-113 0 -178.5 52.5t-65.5 156.5q0 120 81 204.5t198 124.5l41 -102q-154 -66 -154 -186z" />
    <glyph glyph-name="tilde" unicode="&#x2dc;" horiz-adv-x="1024" 
d="M715 1546h149q0 -126 -51 -189t-135 -63q-56 0 -113.5 28t-105 55.5t-80.5 27.5q-70 0 -70 -84h-149q0 126 51 189t135 63q44 0 90 -17.5t78 -38t68 -38t63 -17.5q70 0 70 84z" />
    <glyph glyph-name="hungarumlaut" unicode="&#x2dd;" horiz-adv-x="1024" 
d="M444 1597h193l-178 -354h-174zM750 1597h190l-203 -354h-174z" />
    <glyph glyph-name="Bdotaccent" unicode="&#x1e02;" horiz-adv-x="1232" 
d="M137 1597h449q82 0 151.5 -12t134.5 -41.5t110 -76t72 -119t27 -166.5v-41q0 -229 -204 -318q245 -89 245 -346v-41q0 -97 -28 -173t-74.5 -125t-113 -80.5t-138 -44.5t-154.5 -13h-477v1597zM625 725h-275v-537h275q58 0 106.5 14t88.5 43t62.5 80t22.5 119v25
q0 89 -40.5 148.5t-101 83.5t-138.5 24zM590 1409h-240v-496h240q121 0 197.5 55.5t76.5 178.5v29q0 64 -22 110.5t-61 72.5t-86.5 38t-104.5 12zM678 1917v-168h-201v168h201z" />
    <glyph glyph-name="bdotaccent" unicode="&#x1e03;" horiz-adv-x="1126" 
d="M330 1638v-667q103 139 299 139q87 0 156.5 -27t116.5 -74.5t78.5 -116t45.5 -148t14 -173.5v-57q0 -94 -14 -173.5t-45.5 -148t-78.5 -116t-116.5 -74.5t-156.5 -27q-219 0 -320 166l-20 -141h-178l14 307v1331h205zM330 784v-483q96 -145 245 -145q130 0 194.5 93.5
t64.5 264.5v57q0 171 -64.5 265t-194.5 94q-148 0 -245 -146zM328 1917v-168h-201v168h201z" />
    <glyph glyph-name="Ddotaccent" unicode="&#x1e0a;" horiz-adv-x="1325" 
d="M1223 758q0 -206 -40 -351.5t-121.5 -235t-198 -130.5t-277.5 -41h-449v1597h449q161 0 277.5 -41t198 -130t121.5 -234.5t40 -351.5v-82zM350 188h221q224 0 328.5 134.5t104.5 435.5v82q0 301 -104.5 435t-328.5 134h-221v-1221zM715 1917v-168h-201v168h201z" />
    <glyph glyph-name="ddotaccent" unicode="&#x1e0b;" horiz-adv-x="1134" 
d="M506 1110q193 0 297 -137v665h207v-1331l14 -307h-178l-23 141q-104 -166 -317 -166q-87 0 -156.5 27t-117 74.5t-79 116t-45.5 148t-14 173.5v57q0 94 14 173.5t45.5 148t79 116t117 74.5t156.5 27zM803 301v483q-92 146 -244 146q-130 0 -194 -94t-64 -265v-57
q0 -171 64 -264.5t194 -93.5q153 0 244 145zM1008 1917v-168h-201v168h201z" />
    <glyph glyph-name="Fdotaccent" unicode="&#x1e1e;" horiz-adv-x="1077" 
d="M137 1597h899v-188h-686v-500h584v-188h-584v-721h-213v1597zM711 1917v-168h-201v168h201z" />
    <glyph glyph-name="fdotaccent" unicode="&#x1e1f;" horiz-adv-x="800" 
d="M430 1288v-203h283v-182h-283v-903h-205v903h-170v182h170v226q0 352 348 352q110 0 160 -25v-172q-45 17 -112 17q-99 0 -145 -41t-46 -154zM596 1917v-168h-201v168h201z" />
    <glyph glyph-name="Mdotaccent" unicode="&#x1e40;" horiz-adv-x="1693" 
d="M1352 1227l-402 -1227h-207l-401 1227l8 -342v-885h-213v1597h309l400 -1228l401 1228h309v-1597h-213v885zM946 1917v-168h-201v168h201z" />
    <glyph glyph-name="mdotaccent" unicode="&#x1e41;" horiz-adv-x="1689" 
d="M1573 0h-203v741q0 100 -46.5 144.5t-135.5 44.5q-145 0 -236 -142v-788h-204v741q0 100 -46.5 144.5t-134.5 44.5q-149 0 -235 -142v-788h-205v778l-14 307h176l22 -141q110 166 332 166q106 0 177 -45.5t104 -130.5q110 176 340 176q152 0 230.5 -90t78.5 -248v-772z
M969 1544v-235h-238v235h238z" />
    <glyph glyph-name="Pdotaccent" unicode="&#x1e56;" horiz-adv-x="1200" 
d="M350 623v-623h-213v1597h473q79 0 146.5 -11t137 -42.5t118 -81.5t79.5 -135t31 -197v-40q0 -467 -512 -467h-260zM350 809h266q53 0 98.5 11.5t91 40.5t72.5 89t27 146v26q0 86 -27 146t-72.5 89t-91 40.5t-98.5 11.5h-266v-600zM692 1917v-168h-200v168h200z" />
    <glyph glyph-name="pdotaccent" unicode="&#x1e57;" horiz-adv-x="1126" 
d="M629 -25q-196 0 -299 140v-525h-205v1188l-14 307h178l20 -143q102 168 320 168q87 0 156.5 -27t116.5 -74.5t78.5 -116t45.5 -148t14 -173.5v-57q0 -94 -14 -173.5t-45.5 -148t-78.5 -116t-116.5 -74.5t-156.5 -27zM330 784v-483q96 -145 245 -145q130 0 194.5 93.5
t64.5 264.5v57q0 171 -64.5 265t-194.5 94q-148 0 -245 -146zM696 1544v-235h-237v235h237z" />
    <glyph glyph-name="Tdotaccent" unicode="&#x1e6a;" horiz-adv-x="1085" 
d="M649 1409v-1409h-213v1409h-393v188h999v-188h-393zM643 1917v-168h-201v168h201z" />
    <glyph glyph-name="tdotaccent" unicode="&#x1e6b;" horiz-adv-x="841" 
d="M430 1085h324v-182h-324v-553q0 -112 46 -153t145 -41q69 0 112 16v-172q-50 -25 -160 -25q-163 0 -255.5 84t-92.5 269v575h-170v182h170v308h205v-308zM428 1671v-168h-201v168h201z" />
    <glyph glyph-name="Wgrave" unicode="&#x1e80;" horiz-adv-x="1863" 
d="M1229 -12l-297 1372l-297 -1372h-281l-286 1609h223l215 -1331l289 1331h274l289 -1331l215 1331h223l-287 -1609h-280zM698 1946h220l118 -226h-209z" />
    <glyph glyph-name="wgrave" unicode="&#x1e81;" horiz-adv-x="1501" 
d="M752 864l-215 -864h-265l-217 1085h203l152 -866l217 866h247l218 -866l153 866h203l-219 -1085h-262zM444 1597h226l186 -354h-209z" />
    <glyph glyph-name="Wacute" unicode="&#x1e82;" horiz-adv-x="1863" 
d="M1229 -12l-297 1372l-297 -1372h-281l-286 1609h223l215 -1331l289 1331h274l289 -1331l215 1331h223l-287 -1609h-280zM946 1946h219l-129 -226h-209z" />
    <glyph glyph-name="wacute" unicode="&#x1e83;" horiz-adv-x="1501" 
d="M752 864l-215 -864h-265l-217 1085h203l152 -866l217 866h247l218 -866l153 866h203l-219 -1085h-262zM834 1597h225l-203 -354h-209z" />
    <glyph glyph-name="Wdieresis" unicode="&#x1e84;" horiz-adv-x="1863" 
d="M1229 -12l-297 1372l-297 -1372h-281l-286 1609h223l215 -1331l289 1331h274l289 -1331l215 1331h223l-287 -1609h-280zM866 1917v-168h-202v168h202zM1200 1917v-168h-203v168h203z" />
    <glyph glyph-name="wdieresis" unicode="&#x1e85;" horiz-adv-x="1501" 
d="M752 864l-215 -864h-265l-217 1085h203l152 -866l217 866h247l218 -866l153 866h203l-219 -1085h-262zM682 1544v-235h-238v235h238zM1059 1544v-235h-238v235h238z" />
    <glyph glyph-name="Eszett" unicode="&#x1e9e;" horiz-adv-x="1585" 
d="M625 915l301 500q-87 19 -176 19q-197 0 -303.5 -81t-106.5 -263v-1090h-213v1100q0 271 159.5 396.5t463.5 125.5q239 0 407 -80v-147l-283 -469l144 -19q254 -34 379 -142.5t125 -303.5v-23q0 -218 -130 -340.5t-362 -122.5q-249 0 -370 128.5t-121 406.5v20h213
q0 -366 272 -366h16q119 0 191 69.5t72 194.5v16q0 241 -334 281l-344 43v147z" />
    <glyph glyph-name="Ygrave" unicode="&#x1ef2;" horiz-adv-x="1216" 
d="M715 485v-485h-213v485l-469 1112h231l344 -847l344 847h232zM375 1946h219l119 -226h-209z" />
    <glyph glyph-name="ygrave" unicode="&#x1ef3;" horiz-adv-x="1038" 
d="M530 266l275 819h221l-387 -1038l-150 -457h-239l170 457l-385 1038h221zM223 1597h226l186 -354h-209z" />
    <glyph glyph-name="enspace" unicode="&#x2002;" horiz-adv-x="1024" 
 />
    <glyph glyph-name="emspace" unicode="&#x2003;" horiz-adv-x="2048" 
 />
    <glyph glyph-name="threeperemspace" unicode="&#x2004;" horiz-adv-x="681" 
 />
    <glyph glyph-name="fourperemspace" unicode="&#x2005;" horiz-adv-x="512" 
 />
    <glyph glyph-name="sixperemspace" unicode="&#x2006;" horiz-adv-x="342" 
 />
    <glyph glyph-name="figurespace" unicode="&#x2007;" horiz-adv-x="1228" 
 />
    <glyph glyph-name="punctuationspace" unicode="&#x2008;" horiz-adv-x="368" 
 />
    <glyph glyph-name="thinspace" unicode="&#x2009;" horiz-adv-x="307" 
 />
    <glyph glyph-name="hairspace" unicode="&#x200a;" horiz-adv-x="102" 
 />
    <glyph glyph-name="zerowidthspace" unicode="&#x200b;" horiz-adv-x="0" 
 />
    <glyph glyph-name="figuredash" unicode="&#x2012;" horiz-adv-x="1228" 
d="M82 625v184h1065v-184h-1065z" />
    <glyph glyph-name="endash" unicode="&#x2013;" horiz-adv-x="1024" 
d="M82 625v184h860v-184h-860z" />
    <glyph glyph-name="emdash" unicode="&#x2014;" horiz-adv-x="2048" 
d="M82 625v184h1884v-184h-1884z" />
    <glyph glyph-name="uni2015" unicode="&#x2015;" horiz-adv-x="2457" 
d="M82 625v184h2294v-184h-2294z" />
    <glyph glyph-name="doublebar" unicode="&#x2016;" horiz-adv-x="765" 
d="M125 -246v1966h205v-1966h-205zM436 -246v1966h203v-1966h-203z" />
    <glyph glyph-name="quoteleft" unicode="&#x2018;" horiz-adv-x="479" 
d="M123 1143v184q0 309 270 309v-114q-70 0 -108 -34.5t-47 -111.5h118v-233h-233z" />
    <glyph glyph-name="quoteright" unicode="&#x2019;" horiz-adv-x="479" 
d="M356 1597v-184q0 -309 -270 -309v115q71 0 109 34.5t47 110.5h-119v233h233z" />
    <glyph glyph-name="quotesinglbase" unicode="&#x201a;" horiz-adv-x="479" 
d="M356 233v-184q0 -309 -270 -309v115q71 0 109 34.5t47 110.5h-119v233h233z" />
    <glyph glyph-name="reversequoteleft" unicode="&#x201b;" horiz-adv-x="479" 
d="M123 1413v184h233v-233h-118q9 -77 47 -111t108 -34v-115q-270 0 -270 309z" />
    <glyph glyph-name="quotedblleft" unicode="&#x201c;" horiz-adv-x="827" 
d="M123 1143v184q0 309 270 309v-114q-70 0 -108 -34.5t-47 -111.5h118v-233h-233zM471 1143v184q0 309 270 309v-114q-70 0 -108 -34.5t-47 -111.5h119v-233h-234z" />
    <glyph glyph-name="quotedblright" unicode="&#x201d;" horiz-adv-x="827" 
d="M356 1597v-184q0 -309 -270 -309v115q71 0 109 34.5t47 110.5h-119v233h233zM705 1597v-184q0 -309 -271 -309v115q71 0 109 34.5t47 110.5h-119v233h234z" />
    <glyph glyph-name="quotedblbase" unicode="&#x201e;" horiz-adv-x="827" 
d="M356 233v-184q0 -309 -270 -309v115q71 0 109 34.5t47 110.5h-119v233h233zM705 233v-184q0 -309 -271 -309v115q71 0 109 34.5t47 110.5h-119v233h234z" />
    <glyph glyph-name="reversequotedblleft" unicode="&#x201f;" horiz-adv-x="827" 
d="M123 1413v184h233v-233h-118q9 -77 47 -111t108 -34v-115q-270 0 -270 309zM471 1413v184h234v-233h-119q9 -77 47 -111t108 -34v-115q-270 0 -270 309z" />
    <glyph glyph-name="dagger" unicode="&#x2020;" horiz-adv-x="813" 
d="M340 922l10 260h113l10 -260l-10 -260h-113zM340 1638h133l-10 -288h-113zM768 1333v-135l-279 10v115zM45 1198v135l279 -10v-115z" />
    <glyph glyph-name="daggerdbl" unicode="&#x2021;" horiz-adv-x="813" 
d="M340 465l10 260h113l10 -260l-10 -260h-113zM340 1638h133l-10 -288h-113zM340 1036l10 146h113l10 -146l-10 -143h-113zM768 877v-136l-279 11v114zM45 1198v135l279 -10v-115zM45 741v136l279 -11v-114zM768 1333v-135l-279 10v115z" />
    <glyph glyph-name="bullet" unicode="&#x2022;" horiz-adv-x="847" 
d="M713 1006v-578h-578v578h578z" />
    <glyph glyph-name="ellipsis" unicode="&#x2026;" horiz-adv-x="2048" 
d="M479 233v-233h-233v233h233zM1802 233v-233h-233v233h233zM1141 233v-233h-234v233h234z" />
    <glyph glyph-name="perthousand" unicode="&#x2030;" horiz-adv-x="2748" 
d="M727 0h-188l577 1389q-3 0 -24 -4.5t-44.5 -9t-61 -8t-73.5 -3.5q-67 0 -139 10q14 -61 14 -117v-22q0 -173 -100 -268t-258 -95t-259 95t-101 268v22q0 174 100.5 269.5t259.5 95.5q81 0 162 -33q76 -31 158 -42t194 -11q109 0 229 22t170 44v-117zM1143 362
q0 173 100 268t258 95t258.5 -95t100.5 -268v-22q0 -174 -100.5 -269.5t-258.5 -95.5t-258 95.5t-100 269.5v22zM1962 362q0 173 100 268t258 95t258.5 -95t100.5 -268v-22q0 -174 -100.5 -269.5t-258.5 -95.5t-258 95.5t-100 269.5v22zM627 1264q0 90 -54.5 142t-136.5 52
h-12q-84 0 -137.5 -52t-53.5 -142v-33q0 -90 53.5 -142.5t137.5 -52.5h12q82 0 136.5 52.5t54.5 142.5v33zM2124 334q0 -90 54 -142.5t136 -52.5h13q82 0 136 52.5t54 142.5v33q0 90 -54 142t-136 52h-13q-82 0 -136 -52t-54 -142v-33zM1305 334q0 -90 54 -142.5t136 -52.5
h12q82 0 136.5 52.5t54.5 142.5v33q0 90 -54.5 142t-136.5 52h-12q-82 0 -136 -52t-54 -142v-33z" />
    <glyph glyph-name="tripleprime" unicode="&#x2034;" horiz-adv-x="1062" 
d="M125 1597h211l-19 -589h-155zM727 1597h211l-37 -589h-153zM434 1597h195l-21 -589h-153z" />
    <glyph glyph-name="guilsinglleft" unicode="&#x2039;" horiz-adv-x="632" 
d="M530 1102v-193l-278 -213l278 -213v-192l-428 309v193z" />
    <glyph glyph-name="guilsinglright" unicode="&#x203a;" horiz-adv-x="632" 
d="M102 909v193l428 -309v-193l-428 -309v192l275 213z" />
    <glyph glyph-name="interrobang" unicode="&#x203d;" horiz-adv-x="962" 
d="M547 416h-111l-47 999q-70 -35 -99.5 -127t-29.5 -246h-209v27q0 129 21 225.5t70 172.5t136 115.5t211 39.5q113 0 196.5 -32t131.5 -90.5t71 -132.5t23 -167q0 -83 -19 -150.5t-49.5 -114.5t-67.5 -88.5t-75 -83t-70.5 -87.5t-55 -112.5t-27.5 -147.5zM594 233v-233
h-234v233h234zM700 1188q0 187 -114 231l-29 -594q10 18 39.5 69.5t41.5 74.5t30 64.5t25 78.5t7 76z" />
    <glyph glyph-name="fraction" unicode="&#x2044;" horiz-adv-x="409" 
d="M-279 0h-213l1180 1597h213z" />
    <glyph glyph-name="uni2070" unicode="&#x2070;" 
d="M569 1024q0 -107 -68 -173.5t-194 -66.5t-194 66.5t-68 173.5v346q0 108 67.5 174t194.5 66t194.5 -66t67.5 -174v-346zM397 1370q0 41 -22.5 65.5t-65.5 24.5h-4q-44 0 -67 -24.5t-23 -65.5v-344q0 -42 23 -67t67 -25h4q43 0 65.5 25.5t22.5 66.5v344z" />
    <glyph glyph-name="uni2074" unicode="&#x2074;" 
d="M504 799h-172v170h-305v121l315 507h162v-477h82v-151h-82v-170zM334 1323l-129 -207l49 4h78v150z" />
    <glyph glyph-name="uni2075" unicode="&#x2075;" 
d="M37 1055h172q0 -121 92 -121h10q41 0 68 27.5t27 85.5v10q0 57 -28.5 83.5t-74.5 26.5h-6q-31 0 -61 -14.5t-46 -42.5l-147 49l20 438h502v-151h-358l-6 -150q58 23 114 23q124 0 192 -69.5t68 -188.5v-19q0 -121 -69 -189.5t-199 -68.5q-134 0 -202 66t-68 190v15z" />
    <glyph glyph-name="uni2076" unicode="&#x2076;" 
d="M535 1610v-152q-175 0 -252 -92q-36 -42 -50 -98q54 35 119 35q102 0 162.5 -67t60.5 -185v-11q0 -121 -68.5 -188.5t-199.5 -67.5q-128 0 -198 79.5t-70 213.5v17q0 218 113 366q62 84 155.5 117t227.5 33zM309 1153q-64 0 -98 -57v-31q0 -62 26.5 -96.5t67.5 -34.5h6
q40 0 67.5 27t27.5 73v21q0 50 -25 74t-66 24h-6z" />
    <glyph glyph-name="uni2077" unicode="&#x2077;" 
d="M35 1311v286h545v-106l-281 -692h-184l274 649l-96 -2h-109v-135h-149z" />
    <glyph glyph-name="uni2078" unicode="&#x2078;" 
d="M307 784q-70 0 -124.5 21.5t-85 56t-45.5 73t-15 77.5v20q0 119 94 174q-88 59 -88 172v19q0 38 14 73.5t43.5 68t83 52t123.5 19.5t123.5 -19.5t83 -52t43.5 -68t14 -73.5v-19q0 -111 -90 -172q94 -57 94 -174v-20q0 -39 -15 -77.5t-45 -73t-84 -56t-124 -21.5z
M299 1130q-42 0 -66 -22.5t-24 -65.5v-12q0 -48 26.5 -72t65.5 -24h10q40 0 67.5 24t27.5 72v12q0 43 -25 65.5t-68 22.5h-14zM311 1460h-10q-38 0 -63 -23t-25 -61v-8q0 -86 90 -86h8q42 0 65 22t23 64v8q0 38 -24.5 61t-63.5 23z" />
    <glyph glyph-name="uni2079" unicode="&#x2079;" 
d="M78 784v152q174 0 252 94q32 38 51 96q-53 -32 -121 -32q-101 0 -162 67.5t-61 184.5v10q0 119 68.5 186.5t199.5 67.5q130 0 200 -79t70 -214v-14q0 -216 -112 -369q-62 -83 -157 -116.5t-228 -33.5zM303 1241q63 0 100 55v35q0 61 -26.5 96t-67.5 35h-6q-40 0 -67 -27
t-27 -75v-21q0 -49 25 -73.5t65 -24.5h4z" />
    <glyph glyph-name="uni207A" unicode="&#x207a;" 
d="M231 1462h152v-188h188v-152h-188v-188h-152v188h-188v152h188v188z" />
    <glyph glyph-name="uni207B" unicode="&#x207b;" 
d="M43 1122v152h528v-152h-528z" />
    <glyph glyph-name="uni207C" unicode="&#x207c;" 
d="M43 1233v151h528v-151h-528zM43 1012v149h528v-149h-528z" />
    <glyph glyph-name="uni207D" unicode="&#x207d;" horiz-adv-x="378" 
d="M43 1188v20q0 236 123 389h176q-129 -195 -129 -389v-20q0 -199 129 -389h-176q-123 149 -123 389z" />
    <glyph glyph-name="uni207E" unicode="&#x207e;" horiz-adv-x="378" 
d="M334 1208v-20q0 -244 -123 -389h-176q129 184 129 389v20q0 201 -129 389h176q123 -148 123 -389z" />
    <glyph glyph-name="uni2080" unicode="&#x2080;" 
d="M569 225q0 -107 -68 -173t-194 -66t-194 66t-68 173v346q0 108 67.5 174t194.5 66t194.5 -66t67.5 -174v-346zM397 571q0 41 -22.5 66t-65.5 25h-4q-44 0 -67 -25t-23 -66v-344q0 -42 23 -67t67 -25h4q43 0 65.5 25.5t22.5 66.5v344z" />
    <glyph glyph-name="uni2081" unicode="&#x2081;" 
d="M586 0h-518v150h174v438l-121 -82l-86 125l250 168h129v-649h172v-150z" />
    <glyph glyph-name="uni2082" unicode="&#x2082;" 
d="M571 150v-150h-528v109l305 335q27 29 39 51t12 54v10q0 51 -24 77t-64 26h-10q-86 0 -86 -130h-172v21q0 130 65 194t199 64q71 0 124 -20t82.5 -53t43.5 -70t14 -78v-21q0 -65 -21 -108t-69 -96l-196 -215h286z" />
    <glyph glyph-name="uni2083" unicode="&#x2083;" 
d="M209 256q0 -121 92 -121h10q40 0 67.5 25t27.5 73v11q0 42 -25.5 65t-67.5 23h-108v151h106q88 0 88 84v13q0 36 -24.5 59t-63.5 23h-10q-86 0 -86 -130h-172v21q0 130 65 194t199 64q70 0 123.5 -19.5t83 -52t43.5 -68t14 -73.5v-18q0 -116 -92 -172q96 -60 96 -175v-18
q0 -39 -15 -77.5t-45 -73.5t-84 -56.5t-124 -21.5q-134 0 -202 66t-68 190v14h172z" />
    <glyph glyph-name="uni2084" unicode="&#x2084;" 
d="M504 0h-172v170h-305v121l315 508h162v-477h82v-152h-82v-170zM334 524l-129 -207l49 5h78v149z" />
    <glyph glyph-name="uni2085" unicode="&#x2085;" 
d="M37 256h172q0 -121 92 -121h10q41 0 68 27.5t27 85.5v10q0 57 -28.5 84t-74.5 27h-6q-31 0 -61 -15t-46 -43l-147 49l20 439h502v-152h-358l-6 -149q55 22 114 22q124 0 192 -69.5t68 -188.5v-18q0 -121 -69 -189.5t-199 -68.5q-134 0 -202 66t-68 190v14z" />
    <glyph glyph-name="uni2086" unicode="&#x2086;" 
d="M535 811v-152q-175 0 -252 -92q-36 -42 -50 -98q54 35 119 35q102 0 162.5 -67t60.5 -185v-10q0 -121 -68.5 -188.5t-199.5 -67.5q-128 0 -198 79.5t-70 213.5v16q0 219 113 367q62 84 155.5 116.5t227.5 32.5zM309 354q-64 0 -98 -57v-31q0 -62 26.5 -96.5t67.5 -34.5h6
q40 0 67.5 27.5t27.5 73.5v20q0 50 -25 74t-66 24h-6z" />
    <glyph glyph-name="uni2087" unicode="&#x2087;" 
d="M35 512v287h545v-107l-281 -692h-184l274 649l-96 -2h-109v-135h-149z" />
    <glyph glyph-name="uni2088" unicode="&#x2088;" 
d="M307 -14q-70 0 -124.5 21.5t-85 56t-45.5 72.5t-15 77v20q0 120 94 175q-88 59 -88 172v18q0 38 14 73.5t43.5 68t83 52t123.5 19.5t123.5 -19.5t83 -52t43.5 -68t14 -73.5v-18q0 -111 -90 -172q94 -57 94 -175v-20q0 -39 -15 -77t-45 -72.5t-84 -56t-124 -21.5zM299 332
q-42 0 -66 -22.5t-24 -65.5v-13q0 -48 26.5 -72t65.5 -24h10q40 0 67.5 24t27.5 72v13q0 43 -25 65.5t-68 22.5h-14zM311 662h-10q-38 0 -63 -23t-25 -61v-9q0 -86 90 -86h8q42 0 65 22t23 64v9q0 38 -24.5 61t-63.5 23z" />
    <glyph glyph-name="uni2089" unicode="&#x2089;" 
d="M78 -14v151q174 0 252 94q32 37 51 97q-54 -33 -121 -33q-101 0 -162 67.5t-61 184.5v10q0 119 68.5 186.5t199.5 67.5q130 0 200 -79t70 -214v-14q0 -216 -112 -369q-62 -83 -157 -116t-228 -33zM303 442q62 0 100 56v34q0 61 -26.5 96.5t-67.5 35.5h-6q-40 0 -67 -27.5
t-27 -75.5v-20q0 -49 25 -74t65 -25h4z" />
    <glyph glyph-name="uni208A" unicode="&#x208a;" 
d="M231 664h152v-189h188v-151h-188v-189h-152v189h-188v151h188v189z" />
    <glyph glyph-name="uni208B" unicode="&#x208b;" 
d="M43 324v151h528v-151h-528z" />
    <glyph glyph-name="uni208C" unicode="&#x208c;" 
d="M43 434v152h528v-152h-528zM43 213v149h528v-149h-528z" />
    <glyph glyph-name="uni208D" unicode="&#x208d;" horiz-adv-x="378" 
d="M43 389v21q0 236 123 389h176q-129 -195 -129 -389v-21q0 -199 129 -389h-176q-123 149 -123 389z" />
    <glyph glyph-name="uni208E" unicode="&#x208e;" horiz-adv-x="378" 
d="M334 410v-21q0 -244 -123 -389h-176q129 184 129 389v21q0 201 -129 389h176q123 -148 123 -389z" />
    <glyph glyph-name="Euro" unicode="&#x20ac;" horiz-adv-x="1228" 
d="M221 526h-153v189h143v86h-143v188h147q21 329 142.5 481t349.5 152t330 -131t102 -404v-63h-187q0 220 -53 315t-178 95h-16q-241 0 -275 -445h506l-90 -188h-420v-86h453l-93 -189h-348q49 -362 267 -362h16q231 0 231 348h187v-20q0 -259 -104 -388t-328 -129
q-214 0 -334 132.5t-152 418.5z" />
    <glyph glyph-name="ruble" unicode="&#x20bd;" horiz-adv-x="1228" 
d="M424 623v-111h410v-188h-410v-324h-213v324h-168v188h168v111h-168v186h168v788h420q79 0 146.5 -11t137.5 -42.5t119 -81.5t80 -135t31 -197v-40q0 -112 -31 -197.5t-80 -135.5t-119 -81t-137.5 -42t-146.5 -11h-207zM424 809h213q41 0 78 6.5t77.5 25.5t69 49.5
t47.5 83t19 122.5v26q0 70 -19 122.5t-47.5 83t-69 49.5t-77.5 25.5t-78 6.5h-213v-600z" />
    <glyph glyph-name="numero" unicode="&#x2116;" horiz-adv-x="2240" 
d="M1229 1597v-1597h-228l-669 1221l8 -355v-866h-203v1597h228l669 -1220l-8 354v866h203zM2165 1176q0 -182 -91.5 -292t-271.5 -110t-270 110t-90 292v47q0 181 90 290t270 109t271.5 -109.5t91.5 -289.5v-47zM1624 1176q0 -116 44 -179t134 -63q180 0 180 242v47
q0 114 -44.5 177.5t-135.5 63.5q-90 0 -134 -63.5t-44 -177.5v-47zM1458 414v157h690v-157h-690z" />
    <glyph glyph-name="published" unicode="&#x2117;" horiz-adv-x="1884" 
d="M119 799q0 168 65 320t175.5 262.5t262.5 175.5t320 65t320 -65t262.5 -175.5t175.5 -262.5t65 -320t-65 -320.5t-175.5 -262.5t-262.5 -175.5t-320 -65.5t-320 65.5t-262.5 175.5t-175.5 262.5t-65 320.5zM217 799q0 -197 97 -364t264 -264t364 -97t364 97t264 264
t97 364t-97 364t-264 264t-364 97t-364 -97t-264 -264t-97 -364zM786 676v-359h-190v963h418q61 0 112 -13t98.5 -43.5t75 -90.5t27.5 -144v-22q0 -84 -27.5 -144t-75 -90.5t-98.5 -43.5t-112 -13h-228zM786 821h193q66 0 112 33.5t46 116.5v14q0 83 -46 116.5t-112 33.5
h-193v-314z" />
    <glyph glyph-name="servicemark" unicode="&#x2120;" horiz-adv-x="1097" 
d="M209 1321q-92 12 -131 49t-39 109v8q0 77 48.5 121.5t139.5 44.5q99 0 144 -48t45 -147v-16h-103q0 63 -19 91t-65 28h-6q-38 0 -60 -18t-22 -50v-4q0 -35 23 -53t82 -27q91 -12 132.5 -49.5t41.5 -110.5v-10q0 -80 -50 -126t-143 -46q-194 0 -194 201v6h102
q0 -60 20.5 -87.5t69.5 -27.5h6q84 0 84 76v4q0 36 -23.5 55.5t-82.5 26.5zM899 1473l-102 -388h-111l-104 388l4 -134v-254h-101v553h154l102 -383l103 383h153v-553h-102v254z" />
    <glyph glyph-name="trademark" unicode="&#x2122;" horiz-adv-x="1097" 
d="M281 1548v-463h-103v463h-141v90h383v-90h-139zM899 1473l-102 -388h-111l-104 388l4 -134v-254h-101v553h154l102 -383l103 383h153v-553h-102v254z" />
    <glyph glyph-name="uni2153" unicode="&#x2153;" horiz-adv-x="1638" 
d="M336 0h-213l1180 1597h213zM1233 256q0 -121 92 -121h10q40 0 67.5 25t27.5 73v11q0 42 -25.5 65t-67.5 23h-108v151h106q88 0 88 84v13q0 36 -24.5 59t-63.5 23h-10q-86 0 -86 -130h-172v21q0 130 65 194t199 64q70 0 123.5 -19.5t83 -52t43.5 -68t14 -73.5v-18
q0 -116 -92 -172q96 -60 96 -175v-18q0 -39 -15 -77.5t-45 -73.5t-84 -56.5t-124 -21.5q-134 0 -202 66t-68 190v14h172zM586 799h-518v149h174v438l-121 -81l-86 125l250 167h129v-649h172v-149z" />
    <glyph glyph-name="uni2154" unicode="&#x2154;" horiz-adv-x="1638" 
d="M336 0h-213l1180 1597h213zM1233 256q0 -121 92 -121h10q40 0 67.5 25t27.5 73v11q0 42 -25.5 65t-67.5 23h-108v151h106q88 0 88 84v13q0 36 -24.5 59t-63.5 23h-10q-86 0 -86 -130h-172v21q0 130 65 194t199 64q70 0 123.5 -19.5t83 -52t43.5 -68t14 -73.5v-18
q0 -116 -92 -172q96 -60 96 -175v-18q0 -39 -15 -77.5t-45 -73.5t-84 -56.5t-124 -21.5q-134 0 -202 66t-68 190v14h172zM571 948v-149h-528v108l305 336q27 29 39 51t12 54v10q0 51 -24 76.5t-64 25.5h-10q-86 0 -86 -129h-172v21q0 130 65 194t199 64q71 0 124 -20
t82.5 -53t43.5 -70t14 -78v-21q0 -66 -21 -109t-69 -96l-196 -215h286z" />
    <glyph glyph-name="uni2155" unicode="&#x2155;" horiz-adv-x="1638" 
d="M336 0h-213l1180 1597h213zM1061 256h172q0 -121 92 -121h10q41 0 68 27.5t27 85.5v10q0 57 -28.5 84t-74.5 27h-6q-31 0 -61 -15t-46 -43l-147 49l20 439h502v-152h-358l-6 -149q55 22 114 22q124 0 192 -69.5t68 -188.5v-18q0 -121 -69 -189.5t-199 -68.5
q-134 0 -202 66t-68 190v14zM586 799h-518v149h174v438l-121 -81l-86 125l250 167h129v-649h172v-149z" />
    <glyph glyph-name="uni2156" unicode="&#x2156;" horiz-adv-x="1638" 
d="M336 0h-213l1180 1597h213zM1061 256h172q0 -121 92 -121h10q41 0 68 27.5t27 85.5v10q0 57 -28.5 84t-74.5 27h-6q-31 0 -61 -15t-46 -43l-147 49l20 439h502v-152h-358l-6 -149q55 22 114 22q124 0 192 -69.5t68 -188.5v-18q0 -121 -69 -189.5t-199 -68.5
q-134 0 -202 66t-68 190v14zM571 948v-149h-528v108l305 336q27 29 39 51t12 54v10q0 51 -24 76.5t-64 25.5h-10q-86 0 -86 -129h-172v21q0 130 65 194t199 64q71 0 124 -20t82.5 -53t43.5 -70t14 -78v-21q0 -66 -21 -109t-69 -96l-196 -215h286z" />
    <glyph glyph-name="uni2157" unicode="&#x2157;" horiz-adv-x="1638" 
d="M336 0h-213l1180 1597h213zM1061 256h172q0 -121 92 -121h10q41 0 68 27.5t27 85.5v10q0 57 -28.5 84t-74.5 27h-6q-31 0 -61 -15t-46 -43l-147 49l20 439h502v-152h-358l-6 -149q55 22 114 22q124 0 192 -69.5t68 -188.5v-18q0 -121 -69 -189.5t-199 -68.5
q-134 0 -202 66t-68 190v14zM209 1055q0 -121 92 -121h10q40 0 67.5 25t27.5 73v10q0 42 -25.5 65t-67.5 23h-108v152h106q88 0 88 84v12q0 36 -24.5 59t-63.5 23h-10q-86 0 -86 -129h-172v21q0 130 65 194t199 64q70 0 123.5 -19.5t83 -52t43.5 -68t14 -73.5v-19
q0 -116 -92 -172q96 -60 96 -174v-18q0 -39 -15 -77.5t-45 -73.5t-84 -57t-124 -22q-134 0 -202 66t-68 190v15h172z" />
    <glyph glyph-name="uni2158" unicode="&#x2158;" horiz-adv-x="1638" 
d="M336 0h-213l1180 1597h213zM1061 256h172q0 -121 92 -121h10q41 0 68 27.5t27 85.5v10q0 57 -28.5 84t-74.5 27h-6q-31 0 -61 -15t-46 -43l-147 49l20 439h502v-152h-358l-6 -149q55 22 114 22q124 0 192 -69.5t68 -188.5v-18q0 -121 -69 -189.5t-199 -68.5
q-134 0 -202 66t-68 190v14zM504 799h-172v170h-305v121l315 507h162v-477h82v-151h-82v-170zM334 1323l-129 -207l49 4h78v150z" />
    <glyph glyph-name="uni2159" unicode="&#x2159;" horiz-adv-x="1638" 
d="M336 0h-213l1180 1597h213zM1559 811v-152q-175 0 -252 -92q-36 -42 -50 -98q54 35 119 35q102 0 162.5 -67t60.5 -185v-10q0 -121 -68.5 -188.5t-199.5 -67.5q-128 0 -198 79.5t-70 213.5v16q0 219 113 367q62 84 155.5 116.5t227.5 32.5zM586 799h-518v149h174v438
l-121 -81l-86 125l250 167h129v-649h172v-149zM1333 354q-64 0 -98 -57v-31q0 -62 26.5 -96.5t67.5 -34.5h6q40 0 67.5 27.5t27.5 73.5v20q0 50 -25 74t-66 24h-6z" />
    <glyph glyph-name="uni215A" unicode="&#x215a;" horiz-adv-x="1638" 
d="M336 0h-213l1180 1597h213zM1559 811v-152q-175 0 -252 -92q-36 -42 -50 -98q54 35 119 35q102 0 162.5 -67t60.5 -185v-10q0 -121 -68.5 -188.5t-199.5 -67.5q-128 0 -198 79.5t-70 213.5v16q0 219 113 367q62 84 155.5 116.5t227.5 32.5zM37 1055h172q0 -121 92 -121
h10q41 0 68 27.5t27 85.5v10q0 57 -28.5 83.5t-74.5 26.5h-6q-31 0 -61 -14.5t-46 -42.5l-147 49l20 438h502v-151h-358l-6 -150q58 23 114 23q124 0 192 -69.5t68 -188.5v-19q0 -121 -69 -189.5t-199 -68.5q-134 0 -202 66t-68 190v15zM1333 354q-64 0 -98 -57v-31
q0 -62 26.5 -96.5t67.5 -34.5h6q40 0 67.5 27.5t27.5 73.5v20q0 50 -25 74t-66 24h-6z" />
    <glyph glyph-name="uni215B" unicode="&#x215b;" horiz-adv-x="1638" 
d="M1331 -14q-70 0 -124.5 21.5t-85 56t-45.5 72.5t-15 77v20q0 120 94 175q-88 59 -88 172v18q0 38 14 73.5t43.5 68t83 52t123.5 19.5t123.5 -19.5t83 -52t43.5 -68t14 -73.5v-18q0 -111 -90 -172q94 -57 94 -175v-20q0 -39 -15 -77t-45 -72.5t-84 -56t-124 -21.5zM336 0
h-213l1180 1597h213zM586 799h-518v149h174v438l-121 -81l-86 125l250 167h129v-649h172v-149zM1323 332q-42 0 -66 -22.5t-24 -65.5v-13q0 -48 26.5 -72t65.5 -24h10q40 0 67.5 24t27.5 72v13q0 43 -25 65.5t-68 22.5h-14zM1335 662h-10q-38 0 -63 -23t-25 -61v-9
q0 -86 90 -86h8q42 0 65 22t23 64v9q0 38 -24.5 61t-63.5 23z" />
    <glyph glyph-name="uni215C" unicode="&#x215c;" horiz-adv-x="1638" 
d="M1331 -14q-70 0 -124.5 21.5t-85 56t-45.5 72.5t-15 77v20q0 120 94 175q-88 59 -88 172v18q0 38 14 73.5t43.5 68t83 52t123.5 19.5t123.5 -19.5t83 -52t43.5 -68t14 -73.5v-18q0 -111 -90 -172q94 -57 94 -175v-20q0 -39 -15 -77t-45 -72.5t-84 -56t-124 -21.5zM336 0
h-213l1180 1597h213zM209 1055q0 -121 92 -121h10q40 0 67.5 25t27.5 73v10q0 42 -25.5 65t-67.5 23h-108v152h106q88 0 88 84v12q0 36 -24.5 59t-63.5 23h-10q-86 0 -86 -129h-172v21q0 130 65 194t199 64q70 0 123.5 -19.5t83 -52t43.5 -68t14 -73.5v-19q0 -116 -92 -172
q96 -60 96 -174v-18q0 -39 -15 -77.5t-45 -73.5t-84 -57t-124 -22q-134 0 -202 66t-68 190v15h172zM1323 332q-42 0 -66 -22.5t-24 -65.5v-13q0 -48 26.5 -72t65.5 -24h10q40 0 67.5 24t27.5 72v13q0 43 -25 65.5t-68 22.5h-14zM1335 662h-10q-38 0 -63 -23t-25 -61v-9
q0 -86 90 -86h8q42 0 65 22t23 64v9q0 38 -24.5 61t-63.5 23z" />
    <glyph glyph-name="uni215D" unicode="&#x215d;" horiz-adv-x="1638" 
d="M1331 -14q-70 0 -124.5 21.5t-85 56t-45.5 72.5t-15 77v20q0 120 94 175q-88 59 -88 172v18q0 38 14 73.5t43.5 68t83 52t123.5 19.5t123.5 -19.5t83 -52t43.5 -68t14 -73.5v-18q0 -111 -90 -172q94 -57 94 -175v-20q0 -39 -15 -77t-45 -72.5t-84 -56t-124 -21.5zM336 0
h-213l1180 1597h213zM37 1055h172q0 -121 92 -121h10q41 0 68 27.5t27 85.5v10q0 57 -28.5 83.5t-74.5 26.5h-6q-31 0 -61 -14.5t-46 -42.5l-147 49l20 438h502v-151h-358l-6 -150q58 23 114 23q124 0 192 -69.5t68 -188.5v-19q0 -121 -69 -189.5t-199 -68.5q-134 0 -202 66
t-68 190v15zM1323 332q-42 0 -66 -22.5t-24 -65.5v-13q0 -48 26.5 -72t65.5 -24h10q40 0 67.5 24t27.5 72v13q0 43 -25 65.5t-68 22.5h-14zM1335 662h-10q-38 0 -63 -23t-25 -61v-9q0 -86 90 -86h8q42 0 65 22t23 64v9q0 38 -24.5 61t-63.5 23z" />
    <glyph glyph-name="uni215E" unicode="&#x215e;" horiz-adv-x="1638" 
d="M1331 -14q-70 0 -124.5 21.5t-85 56t-45.5 72.5t-15 77v20q0 120 94 175q-88 59 -88 172v18q0 38 14 73.5t43.5 68t83 52t123.5 19.5t123.5 -19.5t83 -52t43.5 -68t14 -73.5v-18q0 -111 -90 -172q94 -57 94 -175v-20q0 -39 -15 -77t-45 -72.5t-84 -56t-124 -21.5zM336 0
h-213l1180 1597h213zM35 1311v286h545v-106l-281 -692h-184l274 649l-96 -2h-109v-135h-149zM1323 332q-42 0 -66 -22.5t-24 -65.5v-13q0 -48 26.5 -72t65.5 -24h10q40 0 67.5 24t27.5 72v13q0 43 -25 65.5t-68 22.5h-14zM1335 662h-10q-38 0 -63 -23t-25 -61v-9
q0 -86 90 -86h8q42 0 65 22t23 64v9q0 38 -24.5 61t-63.5 23z" />
    <glyph glyph-name="uni215F" unicode="&#x215f;" horiz-adv-x="1024" 
d="M336 0h-213l1180 1597h213zM586 799h-518v149h174v438l-121 -81l-86 125l250 167h129v-649h172v-149z" />
    <glyph glyph-name="arrowleft" unicode="&#x2190;" horiz-adv-x="1884" 
d="M918 1597h268l-705 -704h1260v-188h-1260l705 -705h-268l-799 799z" />
    <glyph glyph-name="arrowup" unicode="&#x2191;" horiz-adv-x="1884" 
d="M143 555v268l799 799l799 -799v-268l-705 705v-1260h-188v1260z" />
    <glyph glyph-name="arrowright" unicode="&#x2192;" horiz-adv-x="1884" 
d="M698 1597h269l798 -798l-798 -799h-269l705 705h-1260v188h1260z" />
    <glyph glyph-name="arrowdown" unicode="&#x2193;" horiz-adv-x="1884" 
d="M143 774v268l705 -704v1259h188v-1259l705 704v-268l-799 -799z" />
    <glyph glyph-name="uni2196" unicode="&#x2196;" horiz-adv-x="1884" 
d="M334 0h-191v1597h1598v-190h-1274l1298 -1298l-133 -134l-1298 1299v-1274z" />
    <glyph glyph-name="uni2197" unicode="&#x2197;" horiz-adv-x="1884" 
d="M143 1407v190h1598v-1597h-191v1274l-1298 -1299l-133 134l1298 1298h-1274z" />
    <glyph glyph-name="uni2198" unicode="&#x2198;" horiz-adv-x="1884" 
d="M143 0v190h1274l-1298 1299l133 133l1298 -1298v1273h191v-1597h-1598z" />
    <glyph glyph-name="uni2199" unicode="&#x2199;" horiz-adv-x="1884" 
d="M1741 190v-190h-1598v1597h191v-1273l1298 1298l133 -133l-1298 -1299h1274z" />
    <glyph glyph-name="minus" unicode="&#x2212;" horiz-adv-x="1228" 
d="M94 705v188h1041v-188h-1041z" />
    <glyph glyph-name="approxequal" unicode="&#x2248;" horiz-adv-x="1228" 
d="M367 733q73 0 144.5 -22t119 -48.5t109.5 -48.5t118 -22q59 0 110 33t85 75l106 -106q-49 -71 -124 -120.5t-173 -49.5q-73 0 -144.5 22t-119 48.5t-109.5 48.5t-118 22q-59 0 -110 -33t-85 -75l-106 106q49 71 124 120.5t173 49.5zM367 1159q73 0 144.5 -22t119 -48.5
t109.5 -48.5t118 -22q59 0 110.5 33.5t84.5 76.5l106 -108q-50 -70 -125 -119t-172 -49q-73 0 -144.5 22t-119 48.5t-109.5 48.5t-118 22q-59 0 -110.5 -33.5t-84.5 -76.5l-106 108q49 71 124 119.5t173 48.5z" />
    <glyph glyph-name="notequal" unicode="&#x2260;" horiz-adv-x="1228" 
d="M94 918v190h617l137 238h162l-138 -238h263v-190h-373l-135 -238h508v-191h-619l-135 -237h-162l135 237h-260v191h371l135 238h-506z" />
    <glyph glyph-name="equivalence" unicode="&#x2261;" horiz-adv-x="1228" 
d="M94 1130v191h1041v-191h-1041zM94 276v191h1041v-191h-1041zM94 705v188h1041v-188h-1041z" />
    <glyph glyph-name="lessequal" unicode="&#x2264;" horiz-adv-x="1228" 
d="M1135 1180l-762 -242l762 -240v-209l-1041 347v204l1041 346v-206zM1135 348v-137l-1041 346v137z" />
    <glyph glyph-name="greaterequal" unicode="&#x2265;" horiz-adv-x="1228" 
d="M94 698l760 240l-760 242v206l1041 -346v-204l-1041 -347v209zM94 211v137l1041 346v-137z" />
    <glyph glyph-name="squaremultiply" unicode="&#x22a0;" horiz-adv-x="1884" 
d="M1741 0h-1598v1597h1598v-1597zM1554 1411h-1224v-1225h1224v1225zM584 305l-135 135l358 359l-358 358l135 135l358 -358l358 358l136 -135l-359 -358l359 -359l-136 -135l-358 359z" />
    <glyph glyph-name="house" unicode="&#x2302;" horiz-adv-x="1740" 
d="M1597 0h-1454v922l727 696l727 -696v-922z" />
    <glyph glyph-name="blacksquare" unicode="&#x25a0;" horiz-adv-x="1884" 
d="M1741 0h-1598v1597h1598v-1597z" />
    <glyph glyph-name="blacksquare" unicode="&#xe740;" horiz-adv-x="1884" 
d="M1741 0h-1598v1597h1598v-1597z" />
    <glyph glyph-name="whitesquare" unicode="&#x25a1;" horiz-adv-x="1884" 
d="M1741 0h-1598v1597h1598v-1597zM1554 1411h-1224v-1225h1224v1225z" />
    <glyph glyph-name="blacksmallsquare" unicode="&#x25aa;" horiz-adv-x="1392" 
d="M1229 0h-1086v1085h1086v-1085z" />
    <glyph glyph-name="whitesmallsquare" unicode="&#x25ab;" horiz-adv-x="1392" 
d="M143 1085h1086v-1085h-1086v1085zM1042 899h-712v-713h712v713z" />
    <glyph glyph-name="triagup" unicode="&#x25b2;" horiz-adv-x="1904" 
d="M1055 1622l721 -1622h-209l-615 1401l-614 -1401h-209l721 1622h205z" />
    <glyph glyph-name="triagrt" unicode="&#x25ba;" horiz-adv-x="1904" 
d="M1786 901v-205l-1622 -721v209l1401 615l-1401 614v209z" />
    <glyph glyph-name="triagdn" unicode="&#x25bc;" horiz-adv-x="1904" 
d="M850 -25l-721 1622h209l614 -1400l615 1400h209l-721 -1622h-205z" />
    <glyph glyph-name="triaglf" unicode="&#x25c4;" horiz-adv-x="1904" 
d="M119 901l1622 721v-209l-1401 -614l1401 -615v-209l-1622 721v205z" />
    <glyph glyph-name="whitecircle" unicode="&#x25cb;" horiz-adv-x="1884" 
d="M119 799q0 168 65 320t175.5 262.5t262.5 175.5t320 65t320 -65t262.5 -175.5t175.5 -262.5t65 -320t-65 -320.5t-175.5 -262.5t-262.5 -175.5t-320 -65.5t-320 65.5t-262.5 175.5t-175.5 262.5t-65 320.5zM305 799q0 -130 50.5 -248t135.5 -203t203 -135.5t248 -50.5
t248 50.5t203 135.5t135.5 203t50.5 248t-50.5 248t-135.5 203t-203 135.5t-248 50.5t-248 -50.5t-203 -135.5t-135.5 -203t-50.5 -248z" />
    <glyph glyph-name="whitecircle" unicode="&#x25ef;" horiz-adv-x="1884" 
d="M119 799q0 168 65 320t175.5 262.5t262.5 175.5t320 65t320 -65t262.5 -175.5t175.5 -262.5t65 -320t-65 -320.5t-175.5 -262.5t-262.5 -175.5t-320 -65.5t-320 65.5t-262.5 175.5t-175.5 262.5t-65 320.5zM305 799q0 -130 50.5 -248t135.5 -203t203 -135.5t248 -50.5
t248 50.5t203 135.5t135.5 203t50.5 248t-50.5 248t-135.5 203t-203 135.5t-248 50.5t-248 -50.5t-203 -135.5t-135.5 -203t-50.5 -248z" />
    <glyph glyph-name="blackcircle" unicode="&#x25cf;" horiz-adv-x="1884" 
d="M119 799q0 168 65 320t175.5 262.5t262.5 175.5t320 65t320 -65t262.5 -175.5t175.5 -262.5t65 -320t-65 -320.5t-175.5 -262.5t-262.5 -175.5t-320 -65.5t-320 65.5t-262.5 175.5t-175.5 262.5t-65 320.5z" />
    <glyph glyph-name="uni25E2" unicode="&#x25e2;" horiz-adv-x="1904" 
d="M1815 72l-144 -144l-1655 635l148 148l1425 -557l-557 1425l148 147z" />
    <glyph glyph-name="uni25E3" unicode="&#x25e3;" horiz-adv-x="1904" 
d="M90 72l635 1654l147 -147l-557 -1425l1426 557l147 -148l-1655 -635z" />
    <glyph glyph-name="uni25E4" unicode="&#x25e4;" horiz-adv-x="1904" 
d="M90 1528l143 143l1655 -635l-147 -147l-1426 557l557 -1426l-147 -147z" />
    <glyph glyph-name="uni25E5" unicode="&#x25e5;" horiz-adv-x="1904" 
d="M1815 1528l-635 -1655l-148 147l557 1426l-1425 -557l-148 147l1655 635z" />
    <glyph glyph-name="uni2605" unicode="&#x2605;" horiz-adv-x="1802" 
d="M901 369l-532 -389l202 628l-532 387h659l203 627l203 -627h659l-532 -387l203 -628z" />
    <glyph glyph-name="ballotboxwithx" unicode="&#x2612;" horiz-adv-x="1392" 
d="M143 1085h1086v-1085h-1086v1085zM1042 899h-712v-713h712v713zM584 305l-135 135l102 103l-102 102l135 135l102 -102l102 102l136 -135l-103 -102l103 -103l-136 -135l-102 103z" />
    <glyph glyph-name="uni263C" unicode="&#x263c;" horiz-adv-x="1966" 
d="M1067 391l-86 -414l-86 414q0 -80 -59 -135q-17 -16 -61 -45.5t-61.5 -53.5t-17.5 -61q0 -19 6 -37t12 -26l7 -8q-45 13 -69.5 48t-24.5 79q0 61 43 104q41 41 62.5 97t21.5 98l-353 -232l232 352q-53 -53 -135 -53q-19 0 -64.5 8.5t-62.5 8.5q-31 0 -55 -10t-36 -24.5
t-19.5 -29.5t-8.5 -25l-2 -10q-17 31 -17 58q0 59 42.5 100t103.5 41q42 0 89.5 17.5t74.5 35t32 25.5l-413 86l413 86q-80 0 -135 59q-16 18 -37.5 48.5t-34 47t-35.5 30t-52 13.5q-19 0 -37 -6t-26 -12l-9 -6q13 45 48 69.5t79 24.5q61 0 104 -43q41 -41 97 -62.5
t98 -21.5l-232 352l353 -231q-54 54 -54 135q0 19 8.5 64.5t8.5 62.5q0 31 -10 55t-24.5 36t-29 19.5t-24.5 8.5l-10 2q29 16 57 16q59 0 100 -42t41 -103q0 -42 17.5 -89.5t35 -75t25.5 -32.5l86 414l86 -414q0 80 59 135q17 16 61 45.5t61.5 53.5t17.5 61q0 19 -6 37
t-12 26l-7 9q45 -13 69.5 -48t24.5 -79q0 -62 -43 -105q-41 -41 -62.5 -96.5t-21.5 -97.5l353 231l-232 -352q53 53 135 53q19 0 64.5 -8t62.5 -8q31 0 55 10t36 24.5t19.5 29t8.5 24.5l2 10q17 -31 17 -57q0 -59 -42.5 -100t-103.5 -41q-42 0 -89.5 -17.5t-74.5 -35
t-32 -25.5l413 -86l-413 -86q79 0 135 -60q16 -18 37.5 -48.5t34 -47t35.5 -30t52 -13.5q19 0 37 6t26 12l9 7q-13 -45 -48.5 -70t-78.5 -25q-61 0 -104 43q-41 41 -97 62.5t-98 21.5l232 -352l-353 232q54 -54 54 -136q0 -19 -8.5 -64.5t-8.5 -62.5q0 -31 10 -55
t24.5 -35.5t29 -19t24.5 -8.5l10 -2q-31 -17 -57 -17q-59 0 -100 42.5t-41 103.5q0 42 -17.5 89.5t-35 74.5t-25.5 32z" />
    <glyph glyph-name="uni263E" unicode="&#x263e;" horiz-adv-x="1966" 
d="M1278 1491q-181 0 -333.5 -92.5t-241.5 -252t-89 -347.5q0 -141 52.5 -269.5t141.5 -221t212 -147.5t258 -55q99 0 197 31q-218 -157 -492 -157q-167 0 -318.5 65t-261 174.5t-174.5 261t-65 318.5t65 318.5t174.5 261t261 174.5t318.5 65q268 0 492 -158
q-109 31 -197 31z" />
    <glyph glyph-name="spade" unicode="&#x2660;" horiz-adv-x="1843" 
d="M924 1618q66 -99 199 -238t278 -233q60 -39 104 -73t90.5 -79t75.5 -90t47.5 -102t18.5 -119q0 -150 -105 -253t-256 -103q-142 0 -246 93.5t-163 235.5l-6 -2q17 -210 54 -356.5t113 -298.5h-413q76 152 113.5 299t54.5 356l-6 2q-27 -67 -65.5 -124t-89 -104
t-116.5 -74t-139 -27q-151 0 -256 103t-105 253q0 62 18.5 119t47.5 102t75.5 90t90.5 79t104 73q146 95 279 233.5t199 237.5h4z" />
    <glyph glyph-name="club" unicode="&#x2663;" horiz-adv-x="1843" 
d="M715 0q76 152 113.5 299t54.5 356l-6 2q-27 -67 -65.5 -124t-89 -104t-116.5 -74t-139 -27q-151 0 -256 103t-105 253q0 161 99 265t258 104q84 0 172 -47l4 4q-78 118 -78 239q0 154 103.5 261.5t257.5 107.5t257 -107.5t103 -261.5q0 -121 -78 -239l4 -4q88 47 172 47
q159 0 258 -104t99 -265q0 -150 -105 -253t-256 -103q-142 0 -246 93.5t-163 235.5l-6 -2q17 -210 54 -356.5t113 -298.5h-413z" />
    <glyph glyph-name="heart" unicode="&#x2665;" horiz-adv-x="1843" 
d="M924 -20h-4q-59 88 -193.5 259t-284.5 341q-64 73 -114 136.5t-105 148.5t-86 170t-31 161q0 185 107 303.5t285 118.5q92 0 163.5 -25.5t120.5 -73t80.5 -100.5t55.5 -123h8q24 70 55.5 123t80.5 100.5t120.5 73t163.5 25.5q178 0 284.5 -118.5t106.5 -303.5
q0 -76 -31 -161t-86 -170t-105 -148.5t-114 -136.5q-149 -169 -283.5 -340t-193.5 -260z" />
    <glyph glyph-name="diamond" unicode="&#x2666;" horiz-adv-x="1843" 
d="M1673 799q-218 -170 -415 -386t-334 -433h-4q-137 217 -334.5 433t-415.5 386q218 170 415.5 386t334.5 433h4q137 -217 334 -433t415 -386z" />
    <glyph glyph-name="uni267B" unicode="&#x267b;" horiz-adv-x="1966" 
d="M1767 545l2 -4l-196 -342q-41 -60 -60 -77q-44 -38 -120 -38h-117v-100l-232 278l232 277v-101h297q34 0 66.5 11t54.5 27t39.5 31.5t25.5 26.5zM381 250h-4l-197 344q-23 42 -31.5 65.5t-5.5 63t29 82.5l57 100l-86 49l357 64l121 -340l-84 49q-144 -246 -148 -256
q-27 -46 -29 -101.5t10 -87.5zM827 1595v2h396q37 -1 56 -3t46 -11t47 -29t39 -53l57 -100l88 49l-124 -340l-355 64l84 49l-147 256q-27 47 -74 76t-80 35zM410 1225l137 243q21 38 69 64q63 34 131.5 30.5t126.5 -33t80 -69.5l-237 -411zM913 84h-276q-43 0 -90 27
q-45 26 -76 70.5t-42.5 91.5t-9.5 91.5t19 73.5h475v-354zM1651 1079l141 -239q20 -36 20 -90q1 -99 -78 -178.5t-151 -79.5l-237 411z" />
    <glyph glyph-name="uni267C" unicode="&#x267c;" horiz-adv-x="1966" 
d="M598 1321l-106 -188l237 -138l184 320q-17 30 -62 52.5t-98 25.5t-102 -23q-37 -21 -53 -49zM807 1421v-2q4 0 11 -1.5t26.5 -7.5t36.5 -14.5t37.5 -26.5t33.5 -40l115 -199l-66 -38l275 -50l96 265l-67 -39l-45 78q-28 49 -60 62t-86 13h-307zM659 248h215v274h-368
q-13 -22 -15 -57t7.5 -71.5t33.5 -71t58 -54.5q36 -20 69 -20zM467 377h2q-5 10 -10.5 27.5t-5 63t21.5 81.5l115 199l65 -39l-94 264l-276 -49l67 -39l-45 -78q-20 -34 -22.5 -65t4 -48.5t24.5 -50.5zM1563 834l-109 186l-237 -137l184 -320q57 0 118 61.5t60 139.5
q0 42 -16 70zM1546 602l-2 2q-2 -3 -6.5 -8.5t-19.5 -20t-31.5 -25t-42 -19.5t-51.5 -9h-230v78l-180 -215l180 -215v78h90q57 0 85 21.5t55 66.5zM131 799q0 221 108.5 407.5t295 295t407.5 108.5t407.5 -108.5t295 -295t108.5 -407.5t-108.5 -407.5t-295 -295
t-407.5 -108.5t-407.5 108.5t-295 295t-108.5 407.5z" />
    <glyph glyph-name="uni267D" unicode="&#x267d;" horiz-adv-x="1966" 
d="M492 1133l106 188q16 28 53 49q49 26 102 23t98 -25.5t62 -52.5l-184 -320zM807 1419v2h307q54 0 86 -13t60 -62l45 -78l67 39l-96 -265l-275 50l66 38l-115 199q-21 36 -57 58.5t-62 26.5zM874 248h-215q-33 0 -69 20q-34 20 -58 54.5t-33.5 71t-7.5 71.5t15 57h368
v-274zM469 377h-2l-154 266q-18 33 -24.5 50.5t-4 48.5t22.5 65l45 78l-67 39l276 49l94 -264l-65 39l-115 -199q-21 -36 -22.5 -79t7.5 -68zM1454 1020l109 -186q16 -28 16 -70q1 -78 -60 -139.5t-118 -61.5l-184 320zM1544 604l2 -2l-153 -266q-18 -30 -31 -46t-41 -29
t-68 -13h-90v-78l-180 215l180 215v-78h230q42 0 79.5 20.5t54.5 41.5zM123 799q0 167 65 318.5t174.5 261t261 174.5t318.5 65t318.5 -65t261 -174.5t174.5 -261t65 -318.5t-65 -318.5t-174.5 -261t-261 -174.5t-318.5 -65t-318.5 65t-261 174.5t-174.5 261t-65 318.5z
M201 799q0 -202 99 -372.5t269.5 -270t372.5 -99.5t372.5 99.5t269.5 270t99 372.5q0 151 -58.5 288.5t-157.5 236.5t-236.5 157.5t-288.5 58.5t-288.5 -58.5t-236.5 -157.5t-157.5 -236.5t-58.5 -288.5z" />
    <glyph glyph-name="mediumwhitecircle" unicode="&#x26aa;" horiz-adv-x="1372" 
d="M119 543q0 154 76 284.5t206.5 206.5t284.5 76t284.5 -76t206.5 -206.5t76 -284.5t-76 -285t-206.5 -207t-284.5 -76t-284.5 76t-206.5 207t-76 285zM305 543q0 -158 111.5 -269.5t269.5 -111.5t269.5 111.5t111.5 269.5t-111.5 269.5t-269.5 111.5t-269.5 -111.5
t-111.5 -269.5z" />
    <glyph glyph-name="mediumblackcircle" unicode="&#x26ab;" horiz-adv-x="1372" 
d="M119 543q0 154 76 284.5t206.5 206.5t284.5 76t284.5 -76t206.5 -206.5t76 -284.5t-76 -285t-206.5 -207t-284.5 -76t-284.5 76t-206.5 207t-76 285z" />
    <glyph glyph-name="anglebracketleft" unicode="&#x3008;" horiz-adv-x="684" 
d="M625 1720l-332 -983l332 -983h-215l-332 983l332 983h215z" />
    <glyph glyph-name="anglebracketright" unicode="&#x3009;" horiz-adv-x="684" 
d="M59 -246l332 983l-332 983h215l332 -983l-332 -983h-215z" />
    <glyph glyph-name="fi" unicode="&#xe38c;" horiz-adv-x="1280" 
d="M430 1288v-203h283v-182h-283v-903h-205v903h-170v182h170v226q0 352 348 352q110 0 160 -25v-172q-45 17 -112 17q-99 0 -145 -41t-46 -154zM938 0v1085h205v-1085h-205zM1157 1544v-233h-233v233h233z" />
    <glyph glyph-name="fi" unicode="&#xfb01;" horiz-adv-x="1280" 
d="M430 1288v-203h283v-182h-283v-903h-205v903h-170v182h170v226q0 352 348 352q110 0 160 -25v-172q-45 17 -112 17q-99 0 -145 -41t-46 -154zM938 0v1085h205v-1085h-205zM1157 1544v-233h-233v233h233z" />
    <glyph glyph-name="fl" unicode="&#xe38d;" horiz-adv-x="1280" 
d="M430 1288v-203h283v-182h-283v-903h-205v903h-170v182h170v226q0 352 348 352q110 0 160 -25v-172q-45 17 -112 17q-99 0 -145 -41t-46 -154zM938 0v1638h205v-1638h-205z" />
    <glyph glyph-name="fl" unicode="&#xfb02;" horiz-adv-x="1280" 
d="M430 1288v-203h283v-182h-283v-903h-205v903h-170v182h170v226q0 352 348 352q110 0 160 -25v-172q-45 17 -112 17q-99 0 -145 -41t-46 -154zM938 0v1638h205v-1638h-205z" />
    <glyph glyph-name="invertedbreve" unicode="&#xe411;" horiz-adv-x="1024" 
d="M512 1622q181 0 266 -102.5t82 -276.5h-158q0 213 -190 213t-190 -213h-158q-3 174 82 276.5t266 102.5z" />
    <glyph glyph-name="doublegrave" unicode="&#xe412;" horiz-adv-x="1024" 
d="M387 1597h193l159 -354h-174zM84 1597h190l187 -354h-174z" />
    <glyph glyph-name="caronSlovak" unicode="&#xe413;" horiz-adv-x="1024" 
d="M649 1638h150l-43 -395h-107v395z" />
    <glyph glyph-name="commaaccent" unicode="&#xe414;" horiz-adv-x="1232" 
d="M616 -104v-111q0 -234 -245 -234v89q129 0 153 96h-116v160h208z" />
    <glyph glyph-name="commaaccent" unicode="&#xf6c3;" horiz-adv-x="1232" 
d="M616 -104v-111q0 -234 -245 -234v89q129 0 153 96h-116v160h208z" />
    <glyph glyph-name="dotbelow" unicode="&#xe415;" horiz-adv-x="1232" 
d="M616 -152v-210h-208v210h208z" />
    <glyph glyph-name="altcedilla" unicode="&#xe416;" horiz-adv-x="1232" 
d="M610 -258q0 32 -26.5 45.5t-83.5 13.5q-75 0 -111 -16v94q69 21 137 21q97 0 156 -41.5t59 -126.5q0 -84 -58 -126t-165 -42q-129 0 -199 45l37 106q59 -32 144 -32q58 0 84 13.5t26 45.5z" />
    <glyph glyph-name="grave.cap" unicode="&#xe421;" horiz-adv-x="1024" 
d="M279 1946h219l118 -226h-208z" />
    <glyph glyph-name="acute.cap" unicode="&#xe422;" horiz-adv-x="1024" 
d="M526 1946h219l-129 -226h-208z" />
    <glyph glyph-name="circumflex.cap" unicode="&#xe423;" horiz-adv-x="1024" 
d="M377 1720h-197l232 226h200l232 -226h-197l-135 117z" />
    <glyph glyph-name="tilde.cap" unicode="&#xe424;" horiz-adv-x="1024" 
d="M719 1925h127q0 -108 -48.5 -158.5t-129.5 -50.5q-44 0 -88.5 16.5t-75.5 36t-66 36t-61 16.5q-72 0 -72 -80h-127q0 108 48.5 158.5t129.5 50.5q44 0 88.5 -16.5t75.5 -36t66 -36t61 -16.5q72 0 72 80z" />
    <glyph glyph-name="macron.cap" unicode="&#xe425;" horiz-adv-x="1024" 
d="M254 1761v144h516v-144h-516z" />
    <glyph glyph-name="breve.cap" unicode="&#xe426;" horiz-adv-x="1024" 
d="M512 1694q-326 0 -326 252h154q0 -123 172 -123t172 123h154q0 -252 -326 -252z" />
    <glyph glyph-name="invertedbreve.cap" unicode="&#xe427;" horiz-adv-x="1024" 
d="M512 1972q326 0 326 -252h-154q0 123 -172 123t-172 -123h-154q0 252 326 252z" />
    <glyph glyph-name="dotaccent.cap" unicode="&#xe428;" horiz-adv-x="1024" 
d="M612 1917v-168h-200v168h200z" />
    <glyph glyph-name="dieresis.cap" unicode="&#xe429;" horiz-adv-x="1024" 
d="M446 1917v-168h-202v168h202zM780 1917v-168h-202v168h202z" />
    <glyph glyph-name="ring.cap" unicode="&#xe42a;" horiz-adv-x="1024" 
d="M311 1769q0 83 59 142t142 59t142 -59t59 -142q0 -85 -58.5 -143.5t-142.5 -58.5t-142.5 58.5t-58.5 143.5zM401 1769q0 -46 32.5 -79t78.5 -33t78.5 33t32.5 79q0 45 -33 78t-78 33t-78 -33t-33 -78z" />
    <glyph glyph-name="hungarumlaut.cap" unicode="&#xe42b;" horiz-adv-x="1024" 
d="M383 1946h201l-119 -226h-193zM678 1946h201l-127 -226h-193z" />
    <glyph glyph-name="doublegrave.cap" unicode="&#xe42c;" horiz-adv-x="1024" 
d="M440 1946h201l111 -226h-193zM145 1946h201l119 -226h-193z" />
    <glyph glyph-name="caron.cap" unicode="&#xe42d;" horiz-adv-x="1024" 
d="M180 1946h197l135 -119l135 119h197l-232 -226h-200z" />
    <glyph glyph-name="commaaccent.cap" unicode="&#xe42e;" horiz-adv-x="1024" 
d="M412 1720v74q0 85 54 132.5t165 47.5v-69q-57 0 -86 -13.5t-39 -48.5h106v-123h-200z" />
    <glyph glyph-name="exclamdown.cap" unicode="&#xe441;" horiz-adv-x="479" 
d="M367 0h-254l55 1182h143zM356 1597v-233h-233v233h233z" />
    <glyph glyph-name="questiondown.cap" unicode="&#xe444;" horiz-adv-x="962" 
d="M473 162q128 0 178.5 97t50.5 296h209v-27q0 -129 -21 -225.5t-70 -172.5t-136 -115.5t-211 -39.5q-113 0 -196.5 32t-131.5 90.5t-71 132.5t-23 167q0 83 19 151t49.5 114.5t68 88.5t75.5 83.5t70.5 87.5t55 112.5t27.5 147.5h141q6 -112 -22.5 -208.5t-73 -165
t-89.5 -130t-77.5 -130.5t-32.5 -138q0 -119 48 -183.5t163 -64.5zM369 1364v233h233v-233h-233z" />
    <glyph glyph-name="guilsinglleft.cap" unicode="&#xe451;" horiz-adv-x="632" 
d="M530 1204v-192l-278 -213l278 -213v-193l-428 309v193z" />
    <glyph glyph-name="guilsinglright.cap" unicode="&#xe452;" horiz-adv-x="632" 
d="M102 1012v192l428 -309v-193l-428 -309v193l275 213z" />
    <glyph glyph-name="guillemotleft.cap" unicode="&#xe453;" horiz-adv-x="1093" 
d="M530 1204v-192l-278 -213l278 -213v-193l-428 309v193zM991 1204v-192l-276 -213l276 -213v-193l-426 309v193z" />
    <glyph glyph-name="guillemotright.cap" unicode="&#xe454;" horiz-adv-x="1093" 
d="M102 1012v192l428 -309v-193l-428 -309v193l275 213zM565 1012v192l426 -309v-193l-426 -309v193l275 213z" />
    <glyph glyph-name="slash.cap" unicode="&#xe461;" horiz-adv-x="702" 
d="M256 0h-205l393 1597h205z" />
    <glyph glyph-name="backslash.cap" unicode="&#xe462;" horiz-adv-x="702" 
d="M51 1597h205l393 -1597h-205z" />
    <glyph glyph-name="bar.cap" unicode="&#xe463;" horiz-adv-x="456" 
d="M125 0v1597h205v-1597h-205z" />
    <glyph glyph-name="doublebar.cap" unicode="&#xe464;" horiz-adv-x="765" 
d="M125 0v1597h205v-1597h-205zM436 0v1597h203v-1597h-203z" />
    <glyph glyph-name="brokenbar.cap" unicode="&#xe465;" horiz-adv-x="456" 
d="M125 862v735h205v-735h-205zM125 0v735h205v-735h-205z" />
    <glyph glyph-name="bullet.cap" unicode="&#xe466;" horiz-adv-x="847" 
d="M713 1087v-577h-578v577h578z" />
    <glyph glyph-name="onethirdemdash" unicode="&#xe471;" horiz-adv-x="681" 
d="M600 625h-518v184h518v-184z" />
    <glyph glyph-name="threequarteremdash" unicode="&#xe472;" horiz-adv-x="1536" 
d="M82 625v184h1372v-184h-1372z" />
    <glyph glyph-name="periodcentered.cap" unicode="&#xe481;" horiz-adv-x="479" 
d="M356 915v-233h-233v233h233z" />
    <glyph glyph-name="hyphen.cap" unicode="&#xe482;" horiz-adv-x="655" 
d="M82 707v184h526v-184h-526z" />
    <glyph glyph-name="onethirdemdash.cap" unicode="&#xe483;" horiz-adv-x="681" 
d="M600 707h-508v184h508v-184z" />
    <glyph glyph-name="endash.cap" unicode="&#xe484;" horiz-adv-x="1024" 
d="M82 707v184h860v-184h-860z" />
    <glyph glyph-name="threequarteremdash.cap" unicode="&#xe485;" horiz-adv-x="1536" 
d="M82 707v184h1372v-184h-1372z" />
    <glyph glyph-name="emdash.cap" unicode="&#xe486;" horiz-adv-x="2048" 
d="M82 707v184h1884v-184h-1884z" />
    <glyph glyph-name="figuredash.cap" unicode="&#xe487;" horiz-adv-x="1228" 
d="M82 707v184h1065v-184h-1065z" />
    <glyph glyph-name="uni2015.cap" unicode="&#xe488;" horiz-adv-x="2457" 
d="M82 707v184h2294v-184h-2294z" />
    <glyph glyph-name="parenleft.cap" unicode="&#xe491;" horiz-adv-x="684" 
d="M111 778v41q0 445 249 778h218q-112 -162 -185.5 -363t-73.5 -415v-41q0 -214 73.5 -415t185.5 -363h-218q-249 333 -249 778z" />
    <glyph glyph-name="parenright.cap" unicode="&#xe492;" horiz-adv-x="684" 
d="M573 819v-41q0 -443 -247 -778h-220q112 162 185.5 363t73.5 415v41q0 214 -73.5 415t-185.5 363h220q247 -335 247 -778z" />
    <glyph glyph-name="bracketleft.cap" unicode="&#xe493;" horiz-adv-x="684" 
d="M131 1597h475v-186h-268v-1225h268v-186h-475v1597z" />
    <glyph glyph-name="bracketright.cap" unicode="&#xe494;" horiz-adv-x="684" 
d="M555 0h-475v186h266v1225h-266v186h475v-1597z" />
    <glyph glyph-name="braceleft.cap" unicode="&#xe495;" horiz-adv-x="684" 
d="M606 1597v-186q-92 0 -136 -44t-44 -155v-194q0 -160 -115 -219q115 -62 115 -219v-218q4 -98 48 -137t132 -39v-186h-45q-74 0 -133 15.5t-108 50.5t-76 97.5t-27 149.5v217q0 99 -39 137t-127 38v188q88 0 127 37.5t39 136.5v217q0 87 27 149.5t76 97.5t108 50.5
t133 15.5h45z" />
    <glyph glyph-name="braceright.cap" unicode="&#xe496;" horiz-adv-x="684" 
d="M80 1411v186h43q74 0 133 -15.5t108 -50.5t76 -97.5t27 -149.5v-217q0 -99 39 -136.5t129 -37.5v-188q-90 0 -129 -38t-39 -137v-217q0 -87 -27 -149.5t-76 -97.5t-108 -50.5t-133 -15.5h-43v186q87 0 130.5 39t47.5 137v218q0 157 115 219q-115 59 -115 219v194
q0 111 -43.5 155t-134.5 44z" />
    <glyph glyph-name="anglebracketleft.cap" unicode="&#xe497;" horiz-adv-x="684" 
d="M573 1597l-276 -798l276 -799h-215l-276 799l276 798h215z" />
    <glyph glyph-name="anglebracketright.cap" unicode="&#xe498;" horiz-adv-x="684" 
d="M387 799l-276 798h215l276 -798l-276 -799h-215z" />
    <glyph glyph-name="lowline" unicode="&#xe511;" horiz-adv-x="655" 
d="M94 0v184h467v-184h-467z" />
    <glyph glyph-name="underscoremonospace" unicode="&#xe512;" horiz-adv-x="1228" 
d="M94 -313v184h1041v-184h-1041z" />
    <glyph glyph-name="underscoremonospace" unicode="&#xff3f;" horiz-adv-x="1228" 
d="M94 -313v184h1041v-184h-1041z" />
    <glyph glyph-name="at.cap" unicode="&#xe513;" horiz-adv-x="1988" 
d="M1036 -82h13q376 0 673 217l86 -115q-177 -140 -368 -194.5t-398 -54.5q-215 0 -395.5 66.5t-310 191t-201.5 311.5t-72 418v82q0 231 71.5 418t199.5 311.5t306.5 191t391.5 66.5q147 0 278.5 -30.5t245 -95.5t195.5 -160t129 -231.5t47 -301.5v-62q0 -121 -18.5 -216.5
t-54.5 -162.5t-84 -114t-112 -74t-132.5 -39t-151.5 -12h-135l-22 139q-102 -164 -306 -164q-100 0 -176.5 38t-123 104.5t-70 151.5t-23.5 185v54q0 100 23.5 185t70 151.5t123 104.5t176.5 38q203 0 306 -166l22 141h162l-17 -293v-524q79 3 136 15.5t106.5 44t79 84
t46.5 134.5t17 195v62q0 145 -40.5 260.5t-109 191t-163.5 126t-198.5 72t-219.5 21.5h-12q-179 0 -328 -56t-256.5 -161t-167 -264t-59.5 -358v-82q0 -203 60 -363t169.5 -264t259.5 -158.5t332 -54.5zM1198 1006q-35 56 -95 98.5t-140 42.5q-124 0 -186 -84t-62 -227v-54
q0 -143 62 -227t186 -84q80 0 140 42.5t95 98.5v394z" />
    <glyph glyph-name="zero.inf" unicode="&#xe571;" 
d="M569 -184q0 -107 -68 -173.5t-194 -66.5t-194 66.5t-68 173.5v346q0 108 67.5 173.5t194.5 65.5t194.5 -65.5t67.5 -173.5v-346zM397 162q0 41 -22.5 65.5t-65.5 24.5h-4q-44 0 -67 -24.5t-23 -65.5v-344q0 -42 23 -67t67 -25h4q43 0 65.5 25.5t22.5 66.5v344z" />
    <glyph glyph-name="one.inf" unicode="&#xe572;" 
d="M586 -410h-518v150h174v438l-121 -82l-86 125l250 168h129v-649h172v-150z" />
    <glyph glyph-name="two.inf" unicode="&#xe573;" 
d="M571 -260v-150h-528v109l305 336q28 29 39.5 51t11.5 53v11q0 51 -24 76.5t-64 25.5h-10q-86 0 -86 -129h-172v20q0 130 65 194t199 64q71 0 124 -20t82.5 -53t43.5 -70t14 -78v-20q0 -66 -21 -109t-69 -96l-196 -215h286z" />
    <glyph glyph-name="three.inf" unicode="&#xe574;" 
d="M209 -154q0 -120 92 -120h10q40 0 67.5 25t27.5 73v10q0 42 -25.5 65t-67.5 23h-108v152h106q88 0 88 84v12q0 36 -24.5 59t-63.5 23h-10q-86 0 -86 -129h-172v20q0 130 65 194t199 64q70 0 123.5 -19.5t83 -52t43.5 -68t14 -73.5v-18q0 -116 -92 -172q96 -56 96 -174
v-19q0 -39 -15 -77.5t-45 -73.5t-84 -56.5t-124 -21.5q-134 0 -202 66t-68 190v14h172z" />
    <glyph glyph-name="four.inf" unicode="&#xe575;" 
d="M504 -410h-172v170h-305v121l315 508h162v-477h82v-152h-82v-170zM334 115l-129 -207l49 4h78v149z" />
    <glyph glyph-name="five.inf" unicode="&#xe576;" 
d="M37 -154h172q0 -120 92 -120h10q41 0 68 27.5t27 84.5v10q0 57 -28.5 84t-74.5 27h-6q-31 0 -61 -14.5t-46 -42.5l-147 49l20 438h502v-151h-358l-6 -150q57 23 114 23q124 0 192 -69.5t68 -188.5v-19q0 -121 -69 -189.5t-199 -68.5q-134 0 -202 66t-68 190v14z" />
    <glyph glyph-name="six.inf" unicode="&#xe577;" 
d="M535 401v-151q-175 0 -252 -92q-35 -41 -50 -99q54 35 119 35q102 0 162.5 -67t60.5 -185v-10q0 -121 -68.5 -188.5t-199.5 -67.5q-128 0 -198 79.5t-70 213.5v16q0 219 113 367q62 84 155.5 116.5t227.5 32.5zM309 -55q-63 0 -98 -56v-32q0 -62 26.5 -96.5t67.5 -34.5h6
q40 0 67.5 27t27.5 73v20q0 50 -25 74.5t-66 24.5h-6z" />
    <glyph glyph-name="seven.inf" unicode="&#xe578;" 
d="M35 102v287h545v-106l-281 -693h-184l274 650l-96 -2h-109v-136h-149z" />
    <glyph glyph-name="eight.inf" unicode="&#xe579;" 
d="M307 -424q-70 0 -124.5 21.5t-85 56t-45.5 72.5t-15 77v21q0 117 94 176q-88 56 -88 170v18q0 38 14 73.5t43.5 68t83 52t123.5 19.5t123.5 -19.5t83 -52t43.5 -68t14 -73.5v-18q0 -113 -90 -170q94 -61 94 -176v-21q0 -39 -15 -77t-45 -72.5t-84 -56t-124 -21.5z
M299 -78q-42 0 -66 -22.5t-24 -65.5v-12q0 -48 26.5 -72t65.5 -24h10q40 0 67.5 24t27.5 72v12q0 43 -25 65.5t-68 22.5h-14zM311 252h-10q-38 0 -63 -23t-25 -61v-8q0 -86 90 -86h8q42 0 65 22t23 64v8q0 38 -24.5 61t-63.5 23z" />
    <glyph glyph-name="nine.inf" unicode="&#xe57a;" 
d="M78 -424v152q174 0 252 94q33 38 51 98q-58 -35 -121 -35q-101 0 -162 67.5t-61 184.5v10q0 119 68.5 186.5t199.5 67.5q130 0 200 -78.5t70 -213.5v-15q0 -215 -112 -368q-62 -83 -157 -116.5t-228 -33.5zM303 33q63 0 100 55v35q0 61 -26.5 96t-67.5 35h-6
q-40 0 -67 -27t-27 -75v-21q0 -49 25 -73.5t65 -24.5h4z" />
    <glyph glyph-name="plus.inf" unicode="&#xe57b;" 
d="M231 254h152v-188h188v-152h-188v-188h-152v188h-188v152h188v188z" />
    <glyph glyph-name="minus.inf" unicode="&#xe57c;" 
d="M43 -86v152h528v-152h-528z" />
    <glyph glyph-name="equal.inf" unicode="&#xe57d;" 
d="M43 25v151h528v-151h-528zM43 -197v150h528v-150h-528z" />
    <glyph glyph-name="parenleft.inf" unicode="&#xe57e;" horiz-adv-x="378" 
d="M43 -20v20q0 236 123 389h176q-129 -195 -129 -389v-20q0 -200 129 -390h-176q-123 149 -123 390z" />
    <glyph glyph-name="parenright.inf" unicode="&#xe57f;" horiz-adv-x="378" 
d="M334 0v-20q0 -245 -123 -390h-176q129 184 129 390v20q0 201 -129 389h176q123 -148 123 -389z" />
    <glyph glyph-name="Anocross" unicode="&#xe731;" horiz-adv-x="1271" 
d="M487 1610h297l441 -1610h-230l-358 1370l-358 -1370h-232z" />
    <glyph glyph-name="idotaccent" unicode="&#xe785;" horiz-adv-x="479" 
d="M137 0v1085h205v-1085h-205zM356 1544v-233h-233v233h233z" />
    <glyph glyph-name="interrobangdown" unicode="&#xe935;" horiz-adv-x="962" 
d="M414 670h112l45 -899q71 33 101 119.5t30 232.5h209v-29q0 -98 -12.5 -176t-43.5 -145.5t-80.5 -112t-125.5 -69.5t-176 -25q-109 0 -192 29.5t-132.5 83t-73.5 120.5t-24 148t19 147.5t50 111.5t68 84.5t75.5 77t70.5 78t54 98t26 126.5zM369 852v233h233v-233h-233z
M262 -35q0 -155 115 -198l29 532q-6 -9 -29.5 -43.5t-30.5 -46.5t-25 -42t-25 -48.5t-17 -46t-13.5 -53.5t-3.5 -54z" />
    <glyph glyph-name="interrobangdown.cap" unicode="&#xe99b;" horiz-adv-x="962" 
d="M416 1182h110l47 -1000q69 34 99 127t30 246h209v-27q0 -129 -21 -225.5t-70 -172.5t-136 -115.5t-211 -39.5q-113 0 -196.5 32t-131.5 90.5t-71 132.5t-23 167q0 83 19 151t49.5 114.5t68 88.5t75.5 83.5t70.5 87.5t55 112.5t27.5 147.5zM369 1364v233h233v-233h-233z
M262 410q0 -187 115 -234l26 594q-12 -22 -39 -69.5t-40 -73.5t-30 -65.5t-24.5 -76t-7.5 -75.5z" />
    <glyph glyph-name="registered.cap" unicode="&#xe99c;" horiz-adv-x="1884" 
d="M119 799q0 168 65 320t175.5 262.5t262.5 175.5t320 65t320 -65t262.5 -175.5t175.5 -262.5t65 -320t-65 -320.5t-175.5 -262.5t-262.5 -175.5t-320 -65.5t-320 65.5t-262.5 175.5t-175.5 262.5t-65 320.5zM217 799q0 -197 97 -364t264 -264t364 -97t364 97t264 264
t97 364t-97 364t-264 264t-364 97t-364 -97t-264 -264t-97 -364zM770 676v-359h-190v963h415q62 0 113.5 -13t99.5 -43.5t75.5 -90.5t27.5 -144v-22q0 -197 -154 -262l154 -388h-203l-125 359h-213zM770 821h193q66 0 111.5 33.5t45.5 116.5v14q0 83 -45.5 116.5
t-111.5 33.5h-193v-314z" />
    <glyph glyph-name="period.T" unicode="&#xf182;" 
d="M424 233v-233h-234v233h234z" />
    <glyph glyph-name="comma.T" unicode="&#xf183;" 
d="M424 233v-184q0 -309 -270 -309v115q70 0 108 34t47 111h-119v233h234z" />
    <glyph glyph-name="colon.T" unicode="&#xf184;" 
d="M424 233v-233h-234v233h234zM424 915v-233h-234v233h234z" />
    <glyph glyph-name="semicolon.T" unicode="&#xf185;" 
d="M424 233v-184q0 -309 -270 -309v115q70 0 108 34t47 111h-119v233h234zM424 915v-233h-234v233h234z" />
    <glyph glyph-name="onesixteenth" unicode="&#xf215;" horiz-adv-x="2252" 
d="M336 0h-213l1180 1597h213zM2173 811v-152q-175 0 -252 -92q-34 -40 -49 -98q54 35 119 35q102 0 162.5 -67t60.5 -185v-10q0 -121 -68.5 -188.5t-199.5 -67.5q-128 0 -198.5 80t-70.5 213v16q0 219 113 367q62 84 155.5 116.5t227.5 32.5zM586 799h-518v149h174v438
l-121 -81l-86 125l250 167h129v-649h172v-149zM1610 0h-518v150h174v438l-121 -82l-86 125l250 168h129v-649h172v-150zM1948 354q-65 0 -99 -57v-31q0 -62 27 -96.5t68 -34.5h6q40 0 67 27.5t27 73.5v20q0 50 -24.5 74t-65.5 24h-6z" />
    <glyph glyph-name="threesixteenths" unicode="&#xf216;" horiz-adv-x="2252" 
d="M336 0h-213l1180 1597h213zM2173 811v-152q-175 0 -252 -92q-34 -40 -49 -98q54 35 119 35q102 0 162.5 -67t60.5 -185v-10q0 -121 -68.5 -188.5t-199.5 -67.5q-128 0 -198.5 80t-70.5 213v16q0 219 113 367q62 84 155.5 116.5t227.5 32.5zM209 1055q0 -121 92 -121h10
q40 0 67.5 25t27.5 73v10q0 42 -25.5 65t-67.5 23h-108v152h106q88 0 88 84v12q0 36 -24.5 59t-63.5 23h-10q-86 0 -86 -129h-172v21q0 130 65 194t199 64q70 0 123.5 -19.5t83 -52t43.5 -68t14 -73.5v-19q0 -116 -92 -172q96 -60 96 -174v-18q0 -39 -15 -77.5t-45 -73.5
t-84 -57t-124 -22q-134 0 -202 66t-68 190v15h172zM1610 0h-518v150h174v438l-121 -82l-86 125l250 168h129v-649h172v-150zM1948 354q-65 0 -99 -57v-31q0 -62 27 -96.5t68 -34.5h6q40 0 67 27.5t27 73.5v20q0 50 -24.5 74t-65.5 24h-6z" />
    <glyph glyph-name="fivesixteenths" unicode="&#xf217;" horiz-adv-x="2252" 
d="M336 0h-213l1180 1597h213zM2173 811v-152q-175 0 -252 -92q-34 -40 -49 -98q54 35 119 35q102 0 162.5 -67t60.5 -185v-10q0 -121 -68.5 -188.5t-199.5 -67.5q-128 0 -198.5 80t-70.5 213v16q0 219 113 367q62 84 155.5 116.5t227.5 32.5zM37 1055h172q0 -121 92 -121
h10q41 0 68 27.5t27 85.5v10q0 57 -28.5 83.5t-74.5 26.5h-6q-31 0 -61 -14.5t-46 -42.5l-147 49l20 438h502v-151h-358l-6 -150q58 23 114 23q124 0 192 -69.5t68 -188.5v-19q0 -121 -69 -189.5t-199 -68.5q-134 0 -202 66t-68 190v15zM1610 0h-518v150h174v438l-121 -82
l-86 125l250 168h129v-649h172v-150zM1948 354q-65 0 -99 -57v-31q0 -62 27 -96.5t68 -34.5h6q40 0 67 27.5t27 73.5v20q0 50 -24.5 74t-65.5 24h-6z" />
    <glyph glyph-name="sevensixteenths" unicode="&#xf218;" horiz-adv-x="2252" 
d="M336 0h-213l1180 1597h213zM2173 811v-152q-175 0 -252 -92q-34 -40 -49 -98q54 35 119 35q102 0 162.5 -67t60.5 -185v-10q0 -121 -68.5 -188.5t-199.5 -67.5q-128 0 -198.5 80t-70.5 213v16q0 219 113 367q62 84 155.5 116.5t227.5 32.5zM1610 0h-518v150h174v438
l-121 -82l-86 125l250 168h129v-649h172v-150zM35 1311v286h545v-106l-281 -692h-184l274 649l-96 -2h-109v-135h-149zM1948 354q-65 0 -99 -57v-31q0 -62 27 -96.5t68 -34.5h6q40 0 67 27.5t27 73.5v20q0 50 -24.5 74t-65.5 24h-6z" />
    <glyph glyph-name="ninesixteenths" unicode="&#xf219;" horiz-adv-x="2252" 
d="M336 0h-213l1180 1597h213zM78 784v152q174 0 252 94q32 38 51 96q-53 -32 -121 -32q-101 0 -162 67.5t-61 184.5v10q0 119 68.5 186.5t199.5 67.5q130 0 200 -79t70 -214v-14q0 -216 -112 -369q-62 -83 -157 -116.5t-228 -33.5zM2173 811v-152q-175 0 -252 -92
q-34 -40 -49 -98q54 35 119 35q102 0 162.5 -67t60.5 -185v-10q0 -121 -68.5 -188.5t-199.5 -67.5q-128 0 -198.5 80t-70.5 213v16q0 219 113 367q62 84 155.5 116.5t227.5 32.5zM1610 0h-518v150h174v438l-121 -82l-86 125l250 168h129v-649h172v-150zM303 1241
q63 0 100 55v35q0 61 -26.5 96t-67.5 35h-6q-40 0 -67 -27t-27 -75v-21q0 -49 25 -73.5t65 -24.5h4zM1948 354q-65 0 -99 -57v-31q0 -62 27 -96.5t68 -34.5h6q40 0 67 27.5t27 73.5v20q0 50 -24.5 74t-65.5 24h-6z" />
    <glyph glyph-name="elevensixteenths" unicode="&#xf220;" horiz-adv-x="2867" 
d="M950 0h-213l1180 1597h213zM2787 811v-152q-175 0 -252 -92q-34 -40 -49 -98q54 35 119 35q102 0 162.5 -67t60.5 -185v-10q0 -121 -68.5 -188.5t-199.5 -67.5q-128 0 -198 79.5t-70 213.5v16q0 220 112 367q62 84 155.5 116.5t227.5 32.5zM2224 0h-518v150h174v438
l-121 -82l-86 125l250 168h129v-649h172v-150zM1200 799h-518v149h174v438l-121 -81l-86 125l250 167h129v-649h172v-149zM586 799h-518v149h174v438l-121 -81l-86 125l250 167h129v-649h172v-149zM2562 354q-64 0 -98 -57v-31q0 -62 26.5 -96.5t67.5 -34.5h6q40 0 67 27.5
t27 73.5v20q0 50 -24.5 74t-65.5 24h-6z" />
    <glyph glyph-name="thirteensixteenths" unicode="&#xf221;" horiz-adv-x="2867" 
d="M950 0h-213l1180 1597h213zM2787 811v-152q-175 0 -252 -92q-34 -40 -49 -98q54 35 119 35q102 0 162.5 -67t60.5 -185v-10q0 -121 -68.5 -188.5t-199.5 -67.5q-128 0 -198 79.5t-70 213.5v16q0 220 112 367q62 84 155.5 116.5t227.5 32.5zM823 1055q0 -121 92 -121h11
q40 0 67 25t27 73v10q0 42 -25 65t-67 23h-109v152h107q88 0 88 84v12q0 36 -24.5 59t-63.5 23h-11q-86 0 -86 -129h-172v21q0 258 265 258q70 0 123.5 -19.5t83 -52t43.5 -68t14 -73.5v-19q0 -116 -92 -172q96 -60 96 -174v-18q0 -39 -15 -77.5t-45 -73.5t-84 -57t-124 -22
q-134 0 -202.5 66t-68.5 190v15h172zM586 799h-518v149h174v438l-121 -81l-86 125l250 167h129v-649h172v-149zM2224 0h-518v150h174v438l-121 -82l-86 125l250 168h129v-649h172v-150zM2562 354q-64 0 -98 -57v-31q0 -62 26.5 -96.5t67.5 -34.5h6q40 0 67 27.5t27 73.5v20
q0 50 -24.5 74t-65.5 24h-6z" />
    <glyph glyph-name="fifteensixteenths" unicode="&#xf222;" horiz-adv-x="2867" 
d="M950 0h-213l1180 1597h213zM2787 811v-152q-175 0 -252 -92q-34 -40 -49 -98q54 35 119 35q102 0 162.5 -67t60.5 -185v-10q0 -121 -68.5 -188.5t-199.5 -67.5q-128 0 -198 79.5t-70 213.5v16q0 220 112 367q62 84 155.5 116.5t227.5 32.5zM651 1055h172q0 -121 92 -121
h11q41 0 67.5 27.5t26.5 85.5v10q0 57 -28 83.5t-74 26.5h-7q-72 0 -106 -57l-148 49l21 438h502v-151h-359l-6 -150q57 23 115 23q124 0 192 -69.5t68 -188.5v-19q0 -121 -69 -189.5t-199 -68.5q-134 0 -202.5 66t-68.5 190v15zM586 799h-518v149h174v438l-121 -81l-86 125
l250 167h129v-649h172v-149zM2224 0h-518v150h174v438l-121 -82l-86 125l250 168h129v-649h172v-150zM2562 354q-64 0 -98 -57v-31q0 -62 26.5 -96.5t67.5 -34.5h6q40 0 67 27.5t27 73.5v20q0 50 -24.5 74t-65.5 24h-6z" />
    </font>
</defs>
</svg>
